<svg xmlns="http://www.w3.org/2000/svg" xmlns:xlink="http://www.w3.org/1999/xlink" width="108" height="108" viewBox="0 0 108 108">
  <defs>
    <filter id="Path_978624" x="0" y="0" width="108" height="108" filterUnits="userSpaceOnUse">
      <feOffset dy="3" input="SourceAlpha"/>
      <feGaussianBlur stdDeviation="3" result="blur"/>
      <feFlood flood-opacity="0.161"/>
      <feComposite operator="in" in2="blur"/>
      <feComposite in="SourceGraphic"/>
    </filter>
    <filter id="Path_1076716" x="0" y="0" width="108" height="108" filterUnits="userSpaceOnUse">
      <feOffset dy="3" input="SourceAlpha"/>
      <feGaussianBlur stdDeviation="3" result="blur-2"/>
      <feFlood flood-opacity="0.161"/>
      <feComposite operator="in" in2="blur-2"/>
      <feComposite in="SourceGraphic"/>
    </filter>
  </defs>
  <g id="Group_1220640" data-name="Group 1220640" transform="translate(-200 -820)">
    <g id="Group_1215254" data-name="Group 1215254" transform="translate(-416 529)">
      <g id="Group_1208503" data-name="Group 1208503" transform="translate(0 -195)">
        <g id="Group_1200660" data-name="Group 1200660">
          <g id="Group_1181203" data-name="Group 1181203" transform="translate(625 492)">
            <g id="Group_1172348" data-name="Group 1172348" transform="translate(0)">
              <g id="Group_1171897" data-name="Group 1171897">
                <g id="Group_1171052" data-name="Group 1171052">
                  <g id="Group_1164581" data-name="Group 1164581">
                    <g id="Group_1144123" data-name="Group 1144123">
                      <g transform="matrix(1, 0, 0, 1, -9, -6)" filter="url(#Path_978624)">
                        <g id="Path_978624-2" data-name="Path 978624" transform="translate(9 6)" fill="#e7f2f8">
                          <path d="M 45 88.5 C 39.12687683105469 88.5 33.43022537231445 87.35007476806641 28.06830024719238 85.08217620849609 C 22.88852500915527 82.89131164550781 18.23629951477051 79.75458526611328 14.2408504486084 75.75914764404297 C 10.24541282653809 71.76370239257812 7.108687400817871 67.11147308349609 4.917825222015381 61.93170166015625 C 2.649924993515015 56.56977462768555 1.5 50.87312316894531 1.5 45 C 1.5 39.12687683105469 2.649924993515015 33.43022537231445 4.917825222015381 28.06830024719238 C 7.108687400817871 22.88852500915527 10.24541282653809 18.23629951477051 14.2408504486084 14.2408504486084 C 18.23629951477051 10.24541282653809 22.88852500915527 7.108687400817871 28.06830024719238 4.917825222015381 C 33.43022537231445 2.649924993515015 39.12687683105469 1.5 45 1.5 C 50.87312316894531 1.5 56.56977462768555 2.649924993515015 61.93170166015625 4.917825222015381 C 67.11147308349609 7.108687400817871 71.76370239257812 10.24541282653809 75.75914764404297 14.2408504486084 C 79.75458526611328 18.23629951477051 82.89131164550781 22.88852500915527 85.08217620849609 28.06830024719238 C 87.35007476806641 33.43022537231445 88.5 39.12687683105469 88.5 45 C 88.5 50.87312316894531 87.35007476806641 56.56977462768555 85.08217620849609 61.93170166015625 C 82.89131164550781 67.11147308349609 79.75458526611328 71.76370239257812 75.75914764404297 75.75914764404297 C 71.76370239257812 79.75458526611328 67.11147308349609 82.89131164550781 61.93170166015625 85.08217620849609 C 56.56977462768555 87.35007476806641 50.87312316894531 88.5 45 88.5 Z" stroke="none"/>
                          <path d="M 45 3 C 39.32871246337891 3 33.82865524291992 4.110054016113281 28.65262985229492 6.299339294433594 C 23.65165710449219 8.414573669433594 19.15968322753906 11.44334411621094 15.301513671875 15.301513671875 C 11.44334411621094 19.15968322753906 8.414573669433594 23.65165710449219 6.299339294433594 28.65262985229492 C 4.110054016113281 33.82865524291992 3 39.32871246337891 3 45 C 3 50.67128753662109 4.110054016113281 56.17134475708008 6.299339294433594 61.34737396240234 C 8.414573669433594 66.34834289550781 11.44334411621094 70.84031677246094 15.301513671875 74.698486328125 C 19.15968322753906 78.55665588378906 23.65165710449219 81.58542633056641 28.65262985229492 83.70066070556641 C 33.82865524291992 85.88994598388672 39.32871246337891 87 45 87 C 50.67128753662109 87 56.17134475708008 85.88994598388672 61.34737396240234 83.70066070556641 C 66.34834289550781 81.58542633056641 70.84031677246094 78.55665588378906 74.698486328125 74.698486328125 C 78.55665588378906 70.84031677246094 81.58542633056641 66.34834289550781 83.70066070556641 61.34737396240234 C 85.88994598388672 56.17134475708008 87 50.67128753662109 87 45 C 87 39.32871246337891 85.88994598388672 33.82865524291992 83.70066070556641 28.65262985229492 C 81.58542633056641 23.65165710449219 78.55665588378906 19.15968322753906 74.698486328125 15.301513671875 C 70.84031677246094 11.44334411621094 66.34834289550781 8.414573669433594 61.34737396240234 6.299339294433594 C 56.17134475708008 4.110054016113281 50.67128753662109 3 45 3 M 45 0 C 69.85281372070312 0 90 20.14718627929688 90 45 C 90 69.85281372070312 69.85281372070312 90 45 90 C 20.14718627929688 90 0 69.85281372070312 0 45 C 0 20.14718627929688 20.14718627929688 0 45 0 Z" stroke="none" fill="#248abf"/>
                        </g>
                      </g>
                      <g transform="matrix(1, 0, 0, 1, -9, -6)" filter="url(#Path_1076716)">
                        <g id="Path_1076716-2" data-name="Path 1076716" transform="translate(9 6)" fill="#e7f2f8">
                          <path d="M 45 88.5 C 39.12687683105469 88.5 33.43022537231445 87.35007476806641 28.06830024719238 85.08217620849609 C 22.88852500915527 82.89131164550781 18.23629951477051 79.75458526611328 14.2408504486084 75.75914764404297 C 10.24541282653809 71.76370239257812 7.108687400817871 67.11147308349609 4.917825222015381 61.93170166015625 C 2.649924993515015 56.56977462768555 1.5 50.87312316894531 1.5 45 C 1.5 39.12687683105469 2.649924993515015 33.43022537231445 4.917825222015381 28.06830024719238 C 7.108687400817871 22.88852500915527 10.24541282653809 18.23629951477051 14.2408504486084 14.2408504486084 C 18.23629951477051 10.24541282653809 22.88852500915527 7.108687400817871 28.06830024719238 4.917825222015381 C 33.43022537231445 2.649924993515015 39.12687683105469 1.5 45 1.5 C 50.87312316894531 1.5 56.56977462768555 2.649924993515015 61.93170166015625 4.917825222015381 C 67.11147308349609 7.108687400817871 71.76370239257812 10.24541282653809 75.75914764404297 14.2408504486084 C 79.75458526611328 18.23629951477051 82.89131164550781 22.88852500915527 85.08217620849609 28.06830024719238 C 87.35007476806641 33.43022537231445 88.5 39.12687683105469 88.5 45 C 88.5 50.87312316894531 87.35007476806641 56.56977462768555 85.08217620849609 61.93170166015625 C 82.89131164550781 67.11147308349609 79.75458526611328 71.76370239257812 75.75914764404297 75.75914764404297 C 71.76370239257812 79.75458526611328 67.11147308349609 82.89131164550781 61.93170166015625 85.08217620849609 C 56.56977462768555 87.35007476806641 50.87312316894531 88.5 45 88.5 Z" stroke="none"/>
                          <path d="M 45 3 C 39.32871246337891 3 33.82865524291992 4.110054016113281 28.65262985229492 6.299339294433594 C 23.65165710449219 8.414573669433594 19.15968322753906 11.44334411621094 15.301513671875 15.301513671875 C 11.44334411621094 19.15968322753906 8.414573669433594 23.65165710449219 6.299339294433594 28.65262985229492 C 4.110054016113281 33.82865524291992 3 39.32871246337891 3 45 C 3 50.67128753662109 4.110054016113281 56.17134475708008 6.299339294433594 61.34737396240234 C 8.414573669433594 66.34834289550781 11.44334411621094 70.84031677246094 15.301513671875 74.698486328125 C 19.15968322753906 78.55665588378906 23.65165710449219 81.58542633056641 28.65262985229492 83.70066070556641 C 33.82865524291992 85.88994598388672 39.32871246337891 87 45 87 C 50.67128753662109 87 56.17134475708008 85.88994598388672 61.34737396240234 83.70066070556641 C 66.34834289550781 81.58542633056641 70.84031677246094 78.55665588378906 74.698486328125 74.698486328125 C 78.55665588378906 70.84031677246094 81.58542633056641 66.34834289550781 83.70066070556641 61.34737396240234 C 85.88994598388672 56.17134475708008 87 50.67128753662109 87 45 C 87 39.32871246337891 85.88994598388672 33.82865524291992 83.70066070556641 28.65262985229492 C 81.58542633056641 23.65165710449219 78.55665588378906 19.15968322753906 74.698486328125 15.301513671875 C 70.84031677246094 11.44334411621094 66.34834289550781 8.414573669433594 61.34737396240234 6.299339294433594 C 56.17134475708008 4.110054016113281 50.67128753662109 3 45 3 M 45 0 C 69.85281372070312 0 90 20.14718627929688 90 45 C 90 69.85281372070312 69.85281372070312 90 45 90 C 20.14718627929688 90 0 69.85281372070312 0 45 C 0 20.14718627929688 20.14718627929688 0 45 0 Z" stroke="none" fill="#248abf"/>
                        </g>
                      </g>
                    </g>
                  </g>
                </g>
              </g>
            </g>
          </g>
        </g>
      </g>
      <g id="obediente_3_" data-name="obediente (3)" transform="translate(627.708 315.843)">
        <g id="Group_1215244" data-name="Group 1215244" transform="translate(10.885 1.086)">
          <g id="Group_1215242" data-name="Group 1215242" transform="translate(0)">
            <g id="Group_1215239" data-name="Group 1215239" transform="translate(0 28.379)">
              <g id="Group_1215232" data-name="Group 1215232" transform="translate(0 0)">
                <path id="Path_1087704" data-name="Path 1087704" d="M39.219,204.092l2.609,4.519a.435.435,0,0,0,.376.217H60.081a.435.435,0,0,0,.376-.217l2.609-4.519a.434.434,0,0,0-.376-.652H39.6A.434.434,0,0,0,39.219,204.092Z" transform="translate(-39.16 -203.44)" fill="#fed402"/>
              </g>
              <g id="Group_1215238" data-name="Group 1215238">
                <g id="Group_1215233" data-name="Group 1215233" transform="translate(38.849 0)">
                  <path id="Path_1087705" data-name="Path 1087705" d="M307.441,204.092l2.609,4.519a.435.435,0,0,0,.376.217H328.3a.434.434,0,0,0,.376-.217l2.609-4.519a.434.434,0,0,0-.376-.652H307.817A.435.435,0,0,0,307.441,204.092Z" transform="translate(-307.382 -203.44)" fill="#fed402"/>
                </g>
                <g id="Group_1215234" data-name="Group 1215234" transform="translate(0 0)">
                  <path id="Path_1087706" data-name="Path 1087706" d="M39.219,204.092l2.609,4.519a.435.435,0,0,0,.376.217H60.081a.435.435,0,0,0,.376-.217l2.609-4.519a.434.434,0,0,0-.376-.652H39.6A.434.434,0,0,0,39.219,204.092Z" transform="translate(-39.16 -203.44)" fill="#ca6e59"/>
                </g>
                <g id="Group_1215235" data-name="Group 1215235" transform="translate(0)">
                  <path id="Path_1087707" data-name="Path 1087707" d="M47.967,208.61l-2.609-4.519a.435.435,0,0,1,.376-.652H39.6a.435.435,0,0,0-.376.652l2.609,4.519a.435.435,0,0,0,.376.217h6.139A.435.435,0,0,1,47.967,208.61Z" transform="translate(-39.161 -203.439)" fill="#bb5d4c"/>
                </g>
                <g id="Group_1215236" data-name="Group 1215236" transform="translate(38.849 0)">
                  <path id="Path_1087708" data-name="Path 1087708" d="M307.441,204.092l2.609,4.519a.435.435,0,0,0,.376.217H328.3a.434.434,0,0,0,.376-.217l2.609-4.519a.434.434,0,0,0-.376-.652H307.817A.435.435,0,0,0,307.441,204.092Z" transform="translate(-307.382 -203.44)" fill="#ca6e59"/>
                </g>
                <g id="Group_1215237" data-name="Group 1215237" transform="translate(38.849)">
                  <path id="Path_1087709" data-name="Path 1087709" d="M316.947,208.61l-2.609-4.519a.435.435,0,0,1,.376-.652h-6.9a.435.435,0,0,0-.376.652l2.609,4.519a.435.435,0,0,0,.376.217h6.9A.434.434,0,0,1,316.947,208.61Z" transform="translate(-307.383 -203.439)" fill="#bb5d4c"/>
                </g>
              </g>
            </g>
            <path id="Path_1087710" data-name="Path 1087710" d="M241.769,130.4V103.847a.724.724,0,0,0-.724-.724H236.69a.724.724,0,0,0-.724.724V130.4h5.8Z" transform="translate(-207.461 -89.273)" fill="#bb5d4c"/>
            <path id="Path_1087711" data-name="Path 1087711" d="M238.423,130.4V103.847a.724.724,0,0,1,.724-.724H236.69a.724.724,0,0,0-.724.724V130.4h2.457Z" transform="translate(-207.461 -89.273)" fill="#a44f3e"/>
            <g id="Group_1215240" data-name="Group 1215240" transform="translate(27.352 0)">
              <circle id="Ellipse_14286" data-name="Ellipse 14286" cx="4.055" cy="4.055" r="4.055" fill="#883f2e"/>
            </g>
            <g id="Group_1215241" data-name="Group 1215241" transform="translate(27.352)">
              <path id="Path_1087712" data-name="Path 1087712" d="M231.627,11.555a4.054,4.054,0,0,1,2.244-3.628,4.055,4.055,0,1,0,0,7.255,4.054,4.054,0,0,1-2.244-3.628Z" transform="translate(-228.005 -7.5)" fill="#6d3326"/>
            </g>
          </g>
          <g id="Group_1215243" data-name="Group 1215243" transform="translate(5.582 41.132)">
            <path id="Path_1087713" data-name="Path 1087713" d="M222.8,297.709v-3.327a2.9,2.9,0,0,0-2.9-2.9h-7.747a2.9,2.9,0,0,0-2.9,2.9v3.327Z" transform="translate(-190.202 -291.485)" fill="#883f2e"/>
            <path id="Path_1087714" data-name="Path 1087714" d="M214.143,297.709v-3.327a2.9,2.9,0,0,1,2.9-2.9h-4.888a2.9,2.9,0,0,0-2.9,2.9v3.327Z" transform="translate(-190.201 -291.485)" fill="#6d3326"/>
            <path id="Path_1087715" data-name="Path 1087715" d="M195.745,341.054V336.94a2.483,2.483,0,0,0-2.483-2.483H173.654a2.483,2.483,0,0,0-2.483,2.483v4.115Z" transform="translate(-157.634 -328.233)" fill="#bb5d4c"/>
            <path id="Path_1087716" data-name="Path 1087716" d="M177.281,341.054V336.94a2.483,2.483,0,0,1,2.483-2.483h-6.108a2.483,2.483,0,0,0-2.483,2.483v4.115Z" transform="translate(-157.635 -328.233)" fill="#a44f3e"/>
            <path id="Path_1087717" data-name="Path 1087717" d="M81.572,379.006a3.869,3.869,0,0,0-3.869,3.869v7.351a3.869,3.869,0,0,0,3.869,3.869H83.14V383.842H91.05v10.252h44.3V379.006Z" transform="translate(-77.703 -366.33)" fill="#fff3de"/>
          </g>
        </g>
        <g id="Group_1215253" data-name="Group 1215253" transform="translate(7.182 54.894)">
          <g id="Group_1215248" data-name="Group 1215248" transform="translate(0)">
            <g id="Group_1215245" data-name="Group 1215245">
              <path id="Path_1087718" data-name="Path 1087718" d="M26.75,394.094a3.869,3.869,0,0,1-3.869-3.869v-7.351a3.869,3.869,0,0,1,3.869-3.869H21.14a7.544,7.544,0,1,0,0,15.088h5.61Z" transform="translate(-13.596 -379.006)" fill="#3675bb"/>
            </g>
            <g id="Group_1215246" data-name="Group 1215246">
              <path id="Path_1087719" data-name="Path 1087719" d="M17.261,386.55a7.544,7.544,0,0,1,7.544-7.544H21.14a7.544,7.544,0,1,0,0,15.088H24.8A7.544,7.544,0,0,1,17.261,386.55Z" transform="translate(-13.596 -379.006)" fill="#2b68b6"/>
            </g>
            <g id="Group_1215247" data-name="Group 1215247" transform="translate(9.285 0.005)">
              <path id="Path_1087720" data-name="Path 1087720" d="M83.14,389.885a3.865,3.865,0,0,1-1.773-3.251v-7.351c0-.081,0-.162.008-.242A3.869,3.869,0,0,0,77.7,382.9v7.351a3.869,3.869,0,0,0,3.869,3.869H83.14Z" transform="translate(-77.703 -379.041)" fill="#ffe5c2"/>
              <path id="Path_1087721" data-name="Path 1087721" d="M169.857,458.174h44.3V461.8h-44.3Z" transform="translate(-156.51 -446.713)" fill="#ffe5c2"/>
            </g>
          </g>
          <g id="Group_1215252" data-name="Group 1215252" transform="translate(14.722 4.836)">
            <g id="Group_1215249" data-name="Group 1215249">
              <path id="Path_1087722" data-name="Path 1087722" d="M123.151,425.3V412.395H115.24V425.3a.435.435,0,0,0,.682.357l3.273-2.265,3.273,2.265A.435.435,0,0,0,123.151,425.3Z" transform="translate(-115.24 -412.395)" fill="#fb2b3a"/>
            </g>
            <g id="Group_1215251" data-name="Group 1215251" transform="translate(0)">
              <g id="Group_1215250" data-name="Group 1215250">
                <path id="Path_1087723" data-name="Path 1087723" d="M118.882,412.395H115.24V425.3a.435.435,0,0,0,.682.357l2.96-2.049Z" transform="translate(-115.24 -412.395)" fill="#e41f2d"/>
              </g>
            </g>
          </g>
        </g>
        <path id="Path_1087724" data-name="Path 1087724" d="M77.4,68.9H75.2V55.981h2.2a1.086,1.086,0,1,0,0-2.173H55.664V50.924A3.573,3.573,0,0,0,52.1,47.356H50.148V45.115a3.987,3.987,0,0,0-3.869-3.98V23.608a1.086,1.086,0,1,0-2.173,0V41.131h-3.63V16.022h3.63v2.517a1.086,1.086,0,1,0,2.173,0V15.66a1.812,1.812,0,0,0-1.81-1.81H43.378V10.166a5.156,5.156,0,0,0,3.938-3.938H60.629V8.209L50.008,28.39a1.518,1.518,0,0,0-1.156,2.27l2.609,4.519a1.525,1.525,0,0,0,1.317.761H63a1.086,1.086,0,0,0,0-2.173H53.154L51.3,30.552H72.134l-1.856,3.215H68.073a1.086,1.086,0,1,0,0,2.173h2.581a1.525,1.525,0,0,0,1.317-.76L74.58,30.66a1.518,1.518,0,0,0-1.157-2.27L62.8,8.209V6.227h4.066a1.086,1.086,0,1,0,0-2.173H47.316a5.14,5.14,0,0,0-10.049,0H17.715a1.086,1.086,0,1,0,0,2.173h4.066V8.209L11.159,28.39A1.518,1.518,0,0,0,10,30.66h0l2.609,4.519a1.525,1.525,0,0,0,1.317.76H31.805a1.525,1.525,0,0,0,1.317-.76l2.609-4.519a1.518,1.518,0,0,0-1.156-2.27L23.953,8.209V6.227H37.267a5.156,5.156,0,0,0,3.938,3.938V13.85H40.114a1.812,1.812,0,0,0-1.81,1.81V41.134a3.987,3.987,0,0,0-3.869,3.98v2.241H32.488a3.573,3.573,0,0,0-3.569,3.569v2.884H14.726a8.63,8.63,0,1,0,0,17.261h6.091v1.566A1.521,1.521,0,0,0,23.2,73.885l2.655-1.838,2.655,1.838A1.521,1.521,0,0,0,30.9,72.635V71.068H77.4a1.086,1.086,0,1,0,0-2.172ZM60.629,28.379H52.469l8.161-15.506ZM62.8,12.873l8.161,15.506H62.8Zm-41.021,0V28.379H13.62Zm9.648,20.894H14.305l-1.856-3.215H33.285Zm.685-5.388H23.954V12.873ZM39.323,5.141a2.968,2.968,0,1,1,2.968,2.968A2.972,2.972,0,0,1,39.323,5.141ZM36.607,45.115a1.812,1.812,0,0,1,1.81-1.81h7.747a1.812,1.812,0,0,1,1.81,1.81v2.241H36.607ZM14.726,68.9a6.458,6.458,0,1,1,0-12.916h1.512a4.926,4.926,0,0,0-.857,2.782v7.351a4.925,4.925,0,0,0,.857,2.782Zm14,2.5-2.251-1.558a1.086,1.086,0,0,0-1.236,0L22.99,71.392V60.816h5.738Zm44.3-12.748H49.545a1.086,1.086,0,0,0,0,2.173h23.48V64.06H49.545a1.086,1.086,0,0,0,0,2.173h23.48V68.9H30.9v-8.08h9.166a1.086,1.086,0,0,0,0-2.173H20.336a1.086,1.086,0,0,0,0,2.173h.482V68.9h-.482a2.786,2.786,0,0,1-2.782-2.782V58.763a2.786,2.786,0,0,1,2.782-2.782H37.8a1.086,1.086,0,0,0,0-2.173h-6.71V50.925a1.4,1.4,0,0,1,1.4-1.4H52.1a1.4,1.4,0,0,1,1.4,1.4v2.884H42.871a1.086,1.086,0,0,0,0,2.173H73.026Z"/>
      </g>
    </g>
  </g>
</svg>
