<svg xmlns="http://www.w3.org/2000/svg" xmlns:xlink="http://www.w3.org/1999/xlink" width="113" height="113" viewBox="0 0 113 113">
  <defs>
    <filter id="Path_982547" x="0" y="0" width="113" height="113" filterUnits="userSpaceOnUse">
      <feOffset dy="3" input="SourceAlpha"/>
      <feGaussianBlur stdDeviation="3" result="blur"/>
      <feFlood flood-opacity="0.161"/>
      <feComposite operator="in" in2="blur"/>
      <feComposite in="SourceGraphic"/>
    </filter>
  </defs>
  <g id="Group_1220585" data-name="Group 1220585" transform="translate(-325 -461.808)">
    <g id="Group_1220481" data-name="Group 1220481">
      <g id="Group_1209992" data-name="Group 1209992" transform="translate(0 -7067)">
        <g id="Group_1208705" data-name="Group 1208705" transform="translate(-1.454 3213.429)">
          <g id="Group_1148633" data-name="Group 1148633" transform="translate(71.408 600.047)">
            <g id="Group_1148525" data-name="Group 1148525" transform="translate(264.046 3721.333)">
              <g transform="matrix(1, 0, 0, 1, -9, -6)" filter="url(#Path_982547)">
                <g id="Path_982547-2" data-name="Path 982547" transform="translate(9 6)" fill="#f9e3d4">
                  <path d="M 47.5 93.5 C 41.28937149047852 93.5 35.26533508300781 92.28397369384766 29.59518623352051 89.88570404052734 C 24.11771965026855 87.56893157958984 19.19813346862793 84.25196075439453 14.97309303283691 80.02691650390625 C 10.74804019927979 75.80186462402344 7.431066513061523 70.88229370117188 5.114293098449707 65.40481567382812 C 2.716026782989502 59.73468017578125 1.5 53.71062850952148 1.5 47.5 C 1.5 41.28937149047852 2.716026782989502 35.26533508300781 5.114293098449707 29.59518623352051 C 7.431066513061523 24.11771965026855 10.74804019927979 19.19813346862793 14.97309303283691 14.97309303283691 C 19.19813346862793 10.74804019927979 24.11771965026855 7.431066513061523 29.59518623352051 5.114293098449707 C 35.26533508300781 2.716026782989502 41.28937149047852 1.5 47.5 1.5 C 53.71062850952148 1.5 59.73468017578125 2.716026782989502 65.40481567382812 5.114293098449707 C 70.88229370117188 7.431066513061523 75.80186462402344 10.74804019927979 80.02691650390625 14.97309303283691 C 84.25196075439453 19.19813346862793 87.56893157958984 24.11771965026855 89.88570404052734 29.59518623352051 C 92.28397369384766 35.26533508300781 93.5 41.28937149047852 93.5 47.5 C 93.5 53.71062850952148 92.28397369384766 59.73468017578125 89.88570404052734 65.40481567382812 C 87.56893157958984 70.88229370117188 84.25196075439453 75.80186462402344 80.02691650390625 80.02691650390625 C 75.80186462402344 84.25196075439453 70.88229370117188 87.56893157958984 65.40481567382812 89.88570404052734 C 59.73468017578125 92.28397369384766 53.71062850952148 93.5 47.5 93.5 Z" stroke="none"/>
                  <path d="M 47.5 3 C 41.49121475219727 3 35.66376876831055 4.176155090332031 30.17950439453125 6.495796203613281 C 24.88084411621094 8.736953735351562 20.12152099609375 11.94598388671875 16.03375244140625 16.03375244140625 C 11.94598388671875 20.12152099609375 8.736953735351562 24.88084411621094 6.495796203613281 30.17950439453125 C 4.176155090332031 35.66376876831055 3 41.49121475219727 3 47.5 C 3 53.50878524780273 4.176155090332031 59.33623123168945 6.495796203613281 64.82049560546875 C 8.736953735351562 70.11915588378906 11.94598388671875 74.87847900390625 16.03375244140625 78.96624755859375 C 20.12152099609375 83.05401611328125 24.88084411621094 86.26304626464844 30.17950439453125 88.50419616699219 C 35.66376876831055 90.82384490966797 41.49121475219727 92 47.5 92 C 53.50878524780273 92 59.33623123168945 90.82384490966797 64.82049560546875 88.50419616699219 C 70.11915588378906 86.26304626464844 74.87847900390625 83.05401611328125 78.96624755859375 78.96624755859375 C 83.05401611328125 74.87847900390625 86.26304626464844 70.11915588378906 88.50419616699219 64.82049560546875 C 90.82384490966797 59.33623123168945 92 53.50878524780273 92 47.5 C 92 41.49121475219727 90.82384490966797 35.66376876831055 88.50419616699219 30.17950439453125 C 86.26304626464844 24.88084411621094 83.05401611328125 20.12152099609375 78.96624755859375 16.03375244140625 C 74.87847900390625 11.94598388671875 70.11915588378906 8.736953735351562 64.82049560546875 6.495796203613281 C 59.33623123168945 4.176155090332031 53.50878524780273 3 47.5 3 M 47.5 0 C 73.7335205078125 0 95 21.2664794921875 95 47.5 C 95 73.7335205078125 73.7335205078125 95 47.5 95 C 21.2664794921875 95 0 73.7335205078125 0 47.5 C 0 21.2664794921875 21.2664794921875 0 47.5 0 Z" stroke="none" fill="#eca675"/>
                </g>
              </g>
            </g>
          </g>
        </g>
      </g>
      <g id="transferencia-de-conocimiento" transform="translate(334.219 468.027)">
        <g id="Group_1220479" data-name="Group 1220479" transform="translate(7.5 7.501)">
          <path id="Path_1169479" data-name="Path 1169479" d="M27.089,209.553C15.523,209.775,7.5,217.492,7.5,229.179a19.852,19.852,0,0,0,6.234,14.406c3.891,3.707,3.885,7.248,3.885,9.99v3.189h18.62v-6.348l5.562.05a3.015,3.015,0,0,0,2.985-2.985l.16-5.577L48,240.627c2.659-1.111,2.577-3.678,1.793-5.391l-2.774-6.057c0-12.371-8.3-19.85-19.935-19.626Zm0,12.006a6,6,0,0,1,2.4,11.506v2.9a2.4,2.4,0,1,1-4.8,0v-2.9a6,6,0,0,1,2.4-11.507Z" transform="translate(-7.5 -177.203)" fill="#fbf2e1" fill-rule="evenodd"/>
          <path id="Path_1169480" data-name="Path 1169480" d="M23.051,212.11C13.7,213.855,7.5,221.059,7.5,231.331a19.852,19.852,0,0,0,6.234,14.406c3.891,3.707,3.885,7.248,3.885,9.99v3.189h3.6V255.69c0-5.2-1.1-8.843-5-12.56a16.249,16.249,0,0,1-5.117-11.8C11.1,222.154,15.877,216.483,23.051,212.11Z" transform="translate(-7.5 -179.356)" fill="#fbdfba" fill-rule="evenodd"/>
          <circle id="Ellipse_14489" data-name="Ellipse 14489" cx="6.003" cy="6.003" r="6.003" transform="translate(13.586 44.355)" fill="#fdef8e"/>
          <path id="Path_1169481" data-name="Path 1169481" d="M119.67,356.454a6.019,6.019,0,0,1-4.8,0v2.9a2.4,2.4,0,1,0,4.8,0Z" transform="translate(-97.68 -300.592)" fill="#acc5e3" fill-rule="evenodd"/>
          <path id="Path_1169482" data-name="Path 1169482" d="M245.761,48.42l5.562-.05v6.348h18.62V51.528c0-2.742-.006-6.283,3.885-9.99a19.853,19.853,0,0,0,6.234-14.406c0-11.687-8.023-19.4-19.589-19.626-11.636-.223-19.935,7.255-19.935,19.626l-2.774,6.057c-.784,1.713-.866,4.281,1.793,5.391l3.059,1.278.16,5.578a3.016,3.016,0,0,0,2.985,2.985Zm14.712-12.1a2.408,2.408,0,0,1-2.4-2.4v-2.9a6,6,0,1,1,4.8,0v2.9A2.408,2.408,0,0,1,260.473,36.32Z" transform="translate(-200.501 -7.501)" fill="#f6d9ad" fill-rule="evenodd"/>
          <path id="Path_1169483" data-name="Path 1169483" d="M245.76,51.007l.58-.005-.191-10.984-4.937-2.062c-.334-.139-.307-.447-.173-.679l3.1-6.771c0-9.322,3.264-15.1,10.957-19.924-8.733,1.844-14.559,8.773-14.559,19.138l-2.774,6.057c-.784,1.713-.866,4.281,1.793,5.391l3.059,1.278.16,5.578a3.016,3.016,0,0,0,2.985,2.985Zm5.562-1.251,3.6-.032V57.3h-3.6Z" transform="translate(-200.5 -10.088)" fill="#eeae7e" fill-rule="evenodd"/>
          <path id="Path_1169484" data-name="Path 1169484" d="M98.371,284.578a6,6,0,1,0,1.8,11.731,6,6,0,0,1,0-11.456A6,6,0,0,0,98.371,284.578Z" transform="translate(-78.782 -240.223)" fill="#fee026" fill-rule="evenodd"/>
          <circle id="Ellipse_14490" data-name="Ellipse 14490" cx="6.003" cy="6.003" r="6.003" transform="translate(51.482 18.014) rotate(-45)" fill="#fdef8e"/>
          <path id="Path_1169485" data-name="Path 1169485" d="M371.933,154.406a6.019,6.019,0,0,1-4.8,0v2.9a2.4,2.4,0,1,0,4.8,0Z" transform="translate(-309.56 -130.888)" fill="#acc5e3" fill-rule="evenodd"/>
          <path id="Path_1169486" data-name="Path 1169486" d="M350.634,82.53a6,6,0,1,0,1.8,11.731,6,6,0,0,1,0-11.456A6,6,0,0,0,350.634,82.53Z" transform="translate(-290.662 -70.519)" fill="#fee026" fill-rule="evenodd"/>
          <path id="Path_1169487" data-name="Path 1169487" d="M364.434,40.241h2.4m-7.2,0h2.4" transform="translate(-303.261 -35)" fill="none" stroke="#fff" stroke-miterlimit="22.926" stroke-width="2" fill-rule="evenodd"/>
        </g>
        <g id="Group_1220480" data-name="Group 1220480" transform="translate(7.5 7.501)">
          <path id="Path_1169488" data-name="Path 1169488" d="M25.728,256.765H17.619v-3.189c0-2.742.006-6.283-3.885-9.99A19.853,19.853,0,0,1,7.5,229.18c0-11.687,8.023-19.4,19.589-19.626,11.636-.223,19.935,7.255,19.935,19.626l2.774,6.057c.784,1.713.866,4.281-1.793,5.391l-3.059,1.278-.16,5.577a3.015,3.015,0,0,1-2.985,2.985l-5.562-.05v6.348H28.13" transform="translate(-7.5 -177.204)" fill="none" stroke="#000" stroke-miterlimit="22.926" stroke-width="2" fill-rule="evenodd"/>
          <circle id="Ellipse_14491" data-name="Ellipse 14491" cx="6.003" cy="6.003" r="6.003" transform="translate(13.586 44.355)" fill="none" stroke="#000" stroke-miterlimit="22.926" stroke-width="2"/>
          <path id="Path_1169489" data-name="Path 1169489" d="M119.67,356.453v2.9a2.4,2.4,0,1,1-4.8,0v-2.9" transform="translate(-97.68 -300.592)" fill="none" stroke="#000" stroke-miterlimit="22.926" stroke-width="2" fill-rule="evenodd"/>
          <path id="Path_1169490" data-name="Path 1169490" d="M66.054,282.2l2.547-2.547M49.246,282.2,46.7,279.651m0,13.583,2.547-2.547m-5.36-4.245h3.6M68.6,293.234l-2.547-2.547m5.36-4.245h-3.6" transform="translate(-38.061 -236.084)" fill="none" stroke="#000" stroke-miterlimit="22.926" stroke-width="2" fill-rule="evenodd"/>
          <path id="Path_1169491" data-name="Path 1169491" d="M243.531,15.808a21.031,21.031,0,0,0-2.993,11.324l-2.774,6.057c-.784,1.713-.866,4.281,1.793,5.391l3.059,1.278.16,5.578a3.015,3.015,0,0,0,2.985,2.985l5.562-.05v6.348h18.62V51.528c0-2.742-.006-6.283,3.885-9.99a19.852,19.852,0,0,0,6.234-14.406c0-11.687-8.023-19.4-19.589-19.626-6.478-.124-11.92,2.139-15.474,6.3" transform="translate(-200.5 -7.501)" fill="none" stroke="#000" stroke-miterlimit="22.926" stroke-width="2" fill-rule="evenodd"/>
          <circle id="Ellipse_14492" data-name="Ellipse 14492" cx="6.003" cy="6.003" r="6.003" transform="translate(51.482 18.014) rotate(-45)" fill="none" stroke="#000" stroke-miterlimit="22.926" stroke-width="2"/>
          <path id="Path_1169492" data-name="Path 1169492" d="M367.132,154.405v2.9a2.4,2.4,0,1,0,4.8,0v-2.9" transform="translate(-309.561 -130.888)" fill="none" stroke="#000" stroke-miterlimit="22.926" stroke-width="2" fill-rule="evenodd"/>
          <path id="Path_1169493" data-name="Path 1169493" d="M301.509,80.15,298.962,77.6m19.355,2.547,2.547-2.547m0,13.583-2.547-2.547m5.36-4.245h-3.6m-21.114,6.792,2.547-2.547m-5.36-4.245h3.6" transform="translate(-249.941 -66.381)" fill="none" stroke="#000" stroke-miterlimit="22.926" stroke-width="2" fill-rule="evenodd"/>
          <path id="Path_1169494" data-name="Path 1169494" d="M182.368,53.283l3.4,3.4-3.4,3.4" transform="translate(-154.375 -45.954)" fill="none" stroke="#000" stroke-miterlimit="22.926" stroke-width="2" fill-rule="evenodd"/>
          <path id="Path_1169495" data-name="Path 1169495" d="M141.668,74.5h-11.8V90.118" transform="translate(-110.279 -63.772)" fill="none" stroke="#000" stroke-miterlimit="22.926" stroke-width="2" fill-rule="evenodd"/>
          <path id="Path_1169496" data-name="Path 1169496" d="M312.814,423.112l-3.4-3.4,3.4-3.4" transform="translate(-261.086 -350.875)" fill="none" stroke="#000" stroke-miterlimit="22.926" stroke-width="2" fill-rule="evenodd"/>
          <path id="Path_1169497" data-name="Path 1169497" d="M309.418,355.572h11.8V339.951" transform="translate(-261.086 -286.732)" fill="none" stroke="#000" stroke-miterlimit="22.926" stroke-width="2" fill-rule="evenodd"/>
        </g>
      </g>
    </g>
  </g>
</svg>
