<svg xmlns="http://www.w3.org/2000/svg" xmlns:xlink="http://www.w3.org/1999/xlink" width="93.934" height="93.934" viewBox="0 0 93.934 93.934">
  <defs>
    <filter id="Path_982547" x="0" y="0" width="93.934" height="93.934" filterUnits="userSpaceOnUse">
      <feOffset dy="3" input="SourceAlpha"/>
      <feGaussianBlur stdDeviation="3" result="blur"/>
      <feFlood flood-opacity="0.161"/>
      <feComposite operator="in" in2="blur"/>
      <feComposite in="SourceGraphic"/>
    </filter>
  </defs>
  <g id="Group_1220576" data-name="Group 1220576" transform="translate(-191.066 -496.849)">
    <g id="Group_1220338" data-name="Group 1220338">
      <g id="Group_1219856" data-name="Group 1219856" transform="translate(0 -546)">
        <g id="Group_1215981" data-name="Group 1215981" transform="translate(-0.229 -2679.151)">
          <g id="Group_1214594" data-name="Group 1214594" transform="translate(0 -1406)">
            <g id="Group_1214432" data-name="Group 1214432" transform="translate(-0.771 -2738.674)">
              <g id="Group_1183196" data-name="Group 1183196" transform="translate(1 1016.674)">
                <g id="Group_1179610" data-name="Group 1179610" transform="translate(8 4723.467)">
                  <g id="Group_1175227" data-name="Group 1175227" transform="translate(-5.967 140.533)">
                    <g id="Group_1167337" data-name="Group 1167337" transform="translate(198.033 1992)">
                      <g id="Group_1166720" data-name="Group 1166720">
                        <g id="Group_1164305" data-name="Group 1164305">
                          <g id="Group_1163948" data-name="Group 1163948">
                            <g id="Group_1158168" data-name="Group 1158168">
                              <g id="Group_1152576" data-name="Group 1152576">
                                <g id="Group_1148633" data-name="Group 1148633">
                                  <g id="Group_1148525" data-name="Group 1148525">
                                    <g transform="matrix(1, 0, 0, 1, -9, -6)" filter="url(#Path_982547)">
                                      <g id="Path_982547-2" data-name="Path 982547" transform="translate(9 6)" fill="#eae4dc">
                                        <path d="M 37.966796875 74.43359375 C 33.04315185546875 74.43359375 28.26757431030273 73.46962738037109 23.77274131774902 71.56847381591797 C 19.43047523498535 69.73184967041016 15.53040790557861 67.10224914550781 12.18087482452393 63.75271987915039 C 8.831341743469238 60.4031867980957 6.201741218566895 56.50312042236328 4.365118980407715 52.16086196899414 C 2.463963508605957 47.66601943969727 1.499996900558472 42.89044189453125 1.499996900558472 37.966796875 C 1.499996900558472 33.04315185546875 2.463963508605957 28.26757431030273 4.365118980407715 23.77274131774902 C 6.201741218566895 19.43047523498535 8.831341743469238 15.53040790557861 12.18087482452393 12.18087482452393 C 15.53040790557861 8.831341743469238 19.43047523498535 6.201741218566895 23.77274131774902 4.365118980407715 C 28.26757431030273 2.463963508605957 33.04315185546875 1.499996900558472 37.966796875 1.499996900558472 C 42.89044189453125 1.499996900558472 47.66601943969727 2.463963508605957 52.16086196899414 4.365118980407715 C 56.50312042236328 6.201741218566895 60.4031867980957 8.831341743469238 63.75271987915039 12.18087482452393 C 67.10224914550781 15.53040790557861 69.73184967041016 19.43047523498535 71.56847381591797 23.77274131774902 C 73.46962738037109 28.26757431030273 74.43359375 33.04315185546875 74.43359375 37.966796875 C 74.43359375 42.89044189453125 73.46962738037109 47.66601943969727 71.56847381591797 52.16086196899414 C 69.73184967041016 56.50313186645508 67.10224914550781 60.4031867980957 63.75271987915039 63.75271987915039 C 60.4031867980957 67.10224914550781 56.50313186645508 69.73184967041016 52.16086196899414 71.56847381591797 C 47.66601943969727 73.46962738037109 42.89044189453125 74.43359375 37.966796875 74.43359375 Z" stroke="none"/>
                                        <path d="M 37.966796875 3 C 33.2449836730957 3 28.66600799560547 3.924095153808594 24.35705947875977 5.746635437011719 C 20.19359588623047 7.507637023925781 16.45379638671875 10.02928161621094 13.24153518676758 13.24153518676758 C 10.02927398681641 16.45379638671875 7.507621765136719 20.19359588623047 5.746635437011719 24.35705947875977 C 3.924095153808594 28.66600799560547 3 33.2449836730957 3 37.966796875 C 3 42.6886100769043 3.924095153808594 47.26758575439453 5.746635437011719 51.57653427124023 C 7.507621765136719 55.73999786376953 10.02927398681641 59.47979736328125 13.24153518676758 62.69205856323242 C 16.45379638671875 65.90431976318359 20.19359588623047 68.42597198486328 24.35705947875977 70.18695831298828 C 28.66600799560547 72.00949859619141 33.2449836730957 72.93359375 37.966796875 72.93359375 C 42.6886100769043 72.93359375 47.26758575439453 72.00949859619141 51.57653427124023 70.18695831298828 C 55.73999786376953 68.42597198486328 59.47979736328125 65.90431976318359 62.69205856323242 62.69205856323242 C 65.90431976318359 59.47979736328125 68.42597198486328 55.73999786376953 70.18695831298828 51.57653427124023 C 72.00949859619141 47.26758575439453 72.93359375 42.6886100769043 72.93359375 37.966796875 C 72.93359375 33.2449836730957 72.00949859619141 28.66600799560547 70.18695831298828 24.35705947875977 C 68.42597198486328 20.19359588623047 65.90431976318359 16.45379638671875 62.69205856323242 13.24153518676758 C 59.47979736328125 10.02928161621094 55.73999786376953 7.507637023925781 51.57653427124023 5.746635437011719 C 47.26758575439453 3.924095153808594 42.6886100769043 3 37.966796875 3 M 37.966796875 0 C 58.93528366088867 0 75.93359375 16.99832153320312 75.93359375 37.966796875 C 75.93359375 58.93528366088867 58.93528366088867 75.93359375 37.966796875 75.93359375 C 16.99831008911133 75.93359375 0 58.93528366088867 0 37.966796875 C 0 16.99832153320312 16.99831008911133 0 37.966796875 0 Z" stroke="none" fill="#665b4e"/>
                                      </g>
                                    </g>
                                  </g>
                                </g>
                              </g>
                            </g>
                          </g>
                        </g>
                      </g>
                    </g>
                  </g>
                </g>
              </g>
            </g>
          </g>
        </g>
      </g>
      <g id="abogado" transform="translate(209.487 509.956)">
        <g id="Group_1220336" data-name="Group 1220336" transform="translate(0.902 10.434)">
          <path id="Path_1169010" data-name="Path 1169010" d="M105.017,271.613h8.974v7.109h-8.974Z" transform="translate(-93.286 -240.991)" fill="#fed2a4"/>
          <path id="Path_1169011" data-name="Path 1169011" d="M151.46,271.613h3.387v7.109H151.46Z" transform="translate(-134.143 -240.991)" fill="#ffbd86"/>
          <path id="Path_1169012" data-name="Path 1169012" d="M46.011,350.465H9.752A2.252,2.252,0,0,1,7.5,348.212V332.957A2.252,2.252,0,0,1,9.752,330.7H37.173a4.9,4.9,0,0,1,4.744,3.687Z" transform="translate(-7.5 -292.975)" fill="#cb97e7"/>
          <path id="Path_1169013" data-name="Path 1169013" d="M224.966,334.392a4.895,4.895,0,0,0-4.744-3.687H215.58a4.9,4.9,0,0,1,4.744,3.687l4.094,16.073h4.642Z" transform="translate(-190.549 -292.975)" fill="#bd80e1"/>
          <path id="Path_1169014" data-name="Path 1169014" d="M90.747,310.784,86.26,308.06l-2.565,2.724,3.646,4.424Z" transform="translate(-74.529 -273.054)" fill="#a8d3d8"/>
          <path id="Path_1169015" data-name="Path 1169015" d="M142.317,310.784l4.487-2.724,2.565,2.724-3.646,4.424Z" transform="translate(-126.1 -273.054)" fill="#8ebac5"/>
          <path id="Path_1169016" data-name="Path 1169016" d="M117.408,330.708,114,335.131l3.406,4.131,3.406-4.131Z" transform="translate(-101.191 -292.978)" fill="#f2fbff"/>
          <path id="Path_1169017" data-name="Path 1169017" d="M64.217,330.7l7.052,8.555v4.9l-7.839-4.314a3.623,3.623,0,0,1-1.876-3.174V330.7Z" transform="translate(-55.052 -292.975)" fill="#a274bf"/>
          <path id="Path_1169018" data-name="Path 1169018" d="M149.37,330.7l-7.052,8.555v4.9l7.839-4.314a3.623,3.623,0,0,0,1.876-3.174V330.7Z" transform="translate(-126.1 -292.975)" fill="#a274bf"/>
          <path id="Path_1169019" data-name="Path 1169019" d="M149.37,330.7l-1.094,1.328v4.636a3.623,3.623,0,0,1-1.876,3.174l-4.081,2.246v2.068l7.839-4.314a3.623,3.623,0,0,0,1.876-3.174V330.7Z" transform="translate(-126.1 -292.975)" fill="#925cb4"/>
          <path id="Path_1169020" data-name="Path 1169020" d="M32.179,48.426H15.257A7.757,7.757,0,0,1,7.5,40.67V28.427a7.3,7.3,0,0,1,7.3-7.3,18.253,18.253,0,0,1,14.021-3.911A12.767,12.767,0,0,1,39.935,29.911V40.67A7.756,7.756,0,0,1,32.179,48.426Z" transform="translate(-7.5 -17.054)" fill="#7ca1b1"/>
          <path id="Path_1169021" data-name="Path 1169021" d="M149.388,17.223a19.373,19.373,0,0,0-4.833-.022l.19.022c6.369.8,10.665,6.725,10.665,13.144V41.125a7.01,7.01,0,0,1-7.306,7.306h4.642a7.757,7.757,0,0,0,7.757-7.757V29.916A12.766,12.766,0,0,0,149.388,17.223Z" transform="translate(-128.068 -17.059)" fill="#678d98"/>
          <path id="Path_1169022" data-name="Path 1169022" d="M64.431,101.87h-5.94A8.086,8.086,0,0,1,50.4,93.784v-8.4a14.544,14.544,0,0,0,5.37-7.573h.757a20.657,20.657,0,0,1,15.985,7.573v8.4A8.086,8.086,0,0,1,64.431,101.87Z" transform="translate(-45.244 -70.498)" fill="#ffe5c2"/>
          <path id="Path_1169023" data-name="Path 1169023" d="M178.069,116.727v8.4a8.085,8.085,0,0,1-7.679,8.075,8.081,8.081,0,0,0,4.292-7.141V113.441A20.579,20.579,0,0,1,178.069,116.727Z" transform="translate(-150.796 -101.846)" fill="#fed2a4"/>
          <path id="Path_1169024" data-name="Path 1169024" d="M12.661,148.043H9.29a1.79,1.79,0,0,1-1.79-1.79v-3.705a1.79,1.79,0,0,1,1.79-1.79h3.372Z" transform="translate(-7.5 -125.877)" fill="#fed2a4"/>
          <path id="Path_1169025" data-name="Path 1169025" d="M234.229,148.043H237.6a1.79,1.79,0,0,0,1.79-1.79v-3.705a1.79,1.79,0,0,0-1.79-1.79h-3.372Z" transform="translate(-206.955 -125.877)" fill="#ffbd86"/>
          <g id="Group_1220334" data-name="Group 1220334" transform="translate(31.749 7.188)">
            <path id="Path_1169026" data-name="Path 1169026" d="M295.464,100.148A13.681,13.681,0,1,0,274.171,97.7l-2.6,5.248a1.3,1.3,0,0,0,1.738,1.738l5.248-2.6A13.686,13.686,0,0,0,295.464,100.148Z" transform="translate(-271.435 -76.806)" fill="#fff8bf"/>
            <path id="Path_1169027" data-name="Path 1169027" d="M383.413,100.157a13.66,13.66,0,0,1-11.992,3.81,13.671,13.671,0,0,0-.011-26.954,13.672,13.672,0,0,1,12,23.144Z" transform="translate(-359.384 -76.815)" fill="#fcf2a9"/>
            <g id="Group_1220333" data-name="Group 1220333" transform="translate(11.053 16.582)">
              <g id="Group_1220332" data-name="Group 1220332">
                <g id="Group_1220331" data-name="Group 1220331">
                  <path id="Path_1169028" data-name="Path 1169028" d="M368.729,218.561H364.1a.781.781,0,0,1-.522-1.362l2.834-2.544,2.834,2.544a.781.781,0,0,1-.522,1.362Z" transform="translate(-363.323 -214.654)" fill="#e19974"/>
                </g>
              </g>
            </g>
          </g>
          <path id="Path_1169029" data-name="Path 1169029" d="M267.824,392.023H249V379.41a1.464,1.464,0,0,1,1.464-1.464h18.261a1.464,1.464,0,0,1,1.464,1.464v10.248A2.365,2.365,0,0,1,267.824,392.023Z" transform="translate(-219.949 -334.533)" fill="#e19974"/>
          <path id="Path_1169030" data-name="Path 1169030" d="M372.44,377.947H367.8a1.464,1.464,0,0,1,1.464,1.464V389.66a2.364,2.364,0,0,1-2.364,2.364h4.642a2.364,2.364,0,0,0,2.364-2.364V379.411A1.464,1.464,0,0,0,372.44,377.947Z" transform="translate(-323.664 -334.534)" fill="#d77f4a"/>
          <path id="Path_1169031" data-name="Path 1169031" d="M303.122,352.312h-6.7a1.753,1.753,0,0,1,0-3.505h6.7a1.753,1.753,0,1,1,0,3.505Z" transform="translate(-260.129 -308.9)" fill="#8ebac5"/>
          <path id="Path_1169032" data-name="Path 1169032" d="M340.939,348.807h-3.277a1.753,1.753,0,0,1,0,3.505h3.277a1.753,1.753,0,0,0,0-3.505Z" transform="translate(-297.946 -308.9)" fill="#7ca1b1"/>
          <circle id="Ellipse_14455" data-name="Ellipse 14455" cx="4.507" cy="4.507" r="4.507" transform="translate(18.264 14.756)" fill="#f2fbff"/>
          <circle id="Ellipse_14456" data-name="Ellipse 14456" cx="4.507" cy="4.507" r="4.507" transform="translate(5.161 14.756)" fill="#f2fbff"/>
          <g id="Group_1220335" data-name="Group 1220335" transform="translate(7.975 14.756)">
            <path id="Path_1169033" data-name="Path 1169033" d="M184.409,139.721a4.492,4.492,0,0,0-1.694.33,4.507,4.507,0,0,1,0,8.353,4.507,4.507,0,1,0,1.694-8.684Z" transform="translate(-169.613 -139.721)" fill="#dff6fd"/>
            <path id="Path_1169034" data-name="Path 1169034" d="M75.487,139.721a4.492,4.492,0,0,0-1.694.33,4.507,4.507,0,0,1,0,8.353,4.507,4.507,0,1,0,1.694-8.684Z" transform="translate(-73.793 -139.721)" fill="#dff6fd"/>
          </g>
        </g>
        <g id="Group_1220337" data-name="Group 1220337" transform="translate(0 9.529)">
          <path id="Path_1169035" data-name="Path 1169035" d="M124.79,219.783h-3.463a.9.9,0,1,0,0,1.8h3.463a.9.9,0,1,0,0-1.8Z" transform="translate(-105.939 -194.491)"/>
          <path id="Path_1169036" data-name="Path 1169036" d="M31.983,43.367a2.207,2.207,0,0,0,1.961,3.18,2.22,2.22,0,0,0,.986-.234l4.806-2.378A14.59,14.59,0,0,0,57.318,41.6a14.568,14.568,0,0,0-8.3-24.743.9.9,0,1,0-.247,1.787,12.772,12.772,0,0,1-.38,25.348,12.83,12.83,0,0,1-8.137-1.851.9.9,0,0,0-.877-.043l-5.247,2.6a.395.395,0,0,1-.529-.529l2.6-5.248a.9.9,0,0,0-.043-.877,12.8,12.8,0,0,1,8.663-19.333.9.9,0,1,0-.3-1.779,14.5,14.5,0,0,0-10.273,7.324A13.776,13.776,0,0,0,22.335,9.7a19.311,19.311,0,0,0-14.449,3.91A8.21,8.21,0,0,0,0,21.806V34.05a8.668,8.668,0,0,0,8.659,8.659h3.072v2.373l-2.052,2.18H3.154A3.158,3.158,0,0,0,0,50.417V65.672a3.158,3.158,0,0,0,3.154,3.154H25.73a.9.9,0,1,0,0-1.8H18.022V62.149l7.372-4.057a4.525,4.525,0,0,0,2.343-3.964V49.066h2.838a4.26,4.26,0,0,1,4.092,3.879h-3.25a2.369,2.369,0,0,0-2.366,2.366V67.924h0a.9.9,0,0,0,.9.9H48.777a3.27,3.27,0,0,0,3.267-3.267V55.311a2.369,2.369,0,0,0-2.366-2.366H46.409a2.653,2.653,0,0,0-2.514-3.505H37.2a2.642,2.642,0,0,0-1.676.6,5.8,5.8,0,0,0-4.949-2.776H24.561l-2.052-2.179V42.708H25.58a8.671,8.671,0,0,0,8.077-5.545,14.492,14.492,0,0,0,.7,1.4ZM50.24,55.311V65.559a1.464,1.464,0,0,1-1.462,1.462H30.855V55.311a.563.563,0,0,1,.562-.562H49.678a.563.563,0,0,1,.562.562ZM37.2,51.244h6.7a.85.85,0,1,1,0,1.7H37.2a.85.85,0,1,1,0-1.7ZM20.7,44.932,17.12,47.109l-3.584-2.176V42.685c.2.014,6.966.014,7.17,0Zm-5.837,7.636,2.252-2.925,2.252,2.925L17.12,55.3ZM12.789,46.59l3,1.822-2.1,2.727L11.27,48.2ZM8.307,49.066H9.642l6.575,7.977v3.046l-6.5-3.578a2.721,2.721,0,0,1-1.409-2.384ZM20.549,51.14l-2.1-2.727,3-1.822L22.97,48.2ZM20.09,40.9H14.15a7.192,7.192,0,0,1-7.184-7.178,5.4,5.4,0,0,0,8.971-3.362,4.51,4.51,0,0,1,2.36-.076,5.4,5.4,0,0,0,8.977,3.441A7.192,7.192,0,0,1,20.09,40.9ZM1.8,27.1a.889.889,0,0,1,.888-.888H5.161V31.7H2.692A.889.889,0,0,1,1.8,30.81Zm10.287-8.46a19.743,19.743,0,0,1,15.182,7v.024a5.4,5.4,0,0,0-8.864,2.787,5.759,5.759,0,0,0-2.038-.02c-.184.028-.358.062-.52.1a5.406,5.406,0,0,0-8.073-3.463,15.262,15.262,0,0,0,4.313-6.422ZM27.274,29.85a3.6,3.6,0,1,1-3.6-3.758A3.646,3.646,0,0,1,27.274,29.85Zm-16.7-3.758a3.6,3.6,0,1,1-3.6,3.6A3.609,3.609,0,0,1,10.57,26.092Zm18.508.125h2.469a.888.888,0,0,1,.887.876v3.728a.888.888,0,0,1-.887.876H29.078ZM8.2,15.41a.9.9,0,0,0,.554-.19,17.375,17.375,0,0,1,13.354-3.727c6.6.872,10.757,6.661,10.326,13.071a2.678,2.678,0,0,0-.887-.151H28.6A21.461,21.461,0,0,0,14.852,17c.248-.087.51-.171.785-.249a13.192,13.192,0,0,1,9.085.734.9.9,0,1,0,.725-1.652,15.1,15.1,0,0,0-10.384-.795,13.267,13.267,0,0,0-4.186,1.988.915.915,0,0,0-.31.455,13.479,13.479,0,0,1-4.817,6.927H2.692a2.679,2.679,0,0,0-.888.151V21.806a6.4,6.4,0,0,1,6.4-6.4ZM1.8,34.05v-.7a2.679,2.679,0,0,0,.888.151H5.161a9.083,9.083,0,0,0,3.593,7.4h-.1A6.862,6.862,0,0,1,1.8,34.05Zm1.35,32.972a1.351,1.351,0,0,1-1.35-1.35V50.417a1.352,1.352,0,0,1,1.35-1.351H6.5v5.062a4.526,4.526,0,0,0,2.343,3.965l7.372,4.056v4.873ZM25.933,54.128a2.72,2.72,0,0,1-1.409,2.384l-6.5,3.578V57.043L24.6,49.066h1.336ZM25.58,40.9h-.1a9.081,9.081,0,0,0,3.593-7.4h2.469a2.678,2.678,0,0,0,.887-.151A6.941,6.941,0,0,1,25.58,40.9Z" transform="translate(0 -9.529)"/>
          <path id="Path_1169037" data-name="Path 1169037" d="M328.018,130.713a.915.915,0,0,0-.22.591V133h-.107a.9.9,0,1,0,0,1.8h2.018a.9.9,0,1,0,0-1.8H329.6v-1.346a6.024,6.024,0,0,1,3.773-1.759v7.009l-2.535,2.276a1.683,1.683,0,0,0,1.124,2.936h4.625a1.683,1.683,0,0,0,1.124-2.936l-2.535-2.276V129.9a6.024,6.024,0,0,1,3.773,1.759V133h-.107a.9.9,0,1,0,0,1.8h2.018a.9.9,0,1,0,0-1.8h-.107v-1.7a.914.914,0,0,0-.22-.591,7.884,7.884,0,0,0-5.357-2.627v-.45a.9.9,0,0,0-1.8,0v.45A7.883,7.883,0,0,0,328.018,130.713Zm4.263,9.6,2-1.792,2,1.792Z" transform="translate(-287.479 -112.635)"/>
        </g>
      </g>
    </g>
  </g>
</svg>
