<svg xmlns="http://www.w3.org/2000/svg" xmlns:xlink="http://www.w3.org/1999/xlink" width="108" height="108" viewBox="0 0 108 108">
  <defs>
    <filter id="Path_978624" x="0" y="0" width="108" height="108" filterUnits="userSpaceOnUse">
      <feOffset dy="3" input="SourceAlpha"/>
      <feGaussianBlur stdDeviation="3" result="blur"/>
      <feFlood flood-opacity="0.161"/>
      <feComposite operator="in" in2="blur"/>
      <feComposite in="SourceGraphic"/>
    </filter>
    <filter id="Path_1076716" x="0" y="0" width="108" height="108" filterUnits="userSpaceOnUse">
      <feOffset dy="3" input="SourceAlpha"/>
      <feGaussianBlur stdDeviation="3" result="blur-2"/>
      <feFlood flood-opacity="0.161"/>
      <feComposite operator="in" in2="blur-2"/>
      <feComposite in="SourceGraphic"/>
    </filter>
  </defs>
  <g id="Group_1220635" data-name="Group 1220635" transform="translate(-196 -7395.115)">
    <g id="Group_1220538" data-name="Group 1220538">
      <g id="Group_1208503" data-name="Group 1208503" transform="translate(-420 6909.115)">
        <g id="Group_1200660" data-name="Group 1200660">
          <g id="Group_1181203" data-name="Group 1181203" transform="translate(625 492)">
            <g id="Group_1172348" data-name="Group 1172348" transform="translate(0)">
              <g id="Group_1171897" data-name="Group 1171897">
                <g id="Group_1171052" data-name="Group 1171052">
                  <g id="Group_1164581" data-name="Group 1164581">
                    <g id="Group_1144123" data-name="Group 1144123">
                      <g transform="matrix(1, 0, 0, 1, -9, -6)" filter="url(#Path_978624)">
                        <g id="Path_978624-2" data-name="Path 978624" transform="translate(9 6)" fill="#fcf5f0">
                          <path d="M 45 88.5 C 39.12687683105469 88.5 33.43022537231445 87.35007476806641 28.06830024719238 85.08217620849609 C 22.88852500915527 82.89131164550781 18.23629951477051 79.75458526611328 14.2408504486084 75.75914764404297 C 10.24541282653809 71.76370239257812 7.108687400817871 67.11147308349609 4.917825222015381 61.93170166015625 C 2.649924993515015 56.56977462768555 1.5 50.87312316894531 1.5 45 C 1.5 39.12687683105469 2.649924993515015 33.43022537231445 4.917825222015381 28.06830024719238 C 7.108687400817871 22.88852500915527 10.24541282653809 18.23629951477051 14.2408504486084 14.2408504486084 C 18.23629951477051 10.24541282653809 22.88852500915527 7.108687400817871 28.06830024719238 4.917825222015381 C 33.43022537231445 2.649924993515015 39.12687683105469 1.5 45 1.5 C 50.87312316894531 1.5 56.56977462768555 2.649924993515015 61.93170166015625 4.917825222015381 C 67.11147308349609 7.108687400817871 71.76370239257812 10.24541282653809 75.75914764404297 14.2408504486084 C 79.75458526611328 18.23629951477051 82.89131164550781 22.88852500915527 85.08217620849609 28.06830024719238 C 87.35007476806641 33.43022537231445 88.5 39.12687683105469 88.5 45 C 88.5 50.87312316894531 87.35007476806641 56.56977462768555 85.08217620849609 61.93170166015625 C 82.89131164550781 67.11147308349609 79.75458526611328 71.76370239257812 75.75914764404297 75.75914764404297 C 71.76370239257812 79.75458526611328 67.11147308349609 82.89131164550781 61.93170166015625 85.08217620849609 C 56.56977462768555 87.35007476806641 50.87312316894531 88.5 45 88.5 Z" stroke="none"/>
                          <path d="M 45 3 C 39.32871246337891 3 33.82865524291992 4.110054016113281 28.65262985229492 6.299339294433594 C 23.65165710449219 8.414573669433594 19.15968322753906 11.44334411621094 15.301513671875 15.301513671875 C 11.44334411621094 19.15968322753906 8.414573669433594 23.65165710449219 6.299339294433594 28.65262985229492 C 4.110054016113281 33.82865524291992 3 39.32871246337891 3 45 C 3 50.67128753662109 4.110054016113281 56.17134475708008 6.299339294433594 61.34737396240234 C 8.414573669433594 66.34834289550781 11.44334411621094 70.84031677246094 15.301513671875 74.698486328125 C 19.15968322753906 78.55665588378906 23.65165710449219 81.58542633056641 28.65262985229492 83.70066070556641 C 33.82865524291992 85.88994598388672 39.32871246337891 87 45 87 C 50.67128753662109 87 56.17134475708008 85.88994598388672 61.34737396240234 83.70066070556641 C 66.34834289550781 81.58542633056641 70.84031677246094 78.55665588378906 74.698486328125 74.698486328125 C 78.55665588378906 70.84031677246094 81.58542633056641 66.34834289550781 83.70066070556641 61.34737396240234 C 85.88994598388672 56.17134475708008 87 50.67128753662109 87 45 C 87 39.32871246337891 85.88994598388672 33.82865524291992 83.70066070556641 28.65262985229492 C 81.58542633056641 23.65165710449219 78.55665588378906 19.15968322753906 74.698486328125 15.301513671875 C 70.84031677246094 11.44334411621094 66.34834289550781 8.414573669433594 61.34737396240234 6.299339294433594 C 56.17134475708008 4.110054016113281 50.67128753662109 3 45 3 M 45 0 C 69.85281372070312 0 90 20.14718627929688 90 45 C 90 69.85281372070312 69.85281372070312 90 45 90 C 20.14718627929688 90 0 69.85281372070312 0 45 C 0 20.14718627929688 20.14718627929688 0 45 0 Z" stroke="none" fill="#eca675"/>
                        </g>
                      </g>
                      <g transform="matrix(1, 0, 0, 1, -9, -6)" filter="url(#Path_1076716)">
                        <g id="Path_1076716-2" data-name="Path 1076716" transform="translate(9 6)" fill="#fcf5f0">
                          <path d="M 45 88.5 C 39.12687683105469 88.5 33.43022537231445 87.35007476806641 28.06830024719238 85.08217620849609 C 22.88852500915527 82.89131164550781 18.23629951477051 79.75458526611328 14.2408504486084 75.75914764404297 C 10.24541282653809 71.76370239257812 7.108687400817871 67.11147308349609 4.917825222015381 61.93170166015625 C 2.649924993515015 56.56977462768555 1.5 50.87312316894531 1.5 45 C 1.5 39.12687683105469 2.649924993515015 33.43022537231445 4.917825222015381 28.06830024719238 C 7.108687400817871 22.88852500915527 10.24541282653809 18.23629951477051 14.2408504486084 14.2408504486084 C 18.23629951477051 10.24541282653809 22.88852500915527 7.108687400817871 28.06830024719238 4.917825222015381 C 33.43022537231445 2.649924993515015 39.12687683105469 1.5 45 1.5 C 50.87312316894531 1.5 56.56977462768555 2.649924993515015 61.93170166015625 4.917825222015381 C 67.11147308349609 7.108687400817871 71.76370239257812 10.24541282653809 75.75914764404297 14.2408504486084 C 79.75458526611328 18.23629951477051 82.89131164550781 22.88852500915527 85.08217620849609 28.06830024719238 C 87.35007476806641 33.43022537231445 88.5 39.12687683105469 88.5 45 C 88.5 50.87312316894531 87.35007476806641 56.56977462768555 85.08217620849609 61.93170166015625 C 82.89131164550781 67.11147308349609 79.75458526611328 71.76370239257812 75.75914764404297 75.75914764404297 C 71.76370239257812 79.75458526611328 67.11147308349609 82.89131164550781 61.93170166015625 85.08217620849609 C 56.56977462768555 87.35007476806641 50.87312316894531 88.5 45 88.5 Z" stroke="none"/>
                          <path d="M 45 3 C 39.32871246337891 3 33.82865524291992 4.110054016113281 28.65262985229492 6.299339294433594 C 23.65165710449219 8.414573669433594 19.15968322753906 11.44334411621094 15.301513671875 15.301513671875 C 11.44334411621094 19.15968322753906 8.414573669433594 23.65165710449219 6.299339294433594 28.65262985229492 C 4.110054016113281 33.82865524291992 3 39.32871246337891 3 45 C 3 50.67128753662109 4.110054016113281 56.17134475708008 6.299339294433594 61.34737396240234 C 8.414573669433594 66.34834289550781 11.44334411621094 70.84031677246094 15.301513671875 74.698486328125 C 19.15968322753906 78.55665588378906 23.65165710449219 81.58542633056641 28.65262985229492 83.70066070556641 C 33.82865524291992 85.88994598388672 39.32871246337891 87 45 87 C 50.67128753662109 87 56.17134475708008 85.88994598388672 61.34737396240234 83.70066070556641 C 66.34834289550781 81.58542633056641 70.84031677246094 78.55665588378906 74.698486328125 74.698486328125 C 78.55665588378906 70.84031677246094 81.58542633056641 66.34834289550781 83.70066070556641 61.34737396240234 C 85.88994598388672 56.17134475708008 87 50.67128753662109 87 45 C 87 39.32871246337891 85.88994598388672 33.82865524291992 83.70066070556641 28.65262985229492 C 81.58542633056641 23.65165710449219 78.55665588378906 19.15968322753906 74.698486328125 15.301513671875 C 70.84031677246094 11.44334411621094 66.34834289550781 8.414573669433594 61.34737396240234 6.299339294433594 C 56.17134475708008 4.110054016113281 50.67128753662109 3 45 3 M 45 0 C 69.85281372070312 0 90 20.14718627929688 90 45 C 90 69.85281372070312 69.85281372070312 90 45 90 C 20.14718627929688 90 0 69.85281372070312 0 45 C 0 20.14718627929688 20.14718627929688 0 45 0 Z" stroke="none" fill="#eca675"/>
                        </g>
                      </g>
                    </g>
                  </g>
                </g>
              </g>
            </g>
          </g>
        </g>
      </g>
      <g id="subasta" transform="translate(215.465 7417.044)">
        <g id="Group_1210324" data-name="Group 1210324" transform="translate(6.893 2.179)">
          <path id="Path_1080517" data-name="Path 1080517" d="M57.856,65.642H20.143V68a4.714,4.714,0,1,1-9.428,0V6.714A4.714,4.714,0,0,0,6,2H49.606a8.25,8.25,0,0,1,8.25,8.25Z" transform="translate(-6 -2)" fill="#adaba6"/>
        </g>
        <g id="Group_1210325" data-name="Group 1210325" transform="translate(6.893 2.179)">
          <path id="Path_1080518" data-name="Path 1080518" d="M10.714,6.714V54.945a26.1,26.1,0,0,0,16.5,5.982c15.622,0,28.285-14.246,28.285-31.821C55.5,17.645,50.111,7.6,42.029,2H6A4.714,4.714,0,0,1,10.714,6.714Z" transform="translate(-6 -2)" fill="#f1efeb"/>
        </g>
        <g id="Group_1210327" data-name="Group 1210327" transform="translate(16.321 65.82)">
          <g id="Group_1210326" data-name="Group 1210326">
            <path id="Path_1080519" data-name="Path 1080519" d="M56.428,56H18.714v2.357A4.714,4.714,0,0,1,14,63.071H56.428a4.714,4.714,0,0,0,4.714-4.714V56Z" transform="translate(-14 -56)" fill="#74726f"/>
          </g>
        </g>
        <g id="Group_1210328" data-name="Group 1210328" transform="translate(2.179 2.179)">
          <path id="Path_1080520" data-name="Path 1080520" d="M11.428,16.143H2V6.714a4.714,4.714,0,0,1,9.428,0Z" transform="translate(-2 -2)" fill="#74726f"/>
        </g>
        <g id="Group_1210329" data-name="Group 1210329" transform="translate(16.741 42.319)">
          <circle id="Ellipse_11879" data-name="Ellipse 11879" cx="9.346" cy="9.346" r="9.346" transform="translate(0 0)" fill="#b57769"/>
        </g>
        <g id="Group_1210330" data-name="Group 1210330" transform="translate(20.676 47.238)">
          <ellipse id="Ellipse_11880" data-name="Ellipse 11880" cx="4.919" cy="4.427" rx="4.919" ry="4.427" transform="translate(0 0)" fill="#f29f8c"/>
        </g>
        <g id="Group_1210331" data-name="Group 1210331" transform="translate(55.201 43.43)">
          <path id="Path_1080521" data-name="Path 1080521" d="M0,0H4.167V20.834H0Z" transform="translate(0 2.946) rotate(-45)" fill="#bf8859"/>
        </g>
        <g id="Group_1210332" data-name="Group 1210332" transform="translate(46.953 35.18)">
          <path id="Path_1080522" data-name="Path 1080522" d="M0,0H11.666V8.334H0Z" transform="translate(0 8.248) rotate(-45)" fill="#bf8859"/>
        </g>
        <g id="Group_1210333" data-name="Group 1210333" transform="translate(42.24 42.249)">
          <path id="Path_1080523" data-name="Path 1080523" d="M0,0H5V11.666H0Z" transform="translate(0 3.535) rotate(-45)" fill="#bf8859"/>
        </g>
        <g id="Group_1210334" data-name="Group 1210334" transform="translate(54.025 30.466)">
          <path id="Path_1080524" data-name="Path 1080524" d="M0,0H5V11.666H0Z" transform="translate(0 3.535) rotate(-45)" fill="#bf8859"/>
        </g>
        <g id="Group_1210335" data-name="Group 1210335" transform="translate(1 1)">
          <path id="Path_1080525" data-name="Path 1080525" d="M58.749,74.07H16.321a5.9,5.9,0,0,1-5.893-5.893V17.5H2.179A1.178,1.178,0,0,1,1,16.321V6.893a5.893,5.893,0,0,1,11.786,0V68.177a3.536,3.536,0,1,0,7.071,0V65.82a1.178,1.178,0,0,1,1.179-1.179H63.463a1.178,1.178,0,0,1,1.179,1.179v2.357A5.9,5.9,0,0,1,58.749,74.07ZM21.033,71.713H58.749a3.54,3.54,0,0,0,3.536-3.536V67H22.214v1.179a5.861,5.861,0,0,1-1.181,3.536ZM3.357,15.143h7.071V6.893a3.536,3.536,0,0,0-7.071,0Z" transform="translate(-1 -1)"/>
        </g>
        <g id="Group_1210336" data-name="Group 1210336" transform="translate(57.57 49.91)">
          <path id="Path_1080526" data-name="Path 1080526" d="M49,42.5h2.357V58.41H49Z" transform="translate(-49 -42.5)"/>
        </g>
        <g id="Group_1210337" data-name="Group 1210337" transform="translate(6.893 1)">
          <path id="Path_1080527" data-name="Path 1080527" d="M59.035,31.642H56.678V9.25a5.9,5.9,0,0,0-5.893-5.893H6V1H50.785a8.26,8.26,0,0,1,8.25,8.25Z" transform="translate(-6 -1)"/>
        </g>
        <g id="Group_1210338" data-name="Group 1210338" transform="translate(41.07 41.07)">
          <path id="Path_1080528" data-name="Path 1080528" d="M44.428,49.143A1.175,1.175,0,0,1,43.6,48.8l-8.25-8.25a1.177,1.177,0,0,1,0-1.666l3.536-3.536a1.177,1.177,0,0,1,1.666,0L48.8,43.6a1.177,1.177,0,0,1,0,1.666L45.262,48.8A1.175,1.175,0,0,1,44.428,49.143Zm-6.583-9.428L44.428,46.3,46.3,44.428l-6.583-6.583Z" transform="translate(-35 -35)"/>
        </g>
        <g id="Group_1210339" data-name="Group 1210339" transform="translate(52.856 29.285)">
          <path id="Path_1080529" data-name="Path 1080529" d="M54.428,39.143A1.175,1.175,0,0,1,53.6,38.8l-8.25-8.25a1.177,1.177,0,0,1,0-1.666l3.536-3.536a1.177,1.177,0,0,1,1.666,0L58.8,33.6a1.177,1.177,0,0,1,0,1.666L55.262,38.8A1.175,1.175,0,0,1,54.428,39.143Zm-6.583-9.428L54.428,36.3,56.3,34.428l-6.583-6.583Z" transform="translate(-45 -25)"/>
        </g>
        <g id="Group_1210340" data-name="Group 1210340" transform="translate(46.121 34.347)">
          <path id="Path_1080530" data-name="Path 1080530" d="M0,0H11.666V2.357H0Z" transform="translate(0 8.248) rotate(-45)"/>
        </g>
        <g id="Group_1210341" data-name="Group 1210341" transform="translate(52.013 40.24)">
          <path id="Path_1080531" data-name="Path 1080531" d="M0,0H11.666V2.357H0Z" transform="translate(0 8.248) rotate(-45)"/>
        </g>
        <g id="Group_1210342" data-name="Group 1210342" transform="translate(54.38 42.595)">
          <path id="Path_1080532" data-name="Path 1080532" d="M61.858,55.983a1.175,1.175,0,0,1-.833-.345L46.293,40.906l1.666-1.666,13.9,13.9,1.28-1.28-13.9-13.9,1.666-1.666L65.638,51.025a1.177,1.177,0,0,1,0,1.666l-2.946,2.946A1.175,1.175,0,0,1,61.858,55.983Z" transform="translate(-46.293 -36.293)"/>
        </g>
        <g id="Group_1210343" data-name="Group 1210343" transform="translate(16.321 22.214)">
          <path id="Path_1080533" data-name="Path 1080533" d="M14,19H52.892v2.357H14Z" transform="translate(-14 -19)"/>
        </g>
        <g id="Group_1210344" data-name="Group 1210344" transform="translate(16.321 31.642)">
          <path id="Path_1080534" data-name="Path 1080534" d="M14,27H48.178v2.357H14Z" transform="translate(-14 -27)"/>
        </g>
        <g id="Group_1210345" data-name="Group 1210345" transform="translate(16.321 26.928)">
          <path id="Path_1080535" data-name="Path 1080535" d="M14,23H52.892v2.357H14Z" transform="translate(-14 -23)"/>
        </g>
        <g id="Group_1210346" data-name="Group 1210346" transform="translate(16.321 12.786)">
          <path id="Path_1080536" data-name="Path 1080536" d="M14,11H52.892v2.357H14Z" transform="translate(-14 -11)"/>
        </g>
        <g id="Group_1210347" data-name="Group 1210347" transform="translate(16.321 8.071)">
          <path id="Path_1080537" data-name="Path 1080537" d="M14,7H52.892V9.357H14Z" transform="translate(-14 -7)"/>
        </g>
        <g id="Group_1210348" data-name="Group 1210348" transform="translate(16.321 17.5)">
          <path id="Path_1080538" data-name="Path 1080538" d="M14,15H52.892v2.357H14Z" transform="translate(-14 -15)"/>
        </g>
        <g id="Group_1210349" data-name="Group 1210349" transform="translate(16.321 36.357)">
          <path id="Path_1080539" data-name="Path 1080539" d="M14,31H45.821v2.357H14Z" transform="translate(-14 -31)"/>
        </g>
        <g id="Group_1210350" data-name="Group 1210350" transform="translate(15.143 41.071)">
          <path id="Path_1080540" data-name="Path 1080540" d="M23.607,56.214A10.607,10.607,0,1,1,34.214,45.607,10.619,10.619,0,0,1,23.607,56.214Zm0-18.857a8.25,8.25,0,1,0,8.25,8.25A8.26,8.26,0,0,0,23.607,37.357Z" transform="translate(-13 -35)"/>
        </g>
        <g id="Group_1210351" data-name="Group 1210351" transform="translate(19.857 45.785)">
          <path id="Path_1080541" data-name="Path 1080541" d="M22.893,50.786a5.893,5.893,0,1,1,5.893-5.893A5.9,5.9,0,0,1,22.893,50.786Zm0-9.428a3.536,3.536,0,1,0,3.536,3.536A3.54,3.54,0,0,0,22.893,41.357Z" transform="translate(-17 -39)"/>
        </g>
        <g id="Group_1210352" data-name="Group 1210352" transform="translate(38.714 56.391)">
          <path id="Path_1080542" data-name="Path 1080542" d="M47.143,53.893H42.428a4.716,4.716,0,0,1-3.993-2.21A7.772,7.772,0,0,1,33,53.893V51.536a5.418,5.418,0,0,0,4.516-2.417l.4-.594a1.179,1.179,0,0,1,2.159.654,2.359,2.359,0,0,0,2.357,2.357h4.714Z" transform="translate(-33 -47.999)"/>
        </g>
      </g>
    </g>
  </g>
</svg>
