<svg xmlns="http://www.w3.org/2000/svg" xmlns:xlink="http://www.w3.org/1999/xlink" width="110" height="110" viewBox="0 0 110 110">
  <defs>
    <filter id="Path_982547" x="0" y="0" width="110" height="110" filterUnits="userSpaceOnUse">
      <feOffset dy="3" input="SourceAlpha"/>
      <feGaussianBlur stdDeviation="3" result="blur"/>
      <feFlood flood-opacity="0.161"/>
      <feComposite operator="in" in2="blur"/>
      <feComposite in="SourceGraphic"/>
    </filter>
  </defs>
  <g id="Group_1223238" data-name="Group 1223238" transform="translate(-10516.001 -1982.434)">
    <g id="Group_1223154" data-name="Group 1223154" transform="translate(0 222.188)">
      <g id="Group_1222274" data-name="Group 1222274" transform="translate(9824.001 -9570.727)">
        <g id="Group_1214725" data-name="Group 1214725" transform="translate(701 11336.972)">
          <g id="Group_1200151" data-name="Group 1200151" transform="translate(0 0)">
            <g id="Group_1185952" data-name="Group 1185952" transform="translate(0 0)">
              <g id="Group_1184115" data-name="Group 1184115">
                <g id="Group_1183744" data-name="Group 1183744">
                  <g id="Group_1181546" data-name="Group 1181546">
                    <g id="Group_1177563" data-name="Group 1177563">
                      <g id="Group_1173148" data-name="Group 1173148">
                        <g id="Group_1163803" data-name="Group 1163803">
                          <g id="Group_1163015" data-name="Group 1163015">
                            <g id="Group_1157017" data-name="Group 1157017">
                              <g id="Group_1155793" data-name="Group 1155793">
                                <g id="Group_1154704" data-name="Group 1154704">
                                  <g id="Group_1150790" data-name="Group 1150790">
                                    <g id="Group_1154214" data-name="Group 1154214">
                                      <g id="Group_1152583" data-name="Group 1152583">
                                        <g id="Group_1146973" data-name="Group 1146973">
                                          <g id="Group_1146954" data-name="Group 1146954">
                                            <g transform="matrix(1, 0, 0, 1, -9, -6)" filter="url(#Path_982547)">
                                              <g id="Path_982547-2" data-name="Path 982547" transform="translate(9 6)" fill="#f9e3d4">
                                                <path d="M 46 90.49986267089844 C 39.99187850952148 90.49986267089844 34.16426849365234 89.32350158691406 28.67905426025391 87.00344848632812 C 23.38021278381348 84.76223754882812 18.62104034423828 81.55340576171875 14.53376007080078 77.46612548828125 C 10.44646644592285 73.37884521484375 7.237653255462646 68.61968994140625 4.996426582336426 63.32084655761719 C 2.676373243331909 57.83563232421875 1.50001335144043 52.00803375244141 1.50001335144043 45.99992752075195 C 1.50001335144043 39.9918212890625 2.676373243331909 34.16422271728516 4.996426582336426 28.67900657653809 C 7.237653255462646 23.38016700744629 10.44646644592285 18.62100791931152 14.53376007080078 14.53372764587402 C 18.62104034423828 10.44644737243652 23.38021278381348 7.237634181976318 28.67905426025391 4.996420860290527 C 34.16426849365234 2.676367521286011 39.99187850952148 1.500007510185242 46 1.500007510185242 C 52.00812149047852 1.500007510185242 57.83572006225586 2.676367521286011 63.32094573974609 4.996420860290527 C 68.61978912353516 7.237634181976318 73.37895965576172 10.44646072387695 77.46623992919922 14.53372764587402 C 81.55353546142578 18.62100791931152 84.76235961914062 23.38016700744629 87.00358581542969 28.67900657653809 C 89.32363891601562 34.16422271728516 90.5 39.9918212890625 90.5 45.99992752075195 C 90.5 52.00803375244141 89.32363891601562 57.83563232421875 87.00358581542969 63.32084655761719 C 84.76235961914062 68.61968994140625 81.55353546142578 73.37884521484375 77.46623992919922 77.46612548828125 C 73.37895965576172 81.55340576171875 68.61978912353516 84.76223754882812 63.32094573974609 87.00344848632812 C 57.83572006225586 89.32350158691406 52.00812149047852 90.49986267089844 46 90.49986267089844 Z" stroke="none"/>
                                                <path d="M 46 3 C 40.1937141418457 3 34.56269836425781 4.136497497558594 29.26338577270508 6.377914428710938 C 24.14332580566406 8.543510437011719 19.54442596435547 11.64438629150391 15.59441375732422 15.59438323974609 C 11.64440155029297 19.54439544677734 8.543525695800781 24.14329528808594 6.3779296875 29.26333999633789 C 4.136497497558594 34.56265640258789 3 40.19365692138672 3 45.99992752075195 C 3 51.80619812011719 4.136497497558594 57.43719863891602 6.3779296875 62.73651123046875 C 8.543525695800781 67.85655212402344 11.64440155029297 72.45545959472656 15.59441375732422 76.40547180175781 C 19.54442596435547 80.35546875 24.14332580566406 83.45634460449219 29.26338577270508 85.62194061279297 C 34.56269836425781 87.86335754394531 40.1937141418457 88.99985504150391 46 88.99985504150391 C 51.8062858581543 88.99985504150391 57.43728637695312 87.86335754394531 62.73661422729492 85.62194061279297 C 67.85665893554688 83.45634460449219 72.45557403564453 80.35546875 76.40558624267578 76.40547180175781 C 80.35559844970703 72.45545959472656 83.45647430419922 67.85655212402344 85.6220703125 62.73651123046875 C 87.86348724365234 57.43719863891602 88.99998474121094 51.80619812011719 88.99998474121094 45.99992752075195 C 88.99998474121094 40.19365692138672 87.86348724365234 34.56265640258789 85.6220703125 29.26333999633789 C 83.45647430419922 24.14329528808594 80.35559844970703 19.54439544677734 76.40558624267578 15.59438323974609 C 72.45557403564453 11.64438629150391 67.85665893554688 8.543510437011719 62.73661422729492 6.377914428710938 C 57.43728637695312 4.136497497558594 51.8062858581543 3 46 3 M 46 0 C 71.40509033203125 0 91.99998474121094 20.59487152099609 91.99998474121094 45.99992752075195 C 91.99998474121094 71.40498352050781 71.40509033203125 91.99985504150391 46 91.99985504150391 C 20.59491729736328 91.99985504150391 0 71.40498352050781 0 45.99992752075195 C 0 20.59487152099609 20.59491729736328 0 46 0 Z" stroke="none" fill="#eca675"/>
                                              </g>
                                            </g>
                                          </g>
                                        </g>
                                      </g>
                                    </g>
                                  </g>
                                </g>
                              </g>
                            </g>
                          </g>
                        </g>
                      </g>
                    </g>
                  </g>
                </g>
              </g>
            </g>
          </g>
        </g>
      </g>
      <g id="leyes_3_" data-name="leyes (3)" transform="translate(10531.094 1778.695)">
        <path id="Path_1175570" data-name="Path 1175570" d="M71.013,61.422a6.039,6.039,0,0,1-4.28-1.774l-.21-.21,1.857-1.857.21.21a3.414,3.414,0,0,0,3.957.641A20.746,20.746,0,0,1,88.855,57.5a18.075,18.075,0,0,0,12.335,0,20.761,20.761,0,0,1,16.312.937,3.414,3.414,0,0,0,3.957-.641l.21-.21,1.856,1.857-.21.21a6.048,6.048,0,0,1-6.987,1.134,18.127,18.127,0,0,0-14.24-.819,20.711,20.711,0,0,1-14.132,0,18.125,18.125,0,0,0-14.24.819,6.053,6.053,0,0,1-2.7.641Zm0,0" transform="translate(-55.605 -46.949)" fill="#ffa912"/>
        <path id="Path_1175571" data-name="Path 1175571" d="M152.058,296.215h15.757a7.879,7.879,0,0,1,7.878,7.878H144.18A7.878,7.878,0,0,1,152.058,296.215Zm0,0" transform="translate(-120.515 -247.522)" fill="#ffb531"/>
        <path id="Path_1175572" data-name="Path 1175572" d="M261.432,296.215H256.18a7.879,7.879,0,0,1,7.879,7.878h5.252A7.879,7.879,0,0,0,261.432,296.215Zm0,0" transform="translate(-214.132 -247.522)" fill="#ffa912"/>
        <g id="Group_1223153" data-name="Group 1223153" transform="translate(1.342 1.402)">
          <path id="Path_1175573" data-name="Path 1175573" d="M224.056,12.052a3.939,3.939,0,1,0-6.565,2.917V55.383h5.252V14.968a3.91,3.91,0,0,0,1.313-2.917Zm0,0" transform="translate(-182.038 -8.092)" fill="#ffb531"/>
          <path id="Path_1175574" data-name="Path 1175574" d="M8.18,192.215H34.441a7.878,7.878,0,0,1-7.878,7.878h-10.5a7.878,7.878,0,0,1-7.878-7.878Zm0,0" transform="translate(-8.18 -161.994)" fill="#ffb531"/>
          <path id="Path_1175575" data-name="Path 1175575" d="M312.18,192.215h26.262a7.878,7.878,0,0,1-7.879,7.878h-10.5A7.878,7.878,0,0,1,312.18,192.215Zm0,0" transform="translate(-262.283 -161.994)" fill="#ffb531"/>
        </g>
        <path id="Path_1175576" data-name="Path 1175576" d="M400.058,192.215a7.878,7.878,0,0,1-7.878,7.878h5.252a7.878,7.878,0,0,0,7.878-7.878Zm0,0" transform="translate(-327.81 -160.592)" fill="#ffa912"/>
        <path id="Path_1175577" data-name="Path 1175577" d="M15.541,72.935a1.361,1.361,0,0,0-2.135,0L.275,91.318A1.313,1.313,0,1,0,2.41,92.844L14.473,75.958,26.536,92.844a1.313,1.313,0,1,0,2.135-1.526Zm0,0" transform="translate(0 -60.458)" fill="#d6d6d4"/>
        <path id="Path_1175578" data-name="Path 1175578" d="M332.672,91.317,319.541,72.934a1.361,1.361,0,0,0-2.135,0L304.275,91.317a1.313,1.313,0,1,0,2.135,1.526l12.063-16.886,12.063,16.886a1.313,1.313,0,0,0,2.135-1.526Zm0,0" transform="translate(-254.103 -60.457)" fill="#d6d6d4"/>
        <path id="Path_1175579" data-name="Path 1175579" d="M96.058,192.215a7.878,7.878,0,0,1-7.878,7.878h5.252a7.878,7.878,0,0,0,7.878-7.878Zm0,0" transform="translate(-73.707 -160.592)" fill="#ffa912"/>
        <path id="Path_1175580" data-name="Path 1175580" d="M86.181,354.72H49.415a11.743,11.743,0,0,1,0-10.5H86.181A11.743,11.743,0,0,0,86.181,354.72Zm0,0" transform="translate(-40.268 -287.643)" fill="#803f37"/>
        <path id="Path_1175581" data-name="Path 1175581" d="M76.038,344.828l.324-.614H73.45a13.108,13.108,0,0,0,0,10.5h2.908l-.31-.587a10.474,10.474,0,0,1-.011-9.3Zm0,0" transform="translate(-60.476 -287.643)" fill="#ffb531"/>
        <path id="Path_1175582" data-name="Path 1175582" d="M235.565,344.852l.353-.637h-2.931a13.113,13.113,0,0,0,0,10.5h2.923l-.327-.587A10.466,10.466,0,0,1,235.565,344.852Zm0,0" transform="translate(-193.829 -287.643)" fill="#ffb531"/>
        <path id="Path_1175583" data-name="Path 1175583" d="M273.415,344.215a11.743,11.743,0,0,0,0,10.5h24.949a11.743,11.743,0,0,1,0-10.5Zm0,0" transform="translate(-227.501 -287.643)" fill="#e0e0de"/>
        <path id="Path_1175584" data-name="Path 1175584" d="M111.73,368.215h15.757v2.626H111.73Zm0,0" transform="translate(-93.392 -307.704)" fill="#f98500"/>
        <path id="Path_1175585" data-name="Path 1175585" d="M297.212,368.215H272.263a11.91,11.91,0,0,0,0,2.626h24.949A11.91,11.91,0,0,1,297.212,368.215Zm0,0" transform="translate(-227.515 -307.704)" fill="#d6d6d4"/>
        <path id="Path_1175586" data-name="Path 1175586" d="M86.181,418.72H49.415a11.743,11.743,0,0,1,0-10.5H86.181A11.743,11.743,0,0,0,86.181,418.72Zm0,0" transform="translate(-40.268 -341.139)" fill="#773730"/>
        <path id="Path_1175587" data-name="Path 1175587" d="M76.038,408.828l.324-.614H73.45a13.108,13.108,0,0,0,0,10.5h2.908l-.31-.587a10.474,10.474,0,0,1-.011-9.3Zm0,0" transform="translate(-60.476 -341.138)" fill="#ffb531"/>
        <path id="Path_1175588" data-name="Path 1175588" d="M235.565,408.852l.353-.637h-2.931a13.113,13.113,0,0,0,0,10.5h2.923l-.327-.587A10.466,10.466,0,0,1,235.565,408.852Zm0,0" transform="translate(-193.829 -341.139)" fill="#ffb531"/>
        <path id="Path_1175589" data-name="Path 1175589" d="M273.415,408.215a11.743,11.743,0,0,0,0,10.5h24.949a11.743,11.743,0,0,1,0-10.5Zm0,0" transform="translate(-227.501 -341.139)" fill="#d6d6d4"/>
        <path id="Path_1175590" data-name="Path 1175590" d="M111.73,432.215h15.757v2.626H111.73Zm0,0" transform="translate(-93.392 -361.199)" fill="#f98500"/>
        <path id="Path_1175591" data-name="Path 1175591" d="M297.212,432.215H272.263a11.91,11.91,0,0,0,0,2.626h24.949A11.91,11.91,0,0,1,297.212,432.215Zm0,0" transform="translate(-227.515 -361.199)" fill="#c7c7c5"/>
        <path id="Path_1175592" data-name="Path 1175592" d="M111.73,432.215h15.757v2.626H111.73Zm0,0" transform="translate(-93.392 -361.199)"/>
        <path id="Path_1175593" data-name="Path 1175593" d="M111.73,368.215h15.757v2.626H111.73Zm0,0" transform="translate(-93.392 -307.704)"/>
        <path id="Path_1175594" data-name="Path 1175594" d="M78.719,30.86,66.468,13.709a6.009,6.009,0,0,0,1.4-1.011l.21-.21-1.857-1.857-.21.21a3.433,3.433,0,0,1-3.963.645,20.9,20.9,0,0,0-16.3-.937,17.7,17.7,0,0,1-2.232.633V8.815a5.252,5.252,0,1,0-7.878,0v2.364a17.622,17.622,0,0,1-2.225-.632,20.885,20.885,0,0,0-16.3.934,3.5,3.5,0,0,1-3.969-.642l-.21-.21-1.857,1.856.208.21a6.017,6.017,0,0,0,1.4,1.009L.426,30.86l.018.013a1.285,1.285,0,0,0-.264.75,9.2,9.2,0,0,0,9.192,9.192h10.5a9.2,9.2,0,0,0,9.192-9.192,1.284,1.284,0,0,0-.263-.75l.019-.013L16.987,14.3a6.354,6.354,0,0,0,1.275-.461A18.229,18.229,0,0,1,32.5,13.016a20.5,20.5,0,0,0,3.133.836V47.38H31.694a9.2,9.2,0,0,0-9.087,7.878H9.3a1.314,1.314,0,0,0-1.174.726,13.108,13.108,0,0,0-.252,11.091,13.109,13.109,0,0,0,.252,11.092,1.313,1.313,0,0,0,1.174.726H71.013a1.313,1.313,0,0,0,1.175-1.9,10.483,10.483,0,0,1,0-9.331,23.13,23.13,0,0,1,.09-.26,1.189,1.189,0,0,0,.029-.164.992.992,0,0,0,0-.326,1.189,1.189,0,0,0-.029-.164,1.06,1.06,0,0,0-.054-.153.99.99,0,0,0-.037-.106,10.483,10.483,0,0,1,0-9.331,1.313,1.313,0,0,0-1.175-1.9H56.537a9.2,9.2,0,0,0-9.086-7.878H43.512V13.852a20.745,20.745,0,0,0,3.133-.837,18.231,18.231,0,0,1,14.232.823,6.13,6.13,0,0,0,1.274.462L50.323,30.86l.018.013a1.285,1.285,0,0,0-.264.75,9.2,9.2,0,0,0,9.192,9.192h10.5a9.2,9.2,0,0,0,9.192-9.192,1.284,1.284,0,0,0-.263-.75ZM14.624,15.5,25.2,30.31H4.044Zm5.252,22.688H9.372a6.576,6.576,0,0,1-6.435-5.252H26.31a6.576,6.576,0,0,1-6.434,5.252ZM68.542,63.137a13.049,13.049,0,0,0,.525,2.626H46.925c-.03-.076-.068-.151-.1-.227-.05-.131-.095-.263-.139-.394-.078-.228-.144-.46-.205-.693-.034-.131-.069-.263-.1-.394-.054-.253-.1-.507-.131-.762-.006-.049-.015-.1-.021-.144Zm0,7.878H46.236a1.118,1.118,0,0,1,.021-.144c.035-.255.078-.51.131-.762.029-.131.064-.263.1-.394.061-.233.131-.465.205-.694.045-.131.089-.262.139-.394.029-.076.067-.151.1-.227H69.071a13.02,13.02,0,0,0-.529,2.614ZM43.87,58.8l-.01.034a13.2,13.2,0,0,0-.228,1.313c-.014.113-.026.223-.038.336-.044.437-.074.875-.075,1.313v.034c0,.439.031.876.075,1.313.012.113.024.224.038.335A13.2,13.2,0,0,0,43.86,64.8l.01.034q.109.466.252.919H41.6a10.469,10.469,0,0,1,0-7.878h2.518q-.143.472-.252.94ZM15.411,68.389H38.817a13.129,13.129,0,0,0,0,7.878H15.411A10.475,10.475,0,0,1,15.411,68.389Zm23.4-2.626h-23.4a10.475,10.475,0,0,1,0-7.878H38.817a13.129,13.129,0,0,0,0,7.878Zm-28.67-7.878h2.484a13.129,13.129,0,0,0,0,7.878H10.145A10.493,10.493,0,0,1,10.145,57.885Zm0,10.5h2.484a13.129,13.129,0,0,0,0,7.878H10.145A10.493,10.493,0,0,1,10.145,68.389ZM41.6,76.268a10.469,10.469,0,0,1,0-7.878h2.518q-.143.459-.252.919l-.01.034a13.193,13.193,0,0,0-.228,1.313c-.014.113-.026.223-.038.336-.044.437-.074.875-.075,1.313v.034c0,.439.031.876.075,1.313.012.113.024.224.038.335A13.193,13.193,0,0,0,43.86,75.3l.01.034q.109.466.252.919Zm5.322,0c-.03-.076-.068-.151-.1-.227-.05-.131-.095-.263-.139-.394-.078-.228-.144-.46-.205-.693-.034-.131-.069-.263-.1-.394-.054-.253-.1-.507-.131-.762-.006-.049-.015-.1-.021-.144H68.542a13.058,13.058,0,0,0,.525,2.626ZM68.539,60.511h-22.3a1.118,1.118,0,0,1,.021-.144c.035-.255.078-.51.131-.762.029-.131.064-.263.1-.394.061-.233.131-.465.205-.694.045-.131.089-.262.139-.394.029-.076.067-.151.1-.227H69.071a13.02,13.02,0,0,0-.529,2.614ZM53.885,55.259H25.259a6.576,6.576,0,0,1,6.435-5.252H47.451a6.576,6.576,0,0,1,6.434,5.252ZM38.259,47.38V8.279a1.316,1.316,0,0,0-.433-.976,2.589,2.589,0,0,1-.88-1.942,2.626,2.626,0,1,1,5.252,0,2.592,2.592,0,0,1-.88,1.942,1.313,1.313,0,0,0-.433.976v39.1ZM75.1,30.31H53.941L64.521,15.5Zm-5.327,7.878h-10.5a6.576,6.576,0,0,1-6.435-5.252H76.207a6.576,6.576,0,0,1-6.434,5.252Zm0,0" transform="translate(-0.151)"/>
      </g>
    </g>
  </g>
</svg>
