<svg xmlns="http://www.w3.org/2000/svg" xmlns:xlink="http://www.w3.org/1999/xlink" width="112.317" height="112.317" viewBox="0 0 112.317 112.317">
  <defs>
    <filter id="Path_978624" x="0" y="0" width="112.317" height="112.317" filterUnits="userSpaceOnUse">
      <feOffset dy="3" input="SourceAlpha"/>
      <feGaussianBlur stdDeviation="3" result="blur"/>
      <feFlood flood-opacity="0.161"/>
      <feComposite operator="in" in2="blur"/>
      <feComposite in="SourceGraphic"/>
    </filter>
  </defs>
  <g id="Group_1220595" data-name="Group 1220595" transform="translate(-159.964 -2767.342)">
    <g id="Group_1220489" data-name="Group 1220489">
      <g id="Group_1219923" data-name="Group 1219923" transform="translate(0 936)">
        <g id="Group_1216021" data-name="Group 1216021" transform="translate(0 148.5)">
          <g id="Group_1210476" data-name="Group 1210476" transform="translate(0 -2231.158)">
            <g id="Group_1210475" data-name="Group 1210475" transform="translate(167.192 3920)">
              <g id="Group_1209741" data-name="Group 1209741" transform="translate(1.772)">
                <g id="Group_1178144" data-name="Group 1178144" transform="translate(0 0)">
                  <g id="Group_1177896" data-name="Group 1177896">
                    <g id="Group_1176881" data-name="Group 1176881">
                      <g id="Group_1175148" data-name="Group 1175148">
                        <g id="Group_1173798" data-name="Group 1173798">
                          <g id="Group_1171925" data-name="Group 1171925">
                            <g id="Group_1164524" data-name="Group 1164524">
                              <g id="Group_1144123" data-name="Group 1144123">
                                <g transform="matrix(1, 0, 0, 1, -9, -6)" filter="url(#Path_978624)">
                                  <g id="Path_978624-2" data-name="Path 978624" transform="translate(9 6)" fill="#e7f2f8">
                                    <path d="M 47.15840148925781 92.81680297851562 C 40.993896484375 92.81680297851562 35.01457595825195 91.60981750488281 29.38654899597168 89.22934722900391 C 23.94976234436035 86.92978668212891 19.06670761108398 83.63744354248047 14.8730411529541 79.44376373291016 C 10.67936134338379 75.25009155273438 7.387014865875244 70.36704254150391 5.087454795837402 64.93025207519531 C 2.706988096237183 59.30222702026367 1.500001430511475 53.32290649414062 1.500001430511475 47.15840148925781 C 1.500001430511475 40.993896484375 2.706988096237183 35.01457595825195 5.087454795837402 29.38654899597168 C 7.387014865875244 23.94976234436035 10.67936134338379 19.06670761108398 14.8730411529541 14.8730411529541 C 19.06670761108398 10.67936134338379 23.94976234436035 7.387014865875244 29.38654899597168 5.087454795837402 C 35.01457595825195 2.706988096237183 40.993896484375 1.500001430511475 47.15840148925781 1.500001430511475 C 53.32290649414062 1.500001430511475 59.30222702026367 2.706988096237183 64.93025207519531 5.087454795837402 C 70.36704254150391 7.387014865875244 75.25009155273438 10.67936134338379 79.44376373291016 14.8730411529541 C 83.63744354248047 19.06670761108398 86.92978668212891 23.94976234436035 89.22934722900391 29.38654899597168 C 91.60981750488281 35.01457595825195 92.81680297851562 40.993896484375 92.81680297851562 47.15840148925781 C 92.81680297851562 53.32290649414062 91.60981750488281 59.30222702026367 89.22934722900391 64.93025207519531 C 86.92978668212891 70.36704254150391 83.63744354248047 75.25009155273438 79.44376373291016 79.44376373291016 C 75.25009155273438 83.63744354248047 70.36704254150391 86.92978668212891 64.93025207519531 89.22934722900391 C 59.30222702026367 91.60981750488281 53.32290649414062 92.81680297851562 47.15840148925781 92.81680297851562 Z" stroke="none"/>
                                    <path d="M 47.15840148925781 3 C 41.19572830200195 3 35.41301727294922 4.167129516601562 29.97087097167969 6.468955993652344 C 24.712890625 8.692901611328125 19.99008941650391 11.87730407714844 15.93370056152344 15.93370056152344 C 11.87730407714844 19.99008941650391 8.692901611328125 24.712890625 6.468955993652344 29.97087097167969 C 4.167129516601562 35.41301727294922 3 41.19572830200195 3 47.15840148925781 C 3 53.12107467651367 4.167129516601562 58.90378570556641 6.468955993652344 64.34593200683594 C 8.692901611328125 69.60391235351562 11.87730407714844 74.32671356201172 15.93370056152344 78.38310241699219 C 19.99008941650391 82.43949890136719 24.712890625 85.6239013671875 29.97087097167969 87.84784698486328 C 35.41301727294922 90.14967346191406 41.19572830200195 91.31680297851562 47.15840148925781 91.31680297851562 C 53.12107467651367 91.31680297851562 58.90378570556641 90.14967346191406 64.34593200683594 87.84784698486328 C 69.60391235351562 85.6239013671875 74.32671356201172 82.43949890136719 78.38310241699219 78.38310241699219 C 82.43949890136719 74.32671356201172 85.6239013671875 69.60391235351562 87.84784698486328 64.34593200683594 C 90.14967346191406 58.90378570556641 91.31680297851562 53.12107467651367 91.31680297851562 47.15840148925781 C 91.31680297851562 41.19572830200195 90.14967346191406 35.41301727294922 87.84784698486328 29.97087097167969 C 85.6239013671875 24.712890625 82.43949890136719 19.99008941650391 78.38310241699219 15.93370056152344 C 74.32671356201172 11.87730407714844 69.60391235351562 8.692901611328125 64.34593200683594 6.468955993652344 C 58.90378570556641 4.167129516601562 53.12107467651367 3 47.15840148925781 3 M 47.15840148925781 0 C 73.20327758789062 0 94.31680297851562 21.11353302001953 94.31680297851562 47.15840148925781 C 94.31680297851562 73.20327758789062 73.20327758789062 94.31680297851562 47.15840148925781 94.31680297851562 C 21.11353302001953 94.31680297851562 0 73.20327758789062 0 47.15840148925781 C 0 21.11353302001953 21.11353302001953 0 47.15840148925781 0 Z" stroke="none" fill="#248abf"/>
                                  </g>
                                </g>
                              </g>
                            </g>
                          </g>
                        </g>
                      </g>
                    </g>
                  </g>
                </g>
              </g>
            </g>
          </g>
        </g>
      </g>
      <g id="libro-de-leyes" transform="translate(187.332 2791.866)">
        <g id="Group_1209407" data-name="Group 1209407" transform="translate(1.425 1.066)">
          <g id="Group_1209400" data-name="Group 1209400">
            <path id="Path_1078508" data-name="Path 1078508" d="M326.014,320.711v18.366H313.64V321.968Z" transform="translate(-270.166 -276.181)" fill="gray"/>
            <path id="Path_1078509" data-name="Path 1078509" d="M90.323,362.938a7.063,7.063,0,0,1,0-7.569l-20.974-3.656H43.123v13.959H79.406Z" transform="translate(-38.109 -302.775)" fill="#f6f6f6"/>
            <path id="Path_1078510" data-name="Path 1078510" d="M63.7,10.233V57.36l-46.6,1.128-2.666.077L7.855,63.878V16.751A9.262,9.262,0,0,1,17.106,7.5H60.971A2.733,2.733,0,0,1,63.7,10.233Z" transform="translate(-7.855 -7.5)" fill="gray"/>
            <path id="Path_1078511" data-name="Path 1078511" d="M17.106,7.5V58.487l-2.666.077L7.855,63.878V16.751A9.262,9.262,0,0,1,17.106,7.5Z" transform="translate(-7.855 -7.5)" fill="#595959"/>
            <path id="Path_1078512" data-name="Path 1078512" d="M60.973,357.479H17.109a9.251,9.251,0,1,1,0-18.5H60.973a2.733,2.733,0,1,1,0,5.466H17.109a3.785,3.785,0,0,0,0,7.571H60.973a2.733,2.733,0,1,1,0,5.465Z" transform="translate(-7.858 -291.85)" fill="#595959"/>
            <path id="Path_1078513" data-name="Path 1078513" d="M91.3,377.426v16.32a1.743,1.743,0,0,1-2.819,1.371l-2.176-1.707a1.747,1.747,0,0,0-2.152,0l-2.176,1.707a1.742,1.742,0,0,1-2.817-1.371v-16.32Z" transform="translate(-69.022 -324.833)" fill="#ffe07d"/>
            <path id="Path_1078514" data-name="Path 1078514" d="M79.159,377.426H91.3v6.726H79.159Z" transform="translate(-69.022 -324.833)" fill="#ffd064"/>
          </g>
          <g id="Group_1209401" data-name="Group 1209401" transform="translate(17.222 5.462)">
            <path id="Path_1078515" data-name="Path 1078515" d="M228.386,75.955h-4.509V48.173a2.255,2.255,0,0,1,4.509,0Z" transform="translate(-210.386 -45.918)" fill="#ffd064"/>
            <path id="Path_1078516" data-name="Path 1078516" d="M166.83,86.223H145.036a2.992,2.992,0,1,0,0,5.985h4.912a5.985,5.985,0,1,0,11.97,0h4.912a2.992,2.992,0,0,0,0-5.985Z" transform="translate(-140.188 -80.493)" fill="#ffe07d"/>
            <path id="Path_1078517" data-name="Path 1078517" d="M128.988,184.481a4.849,4.849,0,1,0,9.7,0Z" transform="translate(-128.988 -164.781)" fill="#ffe07d"/>
            <circle id="Ellipse_11821" data-name="Ellipse 11821" cx="2.119" cy="2.119" r="2.119" transform="translate(13.627 9.566)" fill="#ffd064"/>
            <path id="Path_1078518" data-name="Path 1078518" d="M189.443,245.892h-14.6a2.244,2.244,0,1,1,0-4.488h14.6a2.244,2.244,0,1,1,0,4.488Z" transform="translate(-166.396 -213.611)" fill="#ffe07d"/>
          </g>
          <g id="Group_1209406" data-name="Group 1209406" transform="translate(26.011 20.724)">
            <g id="Group_1209402" data-name="Group 1209402" transform="translate(0 0.001)">
              <path id="Path_1078519" data-name="Path 1078519" d="M235.359,170.374v18.165a16.265,16.265,0,0,1-2.62,8.855h0a10.063,10.063,0,0,0-1.622,5.479v.33H208.774v-1.278a4.907,4.907,0,0,0-1.437-3.469L192.19,183.312a4.7,4.7,0,0,1,6.647-6.648l4.257,4.257V161.2a4.23,4.23,0,1,1,8.461,0v-3.624a4.3,4.3,0,0,1,4.267-4.3,4.228,4.228,0,0,1,4.194,4.23v4.37a4.23,4.23,0,1,1,8.459,0v8.5a3.443,3.443,0,1,1,6.885,0Z" transform="translate(-190.812 -153.269)" fill="#ffddce"/>
            </g>
            <g id="Group_1209403" data-name="Group 1209403" transform="translate(37.662 13.661)">
              <path id="Path_1078520" data-name="Path 1078520" d="M455.717,262.776V252.8a3.442,3.442,0,0,1,4.248-3.347,3.443,3.443,0,0,0-2.636,3.347v8.368A1.612,1.612,0,0,1,455.717,262.776Z" transform="translate(-455.717 -249.353)" fill="#ffcbbe"/>
            </g>
            <g id="Group_1209404" data-name="Group 1209404" transform="translate(12.281)">
              <path id="Path_1078521" data-name="Path 1078521" d="M282.429,179.406a4.232,4.232,0,0,0-3.223,4.109v20.7h-1.034l-.98-.98V183.515a4.229,4.229,0,0,1,5.237-4.109Z" transform="translate(-277.192 -175.585)" fill="#ffcbbe"/>
              <path id="Path_1078522" data-name="Path 1078522" d="M336.7,176.158V157.495a4.23,4.23,0,0,1,5.237-4.109,4.233,4.233,0,0,0-3.223,4.109v16.649A2.014,2.014,0,0,1,336.7,176.158Z" transform="translate(-328.24 -153.264)" fill="#ffcbbe"/>
              <path id="Path_1078523" data-name="Path 1078523" d="M396.208,202.66V188.235a4.23,4.23,0,0,1,5.237-4.109,4.233,4.233,0,0,0-3.223,4.109v12.411A2.014,2.014,0,0,1,396.208,202.66Z" transform="translate(-379.287 -179.634)" fill="#ffcbbe"/>
            </g>
            <g id="Group_1209405" data-name="Group 1209405" transform="translate(0.001 22.446)">
              <path id="Path_1078524" data-name="Path 1078524" d="M214.413,335.036v3.594h-5.63v-1.278a4.9,4.9,0,0,0-1.437-3.468L192.2,318.738a4.7,4.7,0,0,1,1.365-7.6,4.7,4.7,0,0,0,.953,5.28l18.46,15.147A4.907,4.907,0,0,1,214.413,335.036Z" transform="translate(-190.822 -311.14)" fill="#ffcbbe"/>
            </g>
          </g>
        </g>
        <g id="Group_1209408" data-name="Group 1209408" transform="translate(0.359 0)">
          <path id="Path_1078525" data-name="Path 1078525" d="M223.706,108.885a3.185,3.185,0,1,0-3.185,3.185A3.188,3.188,0,0,0,223.706,108.885Zm-4.237,0a1.052,1.052,0,1,1,1.052,1.052A1.053,1.053,0,0,1,219.468,108.885Z" transform="translate(-186.488 -90.672)"/>
          <path id="Path_1078526" data-name="Path 1078526" d="M68.541,34.386a4.48,4.48,0,0,0-2.377.675v-4.67A5.293,5.293,0,0,0,58.34,25.74V3.8a3.8,3.8,0,0,0-3.8-3.8H19.765a1.066,1.066,0,0,0,0,2.133H54.541A1.668,1.668,0,0,1,56.207,3.8V22.331l-.054-.057a5.273,5.273,0,0,0-3.7-1.55h-.042a5.22,5.22,0,0,0-3.7,1.539q-.158.157-.3.326L46.8,19.015a4.058,4.058,0,0,0-1.516-7.822H37.713V8.783a3.321,3.321,0,1,0-6.641,0v2.409H23.5a4.058,4.058,0,0,0-1.516,7.822l-2.766,6.147h-.566a1.066,1.066,0,0,0-1.066,1.066,5.915,5.915,0,1,0,11.83,0,1.066,1.066,0,0,0-1.066-1.066h-.566L25.144,19.31h2.277a7.069,7.069,0,0,0,3.65,5.152v8.794H27.091a3.31,3.31,0,1,0,0,6.62h11.56v6.992l-2.436-2.436a5.77,5.77,0,0,0-9.678,2.7H11.743V2.133H15.5A1.066,1.066,0,0,0,15.5,0H10.676A10.329,10.329,0,0,0,.359,10.317V57.445A10.327,10.327,0,0,0,10.5,67.756V69.98a2.809,2.809,0,0,0,4.543,2.21l2.177-1.708a.675.675,0,0,1,.835,0l2.177,1.707a2.809,2.809,0,0,0,4.543-2.21V67.761H43.234a3.866,3.866,0,0,1,1.1,2.687v1.278a1.066,1.066,0,1,0,2.133,0V70.448a6.013,6.013,0,0,0-1.75-4.223L29.568,51.079a3.634,3.634,0,0,1,5.139-5.14L38.963,50.2a1.066,1.066,0,0,0,1.82-.754V29.72a3.164,3.164,0,1,1,6.328,0V44.684a1.066,1.066,0,0,0,2.133,0V26.1a3.292,3.292,0,0,1,.974-2.318,3.1,3.1,0,0,1,2.193-.92h.024a3.162,3.162,0,0,1,3.137,3.163V35.07a1.066,1.066,0,0,0,2.133,0V30.4s0-.007,0-.011a3.163,3.163,0,1,1,6.327,0V48.874a1.066,1.066,0,1,0,2.133,0V38.9s0,0,0-.005a2.376,2.376,0,0,1,4.752.006V57.061a15.166,15.166,0,0,1-2.449,8.274l-.022.036A11.106,11.106,0,0,0,66.675,71.4v.33a1.066,1.066,0,0,0,2.133,0V71.4a8.979,8.979,0,0,1,1.45-4.9l.022-.036a17.294,17.294,0,0,0,2.77-9.4V38.9a4.514,4.514,0,0,0-4.508-4.51ZM2.492,10.317A8.2,8.2,0,0,1,9.61,2.2V6.826a10.315,10.315,0,0,0-7.118,3.991Zm0,6.75A8.2,8.2,0,0,1,9.61,8.975v4.956a10.315,10.315,0,0,0-7.118,3.991Zm0,7.105A8.2,8.2,0,0,1,9.61,16.081V30.825a10.315,10.315,0,0,0-7.118,3.991Zm0,16.894A8.2,8.2,0,0,1,9.61,32.975v4.956a10.315,10.315,0,0,0-7.118,3.991Zm0,7.105A8.2,8.2,0,0,1,9.61,40.08v7.1a10.315,10.315,0,0,0-7.118,3.991Zm0,9.274a8.194,8.194,0,0,1,8.185-8.185H26.42a5.725,5.725,0,0,0,1.64,3.327l.005.005H10.676a4.851,4.851,0,0,0-.181,9.7v3.333a8.192,8.192,0,0,1-8-8.179Zm22.278-2.72H30.2l5.439,5.438H24.77V54.725ZM10.5,60.154a2.716,2.716,0,0,1,0-5.42ZM22.257,70.588a.659.659,0,0,1-.714-.076l-2.177-1.707a2.8,2.8,0,0,0-3.468,0l-2.177,1.707a.677.677,0,0,1-1.094-.532V54.725H22.637V69.98A.658.658,0,0,1,22.257,70.588ZM24.77,62.3h13L41.1,65.628H24.77ZM33.2,8.783a1.188,1.188,0,1,1,2.376,0v2.409H33.2ZM23.5,30.011a3.789,3.789,0,0,1-3.629-2.716h7.259a3.789,3.789,0,0,1-3.63,2.716Zm-1.944-4.849,1.944-4.32,1.944,4.32Zm7.923-6.918a1.066,1.066,0,0,0-1.066-1.066H23.5a1.926,1.926,0,0,1,0-3.852H45.289a1.926,1.926,0,1,1,0,3.852H40.377a1.066,1.066,0,0,0-1.066,1.066,4.918,4.918,0,1,1-9.837,0ZM33.2,25.193a6.99,6.99,0,0,0,2.376,0v8.063H33.2V25.193Zm-6.113,12.55a1.179,1.179,0,0,1-1.179-1.177,1.179,1.179,0,0,1,1.179-1.177h11.56v2.354ZM40.2,25.975a5.268,5.268,0,0,0-1.551,3.745v3.536h-.938V24.462a7.069,7.069,0,0,0,3.65-5.152H43.64l-2.731,6.072A5.329,5.329,0,0,0,40.2,25.975Zm3.746-1.553c-.091,0-.182,0-.273.007l1.614-3.587L47.207,25.1c-.025.131-.046.263-.061.4a5.266,5.266,0,0,0-3.2-1.077Z" transform="translate(-0.359 0)"/>
          <path id="Path_1078527" data-name="Path 1078527" d="M389.774,269.17a1.066,1.066,0,0,0-1.066,1.066v5.481a1.066,1.066,0,0,0,2.133,0v-5.481A1.066,1.066,0,0,0,389.774,269.17Z" transform="translate(-333.495 -230.901)"/>
        </g>
      </g>
    </g>
  </g>
</svg>
