<svg xmlns="http://www.w3.org/2000/svg" xmlns:xlink="http://www.w3.org/1999/xlink" width="108" height="108" viewBox="0 0 108 108">
  <defs>
    <filter id="Path_978624" x="0" y="0" width="108" height="108" filterUnits="userSpaceOnUse">
      <feOffset dy="3" input="SourceAlpha"/>
      <feGaussianBlur stdDeviation="3" result="blur"/>
      <feFlood flood-opacity="0.161"/>
      <feComposite operator="in" in2="blur"/>
      <feComposite in="SourceGraphic"/>
    </filter>
    <filter id="Path_1076716" x="0" y="0" width="108" height="108" filterUnits="userSpaceOnUse">
      <feOffset dy="3" input="SourceAlpha"/>
      <feGaussianBlur stdDeviation="3" result="blur-2"/>
      <feFlood flood-opacity="0.161"/>
      <feComposite operator="in" in2="blur-2"/>
      <feComposite in="SourceGraphic"/>
    </filter>
  </defs>
  <g id="Group_1220620" data-name="Group 1220620" transform="translate(-160 -2932.115)">
    <g id="Group_1220488" data-name="Group 1220488" transform="translate(-456 1563.115)">
      <g id="Group_1216084" data-name="Group 1216084" transform="translate(625 1375)">
        <g id="Group_1208503" data-name="Group 1208503" transform="translate(0)">
          <g id="Group_1200660" data-name="Group 1200660">
            <g id="Group_1181203" data-name="Group 1181203">
              <g id="Group_1172348" data-name="Group 1172348">
                <g id="Group_1171897" data-name="Group 1171897">
                  <g id="Group_1171052" data-name="Group 1171052">
                    <g id="Group_1164581" data-name="Group 1164581">
                      <g id="Group_1144123" data-name="Group 1144123">
                        <g transform="matrix(1, 0, 0, 1, -9, -6)" filter="url(#Path_978624)">
                          <g id="Path_978624-2" data-name="Path 978624" transform="translate(9 6)" fill="#cfd7c8">
                            <path d="M 45 88.5 C 39.12687683105469 88.5 33.43022537231445 87.35007476806641 28.06830024719238 85.08217620849609 C 22.88852500915527 82.89131164550781 18.23629951477051 79.75458526611328 14.2408504486084 75.75914764404297 C 10.24541282653809 71.76370239257812 7.108687400817871 67.11147308349609 4.917825222015381 61.93170166015625 C 2.649924993515015 56.56977462768555 1.5 50.87312316894531 1.5 45 C 1.5 39.12687683105469 2.649924993515015 33.43022537231445 4.917825222015381 28.06830024719238 C 7.108687400817871 22.88852500915527 10.24541282653809 18.23629951477051 14.2408504486084 14.2408504486084 C 18.23629951477051 10.24541282653809 22.88852500915527 7.108687400817871 28.06830024719238 4.917825222015381 C 33.43022537231445 2.649924993515015 39.12687683105469 1.5 45 1.5 C 50.87312316894531 1.5 56.56977462768555 2.649924993515015 61.93170166015625 4.917825222015381 C 67.11147308349609 7.108687400817871 71.76370239257812 10.24541282653809 75.75914764404297 14.2408504486084 C 79.75458526611328 18.23629951477051 82.89131164550781 22.88852500915527 85.08217620849609 28.06830024719238 C 87.35007476806641 33.43022537231445 88.5 39.12687683105469 88.5 45 C 88.5 50.87312316894531 87.35007476806641 56.56977462768555 85.08217620849609 61.93170166015625 C 82.89131164550781 67.11147308349609 79.75458526611328 71.76370239257812 75.75914764404297 75.75914764404297 C 71.76370239257812 79.75458526611328 67.11147308349609 82.89131164550781 61.93170166015625 85.08217620849609 C 56.56977462768555 87.35007476806641 50.87312316894531 88.5 45 88.5 Z" stroke="none"/>
                            <path d="M 45 3 C 39.32871246337891 3 33.82865524291992 4.110054016113281 28.65262985229492 6.299339294433594 C 23.65165710449219 8.414573669433594 19.15968322753906 11.44334411621094 15.301513671875 15.301513671875 C 11.44334411621094 19.15968322753906 8.414573669433594 23.65165710449219 6.299339294433594 28.65262985229492 C 4.110054016113281 33.82865524291992 3 39.32871246337891 3 45 C 3 50.67128753662109 4.110054016113281 56.17134475708008 6.299339294433594 61.34737396240234 C 8.414573669433594 66.34834289550781 11.44334411621094 70.84031677246094 15.301513671875 74.698486328125 C 19.15968322753906 78.55665588378906 23.65165710449219 81.58542633056641 28.65262985229492 83.70066070556641 C 33.82865524291992 85.88994598388672 39.32871246337891 87 45 87 C 50.67128753662109 87 56.17134475708008 85.88994598388672 61.34737396240234 83.70066070556641 C 66.34834289550781 81.58542633056641 70.84031677246094 78.55665588378906 74.698486328125 74.698486328125 C 78.55665588378906 70.84031677246094 81.58542633056641 66.34834289550781 83.70066070556641 61.34737396240234 C 85.88994598388672 56.17134475708008 87 50.67128753662109 87 45 C 87 39.32871246337891 85.88994598388672 33.82865524291992 83.70066070556641 28.65262985229492 C 81.58542633056641 23.65165710449219 78.55665588378906 19.15968322753906 74.698486328125 15.301513671875 C 70.84031677246094 11.44334411621094 66.34834289550781 8.414573669433594 61.34737396240234 6.299339294433594 C 56.17134475708008 4.110054016113281 50.67128753662109 3 45 3 M 45 0 C 69.85281372070312 0 90 20.14718627929688 90 45 C 90 69.85281372070312 69.85281372070312 90 45 90 C 20.14718627929688 90 0 69.85281372070312 0 45 C 0 20.14718627929688 20.14718627929688 0 45 0 Z" stroke="none" fill="#899e78"/>
                          </g>
                        </g>
                        <g transform="matrix(1, 0, 0, 1, -9, -6)" filter="url(#Path_1076716)">
                          <g id="Path_1076716-2" data-name="Path 1076716" transform="translate(9 6)" fill="#cfd7c8">
                            <path d="M 45 88.5 C 39.12687683105469 88.5 33.43022537231445 87.35007476806641 28.06830024719238 85.08217620849609 C 22.88852500915527 82.89131164550781 18.23629951477051 79.75458526611328 14.2408504486084 75.75914764404297 C 10.24541282653809 71.76370239257812 7.108687400817871 67.11147308349609 4.917825222015381 61.93170166015625 C 2.649924993515015 56.56977462768555 1.5 50.87312316894531 1.5 45 C 1.5 39.12687683105469 2.649924993515015 33.43022537231445 4.917825222015381 28.06830024719238 C 7.108687400817871 22.88852500915527 10.24541282653809 18.23629951477051 14.2408504486084 14.2408504486084 C 18.23629951477051 10.24541282653809 22.88852500915527 7.108687400817871 28.06830024719238 4.917825222015381 C 33.43022537231445 2.649924993515015 39.12687683105469 1.5 45 1.5 C 50.87312316894531 1.5 56.56977462768555 2.649924993515015 61.93170166015625 4.917825222015381 C 67.11147308349609 7.108687400817871 71.76370239257812 10.24541282653809 75.75914764404297 14.2408504486084 C 79.75458526611328 18.23629951477051 82.89131164550781 22.88852500915527 85.08217620849609 28.06830024719238 C 87.35007476806641 33.43022537231445 88.5 39.12687683105469 88.5 45 C 88.5 50.87312316894531 87.35007476806641 56.56977462768555 85.08217620849609 61.93170166015625 C 82.89131164550781 67.11147308349609 79.75458526611328 71.76370239257812 75.75914764404297 75.75914764404297 C 71.76370239257812 79.75458526611328 67.11147308349609 82.89131164550781 61.93170166015625 85.08217620849609 C 56.56977462768555 87.35007476806641 50.87312316894531 88.5 45 88.5 Z" stroke="none"/>
                            <path d="M 45 3 C 39.32871246337891 3 33.82865524291992 4.110054016113281 28.65262985229492 6.299339294433594 C 23.65165710449219 8.414573669433594 19.15968322753906 11.44334411621094 15.301513671875 15.301513671875 C 11.44334411621094 19.15968322753906 8.414573669433594 23.65165710449219 6.299339294433594 28.65262985229492 C 4.110054016113281 33.82865524291992 3 39.32871246337891 3 45 C 3 50.67128753662109 4.110054016113281 56.17134475708008 6.299339294433594 61.34737396240234 C 8.414573669433594 66.34834289550781 11.44334411621094 70.84031677246094 15.301513671875 74.698486328125 C 19.15968322753906 78.55665588378906 23.65165710449219 81.58542633056641 28.65262985229492 83.70066070556641 C 33.82865524291992 85.88994598388672 39.32871246337891 87 45 87 C 50.67128753662109 87 56.17134475708008 85.88994598388672 61.34737396240234 83.70066070556641 C 66.34834289550781 81.58542633056641 70.84031677246094 78.55665588378906 74.698486328125 74.698486328125 C 78.55665588378906 70.84031677246094 81.58542633056641 66.34834289550781 83.70066070556641 61.34737396240234 C 85.88994598388672 56.17134475708008 87 50.67128753662109 87 45 C 87 39.32871246337891 85.88994598388672 33.82865524291992 83.70066070556641 28.65262985229492 C 81.58542633056641 23.65165710449219 78.55665588378906 19.15968322753906 74.698486328125 15.301513671875 C 70.84031677246094 11.44334411621094 66.34834289550781 8.414573669433594 61.34737396240234 6.299339294433594 C 56.17134475708008 4.110054016113281 50.67128753662109 3 45 3 M 45 0 C 69.85281372070312 0 90 20.14718627929688 90 45 C 90 69.85281372070312 69.85281372070312 90 45 90 C 20.14718627929688 90 0 69.85281372070312 0 45 C 0 20.14718627929688 20.14718627929688 0 45 0 Z" stroke="none" fill="#899e78"/>
                          </g>
                        </g>
                      </g>
                    </g>
                  </g>
                </g>
              </g>
            </g>
          </g>
        </g>
      </g>
      <g id="leyes" transform="translate(633.5 1391.92)">
        <path id="Path_1163664" data-name="Path 1163664" d="M70.682,61.041A5.594,5.594,0,0,1,66.718,59.4l-.194-.194,1.72-1.72.194.194a3.162,3.162,0,0,0,3.665.594A19.215,19.215,0,0,1,87.207,57.4a16.741,16.741,0,0,0,11.425,0,19.229,19.229,0,0,1,15.109.868,3.162,3.162,0,0,0,3.665-.594l.195-.194,1.719,1.72-.194.194a5.6,5.6,0,0,1-6.472,1.05,16.79,16.79,0,0,0-13.189-.759,19.183,19.183,0,0,1-13.089,0,16.788,16.788,0,0,0-13.189.759,5.606,5.606,0,0,1-2.5.593Zm0,0" transform="translate(-56.411 -47.629)" fill="#ffa912"/>
        <path id="Path_1163665" data-name="Path 1163665" d="M151.477,296.215h14.594a7.3,7.3,0,0,1,7.3,7.3H144.18A7.3,7.3,0,0,1,151.477,296.215Zm0,0" transform="translate(-122.261 -251.108)" fill="#ffb531"/>
        <path id="Path_1163666" data-name="Path 1163666" d="M261.045,296.215H256.18a7.3,7.3,0,0,1,7.3,7.3h4.865A7.3,7.3,0,0,0,261.045,296.215Zm0,0" transform="translate(-217.234 -251.108)" fill="#ffa912"/>
        <g id="Group_1217192" data-name="Group 1217192" transform="translate(1.243 1.305)">
          <path id="Path_1163667" data-name="Path 1163667" d="M223.475,11.759a3.649,3.649,0,1,0-6.081,2.7V51.894h4.865V14.461a3.622,3.622,0,0,0,1.216-2.7Zm0,0" transform="translate(-184.556 -8.092)" fill="#ffb531"/>
          <path id="Path_1163668" data-name="Path 1163668" d="M8.18,192.215H32.5a7.3,7.3,0,0,1-7.3,7.3h-9.73A7.3,7.3,0,0,1,8.18,192.215Zm0,0" transform="translate(-8.18 -164.223)" fill="#ffb531"/>
          <path id="Path_1163669" data-name="Path 1163669" d="M312.18,192.215H336.5a7.3,7.3,0,0,1-7.3,7.3h-9.73A7.3,7.3,0,0,1,312.18,192.215Zm0,0" transform="translate(-265.964 -164.224)" fill="#ffb531"/>
        </g>
        <path id="Path_1163670" data-name="Path 1163670" d="M399.477,192.215a7.3,7.3,0,0,1-7.3,7.3h4.865a7.3,7.3,0,0,0,7.3-7.3Zm0,0" transform="translate(-332.559 -162.918)" fill="#ffa912"/>
        <path id="Path_1163671" data-name="Path 1163671" d="M14.394,72.9a1.261,1.261,0,0,0-1.978,0L.254,89.924a1.216,1.216,0,1,0,1.978,1.413L13.405,75.7l11.173,15.64a1.216,1.216,0,1,0,1.978-1.413Zm0,0" transform="translate(0 -61.333)" fill="#d6d6d4"/>
        <path id="Path_1163672" data-name="Path 1163672" d="M330.556,89.923,318.394,72.9a1.261,1.261,0,0,0-1.978,0L304.255,89.923a1.216,1.216,0,1,0,1.978,1.413L317.406,75.7l11.173,15.64a1.216,1.216,0,0,0,1.978-1.413Zm0,0" transform="translate(-257.784 -61.333)" fill="#d6d6d4"/>
        <path id="Path_1163673" data-name="Path 1163673" d="M95.477,192.215a7.3,7.3,0,0,1-7.3,7.3h4.865a7.3,7.3,0,0,0,7.3-7.3Zm0,0" transform="translate(-74.775 -162.918)" fill="#ffa912"/>
        <path id="Path_1163674" data-name="Path 1163674" d="M83.377,353.945H49.323a10.876,10.876,0,0,1,0-9.73H83.377A10.876,10.876,0,0,0,83.377,353.945Zm0,0" transform="translate(-40.851 -291.81)" fill="#803f37"/>
        <path id="Path_1163675" data-name="Path 1163675" d="M75.766,344.783l.3-.568h-2.7a12.141,12.141,0,0,0,0,9.73h2.694l-.287-.543a9.7,9.7,0,0,1-.01-8.618Zm0,0" transform="translate(-61.353 -291.81)" fill="#ffb531"/>
        <path id="Path_1163676" data-name="Path 1163676" d="M235.293,344.8l.327-.59h-2.714a12.146,12.146,0,0,0,0,9.73h2.707l-.3-.543A9.694,9.694,0,0,1,235.293,344.8Zm0,0" transform="translate(-196.637 -291.81)" fill="#ffb531"/>
        <path id="Path_1163677" data-name="Path 1163677" d="M273.323,344.215a10.876,10.876,0,0,0,0,9.73h23.108a10.876,10.876,0,0,1,0-9.73Zm0,0" transform="translate(-230.797 -291.81)" fill="#e0e0de"/>
        <path id="Path_1163678" data-name="Path 1163678" d="M111.73,368.215h14.595v2.432H111.73Zm0,0" transform="translate(-94.744 -312.162)" fill="#f98500"/>
        <path id="Path_1163679" data-name="Path 1163679" d="M295.366,368.215H272.258a11.028,11.028,0,0,0,0,2.432h23.108A11.032,11.032,0,0,1,295.366,368.215Zm0,0" transform="translate(-230.811 -312.162)" fill="#d6d6d4"/>
        <path id="Path_1163680" data-name="Path 1163680" d="M83.377,417.945H49.323a10.876,10.876,0,0,1,0-9.73H83.377A10.876,10.876,0,0,0,83.377,417.945Zm0,0" transform="translate(-40.851 -346.081)" fill="#773730"/>
        <path id="Path_1163681" data-name="Path 1163681" d="M75.766,408.783l.3-.568h-2.7a12.141,12.141,0,0,0,0,9.73h2.694l-.287-.543a9.7,9.7,0,0,1-.01-8.618Zm0,0" transform="translate(-61.353 -346.08)" fill="#ffb531"/>
        <path id="Path_1163682" data-name="Path 1163682" d="M235.293,408.8l.327-.59h-2.714a12.146,12.146,0,0,0,0,9.73h2.707l-.3-.543A9.694,9.694,0,0,1,235.293,408.8Zm0,0" transform="translate(-196.637 -346.081)" fill="#ffb531"/>
        <path id="Path_1163683" data-name="Path 1163683" d="M273.323,408.215a10.876,10.876,0,0,0,0,9.73h23.108a10.876,10.876,0,0,1,0-9.73Zm0,0" transform="translate(-230.797 -346.081)" fill="#d6d6d4"/>
        <path id="Path_1163684" data-name="Path 1163684" d="M111.73,432.215h14.595v2.432H111.73Zm0,0" transform="translate(-94.744 -366.432)" fill="#f98500"/>
        <path id="Path_1163685" data-name="Path 1163685" d="M295.366,432.215H272.258a11.028,11.028,0,0,0,0,2.432h23.108A11.032,11.032,0,0,1,295.366,432.215Zm0,0" transform="translate(-230.811 -366.432)" fill="#c7c7c5"/>
        <path id="Path_1163686" data-name="Path 1163686" d="M111.73,432.215h14.595v2.432H111.73Zm0,0" transform="translate(-94.744 -366.432)"/>
        <path id="Path_1163687" data-name="Path 1163687" d="M111.73,368.215h14.595v2.432H111.73Zm0,0" transform="translate(-94.744 -312.162)"/>
        <path id="Path_1163688" data-name="Path 1163688" d="M72.925,28.59,61.578,12.7a5.566,5.566,0,0,0,1.294-.937l.195-.194-1.72-1.72-.195.194a3.18,3.18,0,0,1-3.671.6,19.357,19.357,0,0,0-15.1-.868,16.4,16.4,0,0,1-2.067.586V8.171a4.865,4.865,0,1,0-7.3,0v2.19a16.322,16.322,0,0,1-2.061-.585,19.344,19.344,0,0,0-15.1.865,3.242,3.242,0,0,1-3.677-.6l-.194-.194-1.72,1.719.193.195a5.573,5.573,0,0,0,1.3.934L.408,28.59l.017.012A1.19,1.19,0,0,0,.18,29.3,8.524,8.524,0,0,0,8.694,37.81h9.73A8.525,8.525,0,0,0,26.937,29.3a1.189,1.189,0,0,0-.243-.694l.017-.012L15.747,13.25a5.885,5.885,0,0,0,1.181-.427,16.884,16.884,0,0,1,13.187-.761,18.992,18.992,0,0,0,2.9.774V43.891H29.369a8.522,8.522,0,0,0-8.417,7.3H8.625a1.217,1.217,0,0,0-1.087.673A12.141,12.141,0,0,0,7.3,62.134a12.142,12.142,0,0,0,.233,10.274,1.216,1.216,0,0,0,1.087.672H65.787a1.216,1.216,0,0,0,1.089-1.76,9.709,9.709,0,0,1,0-8.642,21.28,21.28,0,0,1,.084-.241,1.1,1.1,0,0,0,.027-.152.918.918,0,0,0,0-.3,1.1,1.1,0,0,0-.027-.152.98.98,0,0,0-.05-.142.918.918,0,0,0-.034-.1,9.709,9.709,0,0,1,0-8.642,1.216,1.216,0,0,0-1.089-1.76H52.38a8.521,8.521,0,0,0-8.416-7.3H40.315V12.836a19.215,19.215,0,0,0,2.9-.776,16.886,16.886,0,0,1,13.182.763,5.677,5.677,0,0,0,1.18.428L46.624,28.59l.017.012a1.19,1.19,0,0,0-.244.694A8.524,8.524,0,0,0,54.91,37.81h9.73A8.525,8.525,0,0,0,73.153,29.3a1.189,1.189,0,0,0-.243-.694ZM13.558,14.363l9.8,13.717H3.759Zm4.865,21.015H8.694a6.091,6.091,0,0,1-5.96-4.865H24.383a6.091,6.091,0,0,1-5.959,4.865ZM63.5,58.486a12.086,12.086,0,0,0,.486,2.432H43.477c-.028-.071-.063-.14-.09-.21-.046-.122-.088-.243-.129-.365-.072-.211-.134-.426-.19-.642-.031-.122-.064-.243-.091-.365-.05-.234-.089-.47-.122-.705-.006-.045-.014-.089-.02-.134Zm0,7.3H42.838a1.036,1.036,0,0,1,.02-.134c.033-.236.072-.472.122-.705.027-.122.059-.243.091-.365.056-.216.122-.431.19-.643.042-.122.083-.243.129-.365.027-.071.062-.14.09-.21H63.988a12.059,12.059,0,0,0-.49,2.421ZM40.647,54.472l-.009.031a12.22,12.22,0,0,0-.211,1.216c-.013.1-.024.207-.035.311-.04.405-.068.81-.069,1.216v.031c0,.407.029.811.069,1.216.011.105.022.207.035.311a12.22,12.22,0,0,0,.211,1.216l.009.031q.1.432.233.852H38.548a9.7,9.7,0,0,1,0-7.3H40.88q-.133.437-.233.871ZM14.288,63.35H35.967a12.16,12.16,0,0,0,0,7.3H14.288A9.7,9.7,0,0,1,14.288,63.35Zm21.677-2.432H14.288a9.7,9.7,0,0,1,0-7.3H35.967a12.16,12.16,0,0,0,0,7.3ZM9.41,53.621h2.3a12.16,12.16,0,0,0,0,7.3H9.41A9.719,9.719,0,0,1,9.41,53.621Zm0,9.73h2.3a12.16,12.16,0,0,0,0,7.3H9.41A9.719,9.719,0,0,1,9.41,63.35Zm29.138,7.3a9.7,9.7,0,0,1,0-7.3H40.88q-.133.425-.233.852l-.009.031a12.222,12.222,0,0,0-.211,1.216c-.013.1-.024.207-.035.311-.04.405-.068.81-.069,1.216v.031c0,.407.029.811.069,1.216.011.105.022.207.035.311a12.221,12.221,0,0,0,.211,1.216l.009.031q.1.432.233.852Zm4.929,0c-.028-.071-.063-.14-.09-.21-.046-.122-.088-.243-.129-.365-.072-.211-.134-.426-.19-.642-.031-.122-.064-.243-.091-.365-.05-.234-.089-.47-.122-.705-.006-.045-.014-.089-.02-.134H63.5a12.1,12.1,0,0,0,.486,2.432ZM63.5,56.053H42.838a1.036,1.036,0,0,1,.02-.134c.033-.236.072-.472.122-.705.027-.122.059-.243.091-.365.056-.216.122-.431.19-.643.042-.122.083-.243.129-.365.027-.071.062-.14.09-.21H63.988a12.06,12.06,0,0,0-.49,2.421ZM49.923,51.188H23.409a6.091,6.091,0,0,1,5.96-4.865H43.964a6.091,6.091,0,0,1,5.959,4.865Zm-14.473-7.3V7.675a1.219,1.219,0,0,0-.4-.9,2.4,2.4,0,0,1-.815-1.8,2.432,2.432,0,1,1,4.865,0,2.4,2.4,0,0,1-.815,1.8,1.216,1.216,0,0,0-.4.9V43.891ZM69.573,28.08h-19.6l9.8-13.717Zm-4.934,7.3h-9.73a6.091,6.091,0,0,1-5.96-4.865H70.6a6.091,6.091,0,0,1-5.959,4.865Zm0,0" transform="translate(-0.153 0)"/>
      </g>
    </g>
  </g>
</svg>
