<svg xmlns="http://www.w3.org/2000/svg" xmlns:xlink="http://www.w3.org/1999/xlink" width="93.934" height="93.934" viewBox="0 0 93.934 93.934">
  <defs>
    <filter id="Path_978624" x="0" y="0" width="93.934" height="93.934" filterUnits="userSpaceOnUse">
      <feOffset dy="3" input="SourceAlpha"/>
      <feGaussianBlur stdDeviation="3" result="blur"/>
      <feFlood flood-opacity="0.161"/>
      <feComposite operator="in" in2="blur"/>
      <feComposite in="SourceGraphic"/>
    </filter>
  </defs>
  <g id="Group_1220609" data-name="Group 1220609" transform="translate(-609 -5808.533)">
    <g id="Group_1220522" data-name="Group 1220522" transform="translate(2.459 11)">
      <g id="Group_1219948" data-name="Group 1219948" transform="translate(615.541 5803.533)">
        <g id="Group_1208655" data-name="Group 1208655">
          <g id="Group_1208068" data-name="Group 1208068">
            <g id="Group_1144123" data-name="Group 1144123">
              <g transform="matrix(1, 0, 0, 1, -9, -6)" filter="url(#Path_978624)">
                <g id="Path_978624-2" data-name="Path 978624" transform="translate(9 6)" fill="#f1ede8">
                  <path d="M 37.966796875 74.43359375 C 33.04315185546875 74.43359375 28.26757431030273 73.46962738037109 23.77274131774902 71.56847381591797 C 19.43047523498535 69.73184967041016 15.53040790557861 67.10224914550781 12.18087482452393 63.75271987915039 C 8.831341743469238 60.4031867980957 6.201741218566895 56.50312042236328 4.365118980407715 52.16086196899414 C 2.463963508605957 47.66601943969727 1.499996900558472 42.89044189453125 1.499996900558472 37.966796875 C 1.499996900558472 33.04315185546875 2.463963508605957 28.26757431030273 4.365118980407715 23.77274131774902 C 6.201741218566895 19.43047523498535 8.831341743469238 15.53040790557861 12.18087482452393 12.18087482452393 C 15.53040790557861 8.831341743469238 19.43047523498535 6.201741218566895 23.77274131774902 4.365118980407715 C 28.26757431030273 2.463963508605957 33.04315185546875 1.499996900558472 37.966796875 1.499996900558472 C 42.89044189453125 1.499996900558472 47.66601943969727 2.463963508605957 52.16086196899414 4.365118980407715 C 56.50312042236328 6.201741218566895 60.4031867980957 8.831341743469238 63.75271987915039 12.18087482452393 C 67.10224914550781 15.53040790557861 69.73184967041016 19.43047523498535 71.56847381591797 23.77274131774902 C 73.46962738037109 28.26757431030273 74.43359375 33.04315185546875 74.43359375 37.966796875 C 74.43359375 42.89044189453125 73.46962738037109 47.66601943969727 71.56847381591797 52.16086196899414 C 69.73184967041016 56.50313186645508 67.10224914550781 60.4031867980957 63.75271987915039 63.75271987915039 C 60.4031867980957 67.10224914550781 56.50313186645508 69.73184967041016 52.16086196899414 71.56847381591797 C 47.66601943969727 73.46962738037109 42.89044189453125 74.43359375 37.966796875 74.43359375 Z" stroke="none"/>
                  <path d="M 37.966796875 3 C 33.2449836730957 3 28.66600799560547 3.924095153808594 24.35705947875977 5.746635437011719 C 20.19359588623047 7.507621765136719 16.45379638671875 10.02927398681641 13.24153518676758 13.24153518676758 C 10.02927398681641 16.45379638671875 7.507621765136719 20.19359588623047 5.746635437011719 24.35705947875977 C 3.924095153808594 28.66600799560547 3 33.2449836730957 3 37.966796875 C 3 42.6886100769043 3.924095153808594 47.26758575439453 5.746635437011719 51.57653427124023 C 7.507621765136719 55.73999786376953 10.02927398681641 59.47979736328125 13.24153518676758 62.69205856323242 C 16.45379638671875 65.90431976318359 20.19359588623047 68.42597198486328 24.35705947875977 70.18695831298828 C 28.66600799560547 72.00949859619141 33.2449836730957 72.93359375 37.966796875 72.93359375 C 42.6886100769043 72.93359375 47.26758575439453 72.00949859619141 51.57653427124023 70.18695831298828 C 55.73999786376953 68.42597198486328 59.47979736328125 65.90431976318359 62.69205856323242 62.69205856323242 C 65.90431976318359 59.47979736328125 68.42597198486328 55.73999786376953 70.18695831298828 51.57653427124023 C 72.00949859619141 47.26758575439453 72.93359375 42.6886100769043 72.93359375 37.966796875 C 72.93359375 33.2449836730957 72.00949859619141 28.66600799560547 70.18695831298828 24.35705947875977 C 68.42597198486328 20.19359588623047 65.90431976318359 16.45379638671875 62.69205856323242 13.24153518676758 C 59.47979736328125 10.02927398681641 55.73999786376953 7.507621765136719 51.57653427124023 5.746635437011719 C 47.26758575439453 3.924095153808594 42.6886100769043 3 37.966796875 3 M 37.966796875 0 C 58.93528366088867 0 75.93359375 16.99831008911133 75.93359375 37.966796875 C 75.93359375 58.93528366088867 58.93528366088867 75.93359375 37.966796875 75.93359375 C 16.99831008911133 75.93359375 0 58.93528366088867 0 37.966796875 C 0 16.99831008911133 16.99831008911133 0 37.966796875 0 Z" stroke="none" fill="#665b4e"/>
                </g>
              </g>
            </g>
          </g>
        </g>
      </g>
      <g id="obediente_1_" data-name="obediente (1)" transform="translate(616.424 5816.346)">
        <g id="Group_1210977" data-name="Group 1210977" transform="translate(24.325 0.685)">
          <path id="Path_1082793" data-name="Path 1082793" d="M145.858,7.5H116.772a.457.457,0,0,0-.457.457V20.618h3a2.238,2.238,0,0,1,.156,4.471v2.777h0a.913.913,0,0,1,.774.9v5.67a.913.913,0,0,1-.774.9h0v2.777a2.238,2.238,0,0,1-.156,4.471h-3v3.748h6.3a.913.913,0,0,1,.913.913v1.82h.7a.913.913,0,0,1,.913.913v2.913h21.174V7.957A.457.457,0,0,0,145.858,7.5Z" transform="translate(-116.315 -7.5)" fill="#fff3de"/>
        </g>
        <g id="Group_1210978" data-name="Group 1210978" transform="translate(24.325 0.685)">
          <path id="Path_1082794" data-name="Path 1082794" d="M119.31,20.618l.081,0V7.957a.457.457,0,0,1,.457-.457h-3.077a.457.457,0,0,0-.457.457V20.618Z" transform="translate(-116.315 -7.5)" fill="#ffe5c2"/>
          <path id="Path_1082795" data-name="Path 1082795" d="M119.31,391.629h-3v3.748h3.077v-3.75Z" transform="translate(-116.315 -356.542)" fill="#ffe5c2"/>
        </g>
        <g id="Group_1210996" data-name="Group 1210996" transform="translate(15.763 13.803)">
          <g id="Group_1210979" data-name="Group 1210979" transform="translate(12.487 9.422)">
            <path id="Path_1082796" data-name="Path 1082796" d="M159.3,254.29h4.228v3.123H159.3Z" transform="translate(-159.296 -254.29)" fill="#883f2e"/>
            <path id="Path_1082797" data-name="Path 1082797" d="M237.5,254.29h6.039v3.123H237.5Z" transform="translate(-230.359 -254.29)" fill="#883f2e"/>
          </g>
          <g id="Group_1210980" data-name="Group 1210980" transform="translate(12.487 11.04)">
            <path id="Path_1082798" data-name="Path 1082798" d="M159.3,272h4.228v1.506H159.3Z" transform="translate(-159.296 -272)" fill="#6d3326"/>
            <path id="Path_1082799" data-name="Path 1082799" d="M237.5,272h6.039v1.506H237.5Z" transform="translate(-230.359 -272)" fill="#6d3326"/>
          </g>
          <g id="Group_1210981" data-name="Group 1210981" transform="translate(25.669 8.694)">
            <path id="Path_1082800" data-name="Path 1082800" d="M320.587,248.6a2.291,2.291,0,0,1-2.291,2.29h-14.16a.521.521,0,0,1-.521-.521v-3.54a.521.521,0,0,1,.521-.521H318.3A2.291,2.291,0,0,1,320.587,248.6Z" transform="translate(-303.616 -246.31)" fill="#ca6e59"/>
          </g>
          <g id="Group_1210982" data-name="Group 1210982" transform="translate(25.669 8.694)">
            <path id="Path_1082801" data-name="Path 1082801" d="M306.729,248.93a.521.521,0,0,1-.521-.521v-2.1h-2.072a.521.521,0,0,0-.521.521v3.54a.521.521,0,0,0,.521.521H318.3a2.291,2.291,0,0,0,2.266-1.961Z" transform="translate(-303.616 -246.31)" fill="#bb5d4c"/>
          </g>
          <g id="Group_1210983" data-name="Group 1210983" transform="translate(16.715 8.694)">
            <path id="Path_1082802" data-name="Path 1082802" d="M208.5,246.768v3.668a.457.457,0,0,1-.457.457h-2a.457.457,0,0,1-.457-.457v-3.668a.457.457,0,0,1,.457-.457h2A.457.457,0,0,1,208.5,246.768Z" transform="translate(-205.585 -246.311)" fill="#ca6e59"/>
          </g>
          <g id="Group_1210984" data-name="Group 1210984" transform="translate(16.715 8.694)">
            <path id="Path_1082803" data-name="Path 1082803" d="M206.909,250.435v-3.668a.457.457,0,0,1,.457-.457h-1.324a.457.457,0,0,0-.457.457v3.668a.457.457,0,0,0,.457.457h1.324A.457.457,0,0,1,206.909,250.435Z" transform="translate(-205.585 -246.311)" fill="#bb5d4c"/>
          </g>
          <g id="Group_1210985" data-name="Group 1210985" transform="translate(5.674 4.471)">
            <path id="Path_1082804" data-name="Path 1082804" d="M90.6,312.309H84.842a.924.924,0,0,1-.139-.012v2.777c.052,0,.1-.006.156-.006h5.726c.053,0,.1,0,.156.006V312.3A.908.908,0,0,1,90.6,312.309Z" transform="translate(-84.703 -302.047)" fill="#883f2e"/>
            <path id="Path_1082805" data-name="Path 1082805" d="M84.842,312.309a.924.924,0,0,1-.139-.012v2.777c.052,0,.1-.006.156-.006H87v-2.759H84.842Z" transform="translate(-84.703 -302.047)" fill="#6d3326"/>
            <path id="Path_1082806" data-name="Path 1082806" d="M84.842,202.844H90.6a.916.916,0,0,1,.139.012v-2.777c-.052,0-.1.006-.156.006H84.859c-.053,0-.1,0-.156-.006v2.777A.916.916,0,0,1,84.842,202.844Z" transform="translate(-84.703 -200.079)" fill="#883f2e"/>
            <path id="Path_1082807" data-name="Path 1082807" d="M84.842,202.843H87v-2.759H84.859c-.053,0-.1,0-.156-.006v2.777A.932.932,0,0,1,84.842,202.843Z" transform="translate(-84.703 -200.078)" fill="#6d3326"/>
          </g>
          <g id="Group_1210986" data-name="Group 1210986" transform="translate(4.9 7.236)">
            <path id="Path_1082808" data-name="Path 1082808" d="M83.812,231.265v5.669a.913.913,0,0,1-.913.913H77.138a.913.913,0,0,1-.913-.913v-5.669a.913.913,0,0,1,.913-.913H82.9A.913.913,0,0,1,83.812,231.265Z" transform="translate(-76.225 -230.352)" fill="#ca6e59"/>
          </g>
          <g id="Group_1210987" data-name="Group 1210987" transform="translate(4.9 7.236)">
            <path id="Path_1082809" data-name="Path 1082809" d="M79.31,236.935v-5.669a.913.913,0,0,1,.913-.913H77.138a.913.913,0,0,0-.913.913v5.669a.913.913,0,0,0,.913.913h3.085A.913.913,0,0,1,79.31,236.935Z" transform="translate(-76.225 -230.352)" fill="#bb5d4c"/>
          </g>
          <g id="Group_1210990" data-name="Group 1210990" transform="translate(0 25.716)">
            <path id="Path_1082810" data-name="Path 1082810" d="M54.359,435.509a.936.936,0,0,0,0-.094V433.6a.913.913,0,0,0-.913-.913H41.108a.913.913,0,0,0-.913.913v1.817a.932.932,0,0,0,0,.094Z" transform="translate(-38.586 -432.685)" fill="#ca6e59"/>
            <path id="Path_1082811" data-name="Path 1082811" d="M43.287,435.509a.934.934,0,0,1,0-.094V433.6a.913.913,0,0,1,.913-.913H41.108a.913.913,0,0,0-.913.913v1.817a.934.934,0,0,0,0,.094Z" transform="translate(-38.586 -432.685)" fill="#bb5d4c"/>
            <g id="Group_1210988" data-name="Group 1210988" transform="translate(0 2.733)">
              <path id="Path_1082812" data-name="Path 1082812" d="M39.965,466.434H23.035a.457.457,0,0,1-.457-.457v-2.456a.913.913,0,0,1,.913-.913H39.052a.913.913,0,0,1,.913.913Z" transform="translate(-22.578 -462.608)" fill="#883f2e"/>
            </g>
            <g id="Group_1210989" data-name="Group 1210989" transform="translate(0 2.733)">
              <path id="Path_1082813" data-name="Path 1082813" d="M25.631,465.978v-2.456a.913.913,0,0,1,.913-.913H23.491a.913.913,0,0,0-.913.913v2.456a.457.457,0,0,0,.457.457h3.053A.457.457,0,0,1,25.631,465.978Z" transform="translate(-22.578 -462.608)" fill="#6d3326"/>
            </g>
          </g>
          <g id="Group_1210995" data-name="Group 1210995" transform="translate(3.592)">
            <g id="Group_1210991" data-name="Group 1210991" transform="translate(0 17.491)">
              <path id="Path_1082814" data-name="Path 1082814" d="M72.108,344.871a2.239,2.239,0,0,1-2.238,2.238H64.143a2.238,2.238,0,0,1,0-4.477H69.87A2.238,2.238,0,0,1,72.108,344.871Z" transform="translate(-61.905 -342.633)" fill="#ca6e59"/>
            </g>
            <g id="Group_1210992" data-name="Group 1210992" transform="translate(0 17.491)">
              <path id="Path_1082815" data-name="Path 1082815" d="M64.954,344.871a2.238,2.238,0,0,1,2.238-2.238H64.143a2.238,2.238,0,1,0,0,4.477h3.049A2.239,2.239,0,0,1,64.954,344.871Z" transform="translate(-61.905 -342.633)" fill="#bb5d4c"/>
            </g>
            <g id="Group_1210993" data-name="Group 1210993" transform="translate(0)">
              <path id="Path_1082816" data-name="Path 1082816" d="M72.108,153.366A2.239,2.239,0,0,1,69.87,155.6H64.143a2.238,2.238,0,0,1,0-4.477H69.87A2.239,2.239,0,0,1,72.108,153.366Z" transform="translate(-61.905 -151.128)" fill="#ca6e59"/>
            </g>
            <g id="Group_1210994" data-name="Group 1210994">
              <path id="Path_1082817" data-name="Path 1082817" d="M64.954,153.366a2.239,2.239,0,0,1,2.238-2.238H64.143a2.238,2.238,0,0,0,0,4.477h3.049A2.238,2.238,0,0,1,64.954,153.366Z" transform="translate(-61.905 -151.128)" fill="#bb5d4c"/>
            </g>
          </g>
        </g>
        <g id="Group_1210999" data-name="Group 1210999" transform="translate(32.915 4.942)">
          <g id="Group_1210997" data-name="Group 1210997" transform="translate(0)">
            <circle id="Ellipse_14304" data-name="Ellipse 14304" cx="6.409" cy="6.409" r="6.409" fill="#4fc123"/>
          </g>
          <g id="Group_1210998" data-name="Group 1210998" transform="translate(0)">
            <path id="Path_1082818" data-name="Path 1082818" d="M213.443,60.516a6.411,6.411,0,0,1,4.873-6.222,6.409,6.409,0,1,0,0,12.445A6.411,6.411,0,0,1,213.443,60.516Z" transform="translate(-210.372 -54.107)" fill="#47a920"/>
          </g>
        </g>
        <g id="Group_1211000" data-name="Group 1211000" transform="translate(15.078 0)">
          <path id="Path_1082819" data-name="Path 1082819" d="M56.112,21.812h-1.1V9.956a.685.685,0,0,0-.706-.685.7.7,0,0,0-.664.713V21.812H49.048a.685.685,0,0,0,0,1.37h7.064a1.606,1.606,0,1,1,0,3.211h-14V23.182h3.734a.685.685,0,0,0,0-1.37h-3.9a1.207,1.207,0,0,0-1.107.729H36a1.143,1.143,0,0,0-1.063-.729h-2a1.143,1.143,0,0,0-1.063.729H28.935v-.588a1.6,1.6,0,0,0-.774-1.367V18.842a2.923,2.923,0,0,0-.841-5.723H25.01V1.37h28.63V6.759a.685.685,0,0,0,.706.685.7.7,0,0,0,.664-.713V1.142A1.142,1.142,0,0,0,53.868,0H24.781A1.142,1.142,0,0,0,23.64,1.142V13.118H21.593a2.923,2.923,0,0,0-.841,5.723v1.744a1.6,1.6,0,0,0-.774,1.367v5.67a1.6,1.6,0,0,0,.774,1.367v1.744a2.923,2.923,0,0,0,.841,5.723H23.64v2.378H18.285a1.6,1.6,0,0,0-1.6,1.6v1.135h-.011a1.6,1.6,0,0,0-1.6,1.6v2.456a1.143,1.143,0,0,0,1.142,1.142H53.868a1.142,1.142,0,0,0,1.142-1.142V27.763h1.1a2.976,2.976,0,0,0,0-5.951Zm-20.034,2.1h4.669v1.753H36.078Zm-2.915-.729h1.545v3.211H33.163Zm-4.228.729h2.858v1.753H28.935Zm-8.9-7.869a1.555,1.555,0,0,1,1.553-1.553H27.32a1.553,1.553,0,1,1,0,3.107H21.593a1.555,1.555,0,0,1-1.553-1.553Zm1.536,11.809a.229.229,0,0,1-.228-.228v-5.67a.229.229,0,0,1,.228-.228h5.761a.229.229,0,0,1,.228.228v5.67a.229.229,0,0,1-.228.228Zm5.215,1.37V30.61H22.122V29.221Zm-4.669-8.866V18.965h4.669v1.389Zm-.529,14.732a1.553,1.553,0,0,1,0-3.107H27.32a1.553,1.553,0,1,1,0,3.107ZM32.465,45.394H16.448V43.166a.229.229,0,0,1,.228-.228h4.24a.685.685,0,0,0,0-1.37H18.057V40.433a.229.229,0,0,1,.228-.228H30.628a.229.229,0,0,1,.228.228v1.135H24.113a.685.685,0,0,0,0,1.37h8.124a.229.229,0,0,1,.228.228Zm21.174,0h-19.8V43.166a1.6,1.6,0,0,0-1.6-1.6h-.011V40.433a1.6,1.6,0,0,0-1.6-1.6H25.01V36.457h2.31a2.923,2.923,0,0,0,.841-5.723V28.989a1.6,1.6,0,0,0,.774-1.367v-.588h2.936a1.143,1.143,0,0,0,1.063.729h2A1.143,1.143,0,0,0,36,27.034h4.846a1.207,1.207,0,0,0,1.107.729H53.639V45.394Z" transform="translate(-15.078 0)"/>
          <path id="Path_1082820" data-name="Path 1082820" d="M202.872,53.7a7.094,7.094,0,1,0,7.094-7.094A7.1,7.1,0,0,0,202.872,53.7Zm12.818,0a5.724,5.724,0,1,1-5.724-5.724A5.73,5.73,0,0,1,215.69,53.7Z" transform="translate(-185.72 -42.35)"/>
          <path id="Path_1082821" data-name="Path 1082821" d="M247.513,102.519a.685.685,0,1,0-.969.969l2.107,2.107a.685.685,0,0,0,.969,0l3.266-3.266a.685.685,0,0,0-.969-.969l-2.782,2.782Z" transform="translate(-225.22 -91.92)"/>
          <path id="Path_1082822" data-name="Path 1082822" d="M243.681,327.754a.685.685,0,0,0,.685.685h12.6a.685.685,0,0,0,0-1.37h-12.6A.685.685,0,0,0,243.681,327.754Z" transform="translate(-222.801 -297.196)"/>
          <path id="Path_1082823" data-name="Path 1082823" d="M317.68,363.546h-6.495a.685.685,0,0,0,0,1.37h6.495a.685.685,0,1,0,0-1.37Z" transform="translate(-283.517 -330.341)"/>
          <path id="Path_1082824" data-name="Path 1082824" d="M244.366,364.916h3.728a.685.685,0,0,0,0-1.37h-3.728a.685.685,0,1,0,0,1.37Z" transform="translate(-222.801 -330.341)"/>
          <path id="Path_1082825" data-name="Path 1082825" d="M256.963,400.023h-12.6a.685.685,0,1,0,0,1.37h12.6a.685.685,0,1,0,0-1.37Z" transform="translate(-222.8 -363.486)"/>
          <path id="Path_1082826" data-name="Path 1082826" d="M349.483,436.5h-3.3a.685.685,0,1,0,0,1.37h3.3a.685.685,0,1,0,0-1.37Z" transform="translate(-315.32 -396.632)"/>
          <path id="Path_1082827" data-name="Path 1082827" d="M251.565,436.5h-7.2a.685.685,0,1,0,0,1.37h7.2a.685.685,0,1,0,0-1.37Z" transform="translate(-222.801 -396.632)"/>
        </g>
      </g>
    </g>
  </g>
</svg>
