<svg xmlns="http://www.w3.org/2000/svg" xmlns:xlink="http://www.w3.org/1999/xlink" width="93.934" height="93.934" viewBox="0 0 93.934 93.934">
  <defs>
    <filter id="Path_978624" x="0" y="0" width="93.934" height="93.934" filterUnits="userSpaceOnUse">
      <feOffset dy="3" input="SourceAlpha"/>
      <feGaussianBlur stdDeviation="3" result="blur"/>
      <feFlood flood-opacity="0.161"/>
      <feComposite operator="in" in2="blur"/>
      <feComposite in="SourceGraphic"/>
    </filter>
  </defs>
  <g id="Group_1220608" data-name="Group 1220608" transform="translate(-609 -5659.198)">
    <g id="Group_1220521" data-name="Group 1220521" transform="translate(2.459 11)">
      <g id="Group_1219947" data-name="Group 1219947" transform="translate(615.541 5654.198)">
        <g id="Group_1208655" data-name="Group 1208655">
          <g id="Group_1208068" data-name="Group 1208068">
            <g id="Group_1144123" data-name="Group 1144123">
              <g transform="matrix(1, 0, 0, 1, -9, -6)" filter="url(#Path_978624)">
                <g id="Path_978624-2" data-name="Path 978624" transform="translate(9 6)" fill="#f1ede8">
                  <path d="M 37.966796875 74.43359375 C 33.04315185546875 74.43359375 28.26757431030273 73.46962738037109 23.77274131774902 71.56847381591797 C 19.43047523498535 69.73184967041016 15.53040790557861 67.10224914550781 12.18087482452393 63.75271987915039 C 8.831341743469238 60.4031867980957 6.201741218566895 56.50312042236328 4.365118980407715 52.16086196899414 C 2.463963508605957 47.66601943969727 1.499996900558472 42.89044189453125 1.499996900558472 37.966796875 C 1.499996900558472 33.04315185546875 2.463963508605957 28.26757431030273 4.365118980407715 23.77274131774902 C 6.201741218566895 19.43047523498535 8.831341743469238 15.53040790557861 12.18087482452393 12.18087482452393 C 15.53040790557861 8.831341743469238 19.43047523498535 6.201741218566895 23.77274131774902 4.365118980407715 C 28.26757431030273 2.463963508605957 33.04315185546875 1.499996900558472 37.966796875 1.499996900558472 C 42.89044189453125 1.499996900558472 47.66601943969727 2.463963508605957 52.16086196899414 4.365118980407715 C 56.50312042236328 6.201741218566895 60.4031867980957 8.831341743469238 63.75271987915039 12.18087482452393 C 67.10224914550781 15.53040790557861 69.73184967041016 19.43047523498535 71.56847381591797 23.77274131774902 C 73.46962738037109 28.26757431030273 74.43359375 33.04315185546875 74.43359375 37.966796875 C 74.43359375 42.89044189453125 73.46962738037109 47.66601943969727 71.56847381591797 52.16086196899414 C 69.73184967041016 56.50313186645508 67.10224914550781 60.4031867980957 63.75271987915039 63.75271987915039 C 60.4031867980957 67.10224914550781 56.50313186645508 69.73184967041016 52.16086196899414 71.56847381591797 C 47.66601943969727 73.46962738037109 42.89044189453125 74.43359375 37.966796875 74.43359375 Z" stroke="none"/>
                  <path d="M 37.966796875 3 C 33.2449836730957 3 28.66600799560547 3.924095153808594 24.35705947875977 5.746635437011719 C 20.19359588623047 7.507621765136719 16.45379638671875 10.02927398681641 13.24153518676758 13.24153518676758 C 10.02927398681641 16.45379638671875 7.507621765136719 20.19359588623047 5.746635437011719 24.35705947875977 C 3.924095153808594 28.66600799560547 3 33.2449836730957 3 37.966796875 C 3 42.6886100769043 3.924095153808594 47.26758575439453 5.746635437011719 51.57653427124023 C 7.507621765136719 55.73999786376953 10.02927398681641 59.47979736328125 13.24153518676758 62.69205856323242 C 16.45379638671875 65.90431976318359 20.19359588623047 68.42597198486328 24.35705947875977 70.18695831298828 C 28.66600799560547 72.00949859619141 33.2449836730957 72.93359375 37.966796875 72.93359375 C 42.6886100769043 72.93359375 47.26758575439453 72.00949859619141 51.57653427124023 70.18695831298828 C 55.73999786376953 68.42597198486328 59.47979736328125 65.90431976318359 62.69205856323242 62.69205856323242 C 65.90431976318359 59.47979736328125 68.42597198486328 55.73999786376953 70.18695831298828 51.57653427124023 C 72.00949859619141 47.26758575439453 72.93359375 42.6886100769043 72.93359375 37.966796875 C 72.93359375 33.2449836730957 72.00949859619141 28.66600799560547 70.18695831298828 24.35705947875977 C 68.42597198486328 20.19359588623047 65.90431976318359 16.45379638671875 62.69205856323242 13.24153518676758 C 59.47979736328125 10.02927398681641 55.73999786376953 7.507621765136719 51.57653427124023 5.746635437011719 C 47.26758575439453 3.924095153808594 42.6886100769043 3 37.966796875 3 M 37.966796875 0 C 58.93528366088867 0 75.93359375 16.99831008911133 75.93359375 37.966796875 C 75.93359375 58.93528366088867 58.93528366088867 75.93359375 37.966796875 75.93359375 C 16.99831008911133 75.93359375 0 58.93528366088867 0 37.966796875 C 0 16.99831008911133 16.99831008911133 0 37.966796875 0 Z" stroke="none" fill="#665b4e"/>
                </g>
              </g>
            </g>
          </g>
        </g>
      </g>
      <g id="equilibrar_3_" data-name="equilibrar (3)" transform="translate(626.909 5667.111)">
        <g id="Group_1220519" data-name="Group 1220519" transform="translate(1.452 0.793)">
          <g id="Group_1220516" data-name="Group 1220516" transform="translate(13.503 8.35)">
            <path id="Path_1169626" data-name="Path 1169626" d="M236.938,86.653h2.893v36.5h-2.893Z" transform="translate(-226.147 -86.653)" fill="#f2f2f2"/>
            <path id="Path_1169627" data-name="Path 1169627" d="M255.295,86.651h1.912v36.5h-1.912Z" transform="translate(-242.567 -86.651)" fill="#e5e5e5"/>
            <path id="Path_1169628" data-name="Path 1169628" d="M224.043,390.143l-2.142.75-2.711-.75a1.218,1.218,0,0,1-1.214-1.214V388.5a1.218,1.218,0,0,1,1.214-1.214h2.723l2.5.265a1.218,1.218,0,0,1,1.214,1.214C225.628,389.432,224.711,390.143,224.043,390.143Z" transform="translate(-209.185 -355.566)" fill="#e5e5e5"/>
            <path id="Path_1169629" data-name="Path 1169629" d="M259.2,388.5v.429a1.218,1.218,0,0,1-1.214,1.214l-1.511.551-1.187-.551v-2.857h2.7A1.218,1.218,0,0,1,259.2,388.5Z" transform="translate(-242.562 -355.564)" fill="#d9d8db"/>
            <path id="Path_1169630" data-name="Path 1169630" d="M178.644,418.451,168.8,419.6l-9.935-1.146a2.555,2.555,0,0,0,2.555-2.555,2.238,2.238,0,0,1,2.238-2.238h4.618l.751.351.748-.351h.915l2.982.158a2.238,2.238,0,0,1,2.238,2.238,2.423,2.423,0,0,0,.961,1.649A2.465,2.465,0,0,0,178.644,418.451Z" transform="translate(-156.311 -379.157)" fill="#6f6571"/>
            <path id="Path_1169631" data-name="Path 1169631" d="M159.622,461.8l-.028,1.571a.2.2,0,0,1-.2.2l-3.3.314h-7.967l-.748-.485-.751.485H134.857a.2.2,0,0,1-.2-.2v-2.038a2.553,2.553,0,0,1,2.554-2.554h16.653l3.2.154A2.554,2.554,0,0,1,159.622,461.8Z" transform="translate(-134.657 -419.794)" fill="#807782"/>
            <path id="Path_1169632" data-name="Path 1169632" d="M276.947,418.451l-1.073.468-2.442-.459-.484-.01a2.555,2.555,0,0,1-2.555-2.555,2.238,2.238,0,0,0-2.238-2.238h4a2.238,2.238,0,0,1,2.238,2.238,2.555,2.555,0,0,0,2.555,2.555Z" transform="translate(-254.07 -379.157)" fill="#5d5360"/>
            <path id="Path_1169633" data-name="Path 1169633" d="M320.14,461.643v2.038a.2.2,0,0,1-.2.2h-3.8v-2.238a2.554,2.554,0,0,0-2.554-2.554h4A2.554,2.554,0,0,1,320.14,461.643Z" transform="translate(-294.709 -419.794)" fill="#6f6571"/>
          </g>
          <circle id="Ellipse_14493" data-name="Ellipse 14493" cx="2.635" cy="2.635" r="2.635" transform="translate(7.11 3.932)" fill="#c3ddff"/>
          <path id="Path_1169634" data-name="Path 1169634" d="M196.2,13.514,196.5,12.2a6,6,0,0,1,11.709,2.635l-.285,1.28Z" transform="translate(-176.207 -7.511)" fill="#dbe9ff"/>
          <circle id="Ellipse_14494" data-name="Ellipse 14494" cx="2.597" cy="2.597" r="2.597" transform="translate(23.548 3.406)" fill="#c3ddff"/>
          <circle id="Ellipse_14495" data-name="Ellipse 14495" cx="2.635" cy="2.635" r="2.635" transform="translate(40.31 11.037)" fill="#c3ddff"/>
          <path id="Path_1169635" data-name="Path 1169635" d="M97.5,39.119,94.828,38.9,57.693,30.953a1.055,1.055,0,0,1-.811-1.252l.321-1.5a1.055,1.055,0,0,1,1.252-.811l37.135,7.944,2.384.847a1.055,1.055,0,0,1,.811,1.252l-.036.877A1.055,1.055,0,0,1,97.5,39.119Z" transform="translate(-51.564 -25.269)" fill="#807782"/>
          <path id="Path_1169636" data-name="Path 1169636" d="M421.164,104.744l-.322,1.5a1.054,1.054,0,0,1-1.252.81l-2.854-.611.763-3.565,2.854.611A1.056,1.056,0,0,1,421.164,104.744Z" transform="translate(-373.472 -92.819)" fill="#6f6571"/>
          <path id="Path_1169637" data-name="Path 1169637" d="M25.157,169.784a8.687,8.687,0,0,1-8.99,9.026c-4.353,0-7.514-2.694-9.142-6.371A9.493,9.493,0,0,1,22.813,163.1,11.37,11.37,0,0,1,25.157,169.784Z" transform="translate(-6.675 -144.253)" fill="#bbec6c"/>
          <path id="Path_1169638" data-name="Path 1169638" d="M28.63,192.9A9.493,9.493,0,0,1,10,195.462a9.5,9.5,0,0,0,9.829,2.17c.023-.008.081-.222.1-.231.094-.034.153.135.246.1a9.5,9.5,0,0,0,5.608-11.379A9.461,9.461,0,0,1,28.63,192.9Z" transform="translate(-9.647 -167.276)" fill="#a0e254"/>
          <path id="Path_1169639" data-name="Path 1169639" d="M341.737,237.214c0,5.242-3.258,8.683-8.5,8.683a9.954,9.954,0,0,1-8.448-4.351,9.493,9.493,0,0,1,14.259-11.837,11.112,11.112,0,0,1,2.688,7.5Z" transform="translate(-290.292 -204.488)" fill="#fe7f86"/>
          <path id="Path_1169640" data-name="Path 1169640" d="M351.583,254.066a9.493,9.493,0,0,1-17.94,4.332A9.493,9.493,0,0,0,347.9,246.561,9.474,9.474,0,0,1,351.583,254.066Z" transform="translate(-299.146 -221.34)" fill="#f76d7b"/>
          <g id="Group_1220517" data-name="Group 1220517" transform="translate(37.954 28.641)">
            <path id="Path_1169641" data-name="Path 1169641" d="M371.531,287.318a.317.317,0,0,1-.448,0l-1-.753-2.858-2.858a2.773,2.773,0,1,1,3.921-3.921l.034.034a.316.316,0,0,0,.448,0l.034-.034a2.773,2.773,0,0,1,2.912-.644,7.841,7.841,0,0,1,.988.735c1.083,1.083.7,2.768-.38,3.85Z" transform="translate(-366.41 -278.975)" fill="#f2f2f2"/>
          </g>
          <g id="Group_1220518" data-name="Group 1220518" transform="translate(41.625 28.81)">
            <path id="Path_1169642" data-name="Path 1169642" d="M406.7,285.135l-3.954,3.955a.318.318,0,0,1-.448,0l-1.1-1.1,4.059-4.06a2.773,2.773,0,0,0,.432-3.362,2.772,2.772,0,0,1,1.009,4.564Z" transform="translate(-401.196 -280.571)" fill="#e5e5e5"/>
          </g>
        </g>
        <g id="Group_1220520" data-name="Group 1220520" transform="translate(0.836 0)">
          <path id="Path_1169643" data-name="Path 1169643" d="M71.906,201.021a2.273,2.273,0,0,1-1.632-.428.791.791,0,1,0-.866,1.324,3.566,3.566,0,0,0,1.761.661v.666a.791.791,0,1,0,1.583,0v-.763a3,3,0,0,0,2.079-2.36,2.644,2.644,0,0,0-1.8-2.992c-.187-.066-.367-.126-.538-.183a3.312,3.312,0,0,1-1.348-.64,1.061,1.061,0,0,1-.247-1,.909.909,0,0,1,.637-.629,1.353,1.353,0,0,1,1.385.31.79.79,0,1,0,1.189-1.042h0a3.073,3.073,0,0,0-1.362-.817v-.743a.791.791,0,1,0-1.583,0v.753a2.614,2.614,0,0,0-1.787,1.729,2.651,2.651,0,0,0,.572,2.477,4.29,4.29,0,0,0,2.042,1.1c.163.055.334.112.512.175a1.055,1.055,0,0,1,.764,1.238,1.376,1.376,0,0,1-1.365,1.16Z" transform="translate(-61.853 -171.38)"/>
          <path id="Path_1169644" data-name="Path 1169644" d="M49.708,24.716l-4.074-7.056a3.459,3.459,0,0,0,.625-.319,3.4,3.4,0,0,0,1.283-1.514A1.827,1.827,0,0,0,49.6,14.386l.321-1.5A1.848,1.848,0,0,0,48.5,10.692L34.333,7.661A6.791,6.791,0,0,0,21.1,4.83L8.51,2.137A1.846,1.846,0,0,0,6.318,3.556L6,5.059A1.846,1.846,0,0,0,7.416,7.25l.355.076a3.436,3.436,0,0,0,1.981,3.139l-4.122,7.15a10.268,10.268,0,0,0-4.78,6.822.791.791,0,0,0,1.553.3,8.7,8.7,0,1,1,.008,3.387.791.791,0,1,0-1.552.31,10.284,10.284,0,1,0,15.4-10.825l-4.027-6.985a3.437,3.437,0,0,0,2.108-1.895l10.72,2.293V34.437a.791.791,0,0,0,1.583,0V11.363L28.7,11.8V40.07H26.639v-1.94a.791.791,0,1,0-1.583,0v1.943a2.058,2.058,0,0,0-2,2.054v.251a2.048,2.048,0,0,0,.058.475H22.3a3.033,3.033,0,0,0-3.03,3.03,1.765,1.765,0,0,1-1.763,1.763,3.35,3.35,0,0,0-3.346,3.346v2.238a.791.791,0,0,0,.791.791H40.387a.791.791,0,0,0,.791-.791V50.991a3.35,3.35,0,0,0-3.346-3.346,1.765,1.765,0,0,1-1.763-1.763,3.033,3.033,0,0,0-3.03-3.03h-.813a2.048,2.048,0,0,0,.058-.475v-.251a2.058,2.058,0,0,0-2-2.054V12.143l2.688.575A.791.791,0,1,0,33.3,11.17L7.747,5.7a.264.264,0,0,1-.2-.313l.321-1.5a.264.264,0,0,1,.313-.2l39.989,8.554a.264.264,0,0,1,.2.313l-.321,1.5a.264.264,0,0,1-.313.2L36.916,11.943a.791.791,0,0,0-.331,1.548l4.386.938a3.429,3.429,0,0,0,2.19,3.231l-4.074,7.056A10.282,10.282,0,1,0,50.147,42.045a.791.791,0,1,0-.886-1.311,8.7,8.7,0,1,1,2.369-2.377.791.791,0,1,0,1.315.881,10.282,10.282,0,0,0-3.237-14.522ZM26.879,52.438H15.746V50.991a1.765,1.765,0,0,1,1.763-1.763h9.37v3.21Zm0-4.793H20.351a3.325,3.325,0,0,0,.5-1.763A1.449,1.449,0,0,1,22.3,44.435h4.577v3.21Zm10.953,1.583A1.765,1.765,0,0,1,39.6,50.991v1.447H28.462v-3.21Zm-4.793-4.793a1.449,1.449,0,0,1,1.447,1.447,3.324,3.324,0,0,0,.5,1.763H28.462v-3.21ZM30.7,42.127v.251a.481.481,0,0,1-.475.475H25.115a.481.481,0,0,1-.475-.475v-.251a.481.481,0,0,1,.475-.475h5.112A.481.481,0,0,1,30.7,42.127ZM10.153,16.162a10.232,10.232,0,0,0-2.076.378l2.076-3.6Zm3.656.374a10.22,10.22,0,0,0-2.074-.376V12.94Zm-1.083-8.15a1.841,1.841,0,0,1-3.345-.715Zm13.31-2.5a1.8,1.8,0,0,1,3.355.718Zm6.742,1.442-1.8-.384a3.388,3.388,0,0,0-6.535-1.4l-1.8-.385A5.209,5.209,0,0,1,32.778,7.328ZM43.606,23.265a10.223,10.223,0,0,0-2.072.376l2.072-3.588Zm.406-7a1.845,1.845,0,0,1-1.43-1.494l3.348.716a1.843,1.843,0,0,1-1.918.778Zm1.177,7V20.053l2.072,3.588A10.224,10.224,0,0,0,45.188,23.265Z" transform="translate(-0.836 0)"/>
          <path id="Path_1169645" data-name="Path 1169645" d="M364.691,272.263a3.564,3.564,0,0,0-4.738,5.31l4.178,4.179a.791.791,0,0,0,1.119,0l4.178-4.179a3.564,3.564,0,0,0-4.738-5.31Zm3.619,4.191-3.619,3.619-3.619-3.619a1.981,1.981,0,0,1,2.8-2.8l.258.258a.791.791,0,0,0,1.119,0l.257-.257a1.981,1.981,0,0,1,2.8,2.8Z" transform="translate(-321.13 -242.846)"/>
        </g>
      </g>
    </g>
  </g>
</svg>
