<svg xmlns="http://www.w3.org/2000/svg" xmlns:xlink="http://www.w3.org/1999/xlink" width="93.934" height="93.934" viewBox="0 0 93.934 93.934">
  <defs>
    <filter id="Path_978624" x="0" y="0" width="93.934" height="93.934" filterUnits="userSpaceOnUse">
      <feOffset dy="3" input="SourceAlpha"/>
      <feGaussianBlur stdDeviation="3" result="blur"/>
      <feFlood flood-opacity="0.161"/>
      <feComposite operator="in" in2="blur"/>
      <feComposite in="SourceGraphic"/>
    </filter>
  </defs>
  <g id="Group_1223183" data-name="Group 1223183" transform="translate(-609 -1514)">
    <g id="Group_1222822" data-name="Group 1222822">
      <g id="Group_1220515" data-name="Group 1220515" transform="translate(2.459 -3985.116)">
        <g id="Group_1219946" data-name="Group 1219946" transform="translate(615.541 5505.116)">
          <g id="Group_1208655" data-name="Group 1208655">
            <g id="Group_1208068" data-name="Group 1208068">
              <g id="Group_1144123" data-name="Group 1144123">
                <g transform="matrix(1, 0, 0, 1, -9, -6)" filter="url(#Path_978624)">
                  <g id="Path_978624-2" data-name="Path 978624" transform="translate(9 6)" fill="#f1ede8">
                    <path d="M 37.966796875 74.43359375 C 33.04315185546875 74.43359375 28.26757431030273 73.46962738037109 23.77274131774902 71.56847381591797 C 19.43047523498535 69.73184967041016 15.53040790557861 67.10224914550781 12.18087482452393 63.75271987915039 C 8.831341743469238 60.4031867980957 6.201741218566895 56.50312042236328 4.365118980407715 52.16086196899414 C 2.463963508605957 47.66601943969727 1.499996900558472 42.89044189453125 1.499996900558472 37.966796875 C 1.499996900558472 33.04315185546875 2.463963508605957 28.26757431030273 4.365118980407715 23.77274131774902 C 6.201741218566895 19.43047523498535 8.831341743469238 15.53040790557861 12.18087482452393 12.18087482452393 C 15.53040790557861 8.831341743469238 19.43047523498535 6.201741218566895 23.77274131774902 4.365118980407715 C 28.26757431030273 2.463963508605957 33.04315185546875 1.499996900558472 37.966796875 1.499996900558472 C 42.89044189453125 1.499996900558472 47.66601943969727 2.463963508605957 52.16086196899414 4.365118980407715 C 56.50312042236328 6.201741218566895 60.4031867980957 8.831341743469238 63.75271987915039 12.18087482452393 C 67.10224914550781 15.53040790557861 69.73184967041016 19.43047523498535 71.56847381591797 23.77274131774902 C 73.46962738037109 28.26757431030273 74.43359375 33.04315185546875 74.43359375 37.966796875 C 74.43359375 42.89044189453125 73.46962738037109 47.66601943969727 71.56847381591797 52.16086196899414 C 69.73184967041016 56.50313186645508 67.10224914550781 60.4031867980957 63.75271987915039 63.75271987915039 C 60.4031867980957 67.10224914550781 56.50313186645508 69.73184967041016 52.16086196899414 71.56847381591797 C 47.66601943969727 73.46962738037109 42.89044189453125 74.43359375 37.966796875 74.43359375 Z" stroke="none"/>
                    <path d="M 37.966796875 3 C 33.2449836730957 3 28.66600799560547 3.924095153808594 24.35705947875977 5.746635437011719 C 20.19359588623047 7.507621765136719 16.45379638671875 10.02927398681641 13.24153518676758 13.24153518676758 C 10.02927398681641 16.45379638671875 7.507621765136719 20.19359588623047 5.746635437011719 24.35705947875977 C 3.924095153808594 28.66600799560547 3 33.2449836730957 3 37.966796875 C 3 42.6886100769043 3.924095153808594 47.26758575439453 5.746635437011719 51.57653427124023 C 7.507621765136719 55.73999786376953 10.02927398681641 59.47979736328125 13.24153518676758 62.69205856323242 C 16.45379638671875 65.90431976318359 20.19359588623047 68.42597198486328 24.35705947875977 70.18695831298828 C 28.66600799560547 72.00949859619141 33.2449836730957 72.93359375 37.966796875 72.93359375 C 42.6886100769043 72.93359375 47.26758575439453 72.00949859619141 51.57653427124023 70.18695831298828 C 55.73999786376953 68.42597198486328 59.47979736328125 65.90431976318359 62.69205856323242 62.69205856323242 C 65.90431976318359 59.47979736328125 68.42597198486328 55.73999786376953 70.18695831298828 51.57653427124023 C 72.00949859619141 47.26758575439453 72.93359375 42.6886100769043 72.93359375 37.966796875 C 72.93359375 33.2449836730957 72.00949859619141 28.66600799560547 70.18695831298828 24.35705947875977 C 68.42597198486328 20.19359588623047 65.90431976318359 16.45379638671875 62.69205856323242 13.24153518676758 C 59.47979736328125 10.02927398681641 55.73999786376953 7.507621765136719 51.57653427124023 5.746635437011719 C 47.26758575439453 3.924095153808594 42.6886100769043 3 37.966796875 3 M 37.966796875 0 C 58.93528366088867 0 75.93359375 16.99831008911133 75.93359375 37.966796875 C 75.93359375 58.93528366088867 58.93528366088867 75.93359375 37.966796875 75.93359375 C 16.99831008911133 75.93359375 0 58.93528366088867 0 37.966796875 C 0 16.99831008911133 16.99831008911133 0 37.966796875 0 Z" stroke="none" fill="#665b4e"/>
                  </g>
                </g>
              </g>
            </g>
          </g>
        </g>
      </g>
      <g id="responsabilidad-justa" transform="translate(617.23 1529.783)">
        <path id="Path_1174887" data-name="Path 1174887" d="M333.722,129.043a6.855,6.855,0,1,1-13.711,0Z" transform="translate(-276.811 -108.733)" fill="#f7cb6c" fill-rule="evenodd"/>
        <path id="Path_1174888" data-name="Path 1174888" d="M134.452,129.043a6.855,6.855,0,1,1-13.711,0Z" transform="translate(-100.716 -108.733)" fill="#f7cb6c" fill-rule="evenodd"/>
        <path id="Path_1174889" data-name="Path 1174889" d="M46.67,349.462c-.105-1.425-1.251-2.4-3.78-2.42-4.027-.038-7.648-.357-11.7-.783-6.03-.419-10.706,4.558-14.456,8.708l8.686,8.686c4.8-3.9,6.976-3.085,10.96-3.147,1.851-.029,3.954.331,7.144-1.1l17.046-7.753a23.581,23.581,0,0,0,3.5-2.03c.971-2.344-1.025-4.57-6.806-2.3-2.98,1.172-6.553,2.346-9.013,3.015-.221.06-1.084.286-1.786.468a2.754,2.754,0,0,0,.212-1.343Z" transform="translate(-8.803 -300.664)" fill="#ffcec0" fill-rule="evenodd"/>
        <path id="Path_1174890" data-name="Path 1174890" d="M31.6,21.892a4.856,4.856,0,0,1-9.43,0Zm-4.663-8.976,3,6.65h-6Zm23.072,0,3,6.65H47.009l3-6.65Zm.052,12.669a4.864,4.864,0,0,1-4.715-3.693h9.43A4.863,4.863,0,0,1,50.057,25.585ZM20.863,19.566A1.163,1.163,0,0,0,19.7,20.729a7.182,7.182,0,1,0,14.363,0A1.162,1.162,0,0,0,32.9,19.566h-.418l-3.917-8.689a14.951,14.951,0,0,0,3.475-.746c1.876-.566,3.391-1.025,5.266-.049V23.419a1.163,1.163,0,0,0,2.327,0V10.083c1.875-.976,3.39-.518,5.266.049a14.952,14.952,0,0,0,3.474.746l-3.916,8.689h-.419a1.163,1.163,0,0,0-1.163,1.163,7.182,7.182,0,1,0,14.363,0,1.162,1.162,0,0,0-1.163-1.163h-.521l-4.1-9.094q.382-.125.779-.3a1.163,1.163,0,1,0-.929-2.132c-2.165.943-3.819.443-5.734-.136-1.753-.531-3.692-1.117-5.939-.349V7.163a1.163,1.163,0,0,0-2.327,0v.394c-2.247-.768-4.186-.182-5.939.349-1.914.579-3.568,1.079-5.734.136a1.163,1.163,0,1,0-.929,2.132q.4.174.779.3l-4.1,9.094h-.521Zm-4.238-8.143-.85.31a1.163,1.163,0,1,1-.8-2.185l4.164-1.518A1.163,1.163,0,0,1,20.7,9.044l.313,4.52a1.163,1.163,0,0,1-2.321.16l-.076-1.1a23.809,23.809,0,0,0,.922,27.313,1.163,1.163,0,1,1-1.86,1.4,26.135,26.135,0,0,1-1.054-29.915Zm46.261,28.8a1.163,1.163,0,0,1-.7,1.491l-4.163,1.518a1.163,1.163,0,0,1-1.559-1.013l-.311-4.52a1.163,1.163,0,0,1,2.32-.161l.076,1.1a23.807,23.807,0,0,0-.922-27.313,1.163,1.163,0,1,1,1.86-1.4,26.134,26.134,0,0,1,1.055,29.914l.85-.31a1.164,1.164,0,0,1,1.491.694Zm-7.1,5.446a3.34,3.34,0,0,1,.55,3.73,1.162,1.162,0,0,1-.346.461,24.315,24.315,0,0,1-3.713,2.168l-.03.014L35.2,59.8a13.83,13.83,0,0,1-6.655,1.216c-.334-.007-.65-.013-.952-.008-.663.009-1.265,0-1.846-.015-2.831-.062-4.7-.1-8.4,2.9a1.163,1.163,0,1,1-1.467-1.805c4.359-3.541,6.933-3.486,9.914-3.421.56.013,1.14.024,1.76.015.343,0,.68,0,1.036.009a11.519,11.519,0,0,0,5.648-1.01l17.024-7.742a26.9,26.9,0,0,0,3.012-1.7.956.956,0,0,0-.155-.935c-.531-.54-2.221-.749-5.245.44-2.862,1.126-6.447,2.325-9.132,3.054-.234.064-.793.212-1.322.349a3.831,3.831,0,0,1-.446.556c-2.125,2.191-6.788,2.179-10.992,2-.412-.017-.768-.034-1.049-.039a1.163,1.163,0,0,1,.025-2.325h.025c.306.006.674.022,1.1.041,2.288.1,7.646.33,9.222-1.295a1.427,1.427,0,0,0,.4-1.2c-.064-.876-.949-1.327-2.63-1.342-3.919-.038-7.418-.329-11.791-.788-5.621-.378-10.169,4.652-13.491,8.327A1.163,1.163,0,0,1,7.07,53.523a42.3,42.3,0,0,1,6.559-6.233,13.318,13.318,0,0,1,8.839-2.854.256.256,0,0,1,.041,0c4.313.453,7.757.741,11.59.777,4.052.037,4.8,2.271,4.916,3.368l.121-.033c2.57-.7,6.144-1.894,8.892-2.974,4.809-1.891,6.922-.753,7.755.1ZM38.47,39.651a4.376,4.376,0,1,1,4.377-4.377A4.377,4.377,0,0,1,38.47,39.651Zm8.883-2.769-1.271.251-.916,2.21.721,1.077a.436.436,0,0,1-.054.553l-1.665,1.666a.436.436,0,0,1-.555.053l-1.075-.721-2.211.916-.25,1.271a.435.435,0,0,1-.43.354H37.292a.435.435,0,0,1-.43-.354l-.251-1.271L34.4,41.97l-1.076.721a.434.434,0,0,1-.554-.053l-1.666-1.666a.434.434,0,0,1-.054-.553l.722-1.077-.916-2.21-1.271-.251a.435.435,0,0,1-.354-.431V34.1a.434.434,0,0,1,.354-.429l1.271-.252.916-2.209-.722-1.077a.434.434,0,0,1,.054-.554l1.666-1.666a.434.434,0,0,1,.554-.053l1.076.721,2.211-.916.251-1.271a.435.435,0,0,1,.43-.354h2.355a.435.435,0,0,1,.43.354l.25,1.271,2.211.916,1.075-.721a.435.435,0,0,1,.555.053l1.665,1.666a.436.436,0,0,1,.054.554l-.721,1.077.916,2.209,1.271.252a.435.435,0,0,1,.354.429v2.355A.436.436,0,0,1,47.353,36.882Z" transform="translate(0 0)" fill-rule="evenodd"/>
      </g>
    </g>
  </g>
</svg>
