<svg xmlns="http://www.w3.org/2000/svg" xmlns:xlink="http://www.w3.org/1999/xlink" width="93.934" height="93.934" viewBox="0 0 93.934 93.934">
  <defs>
    <filter id="Path_978624" x="0" y="0" width="93.934" height="93.934" filterUnits="userSpaceOnUse">
      <feOffset dy="3" input="SourceAlpha"/>
      <feGaussianBlur stdDeviation="3" result="blur"/>
      <feFlood flood-opacity="0.161"/>
      <feComposite operator="in" in2="blur"/>
      <feComposite in="SourceGraphic"/>
    </filter>
  </defs>
  <g id="Group_1220607" data-name="Group 1220607" transform="translate(-609 -5510.116)">
    <g id="Group_1220515" data-name="Group 1220515" transform="translate(2.459 11)">
      <g id="Group_1219946" data-name="Group 1219946" transform="translate(615.541 5505.116)">
        <g id="Group_1208655" data-name="Group 1208655">
          <g id="Group_1208068" data-name="Group 1208068">
            <g id="Group_1144123" data-name="Group 1144123">
              <g transform="matrix(1, 0, 0, 1, -9, -6)" filter="url(#Path_978624)">
                <g id="Path_978624-2" data-name="Path 978624" transform="translate(9 6)" fill="#f1ede8">
                  <path d="M 37.966796875 74.43359375 C 33.04315185546875 74.43359375 28.26757431030273 73.46962738037109 23.77274131774902 71.56847381591797 C 19.43047523498535 69.73184967041016 15.53040790557861 67.10224914550781 12.18087482452393 63.75271987915039 C 8.831341743469238 60.4031867980957 6.201741218566895 56.50312042236328 4.365118980407715 52.16086196899414 C 2.463963508605957 47.66601943969727 1.499996900558472 42.89044189453125 1.499996900558472 37.966796875 C 1.499996900558472 33.04315185546875 2.463963508605957 28.26757431030273 4.365118980407715 23.77274131774902 C 6.201741218566895 19.43047523498535 8.831341743469238 15.53040790557861 12.18087482452393 12.18087482452393 C 15.53040790557861 8.831341743469238 19.43047523498535 6.201741218566895 23.77274131774902 4.365118980407715 C 28.26757431030273 2.463963508605957 33.04315185546875 1.499996900558472 37.966796875 1.499996900558472 C 42.89044189453125 1.499996900558472 47.66601943969727 2.463963508605957 52.16086196899414 4.365118980407715 C 56.50312042236328 6.201741218566895 60.4031867980957 8.831341743469238 63.75271987915039 12.18087482452393 C 67.10224914550781 15.53040790557861 69.73184967041016 19.43047523498535 71.56847381591797 23.77274131774902 C 73.46962738037109 28.26757431030273 74.43359375 33.04315185546875 74.43359375 37.966796875 C 74.43359375 42.89044189453125 73.46962738037109 47.66601943969727 71.56847381591797 52.16086196899414 C 69.73184967041016 56.50313186645508 67.10224914550781 60.4031867980957 63.75271987915039 63.75271987915039 C 60.4031867980957 67.10224914550781 56.50313186645508 69.73184967041016 52.16086196899414 71.56847381591797 C 47.66601943969727 73.46962738037109 42.89044189453125 74.43359375 37.966796875 74.43359375 Z" stroke="none"/>
                  <path d="M 37.966796875 3 C 33.2449836730957 3 28.66600799560547 3.924095153808594 24.35705947875977 5.746635437011719 C 20.19359588623047 7.507621765136719 16.45379638671875 10.02927398681641 13.24153518676758 13.24153518676758 C 10.02927398681641 16.45379638671875 7.507621765136719 20.19359588623047 5.746635437011719 24.35705947875977 C 3.924095153808594 28.66600799560547 3 33.2449836730957 3 37.966796875 C 3 42.6886100769043 3.924095153808594 47.26758575439453 5.746635437011719 51.57653427124023 C 7.507621765136719 55.73999786376953 10.02927398681641 59.47979736328125 13.24153518676758 62.69205856323242 C 16.45379638671875 65.90431976318359 20.19359588623047 68.42597198486328 24.35705947875977 70.18695831298828 C 28.66600799560547 72.00949859619141 33.2449836730957 72.93359375 37.966796875 72.93359375 C 42.6886100769043 72.93359375 47.26758575439453 72.00949859619141 51.57653427124023 70.18695831298828 C 55.73999786376953 68.42597198486328 59.47979736328125 65.90431976318359 62.69205856323242 62.69205856323242 C 65.90431976318359 59.47979736328125 68.42597198486328 55.73999786376953 70.18695831298828 51.57653427124023 C 72.00949859619141 47.26758575439453 72.93359375 42.6886100769043 72.93359375 37.966796875 C 72.93359375 33.2449836730957 72.00949859619141 28.66600799560547 70.18695831298828 24.35705947875977 C 68.42597198486328 20.19359588623047 65.90431976318359 16.45379638671875 62.69205856323242 13.24153518676758 C 59.47979736328125 10.02927398681641 55.73999786376953 7.507621765136719 51.57653427124023 5.746635437011719 C 47.26758575439453 3.924095153808594 42.6886100769043 3 37.966796875 3 M 37.966796875 0 C 58.93528366088867 0 75.93359375 16.99831008911133 75.93359375 37.966796875 C 75.93359375 58.93528366088867 58.93528366088867 75.93359375 37.966796875 75.93359375 C 16.99831008911133 75.93359375 0 58.93528366088867 0 37.966796875 C 0 16.99831008911133 16.99831008911133 0 37.966796875 0 Z" stroke="none" fill="#665b4e"/>
                </g>
              </g>
            </g>
          </g>
        </g>
      </g>
      <g id="tribunal-de-justicia_1_" data-name="tribunal-de-justicia (1)" transform="translate(625.161 5524.307)">
        <g id="Group_1220514" data-name="Group 1220514" transform="translate(0.914 0.914)">
          <g id="Group_1220494" data-name="Group 1220494" transform="translate(18.288 3.658)">
            <path id="Path_1169605" data-name="Path 1169605" d="M39.288,10.486v3.658a1.834,1.834,0,0,0-1.829-1.829H35.63V11.62a2.962,2.962,0,0,0-2.963-2.963,3,3,0,0,0-1.317.311l-1.207.6-1.207-.6a3,3,0,0,0-1.317-.311,2.966,2.966,0,0,0-2.963,2.963v.695H22.829A1.842,1.842,0,0,0,21,14.144V10.486A5.491,5.491,0,0,1,26.486,5H33.8A5.491,5.491,0,0,1,39.288,10.486Z" transform="translate(-21 -5)" fill="#b27946"/>
          </g>
          <g id="Group_1220495" data-name="Group 1220495" transform="translate(23.774 0)">
            <path id="Path_1169606" data-name="Path 1169606" d="M34.315,4.658H27a3.658,3.658,0,1,1,7.315,0Z" transform="translate(-27 -1)" fill="#b27946"/>
          </g>
          <g id="Group_1220496" data-name="Group 1220496" transform="translate(0 23.774)">
            <path id="Path_1169607" data-name="Path 1169607" d="M11.973,27.914v1.829a.917.917,0,0,1-.914.914H1.914A.917.917,0,0,1,1,29.743V27.914A.917.917,0,0,1,1.914,27h9.144A.917.917,0,0,1,11.973,27.914Z" transform="translate(-1 -27)" fill="#cf9e76"/>
          </g>
          <g id="Group_1220497" data-name="Group 1220497" transform="translate(3.658)">
            <path id="Path_1169608" data-name="Path 1169608" d="M8.658,1.914v22.86H5V1.914A.917.917,0,0,1,5.914,1H7.743A.917.917,0,0,1,8.658,1.914Z" transform="translate(-5 -1)" fill="#dfb28b"/>
          </g>
          <g id="Group_1220498" data-name="Group 1220498" transform="translate(3.658 27.432)">
            <path id="Path_1169609" data-name="Path 1169609" d="M8.658,38.315v2.743a.917.917,0,0,1-.914.914H5.914A.917.917,0,0,1,5,41.058V31H8.658Z" transform="translate(-5 -31)" fill="#b27946"/>
          </g>
          <g id="Group_1220499" data-name="Group 1220499" transform="translate(26.865 36.695)">
            <path id="Path_1169610" data-name="Path 1169610" d="M35.309,41.13,37.842,48.1,30.38,43.946Z" transform="translate(-30.38 -41.13)" fill="#aab2bd"/>
          </g>
          <g id="Group_1220500" data-name="Group 1220500" transform="translate(20.775 34.747)">
            <path id="Path_1169611" data-name="Path 1169611" d="M34.034,39l.7,1.948L29.81,43.764l-6.09,3.484,3-8.248Z" transform="translate(-23.72 -39)" fill="#ccd1d9"/>
          </g>
          <g id="Group_1220501" data-name="Group 1220501" transform="translate(16.459 39.511)">
            <path id="Path_1169612" data-name="Path 1169612" d="M35.459,59.563H19l4.316-11.869,6.09-3.484,7.462,4.151,4.078,11.2Z" transform="translate(-19 -44.21)" fill="#e6e9ed"/>
          </g>
          <g id="Group_1220502" data-name="Group 1220502" transform="translate(21.946 27.432)">
            <path id="Path_1169613" data-name="Path 1169613" d="M35.918,32.8a2.3,2.3,0,0,1-.11,1.353l-1.664,4.161H26.829l-1.664-4.161a.717.717,0,0,1-.046-.128A2.138,2.138,0,0,1,25,33.3,2.306,2.306,0,0,1,27.3,31h6.364a2.279,2.279,0,0,1,1.628.677A2.253,2.253,0,0,1,35.918,32.8Z" transform="translate(-25 -31)" fill="#e6e9ed"/>
          </g>
          <g id="Group_1220503" data-name="Group 1220503" transform="translate(47.549 31.09)">
            <path id="Path_1169614" data-name="Path 1169614" d="M53,35h7.315A3.658,3.658,0,1,1,53,35Z" transform="translate(-53 -35)" fill="#fcd770"/>
          </g>
          <g id="Group_1220504" data-name="Group 1220504" transform="translate(36.576 31.09)">
            <path id="Path_1169615" data-name="Path 1169615" d="M41,35h7.315A3.658,3.658,0,1,1,41,35Z" transform="translate(-41 -35)" fill="#fcd770"/>
          </g>
          <g id="Group_1220505" data-name="Group 1220505" transform="translate(43.891 3.658)">
            <path id="Path_1169616" data-name="Path 1169616" d="M52.658,12.315v.914a.917.917,0,0,1-.914.914H49.914A.917.917,0,0,1,49,13.23V5.914A.917.917,0,0,1,49.914,5h1.829a.917.917,0,0,1,.914.914v6.4Z" transform="translate(-49 -5)" fill="#969faa"/>
          </g>
          <g id="Group_1220506" data-name="Group 1220506" transform="translate(47.549 5.486)">
            <path id="Path_1169617" data-name="Path 1169617" d="M56.658,8.829v3.658a1.834,1.834,0,0,1-1.829,1.829A1.842,1.842,0,0,1,53,12.486V8.829A1.834,1.834,0,0,1,54.829,7a1.842,1.842,0,0,1,1.829,1.829Z" transform="translate(-53 -7)" fill="#f0d0b4"/>
          </g>
          <g id="Group_1220507" data-name="Group 1220507" transform="translate(30.175 7.315)">
            <path id="Path_1169618" data-name="Path 1169618" d="M49.545,21.8v3.658H44.058l-1.993,3.987a13.485,13.485,0,0,1-5.377,1.472,2.253,2.253,0,0,0-.622-1.125,2.279,2.279,0,0,0-1.628-.677H34l.914-3.658a9.147,9.147,0,0,0,9.144-9.144V10.829A1.834,1.834,0,0,1,45.887,9h1.829v4.572a.917.917,0,0,0,.914.914h.914v3.658a1.829,1.829,0,0,0,0,3.658Z" transform="translate(-34 -9)" fill="#f0d0b4"/>
          </g>
          <g id="Group_1220508" data-name="Group 1220508" transform="translate(7.315 23.774)">
            <path id="Path_1169619" data-name="Path 1169619" d="M25.459,27l.914,3.658h-.439a2.306,2.306,0,0,0-2.3,2.3,2.138,2.138,0,0,0,.119.722L12.932,37.543a7.254,7.254,0,0,1-2.46.43H9V30.658h2.743l1.829,1.829,6.968-4.179A9.119,9.119,0,0,1,25.249,27Z" transform="translate(-9 -27)" fill="#f0d0b4"/>
          </g>
          <g id="Group_1220509" data-name="Group 1220509" transform="translate(32.918 10.973)">
            <path id="Path_1169620" data-name="Path 1169620" d="M38.829,13a1.834,1.834,0,0,1,1.829,1.829,1.842,1.842,0,0,1-1.829,1.829H37V13Z" transform="translate(-37 -13)" fill="#f0d0b4"/>
          </g>
          <g id="Group_1220510" data-name="Group 1220510" transform="translate(21.946 14.63)">
            <path id="Path_1169621" data-name="Path 1169621" d="M35.973,17v1.719A4.826,4.826,0,0,1,32.315,23.4v2.743h1.829L33.23,29.8H27.743l-.914-3.658h1.829V23.4A4.831,4.831,0,0,1,25,18.719V17Z" transform="translate(-25 -17)" fill="#f0d0b4"/>
          </g>
          <g id="Group_1220511" data-name="Group 1220511" transform="translate(18.288 10.973)">
            <path id="Path_1169622" data-name="Path 1169622" d="M24.658,13v3.658H22.829A1.834,1.834,0,0,1,21,14.829,1.842,1.842,0,0,1,22.829,13Z" transform="translate(-21 -13)" fill="#f0d0b4"/>
          </g>
          <g id="Group_1220512" data-name="Group 1220512" transform="translate(21.946 7.315)">
            <path id="Path_1169623" data-name="Path 1169623" d="M30.486,9.914l1.207-.6A3,3,0,0,1,33.01,9a2.962,2.962,0,0,1,2.963,2.963v.695H25v-.695A2.966,2.966,0,0,1,27.963,9a3,3,0,0,1,1.317.311Z" transform="translate(-25 -9)" fill="#f0d0b4"/>
          </g>
          <g id="Group_1220513" data-name="Group 1220513" transform="translate(21.946 10.973)">
            <path id="Path_1169624" data-name="Path 1169624" d="M25,13H35.973v3.658H25Z" transform="translate(-25 -13)" fill="#75b1f2"/>
          </g>
        </g>
        <path id="Path_1169625" data-name="Path 1169625" d="M52.686,23.774H47.549v-2A2.739,2.739,0,0,0,49.378,19.2H47.549a.914.914,0,1,1-.914-.914h.914V14.63a1.813,1.813,0,0,0,1.211-.469,2.742,2.742,0,0,0,4.276-2.274V8.23a2.747,2.747,0,0,0-2.743-2.743,2.712,2.712,0,0,0-.914.168V5.486a1.831,1.831,0,0,0-1.829-1.829H45.72a1.831,1.831,0,0,0-1.829,1.829V7.315h-.914a2.747,2.747,0,0,0-2.743,2.743v5.486A8.239,8.239,0,0,1,32,23.774H31.09V22.612a5.734,5.734,0,0,0,3.658-5.352v-.8h.914A2.747,2.747,0,0,0,38.4,13.716V10.058a6.407,6.407,0,0,0-5.572-6.341,4.566,4.566,0,0,0-8.972,0,6.407,6.407,0,0,0-5.572,6.341v3.658a2.747,2.747,0,0,0,2.743,2.743h.914v.8A5.736,5.736,0,0,0,25.6,22.613v1.161H24.479A10.055,10.055,0,0,0,19.3,25.208l-6.36,3.816-.507-.507a1.821,1.821,0,0,0,.364-1.085V25.6a1.831,1.831,0,0,0-1.829-1.829H9.144V1.829A1.831,1.831,0,0,0,7.315,0H5.486A1.831,1.831,0,0,0,3.658,1.829V23.774H1.829A1.831,1.831,0,0,0,0,25.6v1.829a1.831,1.831,0,0,0,1.829,1.829H3.658V38.4a1.831,1.831,0,0,0,1.829,1.829H7.315A1.831,1.831,0,0,0,9.144,38.4V36.576h.561a8.216,8.216,0,0,0,2.767-.479l9.979-3.563,1.258,3.145L16.068,56.693H40.624L32.982,35.677l1.535-3.839a3.162,3.162,0,0,0,.2-.877,14.44,14.44,0,0,0,2.545-.545l-.686,1.372V32a4.572,4.572,0,1,0,9.144,0v-.216L42.628,25.6h8.014l-3.093,6.185V32a4.572,4.572,0,1,0,9.144,0v-.216ZM50.292,7.315a.915.915,0,0,1,.914.914v3.658a.914.914,0,1,1-1.829,0V8.23A.915.915,0,0,1,50.292,7.315ZM45.72,5.486h1.829v6.4s0,.005,0,.007V12.8H45.72ZM32.82,31.161l-1.435,3.586H25.308l-1.435-3.584a1.388,1.388,0,0,1,1.287-1.9h6.372a1.386,1.386,0,0,1,1.287,1.9ZM35.662,14.63h-.914V12.8h.914a.914.914,0,0,1,0,1.829ZM32.918,12.8V14.63H23.774V12.8ZM23.8,10.973a2.04,2.04,0,0,1,2.023-1.829,2.062,2.062,0,0,1,.914.216l1.613.807,1.613-.807A2.035,2.035,0,0,1,32.9,10.973Zm4.55-9.144a2.739,2.739,0,0,1,2.575,1.829H25.772a2.737,2.737,0,0,1,2.574-1.829ZM24.689,5.486H32a4.577,4.577,0,0,1,4.572,4.572v1.083a2.712,2.712,0,0,0-.914-.168h-.936a3.861,3.861,0,0,0-5.584-3.249l-.795.4-.795-.4a3.861,3.861,0,0,0-5.584,3.249h-.936a2.712,2.712,0,0,0-.914.168V10.058A4.577,4.577,0,0,1,24.689,5.486ZM21.031,14.63a.914.914,0,0,1,0-1.829h.914V14.63Zm2.743,2.631v-.8h9.144v.8a3.909,3.909,0,0,1-2.964,3.8l-.693.173V25.6h1.573l-.457,1.829h-4.06L25.859,25.6h1.573V21.232l-.693-.173A3.909,3.909,0,0,1,23.774,17.261ZM5.486,1.829H7.315V23.774H5.486ZM1.829,25.6h9.144v1.829H1.829ZM5.486,38.4V29.261H7.315V38.4Zm16.459-7.758c0,.041.01.08.012.122l-10.1,3.606a6.39,6.39,0,0,1-2.153.372H9.144V29.261h1.45l2.066,2.066,7.585-4.551a8.212,8.212,0,0,1,3.739-1.139l.47,1.879A3.219,3.219,0,0,0,21.946,30.647Zm3.383,5.929h6.035l.226.621L23.4,41.876Zm6.895,2.365,1.326,3.646-3.907-2.171Zm2.343,15.923L32.9,47.351l-1.786.4,1.582,7.117H29.261V45.72H27.432v9.144H24l1.582-7.117-1.786-.4-1.67,7.514H18.679l3.756-10.33,5.351-3.058L34.5,45.208l3.51,9.656Zm6.582-20.117a2.738,2.738,0,0,1-2.574-1.829h5.148a2.738,2.738,0,0,1-2.574,1.829Zm2.178-3.658H38.97l2.178-4.356Zm-2.743-7.315-2.1,4.206a12.658,12.658,0,0,1-4.112,1.182,3.211,3.211,0,0,0-2.128-1.647l.487-1.95a10.064,10.064,0,0,0,9.335-10.022V10.058a.915.915,0,0,1,.914-.914h.914V12.8A1.831,1.831,0,0,0,45.72,14.63v1.985a2.736,2.736,0,0,0,0,5.162v2Zm11.538,2.959L54.3,31.09H49.943Zm0,8.014a2.738,2.738,0,0,1-2.574-1.829h5.148a2.738,2.738,0,0,1-2.574,1.829Z"/>
      </g>
    </g>
  </g>
</svg>
