<svg xmlns="http://www.w3.org/2000/svg" xmlns:xlink="http://www.w3.org/1999/xlink" width="113" height="113" viewBox="0 0 113 113">
  <defs>
    <filter id="Path_982547" x="0" y="0" width="113" height="113" filterUnits="userSpaceOnUse">
      <feOffset dy="3" input="SourceAlpha"/>
      <feGaussianBlur stdDeviation="3" result="blur"/>
      <feFlood flood-opacity="0.161"/>
      <feComposite operator="in" in2="blur"/>
      <feComposite in="SourceGraphic"/>
    </filter>
  </defs>
  <g id="Group_1220586" data-name="Group 1220586" transform="translate(-742.046 -461.808)">
    <g id="Group_1220478" data-name="Group 1220478">
      <g id="Group_1209993" data-name="Group 1209993" transform="translate(0 -7067)">
        <g id="Group_1208706" data-name="Group 1208706" transform="translate(-1.454 3213.429)">
          <g id="Group_1148634" data-name="Group 1148634" transform="translate(488.454 600.047)">
            <g id="Group_1148525" data-name="Group 1148525" transform="translate(264.046 3721.333)">
              <g transform="matrix(1, 0, 0, 1, -9, -6)" filter="url(#Path_982547)">
                <g id="Path_982547-2" data-name="Path 982547" transform="translate(9 6)" fill="#f9e3d4">
                  <path d="M 47.5 93.5 C 41.28937149047852 93.5 35.26533508300781 92.28397369384766 29.59518623352051 89.88570404052734 C 24.11771965026855 87.56893157958984 19.19813346862793 84.25196075439453 14.97309303283691 80.02691650390625 C 10.74804019927979 75.80186462402344 7.431066513061523 70.88229370117188 5.114293098449707 65.40481567382812 C 2.716026782989502 59.73468017578125 1.5 53.71062850952148 1.5 47.5 C 1.5 41.28937149047852 2.716026782989502 35.26533508300781 5.114293098449707 29.59518623352051 C 7.431066513061523 24.11771965026855 10.74804019927979 19.19813346862793 14.97309303283691 14.97309303283691 C 19.19813346862793 10.74804019927979 24.11771965026855 7.431066513061523 29.59518623352051 5.114293098449707 C 35.26533508300781 2.716026782989502 41.28937149047852 1.5 47.5 1.5 C 53.71062850952148 1.5 59.73468017578125 2.716026782989502 65.40481567382812 5.114293098449707 C 70.88229370117188 7.431066513061523 75.80186462402344 10.74804019927979 80.02691650390625 14.97309303283691 C 84.25196075439453 19.19813346862793 87.56893157958984 24.11771965026855 89.88570404052734 29.59518623352051 C 92.28397369384766 35.26533508300781 93.5 41.28937149047852 93.5 47.5 C 93.5 53.71062850952148 92.28397369384766 59.73468017578125 89.88570404052734 65.40481567382812 C 87.56893157958984 70.88229370117188 84.25196075439453 75.80186462402344 80.02691650390625 80.02691650390625 C 75.80186462402344 84.25196075439453 70.88229370117188 87.56893157958984 65.40481567382812 89.88570404052734 C 59.73468017578125 92.28397369384766 53.71062850952148 93.5 47.5 93.5 Z" stroke="none"/>
                  <path d="M 47.5 3 C 41.49121475219727 3 35.66376876831055 4.176155090332031 30.17950439453125 6.495796203613281 C 24.88084411621094 8.736953735351562 20.12152099609375 11.94598388671875 16.03375244140625 16.03375244140625 C 11.94598388671875 20.12152099609375 8.736953735351562 24.88084411621094 6.495796203613281 30.17950439453125 C 4.176155090332031 35.66376876831055 3 41.49121475219727 3 47.5 C 3 53.50878524780273 4.176155090332031 59.33623123168945 6.495796203613281 64.82049560546875 C 8.736953735351562 70.11915588378906 11.94598388671875 74.87847900390625 16.03375244140625 78.96624755859375 C 20.12152099609375 83.05401611328125 24.88084411621094 86.26304626464844 30.17950439453125 88.50419616699219 C 35.66376876831055 90.82384490966797 41.49121475219727 92 47.5 92 C 53.50878524780273 92 59.33623123168945 90.82384490966797 64.82049560546875 88.50419616699219 C 70.11915588378906 86.26304626464844 74.87847900390625 83.05401611328125 78.96624755859375 78.96624755859375 C 83.05401611328125 74.87847900390625 86.26304626464844 70.11915588378906 88.50419616699219 64.82049560546875 C 90.82384490966797 59.33623123168945 92 53.50878524780273 92 47.5 C 92 41.49121475219727 90.82384490966797 35.66376876831055 88.50419616699219 30.17950439453125 C 86.26304626464844 24.88084411621094 83.05401611328125 20.12152099609375 78.96624755859375 16.03375244140625 C 74.87847900390625 11.94598388671875 70.11915588378906 8.736953735351562 64.82049560546875 6.495796203613281 C 59.33623123168945 4.176155090332031 53.50878524780273 3 47.5 3 M 47.5 0 C 73.7335205078125 0 95 21.2664794921875 95 47.5 C 95 73.7335205078125 73.7335205078125 95 47.5 95 C 21.2664794921875 95 0 73.7335205078125 0 47.5 C 0 21.2664794921875 21.2664794921875 0 47.5 0 Z" stroke="none" fill="#eca675"/>
                </g>
              </g>
            </g>
          </g>
        </g>
      </g>
      <g id="liderazgo-intelectual" transform="translate(731.514 476.417)">
        <g id="Group_1220476" data-name="Group 1220476" transform="translate(35.931 1.092)">
          <path id="Path_1169458" data-name="Path 1169458" d="M183.185,130.381l-4.62-6.483a5.459,5.459,0,0,1-1.014-3.171,21.77,21.77,0,0,0-8.666-17.4,4.856,4.856,0,0,1-1.644.936l-.09.03-.009.094a3.431,3.431,0,0,1-1.255,2.348l-.012.01-.01.013a11.5,11.5,0,0,1-20.395-5.288,21.739,21.739,0,0,0-4.882,3.546,7.762,7.762,0,0,1,.241,1.925c0,.12,0,.238-.009.356l0,.068.05.046a11.5,11.5,0,0,1-5.936,19.826,21.7,21.7,0,0,0,2.54,5.386,11.5,11.5,0,1,1,7.127,20.526,11.722,11.722,0,0,1-1.324-.076V158.9a1.456,1.456,0,0,0,1.456,1.456h20.476a1.456,1.456,0,0,0,1.456-1.456v-9.146a2.184,2.184,0,0,1,2.183-2.183h4.34a4.367,4.367,0,0,0,4.367-4.367v-7.358a1.456,1.456,0,0,1,1.456-1.456h2.113a2.536,2.536,0,0,0,2.065-4.007Z" transform="translate(-121.453 -87.791)" fill="#ffb09e"/>
          <path id="Path_1169459" data-name="Path 1169459" d="M231.905,136.558l-4.625-6.489a5.466,5.466,0,0,1-1.015-3.174,21.806,21.806,0,0,0-9.713-18.16,36.3,36.3,0,0,1-24.6,52.062v4.309a1.457,1.457,0,0,0,1.457,1.457h20.5a1.457,1.457,0,0,0,1.457-1.457V155.95a2.186,2.186,0,0,1,2.186-2.186h4.345a4.371,4.371,0,0,0,4.371-4.371v-7.366a1.457,1.457,0,0,1,1.457-1.457h2.115a2.538,2.538,0,0,0,2.067-4.011Z" transform="translate(-170.174 -93.999)" fill="#f89580"/>
          <path id="Path_1169460" data-name="Path 1169460" d="M61.709,138.351a7.572,7.572,0,0,1-2.4,5.333,5.412,5.412,0,0,0-1.728,3.905v3.767a2.04,2.04,0,0,1-2.038,2.038H52.584a2.04,2.04,0,0,1-2.038-2.038v-3.767a5.2,5.2,0,0,0-1.652-3.834,7.663,7.663,0,0,1-2.477-5.542,11.645,11.645,0,1,0,15.291.138Z" transform="translate(-42.339 -119.186)" fill="#05e39c"/>
          <path id="Path_1169461" data-name="Path 1169461" d="M148.488,296a11.621,11.621,0,0,0-9,4.261h9.732a3.5,3.5,0,0,1,3.494,3.493v7.782a3.5,3.5,0,0,1-3.494,3.494h-5.63a.579.579,0,0,0-.412.17l-1.723,1.723A11.645,11.645,0,1,0,148.488,296Z" transform="translate(-125.343 -254.005)" fill="#ffe177"/>
          <g id="Group_1220471" data-name="Group 1220471" transform="translate(3.93 11.136)">
            <path id="Path_1169462" data-name="Path 1169462" d="M77.385,84a7.87,7.87,0,0,0-8.045,7.725,7.773,7.773,0,0,0,2.527,5.812,5.047,5.047,0,0,1,1.6,3.727v.2H80.8v-.2a5.233,5.233,0,0,1,1.683-3.8A7.795,7.795,0,0,0,77.385,84Z" transform="translate(-69.339 -84)" fill="#ffe177"/>
            <path id="Path_1169463" data-name="Path 1169463" d="M77.385,84a7.87,7.87,0,0,0-8.045,7.725,7.773,7.773,0,0,0,2.527,5.812,5.047,5.047,0,0,1,1.6,3.727v.2H80.8v-.2a5.233,5.233,0,0,1,1.683-3.8A7.795,7.795,0,0,0,77.385,84Z" transform="translate(-69.339 -84)" fill="#ffe177"/>
            <path id="Path_1169464" data-name="Path 1169464" d="M91.292,89.46a8.156,8.156,0,0,1-9.4,12.011,7.869,7.869,0,0,0,.7.734,5.047,5.047,0,0,1,1.6,3.727v.2h7.328v-.2a5.233,5.233,0,0,1,1.683-3.8A7.795,7.795,0,0,0,91.292,89.46Z" transform="translate(-80.066 -88.665)" fill="#ffd15b"/>
            <path id="Path_1169465" data-name="Path 1169465" d="M102.869,209.72H99.907a2.184,2.184,0,0,1-2.183-2.183v-3.571h7.328v3.571A2.184,2.184,0,0,1,102.869,209.72Z" transform="translate(-93.592 -186.502)" fill="#cbc4cc"/>
            <path id="Path_1169466" data-name="Path 1169466" d="M102.011,204.625a2.184,2.184,0,0,1-2.183,2.183h-2.1v.728a2.184,2.184,0,0,0,2.183,2.183h2.961a2.184,2.184,0,0,0,2.183-2.183v-3.571h-3.041v.66Z" transform="translate(-93.592 -186.502)" fill="#b5adb6"/>
          </g>
          <g id="Group_1220474" data-name="Group 1220474" transform="translate(23.727)">
            <path id="Path_1169467" data-name="Path 1169467" d="M223.861,27.006a3.461,3.461,0,0,1-3.457-3.457V14.742a3.46,3.46,0,0,1,5.735-2.6v-.185a11.645,11.645,0,1,0,0,14.387v-.185A3.446,3.446,0,0,1,223.861,27.006Z" transform="translate(-205.339 -7.5)" fill="#ffe177"/>
            <g id="Group_1220473" data-name="Group 1220473" transform="translate(4.311 3.639)">
              <path id="Path_1169468" data-name="Path 1169468" d="M241.959,32.5a3.6,3.6,0,0,0-3.585,3.26,5,5,0,0,0,0,9.493,3.6,3.6,0,0,0,7.188-.343V36.1A3.6,3.6,0,0,0,241.959,32.5Z" transform="translate(-234.954 -32.5)" fill="#fd8087"/>
              <g id="Group_1220472" data-name="Group 1220472" transform="translate(4.045 0.025)">
                <path id="Path_1169469" data-name="Path 1169469" d="M266.119,32.67V43.506a3.6,3.6,0,0,1-3.377,3.595,3.6,3.6,0,0,0,6.563-2.046V36.248A3.6,3.6,0,0,0,266.119,32.67Z" transform="translate(-262.742 -32.67)" fill="#fe646f"/>
              </g>
              <path id="Path_1169470" data-name="Path 1169470" d="M311.432,32.5a3.6,3.6,0,0,1,3.585,3.26,5,5,0,0,1,0,9.493,3.6,3.6,0,0,1-7.188-.343V36.1A3.6,3.6,0,0,1,311.432,32.5Z" transform="translate(-297.221 -32.5)" fill="#fd8087"/>
              <path id="Path_1169471" data-name="Path 1169471" d="M311.432,32.5a3.6,3.6,0,0,1,3.585,3.26,5,5,0,0,1,0,9.493,3.6,3.6,0,0,1-7.188-.343V36.1A3.6,3.6,0,0,1,311.432,32.5Z" transform="translate(-297.221 -32.5)" fill="#fd8087"/>
              <path id="Path_1169472" data-name="Path 1169472" d="M319.536,57.864a5.976,5.976,0,0,1-3.391,6.668,1.188,1.188,0,0,0-.663.814,4.3,4.3,0,0,1-3.475,3.238,3.6,3.6,0,0,0,6.58-1.66,5,5,0,0,0,.948-9.06Z" transform="translate(-300.791 -54.172)" fill="#fe646f"/>
            </g>
          </g>
          <g id="Group_1220475" data-name="Group 1220475" transform="translate(7.874 46.11)">
            <path id="Path_1169473" data-name="Path 1169473" d="M112.432,324.27H100.073a3.639,3.639,0,0,0-3.639,3.639v7.782a3.639,3.639,0,0,0,3.639,3.639h1.683a.437.437,0,0,1,.437.437v2.939a.437.437,0,0,0,.745.309l3.556-3.556a.437.437,0,0,1,.309-.128h5.63a3.639,3.639,0,0,0,3.639-3.639v-7.782a3.639,3.639,0,0,0-3.639-3.639Z" transform="translate(-96.434 -324.27)" fill="#26a6fe"/>
            <path id="Path_1169474" data-name="Path 1169474" d="M112.432,324.27v9.238a2.184,2.184,0,0,1-2.183,2.183H96.434a3.639,3.639,0,0,0,3.639,3.639h1.682a.437.437,0,0,1,.437.437v2.939a.437.437,0,0,0,.745.309l3.556-3.556a.437.437,0,0,1,.309-.128h5.63a3.639,3.639,0,0,0,3.639-3.639v-7.782a3.639,3.639,0,0,0-3.639-3.639Z" transform="translate(-96.434 -324.27)" fill="#0593fc"/>
          </g>
        </g>
        <g id="Group_1220477" data-name="Group 1220477" transform="translate(34.839 0)">
          <path id="Path_1169475" data-name="Path 1169475" d="M98.552,42.831l-4.62-6.483a4.344,4.344,0,0,1-.811-2.537,22.726,22.726,0,0,0-8.052-17.43A6.1,6.1,0,0,0,82.736,7.2a4.663,4.663,0,0,0-1.652-2.565l.028-.023A12.731,12.731,0,0,0,63.961,2.332a1.092,1.092,0,1,0,1.26,1.783A10.543,10.543,0,0,1,76.929,3.81a4.706,4.706,0,0,0-2.352,1.518A4.692,4.692,0,0,0,66.417,7.2a6.1,6.1,0,0,0,0,11.068,4.692,4.692,0,0,0,8.16,1.875,4.707,4.707,0,0,0,2.355,1.519A10.553,10.553,0,0,1,62.093,7.585a1.125,1.125,0,0,0-.351-1.509,1.092,1.092,0,0,0-1.524.39,12.749,12.749,0,0,0-1.586,7.571,22.829,22.829,0,0,0-2.988,2.086,8.893,8.893,0,0,0-7.7-4.984,8.782,8.782,0,0,0-4.728,1.216,1.092,1.092,0,1,0,1.106,1.883,6.6,6.6,0,0,1,3.553-.917A6.7,6.7,0,0,1,52.255,24.9,6.431,6.431,0,0,0,50.3,28.6H48.748V22.362h.558a1.092,1.092,0,1,0,0-2.183h-3.3a1.092,1.092,0,1,0,0,2.183h.558V28.6H45.021a6.1,6.1,0,0,0-1.894-3.635,6.716,6.716,0,0,1-2.173-5,6.5,6.5,0,0,1,.481-2.4,1.092,1.092,0,0,0-2.024-.82,8.678,8.678,0,0,0-.635,3.016,12.733,12.733,0,0,0,8.8,21.939c.382,0,.76-.018,1.134-.051a22.8,22.8,0,0,0,1.746,3.707q-.389.358-.75.75H47.444a4.736,4.736,0,0,0-4.731,4.731v.98a1.092,1.092,0,0,0,2.183,0v-.98a2.55,2.55,0,0,1,2.547-2.547H59.8a2.55,2.55,0,0,1,2.547,2.547v7.782A2.55,2.55,0,0,1,59.8,61.17h-5.63a1.518,1.518,0,0,0-1.081.448l-2.438,2.438V62.7a1.53,1.53,0,0,0-1.528-1.528H47.444A2.55,2.55,0,0,1,44.9,58.623V56.915a1.092,1.092,0,1,0-2.183,0v1.707a4.736,4.736,0,0,0,4.731,4.731h1.027v2.283a1.528,1.528,0,0,0,2.609,1.081l1.208-1.208a12.6,12.6,0,0,0,4.37,1.729v4.742a2.55,2.55,0,0,0,2.547,2.547H79.683a2.55,2.55,0,0,0,2.547-2.547V62.835a1.093,1.093,0,0,1,1.092-1.092h4.34a5.465,5.465,0,0,0,5.459-5.459V48.927a.364.364,0,0,1,.364-.364H95.6a3.628,3.628,0,0,0,2.954-5.733ZM73.485,17.14a2.511,2.511,0,0,1-4.857.894l1.486-.846a1.092,1.092,0,1,0-1.08-1.9l-1.726.983a3.907,3.907,0,0,1,0-7.073l1.174.669v1.117a1.092,1.092,0,0,0,2.183,0V9.816A2.1,2.1,0,0,0,69.607,8l-.98-.558a2.511,2.511,0,0,1,4.857.894Zm2.183,0V8.334a2.511,2.511,0,0,1,4.857-.894L79.546,8a2.1,2.1,0,0,0-1.057,1.818v1.17a1.092,1.092,0,1,0,2.183,0V9.869L81.846,9.2a3.907,3.907,0,0,1,0,7.073l-1.726-.983a1.092,1.092,0,1,0-1.08,1.9l1.486.846a2.511,2.511,0,0,1-4.857-.894ZM45.084,30.782h5.145v2.48a1.093,1.093,0,0,1-1.092,1.092H46.176a1.093,1.093,0,0,1-1.092-1.092Zm2.491,8.739a10.546,10.546,0,0,1-8.418-16.909,8.9,8.9,0,0,0,2.492,3.961A3.96,3.96,0,0,1,42.9,29.495v3.767a3.279,3.279,0,0,0,3.275,3.275h2.961a3.279,3.279,0,0,0,3.275-3.275V29.495a4.115,4.115,0,0,1,1.34-3.005,8.913,8.913,0,0,0,2.355-3.727,10.548,10.548,0,0,1-8.531,16.758Zm6.869,23.833H59.8a4.736,4.736,0,0,0,4.731-4.731V50.841A4.736,4.736,0,0,0,59.8,46.11H53a10.549,10.549,0,1,1,.881,17.809ZM95.6,46.38H93.485a2.55,2.55,0,0,0-2.547,2.547v7.358a3.279,3.279,0,0,1-3.275,3.275h-4.34a3.279,3.279,0,0,0-3.275,3.275v9.146a.364.364,0,0,1-.364.364H59.207a.364.364,0,0,1-.364-.364V67.465c.078,0,.155,0,.233,0A12.737,12.737,0,1,0,52.2,44.012a20.643,20.643,0,0,1-1.3-2.748,12.734,12.734,0,0,0,5.646-21.34,8.966,8.966,0,0,0-.154-1.563,20.654,20.654,0,0,1,2.692-2.038,12.734,12.734,0,0,0,22.137,4.405,4.662,4.662,0,0,0,1.519-2.456,6.1,6.1,0,0,0,.719-.394A20.563,20.563,0,0,1,90.937,33.81a6.517,6.517,0,0,0,1.216,3.8l4.62,6.483A1.444,1.444,0,0,1,95.6,46.38Z" transform="translate(-34.839 0)"/>
          <path id="Path_1169476" data-name="Path 1169476" d="M132.668,356H122.479a1.092,1.092,0,1,0,0,2.183h10.189a1.092,1.092,0,0,0,0-2.183Z" transform="translate(-108.789 -304.179)"/>
          <path id="Path_1169477" data-name="Path 1169477" d="M122.479,383.184h1.7a1.092,1.092,0,1,0,0-2.183h-1.7a1.092,1.092,0,1,0,0,2.183Z" transform="translate(-108.789 -325.54)"/>
          <path id="Path_1169478" data-name="Path 1169478" d="M161.423,381h-5.291a1.092,1.092,0,1,0,0,2.183h5.291a1.092,1.092,0,0,0,0-2.183Z" transform="translate(-137.543 -325.54)"/>
        </g>
      </g>
    </g>
  </g>
</svg>
