<svg xmlns="http://www.w3.org/2000/svg" xmlns:xlink="http://www.w3.org/1999/xlink" width="108" height="108" viewBox="0 0 108 108">
  <defs>
    <filter id="Path_978624" x="0" y="0" width="108" height="108" filterUnits="userSpaceOnUse">
      <feOffset dy="3" input="SourceAlpha"/>
      <feGaussianBlur stdDeviation="3" result="blur"/>
      <feFlood flood-opacity="0.161"/>
      <feComposite operator="in" in2="blur"/>
      <feComposite in="SourceGraphic"/>
    </filter>
    <filter id="Path_1076716" x="0" y="0" width="108" height="108" filterUnits="userSpaceOnUse">
      <feOffset dy="3" input="SourceAlpha"/>
      <feGaussianBlur stdDeviation="3" result="blur-2"/>
      <feFlood flood-opacity="0.161"/>
      <feComposite operator="in" in2="blur-2"/>
      <feComposite in="SourceGraphic"/>
    </filter>
  </defs>
  <g id="Group_1220638" data-name="Group 1220638" transform="translate(-619 -7810)">
    <g id="Group_1220540" data-name="Group 1220540">
      <g id="Group_1220539" data-name="Group 1220539" transform="translate(423 414.885)">
        <g id="Group_1208503" data-name="Group 1208503" transform="translate(-420 6909.115)">
          <g id="Group_1200660" data-name="Group 1200660">
            <g id="Group_1181203" data-name="Group 1181203" transform="translate(625 492)">
              <g id="Group_1172348" data-name="Group 1172348" transform="translate(0)">
                <g id="Group_1171897" data-name="Group 1171897">
                  <g id="Group_1171052" data-name="Group 1171052">
                    <g id="Group_1164581" data-name="Group 1164581">
                      <g id="Group_1144123" data-name="Group 1144123">
                        <g transform="matrix(1, 0, 0, 1, -9, -6)" filter="url(#Path_978624)">
                          <g id="Path_978624-2" data-name="Path 978624" transform="translate(9 6)" fill="#f7f5f3">
                            <path d="M 45 88.5 C 39.12687683105469 88.5 33.43022537231445 87.35007476806641 28.06830024719238 85.08217620849609 C 22.88852500915527 82.89131164550781 18.23629951477051 79.75458526611328 14.2408504486084 75.75914764404297 C 10.24541282653809 71.76370239257812 7.108687400817871 67.11147308349609 4.917825222015381 61.93170166015625 C 2.649924993515015 56.56977462768555 1.5 50.87312316894531 1.5 45 C 1.5 39.12687683105469 2.649924993515015 33.43022537231445 4.917825222015381 28.06830024719238 C 7.108687400817871 22.88852500915527 10.24541282653809 18.23629951477051 14.2408504486084 14.2408504486084 C 18.23629951477051 10.24541282653809 22.88852500915527 7.108687400817871 28.06830024719238 4.917825222015381 C 33.43022537231445 2.649924993515015 39.12687683105469 1.5 45 1.5 C 50.87312316894531 1.5 56.56977462768555 2.649924993515015 61.93170166015625 4.917825222015381 C 67.11147308349609 7.108687400817871 71.76370239257812 10.24541282653809 75.75914764404297 14.2408504486084 C 79.75458526611328 18.23629951477051 82.89131164550781 22.88852500915527 85.08217620849609 28.06830024719238 C 87.35007476806641 33.43022537231445 88.5 39.12687683105469 88.5 45 C 88.5 50.87312316894531 87.35007476806641 56.56977462768555 85.08217620849609 61.93170166015625 C 82.89131164550781 67.11147308349609 79.75458526611328 71.76370239257812 75.75914764404297 75.75914764404297 C 71.76370239257812 79.75458526611328 67.11147308349609 82.89131164550781 61.93170166015625 85.08217620849609 C 56.56977462768555 87.35007476806641 50.87312316894531 88.5 45 88.5 Z" stroke="none"/>
                            <path d="M 45 3 C 39.32871246337891 3 33.82865524291992 4.110054016113281 28.65262985229492 6.299339294433594 C 23.65165710449219 8.414573669433594 19.15968322753906 11.44334411621094 15.301513671875 15.301513671875 C 11.44334411621094 19.15968322753906 8.414573669433594 23.65165710449219 6.299339294433594 28.65262985229492 C 4.110054016113281 33.82865524291992 3 39.32871246337891 3 45 C 3 50.67128753662109 4.110054016113281 56.17134475708008 6.299339294433594 61.34737396240234 C 8.414573669433594 66.34834289550781 11.44334411621094 70.84031677246094 15.301513671875 74.698486328125 C 19.15968322753906 78.55665588378906 23.65165710449219 81.58542633056641 28.65262985229492 83.70066070556641 C 33.82865524291992 85.88994598388672 39.32871246337891 87 45 87 C 50.67128753662109 87 56.17134475708008 85.88994598388672 61.34737396240234 83.70066070556641 C 66.34834289550781 81.58542633056641 70.84031677246094 78.55665588378906 74.698486328125 74.698486328125 C 78.55665588378906 70.84031677246094 81.58542633056641 66.34834289550781 83.70066070556641 61.34737396240234 C 85.88994598388672 56.17134475708008 87 50.67128753662109 87 45 C 87 39.32871246337891 85.88994598388672 33.82865524291992 83.70066070556641 28.65262985229492 C 81.58542633056641 23.65165710449219 78.55665588378906 19.15968322753906 74.698486328125 15.301513671875 C 70.84031677246094 11.44334411621094 66.34834289550781 8.414573669433594 61.34737396240234 6.299339294433594 C 56.17134475708008 4.110054016113281 50.67128753662109 3 45 3 M 45 0 C 69.85281372070312 0 90 20.14718627929688 90 45 C 90 69.85281372070312 69.85281372070312 90 45 90 C 20.14718627929688 90 0 69.85281372070312 0 45 C 0 20.14718627929688 20.14718627929688 0 45 0 Z" stroke="none" fill="#bca78f"/>
                          </g>
                        </g>
                        <g transform="matrix(1, 0, 0, 1, -9, -6)" filter="url(#Path_1076716)">
                          <g id="Path_1076716-2" data-name="Path 1076716" transform="translate(9 6)" fill="#f7f5f3">
                            <path d="M 45 88.5 C 39.12687683105469 88.5 33.43022537231445 87.35007476806641 28.06830024719238 85.08217620849609 C 22.88852500915527 82.89131164550781 18.23629951477051 79.75458526611328 14.2408504486084 75.75914764404297 C 10.24541282653809 71.76370239257812 7.108687400817871 67.11147308349609 4.917825222015381 61.93170166015625 C 2.649924993515015 56.56977462768555 1.5 50.87312316894531 1.5 45 C 1.5 39.12687683105469 2.649924993515015 33.43022537231445 4.917825222015381 28.06830024719238 C 7.108687400817871 22.88852500915527 10.24541282653809 18.23629951477051 14.2408504486084 14.2408504486084 C 18.23629951477051 10.24541282653809 22.88852500915527 7.108687400817871 28.06830024719238 4.917825222015381 C 33.43022537231445 2.649924993515015 39.12687683105469 1.5 45 1.5 C 50.87312316894531 1.5 56.56977462768555 2.649924993515015 61.93170166015625 4.917825222015381 C 67.11147308349609 7.108687400817871 71.76370239257812 10.24541282653809 75.75914764404297 14.2408504486084 C 79.75458526611328 18.23629951477051 82.89131164550781 22.88852500915527 85.08217620849609 28.06830024719238 C 87.35007476806641 33.43022537231445 88.5 39.12687683105469 88.5 45 C 88.5 50.87312316894531 87.35007476806641 56.56977462768555 85.08217620849609 61.93170166015625 C 82.89131164550781 67.11147308349609 79.75458526611328 71.76370239257812 75.75914764404297 75.75914764404297 C 71.76370239257812 79.75458526611328 67.11147308349609 82.89131164550781 61.93170166015625 85.08217620849609 C 56.56977462768555 87.35007476806641 50.87312316894531 88.5 45 88.5 Z" stroke="none"/>
                            <path d="M 45 3 C 39.32871246337891 3 33.82865524291992 4.110054016113281 28.65262985229492 6.299339294433594 C 23.65165710449219 8.414573669433594 19.15968322753906 11.44334411621094 15.301513671875 15.301513671875 C 11.44334411621094 19.15968322753906 8.414573669433594 23.65165710449219 6.299339294433594 28.65262985229492 C 4.110054016113281 33.82865524291992 3 39.32871246337891 3 45 C 3 50.67128753662109 4.110054016113281 56.17134475708008 6.299339294433594 61.34737396240234 C 8.414573669433594 66.34834289550781 11.44334411621094 70.84031677246094 15.301513671875 74.698486328125 C 19.15968322753906 78.55665588378906 23.65165710449219 81.58542633056641 28.65262985229492 83.70066070556641 C 33.82865524291992 85.88994598388672 39.32871246337891 87 45 87 C 50.67128753662109 87 56.17134475708008 85.88994598388672 61.34737396240234 83.70066070556641 C 66.34834289550781 81.58542633056641 70.84031677246094 78.55665588378906 74.698486328125 74.698486328125 C 78.55665588378906 70.84031677246094 81.58542633056641 66.34834289550781 83.70066070556641 61.34737396240234 C 85.88994598388672 56.17134475708008 87 50.67128753662109 87 45 C 87 39.32871246337891 85.88994598388672 33.82865524291992 83.70066070556641 28.65262985229492 C 81.58542633056641 23.65165710449219 78.55665588378906 19.15968322753906 74.698486328125 15.301513671875 C 70.84031677246094 11.44334411621094 66.34834289550781 8.414573669433594 61.34737396240234 6.299339294433594 C 56.17134475708008 4.110054016113281 50.67128753662109 3 45 3 M 45 0 C 69.85281372070312 0 90 20.14718627929688 90 45 C 90 69.85281372070312 69.85281372070312 90 45 90 C 20.14718627929688 90 0 69.85281372070312 0 45 C 0 20.14718627929688 20.14718627929688 0 45 0 Z" stroke="none" fill="#bca78f"/>
                          </g>
                        </g>
                      </g>
                    </g>
                  </g>
                </g>
              </g>
            </g>
          </g>
        </g>
      </g>
      <g id="Group_1215669" data-name="Group 1215669" transform="translate(422.019 4996.73)">
        <g id="despacho-de-abogados" transform="translate(215.133 2837.574)">
          <g id="Group_1215667" data-name="Group 1215667" transform="translate(1.016 1.033)">
            <g id="Group_1215655" data-name="Group 1215655" transform="translate(0 0)">
              <path id="Path_1159993" data-name="Path 1159993" d="M26.016,460.02H91.027a2.177,2.177,0,0,1,2.171,2.171v2.171H23.845v-2.171a2.177,2.177,0,0,1,2.171-2.171Z" transform="translate(-23.689 -394.731)" fill="#a36b4c" fill-rule="evenodd"/>
              <path id="Path_1159994" data-name="Path 1159994" d="M38.769,460.02h63.107a2.177,2.177,0,0,1,2.171,2.171v2.171H36.6v-2.171a2.177,2.177,0,0,1,2.171-2.171Z" transform="translate(-34.537 -394.731)" fill="#b17852" fill-rule="evenodd"/>
              <path id="Path_1159995" data-name="Path 1159995" d="M23.237,41.89H92.031a.436.436,0,0,0,.435-.435V37.391a.428.428,0,0,0-.271-.4L57.8,22.948a.421.421,0,0,0-.329,0l-34.4,14.039a.428.428,0,0,0-.271.4v4.064a.436.436,0,0,0,.435.435Z" transform="translate(-22.802 -22.915)" fill="#a7733e" fill-rule="evenodd"/>
              <path id="Path_1159996" data-name="Path 1159996" d="M46.557,45.747h65.311a.436.436,0,0,0,.435-.435V41.247a.428.428,0,0,0-.271-.4l-32.82-13.4-32.82,13.4a.428.428,0,0,0-.271.4v4.064a.436.436,0,0,0,.435.435Z" transform="translate(-42.639 -26.772)" fill="#b4813a" fill-rule="evenodd"/>
            </g>
            <g id="Group_1215660" data-name="Group 1215660" transform="translate(3.366 18.976)">
              <g id="Group_1215657" data-name="Group 1215657" transform="translate(54.009)">
                <path id="Path_1159997" data-name="Path 1159997" d="M422.336,180.179h4.318v37.285h-4.318Z" transform="translate(-420.033 -175.664)" fill="#b4813a"/>
                <g id="Group_1215656" data-name="Group 1215656">
                  <path id="Path_1159998" data-name="Path 1159998" d="M406.917,149.954h8.924v4.515h-8.924Z" transform="translate(-406.917 -149.954)" fill="#b17852"/>
                  <path id="Path_1159999" data-name="Path 1159999" d="M406.917,429.8h8.924v4.515h-8.924Z" transform="translate(-406.917 -387.997)" fill="#b17852"/>
                </g>
              </g>
              <g id="Group_1215659" data-name="Group 1215659">
                <path id="Path_1160000" data-name="Path 1160000" d="M60.755,180.179h4.318v37.285H60.755Z" transform="translate(-58.452 -175.664)" fill="#b4813a"/>
                <g id="Group_1215658" data-name="Group 1215658">
                  <path id="Path_1160001" data-name="Path 1160001" d="M45.336,149.954H54.26v4.515H45.336Z" transform="translate(-45.336 -149.954)" fill="#b17852"/>
                  <path id="Path_1160002" data-name="Path 1160002" d="M45.336,429.8H54.26v4.515H45.336Z" transform="translate(-45.336 -387.997)" fill="#b17852"/>
                </g>
              </g>
            </g>
            <g id="Group_1215662" data-name="Group 1215662" transform="translate(3.366 18.976)">
              <path id="Path_1160003" data-name="Path 1160003" d="M60.755,180.179h1.527v37.285H60.755Z" transform="translate(-58.452 -175.665)" fill="#a7733e"/>
              <g id="Group_1215661" data-name="Group 1215661">
                <path id="Path_1160004" data-name="Path 1160004" d="M45.336,149.956h1.49v4.514h-1.49Z" transform="translate(-45.336 -149.956)" fill="#a46b4d"/>
                <path id="Path_1160005" data-name="Path 1160005" d="M45.336,429.795h1.49v4.515h-1.49Z" transform="translate(-45.336 -387.996)" fill="#a46b4d"/>
              </g>
            </g>
            <rect id="Rectangle_420184" data-name="Rectangle 420184" width="39.098" height="3.468" rx="1.734" transform="translate(15.283 30.731)" fill="#a7733e"/>
            <path id="Path_1160006" data-name="Path 1160006" d="M164.421,235.107a1.741,1.741,0,0,1-1.691,1.353H127.1a1.387,1.387,0,1,1,0-2.706h35.63A1.74,1.74,0,0,1,164.421,235.107Z" transform="translate(-110.082 -202.261)" fill="#b4813a" fill-rule="evenodd"/>
            <path id="Path_1160007" data-name="Path 1160007" d="M246.126,180.468a1.735,1.735,0,0,1,1.734,1.734V220.49a1.734,1.734,0,1,1-3.468,0V182.2a1.735,1.735,0,0,1,1.734-1.734Z" transform="translate(-211.294 -156.935)" fill="#b4813a"/>
            <path id="Path_1160008" data-name="Path 1160008" d="M244.519,221.982a1.718,1.718,0,0,1-.127-.648V183.045a1.74,1.74,0,0,1,1.035-1.586v40.523h-.908Z" transform="translate(-211.294 -157.778)" fill="#a7733e" fill-rule="evenodd"/>
            <g id="Group_1215663" data-name="Group 1215663" transform="translate(44.473 35.074)">
              <path id="Path_1160009" data-name="Path 1160009" d="M331.415,355.178a5.435,5.435,0,0,1-10.869,0Z" transform="translate(-320.546 -340.622)" fill="#aa763d" fill-rule="evenodd"/>
              <path id="Path_1160010" data-name="Path 1160010" d="M338.544,355.178a4.841,4.841,0,1,1-9.618,0Z" transform="translate(-327.674 -340.622)" fill="#b4813a" fill-rule="evenodd"/>
              <path id="Path_1160011" data-name="Path 1160011" d="M325.57,258.02l-5.024,14.265h10.87l-5.024-14.265a.435.435,0,0,0-.821,0Z" transform="translate(-320.546 -257.729)" fill="#c79736" fill-rule="evenodd"/>
              <path id="Path_1160012" data-name="Path 1160012" d="M328.927,277.421h9.618l-4.809-13.654Z" transform="translate(-327.675 -262.865)" fill="#cd9e34" fill-rule="evenodd"/>
            </g>
            <path id="Path_1160013" data-name="Path 1160013" d="M198.8,430.955h13.4a2.177,2.177,0,0,1,2.171,2.171V435.3H196.626v-2.171a2.177,2.177,0,0,1,2.171-2.171Z" transform="translate(-170.662 -370.007)" fill="#b17852" fill-rule="evenodd"/>
            <path id="Path_1160014" data-name="Path 1160014" d="M196.627,452.754h17.737v1.085H196.627Z" transform="translate(-170.663 -388.55)" fill="#a36b4c"/>
            <circle id="Ellipse_14309" data-name="Ellipse 14309" cx="4.505" cy="4.505" r="4.505" transform="translate(30.118 28.611) rotate(-2.579)" fill="#eac165"/>
            <rect id="Rectangle_420185" data-name="Rectangle 420185" width="23.943" height="3.955" rx="1.978" transform="translate(23.364 9.996)" fill="#eac165"/>
            <g id="Group_1215664" data-name="Group 1215664" transform="translate(14.322 35.074)">
              <path id="Path_1160015" data-name="Path 1160015" d="M129.553,355.178a5.435,5.435,0,0,1-10.87,0Z" transform="translate(-118.684 -340.622)" fill="#aa763d" fill-rule="evenodd"/>
              <path id="Path_1160016" data-name="Path 1160016" d="M136.682,355.178a4.841,4.841,0,1,1-9.618,0Z" transform="translate(-125.812 -340.622)" fill="#b4813a" fill-rule="evenodd"/>
              <path id="Path_1160017" data-name="Path 1160017" d="M123.708,258.02l-5.024,14.265h10.87l-5.024-14.265a.435.435,0,0,0-.821,0Z" transform="translate(-118.684 -257.729)" fill="#c79736" fill-rule="evenodd"/>
              <path id="Path_1160018" data-name="Path 1160018" d="M127.065,277.421h9.618l-4.809-13.654Z" transform="translate(-125.813 -262.865)" fill="#cd9e34" fill-rule="evenodd"/>
            </g>
            <g id="Group_1215666" data-name="Group 1215666" transform="translate(57.374 18.976)">
              <path id="Path_1160019" data-name="Path 1160019" d="M422.336,180.179h1.527v37.285h-1.527Z" transform="translate(-420.033 -175.665)" fill="#a7733e"/>
              <g id="Group_1215665" data-name="Group 1215665" transform="translate(0)">
                <path id="Path_1160020" data-name="Path 1160020" d="M406.917,149.956h1.49v4.514h-1.49Z" transform="translate(-406.917 -149.956)" fill="#a46b4d"/>
                <path id="Path_1160021" data-name="Path 1160021" d="M406.917,429.795h1.49v4.515h-1.49Z" transform="translate(-406.917 -387.996)" fill="#a46b4d"/>
              </g>
            </g>
          </g>
          <g id="Group_1215668" data-name="Group 1215668" transform="translate(0 0)">
            <path id="Path_1160022" data-name="Path 1160022" d="M19.071,457.665H86.392V456.51a1.155,1.155,0,0,0-1.154-1.155H20.226a1.157,1.157,0,0,0-1.156,1.155v1.155ZM87.408,459.7H18.055a1.017,1.017,0,0,1-1.016-1.016V456.51a3.191,3.191,0,0,1,3.187-3.187H85.238a3.19,3.19,0,0,1,3.186,3.187v2.171a1.016,1.016,0,0,1-1.016,1.016Z" transform="translate(-16.884 -388.001)" fill-rule="evenodd"/>
            <path id="Path_1160023" data-name="Path 1160023" d="M18.032,35.01H85.665V31.917l-33.816-13.8-33.816,13.8V35.01Zm68.649,2.032H17.016A1.015,1.015,0,0,1,16,36.026V31.233a1.017,1.017,0,0,1,.631-.94L51.464,16.077a1.02,1.02,0,0,1,.768,0L87.064,30.293a1.016,1.016,0,0,1,.633.941v4.792a1.016,1.016,0,0,1-1.016,1.016Z" transform="translate(-16 -16.002)" fill-rule="evenodd"/>
            <path id="Path_1160024" data-name="Path 1160024" d="M416.551,212.388a1.016,1.016,0,0,1-1.016-1.016V174.318a1.016,1.016,0,0,1,2.032,0v37.054a1.017,1.017,0,0,1-1.016,1.016Zm4.318,0a1.016,1.016,0,0,1-1.016-1.016V174.318a1.016,1.016,0,1,1,2.032,0v37.054a1.017,1.017,0,0,1-1.016,1.016Z" transform="translate(-355.857 -149.806)" fill-rule="evenodd"/>
            <path id="Path_1160025" data-name="Path 1160025" d="M410.055,427.893a1.015,1.015,0,0,1-1.016-1.016v-3.47h-6.892v3.47a1.016,1.016,0,0,1-2.032,0v-4.486a1.015,1.015,0,0,1,1.016-1.016h8.924a1.016,1.016,0,0,1,1.016,1.016v4.486A1.016,1.016,0,0,1,410.055,427.893Z" transform="translate(-342.741 -360.825)" fill-rule="evenodd"/>
            <path id="Path_1160026" data-name="Path 1160026" d="M54.968,212.388a1.016,1.016,0,0,1-1.016-1.016V174.318a1.016,1.016,0,0,1,2.032,0v37.054a1.017,1.017,0,0,1-1.016,1.016Zm4.318,0a1.016,1.016,0,0,1-1.016-1.016V174.318a1.016,1.016,0,1,1,2.032,0v37.054A1.016,1.016,0,0,1,59.286,212.388Z" transform="translate(-48.283 -149.806)" fill-rule="evenodd"/>
            <path id="Path_1160027" data-name="Path 1160027" d="M48.473,427.893a1.015,1.015,0,0,1-1.016-1.016v-3.47H40.565v3.47a1.016,1.016,0,0,1-2.032,0v-4.486a1.015,1.015,0,0,1,1.016-1.016h8.924a1.015,1.015,0,0,1,1.016,1.016v4.486A1.015,1.015,0,0,1,48.473,427.893Z" transform="translate(-35.167 -360.825)" fill-rule="evenodd"/>
            <path id="Path_1160028" data-name="Path 1160028" d="M134.566,227.461h-13.5a2.75,2.75,0,1,1,0-5.5h13.863a1.016,1.016,0,0,1,0,2.032H121.066a.718.718,0,1,0,0,1.435h13.5a1.016,1.016,0,0,1,0,2.032Zm22.13,0h-13.5a1.016,1.016,0,1,1,0-2.032h13.5a.718.718,0,0,0,0-1.435H142.833a1.016,1.016,0,1,1,0-2.032H156.7a2.75,2.75,0,0,1,0,5.5Z" transform="translate(-103.032 -191.198)" fill-rule="evenodd"/>
            <path id="Path_1160029" data-name="Path 1160029" d="M238.6,181.013A1.017,1.017,0,0,1,237.587,180v-3.469a2.75,2.75,0,1,1,5.5,0V180a1.016,1.016,0,1,1-2.032,0v-3.469a.718.718,0,1,0-1.436,0V180a1.016,1.016,0,0,1-1.016,1.016Zm0,32.211a1.016,1.016,0,0,1-1.016-1.016V188.316a1.016,1.016,0,1,1,2.032,0v23.892a1.015,1.015,0,0,1-1.016,1.016Zm3.467,0a1.016,1.016,0,0,1-1.016-1.016V188.316a1.016,1.016,0,1,1,2.032,0v23.892a1.015,1.015,0,0,1-1.016,1.016Z" transform="translate(-204.489 -150.211)" fill-rule="evenodd"/>
            <path id="Path_1160030" data-name="Path 1160030" d="M118.333,355.949a6.457,6.457,0,0,1-6.45-6.451,1.016,1.016,0,0,1,2.032,0,4.419,4.419,0,1,0,8.837,0,1.016,1.016,0,1,1,2.032,0,6.458,6.458,0,0,1-6.451,6.451Z" transform="translate(-97.561 -298.82)" fill-rule="evenodd"/>
            <path id="Path_1160031" data-name="Path 1160031" d="M114.329,260.608h2.984v-8.471Zm4,2.032H112.9a1.015,1.015,0,0,1-.959-1.352l5.435-15.431a1.015,1.015,0,0,1,1.974.337v15.431a1.015,1.015,0,0,1-1.016,1.016Z" transform="translate(-97.557 -210.946)" fill-rule="evenodd"/>
            <path id="Path_1160032" data-name="Path 1160032" d="M154.713,262.64h-5.435a1.016,1.016,0,0,1,0-2.032h4l-4.958-14.077a1.016,1.016,0,1,1,1.917-.675l5.434,15.431a1.015,1.015,0,0,1-.958,1.353Z" transform="translate(-128.506 -210.946)" fill-rule="evenodd"/>
            <path id="Path_1160033" data-name="Path 1160033" d="M320.194,355.949a6.458,6.458,0,0,1-6.45-6.451,1.016,1.016,0,0,1,2.032,0,4.419,4.419,0,1,0,8.837,0,1.016,1.016,0,1,1,2.032,0,6.458,6.458,0,0,1-6.451,6.451Z" transform="translate(-269.271 -298.82)" fill-rule="evenodd"/>
            <path id="Path_1160034" data-name="Path 1160034" d="M316.19,260.608h2.984v-8.471Zm4,2.032h-5.434a1.015,1.015,0,0,1-.96-1.352l5.436-15.431a1.015,1.015,0,0,1,1.974.337v15.431a1.016,1.016,0,0,1-1.016,1.016Z" transform="translate(-269.267 -210.946)" fill-rule="evenodd"/>
            <path id="Path_1160035" data-name="Path 1160035" d="M356.575,262.64H351.14a1.016,1.016,0,1,1,0-2.032h4l-4.958-14.077a1.016,1.016,0,1,1,1.917-.675l5.434,15.431a1.015,1.015,0,0,1-.958,1.353Z" transform="translate(-300.217 -210.946)" fill-rule="evenodd"/>
            <path id="Path_1160036" data-name="Path 1160036" d="M208.574,430.636a1.016,1.016,0,0,1-1.016-1.016v-2.17a1.156,1.156,0,0,0-1.154-1.155h-13.4a1.157,1.157,0,0,0-1.155,1.155v2.17a1.016,1.016,0,1,1-2.032,0v-2.17a3.191,3.191,0,0,1,3.187-3.187h13.4a3.19,3.19,0,0,1,3.186,3.187v2.169a1.015,1.015,0,0,1-1.016,1.016Z" transform="translate(-163.858 -363.282)" fill-rule="evenodd"/>
            <path id="Path_1160037" data-name="Path 1160037" d="M224.559,208.331a3.489,3.489,0,1,0,3.489,3.489,3.492,3.492,0,0,0-3.489-3.489Zm0,9.01a5.521,5.521,0,1,1,5.521-5.521,5.527,5.527,0,0,1-5.521,5.521Z" transform="translate(-188.711 -177.875)" fill-rule="evenodd"/>
            <path id="Path_1160038" data-name="Path 1160038" d="M175.411,85.173a.961.961,0,0,0,0,1.923H195.4a.961.961,0,1,0,0-1.923ZM195.4,89.128H175.411a2.993,2.993,0,0,1,0-5.987H195.4a2.993,2.993,0,1,1,0,5.987Z" transform="translate(-149.054 -73.113)" fill-rule="evenodd"/>
            <path id="Path_1160039" data-name="Path 1160039" d="M410.054,149.776h-8.923a1.016,1.016,0,0,1-1.016-1.016v-4.488a1.016,1.016,0,0,1,2.032,0v3.471h6.891v-3.472a1.016,1.016,0,1,1,2.032,0v4.487A1.016,1.016,0,0,1,410.054,149.776Z" transform="translate(-342.741 -124.249)" fill-rule="evenodd"/>
            <path id="Path_1160040" data-name="Path 1160040" d="M48.472,149.776H39.548a1.017,1.017,0,0,1-1.016-1.016v-4.488a1.016,1.016,0,0,1,2.032,0v3.471h6.893v-3.472a1.016,1.016,0,1,1,2.032,0v4.487a1.017,1.017,0,0,1-1.016,1.016Z" transform="translate(-35.166 -124.249)" fill-rule="evenodd"/>
          </g>
        </g>
      </g>
    </g>
  </g>
</svg>
