<svg xmlns="http://www.w3.org/2000/svg" xmlns:xlink="http://www.w3.org/1999/xlink" width="113" height="113" viewBox="0 0 113 113">
  <defs>
    <filter id="Path_982547" x="0" y="0" width="113" height="113" filterUnits="userSpaceOnUse">
      <feOffset dy="3" input="SourceAlpha"/>
      <feGaussianBlur stdDeviation="3" result="blur"/>
      <feFlood flood-opacity="0.161"/>
      <feComposite operator="in" in2="blur"/>
      <feComposite in="SourceGraphic"/>
    </filter>
  </defs>
  <g id="Group_1220587" data-name="Group 1220587" transform="translate(-1162.5 -461.808)">
    <g id="Group_1220485" data-name="Group 1220485">
      <g id="Group_1209994" data-name="Group 1209994" transform="translate(0 -7067)">
        <g id="Group_1208707" data-name="Group 1208707" transform="translate(-1.454 3213.429)">
          <g id="Group_1148635" data-name="Group 1148635" transform="translate(908.908 600.047)">
            <g id="Group_1148525" data-name="Group 1148525" transform="translate(264.046 3721.333)">
              <g transform="matrix(1, 0, 0, 1, -9, -6)" filter="url(#Path_982547)">
                <g id="Path_982547-2" data-name="Path 982547" transform="translate(9 6)" fill="#f9e3d4">
                  <path d="M 47.5 93.5 C 41.28937149047852 93.5 35.26533508300781 92.28397369384766 29.59518623352051 89.88570404052734 C 24.11771965026855 87.56893157958984 19.19813346862793 84.25196075439453 14.97309303283691 80.02691650390625 C 10.74804019927979 75.80186462402344 7.431066513061523 70.88229370117188 5.114293098449707 65.40481567382812 C 2.716026782989502 59.73468017578125 1.5 53.71062850952148 1.5 47.5 C 1.5 41.28937149047852 2.716026782989502 35.26533508300781 5.114293098449707 29.59518623352051 C 7.431066513061523 24.11771965026855 10.74804019927979 19.19813346862793 14.97309303283691 14.97309303283691 C 19.19813346862793 10.74804019927979 24.11771965026855 7.431066513061523 29.59518623352051 5.114293098449707 C 35.26533508300781 2.716026782989502 41.28937149047852 1.5 47.5 1.5 C 53.71062850952148 1.5 59.73468017578125 2.716026782989502 65.40481567382812 5.114293098449707 C 70.88229370117188 7.431066513061523 75.80186462402344 10.74804019927979 80.02691650390625 14.97309303283691 C 84.25196075439453 19.19813346862793 87.56893157958984 24.11771965026855 89.88570404052734 29.59518623352051 C 92.28397369384766 35.26533508300781 93.5 41.28937149047852 93.5 47.5 C 93.5 53.71062850952148 92.28397369384766 59.73468017578125 89.88570404052734 65.40481567382812 C 87.56893157958984 70.88229370117188 84.25196075439453 75.80186462402344 80.02691650390625 80.02691650390625 C 75.80186462402344 84.25196075439453 70.88229370117188 87.56893157958984 65.40481567382812 89.88570404052734 C 59.73468017578125 92.28397369384766 53.71062850952148 93.5 47.5 93.5 Z" stroke="none"/>
                  <path d="M 47.5 3 C 41.49121475219727 3 35.66376876831055 4.176155090332031 30.17950439453125 6.495796203613281 C 24.88084411621094 8.736953735351562 20.12152099609375 11.94598388671875 16.03375244140625 16.03375244140625 C 11.94598388671875 20.12152099609375 8.736953735351562 24.88084411621094 6.495796203613281 30.17950439453125 C 4.176155090332031 35.66376876831055 3 41.49121475219727 3 47.5 C 3 53.50878524780273 4.176155090332031 59.33623123168945 6.495796203613281 64.82049560546875 C 8.736953735351562 70.11915588378906 11.94598388671875 74.87847900390625 16.03375244140625 78.96624755859375 C 20.12152099609375 83.05401611328125 24.88084411621094 86.26304626464844 30.17950439453125 88.50419616699219 C 35.66376876831055 90.82384490966797 41.49121475219727 92 47.5 92 C 53.50878524780273 92 59.33623123168945 90.82384490966797 64.82049560546875 88.50419616699219 C 70.11915588378906 86.26304626464844 74.87847900390625 83.05401611328125 78.96624755859375 78.96624755859375 C 83.05401611328125 74.87847900390625 86.26304626464844 70.11915588378906 88.50419616699219 64.82049560546875 C 90.82384490966797 59.33623123168945 92 53.50878524780273 92 47.5 C 92 41.49121475219727 90.82384490966797 35.66376876831055 88.50419616699219 30.17950439453125 C 86.26304626464844 24.88084411621094 83.05401611328125 20.12152099609375 78.96624755859375 16.03375244140625 C 74.87847900390625 11.94598388671875 70.11915588378906 8.736953735351562 64.82049560546875 6.495796203613281 C 59.33623123168945 4.176155090332031 53.50878524780273 3 47.5 3 M 47.5 0 C 73.7335205078125 0 95 21.2664794921875 95 47.5 C 95 73.7335205078125 73.7335205078125 95 47.5 95 C 21.2664794921875 95 0 73.7335205078125 0 47.5 C 0 21.2664794921875 21.2664794921875 0 47.5 0 Z" stroke="none" fill="#eca675"/>
                </g>
              </g>
            </g>
          </g>
        </g>
      </g>
      <g id="abogado_1_" data-name="abogado (1)" transform="translate(1174.294 482.702)">
        <g id="Group_1220483" data-name="Group 1220483" transform="translate(7.875 1.174)">
          <path id="Path_1169498" data-name="Path 1169498" d="M146.217,11.046h-5l-7.041,6.8-2.947,5.711V57.51H154l.548-4.447,5.133-8.3V28.395a17.91,17.91,0,0,0-13.467-17.349Z" transform="translate(-112.923 -10.491)" fill="#e79380"/>
          <path id="Path_1169499" data-name="Path 1169499" d="M93.045,25.629a18.139,18.139,0,0,1,13.5-17.573A17.917,17.917,0,0,0,84.2,25.629v27.99l.578.9h8.84l-.578-.9Z" transform="translate(-73.252 -7.501)" fill="#df7e66"/>
          <path id="Path_1169500" data-name="Path 1169500" d="M61.545,316.343c.12-.4-3.844-20.7-3.844-20.7l.121-6.611-6.989,2.709L47.407,295.1l-.809,3.038v22.921l.679,1.291.332.387H61.545l.577-.622V316.45C61.742,316.423,61.532,316.388,61.545,316.343Z" transform="translate(-41.529 -244.982)" fill="#7b6c79"/>
          <path id="Path_1169501" data-name="Path 1169501" d="M19.73,333.908V313.059a10.753,10.753,0,0,1,4.609-8.777l-4.029,1.562a10.459,10.459,0,0,0-6.108,9.474v18.254a2.035,2.035,0,0,0,2.035,2.035h4.375A2.078,2.078,0,0,1,19.73,333.908Z" transform="translate(-14.202 -257.848)" fill="#665e68"/>
          <path id="Path_1169502" data-name="Path 1169502" d="M266.339,321.687a1.459,1.459,0,0,1-1.459-1.459v-2.476a1.459,1.459,0,0,1,1.459-1.459h1.417a4.5,4.5,0,0,1,2.285-4.751,9.68,9.68,0,0,0-4.007-3.209l-1.441-.558a3.412,3.412,0,0,1-1.328.267h-5.545a3.408,3.408,0,0,1-2.21-.81v.124l2.215,4.85-5.6,19.492-.558.012v5.333l.558,1.052h17.981a2.035,2.035,0,0,0,2.035-2.035V321.687Z" transform="translate(-214.429 -260.336)" fill="#7b6c79"/>
          <path id="Path_1169503" data-name="Path 1169503" d="M201.508,320.69h-6.441v28.758h9.4v-25.34Z" transform="translate(-166.769 -271.689)" fill="#b5dcff"/>
          <path id="Path_1169504" data-name="Path 1169504" d="M150.973,320.69h-6.111l-2.727,3.418v25.34h8.838Z" transform="translate(-122.119 -271.689)" fill="#8bcaff"/>
          <path id="Path_1169505" data-name="Path 1169505" d="M203.885,247.014l-1.294-.5a1.129,1.129,0,0,1-.722-1.05l0-3.784-.766-.488h-6.034V254.75h2.678l1.285-.521,5.215-6.015Z" transform="translate(-166.769 -204.628)" fill="#ffcebe"/>
          <path id="Path_1169506" data-name="Path 1169506" d="M154.083,241.19h-5.474l-.776.51v3.755c0,.864-.771,1.072-1.1,1.2l-.912.354.169,2.058,4.876,5.4,1.1.287h2.119V241.19Z" transform="translate(-125.228 -204.627)" fill="#ffb1a0"/>
          <path id="Path_1169507" data-name="Path 1169507" d="M105.65,279.8l-3.723,1.443L99.5,286.284a6.215,6.215,0,0,0-.237,4.836l6.388,17.441V279.8Z" transform="translate(-85.634 -237.2)" fill="#938493"/>
          <path id="Path_1169508" data-name="Path 1169508" d="M261.285,286.314l-.666-1.382L257.3,280.68l-2.171-.841v28.752l6.388-17.441A6.214,6.214,0,0,0,261.285,286.314Z" transform="translate(-217.438 -237.23)" fill="#938493"/>
          <path id="Path_1169509" data-name="Path 1169509" d="M97.375,137.089v.759l1.908,1.825h3.39v-3.815l-.56-.712h-.006a5.418,5.418,0,0,0-4.2,1.23h0A4.3,4.3,0,0,0,97.375,137.089Z" transform="translate(-84.362 -115.133)" fill="#ffcebe"/>
          <path id="Path_1169510" data-name="Path 1169510" d="M269.432,139.646l1.412-1.032.236-1.553a4.321,4.321,0,0,0-.535-.714,5.137,5.137,0,0,0-4.2-1.228h-.006v.008l-.608.782v3.737h3.7Z" transform="translate(-226.381 -115.104)" fill="#ffcebe"/>
          <path id="Path_1169511" data-name="Path 1169511" d="M94.233,147.836a4.041,4.041,0,0,0-.583,2.087,4.48,4.48,0,0,0,5.326,4.213l.554-.4v-4.175l-.554.4A4.657,4.657,0,0,1,94.233,147.836Z" transform="translate(-81.22 -125.879)" fill="#ffb1a0"/>
          <path id="Path_1169512" data-name="Path 1169512" d="M266.332,149.96l-.6-.447v4.175l.6.447a4.48,4.48,0,0,0,5.329-4.213,4.042,4.042,0,0,0-.583-2.088A4.658,4.658,0,0,1,266.332,149.96Z" transform="translate(-226.38 -125.879)" fill="#ffb1a0"/>
          <path id="Path_1169513" data-name="Path 1169513" d="M359.1,331.285a4.505,4.505,0,0,0-4.438,5.3l.592.352h7.51l.774-.352a4.5,4.5,0,0,0-4.438-5.3Z" transform="translate(-301.332 -280.626)" fill="#eab900"/>
          <path id="Path_1169514" data-name="Path 1169514" d="M380.609,365.146h-6.3l-.412.124-.6.509-.143.378V369.5l.391.7.792.342h6.276a1.459,1.459,0,0,0,1.459-1.459v-2.476a1.459,1.459,0,0,0-1.459-1.459Z" transform="translate(-316.991 -309.19)" fill="#ffe02f"/>
          <path id="Path_1169515" data-name="Path 1169515" d="M342.541,369.081v-2.476A1.459,1.459,0,0,1,344,365.146h-5.887a1.459,1.459,0,0,0-1.459,1.459v2.476a1.459,1.459,0,0,0,1.459,1.459H344A1.459,1.459,0,0,1,342.541,369.081Z" transform="translate(-286.204 -309.19)" fill="#fbc700"/>
          <path id="Path_1169516" data-name="Path 1169516" d="M462.747,279.6h-5.609c-.159.142-.32.288-.32.288v2.725l.776,1.2.932.613,1.065.308h.216a3.423,3.423,0,0,0,3.423-3.423V280.08A.482.482,0,0,0,462.747,279.6Z" transform="translate(-387.567 -237.026)" fill="#ffe02f"/>
          <path id="Path_1169517" data-name="Path 1169517" d="M424.713,281.309v-1.228a.482.482,0,0,1,.482-.482h-6.113a.482.482,0,0,0-.482.482v1.228a3.423,3.423,0,0,0,3.423,3.423h5.545c.1,0,.19,0,.284-.013A3.422,3.422,0,0,1,424.713,281.309Z" transform="translate(-355.329 -237.027)" fill="#fbc700"/>
          <g id="Group_1220482" data-name="Group 1220482" transform="translate(39.866 42.572)">
            <path id="Path_1169518" data-name="Path 1169518" d="M313.153,279.6h-5.609c-.159.142-.32.288-.32.288v2.725l.776,1.2.932.613,1.065.308h.216a3.423,3.423,0,0,0,3.423-3.423V280.08A.482.482,0,0,0,313.153,279.6Z" transform="translate(-301.245 -279.598)" fill="#ffe02f"/>
            <path id="Path_1169519" data-name="Path 1169519" d="M275.12,281.309v-1.228a.482.482,0,0,1,.482-.482h-6.113a.482.482,0,0,0-.482.482v1.228a3.423,3.423,0,0,0,3.423,3.423h5.545c.1,0,.19,0,.284-.013A3.422,3.422,0,0,1,275.12,281.309Z" transform="translate(-269.007 -279.599)" fill="#fbc700"/>
          </g>
          <path id="Path_1169520" data-name="Path 1169520" d="M384.318,188.823h-.443l-1.291,1.752-.391,1.321a11.3,11.3,0,0,0,.189,1.808,7.613,7.613,0,0,1,.632.821l1.3.444a3.632,3.632,0,0,0,0-6.147Z" transform="translate(-324.618 -160.454)" fill="#ffe02f"/>
          <path id="Path_1169521" data-name="Path 1169521" d="M364.053,188.88a3.63,3.63,0,0,1,1.7-3.074,3.633,3.633,0,1,0,0,6.147A3.629,3.629,0,0,1,364.053,188.88Z" transform="translate(-306.05 -157.437)" fill="#fbc700"/>
          <path id="Path_1169522" data-name="Path 1169522" d="M142.134,288.414a8.094,8.094,0,0,0,6.32-1.5,1.28,1.28,0,0,0-.078-1.941,22.271,22.271,0,0,1-5.665-6.6l-.577.224v9.815Z" transform="translate(-122.118 -235.995)" fill="#dbedff"/>
          <path id="Path_1169523" data-name="Path 1169523" d="M218.857,278.63l-.58-.225a22.272,22.272,0,0,1-5.663,6.6,1.28,1.28,0,0,0-.078,1.941,8.094,8.094,0,0,0,6.32,1.5V278.63Z" transform="translate(-181.161 -236.02)" fill="#dbedff"/>
          <path id="Path_1169524" data-name="Path 1169524" d="M180.785,107.415c-.348,0-.374-.009-2.3-.172a6.446,6.446,0,0,1-5.607-4.878.186.186,0,0,0-.363,0,6.515,6.515,0,0,1-3.951,4.5l-.679.856V118.1l2.089,4.381,2.086,2.295,3.628,1.185a11.119,11.119,0,0,0,8.114-10.67v-7.871Z" transform="translate(-143.838 -87.4)" fill="#ffdecf"/>
          <path id="Path_1169525" data-name="Path 1169525" d="M134.626,140.416v-8.533a6.037,6.037,0,0,1-1.718.392c.156-.012-1.974.161-2.352.161h-2.9v7.979a10.957,10.957,0,0,0,11.22,10.947,10.709,10.709,0,0,0,3.395-.541A10.876,10.876,0,0,1,134.626,140.416Z" transform="translate(-109.902 -112.422)" fill="#ffcebe"/>
        </g>
        <g id="Group_1220484" data-name="Group 1220484" transform="translate(6.702)">
          <path id="Path_1169526" data-name="Path 1169526" d="M192.3,352.021a1.173,1.173,0,0,0-1.173,1.173v17a1.173,1.173,0,1,0,2.347,0v-17A1.173,1.173,0,0,0,192.3,352.021Z" transform="translate(-162.271 -296.945)"/>
          <path id="Path_1169527" data-name="Path 1169527" d="M83.055,42.572h-.024l-3.295-5.842a1.173,1.173,0,0,0-.712-2.194,15.612,15.612,0,0,1-2.016.131A16.484,16.484,0,0,1,70.4,33.25a4.807,4.807,0,1,0-9.527,0,16.81,16.81,0,0,1-5.067,1.34V19.077A19.064,19.064,0,0,0,36.733,0h-.144A19.24,19.24,0,0,0,17.655,19.3V46.488l-4.1,1.588-.023.009A11.566,11.566,0,0,0,6.7,58.643V76.9a3.212,3.212,0,0,0,3.209,3.209H33.994a1.173,1.173,0,1,0,0-2.347H29.065V54.9c2.816.074,5.593-1.24,6.345-2.427h2.642c.731,1.152,3.475,2.5,6.345,2.427V77.76H39.47a1.173,1.173,0,1,0,0,2.347H63.552A3.212,3.212,0,0,0,66.761,76.9V72.535a1.173,1.173,0,1,0-2.347,0V76.9a.863.863,0,0,1-.862.862h-5.92V65.794a1.173,1.173,0,1,0-2.347,0V77.76h-8.54V72.744L53.061,55.5a7.431,7.431,0,0,0-.145-5.445H56.71a4.75,4.75,0,0,0,1.31-.189,8.776,8.776,0,0,1,3.759,2.309,5.686,5.686,0,0,0-1.808,3.785,2.645,2.645,0,0,0-2.819,2.633v2.476A2.636,2.636,0,0,0,59.785,63.7h4.629v3.361a1.173,1.173,0,0,0,2.347,0V63.7h4.734a2.636,2.636,0,0,0,2.633-2.633V58.589a2.636,2.636,0,0,0-2.633-2.633h-.188a5.692,5.692,0,0,0-4.494-5.175v-13.5a4.82,4.82,0,0,0,2.72-1.847,19.2,19.2,0,0,0,5.328,1.454l-3.208,5.688h-.024a1.658,1.658,0,0,0-1.656,1.656v1.228a4.6,4.6,0,0,0,4.6,4.6h5.545a4.6,4.6,0,0,0,4.6-4.6V44.228a1.657,1.657,0,0,0-1.655-1.656Zm-26.123,0h-5.99l2.995-5.31ZM20,19.3a16.887,16.887,0,0,1,16.6-16.954h.126a16.72,16.72,0,0,1,16.73,16.73v3.259a5.952,5.952,0,0,0-5.7-2.322,33.834,33.834,0,0,1-5.144-.168,5.248,5.248,0,0,1-4.566-3.984,1.36,1.36,0,0,0-2.644,0,5.248,5.248,0,0,1-4.648,4A46.15,46.15,0,0,1,25.57,20,6.081,6.081,0,0,0,20,22.335Zm31.982,5.916a3.216,3.216,0,0,1-2.973,3.077V22.324A2.979,2.979,0,0,1,51.984,25.218ZM36.343,38.927a9.824,9.824,0,0,1-9.544-9.76V22.361c3.912,0,7.562.062,9.934-3.692a7.6,7.6,0,0,0,5.253,3.465,31.567,31.567,0,0,0,4.678.227v6.7a9.883,9.883,0,0,1-10.32,9.868ZM24.452,22.334V28.3C20.673,27.823,20.3,22.816,24.452,22.334Zm2.266,55.426H18.178V60.1a1.173,1.173,0,1,0-2.347,0V77.759H9.911a.863.863,0,0,1-.862-.862V58.643a9.306,9.306,0,0,1,5.37-8.384l7.4-2.869-1.137,2.358A7.429,7.429,0,0,0,20.4,55.5l6.316,17.246v5.016Zm0-11.84L22.605,54.69a5.069,5.069,0,0,1,.192-3.923l2.227-4.619,1.694-.657ZM20,45.578V28.1a5.787,5.787,0,0,0,4.544,2.558,12,12,0,0,0,4.76,8.2v3.11C29.252,41.994,20.059,45.556,20,45.578Zm13.412,5.657a6.938,6.938,0,0,1-4.349,1.315V46.624a24.237,24.237,0,0,0,4.327,4.439.108.108,0,0,1,.021.172Zm5.186-2a2.567,2.567,0,0,0-.7.888H35.565a2.54,2.54,0,0,0-.7-.888,21.509,21.509,0,0,1-4.673-5.1A2.257,2.257,0,0,0,31.653,42V40.217a12.582,12.582,0,0,0,10.148.008v1.786a2.293,2.293,0,0,0,1.463,2.138A21.6,21.6,0,0,1,38.6,49.234Zm5.8,3.315a6.946,6.946,0,0,1-4.349-1.315.108.108,0,0,1,.009-.162,24.261,24.261,0,0,0,4.34-4.449ZM44.15,41.974l0-3.151A12.287,12.287,0,0,0,48.9,30.657a5.783,5.783,0,0,0,4.557-2.56v6.546c-.4-.021-.809-.056-1.21-.109a1.173,1.173,0,0,0-.71,2.2l-3.295,5.842a1.658,1.658,0,0,0-1.223.516L44.15,41.974ZM50.857,54.69,46.745,65.919V46.73a4.575,4.575,0,0,0,3.534,3.237l.386.8A5.067,5.067,0,0,1,50.857,54.69Zm8.1-9.234a2.252,2.252,0,0,1-2.249,2.249H51.165a2.253,2.253,0,0,1-2.249-2.249v-.537H58.959Zm1.382,2.813a4.572,4.572,0,0,0,.965-2.813V44.228a1.658,1.658,0,0,0-1.656-1.656h-.024l-3.208-5.688a19.206,19.206,0,0,0,5.328-1.454,4.82,4.82,0,0,0,2.72,1.847v13.5a5.629,5.629,0,0,0-.624.171,10.67,10.67,0,0,0-3.5-2.684ZM71.495,58.3a.286.286,0,0,1,.286.286v2.476a.286.286,0,0,1-.286.286H59.785a.286.286,0,0,1-.286-.286V58.589a.286.286,0,0,1,.286-.286Zm-2.542-2.347H62.329a3.334,3.334,0,0,1,6.624,0ZM65.64,35.076a2.46,2.46,0,1,1,2.46-2.46A2.463,2.463,0,0,1,65.64,35.076Zm11.7,2.185,2.995,5.31h-5.99Zm5.022,8.194a2.252,2.252,0,0,1-2.249,2.249H74.57a2.252,2.252,0,0,1-2.249-2.249v-.537H82.364Z" transform="translate(-6.702)"/>
        </g>
      </g>
    </g>
  </g>
</svg>
