<svg xmlns="http://www.w3.org/2000/svg" xmlns:xlink="http://www.w3.org/1999/xlink" width="108" height="108" viewBox="0 0 108 108">
  <defs>
    <filter id="Path_904820" x="0" y="0" width="108" height="108" filterUnits="userSpaceOnUse">
      <feOffset dy="3" input="SourceAlpha"/>
      <feGaussianBlur stdDeviation="3" result="blur"/>
      <feFlood flood-opacity="0.161"/>
      <feComposite operator="in" in2="blur"/>
      <feComposite in="SourceGraphic"/>
    </filter>
  </defs>
  <g id="Group_1220604" data-name="Group 1220604" transform="translate(-196.999 -4983)">
    <g id="Group_1220493" data-name="Group 1220493" transform="translate(0 4)">
      <g id="Group_1219944" data-name="Group 1219944" transform="translate(200 4985)">
        <g id="Group_1209015" data-name="Group 1209015" transform="translate(5.999 0)">
          <g id="Group_1207774" data-name="Group 1207774">
            <g id="Group_1206630" data-name="Group 1206630">
              <g id="Group_1185091" data-name="Group 1185091">
                <g id="Group_1179560" data-name="Group 1179560">
                  <g id="Group_1173787" data-name="Group 1173787">
                    <g id="Group_1171910" data-name="Group 1171910">
                      <g id="Group_1167341" data-name="Group 1167341">
                        <g id="Group_1166792" data-name="Group 1166792">
                          <g transform="matrix(1, 0, 0, 1, -9, -6)" filter="url(#Path_904820)">
                            <g id="Path_904820-2" data-name="Path 904820" transform="translate(9 6)" fill="#e7f2f8">
                              <path d="M 44.99996948242188 88.50005340576172 C 39.12684631347656 88.50005340576172 33.43020629882812 87.35012817382812 28.06828117370605 85.08221435546875 C 22.88851928710938 82.89136505126953 18.23629379272461 79.754638671875 14.2408447265625 75.75918579101562 C 10.24540710449219 71.76374053955078 7.108694553375244 67.11151123046875 4.917831897735596 61.93173980712891 C 2.649931907653809 56.56980133056641 1.500007033348083 50.87314987182617 1.500007033348083 45.00002670288086 C 1.500007033348083 39.12690353393555 2.649931907653809 33.43025207519531 4.917831897735596 28.06831359863281 C 7.108694553375244 22.8885383605957 10.24540710449219 18.23631477355957 14.2408447265625 14.24086380004883 C 18.23629379272461 10.2454137802124 22.88851928710938 7.108689308166504 28.06828117370605 4.917839050292969 C 33.43020629882812 2.649926662445068 39.12684631347656 1.500001668930054 44.99996948242188 1.500001668930054 C 50.87309265136719 1.500001668930054 56.56973266601562 2.649926662445068 61.93165588378906 4.917839050292969 C 67.11143493652344 7.108689308166504 71.76364135742188 10.2454137802124 75.75909423828125 14.24086380004883 C 79.75454711914062 18.23631477355957 82.89125823974609 22.8885383605957 85.08212280273438 28.06831359863281 C 87.35002136230469 33.43025207519531 88.49994659423828 39.12690353393555 88.49994659423828 45.00002670288086 C 88.49994659423828 50.87314987182617 87.35002136230469 56.56980133056641 85.08212280273438 61.93173980712891 C 82.89125823974609 67.11151123046875 79.75454711914062 71.76374053955078 75.75909423828125 75.75918579101562 C 71.76364135742188 79.754638671875 67.11143493652344 82.89136505126953 61.93165588378906 85.08221435546875 C 56.56973266601562 87.35012817382812 50.87309265136719 88.50005340576172 44.99996948242188 88.50005340576172 Z" stroke="none"/>
                              <path d="M 44.99996948242188 3 C 39.32868194580078 3 33.82863998413086 4.110054016113281 28.65261077880859 6.299339294433594 C 23.65164184570312 8.414566040039062 19.15968322753906 11.44334411621094 15.301513671875 15.30152893066406 C 11.44332885742188 19.15969848632812 8.414566040039062 23.65167236328125 6.299324035644531 28.65264129638672 C 4.110054016113281 33.82868194580078 3 39.32873916625977 3 45.00002670288086 C 3 50.67131423950195 4.110054016113281 56.17137145996094 6.299324035644531 61.347412109375 C 8.414566040039062 66.34838104248047 11.44332885742188 70.84035491943359 15.301513671875 74.69852447509766 C 19.15968322753906 78.55670928955078 23.65164184570312 81.58547973632812 28.65261077880859 83.70071411132812 C 33.82863998413086 85.88999938964844 39.32868194580078 87.00005340576172 44.99996948242188 87.00005340576172 C 50.67125701904297 87.00005340576172 56.17129898071289 85.88999938964844 61.34732818603516 83.70071411132812 C 66.34829711914062 81.58547973632812 70.84025573730469 78.55670928955078 74.69842529296875 74.69852447509766 C 78.55661010742188 70.84035491943359 81.58537292480469 66.34838104248047 83.70061492919922 61.347412109375 C 85.88988494873047 56.17137145996094 86.99993896484375 50.67131423950195 86.99993896484375 45.00002670288086 C 86.99993896484375 39.32873916625977 85.88988494873047 33.82868194580078 83.70061492919922 28.65264129638672 C 81.58537292480469 23.65167236328125 78.55661010742188 19.15969848632812 74.69842529296875 15.30152893066406 C 70.84025573730469 11.44334411621094 66.34829711914062 8.414566040039062 61.34732818603516 6.299339294433594 C 56.17129898071289 4.110054016113281 50.67125701904297 3 44.99996948242188 3 M 44.99996948242188 0 C 69.85276794433594 0 89.99993896484375 20.14720153808594 89.99993896484375 45.00002670288086 C 89.99993896484375 69.85285949707031 69.85276794433594 90.00005340576172 44.99996948242188 90.00005340576172 C 20.14717102050781 90.00005340576172 0 69.85285949707031 0 45.00002670288086 C 0 20.14720153808594 20.14717102050781 0 44.99996948242188 0 Z" stroke="none" fill="#248abf"/>
                            </g>
                          </g>
                        </g>
                      </g>
                    </g>
                  </g>
                </g>
              </g>
            </g>
          </g>
        </g>
      </g>
      <g id="avatar" transform="translate(216.088 4995.223)">
        <path id="Path_1169529" data-name="Path 1169529" d="M408.543,464.59v3.836H391.922V464.59Zm0,0" transform="translate(-329.284 -389.931)" fill="#656d78"/>
        <path id="Path_1169530" data-name="Path 1169530" d="M409.2,348.426h-1.279V344.59h11.507v3.836Zm0,0" transform="translate(-342.727 -289.109)" fill="#965353"/>
        <path id="Path_1169531" data-name="Path 1169531" d="M419.429,440.59v3.836H407.922V440.59Zm0,0" transform="translate(-342.727 -369.767)" fill="#965353"/>
        <path id="Path_1169532" data-name="Path 1169532" d="M424.872,368.59V380.1h-8.95V368.59Zm0,0" transform="translate(-349.449 -309.274)" fill="#844747"/>
        <path id="Path_1169533" data-name="Path 1169533" d="M335.265,396.426H321.84a1.918,1.918,0,1,1,0-3.836h13.425Zm0,0" transform="translate(-268.791 -329.438)" fill="#965353"/>
        <path id="Path_1169534" data-name="Path 1169534" d="M228.786,360.508a10.211,10.211,0,0,1,8.873,5.127h-3.132a1.918,1.918,0,1,0,0,3.836h4.411c.039.421.077.844.077,1.266v8.95a1.283,1.283,0,0,1-1.279,1.279H216Zm0,0" transform="translate(-181.478 -302.483)" fill="#656d78"/>
        <path id="Path_1169535" data-name="Path 1169535" d="M201.9,360.508l-12.786,20.457H184l3.989-6.38,8.8-14.077Zm0,0" transform="translate(-154.593 -302.483)" fill="#545c66"/>
        <path id="Path_1169536" data-name="Path 1169536" d="M71.934,360.508h5.114l8.8,14.077,3.989,6.38H84.708L71.922,360.508Zm0,0" transform="translate(-60.427 -302.483)" fill="#545c66"/>
        <path id="Path_1169537" data-name="Path 1169537" d="M18.216,360.508,31,380.965H9.278A1.274,1.274,0,0,1,8,379.687v-8.95a10.216,10.216,0,0,1,10.216-10.229Zm0,0" transform="translate(-6.721 -302.483)" fill="#656d78"/>
        <path id="Path_1169538" data-name="Path 1169538" d="M167.671,369.787l-2.545,3.849H162.57L160,369.787l3.836-1.279Zm0,0" transform="translate(-134.429 -309.205)" fill="#ed5565"/>
        <path id="Path_1169539" data-name="Path 1169539" d="M164.319,400.59,167,408.261h.013l-3.989,6.38-3.989-6.38,2.723-7.671Zm0,0" transform="translate(-133.621 -336.159)" fill="#da4453"/>
        <path id="Path_1169540" data-name="Path 1169540" d="M107.836,360.508l5.114,2.557,2.57,3.849-2.723,7.671L104,360.508Zm0,0" transform="translate(-87.378 -302.483)" fill="#e6e9ed"/>
        <path id="Path_1169541" data-name="Path 1169541" d="M199.737,360.508h3.836l-8.8,14.077h-.013l-2.685-7.671,2.545-3.849Zm0,0" transform="translate(-161.38 -302.483)" fill="#e6e9ed"/>
        <path id="Path_1169542" data-name="Path 1169542" d="M145.9,314.6v7.326l-5.114,2.557-3.836-1.279-3.836,1.279L128,321.928V314.59a19.165,19.165,0,0,0,17.9.012Zm0,0" transform="translate(-107.543 -263.904)" fill="#f5f7fa"/>
        <path id="Path_1169543" data-name="Path 1169543" d="M116.182,244.508a3.189,3.189,0,0,0,3.2,3.2h5.754a3.839,3.839,0,0,1,3.836,3.836v1.509a19.171,19.171,0,0,1-25.686-.115l.115-.115V251.54a3.83,3.83,0,0,1,3.836-3.836h5.754a3.2,3.2,0,0,0,3.2-3.2Zm0,0" transform="translate(-86.775 -205.023)" fill="#eac6bb"/>
        <path id="Path_1169544" data-name="Path 1169544" d="M70.343,155.477A19.131,19.131,0,0,1,64.078,141.3v-8.6c16.955,1.983,23.451-4.5,29.407-4.168,2.776.153,5.421,1.764,8.95,6.38V141.3a19.1,19.1,0,0,1-6.405,14.295v-6.623a5.113,5.113,0,0,0-5.114-5.114H86.44a3.189,3.189,0,0,0-3.2,3.2,3.2,3.2,0,0,0-3.2-3.2H75.573a5.1,5.1,0,0,0-5.114,5.114v6.393Zm0,0" transform="translate(-53.837 -107.566)" fill="#eac6bb"/>
        <path id="Path_1169545" data-name="Path 1169545" d="M184.695,136.715V148.19A19.18,19.18,0,0,1,168.078,167.2a19.219,19.219,0,0,0,2.557.175,19.2,19.2,0,0,0,19.179-19.179V141.8A20.632,20.632,0,0,0,184.695,136.715Zm0,0" transform="translate(-141.216 -114.457)" fill="#d3b1a9"/>
        <path id="Path_1169546" data-name="Path 1169546" d="M257.028,89.458v5.114c-3.529-4.615-6.174-6.227-8.95-6.38l6.893-7.685A20.361,20.361,0,0,1,257.028,89.458Zm0,0" transform="translate(-208.43 -67.234)" fill="#ccd1d9"/>
        <g id="Group_1220492" data-name="Group 1220492" transform="translate(7.684 1.767)">
          <path id="Path_1169547" data-name="Path 1169547" d="M50.635,31.867c-.83-.088-1.674-.2-2.557-.345V28.965a20.46,20.46,0,0,1,38.857-8.95L80.042,27.7c-5.956-.333-12.453,6.149-29.407,4.168Zm0,0" transform="translate(-48.078 -8.508)" fill="#e6e9ed"/>
          <path id="Path_1169548" data-name="Path 1169548" d="M107.836,230.9A3.83,3.83,0,0,0,104,234.737v-5.114a5.1,5.1,0,0,1,5.114-5.114h4.475a3.2,3.2,0,1,1,0,6.393Zm0,0" transform="translate(-95.062 -189.986)" fill="#e6e9ed"/>
          <path id="Path_1169549" data-name="Path 1169549" d="M196.786,229.622v5.114a3.839,3.839,0,0,0-3.836-3.836H187.2a3.2,3.2,0,1,1,0-6.393h4.475A5.113,5.113,0,0,1,196.786,229.622Zm0,0" transform="translate(-162.277 -189.986)" fill="#e6e9ed"/>
        </g>
        <path id="Path_1169550" data-name="Path 1169550" d="M76.57,222.213a20.481,20.481,0,0,1-20.457-20.457,1.279,1.279,0,0,1,2.557,0,17.9,17.9,0,1,0,35.8,0,1.279,1.279,0,0,1,2.557,0A20.481,20.481,0,0,1,76.57,222.213Zm0,0" transform="translate(-47.145 -168.029)"/>
        <path id="Path_1169551" data-name="Path 1169551" d="M57.392,157.75a1.277,1.277,0,0,1-1.279-1.279v-8.614a1.279,1.279,0,0,1,2.557,0v8.614A1.279,1.279,0,0,1,57.392,157.75Zm0,0" transform="translate(-47.145 -122.745)"/>
        <path id="Path_1169552" data-name="Path 1169552" d="M297.392,142.535a1.277,1.277,0,0,1-1.279-1.279V129.748a1.279,1.279,0,1,1,2.557,0v11.508A1.279,1.279,0,0,1,297.392,142.535Zm0,0" transform="translate(-248.788 -107.53)"/>
        <path id="Path_1169553" data-name="Path 1169553" d="M82.333,23.5a1.277,1.277,0,0,1-1.279-1.279,19.176,19.176,0,0,0-38.352,0,1.279,1.279,0,0,1-2.557,0,21.733,21.733,0,1,1,43.466,0A1.279,1.279,0,0,1,82.333,23.5Zm0,0" transform="translate(-33.729)"/>
        <path id="Path_1169554" data-name="Path 1169554" d="M82.335,129.369a1.277,1.277,0,0,1-1.016-.5c-5.676-7.41-8.451-6.47-14.53-4.4-5.393,1.835-12.774,4.348-25.564,2.326a1.278,1.278,0,1,1,.4-2.525c12.16,1.915,19.2-.474,24.342-2.222,6.38-2.171,10.593-3.6,17.384,5.264a1.28,1.28,0,0,1-1.015,2.057Zm0,0" transform="translate(-33.729 -100.758)"/>
        <path id="Path_1169555" data-name="Path 1169555" d="M41.423,133.583a1.277,1.277,0,0,1-1.279-1.279v-2.557a1.279,1.279,0,0,1,2.557,0V132.3A1.279,1.279,0,0,1,41.423,133.583Zm0,0" transform="translate(-33.729 -107.529)"/>
        <path id="Path_1169556" data-name="Path 1169556" d="M241.391,82.715a1.279,1.279,0,0,1-.951-2.133l6.893-7.686a1.278,1.278,0,1,1,1.9,1.708l-6.893,7.686A1.273,1.273,0,0,1,241.391,82.715Zm0,0" transform="translate(-201.737 -60.481)"/>
        <path id="Path_1169557" data-name="Path 1169557" d="M1.279,365.265A1.277,1.277,0,0,1,0,363.986a11.522,11.522,0,0,1,11.51-11.51,1.279,1.279,0,0,1,0,2.557,8.963,8.963,0,0,0-8.953,8.952,1.277,1.277,0,0,1-1.279,1.279Zm0,0" transform="translate(0 -295.736)"/>
        <path id="Path_1169558" data-name="Path 1169558" d="M352.865,412.433a1.277,1.277,0,0,1-1.279-1.279,8.955,8.955,0,0,0-.069-1.1,1.279,1.279,0,0,1,2.54-.307,11.929,11.929,0,0,1,.086,1.412A1.275,1.275,0,0,1,352.865,412.433Zm0,0" transform="translate(-295.33 -342.905)"/>
        <path id="Path_1169559" data-name="Path 1169559" d="M298.154,360.178a1.277,1.277,0,0,1-1.109-.642,8.982,8.982,0,0,0-7.766-4.494,1.279,1.279,0,0,1,0-2.557,11.546,11.546,0,0,1,9.984,5.778,1.279,1.279,0,0,1-1.109,1.915Zm0,0" transform="translate(-241.971 -295.742)"/>
        <path id="Path_1169560" data-name="Path 1169560" d="M74.242,355.035H65.294a1.279,1.279,0,1,1,0-2.557h8.948a1.279,1.279,0,0,1,0,2.557Zm0,0" transform="translate(-53.785 -295.735)"/>
        <path id="Path_1169561" data-name="Path 1169561" d="M242.229,355.035h-8.95a1.279,1.279,0,0,1,0-2.557h8.95a1.279,1.279,0,0,1,0,2.557Zm0,0" transform="translate(-194.921 -295.735)"/>
        <path id="Path_1169562" data-name="Path 1169562" d="M1.279,428A1.277,1.277,0,0,1,0,426.717v-8.946a1.279,1.279,0,0,1,2.557,0v8.946A1.277,1.277,0,0,1,1.279,428Zm0,0" transform="translate(0 -349.52)"/>
        <path id="Path_1169563" data-name="Path 1169563" d="M2.557,476.3A2.56,2.56,0,0,1,0,473.748a1.279,1.279,0,1,1,2.557,0v0a1.277,1.277,0,1,1,0,2.555Zm0,0" transform="translate(0 -396.551)"/>
        <path id="Path_1169564" data-name="Path 1169564" d="M345.279,476.3a1.279,1.279,0,1,1,0-2.557h0a1.277,1.277,0,1,1,2.555,0A2.56,2.56,0,0,1,345.279,476.3Zm0,0" transform="translate(-289.021 -396.551)"/>
        <path id="Path_1169565" data-name="Path 1169565" d="M353.279,427.989A1.277,1.277,0,0,1,352,426.711v-8.948a1.279,1.279,0,0,1,2.557,0v8.948A1.277,1.277,0,0,1,353.279,427.989Zm0,0" transform="translate(-295.743 -349.514)"/>
        <path id="Path_1169566" data-name="Path 1169566" d="M62.979,483.026H9.279a1.279,1.279,0,0,1,0-2.557h53.7a1.279,1.279,0,0,1,0,2.557Zm0,0" transform="translate(-6.721 -403.272)"/>
        <path id="Path_1169567" data-name="Path 1169567" d="M121.279,316.521A1.277,1.277,0,0,1,120,315.242v-7.327a1.279,1.279,0,0,1,2.557,0v7.327A1.277,1.277,0,0,1,121.279,316.521Zm0,0" transform="translate(-100.821 -257.222)"/>
        <path id="Path_1169568" data-name="Path 1169568" d="M233.279,316.521A1.277,1.277,0,0,1,232,315.242v-7.326a1.279,1.279,0,0,1,2.557,0v7.326A1.277,1.277,0,0,1,233.279,316.521Zm0,0" transform="translate(-194.921 -257.222)"/>
        <path id="Path_1169569" data-name="Path 1169569" d="M126.392,357.6a1.283,1.283,0,0,1-.57-.134l-5.114-2.555a1.279,1.279,0,1,1,1.144-2.287l5.114,2.555a1.278,1.278,0,0,1-.574,2.422Zm0,0" transform="translate(-100.822 -295.746)"/>
        <path id="Path_1169570" data-name="Path 1169570" d="M153.279,364.3a1.279,1.279,0,0,1-.4-2.492l3.836-1.279a1.278,1.278,0,1,1,.809,2.425l-3.836,1.279A1.252,1.252,0,0,1,153.279,364.3Zm0,0" transform="translate(-127.708 -302.442)"/>
        <path id="Path_1169571" data-name="Path 1169571" d="M181.116,364.3a1.274,1.274,0,0,1-.4-.067l-3.836-1.279a1.278,1.278,0,1,1,.809-2.425l3.836,1.279a1.279,1.279,0,0,1-.405,2.492Zm0,0" transform="translate(-147.873 -302.443)"/>
        <path id="Path_1169572" data-name="Path 1169572" d="M201.274,357.59a1.279,1.279,0,0,1-.574-2.423l5.114-2.556a1.279,1.279,0,1,1,1.144,2.287l-5.114,2.556A1.268,1.268,0,0,1,201.274,357.59Zm0,0" transform="translate(-168.03 -295.736)"/>
        <path id="Path_1169573" data-name="Path 1169573" d="M177.28,375.495a1.278,1.278,0,0,1-1.082-1.957l12.786-20.455a1.279,1.279,0,0,1,2.168,1.357L178.366,374.9A1.279,1.279,0,0,1,177.28,375.495Zm0,0" transform="translate(-147.874 -295.741)"/>
        <path id="Path_1169574" data-name="Path 1169574" d="M209.312,375.495a1.278,1.278,0,0,1-1.081-1.957l12.786-20.455a1.278,1.278,0,1,1,2.167,1.357L210.4,374.9A1.279,1.279,0,0,1,209.312,375.495Zm0,0" transform="translate(-174.787 -295.741)"/>
        <path id="Path_1169575" data-name="Path 1169575" d="M110.064,375.49a1.277,1.277,0,0,1-1.086-.6L96.192,354.434a1.279,1.279,0,0,1,2.168-1.357l12.786,20.455a1.279,1.279,0,0,1-.406,1.762,1.261,1.261,0,0,1-.676.2Zm0,0" transform="translate(-80.655 -295.736)"/>
        <path id="Path_1169576" data-name="Path 1169576" d="M78.033,375.5a1.277,1.277,0,0,1-1.086-.6L64.161,354.441a1.279,1.279,0,0,1,2.169-1.355L79.116,373.54a1.278,1.278,0,0,1-1.083,1.957Zm0,0" transform="translate(-53.744 -295.743)"/>
        <path id="Path_1169577" data-name="Path 1169577" d="M155.853,374.884a1.279,1.279,0,0,1-1.065-.568l-2.578-3.859a1.279,1.279,0,0,1,2.128-1.422l2.578,3.859a1.279,1.279,0,0,1-1.063,1.99Zm0,0" transform="translate(-127.702 -309.171)"/>
        <path id="Path_1169578" data-name="Path 1169578" d="M185.4,374.882a1.278,1.278,0,0,1-1.068-1.982l2.537-3.859a1.279,1.279,0,0,1,2.138,1.407l-2.537,3.859A1.281,1.281,0,0,1,185.4,374.882Zm0,0" transform="translate(-154.698 -309.169)"/>
        <path id="Path_1169579" data-name="Path 1169579" d="M171.965,395.17h-2.557a1.279,1.279,0,1,1,0-2.557h2.557a1.279,1.279,0,0,1,0,2.557Zm0,0" transform="translate(-141.258 -329.457)"/>
        <path id="Path_1169580" data-name="Path 1169580" d="M152.356,402.842a1.291,1.291,0,0,1-.428-.074,1.277,1.277,0,0,1-.776-1.633l2.725-7.671a1.278,1.278,0,1,1,2.409.857l-2.724,7.671a1.28,1.28,0,0,1-1.2.85Zm0,0" transform="translate(-126.932 -329.458)"/>
        <path id="Path_1169581" data-name="Path 1169581" d="M188.079,402.84a1.28,1.28,0,0,1-1.207-.857l-2.683-7.671a1.279,1.279,0,1,1,2.414-.844l2.683,7.671a1.279,1.279,0,0,1-1.207,1.7Zm0,0" transform="translate(-154.692 -329.456)"/>
        <path id="Path_1169582" data-name="Path 1169582" d="M97.279,224.14A1.277,1.277,0,0,1,96,222.862a6.4,6.4,0,0,1,6.393-6.393,1.279,1.279,0,0,1,0,2.557,3.84,3.84,0,0,0-3.836,3.836A1.277,1.277,0,0,1,97.279,224.14Zm0,0" transform="translate(-80.657 -181.465)"/>
        <path id="Path_1169583" data-name="Path 1169583" d="M97.279,262.862A1.277,1.277,0,0,1,96,261.583a5.119,5.119,0,0,1,5.114-5.114,1.279,1.279,0,1,1,0,2.557,2.56,2.56,0,0,0-2.557,2.557A1.277,1.277,0,0,1,97.279,262.862Zm0,0" transform="translate(-80.657 -215.072)"/>
        <path id="Path_1169584" data-name="Path 1169584" d="M127.032,259.026h-5.754a1.279,1.279,0,1,1,0-2.557h5.754a1.279,1.279,0,1,1,0,2.557Zm0,0" transform="translate(-100.821 -215.072)"/>
        <path id="Path_1169585" data-name="Path 1169585" d="M133.754,219.026h-4.475a1.279,1.279,0,0,1,0-2.557h4.475a1.279,1.279,0,1,1,0,2.557Zm0,0" transform="translate(-107.543 -181.465)"/>
        <path id="Path_1169586" data-name="Path 1169586" d="M157.279,225.419a1.279,1.279,0,0,1,0-2.557,1.918,1.918,0,1,0,0-3.836,1.279,1.279,0,0,1,0-2.557,4.475,4.475,0,1,1,0,8.95Zm0,0" transform="translate(-131.068 -181.465)"/>
        <path id="Path_1169587" data-name="Path 1169587" d="M97.279,257.419A1.277,1.277,0,0,1,96,256.14v-6.393a1.279,1.279,0,0,1,2.557,0v6.393A1.277,1.277,0,0,1,97.279,257.419Zm0,0" transform="translate(-80.657 -208.351)"/>
        <path id="Path_1169588" data-name="Path 1169588" d="M230.393,224.14a1.277,1.277,0,0,1-1.279-1.279,3.84,3.84,0,0,0-3.836-3.836,1.279,1.279,0,0,1,0-2.557,6.4,6.4,0,0,1,6.393,6.393A1.277,1.277,0,0,1,230.393,224.14Zm0,0" transform="translate(-188.2 -181.465)"/>
        <path id="Path_1169589" data-name="Path 1169589" d="M237.114,262.862a1.277,1.277,0,0,1-1.279-1.279,2.56,2.56,0,0,0-2.557-2.557,1.279,1.279,0,0,1,0-2.557,5.119,5.119,0,0,1,5.114,5.114A1.277,1.277,0,0,1,237.114,262.862Zm0,0" transform="translate(-194.921 -215.072)"/>
        <path id="Path_1169590" data-name="Path 1169590" d="M203.032,259.026h-5.754a1.279,1.279,0,1,1,0-2.557h5.754a1.279,1.279,0,0,1,0,2.557Zm0,0" transform="translate(-164.675 -215.072)"/>
        <path id="Path_1169591" data-name="Path 1169591" d="M201.754,219.026h-4.475a1.279,1.279,0,1,1,0-2.557h4.475a1.279,1.279,0,0,1,0,2.557Zm0,0" transform="translate(-164.675 -181.465)"/>
        <path id="Path_1169592" data-name="Path 1169592" d="M180.475,225.419a4.475,4.475,0,1,1,0-8.95,1.279,1.279,0,0,1,0,2.557,1.918,1.918,0,1,0,0,3.836,1.279,1.279,0,0,1,0,2.557Zm0,0" transform="translate(-147.871 -181.465)"/>
        <path id="Path_1169593" data-name="Path 1169593" d="M257.279,257.648A1.277,1.277,0,0,1,256,256.37v-6.623a1.279,1.279,0,0,1,2.557,0v6.623A1.277,1.277,0,0,1,257.279,257.648Zm0,0" transform="translate(-215.086 -208.35)"/>
        <path id="Path_1169594" data-name="Path 1169594" d="M396.426,483.17H377.248a1.279,1.279,0,0,1,0-2.557h19.179a1.279,1.279,0,1,1,0,2.557Zm0,0" transform="translate(-315.881 -403.393)"/>
        <path id="Path_1169595" data-name="Path 1169595" d="M489.248,463a1.277,1.277,0,0,1-1.279-1.279v-3.837a1.279,1.279,0,0,1,2.557,0v3.837A1.278,1.278,0,0,1,489.248,463Zm0,0" transform="translate(-409.981 -383.222)"/>
        <path id="Path_1169596" data-name="Path 1169596" d="M401.869,459.162H385.248a1.279,1.279,0,0,1,0-2.557h16.621a1.279,1.279,0,1,1,0,2.557Zm0,0" transform="translate(-322.602 -383.222)"/>
        <path id="Path_1169597" data-name="Path 1169597" d="M385.248,463a1.277,1.277,0,0,1-1.279-1.279v-3.837a1.279,1.279,0,0,1,2.557,0v3.837A1.278,1.278,0,0,1,385.248,463Zm0,0" transform="translate(-322.602 -383.222)"/>
        <path id="Path_1169598" data-name="Path 1169598" d="M412.755,439H401.248a1.277,1.277,0,0,1-1.279-1.279v-3.834a1.277,1.277,0,0,1,1.279-1.279h11.507a1.277,1.277,0,0,1,1.279,1.279v3.834A1.278,1.278,0,0,1,412.755,439Zm-10.229-2.557h8.95V435.17h-8.95Zm0,0" transform="translate(-336.045 -363.064)"/>
        <path id="Path_1169599" data-name="Path 1169599" d="M412.755,343H401.248a1.277,1.277,0,0,1-1.279-1.279v-3.834a1.277,1.277,0,0,1,1.279-1.279h11.507a1.277,1.277,0,0,1,1.279,1.279v3.834A1.278,1.278,0,0,1,412.755,343Zm-10.229-2.557h8.95v-1.277h-8.95Zm0,0" transform="translate(-336.045 -282.401)"/>
        <path id="Path_1169600" data-name="Path 1169600" d="M409.248,374.549a1.277,1.277,0,0,1-1.279-1.279V361.739a1.279,1.279,0,0,1,2.557,0v11.531a1.278,1.278,0,0,1-1.279,1.279Zm0,0" transform="translate(-342.767 -302.444)"/>
        <path id="Path_1169601" data-name="Path 1169601" d="M465.248,374.549a1.277,1.277,0,0,1-1.279-1.279V361.739a1.279,1.279,0,0,1,2.557,0v11.531a1.278,1.278,0,0,1-1.279,1.279Zm0,0" transform="translate(-389.817 -302.444)"/>
        <path id="Path_1169602" data-name="Path 1169602" d="M338.673,411.17H325.248a1.279,1.279,0,0,1,0-2.557h13.425a1.279,1.279,0,0,1,0,2.557Zm0,0" transform="translate(-272.192 -342.9)"/>
        <path id="Path_1169603" data-name="Path 1169603" d="M338.673,387.178H325.248a1.279,1.279,0,0,1,0-2.557h13.425a1.279,1.279,0,0,1,0,2.557Zm0,0" transform="translate(-272.192 -322.743)"/>
        <path id="Path_1169604" data-name="Path 1169604" d="M315.165,391.014a3.2,3.2,0,1,1,0-6.393,1.279,1.279,0,0,1,0,2.557.639.639,0,1,0,0,1.279,1.279,1.279,0,0,1,0,2.557Zm0,0" transform="translate(-262.11 -322.743)"/>
      </g>
    </g>
  </g>
</svg>
