<svg xmlns="http://www.w3.org/2000/svg" xmlns:xlink="http://www.w3.org/1999/xlink" width="93.934" height="93.934" viewBox="0 0 93.934 93.934">
  <defs>
    <filter id="Path_982547" x="0" y="0" width="93.934" height="93.934" filterUnits="userSpaceOnUse">
      <feOffset dy="3" input="SourceAlpha"/>
      <feGaussianBlur stdDeviation="3" result="blur"/>
      <feFlood flood-opacity="0.161"/>
      <feComposite operator="in" in2="blur"/>
      <feComposite in="SourceGraphic"/>
    </filter>
  </defs>
  <g id="Group_1220578" data-name="Group 1220578" transform="translate(-1031.066 -496.849)">
    <g id="Group_1220340" data-name="Group 1220340">
      <g id="Group_1219857" data-name="Group 1219857" transform="translate(0 -546)">
        <g id="Group_1215983" data-name="Group 1215983" transform="translate(-0.229 -2679.151)">
          <g id="Group_1214661" data-name="Group 1214661" transform="translate(0 -1406)">
            <g id="Group_1214434" data-name="Group 1214434" transform="translate(-0.771 -2738.522)">
              <g id="Group_1183184" data-name="Group 1183184" transform="translate(1 1016.523)">
                <g id="Group_1179612" data-name="Group 1179612" transform="translate(848 4723.467)">
                  <g id="Group_1175227" data-name="Group 1175227" transform="translate(-5.967 140.533)">
                    <g id="Group_1167337" data-name="Group 1167337" transform="translate(198.033 1992)">
                      <g id="Group_1166720" data-name="Group 1166720">
                        <g id="Group_1164305" data-name="Group 1164305">
                          <g id="Group_1163948" data-name="Group 1163948">
                            <g id="Group_1158168" data-name="Group 1158168">
                              <g id="Group_1152576" data-name="Group 1152576">
                                <g id="Group_1148633" data-name="Group 1148633">
                                  <g id="Group_1148525" data-name="Group 1148525">
                                    <g transform="matrix(1, 0, 0, 1, -9, -6)" filter="url(#Path_982547)">
                                      <g id="Path_982547-2" data-name="Path 982547" transform="translate(9 6)" fill="#eae4dc">
                                        <path d="M 37.966796875 74.43359375 C 33.04315185546875 74.43359375 28.26757431030273 73.46962738037109 23.77274131774902 71.56847381591797 C 19.43047523498535 69.73184967041016 15.53040790557861 67.10224914550781 12.18087482452393 63.75271987915039 C 8.831341743469238 60.4031867980957 6.201741218566895 56.50312042236328 4.365118980407715 52.16086196899414 C 2.463963508605957 47.66601943969727 1.499996900558472 42.89044189453125 1.499996900558472 37.966796875 C 1.499996900558472 33.04315185546875 2.463963508605957 28.26757431030273 4.365118980407715 23.77274131774902 C 6.201741218566895 19.43047523498535 8.831341743469238 15.53040790557861 12.18087482452393 12.18087482452393 C 15.53040790557861 8.831341743469238 19.43047523498535 6.201741218566895 23.77274131774902 4.365118980407715 C 28.26757431030273 2.463963508605957 33.04315185546875 1.499996900558472 37.966796875 1.499996900558472 C 42.89044189453125 1.499996900558472 47.66601943969727 2.463963508605957 52.16086196899414 4.365118980407715 C 56.50312042236328 6.201741218566895 60.4031867980957 8.831341743469238 63.75271987915039 12.18087482452393 C 67.10224914550781 15.53040790557861 69.73184967041016 19.43047523498535 71.56847381591797 23.77274131774902 C 73.46962738037109 28.26757431030273 74.43359375 33.04315185546875 74.43359375 37.966796875 C 74.43359375 42.89044189453125 73.46962738037109 47.66601943969727 71.56847381591797 52.16086196899414 C 69.73184967041016 56.50313186645508 67.10224914550781 60.4031867980957 63.75271987915039 63.75271987915039 C 60.4031867980957 67.10224914550781 56.50313186645508 69.73184967041016 52.16086196899414 71.56847381591797 C 47.66601943969727 73.46962738037109 42.89044189453125 74.43359375 37.966796875 74.43359375 Z" stroke="none"/>
                                        <path d="M 37.966796875 3 C 33.2449836730957 3 28.66600799560547 3.924095153808594 24.35705947875977 5.746635437011719 C 20.19359588623047 7.507637023925781 16.45379638671875 10.02928161621094 13.24153518676758 13.24153518676758 C 10.02927398681641 16.45379638671875 7.507621765136719 20.19359588623047 5.746635437011719 24.35705947875977 C 3.924095153808594 28.66600799560547 3 33.2449836730957 3 37.966796875 C 3 42.6886100769043 3.924095153808594 47.26758575439453 5.746635437011719 51.57653427124023 C 7.507621765136719 55.73999786376953 10.02927398681641 59.47979736328125 13.24153518676758 62.69205856323242 C 16.45379638671875 65.90431976318359 20.19359588623047 68.42597198486328 24.35705947875977 70.18695831298828 C 28.66600799560547 72.00949859619141 33.2449836730957 72.93359375 37.966796875 72.93359375 C 42.6886100769043 72.93359375 47.26758575439453 72.00949859619141 51.57653427124023 70.18695831298828 C 55.73999786376953 68.42597198486328 59.47979736328125 65.90431976318359 62.69205856323242 62.69205856323242 C 65.90431976318359 59.47979736328125 68.42597198486328 55.73999786376953 70.18695831298828 51.57653427124023 C 72.00949859619141 47.26758575439453 72.93359375 42.6886100769043 72.93359375 37.966796875 C 72.93359375 33.2449836730957 72.00949859619141 28.66600799560547 70.18695831298828 24.35705947875977 C 68.42597198486328 20.19359588623047 65.90431976318359 16.45379638671875 62.69205856323242 13.24153518676758 C 59.47979736328125 10.02928161621094 55.73999786376953 7.507637023925781 51.57653427124023 5.746635437011719 C 47.26758575439453 3.924095153808594 42.6886100769043 3 37.966796875 3 M 37.966796875 0 C 58.93528366088867 0 75.93359375 16.99832153320312 75.93359375 37.966796875 C 75.93359375 58.93528366088867 58.93528366088867 75.93359375 37.966796875 75.93359375 C 16.99831008911133 75.93359375 0 58.93528366088867 0 37.966796875 C 0 16.99832153320312 16.99831008911133 0 37.966796875 0 Z" stroke="none" fill="#665b4e"/>
                                      </g>
                                    </g>
                                  </g>
                                </g>
                              </g>
                            </g>
                          </g>
                        </g>
                      </g>
                    </g>
                  </g>
                </g>
              </g>
            </g>
          </g>
        </g>
      </g>
      <g id="ley-internacional_1_" data-name="ley-internacional (1)" transform="translate(1049.053 520.806)">
        <g id="Group_1220339" data-name="Group 1220339" transform="translate(-0.001 0.018)">
          <path id="Path_1169038" data-name="Path 1169038" d="M381.533,153.781a2.267,2.267,0,0,0-2.079-3.191h-5.964c-3.8,0-4.432,1.7-3.748,3.191a6.446,6.446,0,0,0,6.73,4.238A7.691,7.691,0,0,0,381.533,153.781Z" transform="translate(-327.673 -133.545)" fill="#f7e74b"/>
          <path id="Path_1169039" data-name="Path 1169039" d="M354.727,153.781a2.267,2.267,0,0,1,2.079-3.191H352.97a2.268,2.268,0,0,0-2.079,3.191,7.677,7.677,0,0,0,8.9,4.238A7.691,7.691,0,0,1,354.727,153.781Z" transform="translate(-310.988 -133.545)" fill="#ffc140"/>
          <path id="Path_1169040" data-name="Path 1169040" d="M65.263,153.781a2.267,2.267,0,0,0-2.079-3.191H57.22c-3.8,0-4.432,1.7-3.748,3.191a6.446,6.446,0,0,0,6.73,4.238A7.691,7.691,0,0,0,65.263,153.781Z" transform="translate(-47.205 -133.545)" fill="#f7e74b"/>
          <path id="Path_1169041" data-name="Path 1169041" d="M38.457,153.781a2.267,2.267,0,0,1,2.079-3.191H36.7a2.267,2.267,0,0,0-2.079,3.191,7.68,7.68,0,0,0,8.9,4.238A7.691,7.691,0,0,1,38.457,153.781Z" transform="translate(-30.52 -133.545)" fill="#ffc140"/>
          <path id="Path_1169042" data-name="Path 1169042" d="M303.69,35.094a1.842,1.842,0,0,0-1.7-1.836l-17.849-1.373-1.279.4v5.512l1.279.509,17.849-1.373A1.843,1.843,0,0,0,303.69,35.094Z" transform="translate(-250.841 -28.278)" fill="#df6d2b"/>
          <path id="Path_1169043" data-name="Path 1169043" d="M257.708,30.108H256v6.866l1.7-.046,2.614-.2V30.309Z" transform="translate(-227.023 -26.702)" fill="#c75418"/>
          <path id="Path_1169044" data-name="Path 1169044" d="M46.857,33.257a1.841,1.841,0,0,0,0,3.671L64.706,38.3l1.478-.538V32.251l-1.478-.367Z" transform="translate(-40.045 -28.277)" fill="#df6d2b"/>
          <path id="Path_1169045" data-name="Path 1169045" d="M222.169,36.974V30.108h-1.7l-2.614.2v6.417l2.614.2Z" transform="translate(-193.189 -26.702)" fill="#c75418"/>
          <path id="Path_1169046" data-name="Path 1169046" d="M244.353,155.015v-4.461c0-1.459-3.41-1.459-3.41,0v4.461A5.987,5.987,0,0,1,244.353,155.015Z" transform="translate(-213.667 -132.543)" fill="#df6d2b"/>
          <path id="Path_1169047" data-name="Path 1169047" d="M244.353,24.68V9.223a1.7,1.7,0,0,0-3.41,0V24.68a8.6,8.6,0,0,1,3.41,0Z" transform="translate(-213.667 -6.669)" fill="#f68953"/>
          <path id="Path_1169048" data-name="Path 1169048" d="M215.257,186.457a7.758,7.758,0,0,1-5.764,2.588h-.431a7.82,7.82,0,0,1-5.73-2.587,5.967,5.967,0,0,1,11.925,0Z" transform="translate(-180.314 -160.254)" fill="#6e788a"/>
          <path id="Path_1169049" data-name="Path 1169049" d="M161.488,258.114a28.528,28.528,0,0,0,.037-6.494L138,226.923q-1.092-.173-2.21-.262C123.516,228.056,116,235.154,118.363,247l8.039,11.117h35.086Z" transform="translate(-104.581 -201.004)" fill="#00d9a5"/>
          <path id="Path_1169050" data-name="Path 1169050" d="M71.707,236.712a28.719,28.719,0,0,1,12.946-10.738,28.09,28.09,0,0,0-24.386,10.711l6.96,9.624a34.474,34.474,0,0,1,4.479-9.6h0Z" transform="translate(-53.444 -200.317)" fill="#00c284"/>
          <path id="Path_1169051" data-name="Path 1169051" d="M318.736,253.669c-6.522.538-6.151.527-6.542.527a5.221,5.221,0,0,1-5.115-4.2,5.222,5.222,0,0,0-4.261-4.126l-2.188-.365a5.219,5.219,0,0,1-4.341-4.677l-1.079-11.86a28.145,28.145,0,0,1,23.525,24.7Z" transform="translate(-261.792 -203.055)" fill="#6292e1"/>
          <path id="Path_1169052" data-name="Path 1169052" d="M97.186,408.222a4.145,4.145,0,0,0-1.994-6.624l-4.475-1.342a3.955,3.955,0,0,1-2.247-1.737c-5.208,1.627-6.155,9.516-1.756,12H96.24a4.121,4.121,0,0,1,.946-2.295Z" transform="translate(-74.419 -353.408)" fill="#6292e1"/>
          <path id="Path_1169053" data-name="Path 1169053" d="M20.7,330.024a3.958,3.958,0,0,1-.5-2.839,3.965,3.965,0,0,0-2.635-4.539l-4.093-1.365h0A28.079,28.079,0,0,0,7.7,342.022H18.942a37.316,37.316,0,0,1,1.756-12Z" transform="translate(-6.647 -284.913)" fill="#1478d7"/>
          <path id="Path_1169054" data-name="Path 1169054" d="M35.735,25.531a6.779,6.779,0,0,0-4.2-5.417V11.03l11.912-.916-1.11,6.1h-.355a3.117,3.117,0,0,0-2.851,4.394,8.524,8.524,0,0,0,15.5,0,3.117,3.117,0,0,0-2.851-4.394h-.355l-1.2-6.622c.975-.075.952-.072.992-.077h0a2.69,2.69,0,0,0,0-5.364l-8.847-.681a.849.849,0,1,0-.13,1.693l8.847.681a.992.992,0,0,1-.006,1.979l-19.542,1.5V4.341l6.735.518a.849.849,0,1,0,.13-1.693l-6.865-.528V2.572a2.554,2.554,0,0,0-5.108,0v.066L6.746,4.152a2.69,2.69,0,0,0,0,5.364l.991.076-1.2,6.622H6.178a3.117,3.117,0,0,0-2.851,4.394,8.524,8.524,0,0,0,15.5,0,3.117,3.117,0,0,0-2.851-4.394h-.355l-1.11-6.1,11.912.917v9.084a6.779,6.779,0,0,0-4.2,5.419A29.012,29.012,0,0,0,1.14,45.641a.849.849,0,1,0,1.631.472,27.027,27.027,0,0,1,4.356-8.731l3.519,1.174a3.121,3.121,0,0,1,2.07,3.567,4.8,4.8,0,0,0,3.337,5.556l4.475,1.342a3.293,3.293,0,0,1,1.585,5.267,4.973,4.973,0,0,0-1.01,1.989H1.816a27.632,27.632,0,0,1,.148-6.4.849.849,0,1,0-1.682-.235A29.312,29.312,0,0,0,.21,57.229a.849.849,0,0,0,.843.747H56.905a.849.849,0,0,0,.843-.747,29,29,0,0,0-22.013-31.7ZM53.087,19.9a6.826,6.826,0,0,1-12.414,0,1.418,1.418,0,0,1,1.307-1.989h9.8A1.418,1.418,0,0,1,53.087,19.9ZM49.7,16.214H44.062L45.2,9.979l3.323-.256ZM56,49.859l-5.238.437a4.364,4.364,0,0,1-4.648-3.5A6.1,6.1,0,0,0,41.164,42l-2.188-.365a4.372,4.372,0,0,1-3.635-3.916l-.978-10.751A27.129,27.129,0,0,1,56,49.859ZM5.96,6.834a1,1,0,0,1,.916-.989l19.549-1.5V9.327L6.877,7.823a1,1,0,0,1-.918-.989ZM17.285,19.9a6.826,6.826,0,0,1-12.414,0,1.418,1.418,0,0,1,1.307-1.989h9.8A1.418,1.418,0,0,1,17.285,19.9ZM8.259,16.214,9.44,9.723l3.323.255L13.9,16.214ZM28.123,2.572a.856.856,0,0,1,1.712,0V19.678a6.74,6.74,0,0,0-1.712,0Zm-.659,18.976a.859.859,0,0,0,.088-.025,5.184,5.184,0,0,1,2.854,0,.837.837,0,0,0,.089.026,5.089,5.089,0,0,1,3.443,3.615,29.144,29.144,0,0,0-9.916,0A5.089,5.089,0,0,1,27.464,21.547ZM56.143,56.278H22.883a3.3,3.3,0,0,1,.534-.9,5,5,0,0,0-2.4-7.981l-4.475-1.342a3.1,3.1,0,0,1-2.16-3.6,4.821,4.821,0,0,0-3.2-5.511L8.259,35.97a27.115,27.115,0,0,1,24.373-9.291l1.018,11.194A6.071,6.071,0,0,0,38.7,43.311l2.188.365a4.4,4.4,0,0,1,3.568,3.455,6.058,6.058,0,0,0,6.455,4.858l5.276-.44a27.777,27.777,0,0,1-.042,4.73Z" transform="translate(0.001 -0.018)"/>
        </g>
      </g>
    </g>
  </g>
</svg>
