<svg xmlns="http://www.w3.org/2000/svg" xmlns:xlink="http://www.w3.org/1999/xlink" width="112.317" height="112.317" viewBox="0 0 112.317 112.317">
  <defs>
    <filter id="Path_978624" x="0" y="0" width="112.317" height="112.317" filterUnits="userSpaceOnUse">
      <feOffset dy="3" input="SourceAlpha"/>
      <feGaussianBlur stdDeviation="3" result="blur"/>
      <feFlood flood-opacity="0.161"/>
      <feComposite operator="in" in2="blur"/>
      <feComposite in="SourceGraphic"/>
    </filter>
  </defs>
  <g id="Group_1223245" data-name="Group 1223245" transform="translate(-161.683 -2618)">
    <g id="Group_1223159" data-name="Group 1223159">
      <g id="Group_1222311" data-name="Group 1222311" transform="translate(0 213.329)">
        <g id="Group_1220782" data-name="Group 1220782" transform="translate(1.719 1507.329)">
          <g id="Group_1215987" data-name="Group 1215987" transform="translate(0 -793.5)">
            <g id="Group_1210476" data-name="Group 1210476" transform="translate(0 -2223.158)">
              <g id="Group_1210475" data-name="Group 1210475" transform="translate(167.192 3920)">
                <g id="Group_1209741" data-name="Group 1209741" transform="translate(1.772)">
                  <g id="Group_1178144" data-name="Group 1178144" transform="translate(0 0)">
                    <g id="Group_1177896" data-name="Group 1177896">
                      <g id="Group_1176881" data-name="Group 1176881">
                        <g id="Group_1175148" data-name="Group 1175148">
                          <g id="Group_1173798" data-name="Group 1173798">
                            <g id="Group_1171925" data-name="Group 1171925">
                              <g id="Group_1164524" data-name="Group 1164524">
                                <g id="Group_1144123" data-name="Group 1144123">
                                  <g transform="matrix(1, 0, 0, 1, -9, -6)" filter="url(#Path_978624)">
                                    <g id="Path_978624-2" data-name="Path 978624" transform="translate(9 6)" fill="#e7f2f8">
                                      <path d="M 47.15840148925781 92.81680297851562 C 40.993896484375 92.81680297851562 35.01457595825195 91.60981750488281 29.38654899597168 89.22934722900391 C 23.94976234436035 86.92978668212891 19.06670761108398 83.63744354248047 14.8730411529541 79.44376373291016 C 10.67936134338379 75.25009155273438 7.387014865875244 70.36704254150391 5.087454795837402 64.93025207519531 C 2.706988096237183 59.30222702026367 1.500001430511475 53.32290649414062 1.500001430511475 47.15840148925781 C 1.500001430511475 40.993896484375 2.706988096237183 35.01457595825195 5.087454795837402 29.38654899597168 C 7.387014865875244 23.94976234436035 10.67936134338379 19.06670761108398 14.8730411529541 14.8730411529541 C 19.06670761108398 10.67936134338379 23.94976234436035 7.387014865875244 29.38654899597168 5.087454795837402 C 35.01457595825195 2.706988096237183 40.993896484375 1.500001430511475 47.15840148925781 1.500001430511475 C 53.32290649414062 1.500001430511475 59.30222702026367 2.706988096237183 64.93025207519531 5.087454795837402 C 70.36704254150391 7.387014865875244 75.25009155273438 10.67936134338379 79.44376373291016 14.8730411529541 C 83.63744354248047 19.06670761108398 86.92978668212891 23.94976234436035 89.22934722900391 29.38654899597168 C 91.60981750488281 35.01457595825195 92.81680297851562 40.993896484375 92.81680297851562 47.15840148925781 C 92.81680297851562 53.32290649414062 91.60981750488281 59.30222702026367 89.22934722900391 64.93025207519531 C 86.92978668212891 70.36704254150391 83.63744354248047 75.25009155273438 79.44376373291016 79.44376373291016 C 75.25009155273438 83.63744354248047 70.36704254150391 86.92978668212891 64.93025207519531 89.22934722900391 C 59.30222702026367 91.60981750488281 53.32290649414062 92.81680297851562 47.15840148925781 92.81680297851562 Z" stroke="none"/>
                                      <path d="M 47.15840148925781 3 C 41.19572830200195 3 35.41301727294922 4.167129516601562 29.97087097167969 6.468955993652344 C 24.712890625 8.692901611328125 19.99008941650391 11.87730407714844 15.93370056152344 15.93370056152344 C 11.87730407714844 19.99008941650391 8.692901611328125 24.712890625 6.468955993652344 29.97087097167969 C 4.167129516601562 35.41301727294922 3 41.19572830200195 3 47.15840148925781 C 3 53.12107467651367 4.167129516601562 58.90378570556641 6.468955993652344 64.34593200683594 C 8.692901611328125 69.60391235351562 11.87730407714844 74.32671356201172 15.93370056152344 78.38310241699219 C 19.99008941650391 82.43949890136719 24.712890625 85.6239013671875 29.97087097167969 87.84784698486328 C 35.41301727294922 90.14967346191406 41.19572830200195 91.31680297851562 47.15840148925781 91.31680297851562 C 53.12107467651367 91.31680297851562 58.90378570556641 90.14967346191406 64.34593200683594 87.84784698486328 C 69.60391235351562 85.6239013671875 74.32671356201172 82.43949890136719 78.38310241699219 78.38310241699219 C 82.43949890136719 74.32671356201172 85.6239013671875 69.60391235351562 87.84784698486328 64.34593200683594 C 90.14967346191406 58.90378570556641 91.31680297851562 53.12107467651367 91.31680297851562 47.15840148925781 C 91.31680297851562 41.19572830200195 90.14967346191406 35.41301727294922 87.84784698486328 29.97087097167969 C 85.6239013671875 24.712890625 82.43949890136719 19.99008941650391 78.38310241699219 15.93370056152344 C 74.32671356201172 11.87730407714844 69.60391235351562 8.692901611328125 64.34593200683594 6.468955993652344 C 58.90378570556641 4.167129516601562 53.12107467651367 3 47.15840148925781 3 M 47.15840148925781 0 C 73.20327758789062 0 94.31680297851562 21.11353302001953 94.31680297851562 47.15840148925781 C 94.31680297851562 73.20327758789062 73.20327758789062 94.31680297851562 47.15840148925781 94.31680297851562 C 21.11353302001953 94.31680297851562 0 73.20327758789062 0 47.15840148925781 C 0 21.11353302001953 21.11353302001953 0 47.15840148925781 0 Z" stroke="none" fill="#248abf"/>
                                    </g>
                                  </g>
                                </g>
                              </g>
                            </g>
                          </g>
                        </g>
                      </g>
                    </g>
                  </g>
                </g>
              </g>
            </g>
          </g>
        </g>
      </g>
      <g id="ley_16_" data-name="ley (16)" transform="translate(176.521 2629.399)">
        <g id="Group_1223144" data-name="Group 1223144" transform="translate(18.569 64.137)">
          <g id="Group_1223139" data-name="Group 1223139" transform="translate(0 4.553)">
            <path id="Path_1175544" data-name="Path 1175544" d="M164.049,360.129a14.493,14.493,0,0,0,3.479,9.544H115.084a1.659,1.659,0,0,1-1.354-.693,16.895,16.895,0,0,1,0-17.7,1.659,1.659,0,0,1,1.354-.693h52.444A14.494,14.494,0,0,0,164.049,360.129Z" transform="translate(-111.226 -350.585)" fill="#fb3a82"/>
            <path id="Path_1175545" data-name="Path 1175545" d="M127.229,350.587,112.44,366.606a16.758,16.758,0,0,1-1.21-6.475,15.147,15.147,0,0,1,2.5-8.852,1.657,1.657,0,0,1,1.354-.693Z" transform="translate(-111.229 -350.587)" fill="#fb1466"/>
            <path id="Path_1175546" data-name="Path 1175546" d="M198.614,360.129a14.493,14.493,0,0,0,3.479,9.544H148.851s-3.06-3.1-3.06-9.544,3.06-9.544,3.06-9.544h53.242A14.494,14.494,0,0,0,198.614,360.129Z" transform="translate(-140.02 -350.585)" fill="#e0d3ce"/>
            <g id="Group_1223138" data-name="Group 1223138" transform="translate(5.771 0)">
              <path id="Path_1175547" data-name="Path 1175547" d="M156.019,350.587l-10.174,11.021c-.035-.471-.055-.963-.055-1.476,0-6.446,3.06-9.545,3.06-9.545Z" transform="translate(-145.79 -350.587)" fill="#cdbfbb"/>
              <path id="Path_1175548" data-name="Path 1175548" d="M430.708,360.136a14.491,14.491,0,0,0,3.479,9.544h-6.309a14.829,14.829,0,0,1,0-19.088h6.309A14.487,14.487,0,0,0,430.708,360.136Z" transform="translate(-377.884 -350.591)" fill="#cdbfbb"/>
            </g>
          </g>
          <g id="Group_1223143" data-name="Group 1223143" transform="translate(7.184)">
            <g id="Group_1223141" data-name="Group 1223141" transform="translate(0.001)">
              <path id="Path_1175549" data-name="Path 1175549" d="M212.733,326.088a2.77,2.77,0,0,1-2.77,2.77H157.03a2.771,2.771,0,0,1,0-5.541h52.933A2.771,2.771,0,0,1,212.733,326.088Z" transform="translate(-154.26 -323.317)" fill="#fb3a82"/>
              <g id="Group_1223140" data-name="Group 1223140">
                <path id="Path_1175550" data-name="Path 1175550" d="M167.277,323.317l-5.114,5.541H157.03a2.771,2.771,0,0,1,0-5.541Z" transform="translate(-154.26 -323.317)" fill="#fb1466"/>
                <path id="Path_1175551" data-name="Path 1175551" d="M463.858,326.091a2.773,2.773,0,0,1-2.772,2.772h-5.373a2.771,2.771,0,0,0,0-5.542h5.373A2.771,2.771,0,0,1,463.858,326.091Z" transform="translate(-405.384 -323.32)" fill="#fb1466"/>
              </g>
            </g>
            <g id="Group_1223142" data-name="Group 1223142" transform="translate(0 22.652)">
              <path id="Path_1175552" data-name="Path 1175552" d="M209.96,464.537H157.027a2.77,2.77,0,1,1,0-5.541H209.96a2.77,2.77,0,0,1,0,5.541Z" transform="translate(-154.257 -458.996)" fill="#fb3a82"/>
              <path id="Path_1175553" data-name="Path 1175553" d="M463.858,461.77a2.769,2.769,0,0,1-2.772,2.77h-5.373a2.77,2.77,0,0,0,0-5.539h5.373A2.771,2.771,0,0,1,463.858,461.77Z" transform="translate(-405.383 -458.999)" fill="#fb1466"/>
            </g>
          </g>
        </g>
        <g id="Group_1223152" data-name="Group 1223152" transform="translate(-0.001 12.193)">
          <g id="Group_1223147" data-name="Group 1223147" transform="translate(1.252 33.089)">
            <g id="Group_1223145" data-name="Group 1223145" transform="translate(0 10.597)">
              <path id="Path_1175554" data-name="Path 1175554" d="M43.97,278.33,39.5,273.857,9.051,301.963a4.821,4.821,0,1,0,6.813,6.813Z" transform="translate(-7.5 -273.857)" fill="#873f30"/>
              <path id="Path_1175555" data-name="Path 1175555" d="M16.91,315.78a4.823,4.823,0,0,1-6.817,0,4.774,4.774,0,0,1-1.176-1.921,4.814,4.814,0,0,0,4.892-1.172c.046-.046.092-.1.137-.143L42.055,282.1l3.1,3.1L17.045,315.64C17,315.688,16.955,315.735,16.91,315.78Z" transform="translate(-8.681 -280.72)" fill="#6c3328"/>
            </g>
            <path id="Path_1175556" data-name="Path 1175556" d="M200.935,210.382l-10.3,12.285,4.207,4.207,12.285-10.3Z" transform="translate(-160.061 -210.382)" fill="#873f30"/>
            <path id="Path_1175557" data-name="Path 1175557" d="M209.2,210.382l-3.328,3.97,1,1a1.882,1.882,0,0,1,0,2.662l-6.312,6.312,2.55,2.55,12.285-10.3Z" transform="translate(-168.329 -210.382)" fill="#6c3328"/>
            <g id="Group_1223146" data-name="Group 1223146" transform="translate(27.167 9.77)">
              <path id="Path_1175558" data-name="Path 1175558" d="M175.192,278.144l-4.084-4.084a3.023,3.023,0,1,1,4.276-4.276l4.084,4.084a3.023,3.023,0,0,1-4.276,4.276Z" transform="translate(-170.222 -268.899)" fill="#ba5d4f"/>
              <path id="Path_1175559" data-name="Path 1175559" d="M188.812,287.494a3.023,3.023,0,0,1-4.276,0l-3.1-3.1a3.023,3.023,0,0,0,4.276-4.276l3.1,3.1A3.022,3.022,0,0,1,188.812,287.494Z" transform="translate(-179.568 -278.249)" fill="#a34f41"/>
            </g>
          </g>
          <g id="Group_1223148" data-name="Group 1223148" transform="translate(33.226 5.01)">
            <path id="Path_1175560" data-name="Path 1175560" d="M0,0H12.826V20.137H0Z" transform="translate(14.237) rotate(45)" fill="#ba5d4f"/>
            <path id="Path_1175561" data-name="Path 1175561" d="M0,0H12.826V20.137H0Z" transform="translate(28.932 43.181) rotate(-135)" fill="#a34f41"/>
          </g>
          <g id="Group_1223151" data-name="Group 1223151" transform="translate(0 0)">
            <path id="Path_1175562" data-name="Path 1175562" d="M177.691,40.813l-.315-.315a3.059,3.059,0,0,1,0-4.326L192.959,20.59a3.059,3.059,0,0,1,4.326,0l.315.315a3.059,3.059,0,0,1,0,4.326L182.016,40.813A3.059,3.059,0,0,1,177.691,40.813Z" transform="translate(-147.016 -18.441)" fill="#873f30"/>
            <path id="Path_1175563" data-name="Path 1175563" d="M349.139,212.261l.315.315a3.059,3.059,0,0,0,4.326,0l15.583-15.583a3.058,3.058,0,0,0,0-4.326l-.315-.315a3.059,3.059,0,0,0-4.326,0l-15.583,15.583A3.059,3.059,0,0,0,349.139,212.261Z" transform="translate(-290.103 -161.528)" fill="#6c3328"/>
            <g id="Group_1223150" data-name="Group 1223150">
              <path id="Path_1175564" data-name="Path 1175564" d="M0,0H14.4V30.412H0Z" transform="translate(60.467 10.747) rotate(45)" fill="#fcc16d"/>
              <path id="Path_1175565" data-name="Path 1175565" d="M0,0H30.412V7.29H0Z" transform="translate(43.988 37.29) rotate(-45)" fill="#fca62f"/>
              <path id="Path_1175566" data-name="Path 1175566" d="M246.828,68.056l-2.495-1.02a2.294,2.294,0,0,0-2.49.5L224.324,85.057a2.294,2.294,0,0,0-.5,2.49l1.02,2.495a1.529,1.529,0,0,0,2.5.5l19.992-19.991A1.53,1.53,0,0,0,246.828,68.056Z" transform="translate(-186.312 -57.738)" fill="#873f30"/>
              <path id="Path_1175567" data-name="Path 1175567" d="M311.357,132.586l1.02,2.495a2.294,2.294,0,0,1-.5,2.49l-17.519,17.519a2.294,2.294,0,0,1-2.49.5l-2.495-1.02a1.529,1.529,0,0,1-.5-2.5l19.991-19.991A1.529,1.529,0,0,1,311.357,132.586Z" transform="translate(-240.267 -111.694)" fill="#6c3328"/>
              <g id="Group_1223149" data-name="Group 1223149">
                <path id="Path_1175568" data-name="Path 1175568" d="M81.457,85.537h-.931a12.951,12.951,0,0,1-1.079-2.056,1.252,1.252,0,1,0-2.314.958c.155.374.328.739.51,1.1H28.524a4.006,4.006,0,0,0-1.091.152,14.556,14.556,0,0,1-1.84-7.455c0-.546.024-1.084.071-1.612H49.654a1.252,1.252,0,0,0,0-2.5H26.718L29.66,70.93H77.636a15.63,15.63,0,0,0-1.205,3.187H59.972a1.252,1.252,0,0,0,0,2.5H75.993c-.049.509-.077,1.023-.08,1.541A1.252,1.252,0,0,0,77.16,79.42h.005a1.252,1.252,0,0,0,1.252-1.247,13.4,13.4,0,0,1,2.106-7.243h.934a4.023,4.023,0,0,0,0-8.045H65.8L80.145,48.544a4.311,4.311,0,0,0,0-6.1l-.315-.315a4.309,4.309,0,0,0-5.875-.205l-2.216-2.216.755-.755a3.538,3.538,0,0,0,.775-3.85l-1.02-2.495a2.775,2.775,0,0,0-2.014-1.672L68.493,29.2a1.252,1.252,0,1,0-1.771,1.771l.857.857L47.845,51.56l-5.8-5.8L61.775,26.022l.768.768a1.252,1.252,0,1,0,1.771-1.771l-1.653-1.653a2.776,2.776,0,0,0-1.672-2.015h0l-2.495-1.02a3.539,3.539,0,0,0-3.85.775l-.755.755-2.217-2.216a4.309,4.309,0,0,0-.205-5.874l-.315-.315a4.311,4.311,0,0,0-6.1,0L29.474,29.038a4.311,4.311,0,0,0,0,6.1l.315.315a4.309,4.309,0,0,0,5.875.205l2.217,2.217-.755.755a3.538,3.538,0,0,0-.775,3.849l1.02,2.495a2.774,2.774,0,0,0,1.986,1.665l-6.279,7.489a4.278,4.278,0,0,0-5.651,5.424L24.58,62.178a1.252,1.252,0,0,0,1.7,1.84l2.631-2.429,3.1,3.1L8.7,89.949a3.569,3.569,0,1,1-5.043-5.043l18.29-16.884a1.252,1.252,0,0,0-1.7-1.84L1.953,83.065A6.073,6.073,0,0,0,6.068,93.6h.126a6.022,6.022,0,0,0,4.341-1.953l7.5-8.13a14.431,14.431,0,0,0,2.013,4.293,2.916,2.916,0,0,0,2.375,1.219h2.109a4.016,4.016,0,0,0,3.987,4.552H81.457a4.023,4.023,0,1,0,0-8.045Zm1.518-18.629a1.52,1.52,0,0,1-1.518,1.518H31.972l2.081-2.255a4.28,4.28,0,0,0,4.271-.782H81.457a1.52,1.52,0,0,1,1.518,1.518ZM45.2,52.457l-7.25,6.078-2.883-2.883L41.145,48.4ZM39.737,62.885a4.3,4.3,0,0,0-.261-2.362l7.489-6.278A2.775,2.775,0,0,0,48.63,56.23l2.495,1.02a3.539,3.539,0,0,0,3.849-.775l.755-.755,2.217,2.217a4.319,4.319,0,0,0-.5,4.948H39.737ZM76.782,43.374a1.8,1.8,0,0,1,1.277.529l.315.315a1.806,1.806,0,0,1,0,2.555L62.791,62.356a1.806,1.806,0,0,1-2.554,0l-.315-.315a1.808,1.808,0,0,1,0-2.555L75.5,43.9A1.794,1.794,0,0,1,76.782,43.374Zm-4.606.316L59.708,56.158,57.5,53.95,69.968,41.482Zm-22.69,9.77L69.478,33.468a.263.263,0,0,1,.191-.082.306.306,0,0,1,.059.006.266.266,0,0,1,.2.167l1.02,2.495a1.039,1.039,0,0,1-.228,1.131L53.2,54.7a1.039,1.039,0,0,1-1.131.228l-2.495-1.02a.277.277,0,0,1-.091-.453ZM32.838,34.209a1.794,1.794,0,0,1-1.277-.529l-.315-.315a1.806,1.806,0,0,1,0-2.555L46.828,15.227a1.806,1.806,0,0,1,2.554,0l.315.315a1.806,1.806,0,0,1,0,2.555L34.115,33.68a1.8,1.8,0,0,1-1.277.529Zm4.606-.316L49.911,21.425l2.208,2.208L39.651,36.1ZM38.9,40.4,56.416,22.878a1.039,1.039,0,0,1,1.131-.228l2.495,1.02a.277.277,0,0,1,.091.452L40.141,44.114a.277.277,0,0,1-.452-.091l-1.02-2.495A1.04,1.04,0,0,1,38.9,40.4ZM29.671,58.075a1.771,1.771,0,0,1,3.024-1.252l4.084,4.084a1.771,1.771,0,0,1-2.5,2.5L30.19,59.327a1.76,1.76,0,0,1-.519-1.252ZM22.094,86.359a12.633,12.633,0,0,1-2.005-5.06l3-3.251c0,.062,0,.124,0,.186a17.373,17.373,0,0,0,1.942,8.292h-2.6A.407.407,0,0,1,22.094,86.359Zm59.363,4.718H28.524a1.518,1.518,0,1,1,0-3.037H81.457a1.518,1.518,0,1,1,0,3.037Z" transform="translate(0.001 -12.193)"/>
                <path id="Path_1175569" data-name="Path 1175569" d="M203.579,417.166a1.252,1.252,0,1,0,0,2.5h29.172a1.252,1.252,0,1,0,0-2.5Z" transform="translate(-168.547 -349.554)"/>
              </g>
            </g>
          </g>
        </g>
      </g>
    </g>
  </g>
</svg>
