<svg xmlns="http://www.w3.org/2000/svg" xmlns:xlink="http://www.w3.org/1999/xlink" width="108" height="108" viewBox="0 0 108 108">
  <defs>
    <filter id="Path_978624" x="0" y="0" width="108" height="108" filterUnits="userSpaceOnUse">
      <feOffset dy="3" input="SourceAlpha"/>
      <feGaussianBlur stdDeviation="3" result="blur"/>
      <feFlood flood-opacity="0.161"/>
      <feComposite operator="in" in2="blur"/>
      <feComposite in="SourceGraphic"/>
    </filter>
    <filter id="Path_1076716" x="0" y="0" width="108" height="108" filterUnits="userSpaceOnUse">
      <feOffset dy="3" input="SourceAlpha"/>
      <feGaussianBlur stdDeviation="3" result="blur-2"/>
      <feFlood flood-opacity="0.161"/>
      <feComposite operator="in" in2="blur-2"/>
      <feComposite in="SourceGraphic"/>
    </filter>
  </defs>
  <g id="Group_1220598" data-name="Group 1220598" transform="translate(-200 -3855)">
    <g id="Group_1220490" data-name="Group 1220490" transform="translate(-416 3554)">
      <g id="Group_1216087" data-name="Group 1216087" transform="translate(625 307)">
        <g id="Group_1208503" data-name="Group 1208503" transform="translate(0)">
          <g id="Group_1200660" data-name="Group 1200660">
            <g id="Group_1181203" data-name="Group 1181203">
              <g id="Group_1172348" data-name="Group 1172348">
                <g id="Group_1171897" data-name="Group 1171897">
                  <g id="Group_1171052" data-name="Group 1171052">
                    <g id="Group_1164581" data-name="Group 1164581">
                      <g id="Group_1144123" data-name="Group 1144123">
                        <g transform="matrix(1, 0, 0, 1, -9, -6)" filter="url(#Path_978624)">
                          <g id="Path_978624-2" data-name="Path 978624" transform="translate(9 6)" fill="#fcf5f0">
                            <path d="M 45 88.5 C 39.12687683105469 88.5 33.43022537231445 87.35007476806641 28.06830024719238 85.08217620849609 C 22.88852500915527 82.89131164550781 18.23629951477051 79.75458526611328 14.2408504486084 75.75914764404297 C 10.24541282653809 71.76370239257812 7.108687400817871 67.11147308349609 4.917825222015381 61.93170166015625 C 2.649924993515015 56.56977462768555 1.5 50.87312316894531 1.5 45 C 1.5 39.12687683105469 2.649924993515015 33.43022537231445 4.917825222015381 28.06830024719238 C 7.108687400817871 22.88852500915527 10.24541282653809 18.23629951477051 14.2408504486084 14.2408504486084 C 18.23629951477051 10.24541282653809 22.88852500915527 7.108687400817871 28.06830024719238 4.917825222015381 C 33.43022537231445 2.649924993515015 39.12687683105469 1.5 45 1.5 C 50.87312316894531 1.5 56.56977462768555 2.649924993515015 61.93170166015625 4.917825222015381 C 67.11147308349609 7.108687400817871 71.76370239257812 10.24541282653809 75.75914764404297 14.2408504486084 C 79.75458526611328 18.23629951477051 82.89131164550781 22.88852500915527 85.08217620849609 28.06830024719238 C 87.35007476806641 33.43022537231445 88.5 39.12687683105469 88.5 45 C 88.5 50.87312316894531 87.35007476806641 56.56977462768555 85.08217620849609 61.93170166015625 C 82.89131164550781 67.11147308349609 79.75458526611328 71.76370239257812 75.75914764404297 75.75914764404297 C 71.76370239257812 79.75458526611328 67.11147308349609 82.89131164550781 61.93170166015625 85.08217620849609 C 56.56977462768555 87.35007476806641 50.87312316894531 88.5 45 88.5 Z" stroke="none"/>
                            <path d="M 45 3 C 39.32871246337891 3 33.82865524291992 4.110054016113281 28.65262985229492 6.299339294433594 C 23.65165710449219 8.414573669433594 19.15968322753906 11.44334411621094 15.301513671875 15.301513671875 C 11.44334411621094 19.15968322753906 8.414573669433594 23.65165710449219 6.299339294433594 28.65262985229492 C 4.110054016113281 33.82865524291992 3 39.32871246337891 3 45 C 3 50.67128753662109 4.110054016113281 56.17134475708008 6.299339294433594 61.34737396240234 C 8.414573669433594 66.34834289550781 11.44334411621094 70.84031677246094 15.301513671875 74.698486328125 C 19.15968322753906 78.55665588378906 23.65165710449219 81.58542633056641 28.65262985229492 83.70066070556641 C 33.82865524291992 85.88994598388672 39.32871246337891 87 45 87 C 50.67128753662109 87 56.17134475708008 85.88994598388672 61.34737396240234 83.70066070556641 C 66.34834289550781 81.58542633056641 70.84031677246094 78.55665588378906 74.698486328125 74.698486328125 C 78.55665588378906 70.84031677246094 81.58542633056641 66.34834289550781 83.70066070556641 61.34737396240234 C 85.88994598388672 56.17134475708008 87 50.67128753662109 87 45 C 87 39.32871246337891 85.88994598388672 33.82865524291992 83.70066070556641 28.65262985229492 C 81.58542633056641 23.65165710449219 78.55665588378906 19.15968322753906 74.698486328125 15.301513671875 C 70.84031677246094 11.44334411621094 66.34834289550781 8.414573669433594 61.34737396240234 6.299339294433594 C 56.17134475708008 4.110054016113281 50.67128753662109 3 45 3 M 45 0 C 69.85281372070312 0 90 20.14718627929688 90 45 C 90 69.85281372070312 69.85281372070312 90 45 90 C 20.14718627929688 90 0 69.85281372070312 0 45 C 0 20.14718627929688 20.14718627929688 0 45 0 Z" stroke="none" fill="#eca675"/>
                          </g>
                        </g>
                        <g transform="matrix(1, 0, 0, 1, -9, -6)" filter="url(#Path_1076716)">
                          <g id="Path_1076716-2" data-name="Path 1076716" transform="translate(9 6)" fill="#fcf5f0">
                            <path d="M 45 88.5 C 39.12687683105469 88.5 33.43022537231445 87.35007476806641 28.06830024719238 85.08217620849609 C 22.88852500915527 82.89131164550781 18.23629951477051 79.75458526611328 14.2408504486084 75.75914764404297 C 10.24541282653809 71.76370239257812 7.108687400817871 67.11147308349609 4.917825222015381 61.93170166015625 C 2.649924993515015 56.56977462768555 1.5 50.87312316894531 1.5 45 C 1.5 39.12687683105469 2.649924993515015 33.43022537231445 4.917825222015381 28.06830024719238 C 7.108687400817871 22.88852500915527 10.24541282653809 18.23629951477051 14.2408504486084 14.2408504486084 C 18.23629951477051 10.24541282653809 22.88852500915527 7.108687400817871 28.06830024719238 4.917825222015381 C 33.43022537231445 2.649924993515015 39.12687683105469 1.5 45 1.5 C 50.87312316894531 1.5 56.56977462768555 2.649924993515015 61.93170166015625 4.917825222015381 C 67.11147308349609 7.108687400817871 71.76370239257812 10.24541282653809 75.75914764404297 14.2408504486084 C 79.75458526611328 18.23629951477051 82.89131164550781 22.88852500915527 85.08217620849609 28.06830024719238 C 87.35007476806641 33.43022537231445 88.5 39.12687683105469 88.5 45 C 88.5 50.87312316894531 87.35007476806641 56.56977462768555 85.08217620849609 61.93170166015625 C 82.89131164550781 67.11147308349609 79.75458526611328 71.76370239257812 75.75914764404297 75.75914764404297 C 71.76370239257812 79.75458526611328 67.11147308349609 82.89131164550781 61.93170166015625 85.08217620849609 C 56.56977462768555 87.35007476806641 50.87312316894531 88.5 45 88.5 Z" stroke="none"/>
                            <path d="M 45 3 C 39.32871246337891 3 33.82865524291992 4.110054016113281 28.65262985229492 6.299339294433594 C 23.65165710449219 8.414573669433594 19.15968322753906 11.44334411621094 15.301513671875 15.301513671875 C 11.44334411621094 19.15968322753906 8.414573669433594 23.65165710449219 6.299339294433594 28.65262985229492 C 4.110054016113281 33.82865524291992 3 39.32871246337891 3 45 C 3 50.67128753662109 4.110054016113281 56.17134475708008 6.299339294433594 61.34737396240234 C 8.414573669433594 66.34834289550781 11.44334411621094 70.84031677246094 15.301513671875 74.698486328125 C 19.15968322753906 78.55665588378906 23.65165710449219 81.58542633056641 28.65262985229492 83.70066070556641 C 33.82865524291992 85.88994598388672 39.32871246337891 87 45 87 C 50.67128753662109 87 56.17134475708008 85.88994598388672 61.34737396240234 83.70066070556641 C 66.34834289550781 81.58542633056641 70.84031677246094 78.55665588378906 74.698486328125 74.698486328125 C 78.55665588378906 70.84031677246094 81.58542633056641 66.34834289550781 83.70066070556641 61.34737396240234 C 85.88994598388672 56.17134475708008 87 50.67128753662109 87 45 C 87 39.32871246337891 85.88994598388672 33.82865524291992 83.70066070556641 28.65262985229492 C 81.58542633056641 23.65165710449219 78.55665588378906 19.15968322753906 74.698486328125 15.301513671875 C 70.84031677246094 11.44334411621094 66.34834289550781 8.414573669433594 61.34737396240234 6.299339294433594 C 56.17134475708008 4.110054016113281 50.67128753662109 3 45 3 M 45 0 C 69.85281372070312 0 90 20.14718627929688 90 45 C 90 69.85281372070312 69.85281372070312 90 45 90 C 20.14718627929688 90 0 69.85281372070312 0 45 C 0 20.14718627929688 20.14718627929688 0 45 0 Z" stroke="none" fill="#eca675"/>
                          </g>
                        </g>
                      </g>
                    </g>
                  </g>
                </g>
              </g>
            </g>
          </g>
        </g>
      </g>
      <g id="educacion-en-derecho" transform="translate(620.963 324.89)">
        <path id="Path_1163647" data-name="Path 1163647" d="M20.228,82.607H50.105v31.685H20.228Z" transform="translate(-6.821 -70.171)" fill="#a9a9ae"/>
        <path id="Path_1163648" data-name="Path 1163648" d="M217.917,82.607h29.878v31.685H217.917Z" transform="translate(-174.632 -70.171)" fill="#89898d"/>
        <path id="Path_1163649" data-name="Path 1163649" d="M59.6,8.592c7.977-1,15.95-1.315,23.927,3.9V46.926C75.781,42.9,67.855,40.894,59.6,42.483Z" transform="translate(-40.242 -6.84)" fill="#eceff1" fill-rule="evenodd"/>
        <path id="Path_1163650" data-name="Path 1163650" d="M241.837,8.592c-7.973-1-15.95-1.315-23.922,3.9V46.926c7.741-4.027,15.671-6.032,23.922-4.443Z" transform="translate(-174.63 -6.84)" fill="#bfc2c3" fill-rule="evenodd"/>
        <path id="Path_1163651" data-name="Path 1163651" d="M166.609,450.358h49.143v-1.367c0-4.019-4.057-7.292-9.027-7.292h-31.09c-4.97,0-9.027,3.273-9.027,7.292Z" transform="translate(-131.078 -374.992)" fill="#8a4c1d" fill-rule="evenodd"/>
        <path id="Path_1163652" data-name="Path 1163652" d="M226.817,409.073h30.944V414H226.817Z" transform="translate(-182.187 -347.297)" fill="#aa5d24"/>
        <path id="Path_1163653" data-name="Path 1163653" d="M63.4,327.043l14.887-16.6,9.429-7.527L84.9,300.082l-2.815-2.836-7.6,9.369L57.776,321.37c-4.459,3.933,1.834,9.9,5.625,5.673Z" transform="translate(-37.39 -252.37)" fill="#995420" fill-rule="evenodd"/>
        <path id="Path_1163654" data-name="Path 1163654" d="M176.487,333.194l3.8,3.83a2.374,2.374,0,0,1-3.372,3.342l-3.8-3.83a2.374,2.374,0,0,1,3.372-3.342Z" transform="translate(-136.021 -282.29)" fill="#aa5d24" fill-rule="evenodd"/>
        <path id="Path_1163655" data-name="Path 1163655" d="M0,0H20.16V7.991H0Z" transform="matrix(0.71, -0.704, 0.704, 0.71, 44.692, 44.9)" fill="#cfa851"/>
        <g id="Group_1217190" data-name="Group 1217190" transform="translate(36.941 1.4)">
          <path id="Path_1163656" data-name="Path 1163656" d="M217.2,192.745l-6.683,6.632,2.532,3.714,7.266-7.206,7.047-6.992-3.693-2.566Z" transform="translate(-205.292 -159.615)" fill="#cfa851" fill-rule="evenodd"/>
          <path id="Path_1163657" data-name="Path 1163657" d="M194.007,154.188l-1.487-1.5a2.379,2.379,0,0,0-3.346-.013L176.64,165.091a2.361,2.361,0,0,0-.013,3.337l1.482,1.5a2.379,2.379,0,0,0,3.346.013l12.535-12.411A2.365,2.365,0,0,0,194.007,154.188Z" transform="translate(-175.942 -130.475)" fill="#ffd064" fill-rule="evenodd"/>
          <path id="Path_1163658" data-name="Path 1163658" d="M274.894,250.965l-6.683,6.632-3.693-2.562,7.262-7.206,7.052-6.992,2.532,3.71Z" transform="translate(-251.131 -205.887)" fill="#cfa851" fill-rule="evenodd"/>
          <path id="Path_1163659" data-name="Path 1163659" d="M304.7,264.881l-1.487-1.5a2.379,2.379,0,0,0-3.346-.013l-12.535,12.411a2.361,2.361,0,0,0-.013,3.337l1.482,1.5a2.379,2.379,0,0,0,3.346.013l12.535-12.411a2.365,2.365,0,0,0,.017-3.337Z" transform="translate(-269.906 -224.439)" fill="#ffd064" fill-rule="evenodd"/>
          <path id="Path_1163660" data-name="Path 1163660" d="M382.3,409.073V414h7.446v-4.931Z" transform="translate(-351.111 -348.697)" fill="#8a4c1d" fill-rule="evenodd"/>
          <path id="Path_1163661" data-name="Path 1163661" d="M390.153,441.7H382.78c4.969,0,9.027,3.273,9.027,7.292v1.367h7.446v-1.367c0-4.019-4.057-7.292-9.027-7.292Z" transform="translate(-351.52 -376.393)" fill="#703d17" fill-rule="evenodd"/>
          <path id="Path_1163662" data-name="Path 1163662" d="M355.057,20.622V43.388a28.481,28.481,0,0,1,3.2.441V9.937c-1.062-.133-2.129-.253-3.2-.351Z" transform="translate(-327.987 -9.586)" fill="#9b9e9e" fill-rule="evenodd"/>
        </g>
        <path id="Path_1163663" data-name="Path 1163663" d="M76.785,65.557V61.782a1.21,1.21,0,0,0-1.21-1.21H44.626a1.21,1.21,0,0,0-1.21,1.21v3.775c-5.108.473-9.1,4.081-9.1,8.448v1.367a1.21,1.21,0,0,0,1.21,1.21H84.67a1.21,1.21,0,0,0,1.21-1.21V74.005c0-4.368-3.986-7.975-9.1-8.448ZM45.837,62.992H74.364V65.5H45.837ZM83.46,74.161H36.741V74c0-3.353,3.506-6.081,7.817-6.081H75.643c4.31,0,7.816,2.728,7.816,6.081Zm-40.9-14.169h.021a3.574,3.574,0,0,0,3.58-3.568,3.616,3.616,0,0,0-.112-.907l4.327-3.455,2.183,1.515a3.608,3.608,0,0,0-.1.828,3.556,3.556,0,0,0,1.036,2.542l1.483,1.491a3.585,3.585,0,0,0,5.055.019L72.57,46.046a3.566,3.566,0,0,0,.554-.708h.034a1.21,1.21,0,0,0,1.21-1.21V12.442a1.21,1.21,0,0,0-1.21-1.21h-4.74V1.757a1.211,1.211,0,0,0-1.06-1.2C59.711-.4,51.563-.893,43.281,4.226A27.972,27.972,0,0,0,31.455.175,51.636,51.636,0,0,0,19.208.556a1.21,1.21,0,0,0-1.06,1.2v9.474H13.4a1.21,1.21,0,0,0-1.21,1.21V44.127a1.21,1.21,0,0,0,1.21,1.21H42.77L39.7,49.117A3.605,3.605,0,0,0,38.8,49h-.017a3.585,3.585,0,0,0-3.273,5.041L19.581,68.1a5.112,5.112,0,0,0-1.809,5.108,5.588,5.588,0,0,0,3.995,3.981A5.049,5.049,0,0,0,23,77.341a5.235,5.235,0,0,0,3.913-1.855L41.1,59.673a3.58,3.58,0,0,0,1.462.318Zm7.773-11.15L46.41,44.888l4.329-4.295L59,32.4l3.924,3.954-4.575,4.539ZM38.486,36.882l12.533-12.41a1.181,1.181,0,0,1,1.641,0l1.482,1.5,0,0a1.155,1.155,0,0,1-.007,1.623L41.6,40.007A1.16,1.16,0,0,1,39.962,40l-1.481-1.489a1.151,1.151,0,0,1-.334-.822,1.134,1.134,0,0,1,.339-.808Zm5.239,4.426L55.458,29.694l1.664,1.155L44.878,43Zm8.485,9.08L64.457,38.239l1.147,1.68L53.868,51.539Zm18.658-6.064L58.327,56.736a1.16,1.16,0,0,1-1.636-.006L55.21,55.24a1.151,1.151,0,0,1-.334-.822,1.134,1.134,0,0,1,.339-.807L67.749,41.2a1.18,1.18,0,0,1,1.641,0l1.482,1.5,0,0a1.154,1.154,0,0,1-.006,1.623Zm-3.66-7.466a1.21,1.21,0,0,0,1.21-1.21v-22h3.53v26.7l-.841-.848a3.586,3.586,0,0,0-3.489-.922l-1.263-1.851c.208.036.416.07.622.11A1.211,1.211,0,0,0,67.207,36.858ZM66,2.829V34.217c-.664-.1-1.332-.171-2-.225l-4.13-4.161c-.011-.011-.023-.021-.035-.032l-.042-.039c-.021-.018-.043-.034-.065-.051s-.018-.015-.027-.021l-2.913-2.021a3.615,3.615,0,0,0,.11-.877,3.54,3.54,0,0,0-1.034-2.526l-1.484-1.5a3.593,3.593,0,0,0-5.06-.019l-4.826,4.78V6.326C51.763,1.81,59.076,2.019,66,2.829Zm-45.429,0c6.922-.811,14.233-1.022,21.5,3.494v23.6L36.784,35.16a3.572,3.572,0,0,0-.5.625,33.715,33.715,0,0,0-15.712-1.568ZM14.614,13.652h3.533v22a1.21,1.21,0,0,0,1.439,1.188,31.134,31.134,0,0,1,16.17,1.325,3.552,3.552,0,0,0,1.006,2.054l1.483,1.491a3.569,3.569,0,0,0,3.456.93l.19.279H14.613ZM44.79,46.69l3.727,3.758-3.8,3.033-2.992-3.016Zm-6.828,5.063a1.15,1.15,0,0,1,.818-.335h.006a1.144,1.144,0,0,1,.815.34l0,0,3.8,3.831a1.162,1.162,0,0,1-1.65,1.636l-3.8-3.832a1.164,1.164,0,0,1,.009-1.643ZM25.11,73.869a2.667,2.667,0,0,1-2.752.969,3.152,3.152,0,0,1-2.233-2.2,2.706,2.706,0,0,1,1.058-2.721l15.857-14,2.194,2.211Z" transform="translate(0 0)"/>
      </g>
    </g>
  </g>
</svg>
