<svg xmlns="http://www.w3.org/2000/svg" xmlns:xlink="http://www.w3.org/1999/xlink" width="110" height="110" viewBox="0 0 110 110">
  <defs>
    <filter id="Path_982547" x="0" y="0" width="110" height="110" filterUnits="userSpaceOnUse">
      <feOffset dy="3" input="SourceAlpha"/>
      <feGaussianBlur stdDeviation="3" result="blur"/>
      <feFlood flood-opacity="0.161"/>
      <feComposite operator="in" in2="blur"/>
      <feComposite in="SourceGraphic"/>
    </filter>
  </defs>
  <g id="Group_1223173" data-name="Group 1223173" transform="translate(460 -1137.647)">
    <g id="Group_1222769" data-name="Group 1222769">
      <g id="Group_1210976" data-name="Group 1210976" transform="translate(-451 1143.647)">
        <g id="Group_1200150" data-name="Group 1200150" transform="translate(0 0)">
          <g id="Group_1185951" data-name="Group 1185951" transform="translate(0 0)">
            <g id="Group_1184083" data-name="Group 1184083" transform="translate(0 0)">
              <g id="Group_1183743" data-name="Group 1183743">
                <g id="Group_1181545" data-name="Group 1181545">
                  <g id="Group_1177562" data-name="Group 1177562">
                    <g id="Group_1173147" data-name="Group 1173147" transform="translate(0 0)">
                      <g id="Group_1163801" data-name="Group 1163801" transform="translate(0 0)">
                        <g id="Group_1163014" data-name="Group 1163014" transform="translate(0 0)">
                          <g id="Group_1157015" data-name="Group 1157015">
                            <g id="Group_1155792" data-name="Group 1155792">
                              <g id="Group_1154703" data-name="Group 1154703">
                                <g id="Group_1150789" data-name="Group 1150789">
                                  <g id="Group_1154212" data-name="Group 1154212">
                                    <g id="Group_1152583" data-name="Group 1152583">
                                      <g id="Group_1146973" data-name="Group 1146973">
                                        <g id="Group_1146954" data-name="Group 1146954">
                                          <g transform="matrix(1, 0, 0, 1, -9, -6)" filter="url(#Path_982547)">
                                            <g id="Path_982547-2" data-name="Path 982547" transform="translate(9 6)" fill="#f9e3d4">
                                              <path d="M 46.00000381469727 90.49986267089844 C 39.99188232421875 90.49986267089844 34.16427230834961 89.32350158691406 28.67905807495117 87.00344848632812 C 23.38020324707031 84.76223754882812 18.62104415893555 81.55341339111328 14.53375053405762 77.46613311767578 C 10.44647026062012 73.37885284423828 7.237643718719482 68.61968994140625 4.996417045593262 63.32085037231445 C 2.676363706588745 57.83565139770508 1.500003814697266 52.00805282592773 1.500003814697266 45.99993133544922 C 1.500003814697266 39.99182510375977 2.676363706588745 34.16422653198242 4.996417045593262 28.67901039123535 C 7.237643718719482 23.38017082214355 10.44647026062012 18.62101173400879 14.53375053405762 14.53373146057129 C 18.62104415893555 10.44645118713379 23.38020324707031 7.237624645233154 28.67905807495117 4.996411323547363 C 34.16427230834961 2.676357984542847 39.99188232421875 1.499997973442078 46.00000381469727 1.499997973442078 C 52.00812530517578 1.499997973442078 57.83573532104492 2.676357984542847 63.32094955444336 4.996411323547363 C 68.61980438232422 7.237624645233154 73.37896728515625 10.44645118713379 77.46625518798828 14.53373146057129 C 81.55353546142578 18.62101173400879 84.76236724853516 23.38017082214355 87.00359344482422 28.67901039123535 C 89.32364654541016 34.16422653198242 90.5 39.99182510375977 90.5 45.99993133544922 C 90.5 52.00805282592773 89.32364654541016 57.83565139770508 87.00359344482422 63.32085037231445 C 84.76236724853516 68.61968994140625 81.55353546142578 73.37885284423828 77.46625518798828 77.46613311767578 C 73.37896728515625 81.55341339111328 68.61980438232422 84.76223754882812 63.32094955444336 87.00344848632812 C 57.83573532104492 89.32350158691406 52.00812530517578 90.49986267089844 46.00000381469727 90.49986267089844 Z" stroke="none"/>
                                              <path d="M 46.00000381469727 3 C 40.19371795654297 3 34.56270217895508 4.136505126953125 29.26337432861328 6.377914428710938 C 24.14333343505859 8.54351806640625 19.54441833496094 11.64438629150391 15.59440612792969 15.59439086914062 C 11.64440155029297 19.54440307617188 8.54351806640625 24.14330291748047 6.377914428710938 29.26334381103516 C 4.136505126953125 34.56266021728516 3.000007629394531 40.19366073608398 3.000007629394531 45.99993133544922 C 3.000007629394531 51.80620193481445 4.136505126953125 57.43720245361328 6.377914428710938 62.73651885986328 C 8.54351806640625 67.85655975341797 11.64440155029297 72.45545959472656 15.59440612792969 76.40547180175781 C 19.54441833496094 80.35547637939453 24.14333343505859 83.45634460449219 29.26337432861328 85.6219482421875 C 34.56270217895508 87.86335754394531 40.19371795654297 88.99986267089844 46.00000381469727 88.99986267089844 C 51.80628967285156 88.99986267089844 57.43730545043945 87.86335754394531 62.73661804199219 85.6219482421875 C 67.85667419433594 83.45634460449219 72.45557403564453 80.35547637939453 76.40558624267578 76.40547180175781 C 80.35560607910156 72.45545959472656 83.45647430419922 67.85655975341797 85.62207794189453 62.73651885986328 C 87.86350250244141 57.43720245361328 89 51.80620193481445 89 45.99993133544922 C 89 40.19366073608398 87.86350250244141 34.56266021728516 85.62207794189453 29.26334381103516 C 83.45647430419922 24.14330291748047 80.35560607910156 19.54440307617188 76.40558624267578 15.59439086914062 C 72.45557403564453 11.64438629150391 67.85667419433594 8.54351806640625 62.73661804199219 6.377914428710938 C 57.43730545043945 4.136505126953125 51.80628967285156 3 46.00000381469727 3 M 46.00000381469727 0 C 71.40509033203125 0 92 20.59487152099609 92 45.99993133544922 C 92 71.40499114990234 71.40509033203125 91.99986267089844 46.00000381469727 91.99986267089844 C 20.59490203857422 91.99986267089844 7.62939453125e-06 71.40499114990234 7.62939453125e-06 45.99993133544922 C 7.62939453125e-06 20.59487152099609 20.59490203857422 0 46.00000381469727 0 Z" stroke="none" fill="#eca675"/>
                                            </g>
                                          </g>
                                        </g>
                                      </g>
                                    </g>
                                  </g>
                                </g>
                              </g>
                            </g>
                          </g>
                        </g>
                      </g>
                    </g>
                  </g>
                </g>
              </g>
            </g>
          </g>
        </g>
      </g>
      <path id="Path_1174783" data-name="Path 1174783" d="M15.436,33.743H28.481a5.436,5.436,0,0,0,5.436-5.436V24.973c0-5.363-4.3-12.973-5.58-12.973H15.58C14.3,12,10,19.61,10,24.973v3.334A5.436,5.436,0,0,0,15.436,33.743Z" transform="translate(-441.303 1163.643)" fill="#febe07"/>
      <path id="Path_1174784" data-name="Path 1174784" d="M30.277,4.388,28,5.524a.8.8,0,0,1-.995-.235l-1.44-1.921a.8.8,0,0,0-1.2-.086L22.479,5.172a.8.8,0,0,1-1.2-.086L19.989,3.369a.8.8,0,0,0-1.2-.086L16.581,5.49a.8.8,0,0,1-.783.2L12.5,4.75A.8.8,0,0,0,11.58,5.9l3.727,6.88H28.352l3.017-7.372a.8.8,0,0,0-1.093-1.02Z" transform="translate(-441.174 1162.863)" fill="#febe07"/>
      <path id="Path_1174785" data-name="Path 1174785" d="M28.038,33.743a5.436,5.436,0,0,0,5.436-5.436V24.973c0-5.363-4.3-12.973-5.58-12.973H15.137c-.726,0,6.914.469,10.727,6.523C28.774,23.144,28.038,33.743,28.038,33.743Z" transform="translate(-440.86 1163.643)" fill="#b18300"/>
      <path id="Path_1174786" data-name="Path 1174786" d="M30,4.288l-1.537.769A23.333,23.333,0,0,1,17.6,11.222l-2.957.739.389.719H28.077l3.017-7.372A.8.8,0,0,0,30,4.288Z" transform="translate(-440.898 1162.964)" fill="#b18300"/>
      <path id="Path_1174787" data-name="Path 1174787" d="M35,4H45.871V34.44H35Z" transform="translate(-439.125 1162.946)" fill="#5aa2ff"/>
      <path id="Path_1174788" data-name="Path 1174788" d="M45.7,16l-4.349,4.349L37,24.7h2.174v8.7H45.7Z" transform="translate(-438.95 1163.992)" fill="#2b67b3"/>
      <path id="Path_1174789" data-name="Path 1174789" d="M29.588,16H26V33.394h9.784V16Z" transform="translate(-439.909 1163.992)" fill="#5aa2ff"/>
      <path id="Path_1174790" data-name="Path 1174790" d="M47,27h4.349v5.436H47Z" transform="translate(-438.079 1164.95)" fill="#5aa2ff"/>
      <path id="Path_1174791" data-name="Path 1174791" d="M61.777,30a3,3,0,0,0-2.686,1.66l-.257.514L55.573,38.7l-7.61,3.261a4.349,4.349,0,0,0-4.349-4.349H27.961A29.178,29.178,0,0,0,11,43.046V59.353H36.663A28.029,28.029,0,0,0,64.263,36.2l.472-2.672A3,3,0,0,0,61.777,30Z" transform="translate(-441.216 1165.212)" fill="#ffe5cf"/>
      <path id="Path_1174792" data-name="Path 1174792" d="M56.046,24H43v8.7h4.349V27.261H51.7V32.7h4.349Z" transform="translate(-438.427 1164.689)" fill="#cbe6fe"/>
      <path id="Path_1174793" data-name="Path 1174793" d="M10.61,37H4.087A1.088,1.088,0,0,0,3,38.087V62a1.088,1.088,0,0,0,1.087,1.087H10.61A1.088,1.088,0,0,0,11.7,62V38.087A1.088,1.088,0,0,0,10.61,37Z" transform="translate(-441.913 1165.822)" fill="#2b67b3"/>
      <path id="Path_1174794" data-name="Path 1174794" d="M58.394,24.7,49.7,16l-4.349,4.349L41,24.7Z" transform="translate(-438.602 1163.992)" fill="#b18300"/>
      <path id="Path_1174795" data-name="Path 1174795" d="M32,16h3.261V33.394H32Z" transform="translate(-439.386 1163.992)" fill="#2b67b3"/>
      <path id="Path_1174796" data-name="Path 1174796" d="M4.174,67.224H10.7a2.176,2.176,0,0,0,2.174-2.174V62.875H37.447a29.111,29.111,0,0,0,28.67-24.054l.472-2.672a4.082,4.082,0,0,0-5.884-4.35V27h1.087a1.087,1.087,0,0,0,.769-1.856l-8.7-8.7a1.086,1.086,0,0,0-1.537,0L49.834,18.94V4.17a1.087,1.087,0,0,0-1.087-1.087H37.875A1.087,1.087,0,0,0,36.788,4.17V16.128H32.383a17.7,17.7,0,0,0-1.931-3.5L33.2,5.913A1.884,1.884,0,0,0,30.618,3.5L28.562,4.531,27.267,2.8a1.885,1.885,0,0,0-2.842-.2L22.772,4.254,21.686,2.8a1.886,1.886,0,0,0-2.842-.2L16.758,4.687l-3.135-.9A1.884,1.884,0,0,0,11.449,6.5l3.287,6.069C12.429,14.658,9.61,20.516,9.61,25.84v3.334A6.529,6.529,0,0,0,16.133,35.7H57.859l-2.3,4.593-5.978,2.562A5.429,5.429,0,0,0,44.4,38.958H28.747a30.077,30.077,0,0,0-15.875,4.507V41.133A2.176,2.176,0,0,0,10.7,38.958H4.174A2.176,2.176,0,0,0,2,41.133V65.05a2.176,2.176,0,0,0,2.174,2.174Zm12.151-60.4a1.882,1.882,0,0,0,1.85-.479l1.971-1.971,1.087,1.451a1.885,1.885,0,0,0,2.841.2l1.654-1.652,1.24,1.652a1.879,1.879,0,0,0,2.35.557L30.9,5.793,28.448,11.78H25.5L26.889,9l-1.945-.973L23.071,11.78H21.165L19.65,8.627l-1.96.943,1.062,2.21H16.78L13.689,6.072ZM27,17.216V33.523H16.133a4.353,4.353,0,0,1-4.349-4.349V25.84c0-5.819,3.6-11.246,4.632-11.886H28.73a11.714,11.714,0,0,1,1.25,2.174H28.091A1.087,1.087,0,0,0,27,17.216ZM29.178,18.3h7.61v15.22h-7.61Zm23.917.45,6.073,6.073H47.023ZM38.963,5.257h8.7V21.114l-4.03,4.03A1.087,1.087,0,0,0,44.4,27h1.087v6.523H38.963ZM47.66,27H58.531v6.523H56.357V29.174a1.087,1.087,0,0,0-1.087-1.087H50.921a1.087,1.087,0,0,0-1.087,1.087v4.349H47.66Zm6.523,6.523H52.008V30.261h2.174Zm-25.436,7.61H44.4a3.261,3.261,0,0,1,0,6.523H27V49.83H44.4a5.426,5.426,0,0,0,5.36-4.687l7.026-3.011a1.08,1.08,0,0,0,.545-.513l3.518-7.037a1.917,1.917,0,0,1,3.6,1.19l-.472,2.672A26.94,26.94,0,0,1,37.447,60.7H12.871V46.066a27.925,27.925,0,0,1,15.875-4.933Zm-24.573,0H10.7V65.05H4.174Z" transform="translate(-442 1162.776)"/>
      <path id="Path_1174797" data-name="Path 1174797" d="M6,41H8.174v3.261H6Z" transform="translate(-441.651 1166.17)"/>
      <path id="Path_1174798" data-name="Path 1174798" d="M38,7h1.087V9.174H38Z" transform="translate(-438.863 1163.208)"/>
      <path id="Path_1174799" data-name="Path 1174799" d="M41,7h1.087V9.174H41Z" transform="translate(-438.602 1163.208)"/>
      <path id="Path_1174800" data-name="Path 1174800" d="M38,11h1.087v2.174H38Z" transform="translate(-438.863 1163.556)"/>
      <path id="Path_1174801" data-name="Path 1174801" d="M41,11h1.087v2.174H41Z" transform="translate(-438.602 1163.556)"/>
      <path id="Path_1174802" data-name="Path 1174802" d="M38,15h1.087v2.174H38Z" transform="translate(-438.863 1163.905)"/>
      <path id="Path_1174803" data-name="Path 1174803" d="M41,15h1.087v2.174H41Z" transform="translate(-438.602 1163.905)"/>
      <path id="Path_1174804" data-name="Path 1174804" d="M29,19h1.087v2.174H29Z" transform="translate(-439.647 1164.253)"/>
      <path id="Path_1174805" data-name="Path 1174805" d="M32,19h1.087v2.174H32Z" transform="translate(-439.386 1164.253)"/>
      <path id="Path_1174806" data-name="Path 1174806" d="M29,23h1.087v2.174H29Z" transform="translate(-439.647 1164.602)"/>
      <path id="Path_1174807" data-name="Path 1174807" d="M32,23h1.087v2.174H32Z" transform="translate(-439.386 1164.602)"/>
      <path id="Path_1174808" data-name="Path 1174808" d="M29,27h1.087v2.174H29Z" transform="translate(-439.647 1164.95)"/>
      <path id="Path_1174809" data-name="Path 1174809" d="M32,27h1.087v2.174H32Z" transform="translate(-439.386 1164.95)"/>
      <path id="Path_1174810" data-name="Path 1174810" d="M38,19h1.087v2.174H38Z" transform="translate(-438.863 1164.253)"/>
      <path id="Path_1174811" data-name="Path 1174811" d="M41,19h1.087v2.174H41Z" transform="translate(-438.602 1164.253)"/>
      <path id="Path_1174812" data-name="Path 1174812" d="M22.436,18.087H21.349V17H19.174v1.087H18.087A1.087,1.087,0,0,0,17,19.174v3.261a1.087,1.087,0,0,0,1.087,1.087h3.261V24.61H17V25.7a1.087,1.087,0,0,0,1.087,1.087h1.087v1.087h2.174V26.784h1.087A1.087,1.087,0,0,0,23.523,25.7V22.436a1.087,1.087,0,0,0-1.087-1.087H19.174V20.261h4.349V19.174A1.087,1.087,0,0,0,22.436,18.087Z" transform="translate(-440.693 1164.079)"/>
      <path id="Path_1174813" data-name="Path 1174813" d="M53,4h2.174V6.174H53Z" transform="translate(-437.556 1162.946)"/>
      <path id="Path_1174814" data-name="Path 1174814" d="M55,2h2.174V4.174H55Z" transform="translate(-437.382 1162.772)"/>
      <path id="Path_1174815" data-name="Path 1174815" d="M57,4h2.174V6.174H57Z" transform="translate(-437.208 1162.946)"/>
      <path id="Path_1174816" data-name="Path 1174816" d="M55,6h2.174V8.174H55Z" transform="translate(-437.382 1163.12)"/>
      <path id="Path_1174817" data-name="Path 1174817" d="M60,9h2.174v2.174H60Z" transform="translate(-436.946 1163.382)"/>
      <path id="Path_1174818" data-name="Path 1174818" d="M53,12h2.174v2.174H53Z" transform="translate(-437.556 1163.643)"/>
      <path id="Path_1174819" data-name="Path 1174819" d="M2,11H4.174v2.174H2Z" transform="translate(-442 1163.556)"/>
      <path id="Path_1174820" data-name="Path 1174820" d="M4,9H6.174v2.174H4Z" transform="translate(-441.826 1163.382)"/>
      <path id="Path_1174821" data-name="Path 1174821" d="M6,11H8.174v2.174H6Z" transform="translate(-441.651 1163.556)"/>
      <path id="Path_1174822" data-name="Path 1174822" d="M4,13H6.174v2.174H4Z" transform="translate(-441.826 1163.73)"/>
      <path id="Path_1174823" data-name="Path 1174823" d="M2,19H4.174v2.174H2Z" transform="translate(-442 1164.253)"/>
      <path id="Path_1174824" data-name="Path 1174824" d="M6,2H8.174V4.174H6Z" transform="translate(-441.651 1162.772)"/>
    </g>
  </g>
</svg>
