<svg xmlns="http://www.w3.org/2000/svg" xmlns:xlink="http://www.w3.org/1999/xlink" width="112.317" height="112.317" viewBox="0 0 112.317 112.317">
  <defs>
    <filter id="Path_978624" x="0" y="0" width="112.317" height="112.317" filterUnits="userSpaceOnUse">
      <feOffset dy="3" input="SourceAlpha"/>
      <feGaussianBlur stdDeviation="3" result="blur"/>
      <feFlood flood-opacity="0.161"/>
      <feComposite operator="in" in2="blur"/>
      <feComposite in="SourceGraphic"/>
    </filter>
  </defs>
  <g id="Group_1220588" data-name="Group 1220588" transform="translate(-161.683 -787.671)">
    <g id="Group_1220486" data-name="Group 1220486" transform="translate(1.719 -109.671)">
      <g id="Group_1215987" data-name="Group 1215987" transform="translate(0 -793.5)">
        <g id="Group_1210476" data-name="Group 1210476" transform="translate(0 -2223.158)">
          <g id="Group_1210475" data-name="Group 1210475" transform="translate(167.192 3920)">
            <g id="Group_1209741" data-name="Group 1209741" transform="translate(1.772)">
              <g id="Group_1178144" data-name="Group 1178144" transform="translate(0 0)">
                <g id="Group_1177896" data-name="Group 1177896">
                  <g id="Group_1176881" data-name="Group 1176881">
                    <g id="Group_1175148" data-name="Group 1175148">
                      <g id="Group_1173798" data-name="Group 1173798">
                        <g id="Group_1171925" data-name="Group 1171925">
                          <g id="Group_1164524" data-name="Group 1164524">
                            <g id="Group_1144123" data-name="Group 1144123">
                              <g transform="matrix(1, 0, 0, 1, -9, -6)" filter="url(#Path_978624)">
                                <g id="Path_978624-2" data-name="Path 978624" transform="translate(9 6)" fill="#cfd7c8">
                                  <path d="M 47.15840148925781 92.81680297851562 C 40.993896484375 92.81680297851562 35.01457595825195 91.60981750488281 29.38654899597168 89.22934722900391 C 23.94976234436035 86.92978668212891 19.06670761108398 83.63744354248047 14.8730411529541 79.44376373291016 C 10.67936134338379 75.25009155273438 7.387014865875244 70.36704254150391 5.087454795837402 64.93025207519531 C 2.706988096237183 59.30222702026367 1.500001430511475 53.32290649414062 1.500001430511475 47.15840148925781 C 1.500001430511475 40.993896484375 2.706988096237183 35.01457595825195 5.087454795837402 29.38654899597168 C 7.387014865875244 23.94976234436035 10.67936134338379 19.06670761108398 14.8730411529541 14.8730411529541 C 19.06670761108398 10.67936134338379 23.94976234436035 7.387014865875244 29.38654899597168 5.087454795837402 C 35.01457595825195 2.706988096237183 40.993896484375 1.500001430511475 47.15840148925781 1.500001430511475 C 53.32290649414062 1.500001430511475 59.30222702026367 2.706988096237183 64.93025207519531 5.087454795837402 C 70.36704254150391 7.387014865875244 75.25009155273438 10.67936134338379 79.44376373291016 14.8730411529541 C 83.63744354248047 19.06670761108398 86.92978668212891 23.94976234436035 89.22934722900391 29.38654899597168 C 91.60981750488281 35.01457595825195 92.81680297851562 40.993896484375 92.81680297851562 47.15840148925781 C 92.81680297851562 53.32290649414062 91.60981750488281 59.30222702026367 89.22934722900391 64.93025207519531 C 86.92978668212891 70.36704254150391 83.63744354248047 75.25009155273438 79.44376373291016 79.44376373291016 C 75.25009155273438 83.63744354248047 70.36704254150391 86.92978668212891 64.93025207519531 89.22934722900391 C 59.30222702026367 91.60981750488281 53.32290649414062 92.81680297851562 47.15840148925781 92.81680297851562 Z" stroke="none"/>
                                  <path d="M 47.15840148925781 3 C 41.19572830200195 3 35.41301727294922 4.167129516601562 29.97087097167969 6.468955993652344 C 24.712890625 8.692901611328125 19.99008941650391 11.87730407714844 15.93370056152344 15.93370056152344 C 11.87730407714844 19.99008941650391 8.692901611328125 24.712890625 6.468955993652344 29.97087097167969 C 4.167129516601562 35.41301727294922 3 41.19572830200195 3 47.15840148925781 C 3 53.12107467651367 4.167129516601562 58.90378570556641 6.468955993652344 64.34593200683594 C 8.692901611328125 69.60391235351562 11.87730407714844 74.32671356201172 15.93370056152344 78.38310241699219 C 19.99008941650391 82.43949890136719 24.712890625 85.6239013671875 29.97087097167969 87.84784698486328 C 35.41301727294922 90.14967346191406 41.19572830200195 91.31680297851562 47.15840148925781 91.31680297851562 C 53.12107467651367 91.31680297851562 58.90378570556641 90.14967346191406 64.34593200683594 87.84784698486328 C 69.60391235351562 85.6239013671875 74.32671356201172 82.43949890136719 78.38310241699219 78.38310241699219 C 82.43949890136719 74.32671356201172 85.6239013671875 69.60391235351562 87.84784698486328 64.34593200683594 C 90.14967346191406 58.90378570556641 91.31680297851562 53.12107467651367 91.31680297851562 47.15840148925781 C 91.31680297851562 41.19572830200195 90.14967346191406 35.41301727294922 87.84784698486328 29.97087097167969 C 85.6239013671875 24.712890625 82.43949890136719 19.99008941650391 78.38310241699219 15.93370056152344 C 74.32671356201172 11.87730407714844 69.60391235351562 8.692901611328125 64.34593200683594 6.468955993652344 C 58.90378570556641 4.167129516601562 53.12107467651367 3 47.15840148925781 3 M 47.15840148925781 0 C 73.20327758789062 0 94.31680297851562 21.11353302001953 94.31680297851562 47.15840148925781 C 94.31680297851562 73.20327758789062 73.20327758789062 94.31680297851562 47.15840148925781 94.31680297851562 C 21.11353302001953 94.31680297851562 0 73.20327758789062 0 47.15840148925781 C 0 21.11353302001953 21.11353302001953 0 47.15840148925781 0 Z" stroke="none" fill="#899e78"/>
                                </g>
                              </g>
                            </g>
                          </g>
                        </g>
                      </g>
                    </g>
                  </g>
                </g>
              </g>
            </g>
          </g>
        </g>
      </g>
      <g id="Fill_out_line" data-name="Fill out line" transform="translate(155.964 906.074)">
        <path id="Path_1163260" data-name="Path 1163260" d="M374.162,34.79a3.372,3.372,0,0,0,3.372-3.372V29.4a5.4,5.4,0,0,0-5.4-5.4H360V34.79Z" transform="translate(-286.003 -6.651)" fill="#f0bca1"/>
        <path id="Path_1163261" data-name="Path 1163261" d="M133.858,102.228H88V29.4A5.4,5.4,0,0,1,93.4,24h51.253a5.4,5.4,0,0,0-5.4,5.4V96.833A5.4,5.4,0,0,1,133.858,102.228Z" transform="translate(-59.861 -6.651)" fill="#ffd9b5"/>
        <path id="Path_1163262" data-name="Path 1163262" d="M307.372,424a3.372,3.372,0,0,1,3.372,3.372V429.4H304V424Z" transform="translate(-239.444 -339.213)" fill="#f5c9aa"/>
        <path id="Path_1163263" data-name="Path 1163263" d="M71.207,431.418a3.372,3.372,0,0,0,3.372,3.372H27.372A3.372,3.372,0,0,1,24,431.418v-4.046A3.372,3.372,0,0,1,27.372,424H74.579a3.372,3.372,0,0,0-3.372,3.372Z" transform="translate(-6.651 -339.213)" fill="#ffe3cd"/>
        <path id="Path_1163264" data-name="Path 1163264" d="M392,56h5.4v2.023a3.372,3.372,0,0,0,3.372,3.372H392Z" transform="translate(-312.608 -33.256)" fill="#f5c9aa"/>
        <path id="Path_1163265" data-name="Path 1163265" d="M221.4,117.488H216L217.349,104h2.7Z" transform="translate(-166.281 -73.164)" fill="#ba8b5d"/>
        <path id="Path_1163266" data-name="Path 1163266" d="M133.4,144.093a5.4,5.4,0,0,1-5.4-5.4v-1.349A1.349,1.349,0,0,1,129.349,136h8.093a1.349,1.349,0,0,1,1.349,1.349V138.7A5.4,5.4,0,0,1,133.4,144.093Z" transform="translate(-93.117 -99.769)" fill="#fab53f"/>
        <path id="Path_1163267" data-name="Path 1163267" d="M277.4,144.093a5.4,5.4,0,0,1-5.4-5.4v-1.349A1.349,1.349,0,0,1,273.349,136h8.093a1.349,1.349,0,0,1,1.349,1.349V138.7A5.4,5.4,0,0,1,277.4,144.093Z" transform="translate(-212.84 -99.769)" fill="#fab53f"/>
        <rect id="Rectangle_420525" data-name="Rectangle 420525" width="13.401" height="5.518" rx="2.759" transform="translate(45.954 44.378)" fill="#9f764a"/>
        <path id="Path_1163268" data-name="Path 1163268" d="M168.37,63.677a2.7,2.7,0,0,0-2.7-2.7h-1.349a7.63,7.63,0,0,0-10.79,0h-2.7a7.63,7.63,0,0,0-10.79,0H138.7a2.7,2.7,0,0,0,0,5.4h1.349a7.63,7.63,0,0,1,10.79,0h2.7a7.63,7.63,0,0,1,10.79,0h1.349A2.7,2.7,0,0,0,168.37,63.677Z" transform="translate(-99.769 -35.539)" fill="#9f764a"/>
        <path id="Path_1163269" data-name="Path 1163269" d="M374.929,146.7l-2.094,4.188-1.207,2.414-12.884,25.768L352,185.812l.946-6.626.4-2.816,12.884-25.77,1.207-2.413L369.534,144Z" transform="translate(-279.352 -106.42)" fill="#529ddf"/>
        <path id="Path_1163270" data-name="Path 1163270" d="M363.408,338.7l-2.011,2.011-3.787-1.893.4-2.816Z" transform="translate(-284.016 -266.049)" fill="#4384c3"/>
        <path id="Path_1163271" data-name="Path 1163271" d="M356.732,354.593,352,359.326l.946-6.626Z" transform="translate(-279.352 -279.934)" fill="#68737f"/>
        <path id="Path_1163272" data-name="Path 1163272" d="M368.88,138.839l-5.4-2.7a1.349,1.349,0,0,0-1.81.6l-2.094,4.189-1.31-.655a4.384,4.384,0,0,0-5.989,2.194l-2.779,6.483,2.48,1.063,2.779-6.483a1.686,1.686,0,0,1,2.3-.844l1.31.655L345.49,169.115a1.35,1.35,0,0,0-.129.412l-1.349,9.441a1.349,1.349,0,0,0,2.289,1.144l6.744-6.744a1.352,1.352,0,0,0,.253-.351l16.185-32.37a1.349,1.349,0,0,0-.6-1.81Zm-17.9,32.778-3.728,3.728.746-5.219,12.787-25.573,2.982,1.491Zm13.993-27.986-2.982-1.491,1.491-2.982,2.982,1.491Z" transform="translate(-272.7 -99.767)"/>
        <path id="Path_1163273" data-name="Path 1163273" d="M82.7,22.744A4.051,4.051,0,0,1,86.744,18.7h45.861a6.71,6.71,0,0,0-1.352,4.046V38.929h2.7V22.744A4.051,4.051,0,0,1,138,18.7h1.349a4.051,4.051,0,0,1,4.046,4.046v2.023a2.023,2.023,0,1,1-4.046,0V22.744A1.349,1.349,0,0,0,138,21.4h-2.7v2.7h1.349v.674a4.693,4.693,0,0,0,.456,2.023h-1.8v2.7h6.069a4.726,4.726,0,0,0,4.721-4.721V22.744A6.752,6.752,0,0,0,139.346,16h-52.6A6.751,6.751,0,0,0,80,22.744v58h2.7Z" transform="translate(-53.21)"/>
        <path id="Path_1163274" data-name="Path 1163274" d="M78.043,396.139A4.051,4.051,0,0,1,74,400.185H67.927a2.025,2.025,0,0,1-2.023-2.023v-4.046a2.023,2.023,0,1,1,4.046,0v.674h-2.7v2.7H71.3a1.349,1.349,0,0,0,1.349-1.349v-2.023a4.726,4.726,0,0,0-4.721-4.721H20.721A4.726,4.726,0,0,0,16,394.116v4.046a4.726,4.726,0,0,0,4.721,4.721H74a6.752,6.752,0,0,0,6.744-6.744V384h-2.7Zm-14.381,4.046H20.721a2.025,2.025,0,0,1-2.023-2.023v-4.046a2.025,2.025,0,0,1,2.023-2.023H63.663a4.692,4.692,0,0,0-.456,2.023v4.046A4.692,4.692,0,0,0,63.663,400.185Z" transform="translate(0 -305.957)"/>
        <path id="Path_1163275" data-name="Path 1163275" d="M128,65.534a5.4,5.4,0,0,0,10.79,0V64.185a1.341,1.341,0,0,0-.193-.693h0l-3.459-5.765a6.282,6.282,0,0,1,7.637.255l-1.16,11.6h-.128a4.046,4.046,0,0,0,0,8.093h8.093a4.046,4.046,0,0,0,0-8.093h-.128l-1.16-11.6a6.282,6.282,0,0,1,7.637-.255l-3.459,5.765h0a1.34,1.34,0,0,0-.193.693v1.349a5.4,5.4,0,1,0,10.79,0V64.185a1.341,1.341,0,0,0-.193-.693h0l-2.891-4.818a4.046,4.046,0,0,0-.963-7.976H158.2a8.979,8.979,0,0,0-11.323-.433V48h-2.7v2.265a8.979,8.979,0,0,0-11.323.433h-.816a4.046,4.046,0,0,0-.963,7.976l-2.891,4.818h0a1.341,1.341,0,0,0-.193.693Zm5.4,2.7a2.7,2.7,0,0,1-2.7-2.7h5.4a2.7,2.7,0,0,1-2.7,2.7Zm1.664-5.4H131.73l1.664-2.774Zm15.87,10.79a1.35,1.35,0,0,1-1.349,1.349h-8.093a1.349,1.349,0,1,1,0-2.7h8.093A1.35,1.35,0,0,1,150.928,73.627Zm-6.6-4.046L145.4,58.79h.256l1.079,10.79Zm15.01-6.744h-3.328l1.664-2.774Zm-1.664,5.4a2.7,2.7,0,0,1-2.7-2.7h5.4A2.7,2.7,0,0,1,157.671,68.232ZM132.045,53.4h1.349a1.349,1.349,0,0,0,.954-.4,6.281,6.281,0,0,1,8.883,0,1.349,1.349,0,0,0,.954.4h2.7a1.349,1.349,0,0,0,.954-.4,6.281,6.281,0,0,1,8.883,0,1.349,1.349,0,0,0,.954.4h1.349a1.349,1.349,0,1,1,0,2.7H158.2a8.98,8.98,0,0,0-11.856,0h-1.631a8.98,8.98,0,0,0-11.856,0h-.816a1.349,1.349,0,1,1,0-2.7Z" transform="translate(-93.116 -26.605)"/>
        <path id="Path_1163276" data-name="Path 1163276" d="M112,224h8.093v2.7H112Z" transform="translate(-79.815 -172.932)"/>
        <path id="Path_1163277" data-name="Path 1163277" d="M112,256h10.79v2.7H112Z" transform="translate(-79.815 -199.537)"/>
        <path id="Path_1163278" data-name="Path 1163278" d="M192,256h10.79v2.7H192Z" transform="translate(-146.327 -199.537)"/>
        <path id="Path_1163279" data-name="Path 1163279" d="M272,256h16.185v2.7H272Z" transform="translate(-212.84 -199.537)"/>
        <path id="Path_1163280" data-name="Path 1163280" d="M112,384h10.79v2.7H112Z" transform="translate(-79.815 -305.957)"/>
        <path id="Path_1163281" data-name="Path 1163281" d="M192,384h16.185v2.7H192Z" transform="translate(-146.327 -305.957)"/>
        <path id="Path_1163282" data-name="Path 1163282" d="M112,288h5.4v2.7H112Z" transform="translate(-79.815 -226.142)"/>
        <path id="Path_1163283" data-name="Path 1163283" d="M160,288h13.488v2.7H160Z" transform="translate(-119.722 -226.142)"/>
        <path id="Path_1163284" data-name="Path 1163284" d="M256,288h16.185v2.7H256Z" transform="translate(-199.537 -226.142)"/>
        <path id="Path_1163285" data-name="Path 1163285" d="M112,352h5.4v2.7H112Z" transform="translate(-79.815 -279.352)"/>
        <path id="Path_1163286" data-name="Path 1163286" d="M160,352h13.488v2.7H160Z" transform="translate(-119.722 -279.352)"/>
        <path id="Path_1163287" data-name="Path 1163287" d="M256,352h12.139v2.7H256Z" transform="translate(-199.537 -279.352)"/>
        <path id="Path_1163288" data-name="Path 1163288" d="M112,320h22.929v2.7H112Z" transform="translate(-79.815 -252.747)"/>
      </g>
    </g>
  </g>
</svg>
