<svg xmlns="http://www.w3.org/2000/svg" xmlns:xlink="http://www.w3.org/1999/xlink" width="113" height="113" viewBox="0 0 113 113">
  <defs>
    <filter id="Path_982547" x="0" y="0" width="113" height="113" filterUnits="userSpaceOnUse">
      <feOffset dy="3" input="SourceAlpha"/>
      <feGaussianBlur stdDeviation="3" result="blur"/>
      <feFlood flood-opacity="0.161"/>
      <feComposite operator="in" in2="blur"/>
      <feComposite in="SourceGraphic"/>
    </filter>
  </defs>
  <g id="Group_1220659" data-name="Group 1220659" transform="translate(-1162.5 -5997.808)">
    <g id="Group_1220547" data-name="Group 1220547" transform="translate(0 25)">
      <g id="Group_1220254" data-name="Group 1220254" transform="translate(0 -1556)">
        <g id="Group_1208707" data-name="Group 1208707" transform="translate(-1.454 3213.429)">
          <g id="Group_1148635" data-name="Group 1148635" transform="translate(908.908 600.047)">
            <g id="Group_1148525" data-name="Group 1148525" transform="translate(264.046 3721.333)">
              <g transform="matrix(1, 0, 0, 1, -9, -6)" filter="url(#Path_982547)">
                <g id="Path_982547-2" data-name="Path 982547" transform="translate(9 6)" fill="#f9e3d4">
                  <path d="M 47.5 93.5 C 41.28937149047852 93.5 35.26533508300781 92.28397369384766 29.59518623352051 89.88570404052734 C 24.11771965026855 87.56893157958984 19.19813346862793 84.25196075439453 14.97309303283691 80.02691650390625 C 10.74804019927979 75.80186462402344 7.431066513061523 70.88229370117188 5.114293098449707 65.40481567382812 C 2.716026782989502 59.73468017578125 1.5 53.71062850952148 1.5 47.5 C 1.5 41.28937149047852 2.716026782989502 35.26533508300781 5.114293098449707 29.59518623352051 C 7.431066513061523 24.11771965026855 10.74804019927979 19.19813346862793 14.97309303283691 14.97309303283691 C 19.19813346862793 10.74804019927979 24.11771965026855 7.431066513061523 29.59518623352051 5.114293098449707 C 35.26533508300781 2.716026782989502 41.28937149047852 1.5 47.5 1.5 C 53.71062850952148 1.5 59.73468017578125 2.716026782989502 65.40481567382812 5.114293098449707 C 70.88229370117188 7.431066513061523 75.80186462402344 10.74804019927979 80.02691650390625 14.97309303283691 C 84.25196075439453 19.19813346862793 87.56893157958984 24.11771965026855 89.88570404052734 29.59518623352051 C 92.28397369384766 35.26533508300781 93.5 41.28937149047852 93.5 47.5 C 93.5 53.71062850952148 92.28397369384766 59.73468017578125 89.88570404052734 65.40481567382812 C 87.56893157958984 70.88229370117188 84.25196075439453 75.80186462402344 80.02691650390625 80.02691650390625 C 75.80186462402344 84.25196075439453 70.88229370117188 87.56893157958984 65.40481567382812 89.88570404052734 C 59.73468017578125 92.28397369384766 53.71062850952148 93.5 47.5 93.5 Z" stroke="none"/>
                  <path d="M 47.5 3 C 41.49121475219727 3 35.66376876831055 4.176155090332031 30.17950439453125 6.495796203613281 C 24.88084411621094 8.736953735351562 20.12152099609375 11.94598388671875 16.03375244140625 16.03375244140625 C 11.94598388671875 20.12152099609375 8.736953735351562 24.88084411621094 6.495796203613281 30.17950439453125 C 4.176155090332031 35.66376876831055 3 41.49121475219727 3 47.5 C 3 53.50878524780273 4.176155090332031 59.33623123168945 6.495796203613281 64.82049560546875 C 8.736953735351562 70.11915588378906 11.94598388671875 74.87847900390625 16.03375244140625 78.96624755859375 C 20.12152099609375 83.05401611328125 24.88084411621094 86.26304626464844 30.17950439453125 88.50419616699219 C 35.66376876831055 90.82384490966797 41.49121475219727 92 47.5 92 C 53.50878524780273 92 59.33623123168945 90.82384490966797 64.82049560546875 88.50419616699219 C 70.11915588378906 86.26304626464844 74.87847900390625 83.05401611328125 78.96624755859375 78.96624755859375 C 83.05401611328125 74.87847900390625 86.26304626464844 70.11915588378906 88.50419616699219 64.82049560546875 C 90.82384490966797 59.33623123168945 92 53.50878524780273 92 47.5 C 92 41.49121475219727 90.82384490966797 35.66376876831055 88.50419616699219 30.17950439453125 C 86.26304626464844 24.88084411621094 83.05401611328125 20.12152099609375 78.96624755859375 16.03375244140625 C 74.87847900390625 11.94598388671875 70.11915588378906 8.736953735351562 64.82049560546875 6.495796203613281 C 59.33623123168945 4.176155090332031 53.50878524780273 3 47.5 3 M 47.5 0 C 73.7335205078125 0 95 21.2664794921875 95 47.5 C 95 73.7335205078125 73.7335205078125 95 47.5 95 C 21.2664794921875 95 0 73.7335205078125 0 47.5 C 0 21.2664794921875 21.2664794921875 0 47.5 0 Z" stroke="none" fill="#eca675"/>
                </g>
              </g>
            </g>
          </g>
        </g>
      </g>
      <g id="Filled_outline" data-name="Filled outline" transform="translate(1150.5 5976.002)">
        <path id="Path_1169823" data-name="Path 1169823" d="M360,184h22.566v2.821a5.641,5.641,0,0,1-5.641,5.641H365.641A5.641,5.641,0,0,1,360,186.821Z" transform="translate(-283.354 -138.428)" fill="#ffb531"/>
        <path id="Path_1169824" data-name="Path 1169824" d="M158.566,184v2.821a5.641,5.641,0,0,1-5.641,5.641H141.641A5.641,5.641,0,0,1,136,186.821V184Z" transform="translate(-98.844 -138.428)" fill="#ffb531"/>
        <path id="Path_1169825" data-name="Path 1169825" d="M249.849,336.462H216A8.462,8.462,0,0,1,224.462,328h16.924c.021,0,.042,0,.063,0A8.461,8.461,0,0,1,249.849,336.462Z" transform="translate(-164.741 -257.041)" fill="#ffb531"/>
        <path id="Path_1169826" data-name="Path 1169826" d="M201.571,184v2.821a5.641,5.641,0,0,1-5.641,5.641h-7.72A67.126,67.126,0,0,0,197.739,184Z" transform="translate(-141.85 -138.428)" fill="#ffa912"/>
        <path id="Path_1169827" data-name="Path 1169827" d="M425.572,184v2.821a5.642,5.642,0,0,1-5.642,5.641h-7.72A67.126,67.126,0,0,0,421.739,184Z" transform="translate(-326.36 -138.428)" fill="#ffa912"/>
        <path id="Path_1169828" data-name="Path 1169828" d="M313.447,336.47H293.21a51.351,51.351,0,0,0,11.838-8.46A8.461,8.461,0,0,1,313.447,336.47Z" transform="translate(-228.339 -257.049)" fill="#ffa912"/>
        <rect id="Rectangle_421022" data-name="Rectangle 421022" width="5.641" height="46.542" transform="translate(65.363 24.417)" fill="#fa9f0c"/>
        <circle id="Ellipse_14502" data-name="Ellipse 14502" cx="4.231" cy="4.231" r="4.231" transform="translate(63.953 17.365)" fill="#ffb531"/>
        <path id="Path_1169829" data-name="Path 1169829" d="M71.953,230.1V255.49l-8.462,8.462H32.462L24,255.49V230.1L33.873,216H62.08l1.532,2.188.938,1.342.763,1.091,5.652,8.073Z" transform="translate(-6.59 -164.786)" fill="#348fd9"/>
        <path id="Path_1169830" data-name="Path 1169830" d="M71.953,246.594v25.387l-8.462,8.462H32.462L24,271.981v-5.4c15.578-3.4,30.633-12.339,40.55-30.563l.763,1.091,5.652,8.073Z" transform="translate(-6.59 -181.277)" fill="#3086cd"/>
        <path id="Path_1169831" data-name="Path 1169831" d="M192.691,44.873,182.455,26.959A6.875,6.875,0,0,0,184,25.8l-1.995-2a4.017,4.017,0,0,1-1.136.8,1.407,1.407,0,0,0-1.808.375,4.009,4.009,0,0,1-1.75-.461l-3.5-1.843a9.234,9.234,0,0,0-7.776-.408,5.641,5.641,0,1,0-11.2,0,9.235,9.235,0,0,0-7.776.408l-3.5,1.844a4.007,4.007,0,0,1-1.749.461,1.407,1.407,0,0,0-1.809-.375,4.017,4.017,0,0,1-1.136-.8L136.875,25.8a6.883,6.883,0,0,0,1.548,1.163L128.186,44.873h0a1.4,1.4,0,0,0-.186.7v1.41h22.566v1.41a4.249,4.249,0,0,1-.133,1.058l2.732.705a7.068,7.068,0,0,0,.222-1.763V45.572a1.4,1.4,0,0,0-.187-.7h0L143.33,27.6a6.888,6.888,0,0,0,1.55-.592l3.5-1.844a6.43,6.43,0,0,1,6.726.429,9.218,9.218,0,0,0,1.105.664v32.01h2.821v-31.1a9.351,9.351,0,0,0,2.821,0v45.2H168.9a7.064,7.064,0,0,1,6.911,5.641H161.849v2.821h15.514a1.41,1.41,0,0,0,1.41-1.41,9.884,9.884,0,0,0-9.873-9.873H164.67V26.256a9.218,9.218,0,0,0,1.105-.664,6.431,6.431,0,0,1,6.726-.429l3.5,1.844a6.889,6.889,0,0,0,1.55.593l-9.871,17.274h0a1.4,1.4,0,0,0-.187.7v2.821a7.06,7.06,0,0,0,7.052,7.052h11.283a7.06,7.06,0,0,0,7.052-7.052V45.572a1.4,1.4,0,0,0-.187-.7Zm-43.145-.711H131.841l8.853-15.492Zm10.893-19.745a2.821,2.821,0,1,1,2.821-2.821,2.821,2.821,0,0,1-2.821,2.821Zm19.745,4.253,8.853,15.492H171.331Zm9.873,19.723a4.236,4.236,0,0,1-4.231,4.231H174.542a4.236,4.236,0,0,1-4.231-4.231v-1.41h19.745Z" transform="translate(-92.255)"/>
        <path id="Path_1169832" data-name="Path 1169832" d="M24.875,258.36a1.41,1.41,0,0,0,1,.413H56.9a1.41,1.41,0,0,0,1-.413L66.36,249.9a1.41,1.41,0,0,0,.413-1V223.514a1.41,1.41,0,0,0-.255-.809l-9.873-14.1a1.41,1.41,0,0,0-1.155-.6H27.283a1.41,1.41,0,0,0-1.155.6l-9.873,14.1a1.41,1.41,0,0,0-.255.809V248.9a1.41,1.41,0,0,0,.413,1ZM42.8,235.292l4.909-6.136h2.525a2.821,2.821,0,1,0,0-2.821h-3.2a1.41,1.41,0,0,0-1.1.529l-3.13,3.913V210.821H54.756l1.375,1.966-2.756,3.676h-2.5a2.821,2.821,0,1,0,0,2.821h3.2a1.41,1.41,0,0,0,1.128-.564l2.627-3.5,4.819,6.886H58.311v2.821h5.641V245.5l-4.231-4.231v-2.618a2.821,2.821,0,1,0-2.821,0v3.2a1.41,1.41,0,0,0,.413,1l6.054,6.054-7.052,7.052H54.08v-2.821a1.41,1.41,0,0,0-.413-1l-2.506-2.506a2.834,2.834,0,1,0-1.995,1.995l2.093,2.093v2.237H42.8ZM18.821,246.08h4.231a1.41,1.41,0,0,0,1.261-.78l1.41-2.821L23.2,241.218l-1.021,2.041H18.821v-7.052h4.231v-2.821H18.821v-5.641h10.7l.683.683a2.834,2.834,0,1,0,1.995-1.995l-1.1-1.1a1.41,1.41,0,0,0-1-.413H18.821v-.966l9.2-13.138H39.976v9.873H34.919l-.683-.683a2.834,2.834,0,1,0-1.995,1.995l1.1,1.1a1.41,1.41,0,0,0,1,.413h5.641v16.811l-4.76-3.808a1.41,1.41,0,0,0-.881-.309h-3.2a2.821,2.821,0,1,0,0,2.821H33.84l6.136,4.909v12.015H28.693v-3.8l1.23-1.846c.06,0,.12.009.18.009a2.831,2.831,0,1,0-2.527-1.575l-1.468,2.2a1.41,1.41,0,0,0-.237.781v3.647l-7.052-7.052Z" transform="translate(0 -158.197)"/>
        <path id="Path_1169833" data-name="Path 1169833" d="M186.82,373.658a2.806,2.806,0,0,0,.728-.1l3.917,3.917,1.995-1.995-3.917-3.917a2.819,2.819,0,1,0-2.722,2.093Z" transform="translate(-138.382 -290.006)"/>
      </g>
    </g>
  </g>
</svg>
