<svg xmlns="http://www.w3.org/2000/svg" xmlns:xlink="http://www.w3.org/1999/xlink" width="108" height="108" viewBox="0 0 108 108">
  <defs>
    <filter id="Path_904820" x="0" y="0" width="108" height="108" filterUnits="userSpaceOnUse">
      <feOffset dy="3" input="SourceAlpha"/>
      <feGaussianBlur stdDeviation="3" result="blur"/>
      <feFlood flood-opacity="0.161"/>
      <feComposite operator="in" in2="blur"/>
      <feComposite in="SourceGraphic"/>
    </filter>
  </defs>
  <g id="Group_1220651" data-name="Group 1220651" transform="translate(-617 -4355)">
    <g id="Group_1220543" data-name="Group 1220543" transform="translate(0 17)">
      <g id="Group_1220190" data-name="Group 1220190" transform="translate(0 -1288)">
        <g id="Group_1209015" data-name="Group 1209015" transform="translate(626 5632)">
          <g id="Group_1207774" data-name="Group 1207774" transform="translate(0 0)">
            <g id="Group_1206630" data-name="Group 1206630" transform="translate(0 0)">
              <g id="Group_1185091" data-name="Group 1185091">
                <g id="Group_1179560" data-name="Group 1179560">
                  <g id="Group_1173787" data-name="Group 1173787">
                    <g id="Group_1171910" data-name="Group 1171910">
                      <g id="Group_1167341" data-name="Group 1167341">
                        <g id="Group_1166792" data-name="Group 1166792">
                          <g transform="matrix(1, 0, 0, 1, -9, -6)" filter="url(#Path_904820)">
                            <g id="Path_904820-2" data-name="Path 904820" transform="translate(9 6)" fill="#e7f2f8">
                              <path d="M 44.99996948242188 88.50005340576172 C 39.12684631347656 88.50005340576172 33.43020629882812 87.35012817382812 28.06828117370605 85.08221435546875 C 22.88851928710938 82.89136505126953 18.23629379272461 79.754638671875 14.2408447265625 75.75918579101562 C 10.24540710449219 71.76374053955078 7.108694553375244 67.11151123046875 4.917831897735596 61.93173980712891 C 2.649931907653809 56.56980133056641 1.500007033348083 50.87314987182617 1.500007033348083 45.00002670288086 C 1.500007033348083 39.12690353393555 2.649931907653809 33.43025207519531 4.917831897735596 28.06831359863281 C 7.108694553375244 22.8885383605957 10.24540710449219 18.23631477355957 14.2408447265625 14.24086380004883 C 18.23629379272461 10.2454137802124 22.88851928710938 7.108689308166504 28.06828117370605 4.917839050292969 C 33.43020629882812 2.649926662445068 39.12684631347656 1.500001668930054 44.99996948242188 1.500001668930054 C 50.87309265136719 1.500001668930054 56.56973266601562 2.649926662445068 61.93165588378906 4.917839050292969 C 67.11143493652344 7.108689308166504 71.76364135742188 10.2454137802124 75.75909423828125 14.24086380004883 C 79.75454711914062 18.23631477355957 82.89125823974609 22.8885383605957 85.08212280273438 28.06831359863281 C 87.35002136230469 33.43025207519531 88.49994659423828 39.12690353393555 88.49994659423828 45.00002670288086 C 88.49994659423828 50.87314987182617 87.35002136230469 56.56980133056641 85.08212280273438 61.93173980712891 C 82.89125823974609 67.11151123046875 79.75454711914062 71.76374053955078 75.75909423828125 75.75918579101562 C 71.76364135742188 79.754638671875 67.11143493652344 82.89136505126953 61.93165588378906 85.08221435546875 C 56.56973266601562 87.35012817382812 50.87309265136719 88.50005340576172 44.99996948242188 88.50005340576172 Z" stroke="none"/>
                              <path d="M 44.99996948242188 3 C 39.32868194580078 3 33.82863998413086 4.110054016113281 28.65261077880859 6.299339294433594 C 23.65164184570312 8.414566040039062 19.15968322753906 11.44334411621094 15.301513671875 15.30152893066406 C 11.44332885742188 19.15969848632812 8.414566040039062 23.65167236328125 6.299324035644531 28.65264129638672 C 4.110054016113281 33.82868194580078 3 39.32873916625977 3 45.00002670288086 C 3 50.67131423950195 4.110054016113281 56.17137145996094 6.299324035644531 61.347412109375 C 8.414566040039062 66.34838104248047 11.44332885742188 70.84035491943359 15.301513671875 74.69852447509766 C 19.15968322753906 78.55670928955078 23.65164184570312 81.58547973632812 28.65261077880859 83.70071411132812 C 33.82863998413086 85.88999938964844 39.32868194580078 87.00005340576172 44.99996948242188 87.00005340576172 C 50.67125701904297 87.00005340576172 56.17129898071289 85.88999938964844 61.34732818603516 83.70071411132812 C 66.34829711914062 81.58547973632812 70.84025573730469 78.55670928955078 74.69842529296875 74.69852447509766 C 78.55661010742188 70.84035491943359 81.58537292480469 66.34838104248047 83.70061492919922 61.347412109375 C 85.88988494873047 56.17137145996094 86.99993896484375 50.67131423950195 86.99993896484375 45.00002670288086 C 86.99993896484375 39.32873916625977 85.88988494873047 33.82868194580078 83.70061492919922 28.65264129638672 C 81.58537292480469 23.65167236328125 78.55661010742188 19.15969848632812 74.69842529296875 15.30152893066406 C 70.84025573730469 11.44334411621094 66.34829711914062 8.414566040039062 61.34732818603516 6.299339294433594 C 56.17129898071289 4.110054016113281 50.67125701904297 3 44.99996948242188 3 M 44.99996948242188 0 C 69.85276794433594 0 89.99993896484375 20.14720153808594 89.99993896484375 45.00002670288086 C 89.99993896484375 69.85285949707031 69.85276794433594 90.00005340576172 44.99996948242188 90.00005340576172 C 20.14717102050781 90.00005340576172 0 69.85285949707031 0 45.00002670288086 C 0 20.14720153808594 20.14717102050781 0 44.99996948242188 0 Z" stroke="none" fill="#248abf"/>
                            </g>
                          </g>
                        </g>
                      </g>
                    </g>
                  </g>
                </g>
              </g>
            </g>
          </g>
        </g>
      </g>
      <g id="FILLED_OUTLINE" transform="translate(623.126 4341.088)">
        <circle id="Ellipse_14496" data-name="Ellipse 14496" cx="10.629" cy="10.629" r="10.629" transform="translate(37.245 17.085)" fill="#689cda"/>
        <rect id="Rectangle_421011" data-name="Rectangle 421011" width="14.881" height="4.252" transform="translate(32.993 50.036)" fill="#f4c36e"/>
        <path id="Path_1169742" data-name="Path 1169742" d="M154.629,168a4.252,4.252,0,0,1,4.252,4.252v9.566H144V168Z" transform="translate(-111.007 -131.782)" fill="#ffd576"/>
        <rect id="Rectangle_421012" data-name="Rectangle 421012" width="8.503" height="2.126" transform="translate(36.182 40.469)" fill="#f4c36e"/>
        <rect id="Rectangle_421013" data-name="Rectangle 421013" width="6.378" height="2.126" transform="translate(36.182 44.721)" fill="#f4c36e"/>
        <rect id="Rectangle_421014" data-name="Rectangle 421014" width="14.881" height="4.252" transform="translate(47.874 50.036)" fill="#f4c36e"/>
        <path id="Path_1169743" data-name="Path 1169743" d="M260.252,168A4.252,4.252,0,0,0,256,172.252v9.566h14.881V168Z" transform="translate(-208.126 -131.782)" fill="#ffd576"/>
        <rect id="Rectangle_421015" data-name="Rectangle 421015" width="8.503" height="2.126" transform="translate(51.063 40.469)" fill="#f4c36e"/>
        <rect id="Rectangle_421016" data-name="Rectangle 421016" width="6.378" height="2.126" transform="translate(53.189 44.721)" fill="#f4c36e"/>
        <rect id="Rectangle_421017" data-name="Rectangle 421017" width="2.126" height="7.441" rx="1.063" transform="translate(46.811 40.469)" fill="#f4c36e"/>
        <path id="Path_1169744" data-name="Path 1169744" d="M36.878,96.429a31.9,31.9,0,0,1-2.2-58.979l.881,1.935a29.775,29.775,0,0,0,2.052,55.048Z" transform="translate(0 -18.578)" fill="#dfdfdf"/>
        <path id="Path_1169745" data-name="Path 1169745" d="M333.975,96.429l-.733-2a29.774,29.774,0,0,0,2.052-55.049l.88-1.935a31.9,31.9,0,0,1-2.2,58.979Z" transform="translate(-275.105 -18.578)" fill="#dfdfdf"/>
        <path id="Path_1169746" data-name="Path 1169746" d="M107.6,109.761,106,108.355A26.763,26.763,0,0,1,108.355,106l1.407,1.594a24.673,24.673,0,0,0-2.165,2.165Z" transform="translate(-78.058 -78.022)" fill="#dfdfdf"/>
        <path id="Path_1169747" data-name="Path 1169747" d="M57.931,164.795a26.615,26.615,0,0,1,3.056-25.467l1.726,1.241A24.489,24.489,0,0,0,59.9,164Z" transform="translate(-34.698 -106.92)" fill="#dfdfdf"/>
        <path id="Path_1169748" data-name="Path 1169748" d="M410.254,164.8l-1.971-.8a24.489,24.489,0,0,0-2.811-23.428l1.726-1.241A26.615,26.615,0,0,1,410.254,164.8Z" transform="translate(-337.739 -106.92)" fill="#dfdfdf"/>
        <path id="Path_1169749" data-name="Path 1169749" d="M379.871,109.761a24.672,24.672,0,0,0-2.165-2.165L379.113,106a26.758,26.758,0,0,1,2.353,2.353Z" transform="translate(-313.661 -78.022)" fill="#dfdfdf"/>
        <path id="Path_1169750" data-name="Path 1169750" d="M226.522,64.8l-7.516,3.006L216,75.326l7.516-3.006Z" transform="translate(-173.441 -42.298)" fill="#85afe1"/>
        <path id="Path_1169751" data-name="Path 1169751" d="M243.137,72.32l-4.51-4.51,7.516-3.006Z" transform="translate(-193.061 -42.298)" fill="#4484d1"/>
        <path id="Path_1169752" data-name="Path 1169752" d="M250.126,24.053c-.35-.035-.7-.053-1.063-.053s-.713.018-1.063.053v3.136h2.126Z" transform="translate(-201.189 -6.915)" fill="#85afe1"/>
        <path id="Path_1169753" data-name="Path 1169753" d="M312,88v2.126h3.189A10.671,10.671,0,0,0,314.976,88Z" transform="translate(-256.685 -62.412)" fill="#85afe1"/>
        <path id="Path_1169754" data-name="Path 1169754" d="M179.189,88h-2.976A10.675,10.675,0,0,0,176,90.126h3.189Z" transform="translate(-138.755 -62.412)" fill="#85afe1"/>
        <path id="Path_1169755" data-name="Path 1169755" d="M112.447,261.818v-2.126l.881-.881a4.252,4.252,0,0,0,1.245-3.006v-3.554A4.252,4.252,0,0,0,110.321,248h0a4.252,4.252,0,0,0-4.252,4.252v3.553a4.252,4.252,0,0,0,1.245,3.006l.881.881v2.126H88a5.315,5.315,0,0,0,5.315,5.315h9.566v13.818h14.881V267.133h9.566a5.315,5.315,0,0,0,5.315-5.315Z" transform="translate(-62.447 -201.153)" fill="#f49971"/>
        <rect id="Rectangle_421018" data-name="Rectangle 421018" width="8.503" height="2.126" transform="translate(36.182 40.469)" fill="#473a37"/>
        <rect id="Rectangle_421019" data-name="Rectangle 421019" width="6.378" height="2.126" transform="translate(36.182 44.721)" fill="#473a37"/>
        <path id="Path_1169756" data-name="Path 1169756" d="M171.4,32.5a9.559,9.559,0,0,1-1.279-4.782h2.126V25.588h-1.885a9.587,9.587,0,0,1,8.262-7.38v2.065h2.126V18.208a9.587,9.587,0,0,1,8.262,7.38h-1.885v2.126h2.126a9.56,9.56,0,0,1-1.279,4.782l1.84,1.064a11.692,11.692,0,1,0-20.255,0Z" transform="translate(-131.814)" fill="#473a37"/>
        <path id="Path_1169757" data-name="Path 1169757" d="M23.606,83.7A29.772,29.772,0,0,1,35.572,39.385l-.881-1.935a31.9,31.9,0,0,0,2.2,58.979l.733-2A29.691,29.691,0,0,1,23.607,83.7Z" transform="translate(-0.013 -18.578)" fill="#473a37"/>
        <path id="Path_1169758" data-name="Path 1169758" d="M349.654,49.011a31.932,31.932,0,0,0-13.48-11.56l-.88,1.935a29.775,29.775,0,0,1-2.052,55.048l.733,2a31.9,31.9,0,0,0,15.68-47.419Z" transform="translate(-275.104 -18.578)" fill="#473a37"/>
        <rect id="Rectangle_421020" data-name="Rectangle 421020" width="8.503" height="2.126" transform="translate(51.063 40.469)" fill="#473a37"/>
        <rect id="Rectangle_421021" data-name="Rectangle 421021" width="6.378" height="2.126" transform="translate(53.189 44.721)" fill="#473a37"/>
        <path id="Path_1169759" data-name="Path 1169759" d="M109.761,107.6,108.355,106A26.763,26.763,0,0,0,106,108.355l1.594,1.407a24.673,24.673,0,0,1,2.165-2.165Z" transform="translate(-78.058 -78.022)" fill="#473a37"/>
        <path id="Path_1169760" data-name="Path 1169760" d="M60.986,139.328a26.615,26.615,0,0,0-3.056,25.467L59.9,164a24.489,24.489,0,0,1,2.811-23.428Z" transform="translate(-34.698 -106.92)" fill="#473a37"/>
        <path id="Path_1169761" data-name="Path 1169761" d="M410.254,164.795a26.615,26.615,0,0,0-3.056-25.467l-1.726,1.241A24.489,24.489,0,0,1,408.283,164Z" transform="translate(-337.739 -106.92)" fill="#473a37"/>
        <path id="Path_1169762" data-name="Path 1169762" d="M379.113,106l-1.406,1.594a24.668,24.668,0,0,1,2.165,2.165l1.594-1.407A26.765,26.765,0,0,0,379.113,106Z" transform="translate(-313.661 -78.022)" fill="#473a37"/>
        <path id="Path_1169763" data-name="Path 1169763" d="M126.769,185.51a1.063,1.063,0,0,0-1.063-1.063H106.573v-.623l.569-.569A5.28,5.28,0,0,0,108.7,179.5v-3.554a5.324,5.324,0,0,0-4.252-5.208v-5.422a3.192,3.192,0,0,1,3.189-3.189H117.2v11.692h-6.378v2.126H117.2v2.126h-6.378V180.2h7.44a1.063,1.063,0,0,0,1.063-1.063v-18.07A1.063,1.063,0,0,0,118.266,160H107.636a5.31,5.31,0,0,0-4.252,2.129A5.31,5.31,0,0,0,99.133,160H88.5a1.063,1.063,0,0,0-1.063,1.063v18.07A1.063,1.063,0,0,0,88.5,180.2h7.441V178.07H89.566v-2.126h6.378v-2.126H89.566V162.126h9.566a3.192,3.192,0,0,1,3.189,3.189v5.422a5.324,5.324,0,0,0-4.252,5.208V179.5a5.28,5.28,0,0,0,1.557,3.758l.569.569v.623H81.063A1.063,1.063,0,0,0,80,185.51a6.385,6.385,0,0,0,6.378,6.378h8.5v12.755h2.126V190.825a1.063,1.063,0,0,0-1.063-1.063H86.378a4.259,4.259,0,0,1-4.117-3.189h19a1.063,1.063,0,0,0,1.063-1.063v-2.126a1.063,1.063,0,0,0-.311-.752l-.881-.881a3.168,3.168,0,0,1-.934-2.255v-3.554a3.189,3.189,0,0,1,6.378,0V179.5a3.168,3.168,0,0,1-.934,2.255l-.881.88a1.063,1.063,0,0,0-.311.752v2.126a1.063,1.063,0,0,0,1.063,1.063h19a4.259,4.259,0,0,1-4.117,3.189h-9.566a1.063,1.063,0,0,0-1.063,1.063v13.818h2.126V191.888h8.5A6.385,6.385,0,0,0,126.769,185.51Z" transform="translate(-55.51 -124.845)" fill="#473a37"/>
        <path id="Path_1169764" data-name="Path 1169764" d="M219.19,56.88l-7.516,3.006a1.063,1.063,0,0,0-.592.592l-3.006,7.516a1.063,1.063,0,0,0,1.382,1.382l7.516-3.006a1.063,1.063,0,0,0,.592-.592l3.007-7.516a1.063,1.063,0,0,0-1.382-1.382Zm-6.733,5.885,2.23,2.23-3.717,1.487Zm3.733.727-2.23-2.23,3.717-1.487Z" transform="translate(-166.503 -35.36)" fill="#473a37"/>
      </g>
    </g>
  </g>
</svg>
