<svg xmlns="http://www.w3.org/2000/svg" xmlns:xlink="http://www.w3.org/1999/xlink" width="113" height="113" viewBox="0 0 113 113">
  <defs>
    <filter id="Path_982547" x="0" y="0" width="113" height="113" filterUnits="userSpaceOnUse">
      <feOffset dy="3" input="SourceAlpha"/>
      <feGaussianBlur stdDeviation="3" result="blur"/>
      <feFlood flood-opacity="0.161"/>
      <feComposite operator="in" in2="blur"/>
      <feComposite in="SourceGraphic"/>
    </filter>
  </defs>
  <g id="Group_1220658" data-name="Group 1220658" transform="translate(-742.046 -5997.808)">
    <g id="Group_1220546" data-name="Group 1220546" transform="translate(0 25)">
      <g id="Group_1220253" data-name="Group 1220253" transform="translate(0 -1556)">
        <g id="Group_1208706" data-name="Group 1208706" transform="translate(-1.454 3213.429)">
          <g id="Group_1148634" data-name="Group 1148634" transform="translate(488.454 600.047)">
            <g id="Group_1148525" data-name="Group 1148525" transform="translate(264.046 3721.333)">
              <g transform="matrix(1, 0, 0, 1, -9, -6)" filter="url(#Path_982547)">
                <g id="Path_982547-2" data-name="Path 982547" transform="translate(9 6)" fill="#f9e3d4">
                  <path d="M 47.5 93.5 C 41.28937149047852 93.5 35.26533508300781 92.28397369384766 29.59518623352051 89.88570404052734 C 24.11771965026855 87.56893157958984 19.19813346862793 84.25196075439453 14.97309303283691 80.02691650390625 C 10.74804019927979 75.80186462402344 7.431066513061523 70.88229370117188 5.114293098449707 65.40481567382812 C 2.716026782989502 59.73468017578125 1.5 53.71062850952148 1.5 47.5 C 1.5 41.28937149047852 2.716026782989502 35.26533508300781 5.114293098449707 29.59518623352051 C 7.431066513061523 24.11771965026855 10.74804019927979 19.19813346862793 14.97309303283691 14.97309303283691 C 19.19813346862793 10.74804019927979 24.11771965026855 7.431066513061523 29.59518623352051 5.114293098449707 C 35.26533508300781 2.716026782989502 41.28937149047852 1.5 47.5 1.5 C 53.71062850952148 1.5 59.73468017578125 2.716026782989502 65.40481567382812 5.114293098449707 C 70.88229370117188 7.431066513061523 75.80186462402344 10.74804019927979 80.02691650390625 14.97309303283691 C 84.25196075439453 19.19813346862793 87.56893157958984 24.11771965026855 89.88570404052734 29.59518623352051 C 92.28397369384766 35.26533508300781 93.5 41.28937149047852 93.5 47.5 C 93.5 53.71062850952148 92.28397369384766 59.73468017578125 89.88570404052734 65.40481567382812 C 87.56893157958984 70.88229370117188 84.25196075439453 75.80186462402344 80.02691650390625 80.02691650390625 C 75.80186462402344 84.25196075439453 70.88229370117188 87.56893157958984 65.40481567382812 89.88570404052734 C 59.73468017578125 92.28397369384766 53.71062850952148 93.5 47.5 93.5 Z" stroke="none"/>
                  <path d="M 47.5 3 C 41.49121475219727 3 35.66376876831055 4.176155090332031 30.17950439453125 6.495796203613281 C 24.88084411621094 8.736953735351562 20.12152099609375 11.94598388671875 16.03375244140625 16.03375244140625 C 11.94598388671875 20.12152099609375 8.736953735351562 24.88084411621094 6.495796203613281 30.17950439453125 C 4.176155090332031 35.66376876831055 3 41.49121475219727 3 47.5 C 3 53.50878524780273 4.176155090332031 59.33623123168945 6.495796203613281 64.82049560546875 C 8.736953735351562 70.11915588378906 11.94598388671875 74.87847900390625 16.03375244140625 78.96624755859375 C 20.12152099609375 83.05401611328125 24.88084411621094 86.26304626464844 30.17950439453125 88.50419616699219 C 35.66376876831055 90.82384490966797 41.49121475219727 92 47.5 92 C 53.50878524780273 92 59.33623123168945 90.82384490966797 64.82049560546875 88.50419616699219 C 70.11915588378906 86.26304626464844 74.87847900390625 83.05401611328125 78.96624755859375 78.96624755859375 C 83.05401611328125 74.87847900390625 86.26304626464844 70.11915588378906 88.50419616699219 64.82049560546875 C 90.82384490966797 59.33623123168945 92 53.50878524780273 92 47.5 C 92 41.49121475219727 90.82384490966797 35.66376876831055 88.50419616699219 30.17950439453125 C 86.26304626464844 24.88084411621094 83.05401611328125 20.12152099609375 78.96624755859375 16.03375244140625 C 74.87847900390625 11.94598388671875 70.11915588378906 8.736953735351562 64.82049560546875 6.495796203613281 C 59.33623123168945 4.176155090332031 53.50878524780273 3 47.5 3 M 47.5 0 C 73.7335205078125 0 95 21.2664794921875 95 47.5 C 95 73.7335205078125 73.7335205078125 95 47.5 95 C 21.2664794921875 95 0 73.7335205078125 0 47.5 C 0 21.2664794921875 21.2664794921875 0 47.5 0 Z" stroke="none" fill="#eca675"/>
                </g>
              </g>
            </g>
          </g>
        </g>
      </g>
      <g id="derechos-civiles_1_" data-name="derechos-civiles (1)" transform="translate(750.943 5975.695)">
        <path id="Path_1169799" data-name="Path 1169799" d="M196,85.582V98.5l2.4,6.36v61h12.456l2.874-57.087,7.282-13.624V85.582Z" transform="translate(-158.441 -69.182)" fill="#fdbba8"/>
        <path id="Path_1169800" data-name="Path 1169800" d="M268.655,85.582v9.566a10.63,10.63,0,0,1-4.731,8.846,5.749,5.749,0,0,0-2.551,4.777l-2.874,1.208,2.874,1.208v54.671h5.749V108.771A16.366,16.366,0,0,0,274.4,95.148V85.582Z" transform="translate(-208.964 -69.182)" fill="#fc9e8d"/>
        <path id="Path_1169801" data-name="Path 1169801" d="M295.015,37.5a3.641,3.641,0,0,0-3.641,3.641L288.5,44.015l2.874,2.874a3.641,3.641,0,1,0,7.282,0V41.141A3.641,3.641,0,0,0,295.015,37.5Z" transform="translate(-233.215 -30.314)" fill="#fc8071"/>
        <path id="Path_1169802" data-name="Path 1169802" d="M257.015,22.5a3.641,3.641,0,0,0-3.641,3.641L250.5,30.453l2.874,4.312a3.641,3.641,0,1,0,7.282,0V26.141A3.641,3.641,0,0,0,257.015,22.5Z" transform="translate(-202.497 -18.188)" fill="#fc9e8d"/>
        <path id="Path_1169803" data-name="Path 1169803" d="M219.015,7.5a3.641,3.641,0,0,0-3.641,3.641l-2.874,11.5h10.156v-11.5A3.641,3.641,0,0,0,219.015,7.5Z" transform="translate(-171.779 -6.063)" fill="#fc8071"/>
        <path id="Path_1169804" data-name="Path 1169804" d="M193.141,7.5a3.641,3.641,0,0,0-3.641,3.641v11.5h7.282v-11.5A3.641,3.641,0,0,0,193.141,7.5Z" transform="translate(-153.187 -6.063)" fill="#fc9e8d"/>
        <path id="Path_1169805" data-name="Path 1169805" d="M177.782,80.531V74.782h7.282a3.641,3.641,0,0,0,3.637-3.817,3.709,3.709,0,0,0-3.74-3.465h-7.179a7.282,7.282,0,0,0-7.282,7.282v5.749A16.393,16.393,0,0,0,190.238,96.57V92.986A12.456,12.456,0,0,0,177.782,80.531Z" transform="translate(-137.828 -54.565)" fill="#fdd9c4"/>
        <path id="Path_1169806" data-name="Path 1169806" d="M33,269.082V282l2.4,6.36v25.834H47.851l2.874-21.923,7.282-13.624v-9.566Z" transform="translate(-26.676 -217.518)" fill="#f6d76f"/>
        <path id="Path_1169807" data-name="Path 1169807" d="M105.655,269.082v9.566a10.63,10.63,0,0,1-4.731,8.846,5.749,5.749,0,0,0-2.551,4.777L95.5,293.479l2.874,1.208v19.507h5.749V292.271a16.366,16.366,0,0,0,7.282-13.624v-9.566Z" transform="translate(-77.199 -217.518)" fill="#f9bb69"/>
        <path id="Path_1169808" data-name="Path 1169808" d="M132.015,221a3.641,3.641,0,0,0-3.641,3.641l-2.874,2.874,2.874,2.874a3.641,3.641,0,0,0,7.282,0v-5.749A3.641,3.641,0,0,0,132.015,221Z" transform="translate(-101.451 -178.65)" fill="#fc9f63"/>
        <path id="Path_1169809" data-name="Path 1169809" d="M94.015,206a3.641,3.641,0,0,0-3.641,3.641L87.5,213.953l2.874,4.312a3.641,3.641,0,1,0,7.282,0v-8.623A3.641,3.641,0,0,0,94.015,206Z" transform="translate(-70.733 -166.525)" fill="#f9bb69"/>
        <path id="Path_1169810" data-name="Path 1169810" d="M56.015,191a3.641,3.641,0,0,0-3.641,3.641l-2.874,11.5H59.656v-11.5A3.641,3.641,0,0,0,56.015,191Z" transform="translate(-40.014 -154.399)" fill="#fc9f63"/>
        <path id="Path_1169811" data-name="Path 1169811" d="M30.141,191a3.641,3.641,0,0,0-3.641,3.641v11.5h7.282v-11.5A3.641,3.641,0,0,0,30.141,191Z" transform="translate(-21.422 -154.399)" fill="#f9bb69"/>
        <path id="Path_1169812" data-name="Path 1169812" d="M14.782,264.031v-5.749h7.282a3.641,3.641,0,0,0,3.637-3.817A3.709,3.709,0,0,0,21.961,251H14.782A7.282,7.282,0,0,0,7.5,258.282v5.749A16.393,16.393,0,0,0,27.238,280.07v-3.584A12.456,12.456,0,0,0,14.782,264.031Z" transform="translate(-6.063 -202.901)" fill="#fae8ac"/>
        <path id="Path_1169813" data-name="Path 1169813" d="M359,269.082V282l2.4,6.36v25.834h12.456l2.874-21.923,7.282-13.624v-9.566Z" transform="translate(-290.206 -217.518)" fill="#ae6e5a"/>
        <path id="Path_1169814" data-name="Path 1169814" d="M431.655,269.082v9.566a10.63,10.63,0,0,1-4.731,8.846,5.749,5.749,0,0,0-2.551,4.777l-2.874,1.208,2.874,1.208v19.507h5.749V292.271a16.366,16.366,0,0,0,7.282-13.624v-9.566Z" transform="translate(-340.728 -217.518)" fill="#8d5d4d"/>
        <path id="Path_1169815" data-name="Path 1169815" d="M458.015,221a3.641,3.641,0,0,0-3.641,3.641l-2.874,2.874,2.874,2.874a3.641,3.641,0,1,0,7.282,0v-5.749A3.641,3.641,0,0,0,458.015,221Z" transform="translate(-364.98 -178.65)" fill="#6c4b41"/>
        <path id="Path_1169816" data-name="Path 1169816" d="M420.015,206a3.641,3.641,0,0,0-3.641,3.641l-2.874,4.312,2.874,4.312a3.641,3.641,0,1,0,7.282,0v-8.623A3.641,3.641,0,0,0,420.015,206Z" transform="translate(-334.262 -166.525)" fill="#8d5d4d"/>
        <path id="Path_1169817" data-name="Path 1169817" d="M382.015,191a3.641,3.641,0,0,0-3.641,3.641l-2.874,11.5h10.156v-11.5A3.641,3.641,0,0,0,382.015,191Z" transform="translate(-303.544 -154.399)" fill="#6c4b41"/>
        <path id="Path_1169818" data-name="Path 1169818" d="M356.141,191a3.641,3.641,0,0,0-3.641,3.641v11.5h7.282v-11.5A3.641,3.641,0,0,0,356.141,191Z" transform="translate(-284.951 -154.399)" fill="#8d5d4d"/>
        <path id="Path_1169819" data-name="Path 1169819" d="M340.782,264.031v-5.749h7.282a3.641,3.641,0,0,0,3.637-3.817,3.708,3.708,0,0,0-3.74-3.465h-7.179a7.282,7.282,0,0,0-7.282,7.282v5.749a16.393,16.393,0,0,0,19.738,16.039v-3.584A12.456,12.456,0,0,0,340.782,264.031Z" transform="translate(-269.592 -202.901)" fill="#d7795c"/>
        <path id="Path_1169820" data-name="Path 1169820" d="M198.643,10.827a5.075,5.075,0,0,0-7.531-4.444,5.074,5.074,0,0,0-7.282-2.874,5.073,5.073,0,0,0-8.47-1.965,5.075,5.075,0,0,0-8.719,3.535v8.058A8.712,8.712,0,0,0,163,20.217v5.749a17.8,17.8,0,0,0,7.282,14.371v56.34a1.437,1.437,0,0,0,1.437,1.437h18.2a1.437,1.437,0,0,0,1.437-1.437V40.337a17.8,17.8,0,0,0,7.282-14.371Zm-5.078-2.2a2.206,2.206,0,0,1,2.2,2.2v5.749a2.2,2.2,0,1,1-4.407,0V10.827A2.206,2.206,0,0,1,193.565,8.623Zm-7.282-2.874a2.206,2.206,0,0,1,2.2,2.2v8.623a2.2,2.2,0,0,1-4.407,0V7.953A2.206,2.206,0,0,1,186.283,5.749ZM179,2.874a2.206,2.206,0,0,1,2.2,2.2v6.948A5.264,5.264,0,0,0,178.9,11.5h-2.1V5.078A2.206,2.206,0,0,1,179,2.874Zm-9.486,2.2a2.2,2.2,0,0,1,4.407,0V11.5h-2.2a8.708,8.708,0,0,0-2.2.283Zm19.609,33.317a1.437,1.437,0,0,0-.638,1.194v55.65h-15.33V39.589a1.437,1.437,0,0,0-.638-1.194,14.935,14.935,0,0,1-6.644-12.429V20.217a5.851,5.851,0,0,1,5.845-5.845H178.9a2.282,2.282,0,0,1,2.3,2.1,2.2,2.2,0,0,1-2.2,2.312h-7.282a1.437,1.437,0,0,0-1.437,1.437v5.749a1.437,1.437,0,0,0,1.437,1.437,11.027,11.027,0,0,1,9.663,5.722A1.437,1.437,0,0,0,183.9,31.74,13.906,13.906,0,0,0,173.156,24.6V21.654H179a5.1,5.1,0,0,0,3.643-1.541,5.066,5.066,0,0,0,7.28,0,5.069,5.069,0,0,0,5.845,1.04v4.815a14.934,14.934,0,0,1-6.644,12.429Z" transform="translate(-131.765)"/>
        <path id="Path_1169821" data-name="Path 1169821" d="M30.565,189.249a5.047,5.047,0,0,0-2.453.634,5.074,5.074,0,0,0-7.282-2.874,5.073,5.073,0,0,0-8.47-1.965,5.075,5.075,0,0,0-8.719,3.535v8.058A8.711,8.711,0,0,0,0,203.717v5.749a17.8,17.8,0,0,0,7.282,14.371v2.014a1.437,1.437,0,1,0,2.874,0v-2.761a1.437,1.437,0,0,0-.638-1.194,14.935,14.935,0,0,1-6.644-12.429v-5.749a5.851,5.851,0,0,1,5.845-5.845H15.9a2.282,2.282,0,0,1,2.3,2.1,2.2,2.2,0,0,1-2.2,2.312H8.719a1.437,1.437,0,0,0-1.437,1.437v5.749A1.437,1.437,0,0,0,8.719,210.9a11.027,11.027,0,0,1,9.663,5.722A1.437,1.437,0,0,0,20.9,215.24,13.906,13.906,0,0,0,10.156,208.1v-2.949H16a5.1,5.1,0,0,0,3.643-1.541,5.066,5.066,0,0,0,7.28,0,5.069,5.069,0,0,0,5.845,1.04v4.815a14.933,14.933,0,0,1-6.644,12.429,1.437,1.437,0,0,0-.638,1.194v20.486H10.156V231.6a1.437,1.437,0,1,0-2.874,0v13.414a1.437,1.437,0,0,0,1.437,1.437h18.2a1.437,1.437,0,0,0,1.437-1.437V223.837a17.8,17.8,0,0,0,7.282-14.371V194.327A5.084,5.084,0,0,0,30.565,189.249ZM6.515,195.28v-6.7a2.2,2.2,0,1,1,4.407,0V195h-2.2A8.707,8.707,0,0,0,6.515,195.28ZM15.9,195H13.8v-6.42a2.2,2.2,0,1,1,4.407,0v6.948A5.264,5.264,0,0,0,15.9,195Zm7.385,7.282a2.206,2.206,0,0,1-2.2-2.2v-8.623a2.2,2.2,0,1,1,4.407,0v8.623A2.206,2.206,0,0,1,23.283,202.279Zm7.282,0a2.206,2.206,0,0,1-2.2-2.2v-5.749a2.2,2.2,0,1,1,4.407,0v5.749A2.206,2.206,0,0,1,30.565,202.279Z" transform="translate(0 -148.336)"/>
        <path id="Path_1169822" data-name="Path 1169822" d="M356.565,189.249a5.047,5.047,0,0,0-2.453.634,5.074,5.074,0,0,0-7.282-2.874,5.073,5.073,0,0,0-8.47-1.965,5.075,5.075,0,0,0-8.719,3.535v8.058A8.712,8.712,0,0,0,326,203.717v5.749a17.8,17.8,0,0,0,7.282,14.371v21.176a1.437,1.437,0,0,0,1.437,1.437h18.2a1.437,1.437,0,0,0,1.437-1.437V223.837a17.8,17.8,0,0,0,7.282-14.371V194.327A5.084,5.084,0,0,0,356.565,189.249Zm-7.282,0a2.206,2.206,0,0,1,2.2,2.2v8.623a2.2,2.2,0,1,1-4.407,0v-8.623A2.206,2.206,0,0,1,349.283,189.249ZM342,186.374a2.206,2.206,0,0,1,2.2,2.2v6.948A5.264,5.264,0,0,0,341.9,195h-2.1v-6.42A2.206,2.206,0,0,1,342,186.374Zm-9.486,2.2a2.2,2.2,0,1,1,4.407,0V195h-2.2a8.707,8.707,0,0,0-2.2.283Zm19.609,33.317a1.437,1.437,0,0,0-.638,1.194v20.486h-15.33V223.089a1.437,1.437,0,0,0-.638-1.194,14.935,14.935,0,0,1-6.644-12.429v-5.749a5.851,5.851,0,0,1,5.845-5.845H341.9a2.282,2.282,0,0,1,2.3,2.1,2.2,2.2,0,0,1-2.2,2.312h-7.282a1.437,1.437,0,0,0-1.437,1.437v5.749a1.437,1.437,0,0,0,1.437,1.437,11.028,11.028,0,0,1,9.663,5.722,1.437,1.437,0,0,0,2.519-1.384,13.906,13.906,0,0,0-10.745-7.138v-2.949H342a5.1,5.1,0,0,0,3.643-1.541,5.066,5.066,0,0,0,7.28,0,5.069,5.069,0,0,0,5.845,1.04v4.815A14.934,14.934,0,0,1,352.124,221.895Zm4.44-19.615a2.206,2.206,0,0,1-2.2-2.2v-5.749a2.2,2.2,0,1,1,4.407,0v5.749A2.206,2.206,0,0,1,356.565,202.279Z" transform="translate(-263.529 -148.336)"/>
      </g>
    </g>
  </g>
</svg>
