<svg xmlns="http://www.w3.org/2000/svg" xmlns:xlink="http://www.w3.org/1999/xlink" width="110" height="110" viewBox="0 0 110 110">
  <defs>
    <filter id="Path_982547" x="0" y="0" width="110" height="110" filterUnits="userSpaceOnUse">
      <feOffset dy="3" input="SourceAlpha"/>
      <feGaussianBlur stdDeviation="3" result="blur"/>
      <feFlood flood-opacity="0.161"/>
      <feComposite operator="in" in2="blur"/>
      <feComposite in="SourceGraphic"/>
    </filter>
  </defs>
  <g id="Group_1223236" data-name="Group 1223236" transform="translate(-692.001 -1625.245)">
    <g id="Group_1223134" data-name="Group 1223134">
      <g id="Group_1215979" data-name="Group 1215979" transform="translate(0.001 -9705.727)">
        <g id="Group_1214725" data-name="Group 1214725" transform="translate(701 11336.972)">
          <g id="Group_1200151" data-name="Group 1200151" transform="translate(0 0)">
            <g id="Group_1185952" data-name="Group 1185952" transform="translate(0 0)">
              <g id="Group_1184115" data-name="Group 1184115">
                <g id="Group_1183744" data-name="Group 1183744">
                  <g id="Group_1181546" data-name="Group 1181546">
                    <g id="Group_1177563" data-name="Group 1177563">
                      <g id="Group_1173148" data-name="Group 1173148">
                        <g id="Group_1163803" data-name="Group 1163803">
                          <g id="Group_1163015" data-name="Group 1163015">
                            <g id="Group_1157017" data-name="Group 1157017">
                              <g id="Group_1155793" data-name="Group 1155793">
                                <g id="Group_1154704" data-name="Group 1154704">
                                  <g id="Group_1150790" data-name="Group 1150790">
                                    <g id="Group_1154214" data-name="Group 1154214">
                                      <g id="Group_1152583" data-name="Group 1152583">
                                        <g id="Group_1146973" data-name="Group 1146973">
                                          <g id="Group_1146954" data-name="Group 1146954">
                                            <g transform="matrix(1, 0, 0, 1, -9, -6)" filter="url(#Path_982547)">
                                              <g id="Path_982547-2" data-name="Path 982547" transform="translate(9 6)" fill="#f9e3d4">
                                                <path d="M 46 90.49986267089844 C 39.99187850952148 90.49986267089844 34.16426849365234 89.32350158691406 28.67905426025391 87.00344848632812 C 23.38021278381348 84.76223754882812 18.62104034423828 81.55340576171875 14.53376007080078 77.46612548828125 C 10.44646644592285 73.37884521484375 7.237653255462646 68.61968994140625 4.996426582336426 63.32084655761719 C 2.676373243331909 57.83563232421875 1.50001335144043 52.00803375244141 1.50001335144043 45.99992752075195 C 1.50001335144043 39.9918212890625 2.676373243331909 34.16422271728516 4.996426582336426 28.67900657653809 C 7.237653255462646 23.38016700744629 10.44646644592285 18.62100791931152 14.53376007080078 14.53372764587402 C 18.62104034423828 10.44644737243652 23.38021278381348 7.237634181976318 28.67905426025391 4.996420860290527 C 34.16426849365234 2.676367521286011 39.99187850952148 1.500007510185242 46 1.500007510185242 C 52.00812149047852 1.500007510185242 57.83572006225586 2.676367521286011 63.32094573974609 4.996420860290527 C 68.61978912353516 7.237634181976318 73.37895965576172 10.44646072387695 77.46623992919922 14.53372764587402 C 81.55353546142578 18.62100791931152 84.76235961914062 23.38016700744629 87.00358581542969 28.67900657653809 C 89.32363891601562 34.16422271728516 90.5 39.9918212890625 90.5 45.99992752075195 C 90.5 52.00803375244141 89.32363891601562 57.83563232421875 87.00358581542969 63.32084655761719 C 84.76235961914062 68.61968994140625 81.55353546142578 73.37884521484375 77.46623992919922 77.46612548828125 C 73.37895965576172 81.55340576171875 68.61978912353516 84.76223754882812 63.32094573974609 87.00344848632812 C 57.83572006225586 89.32350158691406 52.00812149047852 90.49986267089844 46 90.49986267089844 Z" stroke="none"/>
                                                <path d="M 46 3 C 40.1937141418457 3 34.56269836425781 4.136497497558594 29.26338577270508 6.377914428710938 C 24.14332580566406 8.543510437011719 19.54442596435547 11.64438629150391 15.59441375732422 15.59438323974609 C 11.64440155029297 19.54439544677734 8.543525695800781 24.14329528808594 6.3779296875 29.26333999633789 C 4.136497497558594 34.56265640258789 3 40.19365692138672 3 45.99992752075195 C 3 51.80619812011719 4.136497497558594 57.43719863891602 6.3779296875 62.73651123046875 C 8.543525695800781 67.85655212402344 11.64440155029297 72.45545959472656 15.59441375732422 76.40547180175781 C 19.54442596435547 80.35546875 24.14332580566406 83.45634460449219 29.26338577270508 85.62194061279297 C 34.56269836425781 87.86335754394531 40.1937141418457 88.99985504150391 46 88.99985504150391 C 51.8062858581543 88.99985504150391 57.43728637695312 87.86335754394531 62.73661422729492 85.62194061279297 C 67.85665893554688 83.45634460449219 72.45557403564453 80.35546875 76.40558624267578 76.40547180175781 C 80.35559844970703 72.45545959472656 83.45647430419922 67.85655212402344 85.6220703125 62.73651123046875 C 87.86348724365234 57.43719863891602 88.99998474121094 51.80619812011719 88.99998474121094 45.99992752075195 C 88.99998474121094 40.19365692138672 87.86348724365234 34.56265640258789 85.6220703125 29.26333999633789 C 83.45647430419922 24.14329528808594 80.35559844970703 19.54439544677734 76.40558624267578 15.59438323974609 C 72.45557403564453 11.64438629150391 67.85665893554688 8.543510437011719 62.73661422729492 6.377914428710938 C 57.43728637695312 4.136497497558594 51.8062858581543 3 46 3 M 46 0 C 71.40509033203125 0 91.99998474121094 20.59487152099609 91.99998474121094 45.99992752075195 C 91.99998474121094 71.40498352050781 71.40509033203125 91.99985504150391 46 91.99985504150391 C 20.59491729736328 91.99985504150391 0 71.40498352050781 0 45.99992752075195 C 0 20.59487152099609 20.59491729736328 0 46 0 Z" stroke="none" fill="#eca675"/>
                                              </g>
                                            </g>
                                          </g>
                                        </g>
                                      </g>
                                    </g>
                                  </g>
                                </g>
                              </g>
                            </g>
                          </g>
                        </g>
                      </g>
                    </g>
                  </g>
                </g>
              </g>
            </g>
          </g>
        </g>
      </g>
      <g id="ley_15_" data-name="ley (15)" transform="translate(665.17 1645.46)">
        <g id="Group_1223131" data-name="Group 1223131" transform="translate(57.501 0.931)">
          <path id="Path_1175495" data-name="Path 1175495" d="M111.729,63.563H64.069V13.144A5.644,5.644,0,0,1,69.713,7.5h42.016Z" transform="translate(-64.069 -7.5)" fill="#e19974"/>
          <path id="Path_1175496" data-name="Path 1175496" d="M415.606,7.5h4.013V63.563h-4.013Z" transform="translate(-371.959 -7.5)" fill="#dc8758"/>
          <path id="Path_1175497" data-name="Path 1175497" d="M64.069,13.144V63.563h5.644V7.5A5.644,5.644,0,0,0,64.069,13.144Z" transform="translate(-64.069 -7.5)" fill="#c86d36"/>
          <path id="Path_1175498" data-name="Path 1175498" d="M111.729,424.874H69.713a5.644,5.644,0,1,1,0-11.288h42.016Z" transform="translate(-64.069 -363.167)" fill="#eaf6ff"/>
          <path id="Path_1175499" data-name="Path 1175499" d="M415.606,413.585h4.013v11.288h-4.013Z" transform="translate(-371.959 -363.166)" fill="#d8ecfe"/>
        </g>
        <g id="Group_1223132" data-name="Group 1223132" transform="translate(68.162 4.694)">
          <circle id="Ellipse_14654" data-name="Ellipse 14654" cx="3.386" cy="3.386" r="3.386" transform="translate(12.605)" fill="#ffe177"/>
          <path id="Path_1175500" data-name="Path 1175500" d="M224.574,224.916H209.021a1,1,0,0,1-1-1v-1.254a1,1,0,0,1,1-1h15.552a1,1,0,0,1,1,1v1.254A1,1,0,0,1,224.574,224.916Z" transform="translate(-200.806 -198.828)" fill="#ffe177"/>
          <path id="Path_1175501" data-name="Path 1175501" d="M314.817,221.654h-3.763a1,1,0,0,1,1,1v1.254a1,1,0,0,1-1,1h3.763a1,1,0,0,0,1-1v-1.254A1,1,0,0,0,314.817,221.654Z" transform="translate(-291.049 -198.827)" fill="#ffd15b"/>
          <path id="Path_1175502" data-name="Path 1175502" d="M323.054,164.808h-6.6a2.508,2.508,0,0,1-2.508-2.508v-1.254h11.619V162.3A2.508,2.508,0,0,1,323.054,164.808Z" transform="translate(-293.581 -145.744)" fill="#ffe177"/>
          <path id="Path_1175503" data-name="Path 1175503" d="M359.525,161.045V162.3a2.508,2.508,0,0,1-2.508,2.508h3.763a2.508,2.508,0,0,0,2.508-2.508v-1.254Z" transform="translate(-331.306 -145.744)" fill="#ffd15b"/>
          <circle id="Ellipse_14655" data-name="Ellipse 14655" cx="2.007" cy="2.007" r="2.007" transform="translate(24.166 1.38)" fill="#ffd15b"/>
          <path id="Path_1175504" data-name="Path 1175504" d="M152.441,164.808h6.6a2.508,2.508,0,0,0,2.508-2.508v-1.254H149.933V162.3A2.508,2.508,0,0,0,152.441,164.808Z" transform="translate(-149.933 -145.744)" fill="#ffe177"/>
          <path id="Path_1175505" data-name="Path 1175505" d="M195.514,161.045V162.3a2.508,2.508,0,0,1-2.508,2.508h3.763a2.508,2.508,0,0,0,2.508-2.508v-1.254Z" transform="translate(-187.658 -145.744)" fill="#ffd15b"/>
          <circle id="Ellipse_14656" data-name="Ellipse 14656" cx="2.007" cy="2.007" r="2.007" transform="translate(3.803 1.38)" fill="#ffe177"/>
        </g>
        <g id="Group_1223133" data-name="Group 1223133" transform="translate(56.57)">
          <path id="Path_1175506" data-name="Path 1175506" d="M105.161,10.623a.931.931,0,0,0,.931-.931V.931A.931.931,0,0,0,105.161,0H63.145A6.583,6.583,0,0,0,56.57,6.575V39.98a.931.931,0,0,0,1.862,0V6.575a4.721,4.721,0,0,1,3.782-4.62v48.53a6.533,6.533,0,0,0-3.719,1.86c-.021.021-.041.044-.062.066V44.326a.931.931,0,1,0-1.862,0V56.994a6.583,6.583,0,0,0,6.575,6.575h42.015a.931.931,0,0,0,.931-.931v-48.6a.931.931,0,1,0-1.862,0V50.42H92.106a.931.931,0,1,0,0,1.862H104.23v9.425H63.146a4.712,4.712,0,1,1,0-9.425H87.763a.931.931,0,0,0,0-1.862H64.076V1.862H104.23V9.692a.931.931,0,0,0,.931.931Z" transform="translate(-56.57)"/>
          <path id="Path_1175507" data-name="Path 1175507" d="M113.059,468.557h23.015a.931.931,0,1,0,0-1.862H113.059a.931.931,0,0,0,0,1.862Z" transform="translate(-105.23 -408.751)"/>
          <path id="Path_1175508" data-name="Path 1175508" d="M340.72,466.7h-9.971a.931.931,0,0,0,0,1.862h9.971a.931.931,0,1,0,0-1.862Z" transform="translate(-295.892 -408.751)"/>
          <path id="Path_1175509" data-name="Path 1175509" d="M210.221,436.39H181.75a.931.931,0,1,0,0,1.862h28.471a.931.931,0,1,0,0-1.862Z" transform="translate(-165.392 -382.208)"/>
          <path id="Path_1175510" data-name="Path 1175510" d="M113.059,438.252h4.515a.931.931,0,1,0,0-1.862h-4.515a.931.931,0,1,0,0,1.862Z" transform="translate(-105.23 -382.208)"/>
          <path id="Path_1175511" data-name="Path 1175511" d="M237.858,304.773l.382-1h2.649l.377,1a.931.931,0,0,0,1.742-.658l-2.427-6.43-.01-.026a1.075,1.075,0,0,0-1-.668h0a1.075,1.075,0,0,0-1,.671l-.008.021-2.449,6.43a.931.931,0,0,0,1.74.663Zm2.328-2.864h-1.237l.621-1.632Z" transform="translate(-213.771 -260.114)"/>
          <path id="Path_1175512" data-name="Path 1175512" d="M192.858,296.988a.931.931,0,0,0-.931.931v6.522a.931.931,0,0,0,.931.931h2.286a.931.931,0,0,0,0-1.862h-1.354v-5.591A.931.931,0,0,0,192.858,296.988Z" transform="translate(-175.121 -260.114)"/>
          <path id="Path_1175513" data-name="Path 1175513" d="M294.945,304.652a1.079,1.079,0,0,0,1.016.717h.007a1.079,1.079,0,0,0,1.014-.731l.008-.024,1.094-3.536,1.095,3.536.008.024a1.079,1.079,0,0,0,1.014.731h.007a1.079,1.079,0,0,0,1.016-.717.93.93,0,0,0,.036-.131l1.271-6.424a.931.931,0,0,0-1.827-.361l-.664,3.359-1.065-3.442a.931.931,0,0,0-1.779,0l-1.065,3.442-.664-3.359a.931.931,0,1,0-1.827.361l1.271,6.424A.936.936,0,0,0,294.945,304.652Z" transform="translate(-264.188 -260.112)"/>
          <path id="Path_1175514" data-name="Path 1175514" d="M150.009,376.711a.931.931,0,0,0,.931.931h30.1a.931.931,0,1,0,0-1.862h-30.1A.931.931,0,0,0,150.009,376.711Z" transform="translate(-138.408 -329.123)"/>
          <path id="Path_1175515" data-name="Path 1175515" d="M181.041,270.724h-30.1a.931.931,0,0,0,0,1.862h30.1a.931.931,0,1,0,0-1.862Z" transform="translate(-138.408 -237.111)"/>
          <path id="Path_1175516" data-name="Path 1175516" d="M176.278,46.538a.931.931,0,0,0-.931-.931h-1.11l-2.925-8.644a2.937,2.937,0,1,0-4.56-3.271H163.57a4.317,4.317,0,0,0-8.431,0h-3.18a2.937,2.937,0,1,0-4.561,3.27l-2.924,8.645h-1.11a.931.931,0,0,0-.931.931v1.254a3.444,3.444,0,0,0,3.44,3.44h6.6a3.444,3.444,0,0,0,3.44-3.44V46.538a.931.931,0,0,0-.931-.931h-1.11l-2.925-8.644a2.95,2.95,0,0,0,1.012-1.408h3.181a4.33,4.33,0,0,0,3.284,3.284V53.132h-6.845a1.937,1.937,0,0,0-1.935,1.935V56.32a1.937,1.937,0,0,0,1.935,1.935h15.552a1.937,1.937,0,0,0,1.935-1.935V55.066a1.937,1.937,0,0,0-1.935-1.935h-6.845V38.838a4.33,4.33,0,0,0,3.284-3.284h3.181a2.948,2.948,0,0,0,1.011,1.408l-2.924,8.645h-1.11a.931.931,0,0,0-.931.931v1.254a3.444,3.444,0,0,0,3.44,3.44h6.6a3.444,3.444,0,0,0,3.44-3.44V46.538Zm-27.1-12.991a1.076,1.076,0,1,1-1.076,1.076A1.077,1.077,0,0,1,149.174,33.547Zm4.878,14.245a1.579,1.579,0,0,1-1.577,1.577h-6.6a1.579,1.579,0,0,1-1.577-1.577v-.323h9.756Zm-2.145-2.185h-5.466l2.721-8.046h.022Zm15.3,9.46V56.32a.072.072,0,0,1-.072.072H151.579a.072.072,0,0,1-.072-.072V55.066a.072.072,0,0,1,.072-.072h15.552A.072.072,0,0,1,167.2,55.066Zm-7.848-17.988a2.455,2.455,0,1,1,2.455-2.455A2.458,2.458,0,0,1,159.355,37.078Zm10.182-3.531a1.076,1.076,0,1,1-1.076,1.076,1.077,1.077,0,0,1,1.076-1.076Zm-.012,4.013h.022l2.723,8.046H166.8Zm4.89,10.232a1.579,1.579,0,0,1-1.577,1.577h-6.6a1.579,1.579,0,0,1-1.577-1.577v-.323h9.757v.323Z" transform="translate(-131.772 -26.542)"/>
          <circle id="Ellipse_14657" data-name="Ellipse 14657" cx="0.931" cy="0.931" r="0.931" transform="translate(26.652 7.149)"/>
        </g>
      </g>
    </g>
  </g>
</svg>
