<svg xmlns="http://www.w3.org/2000/svg" xmlns:xlink="http://www.w3.org/1999/xlink" width="110" height="110" viewBox="0 0 110 110">
  <defs>
    <filter id="Path_982547" x="0" y="0" width="110" height="110" filterUnits="userSpaceOnUse">
      <feOffset dy="3" input="SourceAlpha"/>
      <feGaussianBlur stdDeviation="3" result="blur"/>
      <feFlood flood-opacity="0.161"/>
      <feComposite operator="in" in2="blur"/>
      <feComposite in="SourceGraphic"/>
    </filter>
  </defs>
  <g id="Group_1223175" data-name="Group 1223175" transform="translate(460 -1539.647)">
    <g id="Group_1222781" data-name="Group 1222781" transform="translate(-315 401)">
      <g id="Group_1222172" data-name="Group 1222172" transform="translate(-1259 -1204.896)">
        <g id="Group_1211001" data-name="Group 1211001" transform="translate(1123 2349.543)">
          <g id="Group_1200151" data-name="Group 1200151" transform="translate(0 0)">
            <g id="Group_1185952" data-name="Group 1185952" transform="translate(0 0)">
              <g id="Group_1184115" data-name="Group 1184115" transform="translate(0 0)">
                <g id="Group_1183744" data-name="Group 1183744">
                  <g id="Group_1181546" data-name="Group 1181546">
                    <g id="Group_1177563" data-name="Group 1177563">
                      <g id="Group_1173148" data-name="Group 1173148" transform="translate(0 0)">
                        <g id="Group_1163803" data-name="Group 1163803" transform="translate(0 0)">
                          <g id="Group_1163015" data-name="Group 1163015" transform="translate(0 0)">
                            <g id="Group_1157017" data-name="Group 1157017">
                              <g id="Group_1155793" data-name="Group 1155793">
                                <g id="Group_1154704" data-name="Group 1154704">
                                  <g id="Group_1150790" data-name="Group 1150790">
                                    <g id="Group_1154214" data-name="Group 1154214">
                                      <g id="Group_1152583" data-name="Group 1152583">
                                        <g id="Group_1146973" data-name="Group 1146973">
                                          <g id="Group_1146954" data-name="Group 1146954">
                                            <g transform="matrix(1, 0, 0, 1, -9, -6)" filter="url(#Path_982547)">
                                              <g id="Path_982547-2" data-name="Path 982547" transform="translate(9 6)" fill="#f9e3d4">
                                                <path d="M 46.00000381469727 90.49986267089844 C 39.99188232421875 90.49986267089844 34.16427230834961 89.32350158691406 28.67905807495117 87.00344848632812 C 23.38020324707031 84.76223754882812 18.62104415893555 81.55341339111328 14.53375053405762 77.46613311767578 C 10.44647026062012 73.37885284423828 7.237643718719482 68.61968994140625 4.996417045593262 63.32085037231445 C 2.676363706588745 57.83565139770508 1.500003814697266 52.00805282592773 1.500003814697266 45.99993133544922 C 1.500003814697266 39.99182510375977 2.676363706588745 34.16422653198242 4.996417045593262 28.67901039123535 C 7.237643718719482 23.38017082214355 10.44647026062012 18.62101173400879 14.53375053405762 14.53373146057129 C 18.62104415893555 10.44645118713379 23.38020324707031 7.237624645233154 28.67905807495117 4.996411323547363 C 34.16427230834961 2.676357984542847 39.99188232421875 1.499997973442078 46.00000381469727 1.499997973442078 C 52.00812530517578 1.499997973442078 57.83573532104492 2.676357984542847 63.32094955444336 4.996411323547363 C 68.61980438232422 7.237624645233154 73.37896728515625 10.44645118713379 77.46625518798828 14.53373146057129 C 81.55353546142578 18.62101173400879 84.76236724853516 23.38017082214355 87.00359344482422 28.67901039123535 C 89.32364654541016 34.16422653198242 90.5 39.99182510375977 90.5 45.99993133544922 C 90.5 52.00805282592773 89.32364654541016 57.83565139770508 87.00359344482422 63.32085037231445 C 84.76236724853516 68.61968994140625 81.55353546142578 73.37885284423828 77.46625518798828 77.46613311767578 C 73.37896728515625 81.55341339111328 68.61980438232422 84.76223754882812 63.32094955444336 87.00344848632812 C 57.83573532104492 89.32350158691406 52.00812530517578 90.49986267089844 46.00000381469727 90.49986267089844 Z" stroke="none"/>
                                                <path d="M 46.00000381469727 3 C 40.19371795654297 3 34.56270217895508 4.136505126953125 29.26337432861328 6.377914428710938 C 24.14333343505859 8.54351806640625 19.54441833496094 11.64438629150391 15.59440612792969 15.59439086914062 C 11.64440155029297 19.54440307617188 8.54351806640625 24.14330291748047 6.377914428710938 29.26334381103516 C 4.136505126953125 34.56266021728516 3.000007629394531 40.19366073608398 3.000007629394531 45.99993133544922 C 3.000007629394531 51.80620193481445 4.136505126953125 57.43720245361328 6.377914428710938 62.73651885986328 C 8.54351806640625 67.85655975341797 11.64440155029297 72.45545959472656 15.59440612792969 76.40547180175781 C 19.54441833496094 80.35547637939453 24.14333343505859 83.45634460449219 29.26337432861328 85.6219482421875 C 34.56270217895508 87.86335754394531 40.19371795654297 88.99986267089844 46.00000381469727 88.99986267089844 C 51.80628967285156 88.99986267089844 57.43730545043945 87.86335754394531 62.73661804199219 85.6219482421875 C 67.85667419433594 83.45634460449219 72.45557403564453 80.35547637939453 76.40558624267578 76.40547180175781 C 80.35560607910156 72.45545959472656 83.45647430419922 67.85655975341797 85.62207794189453 62.73651885986328 C 87.86350250244141 57.43720245361328 89 51.80620193481445 89 45.99993133544922 C 89 40.19366073608398 87.86350250244141 34.56266021728516 85.62207794189453 29.26334381103516 C 83.45647430419922 24.14330291748047 80.35560607910156 19.54440307617188 76.40558624267578 15.59439086914062 C 72.45557403564453 11.64438629150391 67.85667419433594 8.54351806640625 62.73661804199219 6.377914428710938 C 57.43730545043945 4.136505126953125 51.80628967285156 3 46.00000381469727 3 M 46.00000381469727 0 C 71.40509033203125 0 92 20.59487152099609 92 45.99993133544922 C 92 71.40499114990234 71.40509033203125 91.99986267089844 46.00000381469727 91.99986267089844 C 20.59490203857422 91.99986267089844 7.62939453125e-06 71.40499114990234 7.62939453125e-06 45.99993133544922 C 7.62939453125e-06 20.59487152099609 20.59490203857422 0 46.00000381469727 0 Z" stroke="none" fill="#eca675"/>
                                              </g>
                                            </g>
                                          </g>
                                        </g>
                                      </g>
                                    </g>
                                  </g>
                                </g>
                              </g>
                            </g>
                          </g>
                        </g>
                      </g>
                    </g>
                  </g>
                </g>
              </g>
            </g>
          </g>
        </g>
      </g>
      <g id="ley_13_" data-name="ley (13)" transform="translate(-118.753 1163.177)">
        <g id="Group_1222778" data-name="Group 1222778" transform="translate(0.959 0.959)">
          <g id="Group_1222777" data-name="Group 1222777">
            <g id="Group_1222771" data-name="Group 1222771">
              <g id="Group_1222770" data-name="Group 1222770">
                <path id="Path_1174825" data-name="Path 1174825" d="M15.646,66.935H13.118A5.618,5.618,0,0,1,7.5,61.316v-48.2A5.618,5.618,0,0,1,13.118,7.5h2.528Z" transform="translate(-7.5 -7.5)" fill="#964f09"/>
                <path id="Path_1174826" data-name="Path 1174826" d="M104.586,66.935H71.178V7.5h33.408a2.525,2.525,0,0,1,2.525,2.525V64.409A2.525,2.525,0,0,1,104.586,66.935Z" transform="translate(-63.032 -7.5)" fill="#e68d35"/>
                <path id="Path_1174827" data-name="Path 1174827" d="M297.44,7.5h-5.117a2.525,2.525,0,0,1,2.525,2.525V64.409a2.525,2.525,0,0,1-2.525,2.525h5.117a2.525,2.525,0,0,0,2.525-2.525V10.025A2.525,2.525,0,0,0,297.44,7.5Z" transform="translate(-255.886 -7.5)" fill="#d47619"/>
                <path id="Path_1174828" data-name="Path 1174828" d="M74.653,391.961H36.49a2.534,2.534,0,0,1-2.534-2.534v-2.7a2.534,2.534,0,0,1,2.534-2.534H74.653Z" transform="translate(-30.572 -336.005)" fill="#fff"/>
                <path id="Path_1174829" data-name="Path 1174829" d="M76.325,422.511l-5.147,4.12V415.208h5.147Z" transform="translate(-63.032 -363.051)" fill="#73a4ff"/>
              </g>
              <path id="Path_1174830" data-name="Path 1174830" d="M133.115,73.465H153.2v13.32H133.115Z" transform="translate(-117.045 -65.026)" fill="#fff"/>
            </g>
            <g id="Group_1222776" data-name="Group 1222776" transform="translate(24.537 25.913)">
              <path id="Path_1174831" data-name="Path 1174831" d="M269.732,476.243h-23.4a2.072,2.072,0,0,1-2.072-2.072h0a2.072,2.072,0,0,1,2.072-2.072h23.4a2.072,2.072,0,0,1,2.072,2.072h0A2.072,2.072,0,0,1,269.732,476.243Z" transform="translate(-238.513 -438.577)" fill="#73a4ff"/>
              <path id="Path_1174832" data-name="Path 1174832" d="M408.46,472.1h-5.117a2.072,2.072,0,0,1,2.072,2.072h0a2.072,2.072,0,0,1-2.072,2.072h5.117a2.072,2.072,0,0,0,2.072-2.072h0A2.072,2.072,0,0,0,408.46,472.1Z" transform="translate(-377.241 -438.576)" fill="#5c95ff"/>
              <path id="Path_1174833" data-name="Path 1174833" d="M302.358,442.508H285.324a4.346,4.346,0,0,1,4.346-4.346h8.342a4.346,4.346,0,0,1,4.346,4.346h0Z" transform="translate(-274.32 -408.981)" fill="#ffd52b"/>
              <path id="Path_1174834" data-name="Path 1174834" d="M349.622,438.16h-5.117a4.346,4.346,0,0,1,4.346,4.346h5.117A4.346,4.346,0,0,0,349.622,438.16Z" transform="translate(-325.93 -408.98)" fill="#fcca00"/>
              <g id="Group_1222772" data-name="Group 1222772" transform="translate(17.431)">
                <path id="Path_1174835" data-name="Path 1174835" d="M339.745,239.18h-4.18V212.152a2.09,2.09,0,0,1,4.18,0Z" transform="translate(-335.565 -210.062)" fill="#73a4ff"/>
              </g>
              <path id="Path_1174836" data-name="Path 1174836" d="M311.139,250.984H297.123v0a6.887,6.887,0,0,1,6.887-6.887h.243a6.887,6.887,0,0,1,6.887,6.887Z" transform="translate(-284.609 -239.742)" fill="#ffd52b"/>
              <path id="Path_1174837" data-name="Path 1174837" d="M334.582,244.1h-.243a6.867,6.867,0,0,0-2.437.445,6.888,6.888,0,0,1,4.449,6.441v0h5.117v0A6.886,6.886,0,0,0,334.582,244.1Z" transform="translate(-314.939 -239.741)" fill="#fcca00"/>
              <g id="Group_1222775" data-name="Group 1222775" transform="translate(0 20.671)">
                <g id="Group_1222773" data-name="Group 1222773">
                  <path id="Path_1174838" data-name="Path 1174838" d="M209.632,375.831H201.4a2.091,2.091,0,0,1,0-4.182h8.237a2.091,2.091,0,0,1,0,4.182Z" transform="translate(-199.305 -371.649)" fill="#ffd52b"/>
                </g>
                <path id="Path_1174839" data-name="Path 1174839" d="M245.151,371.649h-5.117a2.091,2.091,0,0,1,0,4.182h5.117a2.091,2.091,0,0,0,0-4.182Z" transform="translate(-234.824 -371.649)" fill="#fcca00"/>
                <g id="Group_1222774" data-name="Group 1222774" transform="translate(26.625)">
                  <path id="Path_1174840" data-name="Path 1174840" d="M417.76,375.831h-8.237a2.091,2.091,0,0,1,0-4.182h8.237a2.091,2.091,0,0,1,0,4.182Z" transform="translate(-407.433 -371.649)" fill="#ffd52b"/>
                </g>
                <path id="Path_1174841" data-name="Path 1174841" d="M453.279,371.649h-5.117a2.091,2.091,0,0,1,0,4.182h5.117a2.091,2.091,0,0,0,0-4.182Z" transform="translate(-416.326 -371.649)" fill="#fcca00"/>
              </g>
            </g>
          </g>
          <path id="Path_1174842" data-name="Path 1174842" d="M247.026,291.4h-33.81a.959.959,0,0,0,0,1.919h33.81a.959.959,0,1,0,0-1.919Z" transform="translate(-186.063 -255.083)" fill="#ffd52b"/>
        </g>
        <g id="Group_1222779" data-name="Group 1222779" transform="translate(0 0)">
          <path id="Path_1174843" data-name="Path 1174843" d="M146.66,81.2a.959.959,0,0,0,.959-.959V66.924a.959.959,0,0,0-.959-.959H126.574a.959.959,0,0,0-.959.959v13.32a.959.959,0,0,0,.959.959Zm-19.127-13.32H145.7v11.4H127.534Z" transform="translate(-109.545 -57.526)" fill="#060606"/>
          <path id="Path_1174844" data-name="Path 1174844" d="M62.685,46.594l-2.941-7.4h2.178a.959.959,0,0,0,0-1.919H52.94a7.864,7.864,0,0,0-4.873-6.442V28.963A3.054,3.054,0,0,0,46,26.076V3.485A3.489,3.489,0,0,0,42.513,0H6.578A6.585,6.585,0,0,0,0,6.578v4.68a.959.959,0,1,0,1.919,0V6.578A4.664,4.664,0,0,1,6.578,1.919H8.146V48.19H6.878a3.5,3.5,0,0,0-3.493,3.493v2.7a3.5,3.5,0,0,0,3.493,3.493H8.146v1.56H6.578a4.664,4.664,0,0,1-4.659-4.659V16.119a.959.959,0,0,0-1.919,0V54.776a6.585,6.585,0,0,0,6.578,6.578H8.146v3.186a.966.966,0,0,0,1.559.749l4.916-3.935H30.5A3.062,3.062,0,0,0,33.32,65.5H49.507a.959.959,0,0,0,0-1.919H33.32a1.114,1.114,0,0,1,0-2.226h23.4a1.114,1.114,0,0,1,0,2.226h-2.1a.959.959,0,1,0,0,1.919h2.1c3.9,0,3.907-6.064,0-6.064h-2.31a5.314,5.314,0,0,0-5.216-4.342H48.067V39.2h8.849l-2.941,7.4a3.05,3.05,0,0,0,.236,6.091h8.237a3.05,3.05,0,0,0,.236-6.091Zm-20.717,1.6h-3.46a3.054,3.054,0,0,0-2.449-1.6l-2.941-7.4h8.849ZM27.587,48.5h8.237a1.132,1.132,0,0,1,0,2.263H27.587a1.132,1.132,0,0,1,0-2.263Zm1.833-1.919,2.286-5.75,2.286,5.75Zm21.569-9.429H39.047a5.937,5.937,0,0,1,5.85-4.969A6.02,6.02,0,0,1,50.989,37.155Zm-4.84-6.821a9.267,9.267,0,0,0-2.261,0V28.963a1.131,1.131,0,1,1,2.261,0ZM10.065,1.919H42.513a1.568,1.568,0,0,1,1.566,1.566V26.062a3.054,3.054,0,0,0-2.111,2.9v1.873A7.865,7.865,0,0,0,37.1,37.278H28.113a.959.959,0,1,0,0,1.919h2.178l-2.941,7.4a3.054,3.054,0,0,0-2.449,1.6H10.065Zm0,52.157h3.228v5.883l-3.228,2.584Zm5.147,5.359v-1.56H36.181a5.267,5.267,0,0,0-.551,1.56H15.212Zm37.224,0H37.6a3.393,3.393,0,0,1,3.247-2.423h8.342A3.393,3.393,0,0,1,52.435,59.435ZM40.847,55.093a5.273,5.273,0,0,0-2.895.863H15.212V53.116a.959.959,0,0,0-.959-.959H9.106a.959.959,0,0,0-.959.959v2.839H6.878A1.576,1.576,0,0,1,5.3,54.381v-2.7a1.576,1.576,0,0,1,1.575-1.575h17.7a3.055,3.055,0,0,0,3.013,2.577h8.237a3.054,3.054,0,0,0,3.013-2.577h3.132v4.985H40.847Zm5.3-.062H43.887V39.2h2.261Zm14.468-8.447H56.045l2.286-5.75Zm1.833,4.182H54.212a1.132,1.132,0,0,1,0-2.263h8.237a1.132,1.132,0,0,1,0,2.263Z" transform="translate(0 0)" fill="#060606"/>
        </g>
      </g>
    </g>
  </g>
</svg>
