<svg xmlns="http://www.w3.org/2000/svg" xmlns:xlink="http://www.w3.org/1999/xlink" width="113" height="113" viewBox="0 0 113 113">
  <defs>
    <filter id="Path_982547" x="0" y="0" width="113" height="113" filterUnits="userSpaceOnUse">
      <feOffset dy="3" input="SourceAlpha"/>
      <feGaussianBlur stdDeviation="3" result="blur"/>
      <feFlood flood-opacity="0.161"/>
      <feComposite operator="in" in2="blur"/>
      <feComposite in="SourceGraphic"/>
    </filter>
  </defs>
  <g id="Group_1220657" data-name="Group 1220657" transform="translate(-325 -5997.808)">
    <g id="Group_1220545" data-name="Group 1220545" transform="translate(0 25)">
      <g id="Group_1220252" data-name="Group 1220252" transform="translate(0 -1556)">
        <g id="Group_1208705" data-name="Group 1208705" transform="translate(-1.454 3213.429)">
          <g id="Group_1148633" data-name="Group 1148633" transform="translate(71.408 600.047)">
            <g id="Group_1148525" data-name="Group 1148525" transform="translate(264.046 3721.333)">
              <g transform="matrix(1, 0, 0, 1, -9, -6)" filter="url(#Path_982547)">
                <g id="Path_982547-2" data-name="Path 982547" transform="translate(9 6)" fill="#f9e3d4">
                  <path d="M 47.5 93.5 C 41.28937149047852 93.5 35.26533508300781 92.28397369384766 29.59518623352051 89.88570404052734 C 24.11771965026855 87.56893157958984 19.19813346862793 84.25196075439453 14.97309303283691 80.02691650390625 C 10.74804019927979 75.80186462402344 7.431066513061523 70.88229370117188 5.114293098449707 65.40481567382812 C 2.716026782989502 59.73468017578125 1.5 53.71062850952148 1.5 47.5 C 1.5 41.28937149047852 2.716026782989502 35.26533508300781 5.114293098449707 29.59518623352051 C 7.431066513061523 24.11771965026855 10.74804019927979 19.19813346862793 14.97309303283691 14.97309303283691 C 19.19813346862793 10.74804019927979 24.11771965026855 7.431066513061523 29.59518623352051 5.114293098449707 C 35.26533508300781 2.716026782989502 41.28937149047852 1.5 47.5 1.5 C 53.71062850952148 1.5 59.73468017578125 2.716026782989502 65.40481567382812 5.114293098449707 C 70.88229370117188 7.431066513061523 75.80186462402344 10.74804019927979 80.02691650390625 14.97309303283691 C 84.25196075439453 19.19813346862793 87.56893157958984 24.11771965026855 89.88570404052734 29.59518623352051 C 92.28397369384766 35.26533508300781 93.5 41.28937149047852 93.5 47.5 C 93.5 53.71062850952148 92.28397369384766 59.73468017578125 89.88570404052734 65.40481567382812 C 87.56893157958984 70.88229370117188 84.25196075439453 75.80186462402344 80.02691650390625 80.02691650390625 C 75.80186462402344 84.25196075439453 70.88229370117188 87.56893157958984 65.40481567382812 89.88570404052734 C 59.73468017578125 92.28397369384766 53.71062850952148 93.5 47.5 93.5 Z" stroke="none"/>
                  <path d="M 47.5 3 C 41.49121475219727 3 35.66376876831055 4.176155090332031 30.17950439453125 6.495796203613281 C 24.88084411621094 8.736953735351562 20.12152099609375 11.94598388671875 16.03375244140625 16.03375244140625 C 11.94598388671875 20.12152099609375 8.736953735351562 24.88084411621094 6.495796203613281 30.17950439453125 C 4.176155090332031 35.66376876831055 3 41.49121475219727 3 47.5 C 3 53.50878524780273 4.176155090332031 59.33623123168945 6.495796203613281 64.82049560546875 C 8.736953735351562 70.11915588378906 11.94598388671875 74.87847900390625 16.03375244140625 78.96624755859375 C 20.12152099609375 83.05401611328125 24.88084411621094 86.26304626464844 30.17950439453125 88.50419616699219 C 35.66376876831055 90.82384490966797 41.49121475219727 92 47.5 92 C 53.50878524780273 92 59.33623123168945 90.82384490966797 64.82049560546875 88.50419616699219 C 70.11915588378906 86.26304626464844 74.87847900390625 83.05401611328125 78.96624755859375 78.96624755859375 C 83.05401611328125 74.87847900390625 86.26304626464844 70.11915588378906 88.50419616699219 64.82049560546875 C 90.82384490966797 59.33623123168945 92 53.50878524780273 92 47.5 C 92 41.49121475219727 90.82384490966797 35.66376876831055 88.50419616699219 30.17950439453125 C 86.26304626464844 24.88084411621094 83.05401611328125 20.12152099609375 78.96624755859375 16.03375244140625 C 74.87847900390625 11.94598388671875 70.11915588378906 8.736953735351562 64.82049560546875 6.495796203613281 C 59.33623123168945 4.176155090332031 53.50878524780273 3 47.5 3 M 47.5 0 C 73.7335205078125 0 95 21.2664794921875 95 47.5 C 95 73.7335205078125 73.7335205078125 95 47.5 95 C 21.2664794921875 95 0 73.7335205078125 0 47.5 C 0 21.2664794921875 21.2664794921875 0 47.5 0 Z" stroke="none" fill="#eca675"/>
                </g>
              </g>
            </g>
          </g>
        </g>
      </g>
      <g id="subasta_3_" data-name="subasta (3)" transform="translate(337.469 5969.556)">
        <path id="Path_1169765" data-name="Path 1169765" d="M367.175,80.412a8.677,8.677,0,0,1,7.9,5.864.9.9,0,0,1-.841,1.229H360.114a.9.9,0,0,1-.841-1.229A8.677,8.677,0,0,1,367.175,80.412Z" transform="translate(-301.598 -49.314)" fill="#f0414a" fill-rule="evenodd"/>
        <path id="Path_1169766" data-name="Path 1169766" d="M381.775,81a8.87,8.87,0,0,1,6.753,5.778.9.9,0,0,1-.841,1.229H375.864a.9.9,0,0,1-.841-1.229A8.87,8.87,0,0,1,381.775,81Z" transform="translate(-315.047 -49.82)" fill="#fb545c" fill-rule="evenodd"/>
        <circle id="Ellipse_14497" data-name="Ellipse 14497" cx="3.854" cy="3.854" r="3.854" transform="translate(61.209 23.975) rotate(-7.992)" fill="#f9c795"/>
        <path id="Path_1169767" data-name="Path 1169767" d="M400.6,28.148a3.854,3.854,0,1,1-3.114,3.782,3.855,3.855,0,0,1,3.114-3.782Z" transform="translate(-334.283 -4.686)" fill="#fdd7ad" fill-rule="evenodd"/>
        <path id="Path_1169768" data-name="Path 1169768" d="M104.748,80.412a8.676,8.676,0,0,1,7.9,5.864.9.9,0,0,1-.841,1.229H97.686a.9.9,0,0,1-.841-1.229A8.677,8.677,0,0,1,104.748,80.412Z" transform="translate(-77.513 -49.314)" fill="#008535" fill-rule="evenodd"/>
        <path id="Path_1169769" data-name="Path 1169769" d="M119.347,81a8.87,8.87,0,0,1,6.753,5.778.9.9,0,0,1-.841,1.229H113.436a.9.9,0,0,1-.841-1.229A8.87,8.87,0,0,1,119.347,81Z" transform="translate(-90.962 -49.82)" fill="#0c9e47" fill-rule="evenodd"/>
        <path id="Path_1169770" data-name="Path 1169770" d="M128.787,35.367a3.854,3.854,0,1,0-3.854-3.854A3.861,3.861,0,0,0,128.787,35.367Z" transform="translate(-101.552 -4.269)" fill="#f9c795" fill-rule="evenodd"/>
        <path id="Path_1169771" data-name="Path 1169771" d="M138.172,28.148a3.854,3.854,0,0,1,0,7.565,3.854,3.854,0,0,1,0-7.565Z" transform="translate(-110.198 -4.686)" fill="#fdd7ad" fill-rule="evenodd"/>
        <path id="Path_1169772" data-name="Path 1169772" d="M18.969,204.9a8.677,8.677,0,0,1,7.9,5.864.9.9,0,0,1-.841,1.229H11.907a.9.9,0,0,1-.841-1.229,8.676,8.676,0,0,1,7.9-5.864Z" transform="translate(-4.267 -155.615)" fill="#ee8700" fill-rule="evenodd"/>
        <path id="Path_1169773" data-name="Path 1169773" d="M33.568,205.495a8.87,8.87,0,0,1,6.753,5.778.9.9,0,0,1-.841,1.229H27.657a.9.9,0,0,1-.841-1.229A8.87,8.87,0,0,1,33.568,205.495Z" transform="translate(-17.716 -156.122)" fill="#f89b00" fill-rule="evenodd"/>
        <path id="Path_1169774" data-name="Path 1169774" d="M43.008,159.857A3.854,3.854,0,1,0,39.154,156,3.861,3.861,0,0,0,43.008,159.857Z" transform="translate(-28.306 -110.571)" fill="#f9c795" fill-rule="evenodd"/>
        <path id="Path_1169775" data-name="Path 1169775" d="M52.394,152.638a3.854,3.854,0,0,1,0,7.565,3.854,3.854,0,0,1,0-7.565Z" transform="translate(-36.952 -110.987)" fill="#fdd7ad" fill-rule="evenodd"/>
        <circle id="Ellipse_14498" data-name="Ellipse 14498" cx="25.303" cy="25.303" r="25.303" transform="translate(21.103 33.847)" fill="#f9c795"/>
        <path id="Path_1169776" data-name="Path 1169776" d="M198.007,144.181a25.187,25.187,0,0,1-14,7.11,25.3,25.3,0,0,1,0-50,25.3,25.3,0,0,1,14,42.894Z" transform="translate(-133.709 -67.139)" fill="#fdd7ad" fill-rule="evenodd"/>
        <path id="Path_1169777" data-name="Path 1169777" d="M216.8,416.178c5.022,0,9.33,3.476,11.17,8.43a1.134,1.134,0,0,1-1.063,1.529H206.7a1.134,1.134,0,0,1-1.063-1.529c1.84-4.953,6.148-8.43,11.17-8.43Z" transform="translate(-170.398 -336.022)" fill="#0e82f5" fill-rule="evenodd"/>
        <path id="Path_1169778" data-name="Path 1169778" d="M234.532,416.8a12.449,12.449,0,0,1,9.773,8.339,1.134,1.134,0,0,1-1.063,1.529H225.822a1.134,1.134,0,0,1-1.063-1.529A12.45,12.45,0,0,1,234.532,416.8Z" transform="translate(-186.729 -336.552)" fill="#2a92fa" fill-rule="evenodd"/>
        <circle id="Ellipse_14499" data-name="Ellipse 14499" cx="5.41" cy="5.41" r="5.41" transform="translate(40.996 69.335)" fill="#dea368"/>
        <path id="Path_1169779" data-name="Path 1169779" d="M264.806,342.876a5.412,5.412,0,1,1-4.315,5.3A5.412,5.412,0,0,1,264.806,342.876Z" transform="translate(-217.304 -273.43)" fill="#e6b17c" fill-rule="evenodd"/>
        <path id="Path_1169780" data-name="Path 1169780" d="M388.516,363.62a9.655,9.655,0,0,1,8.794,6.525,1,1,0,0,1-.936,1.367H380.658a1,1,0,0,1-.936-1.367A9.655,9.655,0,0,1,388.516,363.62Z" transform="translate(-319.053 -291.143)" fill="#f9ac00" fill-rule="evenodd"/>
        <path id="Path_1169781" data-name="Path 1169781" d="M402.592,364.115a9.839,9.839,0,0,1,7.685,6.453,1,1,0,0,1-.936,1.367h-13.5a1,1,0,0,1-.936-1.367,9.839,9.839,0,0,1,7.684-6.453Z" transform="translate(-332.021 -291.566)" fill="#fdc72e" fill-rule="evenodd"/>
        <circle id="Ellipse_14500" data-name="Ellipse 14500" cx="4.288" cy="4.288" r="4.288" transform="translate(64.71 64.424) rotate(-6.258)" fill="#dea368"/>
        <g id="Group_1220544" data-name="Group 1220544" transform="translate(14.485 37.614)">
          <path id="Path_1169782" data-name="Path 1169782" d="M426.387,305.537a4.289,4.289,0,1,1-3.411,4.2A4.289,4.289,0,0,1,426.387,305.537Z" transform="translate(-370.534 -279.16)" fill="#e6b17c" fill-rule="evenodd"/>
          <path id="Path_1169783" data-name="Path 1169783" d="M240.883,270.892h-7.571v-1.9a1.623,1.623,0,0,1,1.62-1.62h11.9a1.623,1.623,0,0,1,1.62,1.62v1.9Z" transform="translate(-208.581 -246.57)" fill="#ee8700" fill-rule="evenodd"/>
          <path id="Path_1169784" data-name="Path 1169784" d="M256.467,270.892h-4.9v-1.9a1.623,1.623,0,0,1,1.62-1.62h9.236a1.623,1.623,0,0,1,1.62,1.62v1.9Z" transform="translate(-224.164 -246.57)" fill="#f89b00" fill-rule="evenodd"/>
          <path id="Path_1169785" data-name="Path 1169785" d="M209,287.027H226.05c1.677,0,3.045,1.091,3.045,2.429v1.092H205.96v-1.092c0-1.338,1.368-2.429,3.045-2.429Z" transform="translate(-185.225 -263.355)" fill="#d96500" fill-rule="evenodd"/>
          <path id="Path_1169786" data-name="Path 1169786" d="M227.255,287.027h14.379c1.677,0,3.045,1.091,3.045,2.429v1.092H224.21v-1.092C224.21,288.118,225.578,287.027,227.255,287.027Z" transform="translate(-200.809 -263.355)" fill="#e37200" fill-rule="evenodd"/>
          <path id="Path_1169787" data-name="Path 1169787" d="M311.208,182.819l.869-3.244,22.869,5.242a2.452,2.452,0,0,1,1.606,1.164,2.524,2.524,0,0,1-.945,3.528,2.451,2.451,0,0,1-1.973.2l-22.426-6.9Z" transform="translate(-275.096 -171.602)" fill="#b54500" fill-rule="evenodd"/>
          <path id="Path_1169788" data-name="Path 1169788" d="M311.208,192.3l.435-1.622,25.193,6.75a2.529,2.529,0,0,1-1.228,1.562,2.451,2.451,0,0,1-1.973.205l-22.426-6.9Z" transform="translate(-275.096 -181.082)" fill="#a83b00" fill-rule="evenodd"/>
          <path id="Path_1169789" data-name="Path 1169789" d="M275.834,138.548l.291-1.087-7.3-1.956-.291,1.087a21.413,21.413,0,0,1-2.966,11.07l-.291,1.087,7.3,1.956.291-1.087A21.431,21.431,0,0,1,275.834,138.548Z" transform="translate(-235.875 -133.971)" fill="#ee8700" fill-rule="evenodd"/>
          <path id="Path_1169790" data-name="Path 1169790" d="M287.03,141.547l.291-1.087-5.384-1.443-.291,1.087a21.413,21.413,0,0,1-2.966,11.07l-.291,1.087,5.384,1.443.291-1.087A21.431,21.431,0,0,1,287.03,141.547Z" transform="translate(-247.071 -136.971)" fill="#f89b00" fill-rule="evenodd"/>
          <path id="Path_1169791" data-name="Path 1169791" d="M284.8,126.954l.233-.87a1.456,1.456,0,0,1,1.778-1.026l5.559,1.49a1.455,1.455,0,0,1,1.026,1.778l-.233.87a.552.552,0,0,1-.674.389l-7.3-1.956A.552.552,0,0,1,284.8,126.954Z" transform="translate(-252.528 -125.009)" fill="#d96500" fill-rule="evenodd"/>
          <path id="Path_1169792" data-name="Path 1169792" d="M299.92,128.57l3.644.976h0a1.456,1.456,0,0,1,1.024,1.777l-.233.87a.552.552,0,0,1-.674.389L298.3,131.14a.552.552,0,0,1-.387-.674l.233-.87a1.456,1.456,0,0,1,1.778-1.026Z" transform="translate(-263.724 -128.007)" fill="#e37200" fill-rule="evenodd"/>
          <path id="Path_1169793" data-name="Path 1169793" d="M260.77,219.86l.233-.87a.552.552,0,0,1,.674-.389l7.3,1.956a.552.552,0,0,1,.389.674l-.233.87a1.456,1.456,0,0,1-1.778,1.026l-5.56-1.49A1.456,1.456,0,0,1,260.77,219.86Z" transform="translate(-231.985 -204.91)" fill="#d96500" fill-rule="evenodd"/>
          <path id="Path_1169794" data-name="Path 1169794" d="M280.174,223.558a.552.552,0,0,1,.387.674l-.233.87a1.456,1.456,0,0,1-1.778,1.026l-3.644-.976h0a1.456,1.456,0,0,1-1.024-1.777l.233-.87a.552.552,0,0,1,.674-.389l5.386,1.443Z" transform="translate(-243.179 -207.911)" fill="#e37200" fill-rule="evenodd"/>
          <path id="Path_1169795" data-name="Path 1169795" d="M72.91,363.62a9.655,9.655,0,0,1,8.794,6.525,1,1,0,0,1-.936,1.367H65.052a1,1,0,0,1-.936-1.367A9.655,9.655,0,0,1,72.91,363.62Z" transform="translate(-64.045 -328.757)" fill="#3bd97d" fill-rule="evenodd"/>
          <path id="Path_1169796" data-name="Path 1169796" d="M86.987,364.115a9.839,9.839,0,0,1,7.685,6.453,1,1,0,0,1-.936,1.367h-13.5a1,1,0,0,1-.936-1.367,9.839,9.839,0,0,1,7.685-6.453Z" transform="translate(-77.013 -329.18)" fill="#4fe88e" fill-rule="evenodd"/>
        </g>
        <circle id="Ellipse_14501" data-name="Ellipse 14501" cx="4.288" cy="4.288" r="4.288" transform="matrix(0.999, -0.036, 0.036, 0.999, 18.919, 64.036)" fill="#dea368"/>
        <path id="Path_1169797" data-name="Path 1169797" d="M110.782,305.537a4.289,4.289,0,0,1,0,8.4,4.289,4.289,0,0,1,0-8.4Z" transform="translate(-86.556 -241.547)" fill="#e6b17c" fill-rule="evenodd"/>
        <path id="Path_1169798" data-name="Path 1169798" d="M35.95,63.715c0-.92,1.059-1.7,2.314-1.7H55.309c1.255,0,2.314.778,2.314,1.7v.362H35.95Zm4-3.68a.89.89,0,0,1,.889-.89h11.9a.891.891,0,0,1,.89.89v.522H39.946v-.522Zm-4.727,5.5H58.354a.731.731,0,0,0,.731-.731V63.715c0-1.741-1.693-3.159-3.775-3.159h-.22v-.522a2.354,2.354,0,0,0-2.351-2.351h-11.9a2.353,2.353,0,0,0-2.35,2.351v.522h-.221c-2.082,0-3.775,1.418-3.775,3.159v1.093a.731.731,0,0,0,.731.731ZM77.546,79.521a.248.248,0,0,1-.225.118H61.6a.272.272,0,0,1-.254-.372,8.46,8.46,0,0,1,16.225,0,.249.249,0,0,1-.029.254Zm-20.7,9.69a.377.377,0,0,1-.332.174H36.3a.4.4,0,0,1-.378-.545c1.795-4.83,5.911-7.952,10.485-7.952s8.69,3.122,10.487,7.952a.379.379,0,0,1-.047.372Zm-25.412-9.69a.248.248,0,0,1-.226.118H15.492a.248.248,0,0,1-.226-.118.251.251,0,0,1-.03-.254,8.932,8.932,0,0,1,8.113-6.059,8.931,8.931,0,0,1,8.113,6.059A.249.249,0,0,1,31.434,79.521ZM19.792,68.189a3.558,3.558,0,1,1,3.558,3.557,3.563,3.563,0,0,1-3.558-3.557ZM46.406,79.426a4.68,4.68,0,1,1,4.68-4.68A4.685,4.685,0,0,1,46.406,79.426ZM29.031,41.775a24.524,24.524,0,0,0-6.844,21.533,5.016,5.016,0,0,1,4.127,8.928,10.864,10.864,0,0,1,6.511,6.5,1.717,1.717,0,0,1,.087.948,24.379,24.379,0,0,0,5.648,2.75,12.3,12.3,0,0,1,4.533-2.525,6.141,6.141,0,1,1,6.625,0,12.3,12.3,0,0,1,4.533,2.525,24.384,24.384,0,0,0,5.648-2.75,1.722,1.722,0,0,1,.087-.948,10.864,10.864,0,0,1,6.512-6.5,5.017,5.017,0,0,1,4.126-8.929,24.607,24.607,0,0,0,.125-7.516L52.415,50.154a20.753,20.753,0,0,0-.2,2.7,1.276,1.276,0,0,1,.361,1.265l-.232.871a2.188,2.188,0,0,1-2.109,1.617,2.166,2.166,0,0,1-.564-.075l-5.56-1.489a2.185,2.185,0,0,1-1.543-2.672L42.8,51.5a1.283,1.283,0,0,1,.946-.915,20.687,20.687,0,0,0,2.667-9.952,1.247,1.247,0,0,1-.232-.294,1.267,1.267,0,0,1-.129-.972l.233-.87a2.185,2.185,0,0,1,2.672-1.543l5.56,1.489a2.184,2.184,0,0,1,1.543,2.672l-.232.87a1.272,1.272,0,0,1-.945.914A20.913,20.913,0,0,0,53.7,45.35l14.989,3.435a24.578,24.578,0,0,0-39.661-7.01ZM7.64,55.649a.172.172,0,0,1-.16-.234,7.953,7.953,0,0,1,7.222-5.4,7.619,7.619,0,0,1,6.27,3.561q-.225,1.026-.368,2.071ZM14.7,42.31a3.123,3.123,0,1,1-3.123,3.124A3.127,3.127,0,0,1,14.7,42.31Zm5.471-4.849a.171.171,0,0,1-.16-.234,7.953,7.953,0,0,1,7.221-5.4,7.721,7.721,0,0,1,6.782,4.425q-1.026.554-2.011,1.207H20.173Zm7.062-13.339a3.123,3.123,0,1,1-3.124,3.123A3.126,3.126,0,0,1,27.235,24.121Zm38.343,7.707a7.953,7.953,0,0,1,7.221,5.4.171.171,0,0,1-.159.234H60.807q-.984-.654-2.012-1.207a7.721,7.721,0,0,1,6.782-4.425Zm0-7.707a3.123,3.123,0,1,1-3.124,3.123A3.126,3.126,0,0,1,65.578,24.121Zm-21.6,28.632.186-.7,6.953,1.863-.187.7a.722.722,0,0,1-.883.51l-5.56-1.49a.721.721,0,0,1-.51-.883Zm3.884-11.571,5.49,1.471a22.139,22.139,0,0,0-2.588,9.659l-5.49-1.471A22.13,22.13,0,0,0,47.859,41.182Zm6.786-.441-.186.7-6.953-1.863.187-.7a.725.725,0,0,1,.883-.51l5.559,1.489a.722.722,0,0,1,.51.883ZM75.316,52.369a1.794,1.794,0,0,1-.672,2.512,1.723,1.723,0,0,1-1.406.146L52.675,48.705a20.316,20.316,0,0,1,.527-1.971l20.97,4.806a1.72,1.72,0,0,1,1.143.829Zm-2.3,15.82a3.557,3.557,0,1,1-3.557-3.558A3.561,3.561,0,0,1,73.019,68.189Zm5.918,10.55a10.859,10.859,0,0,0-6.511-6.5,5.015,5.015,0,0,0-.415-8.368,26.032,26.032,0,0,0,.269-7.606l.529.163a3.307,3.307,0,0,0,.974.15,3.271,3.271,0,0,0,.716-6.458l-4.036-.925a26.123,26.123,0,0,0-7.669-10.27h9.845A1.633,1.633,0,0,0,74.162,36.7a9.859,9.859,0,0,0-5.768-5.841,4.584,4.584,0,1,0-5.64,0,9.588,9.588,0,0,0-5.263,4.742,26.165,26.165,0,0,0-22.17,0,9.586,9.586,0,0,0-5.263-4.742,4.585,4.585,0,1,0-5.64,0A9.859,9.859,0,0,0,18.65,36.7a1.633,1.633,0,0,0,1.522,2.223h9.845a26.1,26.1,0,0,0-8.585,12.853,9.281,9.281,0,0,0-3.915-2.727,4.584,4.584,0,1,0-5.633,0,9.857,9.857,0,0,0-5.767,5.84A1.633,1.633,0,0,0,7.64,57.11H20.448a26.166,26.166,0,0,0,.355,6.756,5.014,5.014,0,0,0-.417,8.369,10.864,10.864,0,0,0-6.511,6.5A1.735,1.735,0,0,0,15.492,81.1H31.208a1.72,1.72,0,0,0,.85-.222,25.764,25.764,0,0,0,5.342,2.7,14.76,14.76,0,0,0-2.848,4.75A1.865,1.865,0,0,0,36.3,90.845H56.514a1.864,1.864,0,0,0,1.747-2.514,14.76,14.76,0,0,0-2.847-4.75,25.757,25.757,0,0,0,5.34-2.7,1.719,1.719,0,0,0,.85.222H77.321a1.735,1.735,0,0,0,1.616-2.361Z" fill-rule="evenodd"/>
      </g>
    </g>
  </g>
</svg>
