<svg xmlns="http://www.w3.org/2000/svg" xmlns:xlink="http://www.w3.org/1999/xlink" width="93.934" height="93.934" viewBox="0 0 93.934 93.934">
  <defs>
    <filter id="Path_982547" x="0" y="0" width="93.934" height="93.934" filterUnits="userSpaceOnUse">
      <feOffset dy="3" input="SourceAlpha"/>
      <feGaussianBlur stdDeviation="3" result="blur"/>
      <feFlood flood-opacity="0.161"/>
      <feComposite operator="in" in2="blur"/>
      <feComposite in="SourceGraphic"/>
    </filter>
  </defs>
  <g id="Group_1220577" data-name="Group 1220577" transform="translate(-611.066 -496.849)">
    <g id="Group_1220330" data-name="Group 1220330">
      <g id="Group_1219858" data-name="Group 1219858" transform="translate(0 -546)">
        <g id="Group_1215982" data-name="Group 1215982" transform="translate(-0.229 -2679.151)">
          <g id="Group_1214640" data-name="Group 1214640" transform="translate(0 -1406)">
            <g id="Group_1214433" data-name="Group 1214433" transform="translate(-0.771 -2738.674)">
              <g id="Group_1183190" data-name="Group 1183190" transform="translate(1 1016.674)">
                <g id="Group_1179611" data-name="Group 1179611" transform="translate(428 4723.467)">
                  <g id="Group_1175227" data-name="Group 1175227" transform="translate(-5.967 140.533)">
                    <g id="Group_1167337" data-name="Group 1167337" transform="translate(198.033 1992)">
                      <g id="Group_1166720" data-name="Group 1166720">
                        <g id="Group_1164305" data-name="Group 1164305">
                          <g id="Group_1163948" data-name="Group 1163948">
                            <g id="Group_1158168" data-name="Group 1158168">
                              <g id="Group_1152576" data-name="Group 1152576">
                                <g id="Group_1148633" data-name="Group 1148633">
                                  <g id="Group_1148525" data-name="Group 1148525">
                                    <g transform="matrix(1, 0, 0, 1, -9, -6)" filter="url(#Path_982547)">
                                      <g id="Path_982547-2" data-name="Path 982547" transform="translate(9 6)" fill="#eae4dc">
                                        <path d="M 37.966796875 74.43359375 C 33.04315185546875 74.43359375 28.26757431030273 73.46962738037109 23.77274131774902 71.56847381591797 C 19.43047523498535 69.73184967041016 15.53040790557861 67.10224914550781 12.18087482452393 63.75271987915039 C 8.831341743469238 60.4031867980957 6.201741218566895 56.50312042236328 4.365118980407715 52.16086196899414 C 2.463963508605957 47.66601943969727 1.499996900558472 42.89044189453125 1.499996900558472 37.966796875 C 1.499996900558472 33.04315185546875 2.463963508605957 28.26757431030273 4.365118980407715 23.77274131774902 C 6.201741218566895 19.43047523498535 8.831341743469238 15.53040790557861 12.18087482452393 12.18087482452393 C 15.53040790557861 8.831341743469238 19.43047523498535 6.201741218566895 23.77274131774902 4.365118980407715 C 28.26757431030273 2.463963508605957 33.04315185546875 1.499996900558472 37.966796875 1.499996900558472 C 42.89044189453125 1.499996900558472 47.66601943969727 2.463963508605957 52.16086196899414 4.365118980407715 C 56.50312042236328 6.201741218566895 60.4031867980957 8.831341743469238 63.75271987915039 12.18087482452393 C 67.10224914550781 15.53040790557861 69.73184967041016 19.43047523498535 71.56847381591797 23.77274131774902 C 73.46962738037109 28.26757431030273 74.43359375 33.04315185546875 74.43359375 37.966796875 C 74.43359375 42.89044189453125 73.46962738037109 47.66601943969727 71.56847381591797 52.16086196899414 C 69.73184967041016 56.50313186645508 67.10224914550781 60.4031867980957 63.75271987915039 63.75271987915039 C 60.4031867980957 67.10224914550781 56.50313186645508 69.73184967041016 52.16086196899414 71.56847381591797 C 47.66601943969727 73.46962738037109 42.89044189453125 74.43359375 37.966796875 74.43359375 Z" stroke="none"/>
                                        <path d="M 37.966796875 3 C 33.2449836730957 3 28.66600799560547 3.924095153808594 24.35705947875977 5.746635437011719 C 20.19359588623047 7.507637023925781 16.45379638671875 10.02928161621094 13.24153518676758 13.24153518676758 C 10.02927398681641 16.45379638671875 7.507621765136719 20.19359588623047 5.746635437011719 24.35705947875977 C 3.924095153808594 28.66600799560547 3 33.2449836730957 3 37.966796875 C 3 42.6886100769043 3.924095153808594 47.26758575439453 5.746635437011719 51.57653427124023 C 7.507621765136719 55.73999786376953 10.02927398681641 59.47979736328125 13.24153518676758 62.69205856323242 C 16.45379638671875 65.90431976318359 20.19359588623047 68.42597198486328 24.35705947875977 70.18695831298828 C 28.66600799560547 72.00949859619141 33.2449836730957 72.93359375 37.966796875 72.93359375 C 42.6886100769043 72.93359375 47.26758575439453 72.00949859619141 51.57653427124023 70.18695831298828 C 55.73999786376953 68.42597198486328 59.47979736328125 65.90431976318359 62.69205856323242 62.69205856323242 C 65.90431976318359 59.47979736328125 68.42597198486328 55.73999786376953 70.18695831298828 51.57653427124023 C 72.00949859619141 47.26758575439453 72.93359375 42.6886100769043 72.93359375 37.966796875 C 72.93359375 33.2449836730957 72.00949859619141 28.66600799560547 70.18695831298828 24.35705947875977 C 68.42597198486328 20.19359588623047 65.90431976318359 16.45379638671875 62.69205856323242 13.24153518676758 C 59.47979736328125 10.02928161621094 55.73999786376953 7.507637023925781 51.57653427124023 5.746635437011719 C 47.26758575439453 3.924095153808594 42.6886100769043 3 37.966796875 3 M 37.966796875 0 C 58.93528366088867 0 75.93359375 16.99832153320312 75.93359375 37.966796875 C 75.93359375 58.93528366088867 58.93528366088867 75.93359375 37.966796875 75.93359375 C 16.99831008911133 75.93359375 0 58.93528366088867 0 37.966796875 C 0 16.99832153320312 16.99831008911133 0 37.966796875 0 Z" stroke="none" fill="#665b4e"/>
                                      </g>
                                    </g>
                                  </g>
                                </g>
                              </g>
                            </g>
                          </g>
                        </g>
                      </g>
                    </g>
                  </g>
                </g>
              </g>
            </g>
          </g>
        </g>
      </g>
      <g id="justicia_2_" data-name="justicia (2)" transform="translate(628.142 519.217)">
        <path id="Path_1168988" data-name="Path 1168988" d="M434.754,294.5l-5.254,5.254H433a5.254,5.254,0,0,0,5.254-5.254Z" transform="translate(-379.35 -260.113)" fill="#ffbb6e"/>
        <path id="Path_1168989" data-name="Path 1168989" d="M334.507,294.5H316a5.254,5.254,0,0,0,5.254,5.254h8A5.254,5.254,0,0,0,334.507,294.5Z" transform="translate(-279.103 -260.113)" fill="#ffd478"/>
        <path id="Path_1168990" data-name="Path 1168990" d="M126.254,294.5,121,299.754h3.5a5.254,5.254,0,0,0,5.254-5.254Z" transform="translate(-106.872 -260.113)" fill="#ffbb6e"/>
        <path id="Path_1168991" data-name="Path 1168991" d="M26.007,294.5H7.5a5.254,5.254,0,0,0,5.254,5.254h8A5.254,5.254,0,0,0,26.007,294.5Z" transform="translate(-6.624 -260.113)" fill="#ffd478"/>
        <path id="Path_1168992" data-name="Path 1168992" d="M301,384.5h5.254v8.757H301Z" transform="translate(-265.854 -339.604)" fill="#ff8053"/>
        <path id="Path_1168993" data-name="Path 1168993" d="M166,384.5h17.515v8.757H166Z" transform="translate(-146.617 -339.604)" fill="#ffa061"/>
        <path id="Path_1168994" data-name="Path 1168994" d="M93.816,429.5H62l-2.531,3.8a3.273,3.273,0,0,1-2.723,1.457v1.751h44.425Z" transform="translate(-50.124 -379.35)" fill="#ffd478"/>
        <path id="Path_1168995" data-name="Path 1168995" d="M380.936,433.3l-2.531-3.8H374.2l2.531,3.8a3.273,3.273,0,0,0,2.723,1.457l2.105,1.751,2.1-1.751A3.272,3.272,0,0,1,380.936,433.3Z" transform="translate(-330.503 -379.35)" fill="#ffbb6e"/>
        <path id="Path_1168996" data-name="Path 1168996" d="M241,67.5h5.254v8.757H241Z" transform="translate(-212.86 -59.618)" fill="#ff8053"/>
        <path id="Path_1168997" data-name="Path 1168997" d="M226,67.5h3.5v8.757H226Z" transform="translate(-199.611 -59.618)" fill="#ffa061"/>
        <path id="Path_1168998" data-name="Path 1168998" d="M241,142.5h5.254v28.257H241Z" transform="translate(-212.86 -125.861)" fill="#ffe7ad"/>
        <path id="Path_1168999" data-name="Path 1168999" d="M226,142.5h3.5v28.257H226Z" transform="translate(-199.611 -125.861)" fill="#fff5de"/>
        <path id="Path_1169000" data-name="Path 1169000" d="M259.5,127.5H256V131h3.5a1.751,1.751,0,1,0,0-3.5Z" transform="translate(-226.109 -112.613)" fill="#ffbb6e"/>
        <path id="Path_1169001" data-name="Path 1169001" d="M218.006,129.251a1.752,1.752,0,0,0-1.751-1.751h-3.5a1.751,1.751,0,0,0,0,3.5h3.5A1.752,1.752,0,0,0,218.006,129.251Z" transform="translate(-186.363 -112.613)" fill="#ffd478"/>
        <path id="Path_1169002" data-name="Path 1169002" d="M319.5,369.5H316V373h3.5a1.751,1.751,0,0,0,0-3.5Z" transform="translate(-279.103 -326.356)" fill="#ffbb6e"/>
        <path id="Path_1169003" data-name="Path 1169003" d="M172.017,371.251a1.751,1.751,0,0,0-1.751-1.751H152.751a1.751,1.751,0,1,0,0,3.5h17.514A1.752,1.752,0,0,0,172.017,371.251Z" transform="translate(-133.369 -326.356)" fill="#ffd478"/>
        <path id="Path_1169004" data-name="Path 1169004" d="M383.753,37.5h-3.5V41h3.5a1.751,1.751,0,1,0,0-3.5Z" transform="translate(-335.851 -33.121)" fill="#ffbb6e"/>
        <path id="Path_1169005" data-name="Path 1169005" d="M122.772,39.251A1.751,1.751,0,0,0,121.02,37.5H88.5a1.751,1.751,0,0,0,0,3.5H121.02A1.751,1.751,0,0,0,122.772,39.251Z" transform="translate(-76.621 -33.121)" fill="#ffd478"/>
        <path id="Path_1169006" data-name="Path 1169006" d="M428.753,474.5h-3.5l3.5,3.5h3.5A3.5,3.5,0,0,0,428.753,474.5Z" transform="translate(-375.596 -419.096)" fill="#ffd478"/>
        <path id="Path_1169007" data-name="Path 1169007" d="M73.28,474.5H30.253a3.5,3.5,0,0,0-3.5,3.5H76.783A3.5,3.5,0,0,0,73.28,474.5Z" transform="translate(-23.627 -419.096)" fill="#ffe7ad"/>
        <circle id="Ellipse_14451" data-name="Ellipse 14451" cx="5.254" cy="5.254" r="5.254" transform="translate(24.637 0.876)" fill="#ffe7ad"/>
        <circle id="Ellipse_14452" data-name="Ellipse 14452" cx="1.751" cy="1.751" r="1.751" transform="translate(28.14 4.379)" fill="#ffd478"/>
        <circle id="Ellipse_14453" data-name="Ellipse 14453" cx="1.751" cy="1.751" r="1.751" transform="translate(10.129 7.882)" fill="#ffe7ad"/>
        <circle id="Ellipse_14454" data-name="Ellipse 14454" cx="1.751" cy="1.751" r="1.751" transform="translate(46.151 7.882)" fill="#ffe7ad"/>
        <path id="Path_1169008" data-name="Path 1169008" d="M36.022,34.387a6.137,6.137,0,0,0,6.13,6.13h11.5a6.137,6.137,0,0,0,6.13-6.13.877.877,0,0,0-.086-.378L49.143,11.948a2.624,2.624,0,0,0,.716-4.067A2.626,2.626,0,0,0,47.9,3.5H35.429a6.128,6.128,0,0,0-11.075,0H11.881A2.626,2.626,0,0,0,9.925,7.882a2.624,2.624,0,0,0,.716,4.067L.086,34.009A.877.877,0,0,0,0,34.387a6.137,6.137,0,0,0,6.13,6.13h11.5a6.137,6.137,0,0,0,6.13-6.13.877.877,0,0,0-.086-.378L13.121,11.948a2.625,2.625,0,0,0,1.236-3.191h10a6.154,6.154,0,0,0,1.159,1.657v3.748a2.627,2.627,0,0,0,0,4.953V42.268h-6.13a2.627,2.627,0,0,0-.876,5.1v1.9H11.881a.875.875,0,0,0-.729.39l-2.531,3.8a2.392,2.392,0,0,1-1.994,1.067,4.384,4.384,0,0,0-4.379,4.379.876.876,0,0,0,.876.876H56.659a.876.876,0,0,0,.876-.876,4.384,4.384,0,0,0-4.379-4.379,2.392,2.392,0,0,1-1.994-1.067l-2.531-3.8a.876.876,0,0,0-.729-.39H41.276v-1.9a2.627,2.627,0,0,0-.876-5.1H34.27V19.115a2.627,2.627,0,0,0,0-4.953V10.414a6.157,6.157,0,0,0,1.159-1.657h10a2.625,2.625,0,0,0,1.236,3.191L36.107,34.009A.876.876,0,0,0,36.022,34.387Zm17.631,4.379h-11.5a4.385,4.385,0,0,1-4.29-3.5H57.943A4.386,4.386,0,0,1,53.653,38.765ZM38.287,33.511l9.615-20.1,9.615,20.1Zm-26.406-20.1,9.615,20.1H2.265Zm5.751,25.352H6.13a4.385,4.385,0,0,1-4.29-3.5H21.921A4.386,4.386,0,0,1,17.631,38.765ZM12.756,9.633a.876.876,0,1,1-.876-.876A.877.877,0,0,1,12.756,9.633Zm-.876-2.627a.876.876,0,1,1,0-1.751H23.825a6.068,6.068,0,0,0,0,1.751Zm15.384,7.006V11.667a6.119,6.119,0,0,0,5.254,0v2.344Zm28.369,44.02H4.149A2.632,2.632,0,0,1,6.626,56.28h46.53A2.632,2.632,0,0,1,55.634,58.031Zm-5.929-3.6c.022.033.046.064.068.1H10.01c.023-.032.046-.063.068-.1l2.271-3.407H47.434ZM41.276,44.9a.877.877,0,0,1-.876.876H22.886a.876.876,0,1,0,0,1.751H39.524v1.751H20.258V46.647a.876.876,0,0,0-.876-.876.876.876,0,0,1,0-1.751H40.4A.877.877,0,0,1,41.276,44.9ZM27.264,42.268v-23h5.254v23Zm6.13-24.754H26.389a.876.876,0,0,1,0-1.751h7.006a.876.876,0,1,1,0,1.751Zm-3.5-7.006A4.379,4.379,0,1,1,34.27,6.13,4.384,4.384,0,0,1,29.891,10.509Zm6.067-5.254H47.9a.876.876,0,0,1,0,1.751H35.958a6.069,6.069,0,0,0,0-1.751Zm12.82,4.379a.876.876,0,1,1-.876-.876A.877.877,0,0,1,48.778,9.633Z"/>
        <path id="Path_1169009" data-name="Path 1169009" d="M236.127,30a2.627,2.627,0,1,0,2.627,2.627A2.63,2.63,0,0,0,236.127,30Zm0,3.5a.876.876,0,1,1,.876-.876A.877.877,0,0,1,236.127,33.5Z" transform="translate(-206.236 -26.497)"/>
      </g>
    </g>
  </g>
</svg>
