<svg xmlns="http://www.w3.org/2000/svg" xmlns:xlink="http://www.w3.org/1999/xlink" width="108" height="108" viewBox="0 0 108 108">
  <defs>
    <filter id="Path_978624" x="0" y="0" width="108" height="108" filterUnits="userSpaceOnUse">
      <feOffset dy="3" input="SourceAlpha"/>
      <feGaussianBlur stdDeviation="3" result="blur"/>
      <feFlood flood-opacity="0.161"/>
      <feComposite operator="in" in2="blur"/>
      <feComposite in="SourceGraphic"/>
    </filter>
    <filter id="Path_1076716" x="0" y="0" width="108" height="108" filterUnits="userSpaceOnUse">
      <feOffset dy="3" input="SourceAlpha"/>
      <feGaussianBlur stdDeviation="3" result="blur-2"/>
      <feFlood flood-opacity="0.161"/>
      <feComposite operator="in" in2="blur-2"/>
      <feComposite in="SourceGraphic"/>
    </filter>
  </defs>
  <g id="Group_1223186" data-name="Group 1223186" transform="translate(-196 -2340)">
    <g id="Group_1222877" data-name="Group 1222877">
      <g id="Group_1220538" data-name="Group 1220538" transform="translate(0 -5055.115)">
        <g id="Group_1208503" data-name="Group 1208503" transform="translate(-420 6909.115)">
          <g id="Group_1200660" data-name="Group 1200660">
            <g id="Group_1181203" data-name="Group 1181203" transform="translate(625 492)">
              <g id="Group_1172348" data-name="Group 1172348" transform="translate(0)">
                <g id="Group_1171897" data-name="Group 1171897">
                  <g id="Group_1171052" data-name="Group 1171052">
                    <g id="Group_1164581" data-name="Group 1164581">
                      <g id="Group_1144123" data-name="Group 1144123">
                        <g transform="matrix(1, 0, 0, 1, -9, -6)" filter="url(#Path_978624)">
                          <g id="Path_978624-2" data-name="Path 978624" transform="translate(9 6)" fill="#fcf5f0">
                            <path d="M 45 88.5 C 39.12687683105469 88.5 33.43022537231445 87.35007476806641 28.06830024719238 85.08217620849609 C 22.88852500915527 82.89131164550781 18.23629951477051 79.75458526611328 14.2408504486084 75.75914764404297 C 10.24541282653809 71.76370239257812 7.108687400817871 67.11147308349609 4.917825222015381 61.93170166015625 C 2.649924993515015 56.56977462768555 1.5 50.87312316894531 1.5 45 C 1.5 39.12687683105469 2.649924993515015 33.43022537231445 4.917825222015381 28.06830024719238 C 7.108687400817871 22.88852500915527 10.24541282653809 18.23629951477051 14.2408504486084 14.2408504486084 C 18.23629951477051 10.24541282653809 22.88852500915527 7.108687400817871 28.06830024719238 4.917825222015381 C 33.43022537231445 2.649924993515015 39.12687683105469 1.5 45 1.5 C 50.87312316894531 1.5 56.56977462768555 2.649924993515015 61.93170166015625 4.917825222015381 C 67.11147308349609 7.108687400817871 71.76370239257812 10.24541282653809 75.75914764404297 14.2408504486084 C 79.75458526611328 18.23629951477051 82.89131164550781 22.88852500915527 85.08217620849609 28.06830024719238 C 87.35007476806641 33.43022537231445 88.5 39.12687683105469 88.5 45 C 88.5 50.87312316894531 87.35007476806641 56.56977462768555 85.08217620849609 61.93170166015625 C 82.89131164550781 67.11147308349609 79.75458526611328 71.76370239257812 75.75914764404297 75.75914764404297 C 71.76370239257812 79.75458526611328 67.11147308349609 82.89131164550781 61.93170166015625 85.08217620849609 C 56.56977462768555 87.35007476806641 50.87312316894531 88.5 45 88.5 Z" stroke="none"/>
                            <path d="M 45 3 C 39.32871246337891 3 33.82865524291992 4.110054016113281 28.65262985229492 6.299339294433594 C 23.65165710449219 8.414573669433594 19.15968322753906 11.44334411621094 15.301513671875 15.301513671875 C 11.44334411621094 19.15968322753906 8.414573669433594 23.65165710449219 6.299339294433594 28.65262985229492 C 4.110054016113281 33.82865524291992 3 39.32871246337891 3 45 C 3 50.67128753662109 4.110054016113281 56.17134475708008 6.299339294433594 61.34737396240234 C 8.414573669433594 66.34834289550781 11.44334411621094 70.84031677246094 15.301513671875 74.698486328125 C 19.15968322753906 78.55665588378906 23.65165710449219 81.58542633056641 28.65262985229492 83.70066070556641 C 33.82865524291992 85.88994598388672 39.32871246337891 87 45 87 C 50.67128753662109 87 56.17134475708008 85.88994598388672 61.34737396240234 83.70066070556641 C 66.34834289550781 81.58542633056641 70.84031677246094 78.55665588378906 74.698486328125 74.698486328125 C 78.55665588378906 70.84031677246094 81.58542633056641 66.34834289550781 83.70066070556641 61.34737396240234 C 85.88994598388672 56.17134475708008 87 50.67128753662109 87 45 C 87 39.32871246337891 85.88994598388672 33.82865524291992 83.70066070556641 28.65262985229492 C 81.58542633056641 23.65165710449219 78.55665588378906 19.15968322753906 74.698486328125 15.301513671875 C 70.84031677246094 11.44334411621094 66.34834289550781 8.414573669433594 61.34737396240234 6.299339294433594 C 56.17134475708008 4.110054016113281 50.67128753662109 3 45 3 M 45 0 C 69.85281372070312 0 90 20.14718627929688 90 45 C 90 69.85281372070312 69.85281372070312 90 45 90 C 20.14718627929688 90 0 69.85281372070312 0 45 C 0 20.14718627929688 20.14718627929688 0 45 0 Z" stroke="none" fill="#eca675"/>
                          </g>
                        </g>
                        <g transform="matrix(1, 0, 0, 1, -9, -6)" filter="url(#Path_1076716)">
                          <g id="Path_1076716-2" data-name="Path 1076716" transform="translate(9 6)" fill="#fcf5f0">
                            <path d="M 45 88.5 C 39.12687683105469 88.5 33.43022537231445 87.35007476806641 28.06830024719238 85.08217620849609 C 22.88852500915527 82.89131164550781 18.23629951477051 79.75458526611328 14.2408504486084 75.75914764404297 C 10.24541282653809 71.76370239257812 7.108687400817871 67.11147308349609 4.917825222015381 61.93170166015625 C 2.649924993515015 56.56977462768555 1.5 50.87312316894531 1.5 45 C 1.5 39.12687683105469 2.649924993515015 33.43022537231445 4.917825222015381 28.06830024719238 C 7.108687400817871 22.88852500915527 10.24541282653809 18.23629951477051 14.2408504486084 14.2408504486084 C 18.23629951477051 10.24541282653809 22.88852500915527 7.108687400817871 28.06830024719238 4.917825222015381 C 33.43022537231445 2.649924993515015 39.12687683105469 1.5 45 1.5 C 50.87312316894531 1.5 56.56977462768555 2.649924993515015 61.93170166015625 4.917825222015381 C 67.11147308349609 7.108687400817871 71.76370239257812 10.24541282653809 75.75914764404297 14.2408504486084 C 79.75458526611328 18.23629951477051 82.89131164550781 22.88852500915527 85.08217620849609 28.06830024719238 C 87.35007476806641 33.43022537231445 88.5 39.12687683105469 88.5 45 C 88.5 50.87312316894531 87.35007476806641 56.56977462768555 85.08217620849609 61.93170166015625 C 82.89131164550781 67.11147308349609 79.75458526611328 71.76370239257812 75.75914764404297 75.75914764404297 C 71.76370239257812 79.75458526611328 67.11147308349609 82.89131164550781 61.93170166015625 85.08217620849609 C 56.56977462768555 87.35007476806641 50.87312316894531 88.5 45 88.5 Z" stroke="none"/>
                            <path d="M 45 3 C 39.32871246337891 3 33.82865524291992 4.110054016113281 28.65262985229492 6.299339294433594 C 23.65165710449219 8.414573669433594 19.15968322753906 11.44334411621094 15.301513671875 15.301513671875 C 11.44334411621094 19.15968322753906 8.414573669433594 23.65165710449219 6.299339294433594 28.65262985229492 C 4.110054016113281 33.82865524291992 3 39.32871246337891 3 45 C 3 50.67128753662109 4.110054016113281 56.17134475708008 6.299339294433594 61.34737396240234 C 8.414573669433594 66.34834289550781 11.44334411621094 70.84031677246094 15.301513671875 74.698486328125 C 19.15968322753906 78.55665588378906 23.65165710449219 81.58542633056641 28.65262985229492 83.70066070556641 C 33.82865524291992 85.88994598388672 39.32871246337891 87 45 87 C 50.67128753662109 87 56.17134475708008 85.88994598388672 61.34737396240234 83.70066070556641 C 66.34834289550781 81.58542633056641 70.84031677246094 78.55665588378906 74.698486328125 74.698486328125 C 78.55665588378906 70.84031677246094 81.58542633056641 66.34834289550781 83.70066070556641 61.34737396240234 C 85.88994598388672 56.17134475708008 87 50.67128753662109 87 45 C 87 39.32871246337891 85.88994598388672 33.82865524291992 83.70066070556641 28.65262985229492 C 81.58542633056641 23.65165710449219 78.55665588378906 19.15968322753906 74.698486328125 15.301513671875 C 70.84031677246094 11.44334411621094 66.34834289550781 8.414573669433594 61.34737396240234 6.299339294433594 C 56.17134475708008 4.110054016113281 50.67128753662109 3 45 3 M 45 0 C 69.85281372070312 0 90 20.14718627929688 90 45 C 90 69.85281372070312 69.85281372070312 90 45 90 C 20.14718627929688 90 0 69.85281372070312 0 45 C 0 20.14718627929688 20.14718627929688 0 45 0 Z" stroke="none" fill="#eca675"/>
                          </g>
                        </g>
                      </g>
                    </g>
                  </g>
                </g>
              </g>
            </g>
          </g>
        </g>
      </g>
      <g id="responsabilidad_3_" data-name="responsabilidad (3)" transform="translate(214.311 2366.231)">
        <g id="Group_1222875" data-name="Group 1222875" transform="translate(2.109 2.109)">
          <g id="Group_1222855" data-name="Group 1222855" transform="translate(0)">
            <path id="Path_1174959" data-name="Path 1174959" d="M27.511,24.183H3.109A1.11,1.11,0,0,1,2,23.074V3.109A1.11,1.11,0,0,1,3.109,2h24.4A1.11,1.11,0,0,1,28.62,3.109V23.074A1.11,1.11,0,0,1,27.511,24.183Z" transform="translate(-2 -2)" fill="#e6e9ed"/>
          </g>
          <g id="Group_1222856" data-name="Group 1222856" transform="translate(6.655 13.31)">
            <path id="Path_1174960" data-name="Path 1174960" d="M8,14h4.437v4.437H8Z" transform="translate(-8 -14)" fill="#b4dd7f"/>
          </g>
          <g id="Group_1222857" data-name="Group 1222857" transform="translate(11.092 8.873)">
            <path id="Path_1174961" data-name="Path 1174961" d="M16.437,10v8.873H12V10Z" transform="translate(-12 -10)" fill="#b4dd7f"/>
          </g>
          <g id="Group_1222858" data-name="Group 1222858" transform="translate(15.528 4.437)">
            <path id="Path_1174962" data-name="Path 1174962" d="M17.42,16.67l-1.209,2.662-.067-.022H16V6h4.437v8.152A7.693,7.693,0,0,0,17.42,16.67Z" transform="translate(-16 -6)" fill="#b4dd7f"/>
          </g>
          <g id="Group_1222859" data-name="Group 1222859" transform="translate(46.311 0.061)">
            <circle id="Ellipse_14621" data-name="Ellipse 14621" cx="10.089" cy="10.089" r="10.089" transform="translate(0)" fill="#69d6f4"/>
          </g>
          <g id="Group_1222860" data-name="Group 1222860" transform="translate(15.528 7.764)">
            <path id="Path_1174963" data-name="Path 1174963" d="M51.438,19.482a3.193,3.193,0,0,1,.055.654,20.846,20.846,0,0,1-.8,4.991c-.41,1.486-.81,2.584-.81,2.584l-.288.843-.011.011a4.375,4.375,0,0,0-3.572-1.819H44.838V24.872a4.769,4.769,0,0,0-4.758-4.781c-7.919,0-9.506,5.058-17.425,6.655H21.546a4.431,4.431,0,0,0-3.682,1.963l-.255-.987-1.165-4.3-.211-.765A7.613,7.613,0,0,1,16,20.779,7.2,7.2,0,0,1,16.211,19l1.209-2.662a7.693,7.693,0,0,1,3.017-2.518,5.884,5.884,0,0,1,.721-.311l5.934-2.13L31.772,9.71A12.14,12.14,0,0,1,35.843,9a12.009,12.009,0,0,1,5.335,1.242A11.751,11.751,0,0,1,45.393,13.7l1.264,1.664a4.914,4.914,0,0,1,1.409.2c.078.033.166.055.244.089a4.774,4.774,0,0,1,3.128,3.827Z" transform="translate(-16 -9)" fill="#b27946"/>
          </g>
          <g id="Group_1222861" data-name="Group 1222861" transform="translate(0 41.039)">
            <path id="Path_1174964" data-name="Path 1174964" d="M14.2,40.109a3.774,3.774,0,0,1-.244,5.568l-5.3,4.414-5.3-4.414A3.781,3.781,0,0,1,5.782,39h.2a3.788,3.788,0,0,1,2.673,1.109A3.788,3.788,0,0,1,11.328,39h.2A3.788,3.788,0,0,1,14.2,40.109Z" transform="translate(-2 -39)" fill="#ff826e"/>
          </g>
          <g id="Group_1222862" data-name="Group 1222862" transform="translate(44.367 35.493)">
            <path id="Path_1174965" data-name="Path 1174965" d="M53.458,56.183a16.633,16.633,0,0,0-9.683-8.208c-.421-.133-.854-.255-1.287-.355l-.211-.044A11.447,11.447,0,0,1,42,45.092,11.092,11.092,0,1,1,53.458,56.183Z" transform="translate(-42 -34)" fill="#fcd770"/>
          </g>
          <g id="Group_1222863" data-name="Group 1222863" transform="translate(8.873 49.469)">
            <path id="Path_1174966" data-name="Path 1174966" d="M30.664,59.866l2.629,3.816H10V62.439A16.653,16.653,0,0,1,21.535,46.6l4.4,6.389Z" transform="translate(-10 -46.6)" fill="#838f9b"/>
          </g>
          <g id="Group_1222864" data-name="Group 1222864" transform="translate(34.384 49.469)">
            <path id="Path_1174967" data-name="Path 1174967" d="M40.354,52.989l4.4-6.389A16.64,16.64,0,0,1,56.293,62.439v1.242H33l2.629-3.816Z" transform="translate(-33 -46.6)" fill="#838f9b"/>
          </g>
          <g id="Group_1222865" data-name="Group 1222865" transform="translate(28.838 51.022)">
            <path id="Path_1174968" data-name="Path 1174968" d="M36.873,50.529l-2.218,4.126H30.218L28,50.529,32.437,48Z" transform="translate(-28 -48)" fill="#fcd770"/>
          </g>
          <g id="Group_1222866" data-name="Group 1222866" transform="translate(29.537 57.677)">
            <path id="Path_1174969" data-name="Path 1174969" d="M34.586,54l1.52,5.058-2.629,3.816H31.259L28.63,59.058,30.15,54Z" transform="translate(-28.63 -54)" fill="#fcd770"/>
          </g>
          <g id="Group_1222867" data-name="Group 1222867" transform="translate(24.812 53.551)">
            <path id="Path_1174970" data-name="Path 1174970" d="M28.4,50.28l2.218,4.126L29.1,59.464,24.37,52.587Z" transform="translate(-24.37 -50.28)" fill="#ccd1d9"/>
          </g>
          <g id="Group_1222868" data-name="Group 1222868" transform="translate(35.493 53.551)">
            <path id="Path_1174971" data-name="Path 1174971" d="M40.245,52.587,35.52,59.464,34,54.406l2.218-4.126Z" transform="translate(-34 -50.28)" fill="#ccd1d9"/>
          </g>
          <g id="Group_1222869" data-name="Group 1222869" transform="translate(33.275 47.694)">
            <path id="Path_1174972" data-name="Path 1174972" d="M43.369,46.375l.211.044c.433.1.865.222,1.287.355l-4.4,6.389-4.026-2.307L32,48.328,37.546,45Z" transform="translate(-32 -45)" fill="#e6e9ed"/>
          </g>
          <g id="Group_1222870" data-name="Group 1222870" transform="translate(20.409 47.694)">
            <path id="Path_1174973" data-name="Path 1174973" d="M33.266,48.328,28.83,50.856,24.8,53.163l-4.4-6.389c.421-.133.854-.255,1.287-.355L27.721,45Z" transform="translate(-20.4 -45)" fill="#e6e9ed"/>
          </g>
          <g id="Group_1222871" data-name="Group 1222871" transform="translate(27.729 43.335)">
            <path id="Path_1174974" data-name="Path 1174974" d="M37.215,41.07l.876,4.359-5.546,3.328L27,45.429l.876-4.359a11.085,11.085,0,0,0,9.339,0Z" transform="translate(-27 -41.07)" fill="#f0d0b4"/>
          </g>
          <g id="Group_1222872" data-name="Group 1222872" transform="translate(44.311 25.511)">
            <path id="Path_1174975" data-name="Path 1174975" d="M43.181,25a4.458,4.458,0,0,1,4.437,4.437,4.431,4.431,0,0,1-4.437,4.437H42.005l-.055-.011c.033-.388.055-.776.055-1.165V25h1.176Z" transform="translate(-41.95 -25)" fill="#f0d0b4"/>
          </g>
          <g id="Group_1222873" data-name="Group 1222873" transform="translate(16.638 25.511)">
            <path id="Path_1174976" data-name="Path 1174976" d="M22.546,25v7.7c0,.4.022.788.055,1.176H21.437a4.437,4.437,0,0,1,0-8.873h1.076Z" transform="translate(-17 -25)" fill="#f0d0b4"/>
          </g>
          <g id="Group_1222874" data-name="Group 1222874" transform="translate(22.183 18.856)">
            <path id="Path_1174977" data-name="Path 1174977" d="M22.055,34.528c-.033-.388-.055-.776-.055-1.176v-7.7C29.919,24.058,31.506,19,39.425,19a4.769,4.769,0,0,1,4.758,4.781v9.572c0,.388-.022.776-.055,1.165a11.091,11.091,0,0,1-22.072.011Z" transform="translate(-22 -19)" fill="#f0d0b4"/>
          </g>
        </g>
        <g id="Group_1222876" data-name="Group 1222876" transform="translate(1 1)">
          <path id="Path_1174978" data-name="Path 1174978" d="M16.528,42.889a4.923,4.923,0,0,0-1.44-3.462A4.85,4.85,0,0,0,11.639,38h-.205a4.814,4.814,0,0,0-2.665.8A4.842,4.842,0,0,0,6.093,38h-.2a4.857,4.857,0,0,0-3.46,1.439,4.88,4.88,0,0,0,.326,7.2l6.008,5.007,6.008-5.008a4.867,4.867,0,0,0,1.756-3.748Zm-3.176,2.044L8.764,48.757,4.177,44.935a2.657,2.657,0,0,1-.958-2.045A2.687,2.687,0,0,1,4.007,41a2.649,2.649,0,0,1,1.882-.78h.205a2.629,2.629,0,0,1,1.847.742l.786.863L9.554,41a2.645,2.645,0,0,1,1.881-.78h.205a2.668,2.668,0,0,1,1.713,4.715Z" transform="translate(-1 3.039)"/>
          <ellipse id="Ellipse_14622" data-name="Ellipse 14622" cx="1.513" cy="1.009" rx="1.513" ry="1.009" transform="translate(38.339 30.429)"/>
          <ellipse id="Ellipse_14623" data-name="Ellipse 14623" cx="1.513" cy="1.009" rx="1.513" ry="1.009" transform="translate(27.241 30.429)"/>
          <path id="Path_1174979" data-name="Path 1174979" d="M38.211,33.928l.167-.336L36.395,32.6l-.167.336a4.039,4.039,0,0,1-7.227,0l-.17-.336-1.984.993.167.336a6.258,6.258,0,0,0,11.2,0Z" transform="translate(1.822 2.45)"/>
          <path id="Path_1174980" data-name="Path 1174980" d="M57.568,36.493a12.215,12.215,0,0,0-12.2,12.2c0,.344.029.685.058,1.027l-3.546-.834-.57-2.854A12.3,12.3,0,0,0,47.366,37.6h.285A5.552,5.552,0,0,0,53.2,32.057a5.48,5.48,0,0,0-.753-2.74l.116-.349a31.328,31.328,0,0,0,1.619-6.757,11.08,11.08,0,1,0-6.594-10.119,10.936,10.936,0,0,0,.129,1.585A13.129,13.129,0,0,0,33.035,9.537l-3.2,1.147V3.218A2.221,2.221,0,0,0,27.62,1H3.218A2.221,2.221,0,0,0,1,3.218V23.183A2.221,2.221,0,0,0,3.218,25.4H17.232l.943,3.466.145.58a5.48,5.48,0,0,0-.682,2.609A5.552,5.552,0,0,0,23.183,37.6H23.4a12.3,12.3,0,0,0,6.057,8.431l-.57,2.854-5.335,1.256A17.678,17.678,0,0,0,9.873,67.417v2.351H60.9V67.417a17.779,17.779,0,0,0-1.317-6.7,12.193,12.193,0,0,0-2.011-24.22ZM46.447,52.241,43.516,56.5l-5.937-3.393,3.536-2.122ZM35.384,54.424l.013-.008,2.932,1.675-1.39,2.585h-3.11l-1.39-2.585,2.932-1.675Zm-4.871,2.768,1.459,2.715-.721,2.4-2.736-3.975Zm2.351,7.46L33.991,60.9h2.786L37.9,64.653l-1.994,2.9H34.859Zm6.654-2.344-.721-2.4,1.459-2.715,2,1.141Zm8.131-26.925h-.068c0-.023,0-.045,0-.07V28.729h.064a3.328,3.328,0,1,1,0,6.655Zm7.7-23.293a10.85,10.85,0,0,1,.55-3.328h5.557A10.866,10.866,0,0,1,62,12.092a10.85,10.85,0,0,1-.55,3.328H55.9A10.866,10.866,0,0,1,55.349,12.092Zm1.49-5.546a16.859,16.859,0,0,1,1.84-2.774,16.636,16.636,0,0,1,1.842,2.774Zm3.676,11.092a16.859,16.859,0,0,1-1.84,2.774,16.567,16.567,0,0,1-1.842-2.774ZM56,20.549a8.819,8.819,0,0,1-1.943-.906,5.79,5.79,0,0,0-.922-2h1.232A17.989,17.989,0,0,0,56,20.549Zm5.351,0a17.935,17.935,0,0,0,1.635-2.914h2.607a8.9,8.9,0,0,1-4.241,2.914ZM66.9,15.419H63.775a12.579,12.579,0,0,0,0-6.655H66.9a8.8,8.8,0,0,1,0,6.655Zm-1.3-8.873H62.986a17.77,17.77,0,0,0-1.635-2.914,8.9,8.9,0,0,1,4.241,2.914ZM56,3.632a17.853,17.853,0,0,0-1.635,2.914H51.761A8.9,8.9,0,0,1,56,3.632ZM50.457,8.764h3.122a12.579,12.579,0,0,0,0,6.655h-3.1a8.692,8.692,0,0,1-.018-6.655ZM33.784,11.626a10.934,10.934,0,0,1,12.363,3.626l1.594,2.1h.55a3.7,3.7,0,0,1,3.731,3.665,23.924,23.924,0,0,1-1.29,6.438,5.5,5.5,0,0,0-3.082-.941h-.064v-.763a5.884,5.884,0,0,0-5.863-5.892c-4.664,0-7.374,1.691-9.995,3.329a21.506,21.506,0,0,1-7.561,3.326h-.983a5.516,5.516,0,0,0-3.108.956l-1.128-4.213a6.493,6.493,0,0,1-.2-1.6,6.648,6.648,0,0,1,4.423-6.22ZM12.092,18.747H9.873V16.528h2.218Zm8.873-4.71a8.9,8.9,0,0,0-2.218,1.83V7.655h2.218Zm-4.437,4.71H14.31V12.092h2.218ZM3.218,3.218h24.4v8.261l-4.437,1.592V5.437H16.528V9.873H12.092V14.31H7.655v6.655h8.928c-.018.23-.054.455-.054.688a8.816,8.816,0,0,0,.152,1.531H3.218ZM23.183,35.384a3.328,3.328,0,1,1,0-6.655v6.586c0,.023,0,.045,0,.07h0Zm2.218-.069V28.509a24.319,24.319,0,0,0,7.5-3.442c2.572-1.606,4.793-2.993,8.82-2.993a3.664,3.664,0,0,1,3.645,3.675v9.567a9.983,9.983,0,1,1-19.965,0Zm9.983,12.27a12.089,12.089,0,0,0,3.844-.633l.46,2.3-4.3,2.583-4.3-2.583.46-2.3A12.088,12.088,0,0,0,35.384,47.585Zm-5.73,3.4,3.536,2.122L27.253,56.5l-2.932-4.259ZM12.092,67.417a15.45,15.45,0,0,1,10-14.5L32.164,67.55H12.092Zm46.585.133H38.6L48.677,52.918a15.451,15.451,0,0,1,10,14.5Zm-.105-8.932a17.478,17.478,0,0,0-1.444-2.16h1.55V54.24H60.9V50.913a3.332,3.332,0,0,0-3.328-3.328,1.11,1.11,0,0,1-1.109-1.109V45.367h1.109a1.11,1.11,0,0,1,1.109,1.109v1.109H60.9V46.476a3.323,3.323,0,0,0-2.218-3.123V40.93H56.459v2.218H54.24v3.328A3.332,3.332,0,0,0,57.568,49.8a1.11,1.11,0,0,1,1.109,1.109v1.109H57.568a1.11,1.11,0,0,1-1.109-1.109V49.8H54.24v1.109a3.323,3.323,0,0,0,2.218,3.123v1.636a17.69,17.69,0,0,0-8.731-5.385,9.976,9.976,0,1,1,10.844,8.331Z" transform="translate(-1 -1)"/>
        </g>
      </g>
    </g>
  </g>
</svg>
