<svg xmlns="http://www.w3.org/2000/svg" xmlns:xlink="http://www.w3.org/1999/xlink" width="110" height="110" viewBox="0 0 110 110">
  <defs>
    <filter id="Path_982547" x="0" y="0" width="110" height="110" filterUnits="userSpaceOnUse">
      <feOffset dy="3" input="SourceAlpha"/>
      <feGaussianBlur stdDeviation="3" result="blur"/>
      <feFlood flood-opacity="0.161"/>
      <feComposite operator="in" in2="blur"/>
      <feComposite in="SourceGraphic"/>
    </filter>
  </defs>
  <g id="Group_1223237" data-name="Group 1223237" transform="translate(-10201.001 -1981.434)">
    <g id="Group_1223137" data-name="Group 1223137" transform="translate(0 222.188)">
      <g id="Group_1222273" data-name="Group 1222273" transform="translate(9824.001 -9570.727)">
        <g id="Group_1214724" data-name="Group 1214724" transform="translate(386 11335.972)">
          <g id="Group_1200150" data-name="Group 1200150" transform="translate(0 0)">
            <g id="Group_1185951" data-name="Group 1185951" transform="translate(0 0)">
              <g id="Group_1184083" data-name="Group 1184083" transform="translate(0 0)">
                <g id="Group_1183743" data-name="Group 1183743">
                  <g id="Group_1181545" data-name="Group 1181545">
                    <g id="Group_1177562" data-name="Group 1177562">
                      <g id="Group_1173147" data-name="Group 1173147">
                        <g id="Group_1163801" data-name="Group 1163801">
                          <g id="Group_1163014" data-name="Group 1163014">
                            <g id="Group_1157015" data-name="Group 1157015">
                              <g id="Group_1155792" data-name="Group 1155792">
                                <g id="Group_1154703" data-name="Group 1154703">
                                  <g id="Group_1150789" data-name="Group 1150789">
                                    <g id="Group_1154212" data-name="Group 1154212">
                                      <g id="Group_1152583" data-name="Group 1152583">
                                        <g id="Group_1146973" data-name="Group 1146973">
                                          <g id="Group_1146954" data-name="Group 1146954">
                                            <g transform="matrix(1, 0, 0, 1, -9, -6)" filter="url(#Path_982547)">
                                              <g id="Path_982547-2" data-name="Path 982547" transform="translate(9 6)" fill="#f9e3d4">
                                                <path d="M 46 90.49986267089844 C 39.99187850952148 90.49986267089844 34.16426849365234 89.32350158691406 28.67905426025391 87.00344848632812 C 23.38021278381348 84.76223754882812 18.62104034423828 81.55340576171875 14.53376007080078 77.46612548828125 C 10.44646644592285 73.37884521484375 7.237653255462646 68.61968994140625 4.996426582336426 63.32084655761719 C 2.676373243331909 57.83563232421875 1.50001335144043 52.00803375244141 1.50001335144043 45.99992752075195 C 1.50001335144043 39.9918212890625 2.676373243331909 34.16422271728516 4.996426582336426 28.67900657653809 C 7.237653255462646 23.38016700744629 10.44646644592285 18.62100791931152 14.53376007080078 14.53372764587402 C 18.62104034423828 10.44644737243652 23.38021278381348 7.237634181976318 28.67905426025391 4.996420860290527 C 34.16426849365234 2.676367521286011 39.99187850952148 1.500007510185242 46 1.500007510185242 C 52.00812149047852 1.500007510185242 57.83572006225586 2.676367521286011 63.32094573974609 4.996420860290527 C 68.61978912353516 7.237634181976318 73.37895965576172 10.44646072387695 77.46623992919922 14.53372764587402 C 81.55353546142578 18.62100791931152 84.76235961914062 23.38016700744629 87.00358581542969 28.67900657653809 C 89.32363891601562 34.16422271728516 90.5 39.9918212890625 90.5 45.99992752075195 C 90.5 52.00803375244141 89.32363891601562 57.83563232421875 87.00358581542969 63.32084655761719 C 84.76235961914062 68.61968994140625 81.55353546142578 73.37884521484375 77.46623992919922 77.46612548828125 C 73.37895965576172 81.55340576171875 68.61978912353516 84.76223754882812 63.32094573974609 87.00344848632812 C 57.83572006225586 89.32350158691406 52.00812149047852 90.49986267089844 46 90.49986267089844 Z" stroke="none"/>
                                                <path d="M 46 3 C 40.1937141418457 3 34.56269836425781 4.136497497558594 29.26338577270508 6.377914428710938 C 24.14332580566406 8.543510437011719 19.54442596435547 11.64438629150391 15.59441375732422 15.59438323974609 C 11.64440155029297 19.54439544677734 8.543525695800781 24.14329528808594 6.3779296875 29.26333999633789 C 4.136497497558594 34.56265640258789 3 40.19365692138672 3 45.99992752075195 C 3 51.80619812011719 4.136497497558594 57.43719863891602 6.3779296875 62.73651123046875 C 8.543525695800781 67.85655212402344 11.64440155029297 72.45545959472656 15.59441375732422 76.40547180175781 C 19.54442596435547 80.35546875 24.14332580566406 83.45634460449219 29.26338577270508 85.62194061279297 C 34.56269836425781 87.86335754394531 40.1937141418457 88.99985504150391 46 88.99985504150391 C 51.8062858581543 88.99985504150391 57.43728637695312 87.86335754394531 62.73661422729492 85.62194061279297 C 67.85665893554688 83.45634460449219 72.45557403564453 80.35546875 76.40558624267578 76.40547180175781 C 80.35559844970703 72.45545959472656 83.45647430419922 67.85655212402344 85.6220703125 62.73651123046875 C 87.86348724365234 57.43719863891602 88.99998474121094 51.80619812011719 88.99998474121094 45.99992752075195 C 88.99998474121094 40.19365692138672 87.86348724365234 34.56265640258789 85.6220703125 29.26333999633789 C 83.45647430419922 24.14329528808594 80.35559844970703 19.54439544677734 76.40558624267578 15.59438323974609 C 72.45557403564453 11.64438629150391 67.85665893554688 8.543510437011719 62.73661422729492 6.377914428710938 C 57.43728637695312 4.136497497558594 51.8062858581543 3 46 3 M 46 0 C 71.40509033203125 0 91.99998474121094 20.59487152099609 91.99998474121094 45.99992752075195 C 91.99998474121094 71.40498352050781 71.40509033203125 91.99985504150391 46 91.99985504150391 C 20.59491729736328 91.99985504150391 0 71.40498352050781 0 45.99992752075195 C 0 20.59487152099609 20.59491729736328 0 46 0 Z" stroke="none" fill="#eca675"/>
                                              </g>
                                            </g>
                                          </g>
                                        </g>
                                      </g>
                                    </g>
                                  </g>
                                </g>
                              </g>
                            </g>
                          </g>
                        </g>
                      </g>
                    </g>
                  </g>
                </g>
              </g>
            </g>
          </g>
        </g>
      </g>
      <g id="decision_1_" data-name="decision (1)" transform="translate(10195.807 1783.536)">
        <g id="Group_1223135" data-name="Group 1223135" transform="translate(23.521 1.08)">
          <path id="Path_1175517" data-name="Path 1175517" d="M221.4,7.5H182.221a2.167,2.167,0,0,0-2.161,2.161V61.81l42.065,1.441,1.441-53.59A2.167,2.167,0,0,0,221.4,7.5Z" transform="translate(-158.434 -7.5)" fill="#e1dee2"/>
          <path id="Path_1175518" data-name="Path 1175518" d="M220.684,24.661v2.161H180.06V77.53H221.4a2.167,2.167,0,0,0,2.161-2.161V22.5h-.72A2.167,2.167,0,0,0,220.684,24.661Z" transform="translate(-158.434 -20.339)" fill="#c5bec6"/>
          <path id="Path_1175519" data-name="Path 1175519" d="M191.4,37.5H152.221a2.167,2.167,0,0,0-2.161,2.161V91.81l42.065,1.441,1.441-53.59A2.167,2.167,0,0,0,191.4,37.5Z" transform="translate(-132.756 -33.178)" fill="#faf8f8"/>
          <path id="Path_1175520" data-name="Path 1175520" d="M190.684,54.661v48.908a1.08,1.08,0,0,1-1.08,1.08H150.06v.72a2.167,2.167,0,0,0,2.161,2.161H191.4a2.167,2.167,0,0,0,2.161-2.161V52.5h-.72A2.167,2.167,0,0,0,190.684,54.661Z" transform="translate(-132.756 -46.017)" fill="#e1dee2"/>
          <path id="Path_1175521" data-name="Path 1175521" d="M68.1,462.31a6.914,6.914,0,0,0-.943-.063H42.921a6.04,6.04,0,0,0-5.425,3.206l33.29,1.441A7.136,7.136,0,0,0,68.1,462.31Z" transform="translate(-36.407 -396.737)" fill="#d09180"/>
          <path id="Path_1175522" data-name="Path 1175522" d="M67.2,468.711s-.876-5.38-5.57-6.023a9.107,9.107,0,0,1,.835,1.691,1.079,1.079,0,0,1-1.015,1.451H31.028a9.344,9.344,0,0,0-1.088,2.881Z" transform="translate(-29.94 -397.114)" fill="#b46e5a"/>
          <path id="Path_1175523" data-name="Path 1175523" d="M299.695,423.5c.363-.628.893-3-.339-3.649-3.341-1.71-11.577-5.725-11.577-5.725l-2.161,1.02v2.723s7.6,5.124,10.747,7.163C297.544,425.771,299.332,424.127,299.695,423.5Z" transform="translate(-248.786 -355.547)" fill="#d09180"/>
          <path id="Path_1175524" data-name="Path 1175524" d="M364.441,454.518c-.216-.125-.65-.353-1.232-.65a5.41,5.41,0,0,1-2.991,5.18c.548.355.963.617,1.179.741a3.043,3.043,0,1,0,3.043-5.271Z" transform="translate(-312.64 -389.565)" fill="#b46e5a"/>
          <path id="Path_1175525" data-name="Path 1175525" d="M237.332,385l-8.49-4.9-2.161,1.091v2.652l8.49,4.9Z" transform="translate(-198.339 -326.421)" fill="#b46e5a"/>
          <path id="Path_1175526" data-name="Path 1175526" d="M0,0H4.322V4.779H0Z" transform="matrix(0.5, -0.866, 0.866, 0.5, 24.202, 55.03)" fill="#a65d4e"/>
          <path id="Path_1175527" data-name="Path 1175527" d="M169.5,345.6s3.043,1.682,2.042,3.416l-2.161,3.743c-1,1.734-3.979-.06-3.979-.06l-2.519-6.186Z" transform="translate(-143.735 -296.891)" fill="#d09180"/>
          <path id="Path_1175528" data-name="Path 1175528" d="M104.985,278.755l-1.78-3.858-8.755.8c-1.084,1.877-1.084,4.917-2.167,6.794s-3.717,3.4-4.8,5.274l3.683,7.983,4.231-.388Z" transform="translate(-79.193 -236.376)" fill="#d09180"/>
          <path id="Path_1175529" data-name="Path 1175529" d="M152,301.676c-1.578,2.559-5.15,4.659-6.64,7.239s-1.522,6.723-2.949,9.37l4.525-.415c1.084-1.877,1.084-4.917,2.167-6.794s3.717-3.4,4.8-5.274Z" transform="translate(-126.213 -259.298)" fill="#b46e5a"/>
          <path id="Path_1175530" data-name="Path 1175530" d="M68.69,399.076c1.963,0,5.83-2.563,5.83-2.563L59.657,390.12a6.108,6.108,0,0,0-.262,3.16c.29,1.081,1.744,2.486,3.589,3.77A13.126,13.126,0,0,0,68.69,399.076Z" transform="translate(-55.055 -335.001)" fill="#d09180"/>
          <path id="Path_1175531" data-name="Path 1175531" d="M90.044,435.993c-1.081.29-3.025-.267-5.059-1.224,3,2.088,7.043,3.856,8.8,3.385a6.131,6.131,0,0,0,2.609-1.8v-2.161H92.653A6.131,6.131,0,0,1,90.044,435.993Z" transform="translate(-77.055 -372.721)" fill="#b46e5a"/>
          <path id="Path_1175532" data-name="Path 1175532" d="M65.573,362.987a1.5,1.5,0,0,0-2.079.557L62.48,365.3a7.364,7.364,0,0,0-.594,1.414l11,6.348,4.439-1.537c.42-.728-.9-2.278-2.905-3.435Z" transform="translate(-57.284 -311.595)" fill="#ebae9d"/>
          <path id="Path_1175533" data-name="Path 1175533" d="M139.75,399.676a1.386,1.386,0,0,1,.41,1.994l-1.014,1.757a7.328,7.328,0,0,1-.929,1.221l3.743,2.161a7.318,7.318,0,0,0,.929-1.221l1.014-1.757a1.522,1.522,0,0,0-.557-2.079Z" transform="translate(-122.619 -343.18)" fill="#d09180"/>
          <path id="Path_1175534" data-name="Path 1175534" d="M157.737,237.515c.981,1.7.7,6.33.7,6.33l-12.968-9.675a6.108,6.108,0,0,1,2.605-1.806c1.081-.29,3.024.267,5.059,1.224A13.124,13.124,0,0,1,157.737,237.515Z" transform="translate(-128.822 -199.905)" fill="#d09180"/>
          <path id="Path_1175535" data-name="Path 1175535" d="M202.257,245.084c-.29-1.081-1.744-2.486-3.589-3.77,3.31,1.556,6.861,4.172,7.332,5.93a6.129,6.129,0,0,1-.258,3.162l-1.871,1.08L202,248.245A6.13,6.13,0,0,0,202.257,245.084Z" transform="translate(-174.361 -207.631)" fill="#b46e5a"/>
          <path id="Path_1175536" data-name="Path 1175536" d="M131.247,250.416a1.494,1.494,0,0,1-.557-2.079l1.014-1.757a7.379,7.379,0,0,1,.928-1.222l11,6.348.888,4.613c-.42.728-2.424.358-4.427-.8Z" transform="translate(-115.99 -211.093)" fill="#ebae9d"/>
          <path id="Path_1175537" data-name="Path 1175537" d="M197.227,293.241a1.386,1.386,0,0,0,1.932-.642l1.014-1.757a7.317,7.317,0,0,0,.593-1.415l3.743,2.161a7.327,7.327,0,0,1-.592,1.415L202.9,294.76a1.522,1.522,0,0,1-2.079.557Z" transform="translate(-173.128 -248.813)" fill="#d09180"/>
        </g>
        <g id="Group_1223136" data-name="Group 1223136" transform="translate(22.441)">
          <path id="Path_1175538" data-name="Path 1175538" d="M405.486,85.5a1.08,1.08,0,0,0-1.08,1.08v41.993a1.082,1.082,0,0,1-1.08,1.08h-1.08v-5.935a1.08,1.08,0,0,0-2.161,0v9.9a1.082,1.082,0,0,1-1.08,1.08h-5.325a1.08,1.08,0,1,0,0,2.161H399a3.245,3.245,0,0,0,3.241-3.241v-1.8h1.08a3.245,3.245,0,0,0,3.241-3.241V86.578A1.08,1.08,0,0,0,405.486,85.5Z" transform="translate(-339.274 -73.181)"/>
          <path id="Path_1175539" data-name="Path 1175539" d="M189.307,0H150.123a3.245,3.245,0,0,0-3.241,3.241v1.08H145.8a3.245,3.245,0,0,0-3.241,3.241V18.617a1.08,1.08,0,0,0,2.161,0V7.563a1.082,1.082,0,0,1,1.08-1.08h39.184a1.082,1.082,0,0,1,1.08,1.08V46.214a1.08,1.08,0,1,0,2.161,0V7.563a3.245,3.245,0,0,0-3.241-3.241H149.043V3.241a1.082,1.082,0,0,1,1.08-1.08h39.184a1.082,1.082,0,0,1,1.08,1.08V9.075a1.08,1.08,0,0,0,2.161,0V3.241A3.245,3.245,0,0,0,189.307,0Z" transform="translate(-125.256 0)"/>
          <path id="Path_1175540" data-name="Path 1175540" d="M193.32,172.461h25.146a1.08,1.08,0,1,0,0-2.161H193.32a1.08,1.08,0,1,0,0,2.161Z" transform="translate(-167.779 -145.767)"/>
          <path id="Path_1175541" data-name="Path 1175541" d="M193.32,132.461h20.825a1.08,1.08,0,0,0,0-2.161H193.32a1.08,1.08,0,1,0,0,2.161Z" transform="translate(-167.779 -111.529)"/>
          <path id="Path_1175542" data-name="Path 1175542" d="M193.32,92.461h29.146a1.08,1.08,0,0,0,0-2.161H193.32a1.08,1.08,0,1,0,0,2.161Z" transform="translate(-167.779 -77.292)"/>
          <path id="Path_1175543" data-name="Path 1175543" d="M75.863,194.974c-1.362-.786-10.834-5.415-12.6-6.279h4.6a1.08,1.08,0,0,0,0-2.161H59.479l-6.238-3.6H77.128a1.08,1.08,0,1,0,0-2.161H52.113a5.664,5.664,0,0,0-1.137-1.248,10.15,10.15,0,0,0,.687-.8,2.6,2.6,0,0,0,2.568-1.281l.158-.274h22.74a1.08,1.08,0,1,0,0-2.161H55.58a9.211,9.211,0,0,0,.769-3.6H77.128a1.08,1.08,0,1,0,0-2.161h-21.4a14.249,14.249,0,0,0-3.934-3.6H77.128a1.08,1.08,0,1,0,0-2.161H47.9c-1.735-.778-3.923-1.51-5.406-1.113a4.327,4.327,0,0,0-.583.2v-9.762a1.08,1.08,0,0,0-2.161,0V164.1A9.056,9.056,0,0,0,38.3,165.9l-1.009,1.747A2.525,2.525,0,0,0,37,169.592a2.6,2.6,0,0,0,.457.938,17.631,17.631,0,0,0-.819,2.914,11.473,11.473,0,0,1-.964,3.089,1.08,1.08,0,1,0,1.871,1.08,13.1,13.1,0,0,0,1.2-3.7,21.312,21.312,0,0,1,.532-2.091l10.35,5.976a21.3,21.3,0,0,1-1.545,1.506,13.1,13.1,0,0,0-2.607,2.894,13.1,13.1,0,0,0-1.2,3.7,21.307,21.307,0,0,1-.532,2.091L33.4,182.016c.305-.344.651-.681,1-1a1.08,1.08,0,0,0-1.474-1.58,13.874,13.874,0,0,0-1.552,1.649,2.6,2.6,0,0,0-1.04.073,2.524,2.524,0,0,0-1.537,1.221l-1.009,1.747a8.216,8.216,0,0,0-.964,5.394c.637,2.377,4.692,4.875,5.919,5.583.136.079.309.177.512.287H30.034c-5.1,0-7.186,4.575-7.579,6.994a1.081,1.081,0,0,0,1.066,1.254h37.26a1.081,1.081,0,0,0,1.066-1.254c-.394-2.419-2.484-6.994-7.579-6.994H43.592a8.423,8.423,0,0,0,1.135-1.481l1.014-1.757a2.6,2.6,0,0,0-.174-2.867,10.186,10.186,0,0,0,.348-.992,5.454,5.454,0,0,0,1.83.365,3.129,3.129,0,0,0,.783-.094,2.558,2.558,0,0,0,.832-.382l5.562,3.211H49.171a1.08,1.08,0,1,0,0,2.161h9.494l1.115.644c.748.5,10.513,7.089,11.959,7.923a4.124,4.124,0,0,0,4.124-7.143ZM59.958,191.8l-9.311-5.376,1.08-1.871,9.311,5.376ZM43.048,164.46a1.543,1.543,0,0,1,.393-.043,14.1,14.1,0,0,1,5.762,2.162c2.927,1.69,4.687,3.428,4.913,4.271a3.383,3.383,0,0,1,.047,1.208l-12.182-7.033a3.366,3.366,0,0,1,1.067-.565Zm-3.906,4.305.014-.024,1.014-1.757c.067-.115.149-.24.242-.37l13.159,7.6a4.361,4.361,0,0,1-.2.395l-1.014,1.757a.442.442,0,0,1-.6.161l-12.438-7.181a.468.468,0,0,1-.222-.285A.372.372,0,0,1,39.143,168.765Zm-5.325,24.462c-2.927-1.69-4.687-3.428-4.913-4.271a3.363,3.363,0,0,1-.045-1.207l12.182,7.033a3.382,3.382,0,0,1-1.069.564,1.348,1.348,0,0,1-.275.04h-.24a14.73,14.73,0,0,1-5.64-2.159Zm25.543,8.246H24.95a8.075,8.075,0,0,1,.677-1.4,4.928,4.928,0,0,1,4.408-2.53H54.268A5.411,5.411,0,0,1,59.361,201.473ZM43.87,191.068l-1.014,1.757a4.413,4.413,0,0,1-.242.37l-13.159-7.6c.066-.146.132-.279.2-.395l1.014-1.757.014-.024a.371.371,0,0,1,.232-.188.43.43,0,0,1,.116-.016.485.485,0,0,1,.241.066l12.438,7.181a.441.441,0,0,1,.162.6Zm2.56-4.9a10.7,10.7,0,0,1,.921-2.9A10.693,10.693,0,0,1,49.4,181.03a2.939,2.939,0,0,1,1.038,1.2.351.351,0,0,1-.039.306l-2.161,3.743a.351.351,0,0,1-.245.187A2.937,2.937,0,0,1,46.43,186.17ZM75.5,199.527a1.966,1.966,0,0,1-2.682.718c-1.044-.6-7.252-4.759-11.026-7.3l1.153-2c4.09,2,10.792,5.3,11.837,5.9A1.966,1.966,0,0,1,75.5,199.527Z" transform="translate(-22.441 -129.876)"/>
        </g>
      </g>
    </g>
  </g>
</svg>
