<svg xmlns="http://www.w3.org/2000/svg" xmlns:xlink="http://www.w3.org/1999/xlink" width="93.934" height="93.934" viewBox="0 0 93.934 93.934">
  <defs>
    <filter id="Path_978624" x="0" y="0" width="93.934" height="93.934" filterUnits="userSpaceOnUse">
      <feOffset dy="3" input="SourceAlpha"/>
      <feGaussianBlur stdDeviation="3" result="blur"/>
      <feFlood flood-opacity="0.161"/>
      <feComposite operator="in" in2="blur"/>
      <feComposite in="SourceGraphic"/>
    </filter>
  </defs>
  <g id="Group_1223185" data-name="Group 1223185" transform="translate(-609 -1792)">
    <g id="Group_1222825" data-name="Group 1222825">
      <g id="Group_1220522" data-name="Group 1220522" transform="translate(2.459 -4005.533)">
        <g id="Group_1219948" data-name="Group 1219948" transform="translate(615.541 5803.533)">
          <g id="Group_1208655" data-name="Group 1208655">
            <g id="Group_1208068" data-name="Group 1208068">
              <g id="Group_1144123" data-name="Group 1144123">
                <g transform="matrix(1, 0, 0, 1, -9, -6)" filter="url(#Path_978624)">
                  <g id="Path_978624-2" data-name="Path 978624" transform="translate(9 6)" fill="#f1ede8">
                    <path d="M 37.966796875 74.43359375 C 33.04315185546875 74.43359375 28.26757431030273 73.46962738037109 23.77274131774902 71.56847381591797 C 19.43047523498535 69.73184967041016 15.53040790557861 67.10224914550781 12.18087482452393 63.75271987915039 C 8.831341743469238 60.4031867980957 6.201741218566895 56.50312042236328 4.365118980407715 52.16086196899414 C 2.463963508605957 47.66601943969727 1.499996900558472 42.89044189453125 1.499996900558472 37.966796875 C 1.499996900558472 33.04315185546875 2.463963508605957 28.26757431030273 4.365118980407715 23.77274131774902 C 6.201741218566895 19.43047523498535 8.831341743469238 15.53040790557861 12.18087482452393 12.18087482452393 C 15.53040790557861 8.831341743469238 19.43047523498535 6.201741218566895 23.77274131774902 4.365118980407715 C 28.26757431030273 2.463963508605957 33.04315185546875 1.499996900558472 37.966796875 1.499996900558472 C 42.89044189453125 1.499996900558472 47.66601943969727 2.463963508605957 52.16086196899414 4.365118980407715 C 56.50312042236328 6.201741218566895 60.4031867980957 8.831341743469238 63.75271987915039 12.18087482452393 C 67.10224914550781 15.53040790557861 69.73184967041016 19.43047523498535 71.56847381591797 23.77274131774902 C 73.46962738037109 28.26757431030273 74.43359375 33.04315185546875 74.43359375 37.966796875 C 74.43359375 42.89044189453125 73.46962738037109 47.66601943969727 71.56847381591797 52.16086196899414 C 69.73184967041016 56.50313186645508 67.10224914550781 60.4031867980957 63.75271987915039 63.75271987915039 C 60.4031867980957 67.10224914550781 56.50313186645508 69.73184967041016 52.16086196899414 71.56847381591797 C 47.66601943969727 73.46962738037109 42.89044189453125 74.43359375 37.966796875 74.43359375 Z" stroke="none"/>
                    <path d="M 37.966796875 3 C 33.2449836730957 3 28.66600799560547 3.924095153808594 24.35705947875977 5.746635437011719 C 20.19359588623047 7.507621765136719 16.45379638671875 10.02927398681641 13.24153518676758 13.24153518676758 C 10.02927398681641 16.45379638671875 7.507621765136719 20.19359588623047 5.746635437011719 24.35705947875977 C 3.924095153808594 28.66600799560547 3 33.2449836730957 3 37.966796875 C 3 42.6886100769043 3.924095153808594 47.26758575439453 5.746635437011719 51.57653427124023 C 7.507621765136719 55.73999786376953 10.02927398681641 59.47979736328125 13.24153518676758 62.69205856323242 C 16.45379638671875 65.90431976318359 20.19359588623047 68.42597198486328 24.35705947875977 70.18695831298828 C 28.66600799560547 72.00949859619141 33.2449836730957 72.93359375 37.966796875 72.93359375 C 42.6886100769043 72.93359375 47.26758575439453 72.00949859619141 51.57653427124023 70.18695831298828 C 55.73999786376953 68.42597198486328 59.47979736328125 65.90431976318359 62.69205856323242 62.69205856323242 C 65.90431976318359 59.47979736328125 68.42597198486328 55.73999786376953 70.18695831298828 51.57653427124023 C 72.00949859619141 47.26758575439453 72.93359375 42.6886100769043 72.93359375 37.966796875 C 72.93359375 33.2449836730957 72.00949859619141 28.66600799560547 70.18695831298828 24.35705947875977 C 68.42597198486328 20.19359588623047 65.90431976318359 16.45379638671875 62.69205856323242 13.24153518676758 C 59.47979736328125 10.02927398681641 55.73999786376953 7.507621765136719 51.57653427124023 5.746635437011719 C 47.26758575439453 3.924095153808594 42.6886100769043 3 37.966796875 3 M 37.966796875 0 C 58.93528366088867 0 75.93359375 16.99831008911133 75.93359375 37.966796875 C 75.93359375 58.93528366088867 58.93528366088867 75.93359375 37.966796875 75.93359375 C 16.99831008911133 75.93359375 0 58.93528366088867 0 37.966796875 C 0 16.99831008911133 16.99831008911133 0 37.966796875 0 Z" stroke="none" fill="#665b4e"/>
                  </g>
                </g>
              </g>
            </g>
          </g>
        </g>
      </g>
      <g id="derechos-humanos_1_" data-name="derechos-humanos (1)" transform="translate(621.35 1800.305)">
        <path id="Path_1174903" data-name="Path 1174903" d="M361.526,302.551a9.958,9.958,0,1,1-19.916,0Z" transform="translate(-296.297 -253.485)" fill="#ffd987" fill-rule="evenodd"/>
        <circle id="Ellipse_14619" data-name="Ellipse 14619" cx="2.908" cy="2.908" r="2.908" transform="translate(51.779 42.761) rotate(-76.7)" fill="#ffcec0"/>
        <path id="Path_1174904" data-name="Path 1174904" d="M386.853,263.485a5.742,5.742,0,0,0-11.478,0Z" transform="translate(-325.843 -214.419)" fill="#85caff" fill-rule="evenodd"/>
        <path id="Path_1174905" data-name="Path 1174905" d="M30.921,302.551a9.958,9.958,0,1,1-19.916,0Z" transform="translate(-7 -253.485)" fill="#ffd987" fill-rule="evenodd"/>
        <circle id="Ellipse_14620" data-name="Ellipse 14620" cx="2.908" cy="2.908" r="2.908" transform="translate(9.846 40.578) rotate(-45)" fill="#ffcec0"/>
        <g id="Group_1222824" data-name="Group 1222824" transform="translate(3.005 12.871)">
          <path id="Path_1174906" data-name="Path 1174906" d="M56.248,263.485a5.741,5.741,0,0,0-11.478,0Z" transform="translate(-39.551 -227.29)" fill="#88f288" fill-rule="evenodd"/>
          <path id="Path_1174907" data-name="Path 1174907" d="M192.132,103.754l-.1,6.459H204.6l-.075-3.364a7.541,7.541,0,0,1,.855-3.747c1.951-3.837,4.029-4.707,4.661-9.64a8.456,8.456,0,0,0-.683-5.211,3.151,3.151,0,0,0-2.529-1.5V84.161a2.121,2.121,0,1,0-4.242,0v-.629a2.222,2.222,0,1,0-4.445,0v.505a2.094,2.094,0,1,0-4.187,0v.934a1.894,1.894,0,0,0-3.789,0v3.5a1.88,1.88,0,0,0,.291,1.005h0c-1.563,12.712,1.736,10.13,1.673,14.279Z" transform="translate(-166.668 -72.759)" fill="#ffcec0" fill-rule="evenodd"/>
          <path id="Path_1174908" data-name="Path 1174908" d="M195.682,283.8a2.158,2.158,0,0,0-2.152,2.152v23.754h15.612V285.952a2.158,2.158,0,0,0-2.152-2.152Z" transform="translate(-169.724 -249.948)" fill="#85caff" fill-rule="evenodd"/>
          <path id="Path_1174909" data-name="Path 1174909" d="M41.422,71.63V48.875a1.153,1.153,0,0,0-1.151-1.152H28.964a1.155,1.155,0,0,0-1.157,1.152V71.63ZM66.228,49.214a1.128,1.128,0,0,0-.094-.567l-9.3-20.172h3.621a1,1,0,1,0,0-2H48.5a1,1,0,1,0,0,2h5.205L44.4,48.647a.978.978,0,0,0-.09.419,10.958,10.958,0,0,0,21.914.148ZM28.482,40.6c-.711-1.184-1.584-2.639-.928-9.217a2.891,2.891,0,0,0,2.783-.67,3.089,3.089,0,0,0,4.048-.011A3.223,3.223,0,0,0,37.163,32.3h1.2A9.929,9.929,0,0,0,35,38.255a1,1,0,0,0,1.976.32,8.645,8.645,0,0,1,3.548-5.5l.349-.295a1.427,1.427,0,0,0,.6-1.638c-.139-.384-.518-.841-1.518-.841H37.163a1.228,1.228,0,0,1,0-2.456h5.38a2.41,2.41,0,0,1,2.289,1.048,7.58,7.58,0,0,1,.554,4.586,11.515,11.515,0,0,1-2.518,6.047,25.113,25.113,0,0,0-2.054,3.289,8.562,8.562,0,0,0-.9,2.913H29.4l.03-1.79a5.444,5.444,0,0,0-.946-3.333Zm-1.024-12a.9.9,0,1,0,1.8,0V25.093a.9.9,0,1,0-1.8,0Zm3.8-3.506v3.272a1.1,1.1,0,1,0,2.2,0V24.157a1.1,1.1,0,1,0-2.2,0Zm4.2-1.443v2.687a3.194,3.194,0,0,1,1.711-.5h.747V23.65a1.229,1.229,0,0,0-2.458,0Zm4.458.63v1.561h2.247V24.28a1.124,1.124,0,1,0-2.247,0ZM51.7,72.629a1,1,0,0,1-1,1H18.53a1,1,0,1,1,0-2h7.283V48.875a3.145,3.145,0,0,1,1.578-2.731l.036-2.242a3.536,3.536,0,0,0-.657-2.272c-.916-1.522-2.054-3.415-1.054-11.832a2.948,2.948,0,0,1-.259-1.2V25.093a2.9,2.9,0,0,1,4.259-2.559,3.09,3.09,0,0,1,4.44-.894,3.226,3.226,0,0,1,5.1.07,3.091,3.091,0,0,1,1.771-.555,3.13,3.13,0,0,1,3.127,3.125v1.775a3.985,3.985,0,0,1,2.4,1.814,9.392,9.392,0,0,1,.813,5.86A13.427,13.427,0,0,1,44.5,40.674a23.244,23.244,0,0,0-1.9,3.043,6.46,6.46,0,0,0-.717,2.45,3.154,3.154,0,0,1,1.542,2.709V71.63H50.7a1,1,0,0,1,1,1ZM22.861,50.066H5.059a8.957,8.957,0,0,0,17.8,0Zm-.506-2-8.392-18.2-8.4,18.2H7.324a6.806,6.806,0,0,1,3.711-4.9,3.907,3.907,0,1,1,5.85,0,6.826,6.826,0,0,1,3.717,4.9h1.753Zm-12.988,0h9.187a4.737,4.737,0,0,0-9.187,0Zm4.6-5.578a1.909,1.909,0,1,1,1.9-1.908A1.91,1.91,0,0,1,13.963,42.489Zm0,17.536A10.971,10.971,0,0,0,24.922,49.066a.98.98,0,0,0-.1-.419l-9.3-20.172h7.892a1,1,0,0,0,0-2H8.776a1,1,0,1,0,0,2H12.4L3.1,48.648a.975.975,0,0,0-.09.419A10.971,10.971,0,0,0,13.963,60.025Zm50.213-9.958a8.96,8.96,0,0,1-17.808,0Zm-.512-2H61.911a6.826,6.826,0,0,0-3.717-4.9,3.907,3.907,0,0,0-2.922-6.5,3.907,3.907,0,0,0-2.928,6.5,6.821,6.821,0,0,0-3.711,4.9H46.874l8.4-18.2Zm-12.988,0a4.737,4.737,0,0,1,9.187,0H50.676Zm4.6-5.578a1.909,1.909,0,1,1,1.91-1.908A1.91,1.91,0,0,1,55.272,42.489ZM20.68,21.056l2.386,1.527A1,1,0,1,0,24.144,20.9l-2.392-1.526a1,1,0,1,0-1.072,1.684Zm20.386-2.6a1,1,0,0,0,1.4-.163L44.043,16.3a1,1,0,1,0-1.566-1.242L40.9,17.051a1,1,0,0,0,.163,1.4Zm5.6,4.284a1.009,1.009,0,0,0,.542-.157l2.386-1.527a1,1,0,1,0-1.072-1.684L46.127,20.9a1,1,0,0,0,.536,1.842ZM27.8,18.293a1.008,1.008,0,0,0,.789.379.977.977,0,0,0,.615-.216,1,1,0,0,0,.163-1.4l-1.572-1.989A1,1,0,1,0,26.229,16.3L27.8,18.293Zm6.338-2.126v-2.3a1,1,0,0,1,2,0v2.3a1,1,0,0,1-2,0Z" transform="translate(-3.005 -12.871)" fill-rule="evenodd"/>
        </g>
      </g>
    </g>
  </g>
</svg>
