<svg xmlns="http://www.w3.org/2000/svg" xmlns:xlink="http://www.w3.org/1999/xlink" width="93.934" height="93.934" viewBox="0 0 93.934 93.934">
  <defs>
    <filter id="Path_978624" x="0" y="0" width="93.934" height="93.934" filterUnits="userSpaceOnUse">
      <feOffset dy="3" input="SourceAlpha"/>
      <feGaussianBlur stdDeviation="3" result="blur"/>
      <feFlood flood-opacity="0.161"/>
      <feComposite operator="in" in2="blur"/>
      <feComposite in="SourceGraphic"/>
    </filter>
  </defs>
  <g id="Group_1223222" data-name="Group 1223222" transform="translate(-820 -1930.533)">
    <g id="Group_1223108" data-name="Group 1223108">
      <g id="Group_1222259" data-name="Group 1222259" transform="translate(213.459 -3568.583)">
        <g id="Group_1219946" data-name="Group 1219946" transform="translate(615.541 5505.116)">
          <g id="Group_1208655" data-name="Group 1208655">
            <g id="Group_1208068" data-name="Group 1208068">
              <g id="Group_1144123" data-name="Group 1144123">
                <g transform="matrix(1, 0, 0, 1, -9, -6)" filter="url(#Path_978624)">
                  <g id="Path_978624-2" data-name="Path 978624" transform="translate(9 6)" fill="#f1ede8">
                    <path d="M 37.966796875 74.43359375 C 33.04315185546875 74.43359375 28.26757431030273 73.46962738037109 23.77274131774902 71.56847381591797 C 19.43047523498535 69.73184967041016 15.53040790557861 67.10224914550781 12.18087482452393 63.75271987915039 C 8.831341743469238 60.4031867980957 6.201741218566895 56.50312042236328 4.365118980407715 52.16086196899414 C 2.463963508605957 47.66601943969727 1.499996900558472 42.89044189453125 1.499996900558472 37.966796875 C 1.499996900558472 33.04315185546875 2.463963508605957 28.26757431030273 4.365118980407715 23.77274131774902 C 6.201741218566895 19.43047523498535 8.831341743469238 15.53040790557861 12.18087482452393 12.18087482452393 C 15.53040790557861 8.831341743469238 19.43047523498535 6.201741218566895 23.77274131774902 4.365118980407715 C 28.26757431030273 2.463963508605957 33.04315185546875 1.499996900558472 37.966796875 1.499996900558472 C 42.89044189453125 1.499996900558472 47.66601943969727 2.463963508605957 52.16086196899414 4.365118980407715 C 56.50312042236328 6.201741218566895 60.4031867980957 8.831341743469238 63.75271987915039 12.18087482452393 C 67.10224914550781 15.53040790557861 69.73184967041016 19.43047523498535 71.56847381591797 23.77274131774902 C 73.46962738037109 28.26757431030273 74.43359375 33.04315185546875 74.43359375 37.966796875 C 74.43359375 42.89044189453125 73.46962738037109 47.66601943969727 71.56847381591797 52.16086196899414 C 69.73184967041016 56.50313186645508 67.10224914550781 60.4031867980957 63.75271987915039 63.75271987915039 C 60.4031867980957 67.10224914550781 56.50313186645508 69.73184967041016 52.16086196899414 71.56847381591797 C 47.66601943969727 73.46962738037109 42.89044189453125 74.43359375 37.966796875 74.43359375 Z" stroke="none"/>
                    <path d="M 37.966796875 3 C 33.2449836730957 3 28.66600799560547 3.924095153808594 24.35705947875977 5.746635437011719 C 20.19359588623047 7.507621765136719 16.45379638671875 10.02927398681641 13.24153518676758 13.24153518676758 C 10.02927398681641 16.45379638671875 7.507621765136719 20.19359588623047 5.746635437011719 24.35705947875977 C 3.924095153808594 28.66600799560547 3 33.2449836730957 3 37.966796875 C 3 42.6886100769043 3.924095153808594 47.26758575439453 5.746635437011719 51.57653427124023 C 7.507621765136719 55.73999786376953 10.02927398681641 59.47979736328125 13.24153518676758 62.69205856323242 C 16.45379638671875 65.90431976318359 20.19359588623047 68.42597198486328 24.35705947875977 70.18695831298828 C 28.66600799560547 72.00949859619141 33.2449836730957 72.93359375 37.966796875 72.93359375 C 42.6886100769043 72.93359375 47.26758575439453 72.00949859619141 51.57653427124023 70.18695831298828 C 55.73999786376953 68.42597198486328 59.47979736328125 65.90431976318359 62.69205856323242 62.69205856323242 C 65.90431976318359 59.47979736328125 68.42597198486328 55.73999786376953 70.18695831298828 51.57653427124023 C 72.00949859619141 47.26758575439453 72.93359375 42.6886100769043 72.93359375 37.966796875 C 72.93359375 33.2449836730957 72.00949859619141 28.66600799560547 70.18695831298828 24.35705947875977 C 68.42597198486328 20.19359588623047 65.90431976318359 16.45379638671875 62.69205856323242 13.24153518676758 C 59.47979736328125 10.02927398681641 55.73999786376953 7.507621765136719 51.57653427124023 5.746635437011719 C 47.26758575439453 3.924095153808594 42.6886100769043 3 37.966796875 3 M 37.966796875 0 C 58.93528366088867 0 75.93359375 16.99831008911133 75.93359375 37.966796875 C 75.93359375 58.93528366088867 58.93528366088867 75.93359375 37.966796875 75.93359375 C 16.99831008911133 75.93359375 0 58.93528366088867 0 37.966796875 C 0 16.99831008911133 16.99831008911133 0 37.966796875 0 Z" stroke="none" fill="#665b4e"/>
                  </g>
                </g>
              </g>
            </g>
          </g>
        </g>
      </g>
      <g id="FILLED_OUTLINE" transform="translate(813.006 1933.189)">
        <path id="Path_1175390" data-name="Path 1175390" d="M151.635,24,128,38.631V74.647l23.635,9,23.635-9V38.631Z" transform="translate(-96.248 -8.086)" fill="#31c292"/>
        <path id="Path_1175391" data-name="Path 1175391" d="M240,192h15.757v32.639H240Z" transform="translate(-192.491 -152.45)" fill="#00b378"/>
        <path id="Path_1175392" data-name="Path 1175392" d="M256,75.376v7.878h11.255V75.376L261.627,72Z" transform="translate(-206.24 -49.333)" fill="#00b378"/>
        <path id="Path_1175393" data-name="Path 1175393" d="M41.243,50.488a13.506,13.506,0,1,1,7.772-5.911,2.265,2.265,0,0,0-.258,1.8l.933,3.316a2.251,2.251,0,0,1-3.108,2.655L42.8,50.608a2.241,2.241,0,0,0-1.556-.12Z" transform="translate(-6.879 -8.086)" fill="#ffd168"/>
        <path id="Path_1175394" data-name="Path 1175394" d="M392,192h4.5v15.757H392Z" transform="translate(-323.107 -152.45)" fill="#00b378"/>
        <path id="Path_1175395" data-name="Path 1175395" d="M392,240h4.5v2.251H392Z" transform="translate(-323.107 -193.697)" fill="#31c292"/>
        <path id="Path_1175396" data-name="Path 1175396" d="M74.542,86.286l-5.627,5.627a2.251,2.251,0,0,1-3.183,0L63.287,89.47a2.251,2.251,0,0,1,0-3.183l5.627-5.627A2.251,2.251,0,0,1,70.506,80h4.7v4.7A2.251,2.251,0,0,1,74.542,86.286Z" transform="translate(-40.073 -56.207)" fill="#486cbc"/>
        <path id="Path_1175397" data-name="Path 1175397" d="M0,0H9.618V2.251H0Z" transform="translate(29.875 27.547) rotate(-45)" fill="#5b7bc3"/>
        <path id="Path_1175398" data-name="Path 1175398" d="M240,264h4.5v2.251H240Z" transform="translate(-192.491 -214.321)" fill="#31c292"/>
        <path id="Path_1175399" data-name="Path 1175399" d="M77.96,336.831l-21.995,9.678a4.5,4.5,0,0,1-3.429.081l-12.9-4.962H50.328a2.814,2.814,0,0,0,0-5.627H36.805a6.753,6.753,0,0,0-4.775,1.978l-.546.546a6.753,6.753,0,0,1-4.775,1.978H16v12.38H30.325a2.251,2.251,0,0,1,.6.082l13.74,3.817a16.106,16.106,0,0,0,11.916-1.321l24.148-12.937a3.169,3.169,0,0,0-2.772-5.693Z" transform="translate(-0.006 -276.192)" fill="#ffe19e"/>
        <rect id="Rectangle_421506" data-name="Rectangle 421506" width="4.502" height="2.251" rx="1.125" transform="translate(36.254 64.311)" fill="#ffd168"/>
        <path id="Path_1175400" data-name="Path 1175400" d="M81.577,59.943a4.3,4.3,0,0,0-1.429-.6V29.919L55.387,14.59,43.257,22.1a15.013,15.013,0,0,0-2.346-3.015,14.511,14.511,0,0,0-10.286-4.3h-.073a14.632,14.632,0,0,0-.187,29.261c.087,0,.175,0,.262,0V61.591A5.588,5.588,0,0,1,26.7,63.185H15.995v2.251H26.7a7.827,7.827,0,0,0,5.571-2.308l.546-.546A5.59,5.59,0,0,1,36.8,60.934H50.322a1.688,1.688,0,0,1,0,3.376H36.254v2.251h3.167l12.705,4.887a5.591,5.591,0,0,0,4.287-.1l21.995-9.678A2.043,2.043,0,0,1,80.2,65.34L56.047,78.276a14.916,14.916,0,0,1-11.084,1.229l-13.74-3.817a3.377,3.377,0,0,0-.9-.123H15.995v2.251H30.319a1.128,1.128,0,0,1,.3.041l13.74,3.817A17.163,17.163,0,0,0,57.11,80.261L81.258,67.324a4.294,4.294,0,0,0,.319-7.381ZM21.891,38.169A12.368,12.368,0,0,1,30.563,17.04h.062A12.383,12.383,0,0,1,41.177,35.9a3.4,3.4,0,0,0-.383,2.7l.933,3.316a1.126,1.126,0,0,1-1.554,1.327L36.39,41.5a3.368,3.368,0,0,0-2.337-.179h0a12.357,12.357,0,0,1-12.162-3.152ZM55.506,69.286a3.356,3.356,0,0,1-2.572.061l-7.243-2.786h4.631a3.939,3.939,0,0,0,0-7.878H48.634V51.93h3.376V49.679H48.634v-9H62.14V66.367Zm8.885-3.909V38.424H46.383V58.683H36.8a7.831,7.831,0,0,0-3.923,1.045V43.877a14.567,14.567,0,0,0,1.8-.393,1.118,1.118,0,0,1,.774.06l3.783,1.742A3.377,3.377,0,0,0,43.894,41.3l-.933-3.316a1.144,1.144,0,0,1,.133-.906,14.6,14.6,0,0,0,2.164-7.661,14.349,14.349,0,0,0-1.006-5.289l11.136-6.893L77.9,31.173V59.459c-.133.044-.266.092-.4.15Z" transform="translate(0 0)"/>
        <path id="Path_1175401" data-name="Path 1175401" d="M248,66.723v9.641h13.506V66.723l-6.753-4.052Zm11.255,7.39h-9V68l4.5-2.7,4.5,2.7Z" transform="translate(-199.366 -41.316)"/>
        <path id="Path_1175402" data-name="Path 1175402" d="M384,202.008h6.753V184H384Zm2.251-2.251v-5.627H388.5v5.627Zm2.251-13.506v5.627h-2.251v-5.627Z" transform="translate(-316.233 -145.576)"/>
        <path id="Path_1175403" data-name="Path 1175403" d="M69.462,66.085V61.952l2.018-2.018-1.592-1.592-1.921,1.921H63.641a3.354,3.354,0,0,0-2.388.989L55.626,66.88a3.38,3.38,0,0,0,0,4.775L58.07,74.1a3.38,3.38,0,0,0,4.775,0l5.627-5.627a3.354,3.354,0,0,0,.989-2.388Zm-2.581.8-5.627,5.627a1.127,1.127,0,0,1-1.592,0l-2.444-2.444a1.127,1.127,0,0,1,0-1.592l5.627-5.627a1.118,1.118,0,0,1,.8-.33h2.074l-2.629,2.629,1.592,1.592L67.211,64.2v1.881A1.118,1.118,0,0,1,66.881,66.88Z" transform="translate(-33.208 -37.597)"/>
      </g>
    </g>
  </g>
</svg>
