<svg xmlns="http://www.w3.org/2000/svg" xmlns:xlink="http://www.w3.org/1999/xlink" width="93.934" height="93.934" viewBox="0 0 93.934 93.934">
  <defs>
    <filter id="Path_978624" x="0" y="0" width="93.934" height="93.934" filterUnits="userSpaceOnUse">
      <feOffset dy="3" input="SourceAlpha"/>
      <feGaussianBlur stdDeviation="3" result="blur"/>
      <feFlood flood-opacity="0.161"/>
      <feComposite operator="in" in2="blur"/>
      <feComposite in="SourceGraphic"/>
    </filter>
  </defs>
  <g id="Group_1223223" data-name="Group 1223223" transform="translate(-190 -2099.533)">
    <g id="Group_1223122" data-name="Group 1223122">
      <g id="Group_1222260" data-name="Group 1222260" transform="translate(-416.541 -3399.583)">
        <g id="Group_1219946" data-name="Group 1219946" transform="translate(615.541 5505.116)">
          <g id="Group_1208655" data-name="Group 1208655">
            <g id="Group_1208068" data-name="Group 1208068">
              <g id="Group_1144123" data-name="Group 1144123">
                <g transform="matrix(1, 0, 0, 1, -9, -6)" filter="url(#Path_978624)">
                  <g id="Path_978624-2" data-name="Path 978624" transform="translate(9 6)" fill="#f1ede8">
                    <path d="M 37.966796875 74.43359375 C 33.04315185546875 74.43359375 28.26757431030273 73.46962738037109 23.77274131774902 71.56847381591797 C 19.43047523498535 69.73184967041016 15.53040790557861 67.10224914550781 12.18087482452393 63.75271987915039 C 8.831341743469238 60.4031867980957 6.201741218566895 56.50312042236328 4.365118980407715 52.16086196899414 C 2.463963508605957 47.66601943969727 1.499996900558472 42.89044189453125 1.499996900558472 37.966796875 C 1.499996900558472 33.04315185546875 2.463963508605957 28.26757431030273 4.365118980407715 23.77274131774902 C 6.201741218566895 19.43047523498535 8.831341743469238 15.53040790557861 12.18087482452393 12.18087482452393 C 15.53040790557861 8.831341743469238 19.43047523498535 6.201741218566895 23.77274131774902 4.365118980407715 C 28.26757431030273 2.463963508605957 33.04315185546875 1.499996900558472 37.966796875 1.499996900558472 C 42.89044189453125 1.499996900558472 47.66601943969727 2.463963508605957 52.16086196899414 4.365118980407715 C 56.50312042236328 6.201741218566895 60.4031867980957 8.831341743469238 63.75271987915039 12.18087482452393 C 67.10224914550781 15.53040790557861 69.73184967041016 19.43047523498535 71.56847381591797 23.77274131774902 C 73.46962738037109 28.26757431030273 74.43359375 33.04315185546875 74.43359375 37.966796875 C 74.43359375 42.89044189453125 73.46962738037109 47.66601943969727 71.56847381591797 52.16086196899414 C 69.73184967041016 56.50313186645508 67.10224914550781 60.4031867980957 63.75271987915039 63.75271987915039 C 60.4031867980957 67.10224914550781 56.50313186645508 69.73184967041016 52.16086196899414 71.56847381591797 C 47.66601943969727 73.46962738037109 42.89044189453125 74.43359375 37.966796875 74.43359375 Z" stroke="none"/>
                    <path d="M 37.966796875 3 C 33.2449836730957 3 28.66600799560547 3.924095153808594 24.35705947875977 5.746635437011719 C 20.19359588623047 7.507621765136719 16.45379638671875 10.02927398681641 13.24153518676758 13.24153518676758 C 10.02927398681641 16.45379638671875 7.507621765136719 20.19359588623047 5.746635437011719 24.35705947875977 C 3.924095153808594 28.66600799560547 3 33.2449836730957 3 37.966796875 C 3 42.6886100769043 3.924095153808594 47.26758575439453 5.746635437011719 51.57653427124023 C 7.507621765136719 55.73999786376953 10.02927398681641 59.47979736328125 13.24153518676758 62.69205856323242 C 16.45379638671875 65.90431976318359 20.19359588623047 68.42597198486328 24.35705947875977 70.18695831298828 C 28.66600799560547 72.00949859619141 33.2449836730957 72.93359375 37.966796875 72.93359375 C 42.6886100769043 72.93359375 47.26758575439453 72.00949859619141 51.57653427124023 70.18695831298828 C 55.73999786376953 68.42597198486328 59.47979736328125 65.90431976318359 62.69205856323242 62.69205856323242 C 65.90431976318359 59.47979736328125 68.42597198486328 55.73999786376953 70.18695831298828 51.57653427124023 C 72.00949859619141 47.26758575439453 72.93359375 42.6886100769043 72.93359375 37.966796875 C 72.93359375 33.2449836730957 72.00949859619141 28.66600799560547 70.18695831298828 24.35705947875977 C 68.42597198486328 20.19359588623047 65.90431976318359 16.45379638671875 62.69205856323242 13.24153518676758 C 59.47979736328125 10.02927398681641 55.73999786376953 7.507621765136719 51.57653427124023 5.746635437011719 C 47.26758575439453 3.924095153808594 42.6886100769043 3 37.966796875 3 M 37.966796875 0 C 58.93528366088867 0 75.93359375 16.99831008911133 75.93359375 37.966796875 C 75.93359375 58.93528366088867 58.93528366088867 75.93359375 37.966796875 75.93359375 C 16.99831008911133 75.93359375 0 58.93528366088867 0 37.966796875 C 0 16.99831008911133 16.99831008911133 0 37.966796875 0 Z" stroke="none" fill="#665b4e"/>
                  </g>
                </g>
              </g>
            </g>
          </g>
        </g>
      </g>
      <g id="granja" transform="translate(206.43 2120.393)">
        <g id="Group_1223120" data-name="Group 1223120" transform="translate(0.895 0.895)">
          <g id="Group_1223109" data-name="Group 1223109" transform="translate(3.952 21.738)">
            <path id="Path_1175404" data-name="Path 1175404" d="M43.631,194.4v-.716a.954.954,0,0,0,.954-.954v-2.044a.954.954,0,0,0-.954-.954H41.587a.954.954,0,0,0-.954.954v2.044a.954.954,0,0,0,.954.954v.716Z" transform="translate(-40.633 -189.734)" fill="#ffe68e"/>
            <path id="Path_1175405" data-name="Path 1175405" d="M48.094,189.733H46.05a.952.952,0,0,0-.35.067.954.954,0,0,1,.6.887v2.044a.954.954,0,0,1-.6.887.95.95,0,0,0,.35.067v.716h2.044v-.716a.954.954,0,0,0,.954-.954v-2.044A.954.954,0,0,0,48.094,189.733Z" transform="translate(-45.096 -189.733)" fill="#ffcd6e"/>
            <path id="Path_1175406" data-name="Path 1175406" d="M43.631,227.535v-.716a.954.954,0,0,0,.954-.954v-2.044a.954.954,0,0,0-.954-.954H41.587a.954.954,0,0,0-.954.954v2.044a.954.954,0,0,0,.954.954v.716Z" transform="translate(-40.633 -218.915)" fill="#ffcd6e"/>
            <path id="Path_1175407" data-name="Path 1175407" d="M48.094,222.867H46.05a.95.95,0,0,0-.35.067.954.954,0,0,1,.6.887v2.044a.954.954,0,0,1-.6.887.95.95,0,0,0,.35.067v.716h2.044v-.716a.954.954,0,0,0,.954-.954v-2.044A.954.954,0,0,0,48.094,222.867Z" transform="translate(-45.096 -218.915)" fill="#ffb45e"/>
          </g>
          <g id="Group_1223111" data-name="Group 1223111" transform="translate(11.844)">
            <path id="Path_1175408" data-name="Path 1175408" d="M133.454,12.44a4.94,4.94,0,0,0-9.881,0v.634h9.881V12.44Z" transform="translate(-121.571 -7.5)" fill="#fff"/>
            <path id="Path_1175409" data-name="Path 1175409" d="M159.8,12.44a4.94,4.94,0,0,0-6.312-4.746,4.942,4.942,0,0,1,3.569,4.746v.634H159.8Z" transform="translate(-147.92 -7.5)" fill="#cdf0ff"/>
            <path id="Path_1175410" data-name="Path 1175410" d="M123.574,67.771h9.881v20.2h-9.881Z" transform="translate(-121.572 -60.582)" fill="#ff6e64"/>
            <path id="Path_1175411" data-name="Path 1175411" d="M183.407,67.771h2.744v20.2h-2.744Z" transform="translate(-174.268 -60.582)" fill="#d65651"/>
            <path id="Path_1175412" data-name="Path 1175412" d="M126.194,52.869h-9.948a.954.954,0,0,1-.954-.954V49.871a.954.954,0,0,1,.954-.954h9.948a.954.954,0,0,1,.954.954v2.044A.954.954,0,0,1,126.194,52.869Z" transform="translate(-114.277 -43.977)" fill="#d2e1e1"/>
            <path id="Path_1175413" data-name="Path 1175413" d="M120.651,227.534H106.792V223.82a.954.954,0,0,1,.954-.954H119.7a.954.954,0,0,1,.954.954Z" transform="translate(-106.792 -197.176)" fill="#d2e1e1"/>
            <g id="Group_1223110" data-name="Group 1223110" transform="translate(9.173 4.94)">
              <path id="Path_1175414" data-name="Path 1175414" d="M186.435,48.917h-2.744a.954.954,0,0,1,.954.954v2.044a.954.954,0,0,1-.954.954h2.744a.954.954,0,0,0,.954-.954V49.871A.954.954,0,0,0,186.435,48.917Z" transform="translate(-183.691 -48.917)" fill="#afc4c8"/>
              <path id="Path_1175415" data-name="Path 1175415" d="M194.718,222.867h-2.744a.954.954,0,0,1,.954.954v3.714h2.744v-3.714A.954.954,0,0,0,194.718,222.867Z" transform="translate(-190.986 -202.117)" fill="#afc4c8"/>
            </g>
          </g>
          <g id="Group_1223113" data-name="Group 1223113" transform="translate(27.352 3.952)">
            <path id="Path_1175416" data-name="Path 1175416" d="M292.328,65.4v16.64H272.566V65.4l2.306-4.94,7.575-2.925,7.9,2.925Z" transform="translate(-268.299 -55.516)" fill="#ff6e64"/>
            <path id="Path_1175417" data-name="Path 1175417" d="M341.831,110.852h-2.044a.954.954,0,0,1-.954-.954v-2.044a.954.954,0,0,1,.954-.954h2.044a.954.954,0,0,1,.954.954V109.9A.954.954,0,0,1,341.831,110.852Z" transform="translate(-326.662 -98.995)" fill="#5f5f6e"/>
            <path id="Path_1175418" data-name="Path 1175418" d="M317.557,183.878H305.7V174.12a.954.954,0,0,1,.954-.954H316.6a.954.954,0,0,1,.954.954Z" transform="translate(-297.481 -157.357)" fill="#5f5f6e"/>
            <path id="Path_1175419" data-name="Path 1175419" d="M415.233,79.67v21.864h2.744V84.894L416,79.954Z" transform="translate(-393.948 -75.013)" fill="#d65651"/>
            <path id="Path_1175420" data-name="Path 1175420" d="M376.844,173.167H374.1a.954.954,0,0,1,.954.954v9.757H377.8v-9.757A.954.954,0,0,0,376.844,173.167Z" transform="translate(-357.722 -157.357)" fill="#46465c"/>
            <path id="Path_1175421" data-name="Path 1175421" d="M346.294,106.9H344.25a.95.95,0,0,0-.35.067.954.954,0,0,1,.6.887V109.9a.954.954,0,0,1-.6.887.95.95,0,0,0,.35.067h2.044a.954.954,0,0,0,.954-.954v-2.044A.954.954,0,0,0,346.294,106.9Z" transform="translate(-331.124 -98.995)" fill="#46465c"/>
            <g id="Group_1223112" data-name="Group 1223112">
              <path id="Path_1175422" data-name="Path 1175422" d="M261.59,53.687l-3.884-6.215a.988.988,0,0,0-.491-.4l-5.923-2.221a.988.988,0,0,0-.694,0l-5.923,2.221a.988.988,0,0,0-.491.4L240.3,53.686a.988.988,0,0,1-1.362.314l-1.676-1.047a.988.988,0,0,1-.314-1.362l4.417-7.067a1.976,1.976,0,0,1,.982-.8l7.9-2.964a1.975,1.975,0,0,1,1.388,0l7.9,2.964a1.976,1.976,0,0,1,.982.8l4.417,7.067a.988.988,0,0,1-.314,1.362L262.951,54a.988.988,0,0,1-1.362-.314Z" transform="translate(-236.797 -40.632)" fill="#fff"/>
            </g>
            <path id="Path_1175423" data-name="Path 1175423" d="M407.738,64.98l-4.417-7.067a1.977,1.977,0,0,0-.982-.8l-3.406-1.277a1.976,1.976,0,0,1,.785.715l5.276,8.432a.988.988,0,0,1-.314,1.362l-.541.338.247.4a.988.988,0,0,0,1.362.314l1.676-1.047A.988.988,0,0,0,407.738,64.98Z" transform="translate(-379.593 -54.02)" fill="#cdf0ff"/>
          </g>
          <g id="Group_1223114" data-name="Group 1223114" transform="translate(0 29.642)">
            <path id="Path_1175424" data-name="Path 1175424" d="M66.785,256.988A.988.988,0,0,0,65.8,256H8.488a.988.988,0,0,0-.988.988V272.8H66.785Z" transform="translate(-7.5 -256)" fill="#aad264"/>
            <path id="Path_1175425" data-name="Path 1175425" d="M7.5,421.374l23.714,2.878H43.071l23.714-2.878v-7.991H7.5Z" transform="translate(-7.5 -394.609)" fill="#aad264"/>
          </g>
          <g id="Group_1223115" data-name="Group 1223115" transform="translate(55.553 29.642)">
            <path id="Path_1175426" data-name="Path 1175426" d="M474.205,256.988V272.8h2.744V256.988a.988.988,0,0,0-.988-.988h-2.744a.988.988,0,0,1,.988.988Z" transform="translate(-473.217 -256)" fill="#8cbe69"/>
            <path id="Path_1175427" data-name="Path 1175427" d="M481.5,421.707l2.744-.333v-7.991H481.5Z" transform="translate(-480.512 -394.609)" fill="#8cbe69"/>
          </g>
          <path id="Path_1175428" data-name="Path 1175428" d="M8.488,392.486A.988.988,0,0,1,7.5,391.5v-1.976a.988.988,0,0,1,.988-.988H65.8a.988.988,0,0,1,.988.988V391.5a.988.988,0,0,1-.988.988Z" transform="translate(-7.5 -343.082)" fill="#d1a184"/>
          <path id="Path_1175429" data-name="Path 1175429" d="M475.96,388.533h-2.744a.988.988,0,0,1,.988.988V391.5a.988.988,0,0,1-.988.988h2.744a.988.988,0,0,0,.988-.988v-1.976A.988.988,0,0,0,475.96,388.533Z" transform="translate(-417.663 -343.081)" fill="#c68a65"/>
          <g id="Group_1223117" data-name="Group 1223117" transform="translate(3.952 41.898)">
            <g id="Group_1223116" data-name="Group 1223116">
              <path id="Path_1175430" data-name="Path 1175430" d="M40.633,374.155V361.379a1.976,1.976,0,0,1,.88-1.644l.988-.659a1.976,1.976,0,0,1,2.192,0l.988.659a1.976,1.976,0,0,1,.88,1.644v12.776Z" transform="translate(-40.633 -358.745)" fill="#ffbe90"/>
              <path id="Path_1175431" data-name="Path 1175431" d="M164.883,374.155V361.379a1.976,1.976,0,0,1,.88-1.644l.988-.659a1.976,1.976,0,0,1,2.192,0l.988.659a1.976,1.976,0,0,1,.88,1.644v12.776Z" transform="translate(-150.062 -358.745)" fill="#ffbe90"/>
              <path id="Path_1175432" data-name="Path 1175432" d="M297.417,374.155V361.379a1.976,1.976,0,0,1,.88-1.644l.988-.659a1.976,1.976,0,0,1,2.192,0l.988.659a1.976,1.976,0,0,1,.88,1.644v12.776Z" transform="translate(-266.786 -358.745)" fill="#ffbe90"/>
              <path id="Path_1175433" data-name="Path 1175433" d="M421.667,374.155V361.379a1.976,1.976,0,0,1,.88-1.644l.988-.659a1.976,1.976,0,0,1,2.192,0l.988.659a1.976,1.976,0,0,1,.88,1.644v12.776Z" transform="translate(-376.215 -358.745)" fill="#ffbe90"/>
            </g>
            <path id="Path_1175434" data-name="Path 1175434" d="M438.473,359.735l-.988-.659a1.976,1.976,0,0,0-2.192,0l-.276.184.712.475a1.976,1.976,0,0,1,.88,1.644v12.776h2.744V361.379A1.976,1.976,0,0,0,438.473,359.735Z" transform="translate(-387.973 -358.745)" fill="#ffa96b"/>
            <path id="Path_1175435" data-name="Path 1175435" d="M314.223,359.735l-.988-.659a1.976,1.976,0,0,0-2.192,0l-.276.184.713.475a1.976,1.976,0,0,1,.88,1.644v12.776H315.1V361.379A1.977,1.977,0,0,0,314.223,359.735Z" transform="translate(-278.544 -358.745)" fill="#ffa96b"/>
            <path id="Path_1175436" data-name="Path 1175436" d="M181.689,359.735l-.988-.659a1.976,1.976,0,0,0-2.192,0l-.276.184.712.475a1.976,1.976,0,0,1,.88,1.644v12.776h2.744V361.379A1.976,1.976,0,0,0,181.689,359.735Z" transform="translate(-161.819 -358.745)" fill="#ffa96b"/>
            <path id="Path_1175437" data-name="Path 1175437" d="M57.439,359.735l-.988-.659a1.976,1.976,0,0,0-2.192,0l-.276.184.712.475a1.976,1.976,0,0,1,.88,1.644v12.776h2.744V361.379A1.976,1.976,0,0,0,57.439,359.735Z" transform="translate(-52.391 -358.745)" fill="#ffa96b"/>
          </g>
          <g id="Group_1223119" data-name="Group 1223119" transform="translate(0 51.38)">
            <path id="Path_1175438" data-name="Path 1175438" d="M297.417,444.22a2.015,2.015,0,0,1,1.873-2.032,1.964,1.964,0,0,1,.73.1.489.489,0,0,0,.6-.281,2.963,2.963,0,0,1,4.586-1.14.488.488,0,0,0,.66-.043,1.973,1.973,0,0,1,2.863,0,.488.488,0,0,0,.66.043,2.965,2.965,0,0,1,3.138-.369.492.492,0,0,0,.611-.165,4.932,4.932,0,0,1,4.038-2.1,5,5,0,0,1,4.943,5.026v.96a1.918,1.918,0,0,1-1.918,1.918H298.4a.988.988,0,0,1-.988-.988Z" transform="translate(-262.834 -438.233)" fill="#8cbe69"/>
            <path id="Path_1175439" data-name="Path 1175439" d="M32.2,444.22a2.015,2.015,0,0,0-1.873-2.032,1.964,1.964,0,0,0-.73.1.489.489,0,0,1-.6-.281,2.963,2.963,0,0,0-4.586-1.14.488.488,0,0,1-.66-.043,1.973,1.973,0,0,0-2.863,0,.488.488,0,0,1-.66.043,2.965,2.965,0,0,0-3.138-.369.492.492,0,0,1-.611-.165,4.932,4.932,0,0,0-4.038-2.1A5,5,0,0,0,7.5,443.259v.96a1.918,1.918,0,0,0,1.918,1.918h21.8a.988.988,0,0,0,.988-.988Z" transform="translate(-7.5 -438.233)" fill="#8cbe69"/>
            <g id="Group_1223118" data-name="Group 1223118" transform="translate(17.403)">
              <path id="Path_1175440" data-name="Path 1175440" d="M452.908,438.233a4.93,4.93,0,0,0-1.375.2,5.034,5.034,0,0,1,3.575,4.829v.96a1.918,1.918,0,0,1-1.918,1.918h2.744a1.918,1.918,0,0,0,1.918-1.918v-.96a5,5,0,0,0-4.943-5.026Z" transform="translate(-415.969 -438.233)" fill="#6ea573"/>
              <path id="Path_1175441" data-name="Path 1175441" d="M158.817,456.779a1.963,1.963,0,0,0-.73.1.489.489,0,0,1-.6-.281,2.958,2.958,0,0,0-4.1-1.46,2.974,2.974,0,0,1,1.353,1.46.489.489,0,0,0,.6.281,1.963,1.963,0,0,1,.73-.1,2.015,2.015,0,0,1,1.873,2.032v.93a.988.988,0,0,1-.988.988H159.7a.988.988,0,0,0,.988-.988v-.93A2.015,2.015,0,0,0,158.817,456.779Z" transform="translate(-153.391 -452.824)" fill="#6ea573"/>
            </g>
          </g>
        </g>
        <g id="Group_1223121" data-name="Group 1223121" transform="translate(0 0)">
          <path id="Path_1175442" data-name="Path 1175442" d="M59.192,29.642H53.17V19.121a1.843,1.843,0,0,0,.712.141,1.87,1.87,0,0,0,.994-.287l1.676-1.048a1.885,1.885,0,0,0,.6-2.594L52.733,8.266A2.885,2.885,0,0,0,51.307,7.1L43.4,4.135a2.867,2.867,0,0,0-2.016,0L33.482,7.1a2.886,2.886,0,0,0-1.427,1.166l-4.417,7.067a1.885,1.885,0,0,0,.6,2.594l1.676,1.048a1.87,1.87,0,0,0,1.421.238,1.914,1.914,0,0,0,.285-.092V29.642H27.493v-2.1a1.851,1.851,0,0,0-1.849-1.849h-.127V10.468A1.85,1.85,0,0,0,26.5,8.833V6.789a1.849,1.849,0,0,0-1.032-1.656,5.834,5.834,0,0,0-11.583,0,1.849,1.849,0,0,0-1.032,1.656V8.833a1.85,1.85,0,0,0,.988,1.635v2.948a.895.895,0,1,0,1.789,0V10.682h8.092V21.738H15.635V17.591a.895.895,0,1,0-1.789,0v8.1h-.153a1.851,1.851,0,0,0-1.849,1.849v2.1H9.691c0-.02,0-.039,0-.06V27.539a1.836,1.836,0,0,0-.268-.954,1.834,1.834,0,0,0,.268-.954V23.587a1.851,1.851,0,0,0-1.849-1.849H5.8a1.851,1.851,0,0,0-1.849,1.849V25.63a1.836,1.836,0,0,0,.268.954,1.834,1.834,0,0,0-.268.954v2.044c0,.02,0,.04,0,.06H1.883A1.885,1.885,0,0,0,0,31.525V58.262a2.816,2.816,0,0,0,2.813,2.813H5.7a.895.895,0,0,0,0-1.789H2.813a1.024,1.024,0,0,1-1.023-1.023V57.3a4.151,4.151,0,0,1,1.188-2.917,3.993,3.993,0,0,1,2.049-1.131h0a3.977,3.977,0,0,1,.8-.082h0a4.053,4.053,0,0,1,3.307,1.72,1.381,1.381,0,0,0,1.728.457,2.069,2.069,0,0,1,2.189.258,1.389,1.389,0,0,0,1.871-.122,1.079,1.079,0,0,1,1.565,0,1.389,1.389,0,0,0,1.871.122,2.042,2.042,0,0,1,1.273-.458H19.7A2.067,2.067,0,0,1,21.571,56.4a1.39,1.39,0,0,0,1.708.776,1.074,1.074,0,0,1,.4-.054A1.126,1.126,0,0,1,24.7,58.262v.93a.094.094,0,0,1-.093.093H9.871a.895.895,0,0,0,0,1.789h48.39a2.816,2.816,0,0,0,2.813-2.813V31.525a1.885,1.885,0,0,0-1.883-1.883ZM30.99,17.427a.093.093,0,0,1-.129.03L29.185,16.41a.094.094,0,0,1-.03-.129l4.417-7.067a1.088,1.088,0,0,1,.538-.44l7.9-2.964a1.081,1.081,0,0,1,.759,0l7.9,2.964a1.087,1.087,0,0,1,.537.439l4.417,7.067a.094.094,0,0,1-.03.129l-1.676,1.048a.092.092,0,0,1-.07.012.09.09,0,0,1-.058-.042l-3.884-6.215a1.893,1.893,0,0,0-.936-.765L43.055,8.226a1.883,1.883,0,0,0-1.322,0L35.81,10.447a1.894,1.894,0,0,0-.935.765Zm2.418-.493,2.984-4.774a.092.092,0,0,1,.047-.038L42.361,9.9a.1.1,0,0,1,.066,0l5.923,2.221a.092.092,0,0,1,.047.038l2.984,4.774V29.642H49.217V21.611a1.851,1.851,0,0,0-1.849-1.849H37.42a1.851,1.851,0,0,0-1.849,1.849v8.032H33.408Zm14.02,12.708H37.36V21.611a.06.06,0,0,1,.06-.06h9.948a.06.06,0,0,1,.06.06ZM14.707,8.893a.06.06,0,0,1-.06-.06V6.789a.06.06,0,0,1,.06-.06h9.948a.06.06,0,0,1,.06.06V8.833a.06.06,0,0,1-.06.06Zm4.974-7.1A4.052,4.052,0,0,1,23.626,4.94h-7.89A4.052,4.052,0,0,1,19.681,1.789ZM15.635,23.527h8.092V25.69H15.635Zm-2,4.012a.06.06,0,0,1,.06-.06h11.95a.06.06,0,0,1,.06.06v2.1H13.634ZM5.742,23.587a.06.06,0,0,1,.06-.06H7.845a.06.06,0,0,1,.06.06V25.63a.06.06,0,0,1-.06.06H5.8a.06.06,0,0,1-.06-.06Zm0,6V27.539a.06.06,0,0,1,.06-.06H7.845a.06.06,0,0,1,.06.06v2.044a.06.06,0,0,1-.06.06H5.8a.06.06,0,0,1-.06-.06ZM1.883,31.432H59.192a.094.094,0,0,1,.093.093V45.457c-.031,0-.062,0-.093,0h-2.07v-.024a2.865,2.865,0,0,0-1.278-2.389l-.988-.659a2.863,2.863,0,0,0-3.185,0l-.988.659A2.865,2.865,0,0,0,49.4,45.428v.024H42.3v-.024a2.865,2.865,0,0,0-1.278-2.389l-.988-.659a2.863,2.863,0,0,0-3.185,0l-.988.659a2.865,2.865,0,0,0-1.278,2.389v.024H26.491v-.024a2.865,2.865,0,0,0-1.278-2.389l-.988-.659a2.863,2.863,0,0,0-3.185,0l-.988.659a2.865,2.865,0,0,0-1.279,2.389v.024h-7.1v-.024a2.865,2.865,0,0,0-1.278-2.389L9.4,42.381a2.863,2.863,0,0,0-3.185,0l-.988.659a2.865,2.865,0,0,0-1.279,2.389v.024H1.883c-.031,0-.062,0-.093,0V31.525a.094.094,0,0,1,.093-.093ZM55.239,51.38h0a5.841,5.841,0,0,0-4.042,1.636V45.428a1.079,1.079,0,0,1,.482-.9l.988-.659a1.079,1.079,0,0,1,1.2,0l.988.659a1.079,1.079,0,0,1,.481.9v5.955l-.093,0ZM38.008,55.387a2.849,2.849,0,0,0-.7-.05,2.814,2.814,0,0,0-.933.21V45.428a1.079,1.079,0,0,1,.482-.9l.988-.659a1.079,1.079,0,0,1,1.2,0l.988.659a1.079,1.079,0,0,1,.481.9v8.035A3.852,3.852,0,0,0,38.008,55.387ZM26.491,47.241h8.092V49.4H26.491ZM49.4,49.4H42.3V47.241h7.1Zm-7.1,1.789h7.1v2.165l-.093,0A3.869,3.869,0,0,0,47.172,54a2.866,2.866,0,0,0-3.628,0,3.87,3.87,0,0,0-1.244-.54Zm14.821,0h2.07c.031,0,.062,0,.093,0v1.855A5.792,5.792,0,0,0,57.122,51.7Zm2.163-1.883a.094.094,0,0,1-.093.094h-2.07V47.241h2.07a.094.094,0,0,1,.093.093ZM11.67,47.241h7.1V49.4h-7.1Zm-9.881.093a.093.093,0,0,1,.093-.093h2.07V49.4H1.883a.094.094,0,0,1-.093-.094Zm0,5.709V51.189c.031,0,.062,0,.093,0h2.07v.5a5.793,5.793,0,0,0-2.163,1.347ZM5.839,51.38h0l-.093,0V45.428a1.079,1.079,0,0,1,.482-.9l.988-.659a1.079,1.079,0,0,1,1.2,0l.988.659a1.079,1.079,0,0,1,.481.9v7.588A5.84,5.84,0,0,0,5.839,51.38ZM17.53,54A2.866,2.866,0,0,0,13.9,54a3.869,3.869,0,0,0-2.138-.647l-.093,0V51.193h7.1v2.27A3.868,3.868,0,0,0,17.53,54Zm6.239,1.333a2.842,2.842,0,0,0-.7.05,3.853,3.853,0,0,0-2.5-1.923V45.428a1.079,1.079,0,0,1,.482-.9l.988-.659a1.079,1.079,0,0,1,1.2,0l.988.659a1.079,1.079,0,0,1,.481.9V55.546A2.814,2.814,0,0,0,23.769,55.336Zm2.721,2.886c0-.006,0-.012,0-.019v-7.01h8.092V58.2c0,.006,0,.012,0,.019s0,.026,0,.039v.93c0,.031,0,.062,0,.093h-8.1c0-.031,0-.062,0-.093v-.93C26.491,58.248,26.49,58.235,26.49,58.222Zm32.795.039a1.024,1.024,0,0,1-1.023,1.023h-21.8a.094.094,0,0,1-.093-.093v-.93A1.126,1.126,0,0,1,37.4,57.123l.057,0a1.065,1.065,0,0,1,.342.056A1.39,1.39,0,0,0,39.5,56.4a2.067,2.067,0,0,1,1.9-1.256,2.044,2.044,0,0,1,1.3.459,1.389,1.389,0,0,0,1.871-.122,1.079,1.079,0,0,1,1.565,0,1.389,1.389,0,0,0,1.871.122,2.07,2.07,0,0,1,2.19-.258,1.381,1.381,0,0,0,1.728-.457,4.053,4.053,0,0,1,3.307-1.72h0a3.979,3.979,0,0,1,.8.081l.01,0A3.994,3.994,0,0,1,58.1,54.384,4.151,4.151,0,0,1,59.285,57.3v.961Z" transform="translate(0 0)"/>
          <path id="Path_1175443" data-name="Path 1175443" d="M333.182,105.141h2.044a1.851,1.851,0,0,0,1.849-1.849v-2.044a1.851,1.851,0,0,0-1.849-1.849h-2.044a1.851,1.851,0,0,0-1.849,1.849v2.044A1.851,1.851,0,0,0,333.182,105.141Zm-.06-3.893a.06.06,0,0,1,.06-.06h2.044a.06.06,0,0,1,.06.06v2.044a.06.06,0,0,1-.06.06h-2.044a.06.06,0,0,1-.06-.06Z" transform="translate(-291.81 -87.542)"/>
          <path id="Path_1175444" data-name="Path 1175444" d="M50.994,302.74l3.51-1.755a.094.094,0,0,1,.083,0l3.069,1.534a1.891,1.891,0,0,0,1.684,0l3.069-1.534a.094.094,0,0,1,.084,0L66,302.74a.895.895,0,1,0,.8-1.6l-3.51-1.755a1.891,1.891,0,0,0-1.684,0l-3.069,1.534a.094.094,0,0,1-.083,0l-3.069-1.534a1.891,1.891,0,0,0-1.684,0l-3.51,1.755a.895.895,0,1,0,.8,1.6Z" transform="translate(-43.771 -263.498)"/>
          <path id="Path_1175445" data-name="Path 1175445" d="M316.06,302.74l3.51-1.755a.094.094,0,0,1,.083,0l3.069,1.534a1.891,1.891,0,0,0,1.684,0l3.069-1.534a.094.094,0,0,1,.083,0l3.51,1.755a.895.895,0,1,0,.8-1.6l-3.51-1.755a1.891,1.891,0,0,0-1.684,0l-3.069,1.534a.094.094,0,0,1-.083,0l-3.069-1.534a1.891,1.891,0,0,0-1.684,0l-3.51,1.755a.895.895,0,1,0,.8,1.6Z" transform="translate(-277.218 -263.498)"/>
        </g>
      </g>
    </g>
  </g>
</svg>
