<svg xmlns="http://www.w3.org/2000/svg" xmlns:xlink="http://www.w3.org/1999/xlink" width="110" height="110" viewBox="0 0 110 110">
  <defs>
    <filter id="Path_982547" x="0" y="0" width="110" height="110" filterUnits="userSpaceOnUse">
      <feOffset dy="3" input="SourceAlpha"/>
      <feGaussianBlur stdDeviation="3" result="blur"/>
      <feFlood flood-opacity="0.161"/>
      <feComposite operator="in" in2="blur"/>
      <feComposite in="SourceGraphic"/>
    </filter>
  </defs>
  <g id="Group_1223174" data-name="Group 1223174" transform="translate(145 -1138.647)">
    <g id="Group_1222780" data-name="Group 1222780">
      <g id="Group_1222172" data-name="Group 1222172" transform="translate(-1259 -1204.896)">
        <g id="Group_1211001" data-name="Group 1211001" transform="translate(1123 2349.543)">
          <g id="Group_1200151" data-name="Group 1200151" transform="translate(0 0)">
            <g id="Group_1185952" data-name="Group 1185952" transform="translate(0 0)">
              <g id="Group_1184115" data-name="Group 1184115" transform="translate(0 0)">
                <g id="Group_1183744" data-name="Group 1183744">
                  <g id="Group_1181546" data-name="Group 1181546">
                    <g id="Group_1177563" data-name="Group 1177563">
                      <g id="Group_1173148" data-name="Group 1173148" transform="translate(0 0)">
                        <g id="Group_1163803" data-name="Group 1163803" transform="translate(0 0)">
                          <g id="Group_1163015" data-name="Group 1163015" transform="translate(0 0)">
                            <g id="Group_1157017" data-name="Group 1157017">
                              <g id="Group_1155793" data-name="Group 1155793">
                                <g id="Group_1154704" data-name="Group 1154704">
                                  <g id="Group_1150790" data-name="Group 1150790">
                                    <g id="Group_1154214" data-name="Group 1154214">
                                      <g id="Group_1152583" data-name="Group 1152583">
                                        <g id="Group_1146973" data-name="Group 1146973">
                                          <g id="Group_1146954" data-name="Group 1146954">
                                            <g transform="matrix(1, 0, 0, 1, -9, -6)" filter="url(#Path_982547)">
                                              <g id="Path_982547-2" data-name="Path 982547" transform="translate(9 6)" fill="#f9e3d4">
                                                <path d="M 46.00000381469727 90.49986267089844 C 39.99188232421875 90.49986267089844 34.16427230834961 89.32350158691406 28.67905807495117 87.00344848632812 C 23.38020324707031 84.76223754882812 18.62104415893555 81.55341339111328 14.53375053405762 77.46613311767578 C 10.44647026062012 73.37885284423828 7.237643718719482 68.61968994140625 4.996417045593262 63.32085037231445 C 2.676363706588745 57.83565139770508 1.500003814697266 52.00805282592773 1.500003814697266 45.99993133544922 C 1.500003814697266 39.99182510375977 2.676363706588745 34.16422653198242 4.996417045593262 28.67901039123535 C 7.237643718719482 23.38017082214355 10.44647026062012 18.62101173400879 14.53375053405762 14.53373146057129 C 18.62104415893555 10.44645118713379 23.38020324707031 7.237624645233154 28.67905807495117 4.996411323547363 C 34.16427230834961 2.676357984542847 39.99188232421875 1.499997973442078 46.00000381469727 1.499997973442078 C 52.00812530517578 1.499997973442078 57.83573532104492 2.676357984542847 63.32094955444336 4.996411323547363 C 68.61980438232422 7.237624645233154 73.37896728515625 10.44645118713379 77.46625518798828 14.53373146057129 C 81.55353546142578 18.62101173400879 84.76236724853516 23.38017082214355 87.00359344482422 28.67901039123535 C 89.32364654541016 34.16422653198242 90.5 39.99182510375977 90.5 45.99993133544922 C 90.5 52.00805282592773 89.32364654541016 57.83565139770508 87.00359344482422 63.32085037231445 C 84.76236724853516 68.61968994140625 81.55353546142578 73.37885284423828 77.46625518798828 77.46613311767578 C 73.37896728515625 81.55341339111328 68.61980438232422 84.76223754882812 63.32094955444336 87.00344848632812 C 57.83573532104492 89.32350158691406 52.00812530517578 90.49986267089844 46.00000381469727 90.49986267089844 Z" stroke="none"/>
                                                <path d="M 46.00000381469727 3 C 40.19371795654297 3 34.56270217895508 4.136505126953125 29.26337432861328 6.377914428710938 C 24.14333343505859 8.54351806640625 19.54441833496094 11.64438629150391 15.59440612792969 15.59439086914062 C 11.64440155029297 19.54440307617188 8.54351806640625 24.14330291748047 6.377914428710938 29.26334381103516 C 4.136505126953125 34.56266021728516 3.000007629394531 40.19366073608398 3.000007629394531 45.99993133544922 C 3.000007629394531 51.80620193481445 4.136505126953125 57.43720245361328 6.377914428710938 62.73651885986328 C 8.54351806640625 67.85655975341797 11.64440155029297 72.45545959472656 15.59440612792969 76.40547180175781 C 19.54441833496094 80.35547637939453 24.14333343505859 83.45634460449219 29.26337432861328 85.6219482421875 C 34.56270217895508 87.86335754394531 40.19371795654297 88.99986267089844 46.00000381469727 88.99986267089844 C 51.80628967285156 88.99986267089844 57.43730545043945 87.86335754394531 62.73661804199219 85.6219482421875 C 67.85667419433594 83.45634460449219 72.45557403564453 80.35547637939453 76.40558624267578 76.40547180175781 C 80.35560607910156 72.45545959472656 83.45647430419922 67.85655975341797 85.62207794189453 62.73651885986328 C 87.86350250244141 57.43720245361328 89 51.80620193481445 89 45.99993133544922 C 89 40.19366073608398 87.86350250244141 34.56266021728516 85.62207794189453 29.26334381103516 C 83.45647430419922 24.14330291748047 80.35560607910156 19.54440307617188 76.40558624267578 15.59439086914062 C 72.45557403564453 11.64438629150391 67.85667419433594 8.54351806640625 62.73661804199219 6.377914428710938 C 57.43730545043945 4.136505126953125 51.80628967285156 3 46.00000381469727 3 M 46.00000381469727 0 C 71.40509033203125 0 92 20.59487152099609 92 45.99993133544922 C 92 71.40499114990234 71.40509033203125 91.99986267089844 46.00000381469727 91.99986267089844 C 20.59490203857422 91.99986267089844 7.62939453125e-06 71.40499114990234 7.62939453125e-06 45.99993133544922 C 7.62939453125e-06 20.59487152099609 20.59490203857422 0 46.00000381469727 0 Z" stroke="none" fill="#eca675"/>
                                              </g>
                                            </g>
                                          </g>
                                        </g>
                                      </g>
                                    </g>
                                  </g>
                                </g>
                              </g>
                            </g>
                          </g>
                        </g>
                      </g>
                    </g>
                  </g>
                </g>
              </g>
            </g>
          </g>
        </g>
      </g>
      <g id="tribunal-de-justicia_3_" data-name="tribunal-de-justicia (3)" transform="translate(-126.473 1163.701)">
        <g id="Group_1222802" data-name="Group 1222802" transform="translate(1.177 1.177)">
          <g id="Group_1222782" data-name="Group 1222782" transform="translate(23.531 4.706)">
            <path id="Path_1174845" data-name="Path 1174845" d="M44.531,12.059v4.706a2.36,2.36,0,0,0-2.353-2.353H39.825v-.894a3.811,3.811,0,0,0-3.812-3.812,3.855,3.855,0,0,0-1.694.4l-1.553.777-1.553-.777a3.855,3.855,0,0,0-1.694-.4,3.816,3.816,0,0,0-3.812,3.812v.894H23.353A2.37,2.37,0,0,0,21,16.766V12.059A7.065,7.065,0,0,1,28.059,5h9.412A7.065,7.065,0,0,1,44.531,12.059Z" transform="translate(-21 -5)" fill="#b27946"/>
          </g>
          <g id="Group_1222783" data-name="Group 1222783" transform="translate(30.59 0)">
            <path id="Path_1174846" data-name="Path 1174846" d="M36.412,5.706H27a4.706,4.706,0,0,1,9.412,0Z" transform="translate(-27 -1)" fill="#b27946"/>
          </g>
          <g id="Group_1222784" data-name="Group 1222784" transform="translate(0 30.59)">
            <path id="Path_1174847" data-name="Path 1174847" d="M15.119,28.177V30.53a1.18,1.18,0,0,1-1.177,1.177H2.177A1.18,1.18,0,0,1,1,30.53V28.177A1.18,1.18,0,0,1,2.177,27H13.942A1.18,1.18,0,0,1,15.119,28.177Z" transform="translate(-1 -27)" fill="#cf9e76"/>
          </g>
          <g id="Group_1222785" data-name="Group 1222785" transform="translate(4.706)">
            <path id="Path_1174848" data-name="Path 1174848" d="M9.706,2.177V31.59H5V2.177A1.18,1.18,0,0,1,6.177,1H8.53A1.18,1.18,0,0,1,9.706,2.177Z" transform="translate(-5 -1)" fill="#dfb28b"/>
          </g>
          <g id="Group_1222786" data-name="Group 1222786" transform="translate(4.706 35.297)">
            <path id="Path_1174849" data-name="Path 1174849" d="M9.706,40.412v3.53A1.18,1.18,0,0,1,8.53,45.119H6.177A1.18,1.18,0,0,1,5,43.942V31H9.706Z" transform="translate(-5 -31)" fill="#b27946"/>
          </g>
          <g id="Group_1222787" data-name="Group 1222787" transform="translate(34.567 47.215)">
            <path id="Path_1174850" data-name="Path 1174850" d="M36.722,41.13,39.981,50.1l-9.6-5.342Z" transform="translate(-30.38 -41.13)" fill="#aab2bd"/>
          </g>
          <g id="Group_1222788" data-name="Group 1222788" transform="translate(26.731 44.709)">
            <path id="Path_1174851" data-name="Path 1174851" d="M36.992,39l.906,2.506L31.556,45.13,23.72,49.613,27.579,39Z" transform="translate(-23.72 -39)" fill="#ccd1d9"/>
          </g>
          <g id="Group_1222789" data-name="Group 1222789" transform="translate(21.178 50.839)">
            <path id="Path_1174852" data-name="Path 1174852" d="M40.178,63.964H19l5.553-15.272,7.836-4.483,9.6,5.342,5.247,14.413Z" transform="translate(-19 -44.21)" fill="#e6e9ed"/>
          </g>
          <g id="Group_1222790" data-name="Group 1222790" transform="translate(28.237 35.297)">
            <path id="Path_1174853" data-name="Path 1174853" d="M39.048,33.318a2.957,2.957,0,0,1-.141,1.741l-2.141,5.353H27.353l-2.141-5.353a.922.922,0,0,1-.059-.165A2.751,2.751,0,0,1,25,33.965,2.968,2.968,0,0,1,27.965,31h8.189a2.933,2.933,0,0,1,2.094.871A2.9,2.9,0,0,1,39.048,33.318Z" transform="translate(-25 -31)" fill="#e6e9ed"/>
          </g>
          <g id="Group_1222791" data-name="Group 1222791" transform="translate(61.181 40.003)">
            <path id="Path_1174854" data-name="Path 1174854" d="M53,35h9.412A4.706,4.706,0,1,1,53,35Z" transform="translate(-53 -35)" fill="#fcd770"/>
          </g>
          <g id="Group_1222792" data-name="Group 1222792" transform="translate(47.062 40.003)">
            <path id="Path_1174855" data-name="Path 1174855" d="M41,35h9.412A4.706,4.706,0,1,1,41,35Z" transform="translate(-41 -35)" fill="#fcd770"/>
          </g>
          <g id="Group_1222793" data-name="Group 1222793" transform="translate(56.475 4.706)">
            <path id="Path_1174856" data-name="Path 1174856" d="M53.706,14.412v1.177a1.18,1.18,0,0,1-1.177,1.177H50.177A1.18,1.18,0,0,1,49,15.589V6.177A1.18,1.18,0,0,1,50.177,5H52.53a1.18,1.18,0,0,1,1.177,1.177v8.236Z" transform="translate(-49 -5)" fill="#969faa"/>
          </g>
          <g id="Group_1222794" data-name="Group 1222794" transform="translate(61.181 7.059)">
            <path id="Path_1174857" data-name="Path 1174857" d="M57.706,9.353v4.706a2.36,2.36,0,0,1-2.353,2.353A2.37,2.37,0,0,1,53,14.059V9.353A2.36,2.36,0,0,1,55.353,7a2.37,2.37,0,0,1,2.353,2.353Z" transform="translate(-53 -7)" fill="#f0d0b4"/>
          </g>
          <g id="Group_1222795" data-name="Group 1222795" transform="translate(38.826 9.412)">
            <path id="Path_1174858" data-name="Path 1174858" d="M54,25.472v4.706H46.942l-2.565,5.13A17.351,17.351,0,0,1,37.459,37.2a2.9,2.9,0,0,0-.8-1.447,2.933,2.933,0,0,0-2.094-.871H34l1.177-4.706A11.77,11.77,0,0,0,46.942,18.412V11.353A2.36,2.36,0,0,1,49.3,9h2.353v5.883a1.18,1.18,0,0,0,1.177,1.177H54v4.706a2.353,2.353,0,1,0,0,4.706Z" transform="translate(-34 -9)" fill="#f0d0b4"/>
          </g>
          <g id="Group_1222796" data-name="Group 1222796" transform="translate(9.412 30.59)">
            <path id="Path_1174859" data-name="Path 1174859" d="M30.178,27l1.177,4.706H30.79a2.968,2.968,0,0,0-2.965,2.965,2.751,2.751,0,0,0,.153.929L14.059,40.566a9.333,9.333,0,0,1-3.165.553H9V31.706h3.53l2.353,2.353,8.965-5.377A11.734,11.734,0,0,1,29.907,27Z" transform="translate(-9 -27)" fill="#f0d0b4"/>
          </g>
          <g id="Group_1222797" data-name="Group 1222797" transform="translate(42.356 14.119)">
            <path id="Path_1174860" data-name="Path 1174860" d="M39.353,13a2.36,2.36,0,0,1,2.353,2.353,2.37,2.37,0,0,1-2.353,2.353H37V13Z" transform="translate(-37 -13)" fill="#f0d0b4"/>
          </g>
          <g id="Group_1222798" data-name="Group 1222798" transform="translate(28.237 18.825)">
            <path id="Path_1174861" data-name="Path 1174861" d="M39.119,17v2.212a6.21,6.21,0,0,1-4.706,6.024v3.53h2.353l-1.177,4.706H28.53l-1.177-4.706h2.353v-3.53A6.216,6.216,0,0,1,25,19.212V17Z" transform="translate(-25 -17)" fill="#f0d0b4"/>
          </g>
          <g id="Group_1222799" data-name="Group 1222799" transform="translate(23.531 14.119)">
            <path id="Path_1174862" data-name="Path 1174862" d="M25.706,13v4.706H23.353A2.36,2.36,0,0,1,21,15.353,2.37,2.37,0,0,1,23.353,13Z" transform="translate(-21 -13)" fill="#f0d0b4"/>
          </g>
          <g id="Group_1222800" data-name="Group 1222800" transform="translate(28.237 9.412)">
            <path id="Path_1174863" data-name="Path 1174863" d="M32.059,10.177,33.612,9.4A3.855,3.855,0,0,1,35.307,9a3.811,3.811,0,0,1,3.812,3.812v.894H25v-.894A3.816,3.816,0,0,1,28.812,9a3.855,3.855,0,0,1,1.694.4Z" transform="translate(-25 -9)" fill="#f0d0b4"/>
          </g>
          <g id="Group_1222801" data-name="Group 1222801" transform="translate(28.237 14.119)">
            <path id="Path_1174864" data-name="Path 1174864" d="M25,13H39.119v4.706H25Z" transform="translate(-25 -13)" fill="#75b1f2"/>
          </g>
        </g>
        <path id="Path_1174865" data-name="Path 1174865" d="M67.791,30.59h-6.61v-2.57a3.525,3.525,0,0,0,2.353-3.313H61.181A1.177,1.177,0,1,1,60,23.531h1.177V18.825a2.333,2.333,0,0,0,1.558-.6,3.528,3.528,0,0,0,5.5-2.926V10.589a3.534,3.534,0,0,0-3.53-3.53,3.49,3.49,0,0,0-1.177.216V7.059a2.355,2.355,0,0,0-2.353-2.353H58.828a2.355,2.355,0,0,0-2.353,2.353V9.412H55.3a3.534,3.534,0,0,0-3.53,3.53V20A10.6,10.6,0,0,1,41.179,30.59H40V29.1a7.378,7.378,0,0,0,4.706-6.886V21.178h1.177a3.534,3.534,0,0,0,3.53-3.53V12.942a8.244,8.244,0,0,0-7.17-8.159,5.875,5.875,0,0,0-11.544,0,8.244,8.244,0,0,0-7.17,8.159v4.706a3.534,3.534,0,0,0,3.53,3.53h1.177V22.21A7.38,7.38,0,0,0,32.944,29.1V30.59H31.5a12.938,12.938,0,0,0-6.658,1.845l-8.183,4.91L16,36.693a2.342,2.342,0,0,0,.468-1.4V32.944a2.355,2.355,0,0,0-2.353-2.353H11.766V2.353A2.355,2.355,0,0,0,9.412,0H7.059A2.355,2.355,0,0,0,4.706,2.353V30.59H2.353A2.355,2.355,0,0,0,0,32.944V35.3A2.355,2.355,0,0,0,2.353,37.65H4.706V49.415a2.355,2.355,0,0,0,2.353,2.353H9.412a2.355,2.355,0,0,0,2.353-2.353V47.062h.722a10.571,10.571,0,0,0,3.56-.617l12.84-4.585,1.619,4.046-9.832,27.04h31.6L42.438,45.906l1.975-4.939a4.069,4.069,0,0,0,.256-1.128,18.58,18.58,0,0,0,3.274-.7L47.062,40.9v.278a5.883,5.883,0,0,0,11.766,0V40.9l-3.979-7.958H65.16L61.181,40.9v.278a5.883,5.883,0,1,0,11.766,0V40.9ZM64.711,9.412a1.178,1.178,0,0,1,1.177,1.177V15.3a1.177,1.177,0,0,1-2.353,0V10.589A1.178,1.178,0,0,1,64.711,9.412ZM58.828,7.059h2.353V15.3s0,.007,0,.009v1.167H58.828Zm-16.6,33.035-1.846,4.614H32.564L30.718,40.1a1.786,1.786,0,0,1,1.657-2.447h8.2a1.784,1.784,0,0,1,1.655,2.445Zm3.657-21.27H44.709V16.472h1.177a1.177,1.177,0,0,1,0,2.353Zm-3.53-2.353v2.353H30.59V16.472ZM30.619,14.119a2.625,2.625,0,0,1,2.6-2.353,2.653,2.653,0,0,1,1.177.278l2.075,1.038,2.075-1.038a2.619,2.619,0,0,1,3.779,2.075ZM36.473,2.353a3.525,3.525,0,0,1,3.313,2.353H33.161A3.522,3.522,0,0,1,36.473,2.353ZM31.767,7.059h9.412a5.889,5.889,0,0,1,5.883,5.883v1.393a3.49,3.49,0,0,0-1.177-.216h-1.2A4.968,4.968,0,0,0,37.5,9.938l-1.022.512-1.022-.512a4.968,4.968,0,0,0-7.185,4.18h-1.2a3.49,3.49,0,0,0-1.177.216V12.942A5.889,5.889,0,0,1,31.767,7.059ZM27.061,18.825a1.177,1.177,0,0,1,0-2.353h1.177v2.353Zm3.53,3.385V21.178H42.356V22.21A5.03,5.03,0,0,1,38.542,27.1l-.892.222v5.625h2.024L39.085,35.3H33.861l-.588-2.353H35.3V27.318L34.4,27.1A5.03,5.03,0,0,1,30.59,22.21ZM7.059,2.353H9.412V30.59H7.059ZM2.353,32.944H14.119V35.3H2.353ZM7.059,49.415V37.65H9.412V49.415Zm21.178-9.982c0,.053.013.1.015.156l-13,4.64a8.222,8.222,0,0,1-2.77.479h-.722V37.65h1.866l2.658,2.658,9.76-5.856a10.566,10.566,0,0,1,4.811-1.466l.6,2.418A4.141,4.141,0,0,0,28.237,39.433Zm4.353,7.629h7.765l.291.8-10.534,6.02ZM41.462,50.1,43.168,54.8,38.14,52Zm3.014,20.489-2.148-9.668-2.3.511,2.035,9.157H37.65V58.828H35.3V70.593H30.881l2.035-9.157-2.3-.511L28.47,70.593H24.035L28.868,57.3l6.885-3.934,8.642,4.8,4.517,12.424Zm8.469-25.884a3.523,3.523,0,0,1-3.312-2.353h6.624a3.523,3.523,0,0,1-3.312,2.353ZM55.748,40H50.143l2.8-5.605Zm-3.53-9.412L49.512,36a16.287,16.287,0,0,1-5.291,1.521A4.131,4.131,0,0,0,41.483,35.4L42.11,32.9A12.949,12.949,0,0,0,54.122,20V12.942A1.178,1.178,0,0,1,55.3,11.766h1.177v4.706a2.355,2.355,0,0,0,2.353,2.353v2.554a3.52,3.52,0,0,0,0,6.642v2.57ZM67.064,34.4,69.866,40H64.261Zm0,10.311a3.523,3.523,0,0,1-3.312-2.353h6.624a3.523,3.523,0,0,1-3.312,2.353Z" transform="translate(0)"/>
      </g>
    </g>
  </g>
</svg>
