<svg xmlns="http://www.w3.org/2000/svg" xmlns:xlink="http://www.w3.org/1999/xlink" width="108" height="108" viewBox="0 0 108 108">
  <defs>
    <filter id="Path_904820" x="0" y="0" width="108" height="108" filterUnits="userSpaceOnUse">
      <feOffset dy="3" input="SourceAlpha"/>
      <feGaussianBlur stdDeviation="3" result="blur"/>
      <feFlood flood-opacity="0.161"/>
      <feComposite operator="in" in2="blur"/>
      <feComposite in="SourceGraphic"/>
    </filter>
  </defs>
  <g id="Group_1223168" data-name="Group 1223168" transform="translate(-618 -309)">
    <g id="Group_1222415" data-name="Group 1222415">
      <g id="Group_1222170" data-name="Group 1222170" transform="translate(627 315)">
        <g id="Group_1220570" data-name="Group 1220570" transform="translate(0 0)">
          <g id="Group_1219944" data-name="Group 1219944" transform="translate(0 0)">
            <g id="Group_1209015" data-name="Group 1209015">
              <g id="Group_1207774" data-name="Group 1207774">
                <g id="Group_1206630" data-name="Group 1206630">
                  <g id="Group_1185091" data-name="Group 1185091">
                    <g id="Group_1179560" data-name="Group 1179560">
                      <g id="Group_1173787" data-name="Group 1173787">
                        <g id="Group_1171910" data-name="Group 1171910">
                          <g id="Group_1167341" data-name="Group 1167341">
                            <g id="Group_1166792" data-name="Group 1166792">
                              <g transform="matrix(1, 0, 0, 1, -9, -6)" filter="url(#Path_904820)">
                                <g id="Path_904820-2" data-name="Path 904820" transform="translate(9 6)" fill="#fcf5f0">
                                  <path d="M 44.99996948242188 88.50006866455078 C 39.12684631347656 88.50006866455078 33.43020629882812 87.35014343261719 28.06828117370605 85.08222961425781 C 22.88851928710938 82.89136505126953 18.23629379272461 79.75465393066406 14.2408447265625 75.75920867919922 C 10.24540710449219 71.76374053955078 7.108694553375244 67.11151885986328 4.917831897735596 61.93174362182617 C 2.649931907653809 56.56980514526367 1.500007033348083 50.87315368652344 1.500007033348083 45.00003051757812 C 1.500007033348083 39.12690734863281 2.649931907653809 33.43025588989258 4.917831897735596 28.06831741333008 C 7.108694553375244 22.88854217529297 10.24540710449219 18.23631858825684 14.2408447265625 14.24086761474609 C 18.23629379272461 10.24541759490967 22.88851928710938 7.10869312286377 28.06828117370605 4.917842864990234 C 33.43020629882812 2.649930477142334 39.12684631347656 1.500005483627319 44.99996948242188 1.500005483627319 C 50.87309265136719 1.500005483627319 56.56973266601562 2.649930477142334 61.93165588378906 4.917842864990234 C 67.11143493652344 7.10869312286377 71.76364135742188 10.24541759490967 75.75909423828125 14.24086761474609 C 79.75454711914062 18.23631858825684 82.89125823974609 22.88854217529297 85.08212280273438 28.06831741333008 C 87.35002136230469 33.43025588989258 88.49994659423828 39.12690734863281 88.49994659423828 45.00003051757812 C 88.49994659423828 50.87315368652344 87.35002136230469 56.56980514526367 85.08212280273438 61.93174362182617 C 82.89125823974609 67.11151885986328 79.75454711914062 71.76374053955078 75.75909423828125 75.75920867919922 C 71.76364135742188 79.75465393066406 67.11143493652344 82.89136505126953 61.93165588378906 85.08222961425781 C 56.56973266601562 87.35014343261719 50.87309265136719 88.50006866455078 44.99996948242188 88.50006866455078 Z" stroke="none"/>
                                  <path d="M 44.99996948242188 3 C 39.32868194580078 3 33.82863998413086 4.110061645507812 28.65261077880859 6.299346923828125 C 23.65164184570312 8.414573669433594 19.15968322753906 11.44334411621094 15.301513671875 15.30152893066406 C 11.44332885742188 19.15969848632812 8.414566040039062 23.65167236328125 6.299324035644531 28.65264511108398 C 4.110054016113281 33.82868576049805 3 39.32874298095703 3 45.00003051757812 C 3 50.67131805419922 4.110054016113281 56.1713752746582 6.299324035644531 61.34741592407227 C 8.414566040039062 66.348388671875 11.44332885742188 70.84036254882812 15.301513671875 74.69853210449219 C 19.15968322753906 78.55671691894531 23.65164184570312 81.58548736572266 28.65261077880859 83.70071411132812 C 33.82863998413086 85.88999938964844 39.32868194580078 87.00006103515625 44.99996948242188 87.00006103515625 C 50.67125701904297 87.00006103515625 56.17129898071289 85.88999938964844 61.34732818603516 83.70071411132812 C 66.34829711914062 81.58548736572266 70.84025573730469 78.55671691894531 74.69842529296875 74.69853210449219 C 78.55661010742188 70.84036254882812 81.58537292480469 66.348388671875 83.70061492919922 61.34741592407227 C 85.88988494873047 56.1713752746582 86.99993896484375 50.67131805419922 86.99993896484375 45.00003051757812 C 86.99993896484375 39.32874298095703 85.88988494873047 33.82868576049805 83.70061492919922 28.65264511108398 C 81.58537292480469 23.65167236328125 78.55661010742188 19.15969848632812 74.69842529296875 15.30152893066406 C 70.84025573730469 11.44334411621094 66.34829711914062 8.414573669433594 61.34732818603516 6.299346923828125 C 56.17129898071289 4.110061645507812 50.67125701904297 3 44.99996948242188 3 M 44.99996948242188 0 C 69.85276794433594 0 89.99993896484375 20.14720153808594 89.99993896484375 45.00003051757812 C 89.99993896484375 69.85285949707031 69.85276794433594 90.00006103515625 44.99996948242188 90.00006103515625 C 20.14717102050781 90.00006103515625 0 69.85285949707031 0 45.00003051757812 C 0 20.14720153808594 20.14717102050781 0 44.99996948242188 0 Z" stroke="none" fill="#eca675"/>
                                </g>
                              </g>
                            </g>
                          </g>
                        </g>
                      </g>
                    </g>
                  </g>
                </g>
              </g>
            </g>
          </g>
        </g>
      </g>
      <g id="obediente_9_" data-name="obediente (9)" transform="translate(615.922 326.68)">
        <g id="Group_1222391" data-name="Group 1222391" transform="translate(30.564 1.147)">
          <path id="Path_1174427" data-name="Path 1174427" d="M165.793,7.5H117.08a.765.765,0,0,0-.765.765V29.471h5.016a3.748,3.748,0,0,1,.262,7.488v4.65h0a1.529,1.529,0,0,1,1.3,1.51v9.5a1.529,1.529,0,0,1-1.3,1.51h0v4.65a3.748,3.748,0,0,1-.262,7.488h-5.016V72.54h10.557a1.53,1.53,0,0,1,1.53,1.53v3.044s0,0,0,0h1.165a1.53,1.53,0,0,1,1.53,1.53v4.879h35.462V8.265A.765.765,0,0,0,165.793,7.5Z" transform="translate(-116.315 -7.5)" fill="#fff3de"/>
        </g>
        <g id="Group_1222392" data-name="Group 1222392" transform="translate(30.564 1.147)">
          <path id="Path_1174428" data-name="Path 1174428" d="M121.331,29.471c.046,0,.091,0,.136,0V8.265a.765.765,0,0,1,.765-.765H117.08a.765.765,0,0,0-.765.765V29.471Z" transform="translate(-116.315 -7.5)" fill="#ffe5c2"/>
          <path id="Path_1174429" data-name="Path 1174429" d="M121.331,391.63h-5.016v6.277h5.153v-6.281C121.422,391.629,121.377,391.63,121.331,391.63Z" transform="translate(-116.315 -332.867)" fill="#ffe5c2"/>
        </g>
        <g id="Group_1222410" data-name="Group 1222410" transform="translate(16.225 23.118)">
          <g id="Group_1222393" data-name="Group 1222393" transform="translate(20.914 15.781)">
            <path id="Path_1174430" data-name="Path 1174430" d="M159.3,254.29h7.081v5.231H159.3Z" transform="translate(-159.296 -254.29)" fill="#883f2e"/>
            <path id="Path_1174431" data-name="Path 1174431" d="M237.5,254.29h10.114v5.231H237.5Z" transform="translate(-225.539 -254.29)" fill="#883f2e"/>
          </g>
          <g id="Group_1222394" data-name="Group 1222394" transform="translate(20.914 18.49)">
            <path id="Path_1174432" data-name="Path 1174432" d="M159.3,272h7.081v2.522H159.3Z" transform="translate(-159.296 -272)" fill="#6d3326"/>
            <path id="Path_1174433" data-name="Path 1174433" d="M237.5,272h10.114v2.522H237.5Z" transform="translate(-225.539 -272)" fill="#6d3326"/>
          </g>
          <g id="Group_1222395" data-name="Group 1222395" transform="translate(42.99 14.56)">
            <path id="Path_1174434" data-name="Path 1174434" d="M332.039,250.146a3.836,3.836,0,0,1-3.836,3.836H304.488a.872.872,0,0,1-.872-.872v-5.929a.872.872,0,0,1,.872-.872H328.2A3.836,3.836,0,0,1,332.039,250.146Z" transform="translate(-303.616 -246.31)" fill="#ca6e59"/>
          </g>
          <g id="Group_1222396" data-name="Group 1222396" transform="translate(42.99 14.56)">
            <path id="Path_1174435" data-name="Path 1174435" d="M308.83,250.7a.872.872,0,0,1-.872-.872V246.31h-3.47a.872.872,0,0,0-.872.872v5.929a.872.872,0,0,0,.872.872H328.2A3.836,3.836,0,0,0,332,250.7Z" transform="translate(-303.616 -246.31)" fill="#bb5d4c"/>
          </g>
          <g id="Group_1222397" data-name="Group 1222397" transform="translate(27.995 14.56)">
            <path id="Path_1174436" data-name="Path 1174436" d="M210.467,247.076v6.143a.765.765,0,0,1-.765.765H206.35a.765.765,0,0,1-.765-.765v-6.143a.765.765,0,0,1,.765-.765H209.7A.765.765,0,0,1,210.467,247.076Z" transform="translate(-205.585 -246.311)" fill="#ca6e59"/>
          </g>
          <g id="Group_1222398" data-name="Group 1222398" transform="translate(27.995 14.56)">
            <path id="Path_1174437" data-name="Path 1174437" d="M207.8,253.219v-6.143a.765.765,0,0,1,.765-.765H206.35a.765.765,0,0,0-.765.765v6.143a.765.765,0,0,0,.765.765h2.218A.765.765,0,0,1,207.8,253.219Z" transform="translate(-205.585 -246.311)" fill="#bb5d4c"/>
          </g>
          <g id="Group_1222399" data-name="Group 1222399" transform="translate(9.503 7.488)">
            <path id="Path_1174438" data-name="Path 1174438" d="M94.584,312.317H84.936a1.541,1.541,0,0,1-.233-.02v4.65c.087-.006.173-.01.262-.01h9.59c.088,0,.175,0,.262.01V312.3A1.518,1.518,0,0,1,94.584,312.317Z" transform="translate(-84.703 -295.131)" fill="#883f2e"/>
            <path id="Path_1174439" data-name="Path 1174439" d="M84.936,312.317a1.541,1.541,0,0,1-.233-.02v4.65c.087-.006.173-.01.262-.01h3.591v-4.621H84.936Z" transform="translate(-84.703 -295.131)" fill="#6d3326"/>
            <path id="Path_1174440" data-name="Path 1174440" d="M84.936,204.71h9.648a1.537,1.537,0,0,1,.233.02v-4.65c-.087.006-.174.01-.262.01h-9.59c-.088,0-.175,0-.262-.01v4.65a1.537,1.537,0,0,1,.233-.02Z" transform="translate(-84.703 -200.079)" fill="#883f2e"/>
            <path id="Path_1174441" data-name="Path 1174441" d="M84.936,204.709h3.619v-4.621H84.965c-.088,0-.175,0-.262-.01v4.65A1.557,1.557,0,0,1,84.936,204.709Z" transform="translate(-84.703 -200.078)" fill="#6d3326"/>
          </g>
          <g id="Group_1222400" data-name="Group 1222400" transform="translate(8.206 12.119)">
            <path id="Path_1174442" data-name="Path 1174442" d="M88.932,231.882v9.5a1.53,1.53,0,0,1-1.53,1.53H77.755a1.53,1.53,0,0,1-1.53-1.53v-9.5a1.53,1.53,0,0,1,1.53-1.53H87.4A1.53,1.53,0,0,1,88.932,231.882Z" transform="translate(-76.225 -230.352)" fill="#ca6e59"/>
          </g>
          <g id="Group_1222401" data-name="Group 1222401" transform="translate(8.206 12.119)">
            <path id="Path_1174443" data-name="Path 1174443" d="M81.392,241.377v-9.5a1.53,1.53,0,0,1,1.53-1.53H77.755a1.53,1.53,0,0,0-1.53,1.53v9.5a1.53,1.53,0,0,0,1.53,1.53h5.167A1.53,1.53,0,0,1,81.392,241.377Z" transform="translate(-76.225 -230.352)" fill="#bb5d4c"/>
          </g>
          <g id="Group_1222404" data-name="Group 1222404" transform="translate(0 43.07)">
            <path id="Path_1174444" data-name="Path 1174444" d="M63.917,437.415a1.565,1.565,0,0,0,.008-.157v-3.044a1.53,1.53,0,0,0-1.53-1.53H41.725a1.53,1.53,0,0,0-1.53,1.53v3.044a1.565,1.565,0,0,0,.008.157Z" transform="translate(-37.5 -432.685)" fill="#ca6e59"/>
            <path id="Path_1174445" data-name="Path 1174445" d="M45.374,437.415a1.565,1.565,0,0,1-.008-.157v-3.044a1.53,1.53,0,0,1,1.53-1.53H41.725a1.53,1.53,0,0,0-1.53,1.53v3.044a1.564,1.564,0,0,0,.008.157Z" transform="translate(-37.5 -432.685)" fill="#bb5d4c"/>
            <g id="Group_1222402" data-name="Group 1222402" transform="translate(0 4.577)">
              <path id="Path_1174446" data-name="Path 1174446" d="M51.7,469.016H23.343a.765.765,0,0,1-.765-.765v-4.114a1.53,1.53,0,0,1,1.53-1.53H50.168a1.53,1.53,0,0,1,1.53,1.53Z" transform="translate(-22.578 -462.608)" fill="#883f2e"/>
            </g>
            <g id="Group_1222403" data-name="Group 1222403" transform="translate(0 4.577)">
              <path id="Path_1174447" data-name="Path 1174447" d="M27.691,468.251v-4.114a1.53,1.53,0,0,1,1.53-1.53H24.108a1.53,1.53,0,0,0-1.53,1.53v4.114a.765.765,0,0,0,.765.765h5.113A.765.765,0,0,1,27.691,468.251Z" transform="translate(-22.578 -462.608)" fill="#6d3326"/>
            </g>
          </g>
          <g id="Group_1222409" data-name="Group 1222409" transform="translate(6.016)">
            <g id="Group_1222405" data-name="Group 1222405" transform="translate(0 29.294)">
              <path id="Path_1174448" data-name="Path 1174448" d="M78.993,346.382a3.749,3.749,0,0,1-3.749,3.749h-9.59a3.749,3.749,0,0,1,0-7.5h9.59A3.749,3.749,0,0,1,78.993,346.382Z" transform="translate(-61.905 -342.633)" fill="#ca6e59"/>
            </g>
            <g id="Group_1222406" data-name="Group 1222406" transform="translate(0 29.294)">
              <path id="Path_1174449" data-name="Path 1174449" d="M67.012,346.382a3.749,3.749,0,0,1,3.749-3.749H65.654a3.749,3.749,0,0,0,0,7.5h5.107A3.749,3.749,0,0,1,67.012,346.382Z" transform="translate(-61.905 -342.633)" fill="#bb5d4c"/>
            </g>
            <g id="Group_1222407" data-name="Group 1222407" transform="translate(0)">
              <path id="Path_1174450" data-name="Path 1174450" d="M78.993,154.877a3.749,3.749,0,0,1-3.749,3.749h-9.59a3.749,3.749,0,0,1,0-7.5h9.59A3.749,3.749,0,0,1,78.993,154.877Z" transform="translate(-61.905 -151.128)" fill="#ca6e59"/>
            </g>
            <g id="Group_1222408" data-name="Group 1222408">
              <path id="Path_1174451" data-name="Path 1174451" d="M67.012,154.877a3.749,3.749,0,0,1,3.749-3.749H65.654a3.749,3.749,0,0,0,0,7.5h5.107A3.749,3.749,0,0,1,67.012,154.877Z" transform="translate(-61.905 -151.128)" fill="#bb5d4c"/>
            </g>
          </g>
        </g>
        <g id="Group_1222413" data-name="Group 1222413" transform="translate(44.952 8.277)">
          <g id="Group_1222411" data-name="Group 1222411" transform="translate(0)">
            <circle id="Ellipse_14605" data-name="Ellipse 14605" cx="10.734" cy="10.734" r="10.734" fill="#4fc123"/>
          </g>
          <g id="Group_1222412" data-name="Group 1222412" transform="translate(0)">
            <path id="Path_1174452" data-name="Path 1174452" d="M215.516,64.841a10.737,10.737,0,0,1,8.162-10.421,10.734,10.734,0,1,0,0,20.843A10.737,10.737,0,0,1,215.516,64.841Z" transform="translate(-210.372 -54.107)" fill="#47a920"/>
          </g>
        </g>
        <g id="Group_1222414" data-name="Group 1222414" transform="translate(15.078 0)">
          <path id="Path_1174453" data-name="Path 1174453" d="M83.8,36.531H81.955V16.674a1.147,1.147,0,0,0-1.182-1.147,1.179,1.179,0,0,0-1.112,1.195V36.531H71.971a1.147,1.147,0,0,0,0,2.295H83.8a2.689,2.689,0,1,1,0,5.378H60.363V38.825h6.254a1.147,1.147,0,1,0,0-2.295H60.088a2.022,2.022,0,0,0-1.854,1.221H50.118a1.914,1.914,0,0,0-1.781-1.221H44.985A1.914,1.914,0,0,0,43.2,37.751H38.286v-.985a2.675,2.675,0,0,0-1.3-2.289V31.556a4.9,4.9,0,0,0-1.409-9.585H31.711V2.295H79.66V11.32a1.147,1.147,0,0,0,1.182,1.147,1.179,1.179,0,0,0,1.112-1.195V1.912A1.912,1.912,0,0,0,80.043,0H31.329a1.912,1.912,0,0,0-1.912,1.912V21.971H25.99a4.9,4.9,0,0,0-1.409,9.585v2.921a2.675,2.675,0,0,0-1.3,2.289v9.5a2.675,2.675,0,0,0,1.3,2.289v2.921a4.9,4.9,0,0,0,1.409,9.585h3.427V65.04H20.45a2.68,2.68,0,0,0-2.677,2.677v1.9h-.018a2.68,2.68,0,0,0-2.677,2.677v4.114a1.914,1.914,0,0,0,1.912,1.912H80.043a1.912,1.912,0,0,0,1.912-1.912V46.5H83.8a4.983,4.983,0,0,0,0-9.967ZM50.249,40.046h7.819v2.937H50.249Zm-4.882-1.221h2.588V44.2H45.367Zm-7.081,1.221h4.786v2.937H38.286Zm-14.9-13.179a2.6,2.6,0,0,1,2.6-2.6h9.59a2.6,2.6,0,1,1,0,5.2H25.99A2.6,2.6,0,0,1,23.388,26.867Zm2.573,19.777a.383.383,0,0,1-.382-.382v-9.5a.383.383,0,0,1,.382-.382h9.648a.383.383,0,0,1,.382.382v9.5a.383.383,0,0,1-.382.382Zm8.733,2.295v2.326H26.876V48.939ZM26.876,34.09V31.763h7.819V34.09ZM25.99,58.763a2.6,2.6,0,1,1,0-5.2h9.59a2.6,2.6,0,0,1,0,5.2ZM44.2,76.026H17.373V72.295a.383.383,0,0,1,.382-.382h7.1a1.147,1.147,0,1,0,0-2.295H20.067v-1.9a.383.383,0,0,1,.382-.382H41.121a.383.383,0,0,1,.382.382v1.9H30.21a1.147,1.147,0,1,0,0,2.295H43.816a.383.383,0,0,1,.382.382Zm35.462,0H46.493V72.295a2.68,2.68,0,0,0-2.677-2.677H43.8v-1.9a2.68,2.68,0,0,0-2.677-2.677H31.711V61.058h3.869a4.9,4.9,0,0,0,1.409-9.585V48.551a2.675,2.675,0,0,0,1.3-2.29v-.985H43.2A1.914,1.914,0,0,0,44.985,46.5h3.353a1.914,1.914,0,0,0,1.781-1.221h8.116A2.022,2.022,0,0,0,60.088,46.5H79.66V76.026Z" transform="translate(-15.078 0)"/>
          <path id="Path_1174454" data-name="Path 1174454" d="M202.872,58.488a11.881,11.881,0,1,0,11.881-11.881A11.894,11.894,0,0,0,202.872,58.488Zm21.467,0a9.586,9.586,0,1,1-9.586-9.586A9.6,9.6,0,0,1,224.339,58.488Z" transform="translate(-174.145 -39.478)"/>
          <path id="Path_1174455" data-name="Path 1174455" d="M248.3,103.436a1.147,1.147,0,0,0-1.623,1.622l3.529,3.529a1.147,1.147,0,0,0,1.623,0l5.47-5.47a1.147,1.147,0,1,0-1.623-1.622l-4.659,4.659Z" transform="translate(-210.967 -85.685)"/>
          <path id="Path_1174456" data-name="Path 1174456" d="M243.681,328.216a1.147,1.147,0,0,0,1.147,1.147h21.1a1.147,1.147,0,1,0,0-2.295h-21.1A1.147,1.147,0,0,0,243.681,328.216Z" transform="translate(-208.712 -277.037)"/>
          <path id="Path_1174457" data-name="Path 1174457" d="M322.525,363.546H311.647a1.147,1.147,0,1,0,0,2.295h10.878a1.147,1.147,0,1,0,0-2.295Z" transform="translate(-265.309 -307.934)"/>
          <path id="Path_1174458" data-name="Path 1174458" d="M244.828,365.841h6.244a1.147,1.147,0,0,0,0-2.295h-6.244a1.147,1.147,0,1,0,0,2.295Z" transform="translate(-208.712 -307.934)"/>
          <path id="Path_1174459" data-name="Path 1174459" d="M265.926,400.023h-21.1a1.147,1.147,0,0,0,0,2.295h21.1a1.147,1.147,0,0,0,0-2.295Z" transform="translate(-208.711 -338.832)"/>
          <path id="Path_1174460" data-name="Path 1174460" d="M352.171,436.5h-5.524a1.147,1.147,0,0,0,0,2.295h5.524a1.147,1.147,0,0,0,0-2.295Z" transform="translate(-294.955 -369.729)"/>
          <path id="Path_1174461" data-name="Path 1174461" d="M256.885,436.5H244.828a1.147,1.147,0,0,0,0,2.295h12.057a1.147,1.147,0,0,0,0-2.295Z" transform="translate(-208.712 -369.729)"/>
        </g>
      </g>
    </g>
  </g>
</svg>
