<svg xmlns="http://www.w3.org/2000/svg" xmlns:xlink="http://www.w3.org/1999/xlink" width="93.934" height="93.934" viewBox="0 0 93.934 93.934">
  <defs>
    <filter id="Path_978624" x="0" y="0" width="93.934" height="93.934" filterUnits="userSpaceOnUse">
      <feOffset dy="3" input="SourceAlpha"/>
      <feGaussianBlur stdDeviation="3" result="blur"/>
      <feFlood flood-opacity="0.161"/>
      <feComposite operator="in" in2="blur"/>
      <feComposite in="SourceGraphic"/>
    </filter>
  </defs>
  <g id="Group_1223224" data-name="Group 1223224" transform="translate(-820 -2099.533)">
    <g id="Group_1223124" data-name="Group 1223124">
      <g id="Group_1222261" data-name="Group 1222261" transform="translate(213.459 -3399.583)">
        <g id="Group_1219946" data-name="Group 1219946" transform="translate(615.541 5505.116)">
          <g id="Group_1208655" data-name="Group 1208655">
            <g id="Group_1208068" data-name="Group 1208068">
              <g id="Group_1144123" data-name="Group 1144123">
                <g transform="matrix(1, 0, 0, 1, -9, -6)" filter="url(#Path_978624)">
                  <g id="Path_978624-2" data-name="Path 978624" transform="translate(9 6)" fill="#f1ede8">
                    <path d="M 37.966796875 74.43359375 C 33.04315185546875 74.43359375 28.26757431030273 73.46962738037109 23.77274131774902 71.56847381591797 C 19.43047523498535 69.73184967041016 15.53040790557861 67.10224914550781 12.18087482452393 63.75271987915039 C 8.831341743469238 60.4031867980957 6.201741218566895 56.50312042236328 4.365118980407715 52.16086196899414 C 2.463963508605957 47.66601943969727 1.499996900558472 42.89044189453125 1.499996900558472 37.966796875 C 1.499996900558472 33.04315185546875 2.463963508605957 28.26757431030273 4.365118980407715 23.77274131774902 C 6.201741218566895 19.43047523498535 8.831341743469238 15.53040790557861 12.18087482452393 12.18087482452393 C 15.53040790557861 8.831341743469238 19.43047523498535 6.201741218566895 23.77274131774902 4.365118980407715 C 28.26757431030273 2.463963508605957 33.04315185546875 1.499996900558472 37.966796875 1.499996900558472 C 42.89044189453125 1.499996900558472 47.66601943969727 2.463963508605957 52.16086196899414 4.365118980407715 C 56.50312042236328 6.201741218566895 60.4031867980957 8.831341743469238 63.75271987915039 12.18087482452393 C 67.10224914550781 15.53040790557861 69.73184967041016 19.43047523498535 71.56847381591797 23.77274131774902 C 73.46962738037109 28.26757431030273 74.43359375 33.04315185546875 74.43359375 37.966796875 C 74.43359375 42.89044189453125 73.46962738037109 47.66601943969727 71.56847381591797 52.16086196899414 C 69.73184967041016 56.50313186645508 67.10224914550781 60.4031867980957 63.75271987915039 63.75271987915039 C 60.4031867980957 67.10224914550781 56.50313186645508 69.73184967041016 52.16086196899414 71.56847381591797 C 47.66601943969727 73.46962738037109 42.89044189453125 74.43359375 37.966796875 74.43359375 Z" stroke="none"/>
                    <path d="M 37.966796875 3 C 33.2449836730957 3 28.66600799560547 3.924095153808594 24.35705947875977 5.746635437011719 C 20.19359588623047 7.507621765136719 16.45379638671875 10.02927398681641 13.24153518676758 13.24153518676758 C 10.02927398681641 16.45379638671875 7.507621765136719 20.19359588623047 5.746635437011719 24.35705947875977 C 3.924095153808594 28.66600799560547 3 33.2449836730957 3 37.966796875 C 3 42.6886100769043 3.924095153808594 47.26758575439453 5.746635437011719 51.57653427124023 C 7.507621765136719 55.73999786376953 10.02927398681641 59.47979736328125 13.24153518676758 62.69205856323242 C 16.45379638671875 65.90431976318359 20.19359588623047 68.42597198486328 24.35705947875977 70.18695831298828 C 28.66600799560547 72.00949859619141 33.2449836730957 72.93359375 37.966796875 72.93359375 C 42.6886100769043 72.93359375 47.26758575439453 72.00949859619141 51.57653427124023 70.18695831298828 C 55.73999786376953 68.42597198486328 59.47979736328125 65.90431976318359 62.69205856323242 62.69205856323242 C 65.90431976318359 59.47979736328125 68.42597198486328 55.73999786376953 70.18695831298828 51.57653427124023 C 72.00949859619141 47.26758575439453 72.93359375 42.6886100769043 72.93359375 37.966796875 C 72.93359375 33.2449836730957 72.00949859619141 28.66600799560547 70.18695831298828 24.35705947875977 C 68.42597198486328 20.19359588623047 65.90431976318359 16.45379638671875 62.69205856323242 13.24153518676758 C 59.47979736328125 10.02927398681641 55.73999786376953 7.507621765136719 51.57653427124023 5.746635437011719 C 47.26758575439453 3.924095153808594 42.6886100769043 3 37.966796875 3 M 37.966796875 0 C 58.93528366088867 0 75.93359375 16.99831008911133 75.93359375 37.966796875 C 75.93359375 58.93528366088867 58.93528366088867 75.93359375 37.966796875 75.93359375 C 16.99831008911133 75.93359375 0 58.93528366088867 0 37.966796875 C 0 16.99831008911133 16.99831008911133 0 37.966796875 0 Z" stroke="none" fill="#665b4e"/>
                  </g>
                </g>
              </g>
            </g>
          </g>
        </g>
      </g>
      <g id="Linear_OK" data-name="Linear OK" transform="translate(832.684 2117.261)">
        <path id="Path_1175446" data-name="Path 1175446" d="M39.305,56A6.653,6.653,0,1,1,26,56Z" transform="translate(1.632 5.984)" fill="#808285"/>
        <path id="Path_1175447" data-name="Path 1175447" d="M39.305,56A6.576,6.576,0,0,1,37.6,60.435h-9.89A6.576,6.576,0,0,1,26,56Z" transform="translate(1.632 5.984)" fill="#231f20" opacity="0.1"/>
        <path id="Path_1175448" data-name="Path 1175448" d="M42.959,50.787A2.888,2.888,0,0,0,45.8,48.262a16.611,16.611,0,0,1,4.371-9.194,21.654,21.654,0,0,0,6.178-15.149A22.065,22.065,0,0,0,33.1,2.026C22,2.544,12.192,12.556,12,23.54a21.639,21.639,0,0,0,5.971,15.316,17.63,17.63,0,0,1,4.568,9.43,2.883,2.883,0,0,0,2.842,2.5Z" transform="translate(0.109 0.109)" fill="#d4eef9"/>
        <path id="Path_1175449" data-name="Path 1175449" d="M44.581,31.749c-4.461,4.462-12.117,2.424-12.117,2.424s-2.038-7.662,2.418-12.122,13.738-4.039,13.738-4.039.422,9.272-4.039,13.738Z" transform="translate(2.285 1.85)" fill="#88d392"/>
        <path id="Path_1175450" data-name="Path 1175450" d="M48.575,18.01S49,27.282,44.536,31.742s-12.117,2.424-12.117,2.424Z" transform="translate(2.33 1.851)" fill="#39b54a"/>
        <path id="Path_1175451" data-name="Path 1175451" d="M21.05,27.749c4.461,4.462,12.117,2.424,12.117,2.424s2.038-7.656-2.424-12.117-13.732-4.045-13.732-4.045-.422,9.272,4.039,13.738Z" transform="translate(0.653 1.415)" fill="#88d392"/>
        <path id="Path_1175452" data-name="Path 1175452" d="M17.011,14.01s-.422,9.272,4.039,13.732,12.117,2.424,12.117,2.424Z" transform="translate(0.653 1.416)" fill="#39b54a"/>
        <rect id="Rectangle_421507" data-name="Rectangle 421507" width="18.117" height="4.768" rx="2" transform="translate(25.299 55.437)" fill="#c9c9c9"/>
        <rect id="Rectangle_421508" data-name="Rectangle 421508" width="18.117" height="4.768" rx="2" transform="translate(25.299 50.669)" fill="#a5a5a5"/>
        <path id="Path_1175453" data-name="Path 1175453" d="M39.493,46H38.077a2.2,2.2,0,0,1-1.91,3.326H24.277a2.211,2.211,0,0,0,1.91,1.109H39.493a2.218,2.218,0,0,0,0-4.435Z" transform="translate(1.445 4.896)" fill="#231f20" opacity="0.1"/>
        <path id="Path_1175454" data-name="Path 1175454" d="M39.493,50H38.077a2.2,2.2,0,0,1-1.91,3.326H24.277a2.211,2.211,0,0,0,1.91,1.109H39.493a2.218,2.218,0,0,0,0-4.435Z" transform="translate(1.445 5.331)" fill="#231f20" opacity="0.1"/>
        <rect id="Rectangle_421509" data-name="Rectangle 421509" width="18.117" height="3.814" rx="1.907" transform="translate(25.299 60.204)" fill="#a5a5a5"/>
        <g id="Group_1223123" data-name="Group 1223123" transform="translate(10.997 0.994)">
          <path id="Path_1175455" data-name="Path 1175455" d="M39.493,54H38.077a2.2,2.2,0,0,1-1.91,3.326H24.277a2.211,2.211,0,0,0,1.91,1.109H39.493a2.218,2.218,0,1,0,0-4.435Z" transform="translate(-9.552 4.772)" fill="#231f20" opacity="0.1"/>
          <path id="Path_1175456" data-name="Path 1175456" d="M28.087,48.284a17.63,17.63,0,0,0-4.568-9.43,21.639,21.639,0,0,1-5.974-15.316c.179-10.416,9.01-19.944,19.39-21.343A22.554,22.554,0,0,0,33.1,2.025C22,2.543,12.192,12.555,12,23.539a21.639,21.639,0,0,0,5.971,15.316,17.63,17.63,0,0,1,4.568,9.43,2.883,2.883,0,0,0,2.842,2.5h5.544a2.883,2.883,0,0,1-2.838-2.5Z" transform="translate(-10.888 -0.884)" fill="#231f20" opacity="0.05"/>
          <path id="Path_1175457" data-name="Path 1175457" d="M32.723,63.653a7.738,7.738,0,0,1-7.312-5.179,1.109,1.109,0,1,1,2.094-.73,5.534,5.534,0,0,0,10.436,0,1.109,1.109,0,0,1,2.094.73,7.738,7.738,0,0,1-7.312,5.179Z" transform="translate(-9.435 5.098)" fill="#231f20"/>
          <path id="Path_1175458" data-name="Path 1175458" d="M43.069,52H25.489a3.984,3.984,0,0,1-3.934-3.446,16.511,16.511,0,0,0-4.278-8.833A22.73,22.73,0,0,1,11,23.63c.2-11.5,10.55-22.065,22.153-22.6a23.248,23.248,0,0,1,17.3,6.431,22.812,22.812,0,0,1,.626,32.493,15.475,15.475,0,0,0-4.068,8.579A3.985,3.985,0,0,1,43.069,52ZM34.3,3.218c-.345,0-.689.008-1.036.023-10.5.491-19.863,10.036-20.043,20.426A20.512,20.512,0,0,0,18.885,38.2a18.757,18.757,0,0,1,4.866,10.033,1.774,1.774,0,0,0,1.737,1.552h17.58a1.782,1.782,0,0,0,1.75-1.573,17.725,17.725,0,0,1,4.675-9.81,20.593,20.593,0,0,0-.572-29.342A21,21,0,0,0,34.3,3.218Z" transform="translate(-10.997 -0.994)" fill="#231f20"/>
          <path id="Path_1175459" data-name="Path 1175459" d="M44.866,13.06a1.109,1.109,0,0,1-.826-.369,16.714,16.714,0,0,0-7.285-4.743,1.109,1.109,0,0,1,.684-2.107,18.948,18.948,0,0,1,8.253,5.374,1.109,1.109,0,0,1-.826,1.845Z" transform="translate(-8.273 -0.472)" fill="#231f20"/>
          <path id="Path_1175460" data-name="Path 1175460" d="M39.632,55.653H26.326a3.326,3.326,0,1,1,0-6.653H39.632a3.326,3.326,0,0,1,0,6.653ZM26.326,51.218a1.109,1.109,0,1,0,0,2.218H39.632a1.109,1.109,0,0,0,0-2.218Z" transform="translate(-9.691 4.228)" fill="#231f20"/>
          <path id="Path_1175461" data-name="Path 1175461" d="M39.632,51.653H26.326a3.326,3.326,0,1,1,0-6.653H39.632a3.326,3.326,0,0,1,0,6.653ZM26.326,47.218a1.109,1.109,0,1,0,0,2.218H39.632a1.109,1.109,0,0,0,0-2.218Z" transform="translate(-9.691 3.793)" fill="#231f20"/>
          <path id="Path_1175462" data-name="Path 1175462" d="M39.632,59.653H26.326a3.326,3.326,0,1,1,0-6.653H39.632a3.326,3.326,0,0,1,0,6.653ZM26.326,55.218a1.109,1.109,0,1,0,0,2.218H39.632a1.109,1.109,0,1,0,0-2.218Z" transform="translate(-9.691 4.663)" fill="#231f20"/>
          <circle id="Ellipse_14653" data-name="Ellipse 14653" cx="0.954" cy="0.954" r="0.954" transform="translate(38.14 13.442)" fill="#231f20"/>
          <path id="Path_1175463" data-name="Path 1175463" d="M32.109,49.284A1.109,1.109,0,0,1,31,48.176V27.109a1.109,1.109,0,0,1,2.218,0V48.176A1.109,1.109,0,0,1,32.109,49.284Z" transform="translate(-8.821 1.726)" fill="#231f20"/>
          <path id="Path_1175464" data-name="Path 1175464" d="M36.635,35.856a18.307,18.307,0,0,1-4.346-.509,1.109,1.109,0,0,1-.787-.786c-.09-.333-2.145-8.329,2.711-13.187,4.757-4.754,14.169-4.381,14.568-4.362a1.109,1.109,0,0,1,1.057,1.057c.019.4.39,9.815-4.362,14.568A12.274,12.274,0,0,1,36.635,35.856Zm-3.129-2.515c1.841.339,7.161.969,10.4-2.273,3.215-3.215,3.67-9.38,3.718-11.844-2.464.048-8.627.5-11.844,3.718C32.529,26.2,33.164,31.505,33.507,33.341Z" transform="translate(-8.821 0.746)" fill="#231f20"/>
          <path id="Path_1175465" data-name="Path 1175465" d="M32.528,34.95a1.109,1.109,0,0,1-.784-1.893L43.476,21.325a1.109,1.109,0,1,1,1.568,1.568L33.312,34.625a1.109,1.109,0,0,1-.784.325Z" transform="translate(-8.775 1.182)" fill="#231f20"/>
          <path id="Path_1175466" data-name="Path 1175466" d="M36.109,30.653A1.109,1.109,0,0,1,35,29.544V25.109a1.109,1.109,0,1,1,2.218,0v4.435A1.109,1.109,0,0,1,36.109,30.653Z" transform="translate(-8.386 1.508)" fill="#231f20"/>
          <path id="Path_1175467" data-name="Path 1175467" d="M42.435,27.218H39.109a1.109,1.109,0,0,1,0-2.218h3.326a1.109,1.109,0,0,1,0,2.218Z" transform="translate(-8.059 1.617)" fill="#231f20"/>
          <path id="Path_1175468" data-name="Path 1175468" d="M29.215,31.856a12.27,12.27,0,0,1-8.84-3.215c-4.752-4.753-4.381-14.169-4.362-14.568a1.109,1.109,0,0,1,1.057-1.057c.4-.019,9.814-.39,14.568,4.362,4.856,4.858,2.8,12.85,2.711,13.187a1.109,1.109,0,0,1-.787.786,18.307,18.307,0,0,1-4.346.506Zm-7.272-4.788c3.24,3.24,8.558,2.612,10.4,2.273.339-1.839.967-7.158-2.273-10.4-3.224-3.223-9.383-3.673-11.844-3.719.048,2.463.5,8.629,3.718,11.845Z" transform="translate(-10.453 0.312)" fill="#231f20"/>
          <path id="Path_1175469" data-name="Path 1175469" d="M32.841,30.95a1.109,1.109,0,0,1-.784-.325L20.325,18.893a1.109,1.109,0,1,1,1.568-1.568L33.625,29.057a1.109,1.109,0,0,1-.784,1.893Z" transform="translate(-10.017 0.747)" fill="#231f20"/>
          <path id="Path_1175470" data-name="Path 1175470" d="M28.109,26.653A1.109,1.109,0,0,1,27,25.544V21.109a1.109,1.109,0,1,1,2.218,0v4.435A1.109,1.109,0,0,1,28.109,26.653Z" transform="translate(-9.256 1.073)" fill="#231f20"/>
          <path id="Path_1175471" data-name="Path 1175471" d="M25.435,23.218H22.109a1.109,1.109,0,1,1,0-2.218h3.326a1.109,1.109,0,1,1,0,2.218Z" transform="translate(-9.909 1.182)" fill="#231f20"/>
        </g>
      </g>
    </g>
  </g>
</svg>
