<svg xmlns="http://www.w3.org/2000/svg" xmlns:xlink="http://www.w3.org/1999/xlink" width="93.934" height="93.934" viewBox="0 0 93.934 93.934">
  <defs>
    <filter id="Path_978624" x="0" y="0" width="93.934" height="93.934" filterUnits="userSpaceOnUse">
      <feOffset dy="3" input="SourceAlpha"/>
      <feGaussianBlur stdDeviation="3" result="blur"/>
      <feFlood flood-opacity="0.161"/>
      <feComposite operator="in" in2="blur"/>
      <feComposite in="SourceGraphic"/>
    </filter>
  </defs>
  <g id="Group_1223184" data-name="Group 1223184" transform="translate(-609 -1653)">
    <g id="Group_1222823" data-name="Group 1222823">
      <g id="Group_1220521" data-name="Group 1220521" transform="translate(2.459 -3995.198)">
        <g id="Group_1219947" data-name="Group 1219947" transform="translate(615.541 5654.198)">
          <g id="Group_1208655" data-name="Group 1208655">
            <g id="Group_1208068" data-name="Group 1208068">
              <g id="Group_1144123" data-name="Group 1144123">
                <g transform="matrix(1, 0, 0, 1, -9, -6)" filter="url(#Path_978624)">
                  <g id="Path_978624-2" data-name="Path 978624" transform="translate(9 6)" fill="#f1ede8">
                    <path d="M 37.966796875 74.43359375 C 33.04315185546875 74.43359375 28.26757431030273 73.46962738037109 23.77274131774902 71.56847381591797 C 19.43047523498535 69.73184967041016 15.53040790557861 67.10224914550781 12.18087482452393 63.75271987915039 C 8.831341743469238 60.4031867980957 6.201741218566895 56.50312042236328 4.365118980407715 52.16086196899414 C 2.463963508605957 47.66601943969727 1.499996900558472 42.89044189453125 1.499996900558472 37.966796875 C 1.499996900558472 33.04315185546875 2.463963508605957 28.26757431030273 4.365118980407715 23.77274131774902 C 6.201741218566895 19.43047523498535 8.831341743469238 15.53040790557861 12.18087482452393 12.18087482452393 C 15.53040790557861 8.831341743469238 19.43047523498535 6.201741218566895 23.77274131774902 4.365118980407715 C 28.26757431030273 2.463963508605957 33.04315185546875 1.499996900558472 37.966796875 1.499996900558472 C 42.89044189453125 1.499996900558472 47.66601943969727 2.463963508605957 52.16086196899414 4.365118980407715 C 56.50312042236328 6.201741218566895 60.4031867980957 8.831341743469238 63.75271987915039 12.18087482452393 C 67.10224914550781 15.53040790557861 69.73184967041016 19.43047523498535 71.56847381591797 23.77274131774902 C 73.46962738037109 28.26757431030273 74.43359375 33.04315185546875 74.43359375 37.966796875 C 74.43359375 42.89044189453125 73.46962738037109 47.66601943969727 71.56847381591797 52.16086196899414 C 69.73184967041016 56.50313186645508 67.10224914550781 60.4031867980957 63.75271987915039 63.75271987915039 C 60.4031867980957 67.10224914550781 56.50313186645508 69.73184967041016 52.16086196899414 71.56847381591797 C 47.66601943969727 73.46962738037109 42.89044189453125 74.43359375 37.966796875 74.43359375 Z" stroke="none"/>
                    <path d="M 37.966796875 3 C 33.2449836730957 3 28.66600799560547 3.924095153808594 24.35705947875977 5.746635437011719 C 20.19359588623047 7.507621765136719 16.45379638671875 10.02927398681641 13.24153518676758 13.24153518676758 C 10.02927398681641 16.45379638671875 7.507621765136719 20.19359588623047 5.746635437011719 24.35705947875977 C 3.924095153808594 28.66600799560547 3 33.2449836730957 3 37.966796875 C 3 42.6886100769043 3.924095153808594 47.26758575439453 5.746635437011719 51.57653427124023 C 7.507621765136719 55.73999786376953 10.02927398681641 59.47979736328125 13.24153518676758 62.69205856323242 C 16.45379638671875 65.90431976318359 20.19359588623047 68.42597198486328 24.35705947875977 70.18695831298828 C 28.66600799560547 72.00949859619141 33.2449836730957 72.93359375 37.966796875 72.93359375 C 42.6886100769043 72.93359375 47.26758575439453 72.00949859619141 51.57653427124023 70.18695831298828 C 55.73999786376953 68.42597198486328 59.47979736328125 65.90431976318359 62.69205856323242 62.69205856323242 C 65.90431976318359 59.47979736328125 68.42597198486328 55.73999786376953 70.18695831298828 51.57653427124023 C 72.00949859619141 47.26758575439453 72.93359375 42.6886100769043 72.93359375 37.966796875 C 72.93359375 33.2449836730957 72.00949859619141 28.66600799560547 70.18695831298828 24.35705947875977 C 68.42597198486328 20.19359588623047 65.90431976318359 16.45379638671875 62.69205856323242 13.24153518676758 C 59.47979736328125 10.02927398681641 55.73999786376953 7.507621765136719 51.57653427124023 5.746635437011719 C 47.26758575439453 3.924095153808594 42.6886100769043 3 37.966796875 3 M 37.966796875 0 C 58.93528366088867 0 75.93359375 16.99831008911133 75.93359375 37.966796875 C 75.93359375 58.93528366088867 58.93528366088867 75.93359375 37.966796875 75.93359375 C 16.99831008911133 75.93359375 0 58.93528366088867 0 37.966796875 C 0 16.99831008911133 16.99831008911133 0 37.966796875 0 Z" stroke="none" fill="#665b4e"/>
                  </g>
                </g>
              </g>
            </g>
          </g>
        </g>
      </g>
      <g id="social" transform="translate(623.967 1670.589)">
        <path id="Path_1174891" data-name="Path 1174891" d="M33,25H31a4,4,0,0,0-4,4v5l2,1v8h6V35l2-1V29A4,4,0,0,0,33,25Z" fill="#ff8088"/>
        <path id="Path_1174892" data-name="Path 1174892" d="M59.5,62A29.012,29.012,0,0,0,5.044,62" fill="#a7dbfc"/>
        <path id="Path_1174893" data-name="Path 1174893" d="M46,60h4l2-3h5v-.123A29.078,29.078,0,0,0,42.837,45H42l-1,4,2,4-3,3-1,2,2,3Z" fill="#63bc94"/>
        <path id="Path_1174894" data-name="Path 1174894" d="M34.391,62H59.5A29.084,29.084,0,0,0,49.111,48.389,28.093,28.093,0,0,1,34.391,62Z" fill="#90d2fc"/>
        <path id="Path_1174895" data-name="Path 1174895" d="M49.1,48.4a28.116,28.116,0,0,1-9.342,10.739L41,61l5-1h4l2-3h5v-.123A29.145,29.145,0,0,0,49.1,48.4Z" fill="#55a17e"/>
        <path id="Path_1174896" data-name="Path 1174896" d="M6.4,58.933,12,58l3,3,6-1,2-3,3-2V52l-2-3-.9-4.51A29.064,29.064,0,0,0,6.4,58.933Z" fill="#63bc94"/>
        <circle id="Ellipse_14610" data-name="Ellipse 14610" cx="3" cy="3" r="3" transform="translate(29 19)" fill="#ffd6a8"/>
        <circle id="Ellipse_14611" data-name="Ellipse 14611" cx="8" cy="8" r="8" transform="translate(45 3)" fill="#eaeaea"/>
        <path id="Path_1174897" data-name="Path 1174897" d="M58,17.122v-.239a4,4,0,0,0-4-4H52a4,4,0,0,0-4,4l0,.242a7.978,7.978,0,0,0,10,0Z" fill="#a7dbfc"/>
        <circle id="Ellipse_14612" data-name="Ellipse 14612" cx="3" cy="3" r="3" transform="translate(50.014 6.882)" fill="#ffd6a8"/>
        <circle id="Ellipse_14613" data-name="Ellipse 14613" cx="8" cy="8" r="8" transform="translate(3 3)" fill="#eaeaea"/>
        <path id="Path_1174898" data-name="Path 1174898" d="M16,17.122v-.239a4,4,0,0,0-4-4H10a4,4,0,0,0-4,4l0,.242a7.978,7.978,0,0,0,10,0Z" fill="#a7dbfc"/>
        <circle id="Ellipse_14614" data-name="Ellipse 14614" cx="3" cy="3" r="3" transform="translate(8.014 6.882)" fill="#ffd6a8"/>
        <circle id="Ellipse_14615" data-name="Ellipse 14615" cx="8" cy="8" r="8" transform="translate(45 28)" fill="#eaeaea"/>
        <path id="Path_1174899" data-name="Path 1174899" d="M58,42.122v-.239a4,4,0,0,0-4-4H52a4,4,0,0,0-4,4l0,.242a7.978,7.978,0,0,0,10,0Z" fill="#a7dbfc"/>
        <circle id="Ellipse_14616" data-name="Ellipse 14616" cx="3" cy="3" r="3" transform="translate(50.014 31.882)" fill="#ffd6a8"/>
        <circle id="Ellipse_14617" data-name="Ellipse 14617" cx="8" cy="8" r="8" transform="translate(3 28)" fill="#eaeaea"/>
        <path id="Path_1174900" data-name="Path 1174900" d="M16,42.122v-.239a4,4,0,0,0-4-4H10a4,4,0,0,0-4,4l0,.242a7.978,7.978,0,0,0,10,0Z" fill="#a7dbfc"/>
        <circle id="Ellipse_14618" data-name="Ellipse 14618" cx="3" cy="3" r="3" transform="translate(8.014 31.882)" fill="#ffd6a8"/>
        <path id="Path_1174901" data-name="Path 1174901" d="M4.105,61.655l1.877.689c.317-.862.687-1.693,1.082-2.508l4.593-.766,2.636,2.636A1,1,0,0,0,15,62a.927.927,0,0,0,.165-.014l6-1a1,1,0,0,0,.667-.432l1.889-2.833,2.833-1.889A1,1,0,0,0,27,55V52a1.006,1.006,0,0,0-.168-.555l-1.89-2.835-.683-3.415a27.587,27.587,0,0,1,16.617.175l-.847,3.388a1,1,0,0,0,.076.69L41.783,52.8l-2.49,2.49a1.028,1.028,0,0,0-.188.26l-1,2a1,1,0,0,0,.062,1l2,3A1,1,0,0,0,41,62a.932.932,0,0,0,.2-.02L46.1,61H50a1,1,0,0,0,.832-.445L52.535,58H56.51a27.757,27.757,0,0,1,2.055,4.345l1.877-.689A30.113,30.113,0,0,0,36,42.256V35.618l1.447-.724A1,1,0,0,0,38,34V29a4.994,4.994,0,0,0-2.89-4.516A3.961,3.961,0,0,0,36,22a4,4,0,1,0-8,0,3.961,3.961,0,0,0,.89,2.484A4.994,4.994,0,0,0,26,29v5a1,1,0,0,0,.553.9L28,35.618v6.7A30.125,30.125,0,0,0,4.1,61.655ZM25,52.3v2.162l-2.555,1.7a.987.987,0,0,0-.277.277l-1.76,2.64-5.065.844-2.636-2.636a.991.991,0,0,0-.872-.279l-3.559.593A28.167,28.167,0,0,1,22.349,45.848l.67,3.349a.989.989,0,0,0,.148.358Zm17.767-6.247A28.221,28.221,0,0,1,55.229,56H52a1,1,0,0,0-.832.445L49.465,59H46a.925.925,0,0,0-.2.02l-4.343.869-1.307-1.96.668-1.336,2.885-2.885a1,1,0,0,0,.188-1.154l-1.834-3.669ZM32,20a2,2,0,1,1-2,2,2,2,0,0,1,2-2Zm-4,9a3,3,0,0,1,3-3h2a3,3,0,0,1,3,3v4.382l-1.447.724A1,1,0,0,0,34,35v7.068c-.574-.034-1.147-.068-1.727-.068-.763,0-1.521.031-2.273.089V35a1,1,0,0,0-.553-.9L28,33.382Z"/>
        <path id="Path_1174902" data-name="Path 1174902" d="M62,11a9,9,0,0,0-17.941-1H19.941A9,9,0,1,0,10,19.941v7.118A9,9,0,1,0,19.941,37H25V35H19.941A9.013,9.013,0,0,0,12,27.059V19.941A9.013,9.013,0,0,0,19.941,12H44.059A9.013,9.013,0,0,0,52,19.941v7.118A9.013,9.013,0,0,0,44.059,35H39v2h5.059A9,9,0,1,0,54,27.059V19.941A9.011,9.011,0,0,0,62,11ZM11,43a6.957,6.957,0,0,1-3.975-1.245A2.994,2.994,0,0,1,10,39h2a2.994,2.994,0,0,1,2.975,2.755A6.957,6.957,0,0,1,11,43ZM9,35a2,2,0,1,1,2,2A2,2,0,0,1,9,35Zm9,1a6.951,6.951,0,0,1-1.368,4.139,5.016,5.016,0,0,0-2.522-2.655A3.961,3.961,0,0,0,15,35a4,4,0,0,0-8,0,3.961,3.961,0,0,0,.89,2.484,5.016,5.016,0,0,0-2.522,2.655A7,7,0,1,1,18,36ZM11,18a6.957,6.957,0,0,1-3.975-1.245A2.994,2.994,0,0,1,10,14h2a2.994,2.994,0,0,1,2.975,2.755A6.957,6.957,0,0,1,11,18ZM9,10a2,2,0,1,1,2,2A2,2,0,0,1,9,10Zm7.632,5.139a5.016,5.016,0,0,0-2.522-2.655A3.961,3.961,0,0,0,15,10a4,4,0,0,0-8,0,3.961,3.961,0,0,0,.89,2.484,5.016,5.016,0,0,0-2.522,2.655,7,7,0,1,1,11.264,0Zm30.736,0a7,7,0,1,1,11.264,0,5.016,5.016,0,0,0-2.522-2.655A3.961,3.961,0,0,0,57,10a4,4,0,0,0-8,0,3.961,3.961,0,0,0,.89,2.484A5.012,5.012,0,0,0,47.368,15.139ZM55,10a2,2,0,1,1-2-2A2,2,0,0,1,55,10ZM53,43a6.957,6.957,0,0,1-3.975-1.245A2.994,2.994,0,0,1,52,39h2a2.994,2.994,0,0,1,2.975,2.755A6.957,6.957,0,0,1,53,43Zm-2-8a2,2,0,1,1,2,2A2,2,0,0,1,51,35Zm9,1a6.951,6.951,0,0,1-1.368,4.139,5.016,5.016,0,0,0-2.522-2.655A3.961,3.961,0,0,0,57,35a4,4,0,0,0-8,0,3.961,3.961,0,0,0,.89,2.484,5.016,5.016,0,0,0-2.522,2.655A7,7,0,1,1,60,36ZM53,18a6.957,6.957,0,0,1-3.975-1.245A2.994,2.994,0,0,1,52,14h2a2.994,2.994,0,0,1,2.975,2.755A6.957,6.957,0,0,1,53,18Z"/>
      </g>
    </g>
  </g>
</svg>
