<svg xmlns="http://www.w3.org/2000/svg" xmlns:xlink="http://www.w3.org/1999/xlink" width="93.934" height="93.934" viewBox="0 0 93.934 93.934">
  <defs>
    <filter id="Path_978624" x="0" y="0" width="93.934" height="93.934" filterUnits="userSpaceOnUse">
      <feOffset dy="3" input="SourceAlpha"/>
      <feGaussianBlur stdDeviation="3" result="blur"/>
      <feFlood flood-opacity="0.161"/>
      <feComposite operator="in" in2="blur"/>
      <feComposite in="SourceGraphic"/>
    </filter>
  </defs>
  <g id="Group_1223221" data-name="Group 1223221" transform="translate(-190 -1930.533)">
    <g id="Group_1223107" data-name="Group 1223107">
      <g id="Group_1222258" data-name="Group 1222258" transform="translate(-416.541 -3568.583)">
        <g id="Group_1219946" data-name="Group 1219946" transform="translate(615.541 5505.116)">
          <g id="Group_1208655" data-name="Group 1208655">
            <g id="Group_1208068" data-name="Group 1208068">
              <g id="Group_1144123" data-name="Group 1144123">
                <g transform="matrix(1, 0, 0, 1, -9, -6)" filter="url(#Path_978624)">
                  <g id="Path_978624-2" data-name="Path 978624" transform="translate(9 6)" fill="#f1ede8">
                    <path d="M 37.966796875 74.43359375 C 33.04315185546875 74.43359375 28.26757431030273 73.46962738037109 23.77274131774902 71.56847381591797 C 19.43047523498535 69.73184967041016 15.53040790557861 67.10224914550781 12.18087482452393 63.75271987915039 C 8.831341743469238 60.4031867980957 6.201741218566895 56.50312042236328 4.365118980407715 52.16086196899414 C 2.463963508605957 47.66601943969727 1.499996900558472 42.89044189453125 1.499996900558472 37.966796875 C 1.499996900558472 33.04315185546875 2.463963508605957 28.26757431030273 4.365118980407715 23.77274131774902 C 6.201741218566895 19.43047523498535 8.831341743469238 15.53040790557861 12.18087482452393 12.18087482452393 C 15.53040790557861 8.831341743469238 19.43047523498535 6.201741218566895 23.77274131774902 4.365118980407715 C 28.26757431030273 2.463963508605957 33.04315185546875 1.499996900558472 37.966796875 1.499996900558472 C 42.89044189453125 1.499996900558472 47.66601943969727 2.463963508605957 52.16086196899414 4.365118980407715 C 56.50312042236328 6.201741218566895 60.4031867980957 8.831341743469238 63.75271987915039 12.18087482452393 C 67.10224914550781 15.53040790557861 69.73184967041016 19.43047523498535 71.56847381591797 23.77274131774902 C 73.46962738037109 28.26757431030273 74.43359375 33.04315185546875 74.43359375 37.966796875 C 74.43359375 42.89044189453125 73.46962738037109 47.66601943969727 71.56847381591797 52.16086196899414 C 69.73184967041016 56.50313186645508 67.10224914550781 60.4031867980957 63.75271987915039 63.75271987915039 C 60.4031867980957 67.10224914550781 56.50313186645508 69.73184967041016 52.16086196899414 71.56847381591797 C 47.66601943969727 73.46962738037109 42.89044189453125 74.43359375 37.966796875 74.43359375 Z" stroke="none"/>
                    <path d="M 37.966796875 3 C 33.2449836730957 3 28.66600799560547 3.924095153808594 24.35705947875977 5.746635437011719 C 20.19359588623047 7.507621765136719 16.45379638671875 10.02927398681641 13.24153518676758 13.24153518676758 C 10.02927398681641 16.45379638671875 7.507621765136719 20.19359588623047 5.746635437011719 24.35705947875977 C 3.924095153808594 28.66600799560547 3 33.2449836730957 3 37.966796875 C 3 42.6886100769043 3.924095153808594 47.26758575439453 5.746635437011719 51.57653427124023 C 7.507621765136719 55.73999786376953 10.02927398681641 59.47979736328125 13.24153518676758 62.69205856323242 C 16.45379638671875 65.90431976318359 20.19359588623047 68.42597198486328 24.35705947875977 70.18695831298828 C 28.66600799560547 72.00949859619141 33.2449836730957 72.93359375 37.966796875 72.93359375 C 42.6886100769043 72.93359375 47.26758575439453 72.00949859619141 51.57653427124023 70.18695831298828 C 55.73999786376953 68.42597198486328 59.47979736328125 65.90431976318359 62.69205856323242 62.69205856323242 C 65.90431976318359 59.47979736328125 68.42597198486328 55.73999786376953 70.18695831298828 51.57653427124023 C 72.00949859619141 47.26758575439453 72.93359375 42.6886100769043 72.93359375 37.966796875 C 72.93359375 33.2449836730957 72.00949859619141 28.66600799560547 70.18695831298828 24.35705947875977 C 68.42597198486328 20.19359588623047 65.90431976318359 16.45379638671875 62.69205856323242 13.24153518676758 C 59.47979736328125 10.02927398681641 55.73999786376953 7.507621765136719 51.57653427124023 5.746635437011719 C 47.26758575439453 3.924095153808594 42.6886100769043 3 37.966796875 3 M 37.966796875 0 C 58.93528366088867 0 75.93359375 16.99831008911133 75.93359375 37.966796875 C 75.93359375 58.93528366088867 58.93528366088867 75.93359375 37.966796875 75.93359375 C 16.99831008911133 75.93359375 0 58.93528366088867 0 37.966796875 C 0 16.99831008911133 16.99831008911133 0 37.966796875 0 Z" stroke="none" fill="#665b4e"/>
                  </g>
                </g>
              </g>
            </g>
          </g>
        </g>
      </g>
      <g id="renta" transform="translate(202.515 1925.971)">
        <g id="Group_1223106" data-name="Group 1223106" transform="translate(1.087 25.188)">
          <g id="Group_1223104" data-name="Group 1223104" transform="translate(1.048)">
            <path id="Path_1175381" data-name="Path 1175381" d="M116.36,95.7,94.047,111.908v28.6a6.886,6.886,0,0,0,6.866,6.866h30.894a6.886,6.886,0,0,0,6.866-6.866v-28.6Z" transform="translate(-83.519 -87.146)" fill="#eceff1" fill-rule="evenodd"/>
            <path id="Path_1175382" data-name="Path 1175382" d="M259.9,147.373h15.447a6.886,6.886,0,0,0,6.866-6.866v-28.6L259.9,95.7Z" transform="translate(-227.055 -87.146)" fill="#e1e4e6" fill-rule="evenodd"/>
            <path id="Path_1175383" data-name="Path 1175383" d="M23.41,61.2a4.8,4.8,0,1,1-5.635-7.776L45.815,33.05a4.8,4.8,0,0,1,5.718.06L79.489,53.421A4.8,4.8,0,1,1,73.854,61.2L48.632,42.872Z" transform="translate(-15.791 -32.136)" fill="#fe646f" fill-rule="evenodd"/>
            <path id="Path_1175384" data-name="Path 1175384" d="M259.9,32.136a4.81,4.81,0,0,1,2.9.974l27.956,20.311a4.8,4.8,0,1,1-5.635,7.776L259.9,42.872Z" transform="translate(-227.055 -32.136)" fill="#fd4755" fill-rule="evenodd"/>
            <path id="Path_1175385" data-name="Path 1175385" d="M220.511,284.607h-6.851a3.239,3.239,0,0,0-3.23,3.23v23.031h13.31V287.837A3.239,3.239,0,0,0,220.511,284.607Z" transform="translate(-184.245 -250.64)" fill="#f1ba84" fill-rule="evenodd"/>
            <path id="Path_1175386" data-name="Path 1175386" d="M263.321,284.607H259.9v26.261h6.655V287.836A3.239,3.239,0,0,0,263.321,284.607Z" transform="translate(-227.055 -250.64)" fill="#de9252" fill-rule="evenodd"/>
          </g>
          <g id="Group_1223105" data-name="Group 1223105" transform="translate(0 36.767)">
            <path id="Path_1175387" data-name="Path 1175387" d="M15.842,305.426a7.842,7.842,0,0,1,7.026,4.357h18.51l2.755,3.25-1.584,3.721H39.712l-2.146-2.981-2.146,2.981-2.146-2.981-2.146,2.981H22.868a7.842,7.842,0,1,1-7.026-11.327Zm-1.9,5.416a2.426,2.426,0,1,0,2.426,2.426A2.426,2.426,0,0,0,13.941,310.842Z" transform="translate(-8 -305.426)" fill="#685e68" fill-rule="evenodd"/>
            <path id="Path_1175388" data-name="Path 1175388" d="M44.032,363.714,42.548,367.2H39.712l-2.146-2.981L35.42,367.2l-2.146-2.981L31.129,367.2H22.868A7.843,7.843,0,0,1,8,363.714h3.516a2.426,2.426,0,1,0,4.851,0Z" transform="translate(-8 -355.872)" fill="#544854" fill-rule="evenodd"/>
          </g>
        </g>
        <path id="Path_1175389" data-name="Path 1175389" d="M7.029,71.152a1.35,1.35,0,1,1,1.35-1.35A1.351,1.351,0,0,1,7.029,71.152Zm0-4.852a3.5,3.5,0,1,0,3.5,3.5A3.507,3.507,0,0,0,7.029,66.3Zm59-13.748a3.727,3.727,0,0,1-5.2.831L35.61,35.058a1.075,1.075,0,0,0-1.266,0L9.122,53.383a3.725,3.725,0,0,1-4.369-6.035l28.039-20.37a3.7,3.7,0,0,1,4.435.046.11.11,0,0,0,.018.013L65.2,47.349a3.728,3.728,0,0,1,.831,5.2Zm-9.82,26V52.688L34.976,37.259,13.741,52.688v9.6a8.9,8.9,0,0,1,2.854,2.956H27.246V62.388a4.311,4.311,0,0,1,4.305-4.305H38.4a4.311,4.311,0,0,1,4.307,4.305V84.343h7.716A5.8,5.8,0,0,0,56.213,78.554Zm-42.472,0V77.32a8.889,8.889,0,0,0,2.854-2.957h7.622a1.074,1.074,0,0,0,.873-.447l1.273-1.768.884,1.227V84.343H19.53a5.8,5.8,0,0,1-5.789-5.789Zm26.815,5.789H29.4V73.892l1.255-1.744,1.273,1.768a1.073,1.073,0,0,0,.873.447h2.836a1.075,1.075,0,0,0,.991-.654l1.584-3.721a1.078,1.078,0,0,0-.17-1.117l-2.755-3.25a1.078,1.078,0,0,0-.821-.381H29.4V62.388a2.155,2.155,0,0,1,2.152-2.153H38.4a2.156,2.156,0,0,1,2.154,2.153ZM2.164,69.8a6.766,6.766,0,0,0,12.828,3.006,1.074,1.074,0,0,1,.963-.6h7.709l1.824-2.533a1.075,1.075,0,0,1,1.746,0l1.273,1.768,1.273-1.768a1.075,1.075,0,0,1,1.746,0l1.824,2.533h1.573l1.045-2.454-2-2.364H15.955a1.074,1.074,0,0,1-.963-.6A6.767,6.767,0,0,0,2.164,69.8Zm64.3-24.2L38.519,25.3a5.847,5.847,0,0,0-6.992-.066L3.489,45.606a5.878,5.878,0,1,0,6.9,9.52h0l1.2-.872v7.032a8.919,8.919,0,1,0,0,17.035v.234A7.951,7.951,0,0,0,19.53,86.5H50.424a7.951,7.951,0,0,0,7.942-7.942v-24.3l1.2.873A5.838,5.838,0,0,0,63,56.245a6.056,6.056,0,0,0,.941-.075,5.878,5.878,0,0,0,2.522-10.563Z" fill-rule="evenodd"/>
      </g>
    </g>
  </g>
</svg>
