<svg xmlns="http://www.w3.org/2000/svg" xmlns:xlink="http://www.w3.org/1999/xlink" width="110" height="110" viewBox="0 0 110 110">
  <defs>
    <filter id="Path_982547" x="0" y="0" width="110" height="110" filterUnits="userSpaceOnUse">
      <feOffset dy="3" input="SourceAlpha"/>
      <feGaussianBlur stdDeviation="3" result="blur"/>
      <feFlood flood-opacity="0.161"/>
      <feComposite operator="in" in2="blur"/>
      <feComposite in="SourceGraphic"/>
    </filter>
  </defs>
  <g id="Group_1223172" data-name="Group 1223172" transform="translate(-1114 -1138.647)">
    <g id="Group_1222768" data-name="Group 1222768">
      <g id="Group_1215521" data-name="Group 1215521" transform="translate(0 -1204.896)">
        <g id="Group_1211001" data-name="Group 1211001" transform="translate(1123 2349.543)">
          <g id="Group_1200151" data-name="Group 1200151" transform="translate(0 0)">
            <g id="Group_1185952" data-name="Group 1185952" transform="translate(0 0)">
              <g id="Group_1184115" data-name="Group 1184115" transform="translate(0 0)">
                <g id="Group_1183744" data-name="Group 1183744">
                  <g id="Group_1181546" data-name="Group 1181546">
                    <g id="Group_1177563" data-name="Group 1177563">
                      <g id="Group_1173148" data-name="Group 1173148" transform="translate(0 0)">
                        <g id="Group_1163803" data-name="Group 1163803" transform="translate(0 0)">
                          <g id="Group_1163015" data-name="Group 1163015" transform="translate(0 0)">
                            <g id="Group_1157017" data-name="Group 1157017">
                              <g id="Group_1155793" data-name="Group 1155793">
                                <g id="Group_1154704" data-name="Group 1154704">
                                  <g id="Group_1150790" data-name="Group 1150790">
                                    <g id="Group_1154214" data-name="Group 1154214">
                                      <g id="Group_1152583" data-name="Group 1152583">
                                        <g id="Group_1146973" data-name="Group 1146973">
                                          <g id="Group_1146954" data-name="Group 1146954">
                                            <g transform="matrix(1, 0, 0, 1, -9, -6)" filter="url(#Path_982547)">
                                              <g id="Path_982547-2" data-name="Path 982547" transform="translate(9 6)" fill="#f9e3d4">
                                                <path d="M 46.00000381469727 90.49986267089844 C 39.99188232421875 90.49986267089844 34.16427230834961 89.32350158691406 28.67905807495117 87.00344848632812 C 23.38020324707031 84.76223754882812 18.62104415893555 81.55341339111328 14.53375053405762 77.46613311767578 C 10.44647026062012 73.37885284423828 7.237643718719482 68.61968994140625 4.996417045593262 63.32085037231445 C 2.676363706588745 57.83565139770508 1.500003814697266 52.00805282592773 1.500003814697266 45.99993133544922 C 1.500003814697266 39.99182510375977 2.676363706588745 34.16422653198242 4.996417045593262 28.67901039123535 C 7.237643718719482 23.38017082214355 10.44647026062012 18.62101173400879 14.53375053405762 14.53373146057129 C 18.62104415893555 10.44645118713379 23.38020324707031 7.237624645233154 28.67905807495117 4.996411323547363 C 34.16427230834961 2.676357984542847 39.99188232421875 1.499997973442078 46.00000381469727 1.499997973442078 C 52.00812530517578 1.499997973442078 57.83573532104492 2.676357984542847 63.32094955444336 4.996411323547363 C 68.61980438232422 7.237624645233154 73.37896728515625 10.44645118713379 77.46625518798828 14.53373146057129 C 81.55353546142578 18.62101173400879 84.76236724853516 23.38017082214355 87.00359344482422 28.67901039123535 C 89.32364654541016 34.16422653198242 90.5 39.99182510375977 90.5 45.99993133544922 C 90.5 52.00805282592773 89.32364654541016 57.83565139770508 87.00359344482422 63.32085037231445 C 84.76236724853516 68.61968994140625 81.55353546142578 73.37885284423828 77.46625518798828 77.46613311767578 C 73.37896728515625 81.55341339111328 68.61980438232422 84.76223754882812 63.32094955444336 87.00344848632812 C 57.83573532104492 89.32350158691406 52.00812530517578 90.49986267089844 46.00000381469727 90.49986267089844 Z" stroke="none"/>
                                                <path d="M 46.00000381469727 3 C 40.19371795654297 3 34.56270217895508 4.136505126953125 29.26337432861328 6.377914428710938 C 24.14333343505859 8.54351806640625 19.54441833496094 11.64438629150391 15.59440612792969 15.59439086914062 C 11.64440155029297 19.54440307617188 8.54351806640625 24.14330291748047 6.377914428710938 29.26334381103516 C 4.136505126953125 34.56266021728516 3.000007629394531 40.19366073608398 3.000007629394531 45.99993133544922 C 3.000007629394531 51.80620193481445 4.136505126953125 57.43720245361328 6.377914428710938 62.73651885986328 C 8.54351806640625 67.85655975341797 11.64440155029297 72.45545959472656 15.59440612792969 76.40547180175781 C 19.54441833496094 80.35547637939453 24.14333343505859 83.45634460449219 29.26337432861328 85.6219482421875 C 34.56270217895508 87.86335754394531 40.19371795654297 88.99986267089844 46.00000381469727 88.99986267089844 C 51.80628967285156 88.99986267089844 57.43730545043945 87.86335754394531 62.73661804199219 85.6219482421875 C 67.85667419433594 83.45634460449219 72.45557403564453 80.35547637939453 76.40558624267578 76.40547180175781 C 80.35560607910156 72.45545959472656 83.45647430419922 67.85655975341797 85.62207794189453 62.73651885986328 C 87.86350250244141 57.43720245361328 89 51.80620193481445 89 45.99993133544922 C 89 40.19366073608398 87.86350250244141 34.56266021728516 85.62207794189453 29.26334381103516 C 83.45647430419922 24.14330291748047 80.35560607910156 19.54440307617188 76.40558624267578 15.59439086914062 C 72.45557403564453 11.64438629150391 67.85667419433594 8.54351806640625 62.73661804199219 6.377914428710938 C 57.43730545043945 4.136505126953125 51.80628967285156 3 46.00000381469727 3 M 46.00000381469727 0 C 71.40509033203125 0 92 20.59487152099609 92 45.99993133544922 C 92 71.40499114990234 71.40509033203125 91.99986267089844 46.00000381469727 91.99986267089844 C 20.59490203857422 91.99986267089844 7.62939453125e-06 71.40499114990234 7.62939453125e-06 45.99993133544922 C 7.62939453125e-06 20.59487152099609 20.59490203857422 0 46.00000381469727 0 Z" stroke="none" fill="#eca675"/>
                                              </g>
                                            </g>
                                          </g>
                                        </g>
                                      </g>
                                    </g>
                                  </g>
                                </g>
                              </g>
                            </g>
                          </g>
                        </g>
                      </g>
                    </g>
                  </g>
                </g>
              </g>
            </g>
          </g>
        </g>
      </g>
      <g id="subasta_5_" data-name="subasta (5)" transform="translate(1136 1163)">
        <g id="Group_1222739" data-name="Group 1222739" transform="translate(6.887 2.177)">
          <path id="Path_1174757" data-name="Path 1174757" d="M57.806,65.58H20.129v2.355a4.71,4.71,0,0,1-9.419,0V6.71A4.71,4.71,0,0,0,6,2H49.564a8.242,8.242,0,0,1,8.242,8.242Z" transform="translate(-6 -2)" fill="#adaba6"/>
        </g>
        <g id="Group_1222740" data-name="Group 1222740" transform="translate(6.887 2.177)">
          <path id="Path_1174758" data-name="Path 1174758" d="M10.71,6.71V54.894a26.072,26.072,0,0,0,16.484,5.977c15.607,0,28.258-14.233,28.258-31.79C55.451,17.63,50.068,7.6,41.995,2H6A4.71,4.71,0,0,1,10.71,6.71Z" transform="translate(-6 -2)" fill="#f1efeb"/>
        </g>
        <g id="Group_1222742" data-name="Group 1222742" transform="translate(16.306 65.758)">
          <g id="Group_1222741" data-name="Group 1222741">
            <path id="Path_1174759" data-name="Path 1174759" d="M56.387,56H18.71v2.355A4.71,4.71,0,0,1,14,63.064H56.387a4.71,4.71,0,0,0,4.71-4.71V56Z" transform="translate(-14 -56)" fill="#74726f"/>
          </g>
        </g>
        <g id="Group_1222743" data-name="Group 1222743" transform="translate(2.177 2.177)">
          <path id="Path_1174760" data-name="Path 1174760" d="M11.419,16.129H2V6.71a4.71,4.71,0,1,1,9.419,0Z" transform="translate(-2 -2)" fill="#74726f"/>
        </g>
        <g id="Group_1222744" data-name="Group 1222744" transform="translate(16.306 42.21)">
          <circle id="Ellipse_14606" data-name="Ellipse 14606" cx="9.5" cy="9.5" r="9.5" transform="translate(-0.306 -0.21)" fill="#b57769"/>
        </g>
        <g id="Group_1222745" data-name="Group 1222745" transform="translate(21.016 46.919)">
          <circle id="Ellipse_14607" data-name="Ellipse 14607" cx="4.5" cy="4.5" r="4.5" transform="translate(-0.016 0.081)" fill="#f29f8c"/>
        </g>
        <g id="Group_1222746" data-name="Group 1222746" transform="translate(55.149 43.389)">
          <path id="Path_1174761" data-name="Path 1174761" d="M0,0H4.163V20.814H0Z" transform="translate(0 2.943) rotate(-45)" fill="#bf8859"/>
        </g>
        <g id="Group_1222747" data-name="Group 1222747" transform="translate(46.909 35.148)">
          <path id="Path_1174762" data-name="Path 1174762" d="M0,0H11.655V8.325H0Z" transform="translate(0 8.24) rotate(-45)" fill="#bf8859"/>
        </g>
        <g id="Group_1222748" data-name="Group 1222748" transform="translate(42.2 42.21)">
          <path id="Path_1174763" data-name="Path 1174763" d="M0,0H5V11.655H0Z" transform="translate(0 3.532) rotate(-45)" fill="#bf8859"/>
        </g>
        <g id="Group_1222749" data-name="Group 1222749" transform="translate(53.974 30.438)">
          <path id="Path_1174764" data-name="Path 1174764" d="M0,0H5V11.655H0Z" transform="translate(0 3.532) rotate(-45)" fill="#bf8859"/>
        </g>
        <g id="Group_1222750" data-name="Group 1222750" transform="translate(1 1)">
          <path id="Path_1174765" data-name="Path 1174765" d="M58.693,74H16.306a5.894,5.894,0,0,1-5.887-5.887V17.484H2.177A1.177,1.177,0,0,1,1,16.306V6.887a5.887,5.887,0,1,1,11.774,0V68.113a3.532,3.532,0,0,0,7.064,0V65.758a1.177,1.177,0,0,1,1.177-1.177H63.4a1.177,1.177,0,0,1,1.177,1.177v2.355A5.894,5.894,0,0,1,58.693,74Zm-37.68-2.355h37.68a3.537,3.537,0,0,0,3.532-3.532V66.935H22.193v1.177a5.856,5.856,0,0,1-1.18,3.532ZM3.355,15.129h7.064V6.887a3.532,3.532,0,1,0-7.064,0Z" transform="translate(-1 -1)"/>
        </g>
        <g id="Group_1222751" data-name="Group 1222751" transform="translate(57.516 49.863)">
          <path id="Path_1174766" data-name="Path 1174766" d="M49,42.5h2.355V58.4H49Z" transform="translate(-49 -42.5)"/>
        </g>
        <g id="Group_1222752" data-name="Group 1222752" transform="translate(6.887 1)">
          <path id="Path_1174767" data-name="Path 1174767" d="M58.984,31.613H56.629V9.242a5.894,5.894,0,0,0-5.887-5.887H6V1H50.742a8.252,8.252,0,0,1,8.242,8.242Z" transform="translate(-6 -1)"/>
        </g>
        <g id="Group_1222753" data-name="Group 1222753" transform="translate(41.032 41.032)">
          <path id="Path_1174768" data-name="Path 1174768" d="M44.419,49.129a1.174,1.174,0,0,1-.832-.345l-8.242-8.242a1.176,1.176,0,0,1,0-1.665l3.532-3.532a1.176,1.176,0,0,1,1.665,0l8.242,8.242a1.176,1.176,0,0,1,0,1.665l-3.532,3.532A1.174,1.174,0,0,1,44.419,49.129ZM37.842,39.71l6.577,6.577,1.867-1.867L39.71,37.842Z" transform="translate(-35 -35)"/>
        </g>
        <g id="Group_1222754" data-name="Group 1222754" transform="translate(52.806 29.258)">
          <path id="Path_1174769" data-name="Path 1174769" d="M54.419,39.129a1.174,1.174,0,0,1-.832-.345l-8.242-8.242a1.176,1.176,0,0,1,0-1.665l3.532-3.532a1.176,1.176,0,0,1,1.665,0l8.242,8.242a1.176,1.176,0,0,1,0,1.665l-3.532,3.532A1.174,1.174,0,0,1,54.419,39.129ZM47.842,29.71l6.577,6.577,1.867-1.867L49.71,27.842Z" transform="translate(-45 -25)"/>
        </g>
        <g id="Group_1222755" data-name="Group 1222755" transform="translate(46.078 34.315)">
          <path id="Path_1174770" data-name="Path 1174770" d="M0,0H11.655V2.355H0Z" transform="translate(0 8.24) rotate(-45)"/>
        </g>
        <g id="Group_1222756" data-name="Group 1222756" transform="translate(51.964 40.202)">
          <path id="Path_1174771" data-name="Path 1174771" d="M0,0H11.655V2.355H0Z" transform="translate(0 8.24) rotate(-45)"/>
        </g>
        <g id="Group_1222757" data-name="Group 1222757" transform="translate(54.329 42.554)">
          <path id="Path_1174772" data-name="Path 1174772" d="M61.843,55.964a1.174,1.174,0,0,1-.832-.345L46.293,40.9l1.665-1.665L61.843,53.122l1.279-1.279L49.237,37.958,50.9,36.293,65.619,51.011a1.176,1.176,0,0,1,0,1.665l-2.944,2.944A1.174,1.174,0,0,1,61.843,55.964Z" transform="translate(-46.293 -36.293)"/>
        </g>
        <g id="Group_1222758" data-name="Group 1222758" transform="translate(16.306 22.193)">
          <path id="Path_1174773" data-name="Path 1174773" d="M14,19H52.855v2.355H14Z" transform="translate(-14 -19)"/>
        </g>
        <g id="Group_1222759" data-name="Group 1222759" transform="translate(16.306 31.613)">
          <path id="Path_1174774" data-name="Path 1174774" d="M14,27H48.145v2.355H14Z" transform="translate(-14 -27)"/>
        </g>
        <g id="Group_1222760" data-name="Group 1222760" transform="translate(16.306 26.903)">
          <path id="Path_1174775" data-name="Path 1174775" d="M14,23H52.855v2.355H14Z" transform="translate(-14 -23)"/>
        </g>
        <g id="Group_1222761" data-name="Group 1222761" transform="translate(16.306 12.774)">
          <path id="Path_1174776" data-name="Path 1174776" d="M14,11H52.855v2.355H14Z" transform="translate(-14 -11)"/>
        </g>
        <g id="Group_1222762" data-name="Group 1222762" transform="translate(16.306 8.064)">
          <path id="Path_1174777" data-name="Path 1174777" d="M14,7H52.855V9.355H14Z" transform="translate(-14 -7)"/>
        </g>
        <g id="Group_1222763" data-name="Group 1222763" transform="translate(16.306 17.484)">
          <path id="Path_1174778" data-name="Path 1174778" d="M14,15H52.855v2.355H14Z" transform="translate(-14 -15)"/>
        </g>
        <g id="Group_1222764" data-name="Group 1222764" transform="translate(16.306 36.322)">
          <path id="Path_1174779" data-name="Path 1174779" d="M14,31H45.79v2.355H14Z" transform="translate(-14 -31)"/>
        </g>
        <g id="Group_1222765" data-name="Group 1222765" transform="translate(15.129 41.032)">
          <path id="Path_1174780" data-name="Path 1174780" d="M23.6,56.193a10.6,10.6,0,1,1,10.6-10.6A10.609,10.609,0,0,1,23.6,56.193Zm0-18.839A8.242,8.242,0,1,0,31.839,45.6,8.252,8.252,0,0,0,23.6,37.355Z" transform="translate(-13 -35)"/>
        </g>
        <g id="Group_1222766" data-name="Group 1222766" transform="translate(19.839 45.742)">
          <path id="Path_1174781" data-name="Path 1174781" d="M22.887,50.774a5.887,5.887,0,1,1,5.887-5.887A5.894,5.894,0,0,1,22.887,50.774Zm0-9.419a3.532,3.532,0,1,0,3.532,3.532A3.537,3.537,0,0,0,22.887,41.355Z" transform="translate(-17 -39)"/>
        </g>
        <g id="Group_1222767" data-name="Group 1222767" transform="translate(38.677 56.338)">
          <path id="Path_1174782" data-name="Path 1174782" d="M47.129,53.887h-4.71A4.711,4.711,0,0,1,38.43,51.68,7.764,7.764,0,0,1,33,53.887V51.532a5.413,5.413,0,0,0,4.512-2.415l.4-.593a1.178,1.178,0,0,1,2.157.653,2.357,2.357,0,0,0,2.355,2.355h4.71Z" transform="translate(-33 -47.999)"/>
        </g>
      </g>
    </g>
  </g>
</svg>
