<svg xmlns="http://www.w3.org/2000/svg" xmlns:xlink="http://www.w3.org/1999/xlink" width="110" height="110" viewBox="0 0 110 110">
  <defs>
    <filter id="Path_982547" x="0" y="0" width="110" height="110" filterUnits="userSpaceOnUse">
      <feOffset dy="3" input="SourceAlpha"/>
      <feGaussianBlur stdDeviation="3" result="blur"/>
      <feFlood flood-opacity="0.161"/>
      <feComposite operator="in" in2="blur"/>
      <feComposite in="SourceGraphic"/>
    </filter>
  </defs>
  <g id="Group_1223171" data-name="Group 1223171" transform="translate(-799 -1137.647)">
    <g id="Group_1222738" data-name="Group 1222738">
      <g id="Group_1215519" data-name="Group 1215519" transform="translate(0 -1204.896)">
        <g id="Group_1210976" data-name="Group 1210976" transform="translate(808 2348.543)">
          <g id="Group_1200150" data-name="Group 1200150" transform="translate(0 0)">
            <g id="Group_1185951" data-name="Group 1185951" transform="translate(0 0)">
              <g id="Group_1184083" data-name="Group 1184083" transform="translate(0 0)">
                <g id="Group_1183743" data-name="Group 1183743">
                  <g id="Group_1181545" data-name="Group 1181545">
                    <g id="Group_1177562" data-name="Group 1177562">
                      <g id="Group_1173147" data-name="Group 1173147" transform="translate(0 0)">
                        <g id="Group_1163801" data-name="Group 1163801" transform="translate(0 0)">
                          <g id="Group_1163014" data-name="Group 1163014" transform="translate(0 0)">
                            <g id="Group_1157015" data-name="Group 1157015">
                              <g id="Group_1155792" data-name="Group 1155792">
                                <g id="Group_1154703" data-name="Group 1154703">
                                  <g id="Group_1150789" data-name="Group 1150789">
                                    <g id="Group_1154212" data-name="Group 1154212">
                                      <g id="Group_1152583" data-name="Group 1152583">
                                        <g id="Group_1146973" data-name="Group 1146973">
                                          <g id="Group_1146954" data-name="Group 1146954">
                                            <g transform="matrix(1, 0, 0, 1, -9, -6)" filter="url(#Path_982547)">
                                              <g id="Path_982547-2" data-name="Path 982547" transform="translate(9 6)" fill="#f9e3d4">
                                                <path d="M 46.00000381469727 90.49986267089844 C 39.99188232421875 90.49986267089844 34.16427230834961 89.32350158691406 28.67905807495117 87.00344848632812 C 23.38020324707031 84.76223754882812 18.62104415893555 81.55341339111328 14.53375053405762 77.46613311767578 C 10.44647026062012 73.37885284423828 7.237643718719482 68.61968994140625 4.996417045593262 63.32085037231445 C 2.676363706588745 57.83565139770508 1.500003814697266 52.00805282592773 1.500003814697266 45.99993133544922 C 1.500003814697266 39.99182510375977 2.676363706588745 34.16422653198242 4.996417045593262 28.67901039123535 C 7.237643718719482 23.38017082214355 10.44647026062012 18.62101173400879 14.53375053405762 14.53373146057129 C 18.62104415893555 10.44645118713379 23.38020324707031 7.237624645233154 28.67905807495117 4.996411323547363 C 34.16427230834961 2.676357984542847 39.99188232421875 1.499997973442078 46.00000381469727 1.499997973442078 C 52.00812530517578 1.499997973442078 57.83573532104492 2.676357984542847 63.32094955444336 4.996411323547363 C 68.61980438232422 7.237624645233154 73.37896728515625 10.44645118713379 77.46625518798828 14.53373146057129 C 81.55353546142578 18.62101173400879 84.76236724853516 23.38017082214355 87.00359344482422 28.67901039123535 C 89.32364654541016 34.16422653198242 90.5 39.99182510375977 90.5 45.99993133544922 C 90.5 52.00805282592773 89.32364654541016 57.83565139770508 87.00359344482422 63.32085037231445 C 84.76236724853516 68.61968994140625 81.55353546142578 73.37885284423828 77.46625518798828 77.46613311767578 C 73.37896728515625 81.55341339111328 68.61980438232422 84.76223754882812 63.32094955444336 87.00344848632812 C 57.83573532104492 89.32350158691406 52.00812530517578 90.49986267089844 46.00000381469727 90.49986267089844 Z" stroke="none"/>
                                                <path d="M 46.00000381469727 3 C 40.19371795654297 3 34.56270217895508 4.136505126953125 29.26337432861328 6.377914428710938 C 24.14333343505859 8.54351806640625 19.54441833496094 11.64438629150391 15.59440612792969 15.59439086914062 C 11.64440155029297 19.54440307617188 8.54351806640625 24.14330291748047 6.377914428710938 29.26334381103516 C 4.136505126953125 34.56266021728516 3.000007629394531 40.19366073608398 3.000007629394531 45.99993133544922 C 3.000007629394531 51.80620193481445 4.136505126953125 57.43720245361328 6.377914428710938 62.73651885986328 C 8.54351806640625 67.85655975341797 11.64440155029297 72.45545959472656 15.59440612792969 76.40547180175781 C 19.54441833496094 80.35547637939453 24.14333343505859 83.45634460449219 29.26337432861328 85.6219482421875 C 34.56270217895508 87.86335754394531 40.19371795654297 88.99986267089844 46.00000381469727 88.99986267089844 C 51.80628967285156 88.99986267089844 57.43730545043945 87.86335754394531 62.73661804199219 85.6219482421875 C 67.85667419433594 83.45634460449219 72.45557403564453 80.35547637939453 76.40558624267578 76.40547180175781 C 80.35560607910156 72.45545959472656 83.45647430419922 67.85655975341797 85.62207794189453 62.73651885986328 C 87.86350250244141 57.43720245361328 89 51.80620193481445 89 45.99993133544922 C 89 40.19366073608398 87.86350250244141 34.56266021728516 85.62207794189453 29.26334381103516 C 83.45647430419922 24.14330291748047 80.35560607910156 19.54440307617188 76.40558624267578 15.59439086914062 C 72.45557403564453 11.64438629150391 67.85667419433594 8.54351806640625 62.73661804199219 6.377914428710938 C 57.43730545043945 4.136505126953125 51.80628967285156 3 46.00000381469727 3 M 46.00000381469727 0 C 71.40509033203125 0 92 20.59487152099609 92 45.99993133544922 C 92 71.40499114990234 71.40509033203125 91.99986267089844 46.00000381469727 91.99986267089844 C 20.59490203857422 91.99986267089844 7.62939453125e-06 71.40499114990234 7.62939453125e-06 45.99993133544922 C 7.62939453125e-06 20.59487152099609 20.59490203857422 0 46.00000381469727 0 Z" stroke="none" fill="#eca675"/>
                                              </g>
                                            </g>
                                          </g>
                                        </g>
                                      </g>
                                    </g>
                                  </g>
                                </g>
                              </g>
                            </g>
                          </g>
                        </g>
                      </g>
                    </g>
                  </g>
                </g>
              </g>
            </g>
          </g>
        </g>
      </g>
      <g id="Capa_46" transform="translate(804 1125.518)">
        <g id="Group_1222737" data-name="Group 1222737" transform="translate(6 32.272)">
          <g id="Group_1222715" data-name="Group 1222715" transform="translate(0.853 0.857)">
            <g id="Group_1222692" data-name="Group 1222692" transform="translate(0 58.917)">
              <path id="Path_1174714" data-name="Path 1174714" d="M25.612,390.506a8.611,8.611,0,1,1,1.842-9.454A8.619,8.619,0,0,1,25.612,390.506Z" transform="translate(-10.904 -375.798)" fill="#db9b33"/>
            </g>
            <g id="Group_1222693" data-name="Group 1222693" transform="translate(4.572 63.488)">
              <path id="Path_1174715" data-name="Path 1174715" d="M47.315,412.209a8.619,8.619,0,0,1-9.454,1.842,8.619,8.619,0,0,1,11.3-11.3A8.619,8.619,0,0,1,47.315,412.209Z" transform="translate(-37.179 -402.073)" fill="#f7b538"/>
            </g>
            <g id="Group_1222694" data-name="Group 1222694" transform="translate(8.049 37.068)">
              <path id="Path_1174716" data-name="Path 1174716" d="M0,0H30.951V12.924H0Z" transform="translate(0 21.882) rotate(-45)" fill="#664326"/>
            </g>
            <g id="Group_1222695" data-name="Group 1222695" transform="translate(12.617 41.637)">
              <path id="Path_1174717" data-name="Path 1174717" d="M0,0H30.951V6.462H0Z" transform="translate(0 21.882) rotate(-45)" fill="#855a31"/>
            </g>
            <g id="Group_1222696" data-name="Group 1222696" transform="translate(22.559 4.844)">
              <path id="Path_1174718" data-name="Path 1174718" d="M0,0H43.089V25.847H0Z" transform="translate(18.274 0) rotate(45)" fill="#664326"/>
            </g>
            <g id="Group_1222697" data-name="Group 1222697" transform="translate(21.308 40.623)">
              <path id="Path_1174719" data-name="Path 1174719" d="M147.225,283.2l-1.322,1.322a1.22,1.22,0,0,1-1.725,0l-10.458-10.458a1.22,1.22,0,0,1,0-1.725l1.322-1.322a1.22,1.22,0,0,1,1.725,0l10.458,10.458A1.22,1.22,0,0,1,147.225,283.2Z" transform="translate(-133.364 -270.664)" fill="#db9b33"/>
            </g>
            <g id="Group_1222698" data-name="Group 1222698" transform="translate(26.894 46.209)">
              <path id="Path_1174720" data-name="Path 1174720" d="M173.742,309.721l-1.322,1.322a1.22,1.22,0,0,1-1.725,0l-5.229-5.229,3.046-3.046L173.742,308a1.22,1.22,0,0,1,0,1.725Z" transform="translate(-165.467 -302.767)" fill="#f7b538"/>
            </g>
            <g id="Group_1222699" data-name="Group 1222699" transform="translate(28.88 32.502)">
              <path id="Path_1174721" data-name="Path 1174721" d="M191.65,236.173l-2.262,2.262a1.109,1.109,0,0,1-1.569,0l-10.614-10.614a1.109,1.109,0,0,1,0-1.569l2.262-2.262Z" transform="translate(-176.881 -223.99)" fill="#db9b33"/>
            </g>
            <g id="Group_1222700" data-name="Group 1222700" transform="translate(34.511 38.592)">
              <path id="Path_1174722" data-name="Path 1174722" d="M218.38,265.084l-2.262,2.262a1.109,1.109,0,0,1-1.569,0l-5.308-5.308,3.046-3.046Z" transform="translate(-209.241 -258.991)" fill="#f7b538"/>
            </g>
            <g id="Group_1222701" data-name="Group 1222701" transform="translate(37.792 20.076)">
              <path id="Path_1174723" data-name="Path 1174723" d="M0,0H12.924V25.847H0Z" transform="translate(18.274 0) rotate(45)" fill="#855a31"/>
            </g>
            <g id="Group_1222702" data-name="Group 1222702" transform="translate(24.745 7.505)">
              <path id="Path_1174724" data-name="Path 1174724" d="M175.067,84.005l-18.275,18.275a2.161,2.161,0,0,1-2.08.556,2.133,2.133,0,0,1-.967-.557,2.161,2.161,0,0,1,0-3.046l18.275-18.275a2.161,2.161,0,0,1,3.046,0,2.162,2.162,0,0,1,0,3.047Z" transform="translate(-153.116 -80.33)" fill="#db9b33"/>
            </g>
            <g id="Group_1222703" data-name="Group 1222703" transform="translate(26.268 9.028)">
              <path id="Path_1174725" data-name="Path 1174725" d="M182.3,91.236l-18.275,18.275a2.161,2.161,0,0,1-2.08.556,2.161,2.161,0,0,1,.556-2.08l18.275-18.275a2.161,2.161,0,0,1,2.08-.556,2.122,2.122,0,0,1,.072.557,2.147,2.147,0,0,1-.628,1.523Z" transform="translate(-161.87 -89.084)" fill="#f7b538"/>
            </g>
            <g id="Group_1222704" data-name="Group 1222704" transform="translate(46.069 28.829)">
              <path id="Path_1174726" data-name="Path 1174726" d="M297.617,206.554,279.341,224.83a2.161,2.161,0,0,1-2.08.556,2.127,2.127,0,0,1-.966-.556,2.161,2.161,0,0,1,0-3.046l18.275-18.275a2.161,2.161,0,0,1,3.046,0,2.161,2.161,0,0,1,0,3.046Z" transform="translate(-275.667 -202.88)" fill="#db9b33"/>
            </g>
            <g id="Group_1222705" data-name="Group 1222705" transform="translate(47.59 30.349)">
              <path id="Path_1174727" data-name="Path 1174727" d="M304.836,213.773l-18.275,18.275a1.244,1.244,0,1,1-1.525-1.526l18.275-18.275a2.157,2.157,0,0,1,2.082-.555,2.17,2.17,0,0,1-.556,2.081Z" transform="translate(-284.408 -211.62)" fill="#f7b538"/>
            </g>
            <g id="Group_1222706" data-name="Group 1222706" transform="translate(50.009 32.26)">
              <path id="Path_1174728" data-name="Path 1174728" d="M0,0H4.308V25.8H0Z" transform="translate(18.243 0) rotate(45)" fill="#664326"/>
            </g>
            <g id="Group_1222707" data-name="Group 1222707" transform="translate(18.002)">
              <path id="Path_1174729" data-name="Path 1174729" d="M137.126,42.124,119.292,59.958a1.933,1.933,0,0,1-2.731,0l-.419-.419a6.111,6.111,0,0,1,0-8.617L128.09,38.974a6.111,6.111,0,0,1,8.616,0l.419.419a1.933,1.933,0,0,1,0,2.731Z" transform="translate(-114.366 -37.198)" fill="#664326"/>
            </g>
            <g id="Group_1222708" data-name="Group 1222708" transform="translate(20.476 2.474)">
              <path id="Path_1174730" data-name="Path 1174730" d="M148.87,53.869,131.037,71.7a1.927,1.927,0,0,1-1.792.517,6.117,6.117,0,0,1,1.117-7.08l11.947-11.947a6.116,6.116,0,0,1,7.079-1.116A1.927,1.927,0,0,1,148.87,53.869Z" transform="translate(-128.584 -51.417)" fill="#855a31"/>
            </g>
            <g id="Group_1222709" data-name="Group 1222709" transform="translate(52.619 34.617)">
              <path id="Path_1174731" data-name="Path 1174731" d="M335.067,245.951,323.12,257.9a6.1,6.1,0,0,1-8.617,0l-.768-.768a1.438,1.438,0,0,1,0-2.034l18.53-18.53a1.438,1.438,0,0,1,2.033,0l.768.768a6.1,6.1,0,0,1,0,8.616Z" transform="translate(-313.314 -236.146)" fill="#664326"/>
            </g>
            <g id="Group_1222710" data-name="Group 1222710" transform="translate(55.212 37.21)">
              <path id="Path_1174732" data-name="Path 1174732" d="M347.374,258.258,335.427,270.2a6.118,6.118,0,0,1-7.19,1.06,1.432,1.432,0,0,1,.4-1.27l18.53-18.53a1.429,1.429,0,0,1,1.269-.4A6.118,6.118,0,0,1,347.374,258.258Z" transform="translate(-328.214 -251.046)" fill="#855a31"/>
            </g>
            <g id="Group_1222711" data-name="Group 1222711" transform="translate(38.516 63.355)">
              <path id="Path_1174733" data-name="Path 1174733" d="M274.639,409.833H232.258a10.189,10.189,0,0,1,10.052-8.528h22.277A10.19,10.19,0,0,1,274.639,409.833Z" transform="translate(-232.258 -401.305)" fill="#664326"/>
            </g>
            <g id="Group_1222712" data-name="Group 1222712" transform="translate(54.175 63.355)">
              <path id="Path_1174734" data-name="Path 1174734" d="M348.977,409.833H322.256a10.189,10.189,0,0,1,10.052-8.528h6.617A10.189,10.189,0,0,1,348.977,409.833Z" transform="translate(-322.256 -401.305)" fill="#855a31"/>
            </g>
            <g id="Group_1222713" data-name="Group 1222713" transform="translate(34.118 71.883)">
              <path id="Path_1174735" data-name="Path 1174735" d="M258.159,452.4v.088a2.094,2.094,0,0,1-2.087,2.088h-47a2.094,2.094,0,0,1-2.087-2.088V452.4a2.094,2.094,0,0,1,2.087-2.089h47A2.094,2.094,0,0,1,258.159,452.4Z" transform="translate(-206.982 -450.316)" fill="#db9b33"/>
            </g>
            <g id="Group_1222714" data-name="Group 1222714" transform="translate(54.175 71.883)">
              <path id="Path_1174736" data-name="Path 1174736" d="M353.374,452.4v.088a2.094,2.094,0,0,1-2.087,2.088H324.342a2.094,2.094,0,0,1-2.087-2.088V452.4a2.094,2.094,0,0,1,2.087-2.089h26.944A2.094,2.094,0,0,1,353.374,452.4Z" transform="translate(-322.255 -450.316)" fill="#f7b538"/>
            </g>
          </g>
          <g id="Group_1222736" data-name="Group 1222736" transform="translate(0 0)">
            <g id="Group_1222716" data-name="Group 1222716" transform="translate(17.56 44.692)">
              <path id="Path_1174737" data-name="Path 1174737" d="M107.77,295.595a.853.853,0,0,1-.6-1.456l4.767-4.767a.853.853,0,0,1,1.206,1.206l-4.767,4.767A.85.85,0,0,1,107.77,295.595Z" transform="translate(-106.917 -289.122)"/>
            </g>
            <g id="Group_1222717" data-name="Group 1222717" transform="translate(7.705 53.83)">
              <path id="Path_1174738" data-name="Path 1174738" d="M60.624,357.965,50.28,347.622l5.393-5.393a.853.853,0,0,1,1.206,1.206l-4.186,4.187,7.931,7.931,13.665-13.665a.853.853,0,0,1,1.206,1.206Z" transform="translate(-50.28 -341.638)"/>
            </g>
            <g id="Group_1222718" data-name="Group 1222718" transform="translate(0 58.938)">
              <path id="Path_1174739" data-name="Path 1174739" d="M15.469,389.912A9.467,9.467,0,0,1,14.881,371l.105,1.7a7.764,7.764,0,1,0,8.229,8.238l1.7.106a9.46,9.46,0,0,1-9.449,8.868Z" transform="translate(-6 -370.997)"/>
            </g>
            <g id="Group_1222719" data-name="Group 1222719" transform="translate(21.309 40.627)">
              <path id="Path_1174740" data-name="Path 1174740" d="M141,281.685a2.059,2.059,0,0,1-1.466-.607l-10.457-10.457a2.075,2.075,0,0,1,0-2.931l1.321-1.321a2.072,2.072,0,0,1,2.931,0l10.457,10.457a2.075,2.075,0,0,1,0,2.931l-1.321,1.321A2.059,2.059,0,0,1,141,281.685Zm-9.136-14.218a.365.365,0,0,0-.259.108l-1.322,1.321a.367.367,0,0,0,0,.519l10.457,10.457a.367.367,0,0,0,.519,0l1.322-1.321a.367.367,0,0,0,0-.519l-10.457-10.457A.365.365,0,0,0,131.859,267.467Z" transform="translate(-128.466 -265.761)"/>
            </g>
            <g id="Group_1222720" data-name="Group 1222720" transform="translate(28.881 32.523)">
              <path id="Path_1174741" data-name="Path 1174741" d="M184.56,235.645a1.95,1.95,0,0,1-1.388-.575l-10.613-10.613a1.965,1.965,0,0,1,0-2.775l2.495-2.495,1.206,1.206-2.495,2.495a.257.257,0,0,0,0,.363l10.613,10.613a.257.257,0,0,0,.363,0l2.495-2.495,1.206,1.206-2.495,2.495a1.951,1.951,0,0,1-1.388.575Z" transform="translate(-171.985 -219.187)"/>
            </g>
            <g id="Group_1222721" data-name="Group 1222721" transform="translate(25.614 37.322)">
              <path id="Path_1174742" data-name="Path 1174742" d="M0,0H6.464V1.706H0Z" transform="translate(0 4.57) rotate(-45)"/>
            </g>
            <g id="Group_1222722" data-name="Group 1222722" transform="translate(34.752 46.462)">
              <path id="Path_1174743" data-name="Path 1174743" d="M0,0H6.464V1.706H0Z" transform="translate(0 4.57) rotate(-45)"/>
            </g>
            <g id="Group_1222723" data-name="Group 1222723" transform="translate(46.929 10.948)">
              <path id="Path_1174744" data-name="Path 1174744" d="M287.91,108.251a.85.85,0,0,1-.6-.25L275.956,96.65a.853.853,0,0,1,1.206-1.206l11.351,11.351a.853.853,0,0,1-.6,1.456Z" transform="translate(-275.706 -95.194)"/>
            </g>
            <g id="Group_1222724" data-name="Group 1222724" transform="translate(62.992 27.011)">
              <path id="Path_1174745" data-name="Path 1174745" d="M371.089,191.43a.85.85,0,0,1-.6-.25l-2.215-2.215a.853.853,0,0,1,1.206-1.206l2.215,2.215a.853.853,0,0,1-.6,1.456Z" transform="translate(-368.022 -187.51)"/>
            </g>
            <g id="Group_1222725" data-name="Group 1222725" transform="translate(24.744 7.509)">
              <path id="Path_1174746" data-name="Path 1174746" d="M151.214,99.712a3.006,3.006,0,0,1-2.126-5.133L167.362,76.3a3.007,3.007,0,1,1,4.253,4.253L153.34,98.833A3,3,0,0,1,151.214,99.712Zm18.275-22.58a1.293,1.293,0,0,0-.92.379L150.293,95.786a1.3,1.3,0,0,0,1.841,1.841l18.275-18.275a1.3,1.3,0,0,0-.92-2.22Z" transform="translate(-148.208 -75.426)"/>
            </g>
            <g id="Group_1222726" data-name="Group 1222726" transform="translate(46.068 28.831)">
              <path id="Path_1174747" data-name="Path 1174747" d="M273.763,222.255a3.006,3.006,0,0,1-2.126-5.133l18.275-18.275a3.007,3.007,0,0,1,4.253,4.253l-18.275,18.275A3,3,0,0,1,273.763,222.255Zm18.275-22.582a1.3,1.3,0,0,0-.92.381l-18.275,18.275a1.3,1.3,0,0,0,1.841,1.841l18.275-18.275a1.3,1.3,0,0,0-.92-2.221Z" transform="translate(-270.757 -197.968)"/>
            </g>
            <g id="Group_1222727" data-name="Group 1222727" transform="translate(41.078 5.108)">
              <path id="Path_1174748" data-name="Path 1174748" d="M0,0H1.706V4.311H0Z" transform="translate(0 1.206) rotate(-45)"/>
            </g>
            <g id="Group_1222728" data-name="Group 1222728" transform="translate(22.571 23.615)">
              <path id="Path_1174749" data-name="Path 1174749" d="M0,0H1.706V4.3H0Z" transform="translate(0 1.206) rotate(-45)"/>
            </g>
            <g id="Group_1222729" data-name="Group 1222729" transform="translate(68.492 32.527)">
              <path id="Path_1174750" data-name="Path 1174750" d="M0,0H1.706V4.311H0Z" transform="translate(0 1.206) rotate(-45)"/>
            </g>
            <g id="Group_1222730" data-name="Group 1222730" transform="translate(49.986 51.04)">
              <path id="Path_1174751" data-name="Path 1174751" d="M0,0H1.706V4.3H0Z" transform="translate(0 1.206) rotate(-45)"/>
            </g>
            <g id="Group_1222731" data-name="Group 1222731" transform="translate(17.999)">
              <path id="Path_1174752" data-name="Path 1174752" d="M113.86,57.308a2.765,2.765,0,0,1-1.968-.815l-.42-.42a6.953,6.953,0,0,1,0-9.822L123.419,34.3a6.953,6.953,0,0,1,9.822,0l.42.42a2.786,2.786,0,0,1,0,3.936L115.828,56.492a2.764,2.764,0,0,1-1.968.815Zm14.471-23.33a5.223,5.223,0,0,0-3.7,1.532L112.678,47.457a5.258,5.258,0,0,0,0,7.41l.42.419h0a1.077,1.077,0,0,0,1.523,0l17.833-17.833a1.079,1.079,0,0,0,0-1.524l-.42-.42A5.225,5.225,0,0,0,128.33,33.978Z" transform="translate(-109.441 -32.272)"/>
            </g>
            <g id="Group_1222732" data-name="Group 1222732" transform="translate(52.621 34.622)">
              <path id="Path_1174753" data-name="Path 1174753" d="M314.768,256.484a6.9,6.9,0,0,1-4.911-2.027l-.768-.767h0a2.293,2.293,0,0,1,0-3.24l18.529-18.53a2.293,2.293,0,0,1,3.24,0l.768.768a6.953,6.953,0,0,1,0,9.822l-11.947,11.947A6.9,6.9,0,0,1,314.768,256.484Zm-4.473-4,.768.767a5.257,5.257,0,0,0,7.41,0L330.42,241.3a5.258,5.258,0,0,0,0-7.41l-.768-.768a.6.6,0,0,0-.828,0L310.3,251.656A.586.586,0,0,0,310.3,252.484Z" transform="translate(-308.419 -231.25)"/>
            </g>
            <g id="Group_1222733" data-name="Group 1222733" transform="translate(34.117 71.889)">
              <path id="Path_1174754" data-name="Path 1174754" d="M252.019,451.393h-47a2.945,2.945,0,0,1-2.942-2.94v-.088a2.944,2.944,0,0,1,2.942-2.94h32.047a.853.853,0,1,1,0,1.706H205.018a1.237,1.237,0,0,0-1.236,1.234v.088a1.237,1.237,0,0,0,1.236,1.234h47a1.236,1.236,0,0,0,1.235-1.234v-.088a1.236,1.236,0,0,0-1.235-1.234h-8.29a.853.853,0,1,1,0-1.706h8.29a2.944,2.944,0,0,1,2.94,2.94v.088A2.944,2.944,0,0,1,252.019,451.393Z" transform="translate(-202.076 -445.424)"/>
            </g>
            <g id="Group_1222734" data-name="Group 1222734" transform="translate(38.527 63.359)">
              <path id="Path_1174755" data-name="Path 1174755" d="M269.8,405.921a9.292,9.292,0,0,0-9.21-7.813H238.315a9.336,9.336,0,0,0-9.21,7.813l-1.684-.275a11.042,11.042,0,0,1,10.894-9.243h22.277a10.992,10.992,0,0,1,10.894,9.243Z" transform="translate(-227.421 -396.403)"/>
            </g>
            <g id="Group_1222735" data-name="Group 1222735" transform="translate(28.896 29.478)">
              <path id="Path_1174756" data-name="Path 1174756" d="M0,0H1.706V25.846H0Z" transform="translate(0 1.206) rotate(-45)"/>
            </g>
          </g>
        </g>
      </g>
    </g>
  </g>
</svg>
