<svg xmlns="http://www.w3.org/2000/svg" xmlns:xlink="http://www.w3.org/1999/xlink" width="110" height="110" viewBox="0 0 110 110">
  <defs>
    <filter id="Path_982547" x="0" y="0" width="110" height="110" filterUnits="userSpaceOnUse">
      <feOffset dy="3" input="SourceAlpha"/>
      <feGaussianBlur stdDeviation="3" result="blur"/>
      <feFlood flood-opacity="0.161"/>
      <feComposite operator="in" in2="blur"/>
      <feComposite in="SourceGraphic"/>
    </filter>
  </defs>
  <g id="Group_1223235" data-name="Group 1223235" transform="translate(-377.001 -1624.245)">
    <g id="Group_1223130" data-name="Group 1223130">
      <g id="Group_1215976" data-name="Group 1215976" transform="translate(0.001 -9705.727)">
        <g id="Group_1214724" data-name="Group 1214724" transform="translate(386 11335.972)">
          <g id="Group_1200150" data-name="Group 1200150" transform="translate(0 0)">
            <g id="Group_1185951" data-name="Group 1185951" transform="translate(0 0)">
              <g id="Group_1184083" data-name="Group 1184083" transform="translate(0 0)">
                <g id="Group_1183743" data-name="Group 1183743">
                  <g id="Group_1181545" data-name="Group 1181545">
                    <g id="Group_1177562" data-name="Group 1177562">
                      <g id="Group_1173147" data-name="Group 1173147">
                        <g id="Group_1163801" data-name="Group 1163801">
                          <g id="Group_1163014" data-name="Group 1163014">
                            <g id="Group_1157015" data-name="Group 1157015">
                              <g id="Group_1155792" data-name="Group 1155792">
                                <g id="Group_1154703" data-name="Group 1154703">
                                  <g id="Group_1150789" data-name="Group 1150789">
                                    <g id="Group_1154212" data-name="Group 1154212">
                                      <g id="Group_1152583" data-name="Group 1152583">
                                        <g id="Group_1146973" data-name="Group 1146973">
                                          <g id="Group_1146954" data-name="Group 1146954">
                                            <g transform="matrix(1, 0, 0, 1, -9, -6)" filter="url(#Path_982547)">
                                              <g id="Path_982547-2" data-name="Path 982547" transform="translate(9 6)" fill="#f9e3d4">
                                                <path d="M 46 90.49986267089844 C 39.99187850952148 90.49986267089844 34.16426849365234 89.32350158691406 28.67905426025391 87.00344848632812 C 23.38021278381348 84.76223754882812 18.62104034423828 81.55340576171875 14.53376007080078 77.46612548828125 C 10.44646644592285 73.37884521484375 7.237653255462646 68.61968994140625 4.996426582336426 63.32084655761719 C 2.676373243331909 57.83563232421875 1.50001335144043 52.00803375244141 1.50001335144043 45.99992752075195 C 1.50001335144043 39.9918212890625 2.676373243331909 34.16422271728516 4.996426582336426 28.67900657653809 C 7.237653255462646 23.38016700744629 10.44646644592285 18.62100791931152 14.53376007080078 14.53372764587402 C 18.62104034423828 10.44644737243652 23.38021278381348 7.237634181976318 28.67905426025391 4.996420860290527 C 34.16426849365234 2.676367521286011 39.99187850952148 1.500007510185242 46 1.500007510185242 C 52.00812149047852 1.500007510185242 57.83572006225586 2.676367521286011 63.32094573974609 4.996420860290527 C 68.61978912353516 7.237634181976318 73.37895965576172 10.44646072387695 77.46623992919922 14.53372764587402 C 81.55353546142578 18.62100791931152 84.76235961914062 23.38016700744629 87.00358581542969 28.67900657653809 C 89.32363891601562 34.16422271728516 90.5 39.9918212890625 90.5 45.99992752075195 C 90.5 52.00803375244141 89.32363891601562 57.83563232421875 87.00358581542969 63.32084655761719 C 84.76235961914062 68.61968994140625 81.55353546142578 73.37884521484375 77.46623992919922 77.46612548828125 C 73.37895965576172 81.55340576171875 68.61978912353516 84.76223754882812 63.32094573974609 87.00344848632812 C 57.83572006225586 89.32350158691406 52.00812149047852 90.49986267089844 46 90.49986267089844 Z" stroke="none"/>
                                                <path d="M 46 3 C 40.1937141418457 3 34.56269836425781 4.136497497558594 29.26338577270508 6.377914428710938 C 24.14332580566406 8.543510437011719 19.54442596435547 11.64438629150391 15.59441375732422 15.59438323974609 C 11.64440155029297 19.54439544677734 8.543525695800781 24.14329528808594 6.3779296875 29.26333999633789 C 4.136497497558594 34.56265640258789 3 40.19365692138672 3 45.99992752075195 C 3 51.80619812011719 4.136497497558594 57.43719863891602 6.3779296875 62.73651123046875 C 8.543525695800781 67.85655212402344 11.64440155029297 72.45545959472656 15.59441375732422 76.40547180175781 C 19.54442596435547 80.35546875 24.14332580566406 83.45634460449219 29.26338577270508 85.62194061279297 C 34.56269836425781 87.86335754394531 40.1937141418457 88.99985504150391 46 88.99985504150391 C 51.8062858581543 88.99985504150391 57.43728637695312 87.86335754394531 62.73661422729492 85.62194061279297 C 67.85665893554688 83.45634460449219 72.45557403564453 80.35546875 76.40558624267578 76.40547180175781 C 80.35559844970703 72.45545959472656 83.45647430419922 67.85655212402344 85.6220703125 62.73651123046875 C 87.86348724365234 57.43719863891602 88.99998474121094 51.80619812011719 88.99998474121094 45.99992752075195 C 88.99998474121094 40.19365692138672 87.86348724365234 34.56265640258789 85.6220703125 29.26333999633789 C 83.45647430419922 24.14329528808594 80.35559844970703 19.54439544677734 76.40558624267578 15.59438323974609 C 72.45557403564453 11.64438629150391 67.85665893554688 8.543510437011719 62.73661422729492 6.377914428710938 C 57.43728637695312 4.136497497558594 51.8062858581543 3 46 3 M 46 0 C 71.40509033203125 0 91.99998474121094 20.59487152099609 91.99998474121094 45.99992752075195 C 91.99998474121094 71.40498352050781 71.40509033203125 91.99985504150391 46 91.99985504150391 C 20.59491729736328 91.99985504150391 0 71.40498352050781 0 45.99992752075195 C 0 20.59487152099609 20.59491729736328 0 46 0 Z" stroke="none" fill="#eca675"/>
                                              </g>
                                            </g>
                                          </g>
                                        </g>
                                      </g>
                                    </g>
                                  </g>
                                </g>
                              </g>
                            </g>
                          </g>
                        </g>
                      </g>
                    </g>
                  </g>
                </g>
              </g>
            </g>
          </g>
        </g>
      </g>
      <g id="ley_14_" data-name="ley (14)" transform="translate(388.766 1629.949)">
        <g id="Group_1223128" data-name="Group 1223128" transform="translate(1.252 17.032)">
          <path id="Path_1175473" data-name="Path 1175473" d="M331.134,355.545c-4.628-.517-12.166-3.621-21.16-5.867H308.13l-4.507,4.426-2.393,4.73-.81,4.353.726-.437h29.548l.637-.426.835-5.431A1.176,1.176,0,0,0,331.134,355.545Z" transform="translate(-251.52 -299.741)" fill="#fef0db"/>
          <path id="Path_1175474" data-name="Path 1175474" d="M91.907,345.416c-5.166,1.186-9.9,2.718-13.956,3.987l-.847.507v.918l1.195,8.246H98.291l3.047,1.1,2.421-5.133,1.544-.876.429-.792C103.772,349.645,99.389,343.7,91.907,345.416Z" transform="translate(-65.484 -295.936)" fill="#fef0db"/>
          <path id="Path_1175475" data-name="Path 1175475" d="M342.258,158.274l.941,3.55,1.294,2.473,1.857,1.007h.832a3.835,3.835,0,0,0,2.247-1.3,8.9,8.9,0,0,0,2.083-5.734h-9.254Z" transform="translate(-286.374 -140.289)" fill="#ffd500"/>
          <g id="Group_1223125" data-name="Group 1223125" transform="translate(42.721 49.175)">
            <path id="Path_1175476" data-name="Path 1175476" d="M279.14,345.874q-.944-.236-1.909-.458c-7.482-1.717-11.865,4.229-13.825,7.959v.875l4.858,5.926,1.667-1C270.917,354.919,273.329,348.573,279.14,345.874Z" transform="translate(-263.407 -345.111)" fill="#fee6c1"/>
          </g>
          <g id="Group_1223126" data-name="Group 1223126" transform="translate(2.308 53.466)">
            <path id="Path_1175477" data-name="Path 1175477" d="M32.152,380.261l-1.216-7.911a1.709,1.709,0,0,1,.548-1.534,55.011,55.011,0,0,1-9.112,2.338A1.175,1.175,0,0,0,21.34,374.5l.835,5.431,1.229.555h9.251Z" transform="translate(-21.326 -370.816)" fill="#fee6c1"/>
          </g>
          <path id="Path_1175478" data-name="Path 1175478" d="M315.411,164.009a8.9,8.9,0,0,1-2.083-5.734h-6.511a8.9,8.9,0,0,0,2.083,5.734,3.882,3.882,0,0,0,2.982,1.365h5.041a4.025,4.025,0,0,0,.735-.069A3.836,3.836,0,0,1,315.411,164.009Z" transform="translate(-256.85 -140.29)" fill="#fbc700"/>
          <path id="Path_1175479" data-name="Path 1175479" d="M255.243,398.759h-.912l-2.588,2.8-.306,2.516.831,5.26h2.772l3.254-4.34v-1.227A6.12,6.12,0,0,0,255.243,398.759Z" transform="translate(-210.715 -340.628)" fill="#fcd79b"/>
          <path id="Path_1175480" data-name="Path 1175480" d="M225.505,400.029a6.114,6.114,0,0,1,3.122-5.362,6.047,6.047,0,0,0-3.044-.82,6.121,6.121,0,0,0-6.1,5.827V400.9l3.136,4.34h5.8l.031-.041A6.11,6.11,0,0,1,225.505,400.029Z" transform="translate(-184.099 -336.536)" fill="#fccc80"/>
          <path id="Path_1175481" data-name="Path 1175481" d="M352.019,58.3h-.679l-.948,1.29-.374,1.5.374,1.922,1.178.8.45.071a3.227,3.227,0,0,0,0-5.579Z" transform="translate(-292.839 -57.002)" fill="#8bcaff"/>
          <path id="Path_1175482" data-name="Path 1175482" d="M336.147,58.876a3.228,3.228,0,0,1,1.6-2.79,3.233,3.233,0,1,0,0,5.579A3.229,3.229,0,0,1,336.147,58.876Z" transform="translate(-278.572 -54.792)" fill="#60b9fe"/>
          <path id="Path_1175483" data-name="Path 1175483" d="M149.743,158.274l.941,3.55,1.294,2.473,1.857,1.007h.832a3.835,3.835,0,0,0,2.247-1.3A8.9,8.9,0,0,0,159,158.274h-9.254Z" transform="translate(-125.997 -140.289)" fill="#ffd500"/>
          <path id="Path_1175484" data-name="Path 1175484" d="M122.9,164.009a8.9,8.9,0,0,1-2.083-5.734H114.3a8.9,8.9,0,0,0,2.083,5.734,3.882,3.882,0,0,0,2.982,1.365h5.041a4.024,4.024,0,0,0,.735-.069A3.837,3.837,0,0,1,122.9,164.009Z" transform="translate(-96.473 -140.29)" fill="#fbc700"/>
          <path id="Path_1175485" data-name="Path 1175485" d="M159.5,58.3h-.679l-.948,1.29-.374,1.5.374,1.922,1.178.8.45.071a3.227,3.227,0,0,0,0-5.579Z" transform="translate(-132.462 -57.002)" fill="#8bcaff"/>
          <path id="Path_1175486" data-name="Path 1175486" d="M143.632,58.876a3.228,3.228,0,0,1,1.6-2.79,3.233,3.233,0,1,0,0,5.579A3.228,3.228,0,0,1,143.632,58.876Z" transform="translate(-118.195 -54.792)" fill="#60b9fe"/>
          <path id="Path_1175487" data-name="Path 1175487" d="M258.445,50.749h-.62L256.395,52V57.35l.995,1.224.65.209.4.043a2.342,2.342,0,0,0,1.957-2.309V53.058A2.342,2.342,0,0,0,258.445,50.749Z" transform="translate(-214.845 -50.714)" fill="#ffd500"/>
          <path id="Path_1175488" data-name="Path 1175488" d="M235.833,56.343V52.885a2.342,2.342,0,0,1,1.957-2.309,2.36,2.36,0,0,0-.387-.035h-3.459a2.343,2.343,0,0,0-2.343,2.343v3.459a2.343,2.343,0,0,0,2.343,2.343H237.4a2.341,2.341,0,0,0,.387-.035A2.342,2.342,0,0,1,235.833,56.343Z" transform="translate(-194.19 -50.541)" fill="#fbc700"/>
          <path id="Path_1175489" data-name="Path 1175489" d="M256.238,255.055H249.3l-.356.081-.762.595-.355.96v3.391s.543.73.558.746.558.308.558.308l.505.139h6.784a1.845,1.845,0,0,0,1.845-1.845V256.9A1.845,1.845,0,0,0,256.238,255.055Z" transform="translate(-207.712 -220.914)" fill="#ffd500"/>
          <path id="Path_1175490" data-name="Path 1175490" d="M210.413,259.429V256.9a1.845,1.845,0,0,1,1.845-1.845h-7.65a1.845,1.845,0,0,0-1.845,1.845v2.529a1.845,1.845,0,0,0,1.845,1.845h7.65A1.845,1.845,0,0,1,210.413,259.429Z" transform="translate(-170.166 -220.914)" fill="#fbc700"/>
          <path id="Path_1175491" data-name="Path 1175491" d="M145.135,425.427H113.895a6.394,6.394,0,0,0-5.822,3.706,3.184,3.184,0,0,1-3.633,1.774,3.312,3.312,0,0,1-2.188-1.852,6.4,6.4,0,0,0-5.786-3.628H76.056l-.306.1-.793.678V430.4l.558.636.669.3h20.28a.489.489,0,0,1,.445.247,9.088,9.088,0,0,0,16.54,0,.488.488,0,0,1,.445-.247h31.241a1.528,1.528,0,0,0,1.528-1.528v-2.854A1.528,1.528,0,0,0,145.135,425.427Z" transform="translate(-63.696 -362.844)" fill="#ff7f87"/>
          <g id="Group_1223127" data-name="Group 1223127" transform="translate(0 62.583)">
            <path id="Path_1175492" data-name="Path 1175492" d="M18.852,429.808v-2.854a1.528,1.528,0,0,1,1.528-1.528H9.028A1.528,1.528,0,0,0,7.5,426.954v2.854a1.528,1.528,0,0,0,1.528,1.528H20.38A1.528,1.528,0,0,1,18.852,429.808Z" transform="translate(-7.5 -425.426)" fill="#ff636e"/>
          </g>
        </g>
        <g id="Group_1223129" data-name="Group 1223129" transform="translate(0 10.317)">
          <path id="Path_1175493" data-name="Path 1175493" d="M134.875,33.765a1.251,1.251,0,0,0-.29,2.469,10.2,10.2,0,0,0,2.3,5.321,5.117,5.117,0,0,0,3.942,1.813h5.041a5.117,5.117,0,0,0,3.942-1.813,10.2,10.2,0,0,0,2.3-5.321,1.251,1.251,0,0,0-.289-2.469h-.05L146.5,24.3a4.483,4.483,0,1,0-7.456-4.448H132.6v-.477a3.6,3.6,0,0,0-3.6-3.6h-.477V11.569a1.252,1.252,0,1,0-2.5,0V15.78h-.477a3.6,3.6,0,0,0-3.6,3.6v.477h-6.442a4.484,4.484,0,1,0-7.456,4.448l-5.27,9.464h-.05a1.251,1.251,0,0,0-.289,2.469,10.2,10.2,0,0,0,2.3,5.321,5.117,5.117,0,0,0,3.942,1.813h5.041a5.116,5.116,0,0,0,3.942-1.813,10.2,10.2,0,0,0,2.3-5.321,1.251,1.251,0,0,0-.289-2.469h-.05l-5.27-9.464a4.486,4.486,0,0,0,1.155-1.944h6.436v.477a3.6,3.6,0,0,0,3.6,3.6h.477V49.921h-5.79a3.1,3.1,0,0,0-3.1,3.1v2.529a3.1,3.1,0,0,0,3.1,3.1h4.121a1.252,1.252,0,0,0,0-2.5h-4.121a.594.594,0,0,1-.593-.593V53.018a.594.594,0,0,1,.593-.593H134.32a.594.594,0,0,1,.593.593v2.529a.594.594,0,0,1-.593.593H130.2a1.252,1.252,0,0,0,0,2.5h4.121a3.1,3.1,0,0,0,3.1-3.1V53.018a3.1,3.1,0,0,0-3.1-3.1h-5.79V26.43h.477a3.6,3.6,0,0,0,3.6-3.6v-.477h6.435a4.488,4.488,0,0,0,1.155,1.944l-5.27,9.464ZM111.209,19.136a1.98,1.98,0,1,1-1.98,1.98A1.983,1.983,0,0,1,111.209,19.136Zm4.543,20.812a2.619,2.619,0,0,1-2.022.917h-5.041a2.619,2.619,0,0,1-2.022-.917,7.688,7.688,0,0,1-1.687-3.678H117.44A7.691,7.691,0,0,1,115.752,39.947Zm1.014-6.183H105.652l4.6-8.267a4.46,4.46,0,0,0,1.907,0ZM130.1,22.834a1.093,1.093,0,0,1-1.092,1.091h-3.459a1.093,1.093,0,0,1-1.091-1.091V19.376a1.093,1.093,0,0,1,1.091-1.091h3.459a1.093,1.093,0,0,1,1.092,1.091Zm13.248-3.7a1.98,1.98,0,1,1-1.98,1.98A1.983,1.983,0,0,1,143.347,19.136Zm-.954,6.362a4.461,4.461,0,0,0,1.908,0l4.6,8.267H137.79Zm7.184,10.771a7.69,7.69,0,0,1-1.687,3.678,2.619,2.619,0,0,1-2.022.917h-5.041a2.619,2.619,0,0,1-2.022-.917,7.691,7.691,0,0,1-1.687-3.678Z" transform="translate(-84.543 -10.317)"/>
          <path id="Path_1175494" data-name="Path 1175494" d="M2.78,359.416H33.563a10.34,10.34,0,0,0,18.345,0H62.815a1.252,1.252,0,0,0,0-2.5H51.451a1.726,1.726,0,0,0-1.584.98,7.836,7.836,0,0,1-14.262,0,1.727,1.727,0,0,0-1.584-.98H2.78a.276.276,0,0,1-.276-.276v-2.854a.276.276,0,0,1,.276-.276H34.021a5.173,5.173,0,0,1,4.654,2.911h0a4.433,4.433,0,0,0,8.092.062,5.155,5.155,0,0,1,4.683-2.973H82.692a.276.276,0,0,1,.276.276v2.854a.276.276,0,0,1-.276.276H68.658a1.252,1.252,0,1,0,0,2.5H82.692a2.783,2.783,0,0,0,2.78-2.78v-2.854a2.783,2.783,0,0,0-2.78-2.78h-.169l.613-3.988A2.427,2.427,0,0,0,81,344.232c-4.757-.532-13.1-4.046-22.927-6.3a11.573,11.573,0,0,0-10.024,2.162,19.08,19.08,0,0,0-4.764,5.66,6.8,6.8,0,0,0-1.108,0,19.078,19.078,0,0,0-4.764-5.66,11.572,11.572,0,0,0-10.023-2.162c-9.826,2.255-18.171,5.77-22.927,6.3a2.427,2.427,0,0,0-2.131,2.782L2.949,351H2.78A2.783,2.783,0,0,0,0,353.782v2.854a2.783,2.783,0,0,0,2.78,2.78Zm54.737-19.045c9.771,2.242,17.992,5.74,23.131,6.34L79.989,351H51.451a7.714,7.714,0,0,0-1.613.171l0-.01a7.341,7.341,0,0,0-4.022-4.763c2.281-3.742,6.023-7.333,11.705-6.029ZM47.483,352.1a7.567,7.567,0,0,0-2.994,3.339,1.936,1.936,0,0,1-2.036,1.108,2.022,2.022,0,0,1-1.513-1.2,7.652,7.652,0,0,0-2.951-3.246,4.848,4.848,0,0,1,9.494,0Zm-19.528-11.73c5.682-1.3,9.424,2.287,11.705,6.029a7.343,7.343,0,0,0-4.026,4.773A7.67,7.67,0,0,0,34.021,351H5.483l-.66-4.291C9.963,346.11,18.184,342.613,27.955,340.371Z" transform="translate(0 -282.956)"/>
        </g>
      </g>
    </g>
  </g>
</svg>
