<svg xmlns="http://www.w3.org/2000/svg" xmlns:xlink="http://www.w3.org/1999/xlink" width="108" height="108" viewBox="0 0 108 108">
  <defs>
    <filter id="Path_904820" x="0" y="0" width="108" height="108" filterUnits="userSpaceOnUse">
      <feOffset dy="3" input="SourceAlpha"/>
      <feGaussianBlur stdDeviation="3" result="blur"/>
      <feFlood flood-opacity="0.161"/>
      <feComposite operator="in" in2="blur"/>
      <feComposite in="SourceGraphic"/>
    </filter>
  </defs>
  <g id="Group_1223213" data-name="Group 1223213" transform="translate(-612 -6161)">
    <g id="Group_1223011" data-name="Group 1223011">
      <g id="Group_1222256" data-name="Group 1222256" transform="translate(-5 4033)">
        <g id="Group_1220657" data-name="Group 1220657" transform="translate(626 2134)">
          <g id="Group_1219944" data-name="Group 1219944" transform="translate(0 0)">
            <g id="Group_1209015" data-name="Group 1209015">
              <g id="Group_1207774" data-name="Group 1207774">
                <g id="Group_1206630" data-name="Group 1206630">
                  <g id="Group_1185091" data-name="Group 1185091">
                    <g id="Group_1179560" data-name="Group 1179560">
                      <g id="Group_1173787" data-name="Group 1173787">
                        <g id="Group_1171910" data-name="Group 1171910">
                          <g id="Group_1167341" data-name="Group 1167341">
                            <g id="Group_1166792" data-name="Group 1166792">
                              <g transform="matrix(1, 0, 0, 1, -9, -6)" filter="url(#Path_904820)">
                                <g id="Path_904820-2" data-name="Path 904820" transform="translate(9 6)" fill="#e7f2f8">
                                  <path d="M 44.99996948242188 88.50005340576172 C 39.12684631347656 88.50005340576172 33.43020629882812 87.35012817382812 28.06828117370605 85.08221435546875 C 22.88851928710938 82.89136505126953 18.23629379272461 79.754638671875 14.2408447265625 75.75918579101562 C 10.24540710449219 71.76374053955078 7.108694553375244 67.11151123046875 4.917831897735596 61.93173980712891 C 2.649931907653809 56.56980133056641 1.500007033348083 50.87314987182617 1.500007033348083 45.00002670288086 C 1.500007033348083 39.12690353393555 2.649931907653809 33.43025207519531 4.917831897735596 28.06831359863281 C 7.108694553375244 22.8885383605957 10.24540710449219 18.23631477355957 14.2408447265625 14.24086380004883 C 18.23629379272461 10.2454137802124 22.88851928710938 7.108689308166504 28.06828117370605 4.917839050292969 C 33.43020629882812 2.649926662445068 39.12684631347656 1.500001668930054 44.99996948242188 1.500001668930054 C 50.87309265136719 1.500001668930054 56.56973266601562 2.649926662445068 61.93165588378906 4.917839050292969 C 67.11143493652344 7.108689308166504 71.76364135742188 10.2454137802124 75.75909423828125 14.24086380004883 C 79.75454711914062 18.23631477355957 82.89125823974609 22.8885383605957 85.08212280273438 28.06831359863281 C 87.35002136230469 33.43025207519531 88.49994659423828 39.12690353393555 88.49994659423828 45.00002670288086 C 88.49994659423828 50.87314987182617 87.35002136230469 56.56980133056641 85.08212280273438 61.93173980712891 C 82.89125823974609 67.11151123046875 79.75454711914062 71.76374053955078 75.75909423828125 75.75918579101562 C 71.76364135742188 79.754638671875 67.11143493652344 82.89136505126953 61.93165588378906 85.08221435546875 C 56.56973266601562 87.35012817382812 50.87309265136719 88.50005340576172 44.99996948242188 88.50005340576172 Z" stroke="none"/>
                                  <path d="M 44.99996948242188 3 C 39.32868194580078 3 33.82863998413086 4.110054016113281 28.65261077880859 6.299339294433594 C 23.65164184570312 8.414566040039062 19.15968322753906 11.44334411621094 15.301513671875 15.30152893066406 C 11.44332885742188 19.15969848632812 8.414566040039062 23.65167236328125 6.299324035644531 28.65264129638672 C 4.110054016113281 33.82868194580078 3 39.32873916625977 3 45.00002670288086 C 3 50.67131423950195 4.110054016113281 56.17137145996094 6.299324035644531 61.347412109375 C 8.414566040039062 66.34838104248047 11.44332885742188 70.84035491943359 15.301513671875 74.69852447509766 C 19.15968322753906 78.55670928955078 23.65164184570312 81.58547973632812 28.65261077880859 83.70071411132812 C 33.82863998413086 85.88999938964844 39.32868194580078 87.00005340576172 44.99996948242188 87.00005340576172 C 50.67125701904297 87.00005340576172 56.17129898071289 85.88999938964844 61.34732818603516 83.70071411132812 C 66.34829711914062 81.58547973632812 70.84025573730469 78.55670928955078 74.69842529296875 74.69852447509766 C 78.55661010742188 70.84035491943359 81.58537292480469 66.34838104248047 83.70061492919922 61.347412109375 C 85.88988494873047 56.17137145996094 86.99993896484375 50.67131423950195 86.99993896484375 45.00002670288086 C 86.99993896484375 39.32873916625977 85.88988494873047 33.82868194580078 83.70061492919922 28.65264129638672 C 81.58537292480469 23.65167236328125 78.55661010742188 19.15969848632812 74.69842529296875 15.30152893066406 C 70.84025573730469 11.44334411621094 66.34829711914062 8.414566040039062 61.34732818603516 6.299339294433594 C 56.17129898071289 4.110054016113281 50.67125701904297 3 44.99996948242188 3 M 44.99996948242188 0 C 69.85276794433594 0 89.99993896484375 20.14720153808594 89.99993896484375 45.00002670288086 C 89.99993896484375 69.85285949707031 69.85276794433594 90.00005340576172 44.99996948242188 90.00005340576172 C 20.14717102050781 90.00005340576172 0 69.85285949707031 0 45.00002670288086 C 0 20.14720153808594 20.14717102050781 0 44.99996948242188 0 Z" stroke="none" fill="#248abf"/>
                                </g>
                              </g>
                            </g>
                          </g>
                        </g>
                      </g>
                    </g>
                  </g>
                </g>
              </g>
            </g>
          </g>
        </g>
      </g>
      <g id="leyes_2_" data-name="leyes (2)" transform="translate(626.823 6178.566)">
        <path id="Path_1175149" data-name="Path 1175149" d="M70.987,61.392a6,6,0,0,1-4.255-1.764l-.208-.208,1.846-1.846.208.208a3.394,3.394,0,0,0,3.933.637,20.625,20.625,0,0,1,16.213-.932,17.969,17.969,0,0,0,12.263,0,20.64,20.64,0,0,1,16.217.932,3.394,3.394,0,0,0,3.933-.637l.209-.208,1.845,1.846-.208.208a6.012,6.012,0,0,1-6.947,1.127,18.022,18.022,0,0,0-14.157-.815,20.59,20.59,0,0,1-14.049,0,18.019,18.019,0,0,0-14.157.815A6.017,6.017,0,0,1,70.987,61.392Zm0,0" transform="translate(-55.669 -47.003)" fill="#ffa912"/>
        <path id="Path_1175150" data-name="Path 1175150" d="M152.012,296.215h15.665a7.833,7.833,0,0,1,7.832,7.832H144.18A7.832,7.832,0,0,1,152.012,296.215Zm0,0" transform="translate(-120.653 -247.805)" fill="#ffb531"/>
        <path id="Path_1175151" data-name="Path 1175151" d="M261.4,296.215H256.18a7.833,7.833,0,0,1,7.833,7.832h5.222A7.833,7.833,0,0,0,261.4,296.215Zm0,0" transform="translate(-214.378 -247.805)" fill="#ffa912"/>
        <g id="Group_1223010" data-name="Group 1223010" transform="translate(1.334 1.395)">
          <path id="Path_1175152" data-name="Path 1175152" d="M224.01,12.028a3.916,3.916,0,1,0-6.527,2.9V55.107H222.7V14.928A3.888,3.888,0,0,0,224.01,12.028Zm0,0" transform="translate(-182.237 -8.092)" fill="#ffb531"/>
          <path id="Path_1175153" data-name="Path 1175153" d="M8.18,192.215H34.288a7.832,7.832,0,0,1-7.832,7.833H16.012A7.832,7.832,0,0,1,8.18,192.215Zm0,0" transform="translate(-8.18 -162.17)" fill="#ffb531"/>
          <path id="Path_1175154" data-name="Path 1175154" d="M312.18,192.215h26.108a7.833,7.833,0,0,1-7.833,7.833H320.013A7.832,7.832,0,0,1,312.18,192.215Zm0,0" transform="translate(-262.574 -162.17)" fill="#ffb531"/>
        </g>
        <path id="Path_1175155" data-name="Path 1175155" d="M400.013,192.215a7.833,7.833,0,0,1-7.833,7.833H397.4a7.832,7.832,0,0,0,7.833-7.833Zm0,0" transform="translate(-328.186 -160.776)" fill="#ffa912"/>
        <path id="Path_1175156" data-name="Path 1175156" d="M15.45,72.932a1.353,1.353,0,0,0-2.123,0L.273,91.208A1.305,1.305,0,1,0,2.4,92.725L14.389,75.937,26.381,92.725A1.305,1.305,0,1,0,28.5,91.208Zm0,0" transform="translate(0 -60.527)" fill="#d6d6d4"/>
        <path id="Path_1175157" data-name="Path 1175157" d="M332.5,91.207,319.45,72.931a1.353,1.353,0,0,0-2.123,0L304.273,91.207a1.305,1.305,0,1,0,2.123,1.517l11.993-16.787,11.993,16.787a1.305,1.305,0,0,0,2.123-1.517Zm0,0" transform="translate(-254.394 -60.527)" fill="#d6d6d4"/>
        <path id="Path_1175158" data-name="Path 1175158" d="M96.012,192.215a7.832,7.832,0,0,1-7.832,7.833H93.4a7.832,7.832,0,0,0,7.833-7.833Zm0,0" transform="translate(-73.791 -160.776)" fill="#ffa912"/>
        <path id="Path_1175159" data-name="Path 1175159" d="M85.959,354.658H49.407a11.674,11.674,0,0,1,0-10.443H85.959A11.674,11.674,0,0,0,85.959,354.658Zm0,0" transform="translate(-40.314 -287.973)" fill="#803f37"/>
        <path id="Path_1175160" data-name="Path 1175160" d="M76.016,344.825l.323-.61h-2.9a13.032,13.032,0,0,0,0,10.443h2.891l-.308-.583A10.413,10.413,0,0,1,76.016,344.825Zm0,0" transform="translate(-60.546 -287.973)" fill="#ffb531"/>
        <path id="Path_1175161" data-name="Path 1175161" d="M235.543,344.848l.351-.633h-2.914a13.037,13.037,0,0,0,0,10.443h2.906l-.325-.583A10.405,10.405,0,0,1,235.543,344.848Zm0,0" transform="translate(-194.051 -287.973)" fill="#ffb531"/>
        <path id="Path_1175162" data-name="Path 1175162" d="M273.407,344.215a11.674,11.674,0,0,0,0,10.443h24.8a11.674,11.674,0,0,1,0-10.443Zm0,0" transform="translate(-227.762 -287.973)" fill="#e0e0de"/>
        <path id="Path_1175163" data-name="Path 1175163" d="M111.73,368.215h15.665v2.611H111.73Zm0,0" transform="translate(-93.499 -308.057)" fill="#f98500"/>
        <path id="Path_1175164" data-name="Path 1175164" d="M297.066,368.215h-24.8a11.843,11.843,0,0,0,0,2.611h24.8A11.839,11.839,0,0,1,297.066,368.215Zm0,0" transform="translate(-227.776 -308.057)" fill="#d6d6d4"/>
        <path id="Path_1175165" data-name="Path 1175165" d="M85.959,418.658H49.407a11.674,11.674,0,0,1,0-10.443H85.959A11.674,11.674,0,0,0,85.959,418.658Zm0,0" transform="translate(-40.314 -341.53)" fill="#773730"/>
        <path id="Path_1175166" data-name="Path 1175166" d="M76.016,408.825l.323-.61h-2.9a13.032,13.032,0,0,0,0,10.443h2.891l-.308-.583A10.413,10.413,0,0,1,76.016,408.825Zm0,0" transform="translate(-60.546 -341.529)" fill="#ffb531"/>
        <path id="Path_1175167" data-name="Path 1175167" d="M235.543,408.848l.351-.633h-2.914a13.037,13.037,0,0,0,0,10.443h2.906l-.325-.583A10.405,10.405,0,0,1,235.543,408.848Zm0,0" transform="translate(-194.051 -341.53)" fill="#ffb531"/>
        <path id="Path_1175168" data-name="Path 1175168" d="M273.407,408.215a11.674,11.674,0,0,0,0,10.443h24.8a11.674,11.674,0,0,1,0-10.443Zm0,0" transform="translate(-227.762 -341.53)" fill="#d6d6d4"/>
        <path id="Path_1175169" data-name="Path 1175169" d="M111.73,432.215h15.665v2.611H111.73Zm0,0" transform="translate(-93.499 -361.613)" fill="#f98500"/>
        <path id="Path_1175170" data-name="Path 1175170" d="M297.066,432.215h-24.8a11.842,11.842,0,0,0,0,2.611h24.8A11.839,11.839,0,0,1,297.066,432.215Zm0,0" transform="translate(-227.776 -361.613)" fill="#c7c7c5"/>
        <path id="Path_1175171" data-name="Path 1175171" d="M111.73,432.215h15.665v2.611H111.73Zm0,0" transform="translate(-93.499 -361.613)"/>
        <path id="Path_1175172" data-name="Path 1175172" d="M111.73,368.215h15.665v2.611H111.73Zm0,0" transform="translate(-93.499 -308.057)"/>
        <path id="Path_1175173" data-name="Path 1175173" d="M78.261,30.681,66.081,13.629a5.974,5.974,0,0,0,1.389-1.005l.209-.208L65.833,10.57l-.209.208a3.413,3.413,0,0,1-3.94.641,20.777,20.777,0,0,0-16.207-.932,17.6,17.6,0,0,1-2.219.629V8.764a5.222,5.222,0,1,0-7.833,0v2.35a17.52,17.52,0,0,1-2.212-.628,20.763,20.763,0,0,0-16.208.928,3.48,3.48,0,0,1-3.946-.639l-.208-.208-1.846,1.845.207.209a5.982,5.982,0,0,0,1.392,1L.424,30.68l.018.013a1.277,1.277,0,0,0-.262.745,9.149,9.149,0,0,0,9.138,9.138H19.761A9.15,9.15,0,0,0,28.9,31.439a1.276,1.276,0,0,0-.261-.745l.018-.013L16.889,14.216a6.317,6.317,0,0,0,1.268-.458,18.123,18.123,0,0,1,14.154-.817,20.385,20.385,0,0,0,3.115.831V47.1H31.51a9.147,9.147,0,0,0-9.034,7.833H9.245a1.306,1.306,0,0,0-1.167.722,13.031,13.031,0,0,0-.251,11.027,13.033,13.033,0,0,0,.251,11.027,1.305,1.305,0,0,0,1.167.722H70.6a1.305,1.305,0,0,0,1.168-1.889,10.421,10.421,0,0,1,0-9.276,22.981,22.981,0,0,1,.09-.259,1.18,1.18,0,0,0,.029-.163.986.986,0,0,0,0-.324,1.18,1.18,0,0,0-.029-.163,1.053,1.053,0,0,0-.054-.152.984.984,0,0,0-.036-.106,10.421,10.421,0,0,1,0-9.276A1.306,1.306,0,0,0,70.6,54.936H56.209A9.146,9.146,0,0,0,47.175,47.1H43.259V13.771a20.624,20.624,0,0,0,3.114-.832,18.124,18.124,0,0,1,14.149.818,6.094,6.094,0,0,0,1.267.46L50.03,30.681l.018.013a1.277,1.277,0,0,0-.262.745,9.149,9.149,0,0,0,9.138,9.138H69.367a9.15,9.15,0,0,0,9.138-9.138,1.276,1.276,0,0,0-.261-.745ZM14.54,15.41,25.057,30.134H4.022Zm5.222,22.556H9.318a6.538,6.538,0,0,1-6.4-5.222H26.158a6.537,6.537,0,0,1-6.4,5.222Zm48.381,24.8a12.972,12.972,0,0,0,.522,2.611H46.653c-.03-.076-.068-.15-.1-.226-.05-.131-.094-.261-.138-.392-.077-.227-.143-.458-.2-.689-.034-.131-.069-.261-.1-.391-.054-.251-.1-.5-.131-.757-.006-.048-.015-.1-.021-.143Zm0,7.832H45.967a1.112,1.112,0,0,1,.021-.143c.035-.254.077-.507.131-.757.029-.131.064-.261.1-.391.061-.231.131-.462.2-.69.045-.131.089-.261.138-.391.029-.076.066-.15.1-.226H68.669a12.944,12.944,0,0,0-.526,2.6ZM43.615,58.461l-.01.034a13.118,13.118,0,0,0-.227,1.305c-.014.112-.026.222-.038.334-.043.435-.073.869-.075,1.305v.034c0,.437.031.871.075,1.305.011.113.024.222.038.333a13.118,13.118,0,0,0,.227,1.305l.01.034q.108.464.25.914h-2.5a10.408,10.408,0,0,1,0-7.833h2.5q-.142.469-.25.934ZM15.322,67.991H38.592a13.052,13.052,0,0,0,0,7.832H15.322A10.414,10.414,0,0,1,15.322,67.991ZM38.589,65.38H15.322a10.414,10.414,0,0,1,0-7.832H38.592a13.052,13.052,0,0,0,0,7.832Zm-28.5-7.832h2.47a13.052,13.052,0,0,0,0,7.832h-2.47a10.432,10.432,0,0,1,0-7.832Zm0,10.443h2.47a13.052,13.052,0,0,0,0,7.832h-2.47a10.432,10.432,0,0,1,0-7.832Zm31.275,7.832a10.408,10.408,0,0,1,0-7.832h2.5q-.142.456-.251.914l-.01.034a13.117,13.117,0,0,0-.227,1.305c-.014.112-.026.222-.038.334-.043.435-.073.869-.075,1.305v.034c0,.437.031.871.075,1.305.011.113.024.222.038.333a13.117,13.117,0,0,0,.227,1.305l.01.034q.108.464.251.914Zm5.291,0c-.03-.076-.068-.15-.1-.226-.05-.131-.094-.261-.138-.392-.077-.227-.143-.458-.2-.689-.034-.131-.069-.261-.1-.391-.054-.251-.1-.5-.131-.757-.006-.048-.015-.1-.021-.143H68.143a12.981,12.981,0,0,0,.522,2.611ZM68.14,60.158H45.967a1.112,1.112,0,0,1,.021-.143c.035-.254.077-.507.131-.757.029-.131.064-.261.1-.391.061-.231.131-.462.2-.69.045-.131.089-.261.138-.391.029-.076.066-.15.1-.226H68.668a12.944,12.944,0,0,0-.526,2.6ZM53.571,54.936H25.113a6.538,6.538,0,0,1,6.4-5.222H47.175a6.537,6.537,0,0,1,6.4,5.222ZM38.037,47.1V8.231a1.309,1.309,0,0,0-.431-.97,2.574,2.574,0,0,1-.875-1.931,2.611,2.611,0,1,1,5.222,0,2.577,2.577,0,0,1-.875,1.931,1.306,1.306,0,0,0-.43.97V47.1Zm36.626-16.97H53.628L64.145,15.41Zm-5.3,7.832H58.924a6.538,6.538,0,0,1-6.4-5.222H75.763a6.537,6.537,0,0,1-6.4,5.222Zm0,0" transform="translate(-0.151)"/>
      </g>
    </g>
  </g>
</svg>
