<svg xmlns="http://www.w3.org/2000/svg" xmlns:xlink="http://www.w3.org/1999/xlink" width="110" height="110" viewBox="0 0 110 110">
  <defs>
    <filter id="Path_982547" x="0" y="0" width="110" height="110" filterUnits="userSpaceOnUse">
      <feOffset dy="3" input="SourceAlpha"/>
      <feGaussianBlur stdDeviation="3" result="blur"/>
      <feFlood flood-opacity="0.161"/>
      <feComposite operator="in" in2="blur"/>
      <feComposite in="SourceGraphic"/>
    </filter>
  </defs>
  <g id="Group_1223239" data-name="Group 1223239" transform="translate(-10516.001 -2337.434)">
    <g id="Group_1223157" data-name="Group 1223157" transform="translate(0 222.188)">
      <g id="Group_1222275" data-name="Group 1222275" transform="translate(9824.001 -9215.727)">
        <g id="Group_1214725" data-name="Group 1214725" transform="translate(701 11336.972)">
          <g id="Group_1200151" data-name="Group 1200151" transform="translate(0 0)">
            <g id="Group_1185952" data-name="Group 1185952" transform="translate(0 0)">
              <g id="Group_1184115" data-name="Group 1184115">
                <g id="Group_1183744" data-name="Group 1183744">
                  <g id="Group_1181546" data-name="Group 1181546">
                    <g id="Group_1177563" data-name="Group 1177563">
                      <g id="Group_1173148" data-name="Group 1173148">
                        <g id="Group_1163803" data-name="Group 1163803">
                          <g id="Group_1163015" data-name="Group 1163015">
                            <g id="Group_1157017" data-name="Group 1157017">
                              <g id="Group_1155793" data-name="Group 1155793">
                                <g id="Group_1154704" data-name="Group 1154704">
                                  <g id="Group_1150790" data-name="Group 1150790">
                                    <g id="Group_1154214" data-name="Group 1154214">
                                      <g id="Group_1152583" data-name="Group 1152583">
                                        <g id="Group_1146973" data-name="Group 1146973">
                                          <g id="Group_1146954" data-name="Group 1146954">
                                            <g transform="matrix(1, 0, 0, 1, -9, -6)" filter="url(#Path_982547)">
                                              <g id="Path_982547-2" data-name="Path 982547" transform="translate(9 6)" fill="#f9e3d4">
                                                <path d="M 46 90.49986267089844 C 39.99187850952148 90.49986267089844 34.16426849365234 89.32350158691406 28.67905426025391 87.00344848632812 C 23.38021278381348 84.76223754882812 18.62104034423828 81.55340576171875 14.53376007080078 77.46612548828125 C 10.44646644592285 73.37884521484375 7.237653255462646 68.61968994140625 4.996426582336426 63.32084655761719 C 2.676373243331909 57.83563232421875 1.50001335144043 52.00803375244141 1.50001335144043 45.99992752075195 C 1.50001335144043 39.9918212890625 2.676373243331909 34.16422271728516 4.996426582336426 28.67900657653809 C 7.237653255462646 23.38016700744629 10.44646644592285 18.62100791931152 14.53376007080078 14.53372764587402 C 18.62104034423828 10.44644737243652 23.38021278381348 7.237634181976318 28.67905426025391 4.996420860290527 C 34.16426849365234 2.676367521286011 39.99187850952148 1.500007510185242 46 1.500007510185242 C 52.00812149047852 1.500007510185242 57.83572006225586 2.676367521286011 63.32094573974609 4.996420860290527 C 68.61978912353516 7.237634181976318 73.37895965576172 10.44646072387695 77.46623992919922 14.53372764587402 C 81.55353546142578 18.62100791931152 84.76235961914062 23.38016700744629 87.00358581542969 28.67900657653809 C 89.32363891601562 34.16422271728516 90.5 39.9918212890625 90.5 45.99992752075195 C 90.5 52.00803375244141 89.32363891601562 57.83563232421875 87.00358581542969 63.32084655761719 C 84.76235961914062 68.61968994140625 81.55353546142578 73.37884521484375 77.46623992919922 77.46612548828125 C 73.37895965576172 81.55340576171875 68.61978912353516 84.76223754882812 63.32094573974609 87.00344848632812 C 57.83572006225586 89.32350158691406 52.00812149047852 90.49986267089844 46 90.49986267089844 Z" stroke="none"/>
                                                <path d="M 46 3 C 40.1937141418457 3 34.56269836425781 4.136497497558594 29.26338577270508 6.377914428710938 C 24.14332580566406 8.543510437011719 19.54442596435547 11.64438629150391 15.59441375732422 15.59438323974609 C 11.64440155029297 19.54439544677734 8.543525695800781 24.14329528808594 6.3779296875 29.26333999633789 C 4.136497497558594 34.56265640258789 3 40.19365692138672 3 45.99992752075195 C 3 51.80619812011719 4.136497497558594 57.43719863891602 6.3779296875 62.73651123046875 C 8.543525695800781 67.85655212402344 11.64440155029297 72.45545959472656 15.59441375732422 76.40547180175781 C 19.54442596435547 80.35546875 24.14332580566406 83.45634460449219 29.26338577270508 85.62194061279297 C 34.56269836425781 87.86335754394531 40.1937141418457 88.99985504150391 46 88.99985504150391 C 51.8062858581543 88.99985504150391 57.43728637695312 87.86335754394531 62.73661422729492 85.62194061279297 C 67.85665893554688 83.45634460449219 72.45557403564453 80.35546875 76.40558624267578 76.40547180175781 C 80.35559844970703 72.45545959472656 83.45647430419922 67.85655212402344 85.6220703125 62.73651123046875 C 87.86348724365234 57.43719863891602 88.99998474121094 51.80619812011719 88.99998474121094 45.99992752075195 C 88.99998474121094 40.19365692138672 87.86348724365234 34.56265640258789 85.6220703125 29.26333999633789 C 83.45647430419922 24.14329528808594 80.35559844970703 19.54439544677734 76.40558624267578 15.59438323974609 C 72.45557403564453 11.64438629150391 67.85665893554688 8.543510437011719 62.73661422729492 6.377914428710938 C 57.43728637695312 4.136497497558594 51.8062858581543 3 46 3 M 46 0 C 71.40509033203125 0 91.99998474121094 20.59487152099609 91.99998474121094 45.99992752075195 C 91.99998474121094 71.40498352050781 71.40509033203125 91.99985504150391 46 91.99985504150391 C 20.59491729736328 91.99985504150391 0 71.40498352050781 0 45.99992752075195 C 0 20.59487152099609 20.59491729736328 0 46 0 Z" stroke="none" fill="#eca675"/>
                                              </g>
                                            </g>
                                          </g>
                                        </g>
                                      </g>
                                    </g>
                                  </g>
                                </g>
                              </g>
                            </g>
                          </g>
                        </g>
                      </g>
                    </g>
                  </g>
                </g>
              </g>
            </g>
          </g>
        </g>
      </g>
      <g id="poblacion_1_" data-name="poblacion (1)" transform="translate(10536.613 2135.495)">
        <path id="Path_1175595" data-name="Path 1175595" d="M256,289.054V276.771a8.5,8.5,0,0,1,11.727-7.878l6.978-.819a2.765,2.765,0,0,1,1.33,5.32l-6.745,2.641,8.519-5.3,5.649-12.966a2.911,2.911,0,1,1,5.337,2.326l-5.854,13.434a13.843,13.843,0,0,1-7.874,7.448L267.1,283.93l-.355,5.124Z" transform="translate(-221.612 -221.635)" fill="#cc9081"/>
        <g id="Group_1223155" data-name="Group 1223155" transform="translate(6.991 1.343)">
          <path id="XMLID_86_" d="M199.883,120.7h-5.5A6.382,6.382,0,0,0,188,127.083v6.209h18.265v-6.209A6.382,6.382,0,0,0,199.883,120.7Z" transform="translate(-169.735 -105.834)" fill="#ff7d97"/>
          <path id="XMLID_83_" d="M229.369,48.574a4.131,4.131,0,0,0-4.131,4.131v1.424a4.131,4.131,0,0,0,8.263,0V52.705A4.131,4.131,0,0,0,229.369,48.574Z" transform="translate(-201.972 -43.393)" fill="#cc9081"/>
          <path id="XMLID_89_" d="M161.369,10a4.131,4.131,0,0,0-4.131,4.131v1.424a4.131,4.131,0,1,0,8.263,0V14.131A4.131,4.131,0,0,0,161.369,10Z" transform="translate(-143.104 -10)" fill="#f2b394"/>
          <path id="XMLID_229_" d="M297.369,10a4.131,4.131,0,0,1,4.131,4.131v1.424a4.131,4.131,0,1,1-8.263,0V14.131A4.131,4.131,0,0,1,297.369,10Z" transform="translate(-260.839 -10)" fill="#ffd0c7"/>
          <path id="XMLID_80_" d="M63.883,120.7h-5.5A6.382,6.382,0,0,0,52,127.083v6.209H70.265v-6.209A6.382,6.382,0,0,0,63.883,120.7Z" transform="translate(-52 -105.834)" fill="#a0e5a5"/>
          <path id="XMLID_79_" d="M93.369,48.574a4.131,4.131,0,0,0-4.131,4.131v1.424a4.131,4.131,0,0,0,8.263,0V52.705A4.131,4.131,0,0,0,93.369,48.574Z" transform="translate(-84.237 -43.393)" fill="#ffd0c7"/>
          <path id="XMLID_76_" d="M330.382,120.7h5.5a6.382,6.382,0,0,1,6.382,6.382v6.209H324v-6.209A6.382,6.382,0,0,1,330.382,120.7Z" transform="translate(-287.47 -105.834)" fill="#ffda8f"/>
          <path id="XMLID_75_" d="M365.369,48.574a4.131,4.131,0,0,1,4.131,4.131v1.424a4.131,4.131,0,1,1-8.263,0V52.705A4.131,4.131,0,0,1,365.369,48.574Z" transform="translate(-319.707 -43.393)" fill="#f2b394"/>
        </g>
        <path id="Path_1175596" data-name="Path 1175596" d="M43.038,289.054V276.77a8.5,8.5,0,0,0-11.727-7.878l-6.978-.819a2.765,2.765,0,0,0-1.33,5.32l6.745,2.641-8.519-5.3L15.58,257.767a2.911,2.911,0,0,0-5.337,2.326L16.1,273.526a13.842,13.842,0,0,0,7.874,7.448l7.963,2.955.355,5.124Z" transform="translate(-8.65 -221.634)" fill="#cc9081"/>
        <g id="Group_1223156" data-name="Group 1223156" transform="translate(0.008 0)">
          <path id="Path_1175597" data-name="Path 1175597" d="M43.343,30.144h54.8A1.343,1.343,0,0,0,99.481,28.8V22.592a7.737,7.737,0,0,0-5.9-7.506,5.441,5.441,0,0,0,.9-3.007V10.655a5.471,5.471,0,0,0-9.133-4.069V5.474a5.474,5.474,0,0,0-10.949,0V6.586a5.462,5.462,0,0,0-7.316,0V5.474a5.474,5.474,0,1,0-10.949,0V6.586A5.471,5.471,0,0,0,47,10.655v1.424a5.441,5.441,0,0,0,.9,3.007A7.737,7.737,0,0,0,42,22.592V28.8A1.343,1.343,0,0,0,43.343,30.144Zm13.7-15.058a5.441,5.441,0,0,0,.9-3.007V10.967a5.462,5.462,0,0,0,7.316,0v1.112a5.441,5.441,0,0,0,.9,3.007,7.748,7.748,0,0,0-4.561,3.159,7.746,7.746,0,0,0-4.561-3.159Zm5.9,7.506a5.045,5.045,0,0,1,5.039-5.039h5.5a5.045,5.045,0,0,1,5.039,5.039v4.866H62.951ZM76.215,12.079V10.967a5.462,5.462,0,0,0,7.316,0v1.112a5.441,5.441,0,0,0,.9,3.007,7.748,7.748,0,0,0-4.561,3.159,7.746,7.746,0,0,0-4.561-3.159A5.442,5.442,0,0,0,76.215,12.079ZM96.8,22.592v4.866H81.216V22.592a5.045,5.045,0,0,1,5.039-5.039h5.5A5.045,5.045,0,0,1,96.8,22.592ZM86.217,10.655a2.788,2.788,0,1,1,5.577,0v1.424a2.788,2.788,0,1,1-5.577,0ZM77.085,5.474a2.788,2.788,0,0,1,5.577,0V6.9a2.788,2.788,0,0,1-5.577,0Zm-9.133,5.181a2.788,2.788,0,1,1,5.577,0v1.424a2.788,2.788,0,1,1-5.577,0ZM58.82,5.474a2.788,2.788,0,0,1,5.577,0V6.9a2.788,2.788,0,0,1-5.577,0Zm-9.133,5.181a2.788,2.788,0,1,1,5.577,0v1.424a2.788,2.788,0,1,1-5.577,0Zm-5,11.937a5.045,5.045,0,0,1,5.039-5.039h5.5a5.045,5.045,0,0,1,5.039,5.039v4.866H44.686Z" transform="translate(-36.36 0)"/>
          <path id="Path_1175598" data-name="Path 1175598" d="M66.214,246.363a4.254,4.254,0,0,0-5.6,2.2L56.063,259.01a4.1,4.1,0,0,0-3.127-.938l-6.645.78a9.83,9.83,0,0,0-11.9,4.287,9.83,9.83,0,0,0-11.9-4.287l-6.645-.78a4.1,4.1,0,0,0-3.127.938L8.162,248.563a4.254,4.254,0,0,0-7.8,3.4L6.216,265.4a15.26,15.26,0,0,0,8.638,8.171L22,276.22l.3,4.259a1.343,1.343,0,0,0,1.34,1.25h21.5a1.343,1.343,0,0,0,1.34-1.25l.3-4.259,7.151-2.654a15.123,15.123,0,0,0,4.843-2.921,1.343,1.343,0,0,0-1.791-2,12.446,12.446,0,0,1-3.987,2.4L45.025,274a1.343,1.343,0,0,0-.873,1.166l-.269,3.874H35.731V268.1a7.155,7.155,0,0,1,9.873-6.636,1.338,1.338,0,0,0,.667.092l6.978-.819a1.422,1.422,0,0,1,.684,2.736l-6.745,2.641a1.343,1.343,0,1,0,.979,2.5l6.745-2.641a4.136,4.136,0,0,0,2.6-3.567l5.566-12.775a1.568,1.568,0,0,1,2.875,1.253l-3.382,7.762a1.343,1.343,0,1,0,2.462,1.073l3.382-7.762A4.259,4.259,0,0,0,66.214,246.363ZM24.624,275.17A1.343,1.343,0,0,0,23.751,274l-7.963-2.955a12.562,12.562,0,0,1-7.11-6.726L2.824,250.889A1.568,1.568,0,0,1,5.7,249.636l5.565,12.772a4.137,4.137,0,0,0,2.6,3.569l6.745,2.641a1.343,1.343,0,1,0,.979-2.5l-6.745-2.641a1.422,1.422,0,0,1,.684-2.736l6.978.819a1.339,1.339,0,0,0,.667-.092,7.155,7.155,0,0,1,9.873,6.636v10.94H24.892Z" transform="translate(-0.008 -212.967)"/>
          <ellipse id="Ellipse_14658" data-name="Ellipse 14658" cx="1.343" cy="1.343" rx="1.343" ry="1.343" transform="translate(60.032 50.417)"/>
        </g>
      </g>
    </g>
  </g>
</svg>
